<svg xmlns="http://www.w3.org/2000/svg" width="44.302" height="40" viewBox="0 0 44.302 40">
  <g id="Group_9" data-name="Group 9" transform="translate(0 0)">
    <path id="Path_12" data-name="Path 12" d="M256.72,266.774a11.634,11.634,0,0,0-4.86,2.512l-.041.035c-.2.175-.4.355-.589.546a11.7,11.7,0,0,0,0,16.551h0l.012.011a11.7,11.7,0,0,0,16.3.215c.079-.075.16-.148.237-.226l0,0c.176-.176.342-.356.5-.539.046-.052.091-.1.135-.157q.189-.222.365-.45c.033-.043.067-.085.1-.129q.223-.3.426-.607l.025-.041q.192-.3.363-.6l.054-.1a11.692,11.692,0,0,0-1.973-13.927l-8.672-8.672A7.092,7.092,0,0,0,256.72,266.774Zm7.074,15.658a6.066,6.066,0,1,1,0-8.579A6.071,6.071,0,0,1,263.794,282.432Z" transform="translate(-237.155 -261.195)" fill="#51ba6c"/>
    <g id="Group_5" data-name="Group 5" transform="translate(0 23.096)">
      <path id="Path_13" data-name="Path 13" d="M261.579,314.535a17.337,17.337,0,0,1-30.064,0c-2.569-2.569-7.119-2.564-7.119-2.564a23.007,23.007,0,0,0,22.152,16.9h0a23.006,23.006,0,0,0,22.151-16.9S264.147,311.967,261.579,314.535Z" transform="translate(-224.396 -311.971)" fill="#51ba6c"/>
    </g>
    <path id="Path_14" data-name="Path 14" d="M259.944,337.022l.206-.016q.291-.023.577-.061c.054-.007.108-.013.161-.02q.369-.053.73-.128l.047-.011q.345-.074.683-.169l.106-.03a11.688,11.688,0,0,0,8.34-9.625,17.321,17.321,0,0,1-23.18,0,11.7,11.7,0,0,0,11.262,10.076c.109,0,.218.008.327.008h0C259.455,337.048,259.7,337.037,259.944,337.022Z" transform="translate(-237.054 -297.048)" fill="#30975d"/>
    <path id="Path_23" data-name="Path 23" d="M256.72,266.774a11.634,11.634,0,0,0-4.86,2.512l-.041.035c-.2.175-.4.355-.589.546a11.7,11.7,0,0,0,0,16.551h0l.012.011a11.7,11.7,0,0,0,16.3.215c.079-.075.16-.148.237-.226l0,0c.176-.176.342-.356.5-.539.046-.052.091-.1.135-.157q.189-.222.365-.45c.033-.043.067-.085.1-.129q.223-.3.426-.607l.025-.041q.192-.3.363-.6l.054-.1a11.692,11.692,0,0,0-1.973-13.927l-8.672-8.672A7.092,7.092,0,0,0,256.72,266.774Zm7.074,15.658a6.066,6.066,0,1,1,0-8.579A6.071,6.071,0,0,1,263.794,282.432Z" transform="translate(-237.155 -261.195)" fill="#51ba6c"/>
  </g>
</svg>
