<?xml version="1.0" encoding="UTF-8"?>
<svg width="45px" height="45px" viewBox="0 0 45 45" version="1.1" xmlns="http://www.w3.org/2000/svg" xmlns:xlink="http://www.w3.org/1999/xlink">
    <!-- Generator: Sketch 62 (91390) - https://sketch.com -->
    <title>Artboard</title>
    <desc>Created with Sketch.</desc>
    <g id="Artboard" stroke="none" stroke-width="1" fill="none" fill-rule="evenodd">
        <g id="work-life-balance-ic" fill="#51BA6C" fill-rule="nonzero">
            <path d="M42.105,11.843 C43.8920122,10.5090692 44.9544479,8.4178496 44.978,6.188 C44.978,2.888 42.93,0.75 39.728,0.75 C38.1345573,0.745604132 36.6221813,1.4521129 35.603,2.677 C34.5835077,1.45195661 33.0707613,0.74544614 31.477,0.75 C28.305,0.75 26.227,2.888 26.227,6.188 C26.2563627,8.41642169 27.3175675,10.5052184 29.1,11.843 C29.94,12.593 30.188,12.931 33.532,15.751 L16.807,15.751 C17.0796407,15.2979954 17.2247588,14.7797164 17.227,14.251 L17.227,11.04 C17.6883168,10.7736716 17.9737848,10.2826666 17.977,9.75 L17.977,6.75 C17.977,5.09314575 16.6338542,3.75 14.977,3.75 L14.227,3.75 L14.227,2.25 C14.227,1.00735931 13.2196407,0 11.977,0 L7.477,0 C6.23435931,0 5.227,1.00735931 5.227,2.25 L5.227,3.75 L4.477,3.75 C2.82014575,3.75 1.477,5.09314575 1.477,6.75 L1.477,9.75 C1.48021519,10.2826666 1.7656832,10.7736716 2.227,11.04 L2.227,14.25 C2.22919154,14.7787234 2.37431328,15.2970153 2.647,15.75 C1.19725253,15.7375736 0.0119264069,16.9027525 -0.000598476639,18.3525 C-0.0129264069,19.8022475 1.15225253,20.9875736 2.602,21 L16.53,21 C16.842815,23.4791862 18.6594153,25.5049346 21.09,26.085 L10.335,40.253 C9.65521466,41.1442908 9.538261,42.3434785 10.033024,43.34932 C10.5277869,44.3551615 11.5490733,44.9944608 12.67,45 L32.28,45 C33.4018279,44.9963486 34.4248433,44.35777 34.9208538,43.351547 C35.4168643,42.3453239 35.3003194,41.1450071 34.62,40.253 L23.865,26.085 C26.2955847,25.5049346 28.112185,23.4791862 28.425,21 L42.352,21 C43.8017475,21 44.977,19.8247475 44.977,18.375 C44.977,16.9252525 43.8017475,15.75 42.352,15.75 L37.67,15.75 C41.023,12.922 41.225,12.615 42.102,11.842 L42.105,11.843 Z M6.727,2.25 C6.727,1.83578644 7.06278644,1.5 7.477,1.5 L11.977,1.5 C12.3912136,1.5 12.727,1.83578644 12.727,2.25 L12.727,3.75 L6.727,3.75 L6.727,2.25 Z M2.977,6.75 C2.977,5.92157288 3.64857288,5.25 4.477,5.25 L14.977,5.25 C15.8054271,5.25 16.477,5.92157288 16.477,6.75 L16.477,9.75 L11.977,9.75 C11.977,8.92157288 11.3054271,8.25 10.477,8.25 L8.977,8.25 C8.14857288,8.25 7.477,8.92157288 7.477,9.75 L2.977,9.75 L2.977,6.75 Z M10.477,12 L8.977,12 L8.977,9.75 L10.477,9.75 L10.477,12 Z M3.727,14.25 L3.727,11.25 L7.477,11.25 L7.477,12 C7.477,12.8284271 8.14857288,13.5 8.977,13.5 L10.477,13.5 C11.3054271,13.5 11.977,12.8284271 11.977,12 L11.977,11.25 L15.727,11.25 L15.727,14.25 C15.727,15.0784271 15.0554271,15.75 14.227,15.75 L5.227,15.75 C4.39857288,15.75 3.727,15.0784271 3.727,14.25 Z M32.28,43.5 L12.67,43.5 C12.1174176,43.4973832 11.6140099,43.1819705 11.3706232,42.6858686 C11.1272364,42.1897667 11.1858832,41.5986111 11.522,41.16 L22.472,26.737 L33.427,41.16 C33.7630103,41.5984681 33.8217387,42.1893981 33.5786014,42.6854236 C33.3354641,43.1814492 32.8324022,43.4970059 32.28,43.5 Z M22.48,24.75 C20.2849143,24.7489952 18.4108474,23.1643839 18.045,21 L26.91,21 C26.5442791,23.1636392 24.6713296,24.7480202 22.477,24.75 L22.48,24.75 Z M43.48,18.375 C43.48,18.6738891 43.3610629,18.9604928 43.1494352,19.1715577 C42.9378075,19.3826225 42.650888,19.500797 42.352,19.500004 L2.602,19.500004 C1.98067966,19.500004 1.477,18.9963203 1.477,18.375 C1.477,17.7536797 1.98067966,17.25 2.602,17.25 L42.352,17.25 C42.9733203,17.25 43.477,17.7536797 43.477,18.375 L43.48,18.375 Z M40.48,11.25 C39.497,12.21 36.73,14.557 35.575,15.495 C34.475,14.588 31.683,12.24 30.73,11.25 C29.305,9.855 27.73,8.887 27.73,6.157 C27.73,3.682 29.088,2.24894837 31.48,2.24894837 C32.7724181,2.24237318 33.984831,2.87402533 34.72,3.937 C34.9386621,4.22085977 35.2766852,4.38715959 35.635,4.38715959 C35.9933148,4.38715959 36.3313379,4.22085977 36.55,3.937 C37.2756964,2.89436367 38.4597864,2.26582786 39.73,2.24894837 C42.093,2.24894837 43.48,3.682 43.48,6.187 C43.477,8.94 41.835,9.975 40.477,11.25 L40.48,11.25 Z" id="Shape"></path>
            <path d="M41.152,5.54699935 C40.7295022,5.54699935 40.387,5.88950217 40.387,6.312 C40.387,7.261 40.127,7.605 39.102,8.546 C38.9010381,8.73195673 38.8145484,9.01099975 38.8751107,9.27801624 C38.935673,9.54503273 39.1340865,9.75945653 39.3956107,9.84051626 C39.6571349,9.921576 39.9420381,9.85695676 40.143,9.671 C41.243,8.653 41.918,7.919 41.918,6.312 C41.918,6.10893601 41.8372649,5.91420356 41.6935832,5.77070945 C41.5499016,5.62721534 41.3550638,5.54673456 41.152,5.54699935 Z" id="Shape-2"></path>
            <path d="M13.357,41.174 C13.357,41.5964978 13.6995022,41.939 14.122,41.939 L30.832,41.939 C31.2544978,41.939 31.597,41.5964978 31.597,41.174 C31.597,40.7515022 31.2544978,40.409 30.832,40.409 L14.122,40.409 C13.6995022,40.409 13.357,40.7515022 13.357,41.174 L13.357,41.174 Z" id="Shape-3"></path>
        </g>
    </g>
</svg>