<svg xmlns="http://www.w3.org/2000/svg" width="25.651" height="26.034" viewBox="0 0 25.651 26.034">
  <g id="hour" transform="translate(0.283 0.25)">
    <g id="Layer_2_19_" transform="translate(0 0)">
      <g id="Group_783" data-name="Group 783">
        <path id="Path_551" data-name="Path 551" d="M28.1,8.519a1.008,1.008,0,0,0-1.886.714A10.521,10.521,0,0,1,12.23,22.626a10.611,10.611,0,0,1-2.089-1.191A10.521,10.521,0,0,1,20.187,3.152l-.714,1.207c-.2.331-.045.553.335.491L23.2,4.3a.564.564,0,0,0,.457-.772L22.507.29c-.129-.363-.4-.389-.591-.057L21.227,1.4A12.537,12.537,0,0,0,4.734,17.61a12.454,12.454,0,0,0,4.211,5.45,12.629,12.629,0,0,0,2.489,1.419A12.537,12.537,0,0,0,28.1,8.519Z" transform="translate(-3.832 0)" fill="#56c482" stroke="#56c482" stroke-width="0.5"/>
        <path id="Path_552" data-name="Path 552" d="M213.806,90.917a.822.822,0,0,0-.822.822v8.188l7.489,3.871a.822.822,0,1,0,.754-1.46l-6.6-3.412V91.739A.822.822,0,0,0,213.806,90.917Z" transform="translate(-201.739 -86.045)" fill="#56c482" stroke="#56c482" stroke-width="0.5"/>
      </g>
    </g>
  </g>
</svg>
