<svg xmlns="http://www.w3.org/2000/svg" width="13.507" height="13.339" viewBox="0 0 13.507 13.339">
  <g id="edit" transform="translate(0.25 -0.011)">
    <path id="Path_870" data-name="Path 870" d="M11.91,45.979a.321.321,0,0,0-.321.321v2.854a.965.965,0,0,1-.964.964H1.607a.965.965,0,0,1-.964-.964V40.779a.965.965,0,0,1,.964-.964H4.46a.321.321,0,1,0,0-.643H1.607A1.609,1.609,0,0,0,0,40.779v8.375a1.609,1.609,0,0,0,1.607,1.607h9.018a1.609,1.609,0,0,0,1.607-1.607V46.3A.321.321,0,0,0,11.91,45.979Zm0,0" transform="translate(0 -37.661)" fill="#51ba6c" stroke="#51ba6c" stroke-width="0.5"/>
    <path id="Path_871" data-name="Path 871" d="M116.817.684a1.446,1.446,0,0,0-2.045,0l-5.734,5.734a.321.321,0,0,0-.082.141L108.2,9.282a.321.321,0,0,0,.4.4l2.722-.754a.321.321,0,0,0,.141-.082l5.734-5.734a1.448,1.448,0,0,0,0-2.045Zm-7.079,5.943,4.693-4.693,1.513,1.513L111.252,8.14Zm-.3.607,1.209,1.209-1.672.463Zm7.3-4.581-.341.341L114.885,1.48l.341-.341a.8.8,0,0,1,1.136,0l.377.377A.8.8,0,0,1,116.74,2.652Zm0,0" transform="translate(-104.713)" fill="#51ba6c" stroke="#51ba6c" stroke-width="0.5"/>
  </g>
</svg>
