<svg xmlns="http://www.w3.org/2000/svg" width="9.808" height="13" viewBox="0 0 9.808 13">
  <g id="placeholder-filled-tool-shape-for-maps" transform="translate(-14.5)">
    <path id="Path_606" data-name="Path 606" d="M19.4,0a4.9,4.9,0,0,0-4.9,4.9,7.838,7.838,0,0,0,1.4,3.864,20.543,20.543,0,0,0,3.038,4.04.652.652,0,0,0,.936,0A18.9,18.9,0,0,0,22.591,9.39,8.988,8.988,0,0,0,24.308,4.9,4.919,4.919,0,0,0,19.4,0Zm0,7.738A2.972,2.972,0,1,1,22.37,4.766,2.974,2.974,0,0,1,19.4,7.738Z" transform="translate(0)" fill="#51ba6c"/>
  </g>
</svg>
