<svg xmlns="http://www.w3.org/2000/svg" width="22.999" height="23.002" viewBox="0 0 22.999 23.002">
  <path id="time-countdown" d="M0,12.938A10,10,0,0,1,10.063,2.874,9.841,9.841,0,0,1,16.1,4.887l1.293-1.294-1.15-1.15a1.391,1.391,0,0,1,0-2.012,1.389,1.389,0,0,1,2.012,0l4.313,4.313a1.389,1.389,0,0,1,0,2.012,1.39,1.39,0,0,1-2.012,0l-1.15-1.15L18.113,6.9a9.846,9.846,0,0,1,2.012,6.038A10,10,0,0,1,10.063,23,10,10,0,0,1,0,12.938Zm2.875,0a7.118,7.118,0,0,0,7.187,7.187,7.117,7.117,0,0,0,7.187-7.187,7.117,7.117,0,0,0-7.187-7.188A7.118,7.118,0,0,0,2.875,12.938Zm5.75,1.437V8.625H11.5V11.5h2.875v2.876Z" transform="translate(-0.001 0.001)" fill="#51ba6c"/>
</svg>
