<?xml version="1.0" encoding="UTF-8"?>
<svg width="15px" height="30px" viewBox="0 0 15 30" version="1.1" xmlns="http://www.w3.org/2000/svg" xmlns:xlink="http://www.w3.org/1999/xlink">
    <!-- Generator: Sketch 62 (91390) - https://sketch.com -->
    <title>Artboard</title>
    <desc>Created with Sketch.</desc>
    <g id="Artboard" stroke="none" stroke-width="1" fill="none" fill-rule="evenodd">
        <g id="padlock" fill="#152C53" fill-rule="nonzero" opacity="0.5" stroke="#152C53" stroke-width="0.5">
            <g transform="translate(0.240833, 0.234375)" id="Group_515">
                <g>
                    <path d="M11.7033333,2.0596875 C10.5354536,0.731293806 8.94066457,-0.0109910545 7.27990933,0.000692612195 C5.61915408,0.0126544737 4.03284284,0.777585295 2.88,2.1225 C2.75247135,2.27350236 2.75505816,2.51130383 2.88583333,2.65875 C2.94916209,2.72859213 3.03461921,2.7671649 3.12329556,2.76593328 C3.21197192,2.76470167 3.29655653,2.72376721 3.35833333,2.6521875 C4.39328225,1.438946 5.82446592,0.755008533 7.31916667,0.759375 C9.5783929,0.739621882 11.6249123,2.25555912 12.5015187,4.59814646 C13.3781251,6.94073381 12.9115306,9.64688781 11.3199726,11.4508753 C9.72841461,13.2548627 7.3265129,13.8000708 5.23769457,12.8314926 C3.14887623,11.8629143 1.78605957,9.57201867 1.78666667,7.0303125 L1.78666667,6.9515625 L2.33333333,7.5815625 C2.39596606,7.65244489 2.48115924,7.6922667 2.57,7.6921875 C2.70767392,7.69551739 2.83299647,7.60326352 2.88540934,7.46000476 C2.9378222,7.31674599 2.90653514,7.15197507 2.80666667,7.0453125 L1.69166667,5.769375 C1.62911054,5.69867113 1.54409093,5.6589224 1.45541667,5.6589224 C1.3667424,5.6589224 1.28172279,5.69867113 1.21916667,5.769375 L0.0983333333,7.040625 C-0.0325926461,7.18903255 -0.0325926461,7.42846745 0.0983333333,7.576875 C0.160966064,7.64775739 0.246159236,7.6875792 0.335,7.6875 C0.422855761,7.68797444 0.507430319,7.64998313 0.570833333,7.5815625 L1.12166667,6.9571875 L1.12166667,7.0359375 C1.11714655,8.8977691 1.77068611,10.6852598 2.93833333,12.0046875 C4.09667803,13.3220923 5.67536142,14.0634138 7.3225,14.0634138 C8.96963858,14.0634138 10.548322,13.3220923 11.7066667,12.0046875 C14.1270631,9.24957593 14.1270631,4.81667407 11.7066667,2.0615625 L11.7033333,2.0596875 Z" id="Path_323"></path>
                    <path d="M7.31916667,2.919375 C6.22555831,2.92917653 5.34556969,3.93342626 5.3525,5.16375 L5.3525,6.2465625 L4.74083333,6.2465625 C4.65155467,6.2465512 4.56600341,6.28683123 4.50334554,6.35837868 C4.44068768,6.42992613 4.40616082,6.52676031 4.40746245,6.6271875 L4.40746245,10.426875 C4.40616082,10.5273022 4.44068768,10.6241364 4.50334554,10.6956838 C4.56600341,10.7672313 4.65155467,10.8075 4.74083333,10.8075 L9.90083333,10.8075 C9.99011199,10.8075 10.0756633,10.7672313 10.1383211,10.6956838 C10.200979,10.6241364 10.2355058,10.5273022 10.2342042,10.426875 L10.2342042,6.63 C10.2355058,6.52957281 10.200979,6.43273863 10.1383211,6.36119118 C10.0756633,6.28964373 9.99011199,6.2493637 9.90083333,6.249375 L9.28916667,6.249375 L9.28916667,5.1665625 C9.2947173,3.93495305 8.41390238,2.93020367 7.31916667,2.919375 L7.31916667,2.919375 Z M6.02,5.169375 C6.02,4.36217632 6.60165673,3.7078125 7.31916667,3.7078125 C8.0366766,3.7078125 8.61833333,4.36217632 8.61833333,5.169375 L8.61833333,6.2521875 L6.02,6.2521875 L6.02,5.1665625 L6.02,5.169375 Z M9.56666667,10.044375 L5.07416667,10.044375 L5.07416667,7.006875 L9.56666667,7.006875 L9.56666667,10.044375 Z" id="Path_324"></path>
                </g>
            </g>
        </g>
        <g id="padlock" transform="translate(0.000000, 15.000000)" fill="#51BA6C" fill-rule="nonzero" stroke="#51BA6C" stroke-width="0.5">
            <g transform="translate(0.240833, 0.234375)" id="Group_515">
                <g>
                    <path d="M11.7033333,2.0596875 C10.5354536,0.731293806 8.94066457,-0.0109910545 7.27990933,0.000692612195 C5.61915408,0.0126544737 4.03284284,0.777585295 2.88,2.1225 C2.75247135,2.27350236 2.75505816,2.51130383 2.88583333,2.65875 C2.94916209,2.72859213 3.03461921,2.7671649 3.12329556,2.76593328 C3.21197192,2.76470167 3.29655653,2.72376721 3.35833333,2.6521875 C4.39328225,1.438946 5.82446592,0.755008533 7.31916667,0.759375 C9.5783929,0.739621882 11.6249123,2.25555912 12.5015187,4.59814646 C13.3781251,6.94073381 12.9115306,9.64688781 11.3199726,11.4508753 C9.72841461,13.2548627 7.3265129,13.8000708 5.23769457,12.8314926 C3.14887623,11.8629143 1.78605957,9.57201867 1.78666667,7.0303125 L1.78666667,6.9515625 L2.33333333,7.5815625 C2.39596606,7.65244489 2.48115924,7.6922667 2.57,7.6921875 C2.70767392,7.69551739 2.83299647,7.60326352 2.88540934,7.46000476 C2.9378222,7.31674599 2.90653514,7.15197507 2.80666667,7.0453125 L1.69166667,5.769375 C1.62911054,5.69867113 1.54409093,5.6589224 1.45541667,5.6589224 C1.3667424,5.6589224 1.28172279,5.69867113 1.21916667,5.769375 L0.0983333333,7.040625 C-0.0325926461,7.18903255 -0.0325926461,7.42846745 0.0983333333,7.576875 C0.160966064,7.64775739 0.246159236,7.6875792 0.335,7.6875 C0.422855761,7.68797444 0.507430319,7.64998313 0.570833333,7.5815625 L1.12166667,6.9571875 L1.12166667,7.0359375 C1.11714655,8.8977691 1.77068611,10.6852598 2.93833333,12.0046875 C4.09667803,13.3220923 5.67536142,14.0634138 7.3225,14.0634138 C8.96963858,14.0634138 10.548322,13.3220923 11.7066667,12.0046875 C14.1270631,9.24957593 14.1270631,4.81667407 11.7066667,2.0615625 L11.7033333,2.0596875 Z" id="Path_323"></path>
                    <path d="M7.31916667,2.919375 C6.22555831,2.92917653 5.34556969,3.93342626 5.3525,5.16375 L5.3525,6.2465625 L4.74083333,6.2465625 C4.65155467,6.2465512 4.56600341,6.28683123 4.50334554,6.35837868 C4.44068768,6.42992613 4.40616082,6.52676031 4.40746245,6.6271875 L4.40746245,10.426875 C4.40616082,10.5273022 4.44068768,10.6241364 4.50334554,10.6956838 C4.56600341,10.7672313 4.65155467,10.8075 4.74083333,10.8075 L9.90083333,10.8075 C9.99011199,10.8075 10.0756633,10.7672313 10.1383211,10.6956838 C10.200979,10.6241364 10.2355058,10.5273022 10.2342042,10.426875 L10.2342042,6.63 C10.2355058,6.52957281 10.200979,6.43273863 10.1383211,6.36119118 C10.0756633,6.28964373 9.99011199,6.2493637 9.90083333,6.249375 L9.28916667,6.249375 L9.28916667,5.1665625 C9.2947173,3.93495305 8.41390238,2.93020367 7.31916667,2.919375 L7.31916667,2.919375 Z M6.02,5.169375 C6.02,4.36217632 6.60165673,3.7078125 7.31916667,3.7078125 C8.0366766,3.7078125 8.61833333,4.36217632 8.61833333,5.169375 L8.61833333,6.2521875 L6.02,6.2521875 L6.02,5.1665625 L6.02,5.169375 Z M9.56666667,10.044375 L5.07416667,10.044375 L5.07416667,7.006875 L9.56666667,7.006875 L9.56666667,10.044375 Z" id="Path_324"></path>
                </g>
            </g>
        </g>
    </g>
</svg>