<?xml version="1.0" encoding="UTF-8"?>
<svg width="15px" height="30px" viewBox="0 0 15 30" version="1.1" xmlns="http://www.w3.org/2000/svg" xmlns:xlink="http://www.w3.org/1999/xlink">
    <!-- Generator: Sketch 62 (91390) - https://sketch.com -->
    <title>Artboard</title>
    <desc>Created with Sketch.</desc>
    <g id="Artboard" stroke="none" stroke-width="1" fill="none" fill-rule="evenodd">
        <g id="earnings" fill="#152C53" fill-rule="nonzero" opacity="0.5">
            <g>
                <path d="M2.226,7.91000155 C2.3427134,7.91015341 2.45466112,7.8637185 2.537,7.781 L5.737,4.581 L7.187,6.024 C7.26933498,6.1063775 7.38103069,6.15266027 7.4975,6.15266027 C7.61396931,6.15266027 7.72566502,6.1063775 7.808,6.024 L12.334,1.5 L12.334,2.2 C12.334,2.44272915 12.5307709,2.6395 12.7735,2.6395 C13.0162291,2.6395 13.213,2.44272915 13.213,2.2 L13.213,0.439 C13.213,0.425 13.213,0.41 13.213,0.396 C13.213,0.382 13.213,0.382 13.213,0.375 C13.213,0.368 13.213,0.361 13.213,0.354 C13.213,0.347 13.213,0.337 13.207,0.329 L13.207,0.313 C13.187,0.3 13.187,0.3 13.187,0.287 L13.18,0.272 L13.168,0.246 L13.162,0.233 L13.145,0.206 L13.14,0.2 C13.132,0.188 13.124,0.177 13.115,0.166 L13.115,0.166 C13.0959758,0.141872783 13.0745306,0.1197574 13.051,0.1 L13.051,0.1 L13.016,0.073 L13.007,0.067 L12.979,0.051 L12.967,0.045 L12.941,0.033 L12.926,0.028 L12.9,0.019 L12.884,0.019 L12.859,0.008 L12.838,0.008 L12.817,0 L12.774,0 L11.016,0 C10.7732709,0 10.5765,0.196770852 10.5765,0.4395 C10.5765,0.682229148 10.7732709,0.879 11.016,0.879 L11.716,0.879 L7.5,5.091 L6.053,3.644 C5.97066502,3.5616225 5.85896931,3.51533973 5.7425,3.51533973 C5.62603069,3.51533973 5.51433498,3.5616225 5.432,3.644 L1.916,7.16 C1.78995547,7.2855726 1.75216822,7.47480563 1.820319,7.63915639 C1.88846978,7.80350715 2.04908013,7.9104713 2.227,7.91000155 L2.226,7.91000155 Z" id="Path_558"></path>
                <path d="M0,14.56 C0,14.802453 0.196546995,14.999 0.439,14.999 L3.955,14.999 C4.19745301,14.999 4.394,14.802453 4.394,14.56 L4.394,13.945 L0,13.945 L0,14.56 Z" id="Path_559"></path>
                <path d="M3.955,12.0119989 L0.439,12.0119989 C0.196546995,12.0119989 0,12.208547 0,12.451 L0,13.066 L4.395,13.066 L4.395,12.451 C4.395,12.3343965 4.3486114,12.2225833 4.26606653,12.140226 C4.18352165,12.0578688 4.0716032,12.0117344 3.955,12.0119989 L3.955,12.0119989 Z" id="Path_560"></path>
                <path d="M5.303,14.56 C5.303,14.802453 5.49954699,14.999 5.742,14.999 L9.258,14.999 C9.50045301,14.999 9.697,14.802453 9.697,14.56 L9.697,13.945 L5.303,13.945 L5.303,14.56 Z" id="Path_561"></path>
                <polygon id="Path_562" points="10.605 12.012 15 12.012 15 13.067 10.605 13.067"></polygon>
                <path d="M14.56,6.21099886 L11.044,6.21099886 C10.92757,6.21099886 10.8159086,6.25725165 10.7335801,6.33958012 C10.6512517,6.42190859 10.605,6.53356996 10.605,6.65 L10.605,7.265 L15,7.265 L15,6.65 C15,6.53339649 14.9536114,6.42158331 14.8710665,6.33922603 C14.7885216,6.25686876 14.6766032,6.21073439 14.56,6.21099886 Z" id="Path_563"></path>
                <polygon id="Path_564" points="10.605 8.145 15 8.145 15 9.2 10.605 9.2"></polygon>
                <polygon id="Path_565" points="10.605 10.078 15 10.078 15 11.133 10.605 11.133"></polygon>
                <path d="M10.605,14.56 C10.605,14.802453 10.801547,14.999 11.044,14.999 L14.56,14.999 C14.802453,14.999 14.999,14.802453 14.999,14.56 L14.999,13.945 L10.605,13.945 L10.605,14.56 Z" id="Path_566"></path>
                <polygon id="Path_567" points="5.303 12.012 9.698 12.012 9.698 13.067 5.303 13.067"></polygon>
                <path d="M9.258,10.0779989 L5.742,10.0779989 C5.49954699,10.0779989 5.303,10.274547 5.303,10.517 L5.303,11.132 L9.698,11.132 L9.698,10.517 C9.698,10.4003965 9.6516114,10.2885833 9.56906653,10.206226 C9.48652165,10.1238688 9.3746032,10.0777344 9.258,10.0779989 Z" id="Path_568"></path>
            </g>
        </g>
        <g id="earnings" transform="translate(0.000000, 15.000000)" fill="#51BA6C" fill-rule="nonzero">
            <g>
                <path d="M2.226,7.91000155 C2.3427134,7.91015341 2.45466112,7.8637185 2.537,7.781 L5.737,4.581 L7.187,6.024 C7.26933498,6.1063775 7.38103069,6.15266027 7.4975,6.15266027 C7.61396931,6.15266027 7.72566502,6.1063775 7.808,6.024 L12.334,1.5 L12.334,2.2 C12.334,2.44272915 12.5307709,2.6395 12.7735,2.6395 C13.0162291,2.6395 13.213,2.44272915 13.213,2.2 L13.213,0.439 C13.213,0.425 13.213,0.41 13.213,0.396 C13.213,0.382 13.213,0.382 13.213,0.375 C13.213,0.368 13.213,0.361 13.213,0.354 C13.213,0.347 13.213,0.337 13.207,0.329 L13.207,0.313 C13.187,0.3 13.187,0.3 13.187,0.287 L13.18,0.272 L13.168,0.246 L13.162,0.233 L13.145,0.206 L13.14,0.2 C13.132,0.188 13.124,0.177 13.115,0.166 L13.115,0.166 C13.0959758,0.141872783 13.0745306,0.1197574 13.051,0.1 L13.051,0.1 L13.016,0.073 L13.007,0.067 L12.979,0.051 L12.967,0.045 L12.941,0.033 L12.926,0.028 L12.9,0.019 L12.884,0.019 L12.859,0.008 L12.838,0.008 L12.817,0 L12.774,0 L11.016,0 C10.7732709,0 10.5765,0.196770852 10.5765,0.4395 C10.5765,0.682229148 10.7732709,0.879 11.016,0.879 L11.716,0.879 L7.5,5.091 L6.053,3.644 C5.97066502,3.5616225 5.85896931,3.51533973 5.7425,3.51533973 C5.62603069,3.51533973 5.51433498,3.5616225 5.432,3.644 L1.916,7.16 C1.78995547,7.2855726 1.75216822,7.47480563 1.820319,7.63915639 C1.88846978,7.80350715 2.04908013,7.9104713 2.227,7.91000155 L2.226,7.91000155 Z" id="Path_558"></path>
                <path d="M0,14.56 C0,14.802453 0.196546995,14.999 0.439,14.999 L3.955,14.999 C4.19745301,14.999 4.394,14.802453 4.394,14.56 L4.394,13.945 L0,13.945 L0,14.56 Z" id="Path_559"></path>
                <path d="M3.955,12.0119989 L0.439,12.0119989 C0.196546995,12.0119989 0,12.208547 0,12.451 L0,13.066 L4.395,13.066 L4.395,12.451 C4.395,12.3343965 4.3486114,12.2225833 4.26606653,12.140226 C4.18352165,12.0578688 4.0716032,12.0117344 3.955,12.0119989 L3.955,12.0119989 Z" id="Path_560"></path>
                <path d="M5.303,14.56 C5.303,14.802453 5.49954699,14.999 5.742,14.999 L9.258,14.999 C9.50045301,14.999 9.697,14.802453 9.697,14.56 L9.697,13.945 L5.303,13.945 L5.303,14.56 Z" id="Path_561"></path>
                <polygon id="Path_562" points="10.605 12.012 15 12.012 15 13.067 10.605 13.067"></polygon>
                <path d="M14.56,6.21099886 L11.044,6.21099886 C10.92757,6.21099886 10.8159086,6.25725165 10.7335801,6.33958012 C10.6512517,6.42190859 10.605,6.53356996 10.605,6.65 L10.605,7.265 L15,7.265 L15,6.65 C15,6.53339649 14.9536114,6.42158331 14.8710665,6.33922603 C14.7885216,6.25686876 14.6766032,6.21073439 14.56,6.21099886 Z" id="Path_563"></path>
                <polygon id="Path_564" points="10.605 8.145 15 8.145 15 9.2 10.605 9.2"></polygon>
                <polygon id="Path_565" points="10.605 10.078 15 10.078 15 11.133 10.605 11.133"></polygon>
                <path d="M10.605,14.56 C10.605,14.802453 10.801547,14.999 11.044,14.999 L14.56,14.999 C14.802453,14.999 14.999,14.802453 14.999,14.56 L14.999,13.945 L10.605,13.945 L10.605,14.56 Z" id="Path_566"></path>
                <polygon id="Path_567" points="5.303 12.012 9.698 12.012 9.698 13.067 5.303 13.067"></polygon>
                <path d="M9.258,10.0779989 L5.742,10.0779989 C5.49954699,10.0779989 5.303,10.274547 5.303,10.517 L5.303,11.132 L9.698,11.132 L9.698,10.517 C9.698,10.4003965 9.6516114,10.2885833 9.56906653,10.206226 C9.48652165,10.1238688 9.3746032,10.0777344 9.258,10.0779989 Z" id="Path_568"></path>
            </g>
        </g>
    </g>
</svg>