<svg xmlns="http://www.w3.org/2000/svg" xmlns:xlink="http://www.w3.org/1999/xlink" width="563.65" height="457.485" viewBox="0 0 563.65 457.485">
  <defs>
    <clipPath id="clip-path">
      <path id="Path_1927" data-name="Path 1927" d="M1659.18,498.387c-3.793-.022-7.476-.51-10.075-4.232-5.1-7.305-12.886-13.863-21.618-6.435-5.036,4.285-1.249,13.1-5.584,17.337-3.832,3.749-8.706,3.129-10.667,9.352-2.883,9.154,6.205,17.175,9.122,25.091,2.449,6.643-3.057,9.174-5.532,14.35-1.907,3.991-.927,8.265,1.151,12.08,3.665,6.727,11.791,12.143,9.908,20.853-1.571,7.27-3.031,13.75,3.383,19.259,4.4,3.777,12.556,7.219,11.934,14.21-.22,2.474-1.932,4.582-2.4,7.022-.743,3.859,1.757,7.616,4.661,10.265,6.606,6.028,12.409,11.712,17.358,19.3,2.115,3.241,10.581,10.558,7.2,14.989,6.15-8.053,12.65-15.863,18.237-24.329,4.6-6.963,11.524-17.148,6.809-25.724-1.467-2.667-4.195-4.655-4.943-7.606-1.349-5.33,3.887-10.27,5.833-14.8,3.056-7.119.813-15.386-4.571-20.729-2.547-2.528-5.31-5.308-5.685-8.877-.409-3.9,2.035-7.532,3.144-11.126a55.522,55.522,0,0,0,2.032-10.28,21.383,21.383,0,0,0-.207-7.3c-1.087-4.522-5.159-7.035-8.172-10.243-7.175-7.638-3.4-16.618-6.538-25.494C1671.145,497.348,1665.03,498.421,1659.18,498.387Z" transform="translate(-1610.68 -484.45)" fill="#1d7e8e"/>
    </clipPath>
    <clipPath id="clip-path-2">
      <path id="Path_1936" data-name="Path 1936" d="M1719.412,570.73c2.754.509,5.494.665,7.893-1.675,4.711-4.593,11.267-8.273,16.572-1.676,3.06,3.8-.907,9.674,1.65,13.348,2.261,3.25,5.882,3.475,6.443,8.261.824,7.039-6.878,11.6-10.09,16.937-2.7,4.48.949,7.078,2.027,11.175.831,3.159-.472,6.123-2.508,8.6-3.589,4.372-10.233,7.176-10.073,13.756.134,5.491.3,10.393-5.119,13.5-3.712,2.131-10.107,3.5-10.624,8.656-.182,1.825.768,3.591.771,5.426,0,2.9-2.329,5.281-4.8,6.8-5.626,3.458-10.623,6.778-15.262,11.595-1.982,2.058-9.136,6.194-7.295,9.876-3.346-6.692-6.98-13.257-9.861-20.171-2.37-5.687-5.986-14.034-1.378-19.6,1.433-1.732,3.687-2.8,4.638-4.834,1.717-3.679-1.4-7.987-2.182-11.546-1.232-5.586,1.54-11.273,6.185-14.4,2.2-1.481,4.587-3.115,5.352-5.653.835-2.77-.433-5.745-.74-8.505a40.934,40.934,0,0,1-.051-7.739,15.807,15.807,0,0,1,1.159-5.263c1.415-3.129,4.716-4.389,7.346-6.3,6.261-4.547,4.769-11.583,8.271-17.587C1710.878,568.32,1715.164,569.945,1719.412,570.73Z" transform="translate(-1675.534 -563.795)" fill="#00a09d"/>
    </clipPath>
  </defs>
  <g id="Group_2071" data-name="Group 2071" transform="translate(-608.01 -246.507)">
    <g id="Group_1975" data-name="Group 1975" transform="translate(-465.8 -65.661)">
      <path id="Path_1862" data-name="Path 1862" d="M1303.422,317.232c33.4.8,156.848-1.452,193.156,50.831s20.332,83.508,47.2,120.541,75.52,47.926,90.042,78.424-15.975,96.577-63.9,95.851-65.353-18.154-104.566,10.166-87.138,74.067-159.027,97.3-67.532-52.283-105.291-92.221-122.719-33.4-127.077-95.126,87.864-74.067,89.316-124.9S1242.426,315.78,1303.422,317.232Z" transform="translate(0 -5.048)" fill="#ebf6f1"/>
    </g>
    <g id="Group_2070" data-name="Group 2070" transform="translate(-511.906 -85.512)">
      <g id="Group_2004" data-name="Group 2004" transform="translate(1514.232 458.037)">
        <g id="Group_1990" data-name="Group 1990">
          <path id="Path_1919" data-name="Path 1919" d="M1659.18,498.387c-3.793-.022-7.476-.51-10.075-4.232-5.1-7.305-12.886-13.863-21.618-6.435-5.036,4.285-1.249,13.1-5.584,17.337-3.832,3.749-8.706,3.129-10.667,9.352-2.883,9.154,6.205,17.175,9.122,25.091,2.449,6.643-3.057,9.174-5.532,14.35-1.907,3.991-.927,8.265,1.151,12.08,3.665,6.727,11.791,12.143,9.908,20.853-1.571,7.27-3.031,13.75,3.383,19.259,4.4,3.777,12.556,7.219,11.934,14.21-.22,2.474-1.932,4.582-2.4,7.022-.743,3.859,1.757,7.616,4.661,10.265,6.606,6.028,12.409,11.712,17.358,19.3,2.115,3.241,10.581,10.558,7.2,14.989,6.15-8.053,12.65-15.863,18.237-24.329,4.6-6.963,11.524-17.148,6.809-25.724-1.467-2.667-4.195-4.655-4.943-7.606-1.349-5.33,3.887-10.27,5.833-14.8,3.056-7.119.813-15.386-4.571-20.729-2.547-2.528-5.31-5.308-5.685-8.877-.409-3.9,2.035-7.532,3.144-11.126a55.522,55.522,0,0,0,2.032-10.28,21.383,21.383,0,0,0-.207-7.3c-1.087-4.522-5.159-7.035-8.172-10.243-7.175-7.638-3.4-16.618-6.538-25.494C1671.145,497.348,1665.03,498.421,1659.18,498.387Z" transform="translate(-1610.68 -484.45)" fill="#1d7e8e"/>
          <g id="Group_1989" data-name="Group 1989" clip-path="url(#clip-path)">
            <g id="Group_1988" data-name="Group 1988" transform="translate(-6.845 -6.278)">
              <g id="Group_1981" data-name="Group 1981" transform="translate(23.706)">
                <path id="Path_1920" data-name="Path 1920" d="M1674,679.293l-1.446-.126c2.463-28.223.641-58.9-5.414-91.186-6.314-33.662-13.659-60.524-23.114-84.534a261.069,261.069,0,0,0-11.99-26.269l1.283-.678a262.593,262.593,0,0,1,12.058,26.415c9.489,24.1,16.858,51.044,23.189,84.8C1674.642,620.125,1676.47,650.937,1674,679.293Z" transform="translate(-1632.032 -476.499)" fill="#00a09d"/>
              </g>
              <g id="Group_1982" data-name="Group 1982" transform="translate(0 40.6)">
                <path id="Path_1921" data-name="Path 1921" d="M1652.235,556.569a23.557,23.557,0,0,0-5.305-4.152c-.751-.471-1.6-1.005-2.56-1.659a183.361,183.361,0,0,0-42.358-21.476l.483-1.369a184.809,184.809,0,0,1,42.694,21.646c.934.638,1.737,1.141,2.513,1.628a24.76,24.76,0,0,1,5.587,4.382Z" transform="translate(-1602.012 -527.913)" fill="#00a09d"/>
              </g>
              <g id="Group_1983" data-name="Group 1983" transform="translate(10.028 82.329)">
                <path id="Path_1922" data-name="Path 1922" d="M1662.167,600.507a125.74,125.74,0,0,0-47.456-18.318l.235-1.432a127.194,127.194,0,0,1,48.009,18.531Z" transform="translate(-1614.711 -580.757)" fill="#00a09d"/>
              </g>
              <g id="Group_1984" data-name="Group 1984" transform="translate(16.287 116.489)">
                <path id="Path_1923" data-name="Path 1923" d="M1669.457,648.935a106.664,106.664,0,0,0-46.82-23.5l.312-1.418a108.127,108.127,0,0,1,47.46,23.822Z" transform="translate(-1622.637 -624.016)" fill="#00a09d"/>
              </g>
              <g id="Group_1985" data-name="Group 1985" transform="translate(49.28 20.612)">
                <path id="Path_1924" data-name="Path 1924" d="M1665.867,549.787l-1.449-.094a133.686,133.686,0,0,1,11.865-47.092l1.32.6A132.24,132.24,0,0,0,1665.867,549.787Z" transform="translate(-1664.418 -502.601)" fill="#00a09d"/>
              </g>
              <g id="Group_1986" data-name="Group 1986" transform="translate(57.036 61.173)">
                <path id="Path_1925" data-name="Path 1925" d="M1675.556,593.238l-1.316-.615a119.433,119.433,0,0,1,28.929-38.657l.961,1.089A117.959,117.959,0,0,0,1675.556,593.238Z" transform="translate(-1674.24 -553.966)" fill="#00a09d"/>
              </g>
              <g id="Group_1987" data-name="Group 1987" transform="translate(63.765 107.24)">
                <path id="Path_1926" data-name="Path 1926" d="M1684.183,647.191l-1.421-.3a44.852,44.852,0,0,1,4.961-13.08,79.963,79.963,0,0,1,9.759-12.921c2.548-2.9,5.17-5.785,7.792-8.589l1.061.992c-2.612,2.793-5.224,5.672-7.763,8.557a78.731,78.731,0,0,0-9.589,12.682A43.4,43.4,0,0,0,1684.183,647.191Z" transform="translate(-1682.762 -612.304)" fill="#00a09d"/>
              </g>
            </g>
          </g>
        </g>
        <g id="Group_2000" data-name="Group 2000" transform="translate(51.213 62.656)">
          <path id="Path_1928" data-name="Path 1928" d="M1719.412,570.73c2.754.509,5.494.665,7.893-1.675,4.711-4.593,11.267-8.273,16.572-1.676,3.06,3.8-.907,9.674,1.65,13.348,2.261,3.25,5.882,3.475,6.443,8.261.824,7.039-6.878,11.6-10.09,16.937-2.7,4.48.949,7.078,2.027,11.175.831,3.159-.472,6.123-2.508,8.6-3.589,4.372-10.233,7.176-10.073,13.756.134,5.491.3,10.393-5.119,13.5-3.712,2.131-10.107,3.5-10.624,8.656-.182,1.825.768,3.591.771,5.426,0,2.9-2.329,5.281-4.8,6.8-5.626,3.458-10.623,6.778-15.262,11.595-1.982,2.058-9.136,6.194-7.295,9.876-3.346-6.692-6.98-13.257-9.861-20.171-2.37-5.687-5.986-14.034-1.378-19.6,1.433-1.732,3.687-2.8,4.638-4.834,1.717-3.679-1.4-7.987-2.182-11.546-1.232-5.586,1.54-11.273,6.185-14.4,2.2-1.481,4.587-3.115,5.352-5.653.835-2.77-.433-5.745-.74-8.505a40.934,40.934,0,0,1-.051-7.739,15.807,15.807,0,0,1,1.159-5.263c1.415-3.129,4.716-4.389,7.346-6.3,6.261-4.547,4.769-11.583,8.271-17.587C1710.878,568.32,1715.164,569.945,1719.412,570.73Z" transform="translate(-1675.534 -563.795)" fill="#00a09d"/>
          <g id="Group_1999" data-name="Group 1999" clip-path="url(#clip-path-2)">
            <g id="Group_1998" data-name="Group 1998" transform="translate(8.328 -3.646)">
              <g id="Group_1991" data-name="Group 1991" transform="translate(2.601)">
                <path id="Path_1929" data-name="Path 1929" d="M1690.818,700.9l-1.444-.147c2.132-20.928,7.727-43.043,16.63-65.728,9.269-23.62,18.349-42.155,28.574-58.333a194.2,194.2,0,0,1,12.415-17.509l1.134.907a192.614,192.614,0,0,0-12.321,17.377c-10.175,16.1-19.216,34.556-28.451,58.088C1698.5,658.113,1692.937,680.1,1690.818,700.9Z" transform="translate(-1689.374 -559.178)" fill="#1d7e8e"/>
              </g>
              <g id="Group_1992" data-name="Group 1992" transform="translate(31.741 32.773)">
                <path id="Path_1930" data-name="Path 1930" d="M1727.123,614.924l-.847-1.18a18.464,18.464,0,0,1,4.7-2.428c.629-.245,1.278-.5,2.04-.83a136.669,136.669,0,0,1,34.012-9.806l.219,1.436a135.222,135.222,0,0,0-33.651,9.7c-.788.343-1.481.614-2.093.851A17.028,17.028,0,0,0,1727.123,614.924Z" transform="translate(-1726.276 -600.68)" fill="#1d7e8e"/>
              </g>
              <g id="Group_1993" data-name="Group 1993" transform="translate(22.194 61.656)">
                <path id="Path_1931" data-name="Path 1931" d="M1714.732,645.443l-.546-1.346a94.09,94.09,0,0,1,37.465-6.811l-.037,1.451A92.658,92.658,0,0,0,1714.732,645.443Z" transform="translate(-1714.186 -637.257)" fill="#1d7e8e"/>
              </g>
              <g id="Group_1994" data-name="Group 1994" transform="translate(12.512 85.589)">
                <path id="Path_1932" data-name="Path 1932" d="M1702.654,679.556l-.729-1.256a80.042,80.042,0,0,1,37.813-10.735l.04,1.451A78.578,78.578,0,0,0,1702.654,679.556Z" transform="translate(-1701.925 -667.564)" fill="#1d7e8e"/>
              </g>
              <g id="Group_1995" data-name="Group 1995" transform="translate(30.063 10.021)">
                <path id="Path_1933" data-name="Path 1933" d="M1727.654,607.737l-1.441-.179a97.474,97.474,0,0,0-2.062-35.345l1.41-.345A98.915,98.915,0,0,1,1727.654,607.737Z" transform="translate(-1724.151 -571.868)" fill="#1d7e8e"/>
              </g>
              <g id="Group_1996" data-name="Group 1996" transform="translate(6.673 35.936)">
                <path id="Path_1934" data-name="Path 1934" d="M1709.939,637.158a86.92,86.92,0,0,0-15.409-31.583l1.148-.889a88.381,88.381,0,0,1,15.668,32.115Z" transform="translate(-1694.53 -604.686)" fill="#1d7e8e"/>
              </g>
              <g id="Group_1997" data-name="Group 1997" transform="translate(0 69.323)">
                <path id="Path_1935" data-name="Path 1935" d="M1697.427,675.3a31.844,31.844,0,0,0-1.72-9.787,57.923,57.923,0,0,0-5.183-10.491c-1.44-2.44-2.936-4.889-4.444-7.277l1.228-.775c1.516,2.4,3.019,4.861,4.466,7.315a59.139,59.139,0,0,1,5.307,10.758,33.316,33.316,0,0,1,1.8,10.232Z" transform="translate(-1686.08 -646.966)" fill="#1d7e8e"/>
              </g>
            </g>
          </g>
        </g>
        <g id="Group_2001" data-name="Group 2001" transform="translate(36.079 192.855)">
          <path id="Path_1937" data-name="Path 1937" d="M1656.368,728.674h56.3l-9.876,56.337h-36.543Z" transform="translate(-1656.368 -728.674)" fill="#9d786a"/>
        </g>
        <g id="Group_2002" data-name="Group 2002" transform="translate(29.187 177.042)">
          <rect id="Rectangle_1328" data-name="Rectangle 1328" width="70.08" height="15.813" transform="translate(70.08 15.813) rotate(180)" fill="#94624f"/>
        </g>
        <g id="Group_2003" data-name="Group 2003" transform="translate(36.079 192.855)" opacity="0.1">
          <path id="Path_1938" data-name="Path 1938" d="M1711.354,736.145h-53.676l-1.31-7.471h56.3Z" transform="translate(-1656.368 -728.674)" fill="#231f20"/>
        </g>
      </g>
      <g id="Group_2027" data-name="Group 2027" transform="translate(1180.092 498.756)">
        <g id="Group_2011" data-name="Group 2011" transform="translate(0 52.295)">
          <g id="Group_2005" data-name="Group 2005" transform="translate(13.643 122.012)">
            <rect id="Rectangle_1329" data-name="Rectangle 1329" width="78.052" height="7.117" fill="#94624f"/>
          </g>
          <g id="Group_2006" data-name="Group 2006" transform="translate(19.613 7.872)">
            <rect id="Rectangle_1330" data-name="Rectangle 1330" width="67.304" height="11.545" fill="#94624f"/>
          </g>
          <g id="Group_2007" data-name="Group 2007">
            <rect id="Rectangle_1331" data-name="Rectangle 1331" width="106.529" height="7.872" fill="#9d786a"/>
          </g>
          <g id="Group_2008" data-name="Group 2008" transform="translate(78.454 19.417)">
            <path id="Path_1939" data-name="Path 1939" d="M1311.948,763.8h-8.528l-16.531-136.969h8.528Z" transform="translate(-1286.889 -626.828)" fill="#94624f"/>
          </g>
          <g id="Group_2009" data-name="Group 2009" transform="translate(3.016 19.417)">
            <path id="Path_1940" data-name="Path 1940" d="M1191.358,763.8h8.528l16.531-136.969h-8.528Z" transform="translate(-1191.358 -626.828)" fill="#94624f"/>
          </g>
          <g id="Group_2010" data-name="Group 2010" transform="translate(50.247 7.872)">
            <rect id="Rectangle_1332" data-name="Rectangle 1332" width="6.035" height="148.514" fill="#9d786a"/>
          </g>
        </g>
        <g id="Group_2019" data-name="Group 2019" transform="translate(45.796)">
          <g id="Group_2012" data-name="Group 2012" transform="translate(12.664)">
            <rect id="Rectangle_1333" data-name="Rectangle 1333" width="4.035" height="0.29" transform="translate(0 4.034) rotate(-89.334)" fill="#151614"/>
          </g>
          <g id="Group_2013" data-name="Group 2013" transform="translate(5.163 4.397)">
            <rect id="Rectangle_1334" data-name="Rectangle 1334" width="15.389" height="43.951" fill="#d74034"/>
          </g>
          <g id="Group_2014" data-name="Group 2014" transform="translate(5.163 2.954)">
            <path id="Path_1941" data-name="Path 1941" d="M1267.459,541.2H1252.07l1.266-1.443h12.807Z" transform="translate(-1252.07 -539.755)" fill="#ef5132"/>
          </g>
          <g id="Group_2015" data-name="Group 2015" transform="translate(32.521 7.347)">
            <rect id="Rectangle_1335" data-name="Rectangle 1335" width="4.035" height="0.29" transform="translate(0 4.034) rotate(-89.334)" fill="#151614"/>
          </g>
          <g id="Group_2016" data-name="Group 2016" transform="translate(25.019 11.744)">
            <rect id="Rectangle_1336" data-name="Rectangle 1336" width="15.389" height="36.604" fill="#d74034"/>
          </g>
          <g id="Group_2017" data-name="Group 2017" transform="translate(25.019 10.301)">
            <path id="Path_1942" data-name="Path 1942" d="M1292.6,550.5h-15.389l1.266-1.443h12.807Z" transform="translate(-1277.216 -549.059)" fill="#ef5132"/>
          </g>
          <g id="Group_2018" data-name="Group 2018" transform="translate(0 48.347)">
            <path id="Rectangle_1337" data-name="Rectangle 1337" d="M0,0H45.263a0,0,0,0,1,0,0V0a3.8,3.8,0,0,1-3.8,3.8H3.8A3.8,3.8,0,0,1,0,0V0A0,0,0,0,1,0,0Z" fill="#0b2d4e"/>
          </g>
        </g>
        <g id="Group_2026" data-name="Group 2026" transform="translate(14.774 10.441)">
          <g id="Group_2025" data-name="Group 2025">
            <g id="Group_2024" data-name="Group 2024">
              <g id="Group_2020" data-name="Group 2020" transform="translate(0 0)">
                <path id="Rectangle_1338" data-name="Rectangle 1338" d="M0,0H29.188a0,0,0,0,1,0,0V27.214A14.594,14.594,0,0,1,14.594,41.808h0A14.594,14.594,0,0,1,0,27.214V0A0,0,0,0,1,0,0Z" fill="#00a09d"/>
              </g>
              <g id="Group_2021" data-name="Group 2021" transform="translate(18.553 9.456)">
                <path id="Path_1943" data-name="Path 1943" d="M1242.415,561.212a12.861,12.861,0,1,0,12.673,12.859A12.767,12.767,0,0,0,1242.415,561.212Zm0,21.133a8.275,8.275,0,1,1,8.153-8.274A8.215,8.215,0,0,1,1242.415,582.345Z" transform="translate(-1229.742 -561.212)" fill="#00a09d"/>
              </g>
              <g id="Group_2022" data-name="Group 2022" transform="translate(2.787 2.437)" opacity="0.2">
                <path id="Path_1944" data-name="Path 1944" d="M1211.354,575.826h0a1.582,1.582,0,0,1-1.578-1.578V553.9a1.582,1.582,0,0,1,1.578-1.578h0a1.582,1.582,0,0,1,1.578,1.578v20.347A1.582,1.582,0,0,1,1211.354,575.826Z" transform="translate(-1209.776 -552.323)" fill="#fff"/>
              </g>
              <g id="Group_2023" data-name="Group 2023" transform="translate(15.055)">
                <path id="Path_1945" data-name="Path 1945" d="M1232.7,549.237v34.417a7.392,7.392,0,0,1-7.392,7.392h6.741a7.391,7.391,0,0,0,7.391-7.392V549.237Z" transform="translate(-1225.312 -549.237)" fill="#1d7e8e"/>
              </g>
            </g>
          </g>
        </g>
      </g>
      <g id="Group_2050" data-name="Group 2050" transform="translate(1236.89 358.874)">
        <g id="Group_2028" data-name="Group 2028" transform="translate(18.507 4.567)">
          <path id="Path_1946" data-name="Path 1946" d="M1409.873,641.4l97.36-40.537a52.433,52.433,0,0,0,27.952-69.261L1478.9,396.245a52.432,52.432,0,0,0-68.259-27.547l-95.445,39.74a52.433,52.433,0,0,0-28.539,67.851l54.374,136.148A52.431,52.431,0,0,0,1409.873,641.4Z" transform="translate(-1282.901 -364.657)" fill="#66bbc4"/>
        </g>
        <g id="Group_2029" data-name="Group 2029" transform="translate(38.976 77.061)">
          <path id="Path_1947" data-name="Path 1947" d="M1415.607,661.379l97.36-40.537a52.432,52.432,0,0,0,27.951-69.261s-31.768-77.318-39.557-95.119c-18.646,78.907-123.292,123.2-192.538,80.966,9.424,23.713,37.938,94.994,37.938,94.994A52.432,52.432,0,0,0,1415.607,661.379Z" transform="translate(-1308.822 -456.461)" fill="#66a5af"/>
        </g>
        <g id="Group_2030" data-name="Group 2030" transform="translate(87.055 149.023)">
          <rect id="Rectangle_1339" data-name="Rectangle 1339" width="160.549" height="40.687" rx="7.5" transform="matrix(-0.923, 0.384, -0.384, -0.923, 163.854, 37.561)" fill="#66bbc4"/>
        </g>
        <g id="Group_2031" data-name="Group 2031" transform="translate(88.914 150.642)">
          <path id="Path_1948" data-name="Path 1948" d="M1375.448,607.551l138.063-57.486a5.5,5.5,0,0,1,7.189,2.963L1372.485,614.74A5.5,5.5,0,0,1,1375.448,607.551Z" transform="translate(-1372.061 -549.641)" fill="#8ed2cc"/>
        </g>
        <g id="Group_2032" data-name="Group 2032" transform="translate(100.581 181.509)">
          <path id="Path_1949" data-name="Path 1949" d="M1394.026,653.4l138.063-57.485a5.5,5.5,0,0,0,2.962-7.189l-148.215,61.712A5.5,5.5,0,0,0,1394.026,653.4Z" transform="translate(-1386.836 -588.73)" fill="#66a5af"/>
        </g>
        <g id="Group_2038" data-name="Group 2038" transform="translate(90.555 220.547)">
          <g id="Group_2033" data-name="Group 2033">
            <rect id="Rectangle_1340" data-name="Rectangle 1340" width="232.027" height="20.527" transform="matrix(-0.923, 0.384, -0.384, -0.923, 222.091, 18.95)" fill="#94624f"/>
          </g>
          <g id="Group_2034" data-name="Group 2034" transform="translate(199.35 14.9)">
            <circle id="Ellipse_173" data-name="Ellipse 173" cx="13.179" cy="13.179" r="13.179" fill="#94624f"/>
          </g>
          <g id="Group_2035" data-name="Group 2035" transform="translate(207.018 29.669)">
            <circle id="Ellipse_174" data-name="Ellipse 174" cx="8.089" cy="8.089" r="8.089" transform="translate(0 6.219) rotate(-22.605)" fill="#94624f"/>
          </g>
          <g id="Group_2036" data-name="Group 2036" transform="translate(2.241 89.924)">
            <circle id="Ellipse_175" data-name="Ellipse 175" cx="13.179" cy="13.179" r="13.179" transform="translate(0 15.613) rotate(-36.322)" fill="#94624f"/>
          </g>
          <g id="Group_2037" data-name="Group 2037" transform="translate(17.641 112.425)">
            <path id="Path_1950" data-name="Path 1950" d="M1397.1,791.736a8.089,8.089,0,1,0,4.358-10.576A8.089,8.089,0,0,0,1397.1,791.736Z" transform="translate(-1396.48 -780.536)" fill="#94624f"/>
          </g>
        </g>
        <g id="Group_2041" data-name="Group 2041" transform="translate(43.485 112.185)">
          <g id="Group_2039" data-name="Group 2039">
            <path id="Path_1951" data-name="Path 1951" d="M1315.324,546.854c1.612,2.3,31.991,45.078,34.039,48.579s6.249,15.487,5.4,13.393,1.674,4.482,5.49,2.139c1.906-1.169,15.357-12.654,30.1-21.713,14.783-9.083,30.854-15.741,32.291-16.667,2.87-1.849,3.268-4,2.311-9.237s-16.037-21.75-19.745-27.584-14.092-29.2-16.1-31.989c-2.657-3.684-7.121-3.329-10.3-1.473-1.815,1.062-19.855,13.442-34.418,21.961-14.368,8.405-25.263,12.952-26.768,13.833C1314.6,539.869,1313.71,544.551,1315.324,546.854Z" transform="translate(-1314.531 -500.94)" fill="#00a09d"/>
          </g>
          <g id="Group_2040" data-name="Group 2040" transform="translate(0.261 35.193)">
            <path id="Path_1952" data-name="Path 1952" d="M1315.655,556.074c1.612,2.3,31.991,45.078,34.039,48.579s6.249,15.487,5.4,13.394,1.674,4.481,5.49,2.139c1.906-1.17,15.357-12.654,30.1-21.713,14.783-9.084,30.855-15.741,32.292-16.667,2.869-1.849,3.267-4,2.311-9.237-.434-2.38-3.782-7.086-7.656-12.059-26.12,30.75-70.576,44.517-95.894-15-2.01.943-3.324,1.545-3.779,1.811C1314.93,549.091,1314.042,553.772,1315.655,556.074Z" transform="translate(-1314.862 -545.507)" fill="#1d7e8e"/>
          </g>
        </g>
        <g id="Group_2042" data-name="Group 2042" transform="translate(25.867 97.314)">
          <path id="Path_1953" data-name="Path 1953" d="M1302.041,575.625l22-9.159a15.946,15.946,0,0,1,20.849,8.592l24.446,58.711,148.214-61.712L1493.1,513.346a15.945,15.945,0,0,1,8.591-20.85l22-9.158a15.944,15.944,0,0,1,20.849,8.591l24.446,58.711,14.369,44.046L1535.3,614.694l-148.215,61.712-48.051,20.007L1317.9,655.184l-24.446-58.711A15.945,15.945,0,0,1,1302.041,575.625Z" transform="translate(-1292.221 -482.109)" fill="#66bbc4"/>
        </g>
        <g id="Group_2043" data-name="Group 2043" transform="translate(73.016 209.891)">
          <path id="Path_1954" data-name="Path 1954" d="M1370.142,733.763,1588.4,642.885a13.928,13.928,0,0,0,7.5-18.213h0L1351.929,726.258h0A13.929,13.929,0,0,0,1370.142,733.763Z" transform="translate(-1351.929 -624.672)" fill="#66a5af"/>
        </g>
        <g id="Group_2044" data-name="Group 2044" transform="translate(18.417)">
          <path id="Path_1955" data-name="Path 1955" d="M1478.533,395.169c-11.4-26.294-51.526-49.6-104.745-27.443l-34.534,14.38c-52,21.652-63.763,66.216-52.625,92.967,45.1-34.293,44.263,5.807,104.384-19.225S1429.392,404.663,1478.533,395.169Z" transform="translate(-1282.786 -358.874)" fill="#8ed2cc"/>
        </g>
        <g id="Group_2045" data-name="Group 2045" transform="translate(213.863 70.496)">
          <circle id="Ellipse_176" data-name="Ellipse 176" cx="35.676" cy="35.676" r="35.676" transform="translate(0 27.427) rotate(-22.605)" fill="#66bbc4"/>
        </g>
        <g id="Group_2046" data-name="Group 2046" transform="translate(236.006 92.639)">
          <circle id="Ellipse_177" data-name="Ellipse 177" cx="17.838" cy="17.838" r="17.838" transform="translate(0 30.496) rotate(-58.738)" fill="#8ed2cc"/>
        </g>
        <g id="Group_2047" data-name="Group 2047" transform="translate(0 159.542)">
          <circle id="Ellipse_178" data-name="Ellipse 178" cx="35.676" cy="35.676" r="35.676" transform="translate(0 27.427) rotate(-22.605)" fill="#66bbc4"/>
        </g>
        <g id="Group_2048" data-name="Group 2048" transform="translate(23.524 183.065)">
          <circle id="Ellipse_179" data-name="Ellipse 179" cx="17.838" cy="17.838" r="17.838" transform="translate(0 33.206) rotate(-68.554)" fill="#8ed2cc"/>
        </g>
        <g id="Group_2049" data-name="Group 2049" transform="translate(103.668 50.06)">
          <path id="Path_1956" data-name="Path 1956" d="M1391.226,430.9a6.235,6.235,0,1,0,3.36-8.152A6.236,6.236,0,0,0,1391.226,430.9Z" transform="translate(-1390.745 -422.268)" fill="#66a5af"/>
        </g>
      </g>
      <g id="Group_2060" data-name="Group 2060" transform="translate(1217.262 544.463)">
        <path id="Path_1957" data-name="Path 1957" d="M1269.417,743.583s-30.511,15.024-34.808,25.381c3.306,2.645,25.93-11,25.93-11l12.2-12.66Z" transform="translate(-1234.609 -625.381)" fill="#ba382d"/>
        <g id="Group_2051" data-name="Group 2051" transform="translate(194.528 78.134)">
          <path id="Path_1958" data-name="Path 1958" d="M1491.169,694.582c-11.4,6.787-15.686,28.662.027,29.474a42.213,42.213,0,0,1,5.7.383,32.043,32.043,0,0,1,8.641,3.452c3.213,1.665,6.466,3.268,9.63,5.019a48.938,48.938,0,0,0,5.946-10.045c1.432-3.26,3.275-6.316,4.657-9.6a1.372,1.372,0,0,0,.16-.81.944.944,0,0,0-.5-.534c-4.188-2.555-8.845-4.287-13.087-6.754a23.492,23.492,0,0,1-6.771-5.311c-2.679-3.432-4.7-7.586-9.718-6.951A12.159,12.159,0,0,0,1491.169,694.582Z" transform="translate(-1480.952 -692.842)" fill="#f8a17a"/>
        </g>
        <g id="Group_2052" data-name="Group 2052" transform="translate(25.148 121.298)">
          <path id="Path_1959" data-name="Path 1959" d="M1280.3,759.544c-11.4,6.787-21.468,18.361-5.755,19.173a42.2,42.2,0,0,1,5.7.383,32.038,32.038,0,0,1,8.641,3.452c3.213,1.664,6.466,3.268,9.63,5.019a48.932,48.932,0,0,0,5.946-10.045c1.432-3.26,3.275-6.316,4.657-9.6a1.373,1.373,0,0,0,.16-.81.942.942,0,0,0-.5-.534c-4.188-2.555-8.845-4.287-13.087-6.754a23.493,23.493,0,0,1-6.771-5.311c-2.679-3.433-4.7-7.586-9.718-6.951C1277.567,747.775,1281.775,758.667,1280.3,759.544Z" transform="translate(-1266.455 -747.503)" fill="#f8a17a"/>
        </g>
        <g id="Group_2053" data-name="Group 2053" transform="translate(27.873 131.255)">
          <path id="Path_1960" data-name="Path 1960" d="M1291.76,766.517c-3.157-2.5-3.3-4.908-7.389-6.386-1.843-.666-17.075,16.658-14.075,19.8,2.185,2.291,6.078,1.065,10.676,1.819" transform="translate(-1269.906 -760.112)" fill="#d5eff7"/>
        </g>
        <path id="Path_1961" data-name="Path 1961" d="M1448.714,629.963s21.185-30.783,44.044-35.722,23.5,44.822,23.5,44.822-14.437,10.157-20.035,10.016C1483.753,648.763,1448.714,629.963,1448.714,629.963Z" transform="translate(-1279.643 -593.896)" fill="#d74034"/>
        <path id="Path_1962" data-name="Path 1962" d="M1283.823,757.087l-21.047,25.8s-15.757,16.087-27.311,7.653c14.823-19.031,35.244-44.681,35.244-44.681Z" transform="translate(-1234.789 -625.859)" fill="#d74034"/>
        <path id="Path_1963" data-name="Path 1963" d="M1241.556,781.093l-6.947-6.8,15.864-5.363,2.381,4.081Z" transform="translate(-1234.609 -630.713)" fill="#d74034"/>
        <path id="Path_1964" data-name="Path 1964" d="M1235.454,790.518s12.151-3.061,20.613-12.959,19.921-29.744,14.632-31.722S1234.147,781.642,1235.454,790.518Z" transform="translate(-1234.778 -625.839)" fill="#ba382d"/>
        <path id="Path_1965" data-name="Path 1965" d="M1282.661,658.063l-5.225.3s-22.478,33.979,0,69.025,21.936,13.341,21.936,13.341l-9.729,29.635s89.163,9.919,108.993,1.466c21.355-9.1-2.2-72.535-2.2-72.535Z" transform="translate(-1241.516 -607.393)" fill="#0b2d4e"/>
        <path id="Path_1966" data-name="Path 1966" d="M1473.91,683.608c-.979-16.062-6.049-24.128-20.238-32.554-14.407-8.555-31.94-13.318-63.012-16.057s-58.37-5.014-72.282-2.465-35.309,11.981-34.363,17.628,70.71,47.156,104.985,47.715,44.183,22.553,44.183,22.553S1475.8,714.679,1473.91,683.608Z" transform="translate(-1244.995 -601.789)" fill="#ef5132"/>
        <path id="Path_1967" data-name="Path 1967" d="M1568.5,672.731s5.943,3.779,8.9,2.615,6.68-1.772,9.819-3.636,4.89-2.089,5.869-6.974-6.813-14.071-6.813-14.071-24.075-31.249-34.755-37.777-30.71-22.02-38.551-18.244,5.876,46.18,16.311,44.453,34.345,13.173,35.743,18.927S1568.5,672.731,1568.5,672.731Z" transform="translate(-1292.671 -593.931)" fill="#f8a17a"/>
        <g id="Group_2054" data-name="Group 2054" transform="translate(225.256 83.841)">
          <path id="Path_1968" data-name="Path 1968" d="M1591.6,754.021s13.885-23.735-3.4-38.791-56.164-20.643-63.141-8.674-7.825,31.618,3.127,40.267,27.4,17.6,39.133,19.338S1587.067,760.1,1591.6,754.021Z" transform="translate(-1519.865 -700.07)" fill="#f8a17a"/>
        </g>
        <g id="Group_2059" data-name="Group 2059" transform="translate(236.997 89.855)">
          <path id="Path_1969" data-name="Path 1969" d="M1536.378,751.586s-3.429-2.934-.385-11.894,17.5-17.983,19.529-21.589,4.349-3.232,4.349-3.232l-3.193-3.05.43-4.136s10.59,5.721,16.123.907,35.337,12.287,19.751,39.985c0,0-10.255,21.578-23.327,18.408S1542.1,757.837,1536.378,751.586Z" transform="translate(-1534.733 -707.685)" fill="#e5785c"/>
          <path id="Path_1970" data-name="Path 1970" d="M1540.958,754.678s-3.528-3.073-.3-12.564,18.269-19.139,20.4-22.966,4.531-3.449,4.531-3.449l-3.283-3.2.478-4.374s10.925,5.961,16.694.83,36.508,12.7,20.142,42.091c0,0-10.795,22.88-24.31,19.635S1546.832,761.237,1540.958,754.678Z" transform="translate(-1535.693 -707.768)" fill="#0b2d4e"/>
          <g id="Group_2055" data-name="Group 2055" transform="translate(27.097 3.789)">
            <path id="Path_1971" data-name="Path 1971" d="M1569.048,765.326l.507-.546.4.376c3.714,3.46,10.626,9.9,16.145,8,1.877-.644,3.2-2.084,4.6-3.607a15.113,15.113,0,0,1,4.034-3.467,15.651,15.651,0,0,1,4.113-1.234,24.263,24.263,0,0,0,2.595-.625c4.908-1.575,7.886-6.262,7.589-11.94a31.124,31.124,0,0,0-1.114-5.84c-.96-3.773-1.954-7.675-.395-11.179a15.553,15.553,0,0,1,2.217-3.3,15.809,15.809,0,0,0,2.152-3.178,10.087,10.087,0,0,0,.108-7.9,12.149,12.149,0,0,0-8.012-7.109,14.83,14.83,0,0,0-9.384.452c-.354.141-.708.294-1.064.447a9.875,9.875,0,0,1-5.129,1.192l.1-.739a9.329,9.329,0,0,0,4.737-1.139c.362-.156.723-.31,1.082-.454a15.571,15.571,0,0,1,9.853-.48,12.909,12.909,0,0,1,8.512,7.553,10.834,10.834,0,0,1-.123,8.486,16.33,16.33,0,0,1-2.248,3.334,14.8,14.8,0,0,0-2.116,3.14c-1.453,3.268-.493,7.042.436,10.692a31.983,31.983,0,0,1,1.135,5.985c.318,6.027-2.865,11.007-8.1,12.688a24.893,24.893,0,0,1-2.675.645,14.916,14.916,0,0,0-3.919,1.166,14.588,14.588,0,0,0-3.826,3.308c-1.4,1.526-2.849,3.1-4.905,3.809-5.941,2.04-12.8-4.347-16.9-8.162Z" transform="translate(-1569.048 -712.483)" fill="#0b2d4e"/>
          </g>
          <g id="Group_2058" data-name="Group 2058" transform="translate(39.081 20.692)">
            <g id="Group_2057" data-name="Group 2057">
              <g id="Group_2056" data-name="Group 2056">
                <path id="Path_1972" data-name="Path 1972" d="M1603.91,733.888c-.276,4.283.65,8.455,1.5,12.639a42.713,42.713,0,0,1,.651,6.4q.047,1.609-.016,3.219a20.373,20.373,0,0,1-.321,3.235,9.068,9.068,0,0,1-3.429,5.528,6.173,6.173,0,0,1-3.188.931,22.028,22.028,0,0,0-3.14.265,6.574,6.574,0,0,0-2.743,1.357,17.757,17.757,0,0,1-2.654,1.835,8.149,8.149,0,0,1-3.148.735,22.327,22.327,0,0,1-3.2-.117,27.62,27.62,0,0,0,3.188-.071,7.88,7.88,0,0,0,3-.858,17.815,17.815,0,0,0,2.539-1.881,7.08,7.08,0,0,1,2.895-1.534,18.257,18.257,0,0,1,3.218-.345,5.551,5.551,0,0,0,2.868-.853,5.874,5.874,0,0,0,1.109-1.029,8.69,8.69,0,0,0,.906-1.24,9.161,9.161,0,0,0,1.082-2.868,19.663,19.663,0,0,0,.339-3.12q.078-1.585.048-3.174a50.57,50.57,0,0,0-.542-6.327c-.329-2.086-.767-4.2-.982-6.325A28.307,28.307,0,0,1,1603.91,733.888Z" transform="translate(-1584.224 -733.888)" fill="#73b8d4"/>
              </g>
            </g>
          </g>
        </g>
        <path id="Path_1973" data-name="Path 1973" d="M1543.45,788.4s6.17,1.028,9.256-2.511-5.348-7.323-13.942-12.564-20.778,1.3-31.356,1.4-44.676-4.491-54.7-5.8c2.557-4.2,0-12.017,0-12.017l-47.761,13.52a19.761,19.761,0,0,0,0,4.295c.59,4.315,3.407,13.4,9.474,16.679s117.134,0,117.134,0S1535.516,786.954,1543.45,788.4Z" transform="translate(-1270.41 -628.184)" fill="#f8a17a"/>
        <path id="Path_1974" data-name="Path 1974" d="M1404.725,765.3s29.5,2.057,48.676-8.289c5.733-3.094,4.927-15.128,8.3-19.35,6.17-7.735-28.866-27.124-41.65-25.447-1.59.208-5.847,2.63-5.847,2.63s-7.307,22.337-8.885,31.943S1403.13,763.412,1404.725,765.3Z" transform="translate(-1270.194 -618.762)" fill="#d74034"/>
      </g>
      <g id="Group_2069" data-name="Group 2069" transform="translate(1152.139 666.779)">
        <g id="Group_2067" data-name="Group 2067">
          <g id="Group_2061" data-name="Group 2061" transform="translate(3.332 30.816)">
            <path id="Path_1975" data-name="Path 1975" d="M1186.789,787.891c-8.764-.413-17.5.995-26.161,2.4-2.736.444-5.632,1.962-3.571,5.232,1.131,1.793,3.475,2.319,5.582,2.561,9.05,1.038,18.345-.111,27.44-.1" transform="translate(-1156.359 -787.817)" fill="#0b2d4e"/>
          </g>
          <g id="Group_2062" data-name="Group 2062" transform="translate(11.911 4.174)">
            <path id="Path_1976" data-name="Path 1976" d="M1253.547,768.644c1.331,8.126-2.483,19.871-11.355,22.245-3.576.957-7.884.618-11.577.6q-6.742-.04-13.485-.1l-26.488-.19c-5.819-.042-12.007-.19-16.863-3.4-5.771-3.81-8.645-10.855-4.808-16.919,3.3-5.209,9.463-8.4,15.344-9.668,9.852-2.123,20.085.691,29.879-1.075a28.621,28.621,0,0,0,4.709-1.254c8.843-3.207,17.628-7.623,26.654-2.39A17.274,17.274,0,0,1,1253.547,768.644Z" transform="translate(-1167.222 -754.078)" fill="#061f33"/>
          </g>
          <g id="Group_2063" data-name="Group 2063">
            <path id="Path_1977" data-name="Path 1977" d="M1177.238,750.033c-1.474-1.559-2.378-1.865-3.271.353a21.367,21.367,0,0,0-1.689,8.117,24.267,24.267,0,0,0-10.14,4.83,21.33,21.33,0,0,0-7.671-3.24c-2.333-.526-2.594.393-2.147,2.491a66.791,66.791,0,0,0,2.288,7.594c.535,1.568,1.02,3.15,1.565,4.712a11.219,11.219,0,0,0,2.085,4.324c2.577,3.205,7.707,5.068,11.686,5.595,4.5.6,8.764-.554,11.794-3.975a23.644,23.644,0,0,0,5.284-11.276,13.61,13.61,0,0,0-.591-6.946c-.9-2.483-2.686-4.29-4.24-6.367A68.955,68.955,0,0,0,1177.238,750.033Z" transform="translate(-1152.139 -748.793)" fill="#0b2d4e"/>
          </g>
          <g id="Group_2064" data-name="Group 2064" transform="translate(28.954 12.282)">
            <path id="Path_1978" data-name="Path 1978" d="M1251.448,764.346c8.474,8.066,7.587,17.366,2.9,25.591-5.192,9.12-13.743,15.3-23.279,19.316-11.261,4.745-24.15,7.173-36.212,4.328-2.424-.572-5.075-1.763-5.789-4.15-2.113-7.061,8.9-6.936,12.829-7.27,8.072-.688,16.625-.771,24.476-3.4,8.616-2.881,14.749-9.027,19.059-16.891" transform="translate(-1188.805 -764.346)" fill="#0b2d4e"/>
          </g>
          <g id="Group_2065" data-name="Group 2065" transform="translate(49.151 8.411)">
            <path id="Path_1979" data-name="Path 1979" d="M1262.969,776.316a17.282,17.282,0,0,0-3.682-10.54c-6-7.541-17.666-7.777-25.7-3.689-9.218,4.689-10.677,17.1-7.069,25.856.166.4-3.227.284-3.512.3-2.436.171-7.481-.295-8.453,2.694a4.57,4.57,0,0,0,2.693,5.354,8.454,8.454,0,0,0,2.621.271c6.314-.009,12.627.013,18.941.023,4.944.008,8.677-.906,11.639-5.122,1.542-2.2,2.708-4.645,4.35-6.766" transform="translate(-1214.382 -759.444)" fill="#0b2d4e"/>
          </g>
          <g id="Group_2066" data-name="Group 2066" transform="translate(20.192 26.983)">
            <path id="Path_1980" data-name="Path 1980" d="M1181.7,784.043a2.1,2.1,0,1,1-2.587-.918A1.953,1.953,0,0,1,1181.7,784.043Z" transform="translate(-1177.71 -782.963)" fill="#061f33"/>
          </g>
        </g>
        <g id="Group_2068" data-name="Group 2068" transform="translate(23.377 11.154)">
          <path id="Path_1981" data-name="Path 1981" d="M1191.438,762.918a16.8,16.8,0,0,0,1.033,1.562,5.059,5.059,0,0,1,.475.846,5.939,5.939,0,0,1,.3.933c.147.625.234,1.254.322,1.874s.158,1.26.189,1.894a18.175,18.175,0,0,1-.22,3.828,18.9,18.9,0,0,1-2.735,7.14,17.516,17.516,0,0,1-2.4,2.99,16,16,0,0,1-3,2.373,7.46,7.46,0,0,1-1.763.771,4.107,4.107,0,0,1-1.893.1,5.679,5.679,0,0,0,3.339-1.346,15.668,15.668,0,0,0,1.387-1.2c.217-.215.441-.422.648-.646s.418-.444.616-.675a19.62,19.62,0,0,0,2.13-2.949,20.368,20.368,0,0,0,1.584-3.267,21.067,21.067,0,0,0,1.4-7.109c.018-.614-.013-1.208-.04-1.841s-.052-1.237-.126-1.84a5.539,5.539,0,0,0-.158-.88,5.787,5.787,0,0,0-.332-.84A11.541,11.541,0,0,1,1191.438,762.918Z" transform="translate(-1181.742 -762.918)" fill="#73b8d4"/>
        </g>
      </g>
    </g>
  </g>
</svg>
