<?xml version="1.0" encoding="UTF-8"?>
<svg width="10px" height="28px" viewBox="0 0 10 28" version="1.1" xmlns="http://www.w3.org/2000/svg" xmlns:xlink="http://www.w3.org/1999/xlink">
    <!-- Generator: Sketch 56 (81588) - https://sketch.com -->
    <title>Artboard</title>
    <desc>Created with Sketch.</desc>
    <g id="Artboard" stroke="none" stroke-width="1" fill="none" fill-rule="evenodd">
        <g id="euro-sign" fill="#51BA6C" fill-rule="nonzero">
            <path d="M9.016,11.078 C8.9978117,10.9856506 8.94299103,10.9046072 8.86404369,10.8533573 C8.78509635,10.8021075 8.68875606,10.7850226 8.597,10.806 C8.16468512,10.9061178 7.72273615,10.9587627 7.279,10.963 C5.69753294,10.9657315 4.28566937,9.97242043 3.754,8.483 L7.054,8.483 C7.21706198,8.48318751 7.35838885,8.37012602 7.394,8.211 L7.579,7.388 C7.60244007,7.28468963 7.57754584,7.1763278 7.51136805,7.09360556 C7.44519026,7.01088332 7.34493598,6.96280953 7.239,6.963 L3.339,6.963 C3.29891135,6.55531647 3.29891135,6.14468353 3.339,5.737 L7.6,5.737 C7.76366398,5.73698064 7.90519789,5.62292096 7.94,5.463 L8.13,4.6 C8.15273671,4.49698095 8.12751287,4.38920942 8.06141915,4.30698106 C7.99532543,4.2247527 7.89549824,4.17694604 7.79,4.177 L3.778,4.177 C4.37087648,2.82802589 5.71781816,1.96887205 7.191,2 C7.56069678,2.00412966 7.92910871,2.04432005 8.291,2.12 C8.47113054,2.15702993 8.64897961,2.04751696 8.697,1.87 L9.045,0.583 C9.0703845,0.489411753 9.05556895,0.389476286 9.0041239,0.307278111 C8.95267886,0.225079936 8.86927039,0.168074445 8.774,0.15 C8.26961642,0.0536200318 7.75749805,0.00341234778 7.244,7.10537315e-15 C4.57140339,-0.0321097785 2.17905027,1.65212938 1.308,4.179 L0.348,4.179 C0.155804907,4.179 -1.43883946e-06,4.33480491 -1.43883946e-06,4.527 L-1.43883946e-06,5.39 C-1.43883946e-06,5.58219509 0.155804907,5.738 0.348,5.738 L0.974,5.738 C0.943216256,6.14602919 0.941545359,6.55573329 0.969,6.964 L0.348,6.964 C0.255531139,6.96399962 0.166864093,7.00080104 0.101572611,7.06628014 C0.036281129,7.13175924 -0.000265715119,7.22053152 -1.43883946e-06,7.313 L-1.43883946e-06,8.136 C-1.43883946e-06,8.32819509 0.155804907,8.484 0.348,8.484 L1.222,8.484 C1.94387869,11.2005277 4.43401456,13.0679229 7.244,13 C7.84206802,12.998217 8.43760877,12.9223049 9.017,12.774 C9.19378512,12.7282257 9.30511726,12.5535871 9.272,12.374 L9.016,11.078 Z"></path>
        </g>
        <g id="euro-sign-copy" transform="translate(0.000000, 15.000000)" fill="#FFFFFF" fill-rule="nonzero">
            <path d="M9.016,11.078 C8.9978117,10.9856506 8.94299103,10.9046072 8.86404369,10.8533573 C8.78509635,10.8021075 8.68875606,10.7850226 8.597,10.806 C8.16468512,10.9061178 7.72273615,10.9587627 7.279,10.963 C5.69753294,10.9657315 4.28566937,9.97242043 3.754,8.483 L7.054,8.483 C7.21706198,8.48318751 7.35838885,8.37012602 7.394,8.211 L7.579,7.388 C7.60244007,7.28468963 7.57754584,7.1763278 7.51136805,7.09360556 C7.44519026,7.01088332 7.34493598,6.96280953 7.239,6.963 L3.339,6.963 C3.29891135,6.55531647 3.29891135,6.14468353 3.339,5.737 L7.6,5.737 C7.76366398,5.73698064 7.90519789,5.62292096 7.94,5.463 L8.13,4.6 C8.15273671,4.49698095 8.12751287,4.38920942 8.06141915,4.30698106 C7.99532543,4.2247527 7.89549824,4.17694604 7.79,4.177 L3.778,4.177 C4.37087648,2.82802589 5.71781816,1.96887205 7.191,2 C7.56069678,2.00412966 7.92910871,2.04432005 8.291,2.12 C8.47113054,2.15702993 8.64897961,2.04751696 8.697,1.87 L9.045,0.583 C9.0703845,0.489411753 9.05556895,0.389476286 9.0041239,0.307278111 C8.95267886,0.225079936 8.86927039,0.168074445 8.774,0.15 C8.26961642,0.0536200318 7.75749805,0.00341234778 7.244,7.10537315e-15 C4.57140339,-0.0321097785 2.17905027,1.65212938 1.308,4.179 L0.348,4.179 C0.155804907,4.179 -1.43883946e-06,4.33480491 -1.43883946e-06,4.527 L-1.43883946e-06,5.39 C-1.43883946e-06,5.58219509 0.155804907,5.738 0.348,5.738 L0.974,5.738 C0.943216256,6.14602919 0.941545359,6.55573329 0.969,6.964 L0.348,6.964 C0.255531139,6.96399962 0.166864093,7.00080104 0.101572611,7.06628014 C0.036281129,7.13175924 -0.000265715119,7.22053152 -1.43883946e-06,7.313 L-1.43883946e-06,8.136 C-1.43883946e-06,8.32819509 0.155804907,8.484 0.348,8.484 L1.222,8.484 C1.94387869,11.2005277 4.43401456,13.0679229 7.244,13 C7.84206802,12.998217 8.43760877,12.9223049 9.017,12.774 C9.19378512,12.7282257 9.30511726,12.5535871 9.272,12.374 L9.016,11.078 Z" id="euro-sign"></path>
        </g>
    </g>
</svg>