<?xml version="1.0" encoding="UTF-8"?>
<svg width="50px" height="30px" viewBox="0 0 50 30" version="1.1" xmlns="http://www.w3.org/2000/svg" xmlns:xlink="http://www.w3.org/1999/xlink">
    <!-- Generator: Sketch 62 (91390) - https://sketch.com -->
    <title>Artboard</title>
    <desc>Created with Sketch.</desc>
    <defs>
        <linearGradient x1="0%" y1="50%" x2="100.1%" y2="50%" id="linearGradient-1">
            <stop stop-color="#14294B" offset="0%"></stop>
            <stop stop-color="#142B52" offset="100%"></stop>
        </linearGradient>
    </defs>
    <g id="Artboard" stroke="none" stroke-width="1" fill="none" fill-rule="evenodd">
        <g id="toolbox_gig" transform="translate(10.000000, 0.000000)" fill-rule="nonzero">
            <path d="M28.745,8.052 L28.745,16.678 L27.49,16.258 C27.29,16.027 26.999,14.849 26.697,14.849 L26.656,14.849 L26.656,8.049 C26.6550902,6.95123553 26.0800503,5.93391551 25.14,5.367 L24.761,4.023 C24.7780513,3.975567 24.786188,3.92539074 24.785,3.875 L25.578,3.242 C27.498556,4.07014034 28.7432103,5.96050568 28.745,8.052 L28.745,8.052 Z" id="Path_756" fill="#BDC3C7"></path>
            <path d="M17.738,20.266 C18.338,19.123 24.618,16.098 24.487,14.843 L26.695,14.843 C27.000129,14.8441779 27.2896233,14.9781557 27.488,15.21 L28.743,16.672 L30.057,18.211 C30.1294508,18.2989757 30.1893544,18.3965715 30.235,18.501 L17.738,20.266 Z" id="Path_757" fill="#126634"></path>
            <path d="M20.775,20.657 L13.848,18.502 C13.7699013,18.3883956 13.6716044,18.2900987 13.558,18.212 L10.929,15.212 C10.5415118,14.9637619 10.0890967,14.8360416 9.629,14.845 L15.283,14.845 L18.154,15.627 L21.292,15.201 L23.222,17.522 L20.775,20.657 Z" id="Path_758" fill="#126634"></path>
            <path d="M14.636,18.887 L15.418,30 L0,30 L0,18.887 C0.000279865916,18.6377719 0.0884515635,18.3966277 0.249,18.206 L2.819,15.206 C3.01818989,14.9752317 3.30716497,14.8414942 3.612,14.839 L6.264,14.839 L6.264,17.977 L5.228,17.977 C4.94048788,17.9775503 4.70755026,18.2104879 4.707,18.498 L4.707,20.588 C4.70486348,21.1429547 4.92437313,21.6757966 5.31678825,22.0682117 C5.70920338,22.4606269 6.24204532,22.6801365 6.797,22.678 L7.845,22.678 C8.39995468,22.6801365 8.93279662,22.4606269 9.32521175,22.0682117 C9.71762687,21.6757966 9.93713652,21.1429547 9.935,20.588 L9.935,18.498 C9.93444974,18.2104879 9.70151212,17.9775503 9.414,17.977 L8.366,17.977 L8.366,14.837 L11.018,14.837 C11.323129,14.8381779 11.6126233,14.9721557 11.811,15.204 L14.381,18.204 C14.4534508,18.2919757 14.5133544,18.3895715 14.559,18.494 C14.6103583,18.6186325 14.6365283,18.7522014 14.636,18.887 Z" id="Path_759" fill="#30975D"></path>
            <path d="M22.67,2.824 L23.013,3.404 C23.001,3.451 23.256,3.499 23.256,3.546 L22.451,4.914 L11.498,4.914 C9.76607208,4.91675303 8.36275303,6.32007208 8.36,8.052 L8.36,18.768 L6.27,18.768 L6.27,8.052 C6.27714571,5.16762036 8.61362036,2.83114571 11.498,2.824 L22.67,2.824 Z" id="Path_760" fill="#BDC3C7"></path>
            <path d="M19.881,14.891 L18.158,7.917 C18.0877133,7.63765273 17.8044294,7.46804039 17.525,7.538 L13.464,8.538 C13.1846527,8.6082867 13.0150404,8.89157064 13.085,9.171 L13.713,11.705 L13.837,12.214 L13.961,12.723 L14.21,13.735 L14.334,14.25 L14.458,14.759 L14.482,14.848 L14.713,15.772 L14.837,16.281 L14.961,16.79 L15.21,17.802 L15.334,18.311 L15.344,18.311 L15.391,18.511 L20.773,18.511 L19.881,14.891 Z M16.116,10.575 C15.9111984,10.6265302 15.695525,10.5495825 15.5695927,10.3800534 C15.4436604,10.2105243 15.4322831,9.98181805 15.5407684,9.80062754 C15.6492537,9.61943703 15.8562255,9.52146429 16.0651302,9.55241419 C16.2740349,9.58336409 16.4437096,9.7371382 16.495,9.942 C16.5304482,10.0778142 16.5091507,10.2222041 16.436,10.342 C16.3672278,10.4615552 16.2508964,10.546259 16.116,10.575 L16.116,10.575 Z" id="Path_761" fill="url(#linearGradient-1)"></path>
            <g id="Group_1088" transform="translate(13.712000, 11.310000)" fill="#6F60AA">
                <path d="M1.77,1.035 L0.248,1.414 L0.124,0.905 L2.84217094e-14,0.396 L1.522,0.017 C1.70204463,-0.0270719973 1.89199558,0.026874072 2.022,0.159 C2.15298923,0.293399091 2.20049766,0.488413535 2.146,0.668 C2.09493428,0.848544315 1.95172828,0.988322512 1.77,1.035 L1.77,1.035 Z" id="Path_762"></path>
                <path d="M2.267,3.065 L0.745,3.444 L0.621,2.935 L0.497,2.426 L2.019,2.047 C2.29912449,1.98183279 2.58085913,2.14893362 2.658,2.426 C2.6934482,2.5618142 2.67215069,2.70620414 2.599,2.826 C2.5233321,2.94553453 2.40436798,3.03117437 2.267,3.065 L2.267,3.065 Z" id="Path_763"></path>
                <path d="M2.777,5.096 L1.25,5.475 L1.126,4.966 L1.002,4.457 L2.529,4.078 C2.6648142,4.0425518 2.80920414,4.06384931 2.929,4.137 C3.11068033,4.24717349 3.20804034,4.4559927 3.17563316,4.66598249 C3.14322597,4.87597228 2.98744202,5.04572444 2.781,5.096 L2.777,5.096 Z" id="Path_764"></path>
                <path d="M3.28,7.127 L3.002,7.192 L1.682,7.192 L1.635,6.992 L1.629,6.992 L1.505,6.483 L1.511,6.483 L3.033,6.104 C3.21304463,6.059928 3.40299558,6.11387407 3.533,6.246 C3.66321558,6.38082639 3.71061416,6.57538994 3.657,6.755 C3.60583232,6.93686832 3.46253522,7.07826492 3.28,7.127 Z" id="Path_765"></path>
            </g>
            <polygon id="Path_766" fill="#A5A5A4" points="24.493 7.49 24.013 10.59 22.989 11.212 21.947 10.265 22.427 7.165 23.469 6.804"></polygon>
            <path d="M24.759,11.368 C24.3404066,12.4769221 24.2440297,13.6816328 24.481,14.843 C24.7430269,16.0671998 24.6315501,17.3418681 24.161,18.502 L20.769,18.502 L19.875,14.89 C20.432,13.552 21.175,12.238 20.975,10.781 C20.9567872,10.6191334 21.0151788,10.4580433 21.13288,10.3454425 C21.2505812,10.2328417 21.4140984,10.181639 21.575,10.207 L21.924,10.26 L23.996,10.586 L24.339,10.639 C24.5001754,10.6626586 24.6418445,10.7583312 24.724,10.899 C24.8121933,11.0400291 24.8252839,11.2154428 24.759,11.368 Z" id="Path_767" fill="#6F60AA"></path>
            <path d="M9.92901545,18.502 L9.92901545,20.592 C9.93113652,21.1469547 9.71162687,21.6797966 9.31921175,22.0722117 C8.92679662,22.4646269 8.39395468,22.6841365 7.839,22.6820155 L6.791,22.6820155 C6.23604532,22.6841365 5.70320338,22.4646269 5.31078825,22.0722117 C4.91837313,21.6797966 4.69886348,21.1469547 4.70098455,20.592 L4.70098455,18.502 C4.70155026,18.2144879 4.93448788,17.9815503 5.222,17.981 L9.401,17.981 C9.54054758,17.9785786 9.6751893,18.0324636 9.77453554,18.1304928 C9.87388179,18.2285219 9.92955884,18.3624325 9.92901545,18.502 Z" id="Path_768" fill="#95A5A5"></path>
            <path d="M30.314,18.887 L30.314,30.002 L14.636,30.002 L14.636,18.887 C14.6359851,18.755413 14.6119232,18.6249364 14.565,18.502 L30.243,18.502 C30.2899232,18.6249364 30.314,18.755413 30.314,18.887 Z" id="Path_769" fill="#51BA6C"></path>
            <path d="M17.768,21.119 L16.72,21.119 C16.4322596,21.119 16.199,20.8857404 16.199,20.598 C16.199,20.3102596 16.4322596,20.077 16.72,20.077 L17.768,20.077 C18.0557404,20.077 18.289,20.3102596 18.289,20.598 C18.289,20.8857404 18.0557404,21.119 17.768,21.119 L17.768,21.119 Z" id="Path_770" fill="#00DF75"></path>
            <path d="M28.223,21.119 L19.857,21.119 C19.5692596,21.119 19.336,20.8857404 19.336,20.598 C19.336,20.3102596 19.5692596,20.0769912 19.857,20.0769912 L28.217,20.0769912 C28.5047403,20.0753432 28.7393431,20.3072597 28.7410088,20.595 C28.7426568,20.8827403 28.5107403,21.1173431 28.223,21.119 Z" id="Path_771" fill="#00DF75"></path>
            <path d="M25.6150094,0.71 L25.579,3.244 L25.567,3.877 C25.5677289,3.92735815 25.5596055,3.97745283 25.543,4.025 L25.134,5.369 L24.489,7.489 L22.417,7.163 L22.447,4.913 L22.465,3.545 C22.4672698,3.49687476 22.4753279,3.44919809 22.489,3.403 L22.667,2.823 L23.419,0.372 C23.4934259,0.121892567 23.7411119,-0.0348328466 23.999,0.005 L25.165,0.189 C25.4242672,0.225541359 25.6165612,0.448175 25.6150094,0.71 Z" id="Path_772" fill="#D1D4D1"></path>
        </g>
    </g>
</svg>