<?xml version="1.0" encoding="UTF-8"?>
<svg width="15px" height="30px" viewBox="0 0 15 30" version="1.1" xmlns="http://www.w3.org/2000/svg" xmlns:xlink="http://www.w3.org/1999/xlink">
    <!-- Generator: Sketch 62 (91390) - https://sketch.com -->
    <title>Artboard</title>
    <desc>Created with Sketch.</desc>
    <g id="Artboard" stroke="none" stroke-width="1" fill="none" fill-rule="evenodd">
        <g id="clipboard" transform="translate(1.000000, 0.000000)" fill="#152C53" fill-rule="nonzero" opacity="0.5">
            <g id="Group_795">
                <g>
                    <g id="Group_794">
                        <path d="M10.971,1.96875 L9.523,1.96875 L9.523,1.3584375 C9.523,1.1615625 9.294,1.0771875 9.085,1.0771875 L7.963,1.0771875 C7.71741432,0.401854684 7.02297773,-0.0381679137 6.263,0 C5.50769602,-0.0286305689 4.81973627,0.405011707 4.563,1.0715625 L3.463,1.0715625 C3.253,1.0715625 3.044,1.1653125 3.044,1.3528125 L3.044,1.96875 L1.6,1.96875 C0.742066235,1.97730506 0.0402273532,2.61183869 0,3.4153125 L0,13.6434375 C0.0457747443,14.4306837 0.759909128,15.0361637 1.6,15 L10.971,15 C11.8114602,15.0361517 12.525753,14.4301189 12.571,13.6425 L12.571,3.4115625 C12.5287244,2.60956259 11.8274632,1.97719476 10.971,1.96875 L10.971,1.96875 Z M3.81,1.790625 L4.858,1.790625 C5.04097708,1.76975481 5.18791534,1.6392304 5.22,1.4690625 C5.32932371,1.00774092 5.75912366,0.675114703 6.263,0.661875 C6.76189176,0.676393095 7.18599053,1.00784918 7.291,1.4653125 C7.32507971,1.64132949 7.48171254,1.77352698 7.672,1.786875 L8.763,1.786875 L8.763,3.215625 L3.809,3.215625 L3.81,1.790625 Z M11.81,13.6471875 C11.7642911,14.0398381 11.3916048,14.3258572 10.972,14.2903125 L1.6,14.2903125 C1.18039523,14.3258572 0.807708854,14.0398381 0.762,13.6471875 L0.762,3.4115625 C0.800762631,3.00262242 1.16215124,2.6868656 1.6,2.679375 L3.048,2.679375 L3.048,3.590625 C3.06807921,3.79074267 3.25288775,3.94043096 3.467,3.93 L9.086,3.93 C9.30401885,3.94114366 9.49462086,3.79345973 9.524,3.590625 L9.524,2.679375 L10.972,2.679375 C11.4098488,2.6868656 11.7712374,3.00262242 11.81,3.4115625 L11.81,13.6434375 L11.81,13.6471875 Z" id="Path_570"></path>
                        <path d="M10.971,1.96875 L9.523,1.96875 L9.523,1.3584375 C9.523,1.1615625 9.294,1.0771875 9.085,1.0771875 L7.963,1.0771875 C7.71741432,0.401854684 7.02297773,-0.0381679137 6.263,0 C5.50769602,-0.0286305689 4.81973627,0.405011707 4.563,1.0715625 L3.463,1.0715625 C3.253,1.0715625 3.044,1.1653125 3.044,1.3528125 L3.044,1.96875 L1.6,1.96875 C0.742066235,1.97730506 0.0402273532,2.61183869 0,3.4153125 L0,13.6434375 C0.0457747443,14.4306837 0.759909128,15.0361637 1.6,15 L10.971,15 C11.8114602,15.0361517 12.525753,14.4301189 12.571,13.6425 L12.571,3.4115625 C12.5287244,2.60956259 11.8274632,1.97719476 10.971,1.96875 L10.971,1.96875 Z M3.81,1.790625 L4.858,1.790625 C5.04097708,1.76975481 5.18791534,1.6392304 5.22,1.4690625 C5.32932371,1.00774092 5.75912366,0.675114703 6.263,0.661875 C6.76189176,0.676393095 7.18599053,1.00784918 7.291,1.4653125 C7.32507971,1.64132949 7.48171254,1.77352698 7.672,1.786875 L8.763,1.786875 L8.763,3.215625 L3.809,3.215625 L3.81,1.790625 Z M11.81,13.6471875 C11.7642911,14.0398381 11.3916048,14.3258572 10.972,14.2903125 L1.6,14.2903125 C1.18039523,14.3258572 0.807708854,14.0398381 0.762,13.6471875 L0.762,3.4115625 C0.800762631,3.00262242 1.16215124,2.6868656 1.6,2.679375 L3.048,2.679375 L3.048,3.590625 C3.06807921,3.79074267 3.25288775,3.94043096 3.467,3.93 L9.086,3.93 C9.30401885,3.94114366 9.49462086,3.79345973 9.524,3.590625 L9.524,2.679375 L10.972,2.679375 C11.4098488,2.6868656 11.7712374,3.00262242 11.81,3.4115625 L11.81,13.6434375 L11.81,13.6471875 Z" id="Path_1862"></path>
                        <path d="M4.818,7.9828125 C4.67512398,7.84184941 4.43821966,7.83393223 4.285,7.965 L3.066,9.054375 L2.552,8.5546875 C2.40912398,8.41372441 2.17221966,8.40580723 2.019,8.536875 C1.87169833,8.68173686 1.87169833,8.90951314 2.019,9.054375 L2.8,9.804375 C2.86773774,9.87529572 2.96551302,9.91443329 3.067,9.91125 C3.16755735,9.91005627 3.26353309,9.87163902 3.334,9.804375 L4.82,8.4834375 C4.96700332,8.35676471 4.9768465,8.14242382 4.842,8.004375 L4.818,7.9828125 Z" id="Path_571"></path>
                        <path d="M10.285,8.750625 L5.904,8.750625 C5.69357951,8.750625 5.523,8.91054329 5.523,9.1078125 C5.523,9.30508171 5.69357951,9.465 5.904,9.465 L10.285,9.465 C10.4954205,9.465 10.666,9.30508171 10.666,9.1078125 C10.666,8.91054329 10.4954205,8.750625 10.285,8.750625 Z" id="Path_572"></path>
                        <path d="M4.818,5.1253125 C4.67512398,4.98434941 4.43821966,4.97643223 4.285,5.1075 L3.066,6.196875 L2.552,5.6971875 C2.40912398,5.55622441 2.17221966,5.54830723 2.019,5.679375 C1.87169833,5.82423686 1.87169833,6.05201314 2.019,6.196875 L2.8,6.946875 C2.86773774,7.01779572 2.96551302,7.05693329 3.067,7.05375 C3.16755735,7.05255627 3.26353309,7.01413902 3.334,6.946875 L4.82,5.6259375 C4.96700332,5.49926471 4.9768465,5.28492382 4.842,5.146875 L4.818,5.1253125 Z" id="Path_573"></path>
                        <path d="M10.285,5.893125 L5.904,5.893125 C5.69357951,5.893125 5.523,6.05304329 5.523,6.2503125 C5.523,6.44758171 5.69357951,6.6075 5.904,6.6075 L10.285,6.6075 C10.4954205,6.6075 10.666,6.44758171 10.666,6.2503125 C10.666,6.05304329 10.4954205,5.893125 10.285,5.893125 Z" id="Path_574"></path>
                        <path d="M4.818,10.8403125 C4.67512398,10.6993494 4.43821966,10.6914322 4.285,10.8225 L3.066,11.911875 L2.552,11.4121875 C2.40912398,11.2712244 2.17221966,11.2633072 2.019,11.394375 C1.87169833,11.5392369 1.87169833,11.7670131 2.019,11.911875 L2.8,12.661875 C2.86773774,12.7327957 2.96551302,12.7719333 3.067,12.76875 C3.16755735,12.7675563 3.26353309,12.729139 3.334,12.661875 L4.82,11.3409375 C4.96700332,11.2142647 4.9768465,10.9999238 4.842,10.861875 L4.818,10.8403125 Z" id="Path_575"></path>
                        <path d="M10.285,11.6071875 L5.904,11.6071875 C5.69357951,11.6071875 5.523,11.7671058 5.523,11.964375 C5.523,12.1616442 5.69357951,12.3215625 5.904,12.3215625 L10.285,12.3215625 C10.4954205,12.3215625 10.666,12.1616442 10.666,11.964375 C10.666,11.7671058 10.4954205,11.6071875 10.285,11.6071875 Z" id="Path_576"></path>
                    </g>
                </g>
            </g>
        </g>
        <g id="clipboard" transform="translate(1.000000, 15.000000)" fill="#51BA6C" fill-rule="nonzero">
            <g id="Group_795">
                <g>
                    <g id="Group_794">
                        <path d="M10.971,1.96875 L9.523,1.96875 L9.523,1.3584375 C9.523,1.1615625 9.294,1.0771875 9.085,1.0771875 L7.963,1.0771875 C7.71741432,0.401854684 7.02297773,-0.0381679137 6.263,-8.67361738e-19 C5.50769602,-0.0286305689 4.81973627,0.405011707 4.563,1.0715625 L3.463,1.0715625 C3.253,1.0715625 3.044,1.1653125 3.044,1.3528125 L3.044,1.96875 L1.6,1.96875 C0.742066235,1.97730506 0.0402273532,2.61183869 0,3.4153125 L0,13.6434375 C0.0457747443,14.4306837 0.759909128,15.0361637 1.6,15 L10.971,15 C11.8114602,15.0361517 12.525753,14.4301189 12.571,13.6425 L12.571,3.4115625 C12.5287244,2.60956259 11.8274632,1.97719476 10.971,1.96875 L10.971,1.96875 Z M3.81,1.790625 L4.858,1.790625 C5.04097708,1.76975481 5.18791534,1.6392304 5.22,1.4690625 C5.32932371,1.00774092 5.75912366,0.675114703 6.263,0.661875 C6.76189176,0.676393095 7.18599053,1.00784918 7.291,1.4653125 C7.32507971,1.64132949 7.48171254,1.77352698 7.672,1.786875 L8.763,1.786875 L8.763,3.215625 L3.809,3.215625 L3.81,1.790625 Z M11.81,13.6471875 C11.7642911,14.0398381 11.3916048,14.3258572 10.972,14.2903125 L1.6,14.2903125 C1.18039523,14.3258572 0.807708854,14.0398381 0.762,13.6471875 L0.762,3.4115625 C0.800762631,3.00262242 1.16215124,2.6868656 1.6,2.679375 L3.048,2.679375 L3.048,3.590625 C3.06807921,3.79074267 3.25288775,3.94043096 3.467,3.93 L9.086,3.93 C9.30401885,3.94114366 9.49462086,3.79345973 9.524,3.590625 L9.524,2.679375 L10.972,2.679375 C11.4098488,2.6868656 11.7712374,3.00262242 11.81,3.4115625 L11.81,13.6434375 L11.81,13.6471875 Z" id="Path_570"></path>
                        <path d="M10.971,1.96875 L9.523,1.96875 L9.523,1.3584375 C9.523,1.1615625 9.294,1.0771875 9.085,1.0771875 L7.963,1.0771875 C7.71741432,0.401854684 7.02297773,-0.0381679137 6.263,-8.67361738e-19 C5.50769602,-0.0286305689 4.81973627,0.405011707 4.563,1.0715625 L3.463,1.0715625 C3.253,1.0715625 3.044,1.1653125 3.044,1.3528125 L3.044,1.96875 L1.6,1.96875 C0.742066235,1.97730506 0.0402273532,2.61183869 0,3.4153125 L0,13.6434375 C0.0457747443,14.4306837 0.759909128,15.0361637 1.6,15 L10.971,15 C11.8114602,15.0361517 12.525753,14.4301189 12.571,13.6425 L12.571,3.4115625 C12.5287244,2.60956259 11.8274632,1.97719476 10.971,1.96875 L10.971,1.96875 Z M3.81,1.790625 L4.858,1.790625 C5.04097708,1.76975481 5.18791534,1.6392304 5.22,1.4690625 C5.32932371,1.00774092 5.75912366,0.675114703 6.263,0.661875 C6.76189176,0.676393095 7.18599053,1.00784918 7.291,1.4653125 C7.32507971,1.64132949 7.48171254,1.77352698 7.672,1.786875 L8.763,1.786875 L8.763,3.215625 L3.809,3.215625 L3.81,1.790625 Z M11.81,13.6471875 C11.7642911,14.0398381 11.3916048,14.3258572 10.972,14.2903125 L1.6,14.2903125 C1.18039523,14.3258572 0.807708854,14.0398381 0.762,13.6471875 L0.762,3.4115625 C0.800762631,3.00262242 1.16215124,2.6868656 1.6,2.679375 L3.048,2.679375 L3.048,3.590625 C3.06807921,3.79074267 3.25288775,3.94043096 3.467,3.93 L9.086,3.93 C9.30401885,3.94114366 9.49462086,3.79345973 9.524,3.590625 L9.524,2.679375 L10.972,2.679375 C11.4098488,2.6868656 11.7712374,3.00262242 11.81,3.4115625 L11.81,13.6434375 L11.81,13.6471875 Z" id="Path_1862"></path>
                        <path d="M4.818,7.9828125 C4.67512398,7.84184941 4.43821966,7.83393223 4.285,7.965 L3.066,9.054375 L2.552,8.5546875 C2.40912398,8.41372441 2.17221966,8.40580723 2.019,8.536875 C1.87169833,8.68173686 1.87169833,8.90951314 2.019,9.054375 L2.8,9.804375 C2.86773774,9.87529572 2.96551302,9.91443329 3.067,9.91125 C3.16755735,9.91005627 3.26353309,9.87163902 3.334,9.804375 L4.82,8.4834375 C4.96700332,8.35676471 4.9768465,8.14242382 4.842,8.004375 L4.818,7.9828125 Z" id="Path_571"></path>
                        <path d="M10.285,8.750625 L5.904,8.750625 C5.69357951,8.750625 5.523,8.91054329 5.523,9.1078125 C5.523,9.30508171 5.69357951,9.465 5.904,9.465 L10.285,9.465 C10.4954205,9.465 10.666,9.30508171 10.666,9.1078125 C10.666,8.91054329 10.4954205,8.750625 10.285,8.750625 Z" id="Path_572"></path>
                        <path d="M4.818,5.1253125 C4.67512398,4.98434941 4.43821966,4.97643223 4.285,5.1075 L3.066,6.196875 L2.552,5.6971875 C2.40912398,5.55622441 2.17221966,5.54830723 2.019,5.679375 C1.87169833,5.82423686 1.87169833,6.05201314 2.019,6.196875 L2.8,6.946875 C2.86773774,7.01779572 2.96551302,7.05693329 3.067,7.05375 C3.16755735,7.05255627 3.26353309,7.01413902 3.334,6.946875 L4.82,5.6259375 C4.96700332,5.49926471 4.9768465,5.28492382 4.842,5.146875 L4.818,5.1253125 Z" id="Path_573"></path>
                        <path d="M10.285,5.893125 L5.904,5.893125 C5.69357951,5.893125 5.523,6.05304329 5.523,6.2503125 C5.523,6.44758171 5.69357951,6.6075 5.904,6.6075 L10.285,6.6075 C10.4954205,6.6075 10.666,6.44758171 10.666,6.2503125 C10.666,6.05304329 10.4954205,5.893125 10.285,5.893125 Z" id="Path_574"></path>
                        <path d="M4.818,10.8403125 C4.67512398,10.6993494 4.43821966,10.6914322 4.285,10.8225 L3.066,11.911875 L2.552,11.4121875 C2.40912398,11.2712244 2.17221966,11.2633072 2.019,11.394375 C1.87169833,11.5392369 1.87169833,11.7670131 2.019,11.911875 L2.8,12.661875 C2.86773774,12.7327957 2.96551302,12.7719333 3.067,12.76875 C3.16755735,12.7675563 3.26353309,12.729139 3.334,12.661875 L4.82,11.3409375 C4.96700332,11.2142647 4.9768465,10.9999238 4.842,10.861875 L4.818,10.8403125 Z" id="Path_575"></path>
                        <path d="M10.285,11.6071875 L5.904,11.6071875 C5.69357951,11.6071875 5.523,11.7671058 5.523,11.964375 C5.523,12.1616442 5.69357951,12.3215625 5.904,12.3215625 L10.285,12.3215625 C10.4954205,12.3215625 10.666,12.1616442 10.666,11.964375 C10.666,11.7671058 10.4954205,11.6071875 10.285,11.6071875 Z" id="Path_576"></path>
                    </g>
                </g>
            </g>
        </g>
    </g>
</svg>