<?xml version="1.0" encoding="UTF-8"?>
<svg width="14px" height="28px" viewBox="0 0 14 28" version="1.1" xmlns="http://www.w3.org/2000/svg" xmlns:xlink="http://www.w3.org/1999/xlink">
    <!-- Generator: Sketch 62 (91390) - https://sketch.com -->
    <title>Artboard</title>
    <desc>Created with Sketch.</desc>
    <g id="Artboard" stroke="none" stroke-width="1" fill="none" fill-rule="evenodd">
        <g id="info-blk-ic" fill="#152C53" fill-rule="nonzero">
            <g id="Group_1804">
                <g id="Group_1803">
                    <path d="M6.926,-4.63767195e-06 C3.10087582,-4.63767195e-06 0,3.10087582 0,6.926 C0,10.7511242 3.10087582,13.852 6.926,13.852 C10.7511242,13.852 13.8520046,10.7511242 13.8520046,6.926 C13.8541262,5.08845961 13.1251075,3.3255688 11.8257693,2.02623066 C10.5264312,0.726892518 8.76354039,-0.00212616978 6.926,-4.63767195e-06 Z M6.926,12.7000008 C4.58887605,12.7012134 2.48126198,11.2941374 1.58632278,9.13514835 C0.691383572,6.97615932 1.18544849,4.49064132 2.8380449,2.8380449 C4.49064132,1.18544849 6.97615932,0.691383572 9.13514835,1.58632278 C11.2941374,2.48126198 12.7012134,4.58887605 12.7000008,6.926 C12.6933988,10.1121538 10.1121538,12.6933988 6.926,12.7000008 Z" id="Path_1779"></path>
                </g>
            </g>
            <g id="Group_1806" transform="translate(6.366000, 5.305000)">
                <g id="Group_1805">
                    <path d="M0.589,0 C0.264159944,0.00109744201 0.00109744201,0.264159944 0,0.589 L0,5.364 C0.00268360193,5.68225336 0.257302679,5.94102071 0.575471115,5.94884673 C0.893639551,5.95667276 1.16067288,5.71073655 1.17900339,5.393 L1.17900339,0.593 C1.17953124,0.436083952 1.11763721,0.285398214 1.00696191,0.174160156 C0.896286609,0.0629220976 0.745916724,0.000264611637 0.589,0 Z" id="Path_1780"></path>
                </g>
            </g>
            <g id="Group_1808" transform="translate(6.307000, 2.564000)">
                <g id="Group_1807">
                    <path d="M0.589,0 C0.264159944,0.00109744201 0.00109744201,0.264159944 -2.84217094e-14,0.589 L-2.84217094e-14,1.149 C0.00109744201,1.47384006 0.264159944,1.73690256 0.589,1.738 C0.909478531,1.72665422 1.16665422,1.46947853 1.178,1.149 L1.178,0.589 C1.17690256,0.264159944 0.913840056,0.00109744201 0.589,0 L0.589,0 Z" id="Path_1781"></path>
                </g>
            </g>
        </g>
        <g id="info-green-ic" transform="translate(0.000000, 14.000000)" fill="#51BA6C" fill-rule="nonzero">
            <g id="Group_1804">
                <g id="Group_1803">
                    <path d="M6.926,-4.63767195e-06 C3.10087582,-4.63767195e-06 0,3.10087582 0,6.926 C0,10.7511242 3.10087582,13.852 6.926,13.852 C10.7511242,13.852 13.8520046,10.7511242 13.8520046,6.926 C13.8541262,5.08845961 13.1251075,3.3255688 11.8257693,2.02623066 C10.5264312,0.726892518 8.76354039,-0.00212616978 6.926,-4.63767195e-06 Z M6.926,12.7000008 C4.58887605,12.7012134 2.48126198,11.2941374 1.58632278,9.13514835 C0.691383572,6.97615932 1.18544849,4.49064132 2.8380449,2.8380449 C4.49064132,1.18544849 6.97615932,0.691383572 9.13514835,1.58632278 C11.2941374,2.48126198 12.7012134,4.58887605 12.7000008,6.926 C12.6933988,10.1121538 10.1121538,12.6933988 6.926,12.7000008 Z" id="Path_1779"></path>
                </g>
            </g>
            <g id="Group_1806" transform="translate(6.366000, 5.305000)">
                <g id="Group_1805">
                    <path d="M0.589,0 C0.264159944,0.00109744201 0.00109744201,0.264159944 0,0.589 L0,5.364 C0.00268360193,5.68225336 0.257302679,5.94102071 0.575471115,5.94884673 C0.893639551,5.95667276 1.16067288,5.71073655 1.17900339,5.393 L1.17900339,0.593 C1.17953124,0.436083952 1.11763721,0.285398214 1.00696191,0.174160156 C0.896286609,0.0629220976 0.745916724,0.000264611637 0.589,0 Z" id="Path_1780"></path>
                </g>
            </g>
            <g id="Group_1808" transform="translate(6.307000, 2.564000)">
                <g id="Group_1807">
                    <path d="M0.589,0 C0.264159944,0.00109744201 0.00109744201,0.264159944 -2.84217094e-14,0.589 L-2.84217094e-14,1.149 C0.00109744201,1.47384006 0.264159944,1.73690256 0.589,1.738 C0.909478531,1.72665422 1.16665422,1.46947853 1.178,1.149 L1.178,0.589 C1.17690256,0.264159944 0.913840056,0.00109744201 0.589,0 L0.589,0 Z" id="Path_1781"></path>
                </g>
            </g>
        </g>
    </g>
</svg>