<svg xmlns="http://www.w3.org/2000/svg" width="221.757" height="182.326" viewBox="0 0 221.757 182.326">
  <g id="Map_-_South" data-name="Map - South" transform="translate(1.102 0.5)">
    <path id="Path_715" data-name="Path 715" d="M630.448,431.9l-2.14-3.113-4.993-3.048-3.372.519-.389,1.556-5.9.519-.389.973h-1.686v-1.491l1.686-1.556h4.993l2.529-3.113,5.058,1.038,1.621-1.556h4.669l.389-1.556-4.6-3.567-2.529-6.225-2.529-1.038-3.761-4.8-5.447-7-5.058-3.113L603.6,394.8l-.454-4.085-2.075-2.075H599l-3.826-6.225-6.29-1.491-8.754-9.792H577.6l-2.075-1.556-4.215.519-2.529-2.594H566.7l-2.918-2.075h-3.372l-1.3,1.556-1.232-3.113-3.761-2.01-1.3.973,1.3,3.631-.454,2.075,4.215,4.085-2.918.519-2.14,3.113,3.372,5.188h2.075v.973l-7.911-2.01-3.826-4.669-.843,1.556,2.14,2.075,1.686,6.679h-1.686l-3.761-5.642-5.447-1.556,4.993,12.84-.389,3.113-1.3-4.6H540.7l-1.232-3.631-2.529-1.556-3.372,2.075-6.29,1.038-1.232,3.048h-1.3l-2.529,2.594h-2.464l-1.3-3.048,3.761-1.038,2.529-4.15,3.761-1.038,2.529-2.075,2.918-7.2,2.983-1.556v-2.01l2.918-3.631,1.232-1.038h3.826l1.621-1.556,1.686-10.829h-2.529l-4.15,3.113-4.6-1.038-2.983,3.113-3.761.519-1.232,2.01h-1.686l-1.686,3.113H523.9l-1.232,2.075h-2.14l-2.464,3.631-2.983.519v-.648l-1.427,1.556V380.6l4.474,1.038-4.474,6.1-4.8,3.177-7.068.454-5.253,4.41-3.177,6.874-6.355,8.171-2.594,4.085-1.1,4.669-2.529,1.621-4.15,8.56-1.816,4.345v6.29l-5.058,5.447-5.253,2.334-3.761,5.836-7.976,5.577-3.5,2.853.713,5.642-7.393,1.491-2.4,5.512-7-.843-.195,4.6-3.5,1.167,1.427,5.966-2.4,4.41-7.457-2.529-7.393,10.505-.065.065,4.669.454,6.679,6.679,1.686-1.556h2.075l16.8,8.236h4.6l1.3-1.038v-1.556l1.621.519.454-1.038.389,1.038,4.6,1.556,7.976.519,5.447,5.642h2.983v1.038l2.918-.519.389,1.038h1.686V521h4.6l.454-1.556,3.761,1.038.454-1.556,2.464-.519,1.3,2.075,3.307,1.556h3.826l.843-1.038,8.365.519,2.529,1.556,4.15.519,1.3,1.492h2.918l.389,1.556h1.686l7.133,4.669,3.761.519,2.14,2.01,7.133,1.556,7.976-1.556,1.621,1.038,13.877,1.038,2.918-2.594h3.372l2.075-2.01,3.372-1.037v-1.556l5.447-3.631,1.232-8.236,2.983,3.631,4.6-5.642,1.686-.519v-1.556h-.843l-3.826,2.075-.389-4.15-5.058-4.6h-6.29l1.3,3.567,2.529,2.075,1.232,3.113-3.761-.519-7.976-8.754L566.7,507.12l-.843,2.01h-1.686v-3.048l-1.232-.519-2.14-6.16,6.744-.519,1.232-1.556-1.232-6.225h-3.372l1.686-2.529-1.3-1.556h5.058l6.29-1.556,4.6,6.16,1.686.519,4.215-1.038,2.464-4.6-1.621-4.15.843-2.529h-1.686l-1.686-5.188.389-1.491,7.976,2.01,2.529,2.594,5.836,15.952,2.14,1.556-.843,6.679,2.918,3.631.454,4.6,1.232,2.075h3.372l-.843-5.123h2.918v-2.075l-3.372-2.594,3.372.519.454-4.085,1.232-.519.389-4.15L612.42,491.1l-.454-3.048,2.918-4.669-.389-1.038-5.447-1.491-.843-3.631,1.232-2.075h3.826l-1.686-4.085,2.464-2.594,5.512,1.038,3.761,5.642,4.993-2.529v-2.075l-2.075-3.113-3.372-1.556-1.232-2.529h-1.3l.843-4.15h1.686l.454-1.556h1.232l.843-3.567-7.522-.519-1.686-1.038-2.14-2.075.454-3.113,2.075-2.01h2.983l-.454-1.038,3.761-2.594,3.372-.519,2.529-4.085,4.993-3.631v-1.038Z" transform="translate(-413.6 -354.6)" fill="#152c53" stroke="#fafafa" stroke-width="1"/>
  </g>
</svg>
