<svg xmlns="http://www.w3.org/2000/svg" width="401.062" height="371.864" viewBox="0 0 401.062 371.864">
  <g id="malta2" transform="translate(-146.438 -73.325)" opacity="0.5">
    <path id="Path_1833" data-name="Path 1833" d="M485.067,285.422l-2.273-2.922C482.6,282.76,485.067,285.422,485.067,285.422Z" transform="translate(-115.814 -70.831)" fill="none" stroke="#51ba6c" stroke-width="10"/>
    <path id="Path_1834" data-name="Path 1834" d="M575.755,371.89v-.39l-.455.649Z" transform="translate(-148.255 -102.039)" fill="none" stroke="#51ba6c" stroke-width="10"/>
    <path id="Path_1835" data-name="Path 1835" d="M493.39,258.065,493,258v3.9Z" transform="translate(-119.396 -62.24)" fill="none" stroke="#51ba6c" stroke-width="10"/>
    <path id="Path_1836" data-name="Path 1836" d="M342.856,178.208l2.922-3.636,7.6-1.039V171H348.31l-4.156,2.532h-3.377l-1.688,1.558-.39,2.6.779,1.039Z" transform="translate(-65.291 -31.734)" fill="none" stroke="#51ba6c" stroke-width="10"/>
    <path id="Path_1837" data-name="Path 1837" d="M201.331,261.993l8.7,7.987,5.325-5.325V257.9l5.065,2.6h5.325l1.688-4.286,6.493.974,6.039,5.065,4.805-8.442,6.493-.714,10.844.974,2.922-1.948h7.013l9.675-1.234,13.052,12.792,2.922-1.234,18.831.455,10.39,7.013,1.234-9.48,3.636-5,15.714,2.4v-2.662l1.883-4.805V238.292l6.753-3.377,9.675,1.688,5.065,6.039L376.2,234.4v-3.9l-4.351-1.234-4.935-7.013,2.273-7.727s-2.4-2.662-2.273-2.922l-6.623-2.662v-3.636l6.493,1.234,4.61-1.948,2.143-5.065v-3.9l-6.1-1.234-2.532-3.117-.844-4.61-1.688.519-.844,2.6-1.688-.519v-8.247l-2.532-5.195-3.377.519-.455,4.675,1.234,1.039-3.766,1.039-1.688-5.195-3.377-2.078,1.234-3.117-2.532-1.558-1.688-3.117h-5.455l-5.909-4.675-3.377.519-1.234-1.558-2.078.519-2.532,6.169-1.688.519-3.377,4.156h-3.377l-1.234,1.039-2.532,3.636-.844,3.636h-1.234l1.688-6.688,3.766-5.714-.844-5.714,2.922-5.195V154.2l5.844.519-.455-2.6h-7.987l-3.377,2.6-3.766,1.039-4.286,3.636-.844,4.675-2.922.519-.844,1.558h-5.455l-2.532,1.039v4.156l-.844.519-3.377-1.039-.844,2.078-2.532-1.558-.455,1.558h-5.065l.455-1.558-2.922-1.039-1.234,2.6-6.688,1.558-1.234,1.558-2.532.519-.844,2.078h-2.532l-3.766,2.078-3.377-.519.39-4.156,2.922-1.558.844-2.6,3.377-1.039,1.688-5.195,2.532-3.117.844-3.636-2.533-1.039V155.76l2.533-.519,2.532,2.078h3.766l1.234-1.558-.39-3.117-1.688-1.039,3.377-5.195-3.377-3.636,2.922-2.6V138.1h-3.766l-.844-1.039-1.234,2.078h-1.688l-2.922-2.078-4.221.519-2.922-3.636-3.766,2.078-.39,1.558h-2.922l-2.078-3.117.455-2.078-1.688-1.558L241.2,132.9l-6.753,2.078-1.234,1.558-7.143,2.078-20.584,2.6-2.078-1.558-2.532-5.714-.39-4.156,1.234-2.078,12.208-6.688,2.532-3.636,5.844-4.156-.844-2.078.844-1.558h1.688l2.078-2.6h7.987l6.3-4.156-.455-4.156-2.922-3.117-2.922-.519V89.851l-2.078-1.558-.844-3.117-2.078-1.039L226.981,80.5h0l-1.623,1.1.39,3.636-5.455-2.078-2.078,2.078.39,5.195,4.221,2.078-.455,1.039-6.688-.519-1.688,4.675h-3.766l-.844-3.117-1.234-.519h-4.61l-1.234,8.766-2.922-2.6h-5.065l-.844,1.558,1.234,2.6-5.844-2.6-2.922.519-1.234,1.558h-2.532l-5.065-2.6-7.532,1.039-1.688-2.078,1.234-1.039.39-2.6-2.532.519-1.234,6.753,9.221,3.117-.844,3.636-1.688.519-.39-1.039h-2.338l-4.221,7.727h-4.61l-2.922,2.6-2.078,4.156-.844,4.675-2.532,2.6,2.078,4.156,5.065,2.6h4.61l3.766-2.6,10.909.519.844,5.195,1.688,2.6-.844,2.6h-2.468l-.844,1.558.844,2.6,5.455,2.6-.39,1.558h-2.532l2.078,3.636-.844,4.156,1.688,1.558h2.922v1.558l-5.065,3.117v4.156l-2.922,2.078v5.714h-6.3l-4.221,2.6-.844,5.195,2.532,5.714,7.987,1.039,3.766,1.558.844,1.039-.844,1.039,2.922,3.117,6.753-1.039.844,2.078-2.922,1.558v3.117l.844,2.078h2.922l-.844,1.558-8.831-.519-.455,1.558,1.234,4.675,6.3-.519-.844,5.649.844,3.636-1.234-.519-.39,1.558h-1.688l-3.766-5.195-2.922-.519h-4.221l-1.688,2.078-1.234,9.286,1.234,6.688,3.377.519.455,2.6,3.766,2.078.39,2.078-.844,1.039,1.234,3.117,2.532.519.39,2.078,4.286,8.831Z" fill="none" stroke="#51ba6c" stroke-width="10"/>
    <path id="Path_1838" data-name="Path 1838" d="M630.743,432l-2.143-3.117-5-3.052-3.377.52-.39,1.558-5.909.519-.39.974h-1.688v-1.493l1.688-1.558h5l2.532-3.117,5.065,1.039,1.623-1.558h4.675l.39-1.558-4.61-3.571-2.532-6.234-2.533-1.039-3.766-4.805-5.455-7.013-5.065-3.117-5-.52-.455-4.091-2.078-2.078h-2.078l-3.831-6.234-6.3-1.493-8.766-9.805h-2.533l-2.078-1.558-4.221.52-2.532-2.6h-2.078l-2.922-2.078h-3.377l-1.3,1.558-1.234-3.117-3.766-2.013-1.3.974,1.3,3.636-.455,2.078,4.221,4.091-2.922.519-2.143,3.117,3.377,5.195h2.078v.974l-7.922-2.013-3.831-4.675-.844,1.558,2.143,2.078,1.688,6.688h-1.688l-3.766-5.649-5.455-1.558,5,12.857-.39,3.117-1.3-4.61h-1.234l-1.234-3.636-2.532-1.558-3.377,2.078-6.3,1.039-1.234,3.052h-1.3l-2.533,2.6H519.9l-1.3-3.052,3.766-1.039,2.533-4.156,3.766-1.039,2.533-2.078,2.922-7.208,2.987-1.558v-2.013l2.922-3.636L541.262,367h3.831l1.623-1.558,1.688-10.844h-2.533l-4.156,3.117-4.61-1.039-2.987,3.117-3.766.52-1.234,2.013h-1.688l-1.688,3.117h-1.688l-1.234,2.078h-2.143l-2.468,3.636-2.987.52v-.649l-1.429,1.558v8.052l4.481,1.039-4.481,6.1-4.805,3.182-7.078.455-5.26,4.416-3.182,6.883-6.364,8.182-2.6,4.091-1.1,4.675-2.532,1.623-4.156,8.571L474.9,434.21v6.3l-5.065,5.455-5.26,2.338-3.766,5.844-7.987,5.584-3.506,2.857.714,5.649-7.4,1.493-2.4,5.52-7.013-.844-.195,4.61-3.506,1.169,1.429,5.974-2.4,4.416-7.468-2.532-7.4,10.519-.065.065,4.675.455,6.688,6.688,1.688-1.558h2.078l16.818,8.247h4.61l1.3-1.039V509.86l1.623.519.455-1.039.39,1.039,4.61,1.558,7.987.52,5.455,5.649h2.987v1.039l2.922-.519.39,1.039h1.688v1.558h4.61l.455-1.558,3.766,1.039.454-1.558,2.468-.519,1.3,2.078,3.312,1.558h3.831l.844-1.039,8.377.519,2.532,1.558,4.156.519,1.3,1.494h2.922l.39,1.558h1.688l7.143,4.675,3.766.519,2.143,2.013,7.143,1.558,7.987-1.558,1.623,1.039,13.9,1.039,2.922-2.6h3.377l2.078-2.013,3.377-1.039v-1.558l5.455-3.636,1.234-8.247L587.5,520.7l4.61-5.649,1.688-.519v-1.558h-.844l-3.831,2.078-.39-4.156-5.065-4.61h-6.3l1.3,3.571,2.532,2.078,1.234,3.117-3.766-.519-7.987-8.766-3.766,1.558-.844,2.013h-1.688v-3.052l-1.234-.52L561,499.6l6.753-.52,1.234-1.558-1.234-6.234h-3.377l1.688-2.532-1.3-1.559h5.065l6.3-1.558,4.61,6.169,1.688.519,4.221-1.039,2.468-4.61-1.623-4.156.844-2.532h-1.688l-1.688-5.195.39-1.493,7.987,2.013,2.532,2.6,5.844,15.974,2.143,1.558-.844,6.688,2.922,3.636.455,4.61,1.234,2.078H611l-.844-5.13h2.922v-2.078l-3.377-2.6,3.377.52.455-4.091,1.234-.52.39-4.156-2.468-3.117-.455-3.052,2.922-4.675-.39-1.039-5.455-1.494-.844-3.636,1.234-2.078h3.831l-1.688-4.091,2.468-2.6,5.519,1.039,3.766,5.649,5-2.533V470.7l-2.078-3.117-3.377-1.558-1.234-2.533h-1.3l.844-4.156h1.688l.455-1.558h1.234l.844-3.571-7.533-.519-1.688-1.039-2.143-2.078.455-3.117,2.078-2.013h2.987l-.455-1.039,3.766-2.6,3.377-.52,2.532-4.091,5-3.636v-1.039Z" transform="translate(-91.555 -96.113)" fill="none" stroke="#51ba6c" stroke-width="10"/>
    <path id="Path_1839" data-name="Path 1839" d="M570.1,377.305h0l3.377-4.805-3.377,1.818Z" transform="translate(-146.431 -102.39)" fill="none" stroke="#51ba6c" stroke-width="10"/>
    <path id="Path_1840" data-name="Path 1840" d="M472.5,278.5l6.623,2.662C479.253,280.9,472.5,278.5,472.5,278.5Z" transform="translate(-112.208 -69.429)" fill="none" stroke="#51ba6c" stroke-width="10"/>
    <path id="Path_1841" data-name="Path 1841" d="M570.1,379.9Z" transform="translate(-146.431 -104.984)" fill="none" stroke="#51ba6c" stroke-width="10"/>
    <path id="Path_1842" data-name="Path 1842" d="M569.329,379.9l-1.429,1.558Z" transform="translate(-145.66 -104.984)" fill="none" stroke="#51ba6c" stroke-width="10"/>
    <path id="Path_1843" data-name="Path 1843" d="M457.422,311.382l-5.844-2.078-1.688-4.675-3.766-1.558.455-5.195-2.922-1.039-4.221-3.636-6.688-2.6-1.234.52v4.61l-1.688,1.039h-2.078l-2.532-2.078v-2.078l-1.688-.519v-1.558l3.766-.52.455-7.727h-1.688v-3.636l2.532-2.078-1.688-1.558-2.078,1.558-1.688-1.039-2.078.519L420.6,274.5l3.377-3.117-2.532-3.636-2.922-.519-2.078-1.558h-3.377l-.844-2.078-4.221-1.558.455-3.636-.844-1.039-6.3-1.558-3.766-2.6-6.688,3.117-.39,1.558-8.571-1.753-.584,4.091-2.208,5.065-4.61,1.948-6.493-1.234v3.636s6.753,2.4,6.623,2.662l2.273,2.922-2.273,7.727,4.935,7.013,4.351,1.234v3.9l-5.195,8.052-5-5.974-9.675-1.688-6.753,3.377v12.078l-1.883,4.805v2.662l-15.714-2.4-3.636,5-1.234,9.481-10.39-7.013-18.831-.455a10.806,10.806,0,0,1-2.922,1.234c-.779,0-13.052-12.792-13.052-12.792l-9.675,1.234h-7.013l-2.922,1.948-10.844-.974-6.494.714-4.805,8.442-6.039-5.065-6.493-.974-1.688,4.286h-5.325l-5.065-2.6v6.688l-5.325,5.325-8.9-7.922-11.364.26-4.286-8.831-10.065.519-8.831-2.078v3.636l3.377,5.13-.455,3.117-2.532,2.6v3.636l3.766,5.649,4.61,3.117,4.221,12.922L185.8,362.551l4.221,5.649,3.766,3.117,1.234,4.091,8.377,5.649,10.065.52-2.922,3.117v1.039h1.234l-.844,1.039,2.922,2.078,4.221.519,1.688,1.558.844,3.117,2.532,2.078,2.922,6.688,9.221,6.169,4.61,5.649,6.3,1.558,2.078,4.091,6.3,5.195,5.065-.52,2.078,2.078,5,.52,3.377,5.13,3.766.519,2.078,7.208,2.532,1.558,5.065-.52-.39,1.039,2.078,1.039,2.078,3.117,1.688-2.078,7.143,3.117,8.831,1.558v3.636l2.532,5.649,5.065,2.6h5.909l4.61,1.558,6.688.584.065-.065,7.4-10.714,7.468,2.467,2.4-4.416-1.429-5.909,3.506-1.234.26-4.61,7.013.844,2.4-5.584,7.4-1.429-.714-5.649,3.507-2.857,7.987-5.649,3.831-5.779,5.26-2.338,5.065-5.455v-6.364l1.818-4.351-.195.065,4.156-8.442,2.532-1.623,1.1-4.74,2.6-4.091,6.364-8.182,3.182-6.883,5.26-4.416,7.078-.455,4.805-3.182,4.481-6.169-4.481-.974v-8.117l1.429-1.558v-2.987l3.312-1.818.455-.649V325.8l-1.234-1.558h-2.078l-2.922-4.091h4.221l3.377,1.558.844,1.558,3.766.52,3.377-2.078.455-4.675-5.455-2.078-8.831,1.039.844-3.117,6.688-3.571h4.221l2.922,1.558.455,1.558,6.3,3.117h2.922l2.922-2.078Z" transform="translate(-7.714 -60.557)" fill="none" stroke="#51ba6c" stroke-width="10"/>
    <path id="Path_1844" data-name="Path 1844" d="M374.522,360.7l-2.922,1.234A10.806,10.806,0,0,0,374.522,360.7Z" transform="translate(-76.827 -98.252)" fill="none" stroke="#51ba6c" stroke-width="10"/>
    <path id="Path_1845" data-name="Path 1845" d="M364.652,355.692,351.6,342.9C351.6,342.835,363.873,355.692,364.652,355.692Z" transform="translate(-69.814 -92.01)" fill="none" stroke="#51ba6c" stroke-width="10"/>
  </g>
</svg>
