<?xml version="1.0" encoding="UTF-8"?>
<svg width="15px" height="30px" viewBox="0 0 15 30" version="1.1" xmlns="http://www.w3.org/2000/svg" xmlns:xlink="http://www.w3.org/1999/xlink">
    <!-- Generator: Sketch 62 (91390) - https://sketch.com -->
    <title>Artboard</title>
    <desc>Created with Sketch.</desc>
    <g id="Artboard" stroke="none" stroke-width="1" fill="none" fill-rule="evenodd">
        <g id="calendar" transform="translate(1.000000, 0.000000)" fill="#152C53" fill-rule="nonzero" opacity="0.5">
            <path d="M11.719,1.875 L10.313,1.875 L10.313,0.352 C10.3124507,0.157823751 10.1551762,0.000549299615 9.961,-3.91908728e-17 L8.789,-3.91908728e-17 C8.59482375,0.000549299615 8.4375493,0.157823751 8.437,0.352 L8.437,1.875 L4.687,1.875 L4.687,0.352 C4.68645413,0.15821205 4.52978561,0.00109718427 4.336,-3.91908728e-17 L3.164,-3.91908728e-17 C2.96982375,0.000549299615 2.8125493,0.157823751 2.812,0.352 L2.812,1.875 L1.406,1.875 C0.629716209,1.87555153 0.000551533985,2.50471621 0,3.281 L0,13.594 C0.000551533985,14.3702838 0.629716209,14.9994485 1.406,15 L11.719,15 C12.4952838,14.9994485 13.1244485,14.3702838 13.125,13.594 L13.125,3.281 C13.1244485,2.50471621 12.4952838,1.87555153 11.719,1.875 L11.719,1.875 Z M11.543,13.594 L1.582,13.594 C1.48479788,13.594 1.406,13.5152021 1.406,13.418 L1.406,4.687 L11.7190028,4.687 L11.7190028,13.417 C11.7192662,13.4638511 11.700841,13.5088747 11.6678057,13.5420977 C11.6347704,13.5753207 11.5898519,13.594 11.543,13.594 Z"></path>
        </g>
        <g id="calendar" transform="translate(1.000000, 15.000000)" fill="#51BA6C" fill-rule="nonzero">
            <path d="M11.719,1.875 L10.313,1.875 L10.313,0.352 C10.3124507,0.157823751 10.1551762,0.000549299615 9.961,-3.91908728e-17 L8.789,-3.91908728e-17 C8.59482375,0.000549299615 8.4375493,0.157823751 8.437,0.352 L8.437,1.875 L4.687,1.875 L4.687,0.352 C4.68645413,0.15821205 4.52978561,0.00109718427 4.336,-3.91908728e-17 L3.164,-3.91908728e-17 C2.96982375,0.000549299615 2.8125493,0.157823751 2.812,0.352 L2.812,1.875 L1.406,1.875 C0.629716209,1.87555153 0.000551533985,2.50471621 0,3.281 L0,13.594 C0.000551533985,14.3702838 0.629716209,14.9994485 1.406,15 L11.719,15 C12.4952838,14.9994485 13.1244485,14.3702838 13.125,13.594 L13.125,3.281 C13.1244485,2.50471621 12.4952838,1.87555153 11.719,1.875 L11.719,1.875 Z M11.543,13.594 L1.582,13.594 C1.48479788,13.594 1.406,13.5152021 1.406,13.418 L1.406,4.687 L11.7190028,4.687 L11.7190028,13.417 C11.7192662,13.4638511 11.700841,13.5088747 11.6678057,13.5420977 C11.6347704,13.5753207 11.5898519,13.594 11.543,13.594 Z"></path>
        </g>
    </g>
</svg>