<?xml version="1.0" encoding="UTF-8"?>
<svg width="15px" height="30px" viewBox="0 0 15 30" version="1.1" xmlns="http://www.w3.org/2000/svg" xmlns:xlink="http://www.w3.org/1999/xlink">
    <!-- Generator: Sketch 62 (91390) - https://sketch.com -->
    <title>Artboard</title>
    <desc>Created with Sketch.</desc>
    <g id="Artboard" stroke="none" stroke-width="1" fill="none" fill-rule="evenodd">
        <g id="Group-1973" fill="#152C53" fill-rule="nonzero" opacity="0.495">
            <g id="Group_1973">
                <path d="M6.44117647,2.72823529 C5.84931046,2.87381905 5.30082874,3.15879962 4.84147059,3.55941176 L4.82823529,3.57088235 C4.76205882,3.62911765 4.69676471,3.68823529 4.63411765,3.74735294 C3.12708273,5.2619244 3.12708273,7.70954618 4.63411765,9.22411765 L4.63411765,9.22411765 L4.63411765,9.22411765 C6.10622756,10.702472 8.48963001,10.7342142 10.0005882,9.29558824 C10.0270588,9.27088235 10.0535294,9.24617647 10.0791176,9.22058824 L10.0791176,9.22058824 C10.1373529,9.16235294 10.1911765,9.10235294 10.245,9.04411765 L10.2891176,8.99205882 C10.3302941,8.94323529 10.3702941,8.89352941 10.4091176,8.84294118 L10.4417647,8.80058824 C10.4905882,8.73470588 10.5373529,8.66764706 10.5820588,8.59941176 L10.59,8.58529412 C10.6323529,8.52 10.6720588,8.45352941 10.7091176,8.38588235 L10.7267647,8.35411765 C11.5570944,6.84406227 11.2926421,4.96738486 10.0773529,3.74558824 L7.22205882,0.876176471 C6.69794868,1.34572567 6.41147041,2.02518093 6.44117647,2.72823529 Z M8.77058824,7.90941176 C8.39682764,8.28508131 7.88875238,8.49629148 7.35882353,8.49629148 C6.82889467,8.49629148 6.32081942,8.28508131 5.94705882,7.90941176 C5.16769114,7.12372702 5.16769114,5.85656709 5.94705882,5.07088235 C6.32081942,4.69521281 6.82889467,4.48400264 7.35882353,4.48400264 C7.88875238,4.48400264 8.39682764,4.69521281 8.77058824,5.07088235 C9.54923141,5.85700693 9.54883764,7.12377142 8.76970588,7.90941176 L8.77058824,7.90941176 Z" id="Path_12"></path>
                <g id="Group_5" transform="translate(0.000000, 8.524412)">
                    <path d="M12.2417647,0.847941176 C11.9409823,1.37536603 11.558603,1.85185118 11.1088235,2.25970588 C8.94375134,4.22284273 5.64242513,4.22284273 3.47735294,2.25970588 C3.02720542,1.85196915 2.64451799,1.37547119 2.34352941,0.847941176 C1.68240098,0.305445939 0.85519246,0.00614345889 5.01559578e-14,-5.01559578e-14 C0.894607457,3.2934959 3.87982793,5.5830679 7.29264706,5.59323529 L7.29264706,5.59323529 C10.7054662,5.5830679 13.6906867,3.2934959 14.5852941,-5.01559578e-14 C13.7301272,0.00628606323 12.9029648,0.30557187 12.2417647,0.847941176 Z" id="Path_13"></path>
                </g>
                <path d="M7.53617647,14.1088235 L7.60411765,14.1035294 C7.66764706,14.0982353 7.73088235,14.0914706 7.79382353,14.0832353 L7.84676471,14.0761765 C7.92794118,14.0644118 8.00823529,14.0502941 8.08764706,14.0338235 L8.10352941,14.0338235 C8.17941176,14.0170588 8.25441176,13.9985294 8.32852941,13.9782353 L8.36294118,13.9685294 C8.68846297,13.8742984 9.0000149,13.7372155 9.28941176,13.5608824 C10.2814518,12.9549692 10.9490163,11.9356458 11.1079412,10.7841176 C8.94271021,12.746843 5.64170155,12.746843 3.47647059,10.7841176 C3.73234898,12.6509771 5.29891689,14.0601423 7.18235294,14.1176471 C7.21852941,14.1176471 7.25382353,14.1176471 7.29,14.1176471 L7.29,14.1176471 C7.37558824,14.1176471 7.45588235,14.1141176 7.53617647,14.1088235 Z" id="Path_14"></path>
                <path d="M6.44117647,2.72823529 C5.84931046,2.87381905 5.30082874,3.15879962 4.84147059,3.55941176 L4.82823529,3.57088235 C4.76205882,3.62911765 4.69676471,3.68823529 4.63411765,3.74735294 C3.12708273,5.2619244 3.12708273,7.70954618 4.63411765,9.22411765 L4.63411765,9.22411765 L4.63411765,9.22411765 C6.10622756,10.702472 8.48963001,10.7342142 10.0005882,9.29558824 C10.0270588,9.27088235 10.0535294,9.24617647 10.0791176,9.22058824 L10.0791176,9.22058824 C10.1373529,9.16235294 10.1911765,9.10235294 10.245,9.04411765 L10.2891176,8.99205882 C10.3302941,8.94323529 10.3702941,8.89352941 10.4091176,8.84294118 L10.4417647,8.80058824 C10.4905882,8.73470588 10.5373529,8.66764706 10.5820588,8.59941176 L10.59,8.58529412 C10.6323529,8.52 10.6720588,8.45352941 10.7091176,8.38588235 L10.7267647,8.35411765 C11.5570944,6.84406227 11.2926421,4.96738486 10.0773529,3.74558824 L7.22205882,0.876176471 C6.69794868,1.34572567 6.41147041,2.02518093 6.44117647,2.72823529 Z M8.77058824,7.90941176 C8.39682764,8.28508131 7.88875238,8.49629148 7.35882353,8.49629148 C6.82889467,8.49629148 6.32081942,8.28508131 5.94705882,7.90941176 C5.16769114,7.12372702 5.16769114,5.85656709 5.94705882,5.07088235 C6.32081942,4.69521281 6.82889467,4.48400264 7.35882353,4.48400264 C7.88875238,4.48400264 8.39682764,4.69521281 8.77058824,5.07088235 C9.54923141,5.85700693 9.54883764,7.12377142 8.76970588,7.90941176 L8.77058824,7.90941176 Z" id="Path_23"></path>
            </g>
        </g>
        <g id="Group-1973" transform="translate(0.000000, 15.000000)" fill-rule="nonzero">
            <g id="Group_1973">
                <path d="M6.44117647,2.72823529 C5.84931046,2.87381905 5.30082874,3.15879962 4.84147059,3.55941176 L4.82823529,3.57088235 C4.76205882,3.62911765 4.69676471,3.68823529 4.63411765,3.74735294 C3.12708273,5.2619244 3.12708273,7.70954618 4.63411765,9.22411765 L4.63411765,9.22411765 L4.63411765,9.22411765 C6.10622756,10.702472 8.48963001,10.7342142 10.0005882,9.29558824 C10.0270588,9.27088235 10.0535294,9.24617647 10.0791176,9.22058824 L10.0791176,9.22058824 C10.1373529,9.16235294 10.1911765,9.10235294 10.245,9.04411765 L10.2891176,8.99205882 C10.3302941,8.94323529 10.3702941,8.89352941 10.4091176,8.84294118 L10.4417647,8.80058824 C10.4905882,8.73470588 10.5373529,8.66764706 10.5820588,8.59941176 L10.59,8.58529412 C10.6323529,8.52 10.6720588,8.45352941 10.7091176,8.38588235 L10.7267647,8.35411765 C11.5570944,6.84406227 11.2926421,4.96738486 10.0773529,3.74558824 L7.22205882,0.876176471 C6.69794868,1.34572567 6.41147041,2.02518093 6.44117647,2.72823529 Z M8.77058824,7.90941176 C8.39682764,8.28508131 7.88875238,8.49629148 7.35882353,8.49629148 C6.82889467,8.49629148 6.32081942,8.28508131 5.94705882,7.90941176 C5.16769114,7.12372702 5.16769114,5.85656709 5.94705882,5.07088235 C6.32081942,4.69521281 6.82889467,4.48400264 7.35882353,4.48400264 C7.88875238,4.48400264 8.39682764,4.69521281 8.77058824,5.07088235 C9.54923141,5.85700693 9.54883764,7.12377142 8.76970588,7.90941176 L8.77058824,7.90941176 Z" id="Path_12" fill="#51BA6C"></path>
                <g id="Group_5" transform="translate(0.000000, 8.524412)" fill="#51BA6C">
                    <path d="M12.2417647,0.847941176 C11.9409823,1.37536603 11.558603,1.85185118 11.1088235,2.25970588 C8.94375134,4.22284273 5.64242513,4.22284273 3.47735294,2.25970588 C3.02720542,1.85196915 2.64451799,1.37547119 2.34352941,0.847941176 C1.68240098,0.305445939 0.85519246,0.00614345889 5.01559578e-14,-5.01559578e-14 C0.894607457,3.2934959 3.87982793,5.5830679 7.29264706,5.59323529 L7.29264706,5.59323529 C10.7054662,5.5830679 13.6906867,3.2934959 14.5852941,-5.01559578e-14 C13.7301272,0.00628606323 12.9029648,0.30557187 12.2417647,0.847941176 Z" id="Path_13"></path>
                </g>
                <path d="M7.53617647,14.1088235 L7.60411765,14.1035294 C7.66764706,14.0982353 7.73088235,14.0914706 7.79382353,14.0832353 L7.84676471,14.0761765 C7.92794118,14.0644118 8.00823529,14.0502941 8.08764706,14.0338235 L8.10352941,14.0338235 C8.17941176,14.0170588 8.25441176,13.9985294 8.32852941,13.9782353 L8.36294118,13.9685294 C8.68846297,13.8742984 9.0000149,13.7372155 9.28941176,13.5608824 C10.2814518,12.9549692 10.9490163,11.9356458 11.1079412,10.7841176 C8.94271021,12.746843 5.64170155,12.746843 3.47647059,10.7841176 C3.73234898,12.6509771 5.29891689,14.0601423 7.18235294,14.1176471 C7.21852941,14.1176471 7.25382353,14.1176471 7.29,14.1176471 L7.29,14.1176471 C7.37558824,14.1176471 7.45588235,14.1141176 7.53617647,14.1088235 Z" id="Path_14" fill="#30975D"></path>
                <path d="M6.44117647,2.72823529 C5.84931046,2.87381905 5.30082874,3.15879962 4.84147059,3.55941176 L4.82823529,3.57088235 C4.76205882,3.62911765 4.69676471,3.68823529 4.63411765,3.74735294 C3.12708273,5.2619244 3.12708273,7.70954618 4.63411765,9.22411765 L4.63411765,9.22411765 L4.63411765,9.22411765 C6.10622756,10.702472 8.48963001,10.7342142 10.0005882,9.29558824 C10.0270588,9.27088235 10.0535294,9.24617647 10.0791176,9.22058824 L10.0791176,9.22058824 C10.1373529,9.16235294 10.1911765,9.10235294 10.245,9.04411765 L10.2891176,8.99205882 C10.3302941,8.94323529 10.3702941,8.89352941 10.4091176,8.84294118 L10.4417647,8.80058824 C10.4905882,8.73470588 10.5373529,8.66764706 10.5820588,8.59941176 L10.59,8.58529412 C10.6323529,8.52 10.6720588,8.45352941 10.7091176,8.38588235 L10.7267647,8.35411765 C11.5570944,6.84406227 11.2926421,4.96738486 10.0773529,3.74558824 L7.22205882,0.876176471 C6.69794868,1.34572567 6.41147041,2.02518093 6.44117647,2.72823529 Z M8.77058824,7.90941176 C8.39682764,8.28508131 7.88875238,8.49629148 7.35882353,8.49629148 C6.82889467,8.49629148 6.32081942,8.28508131 5.94705882,7.90941176 C5.16769114,7.12372702 5.16769114,5.85656709 5.94705882,5.07088235 C6.32081942,4.69521281 6.82889467,4.48400264 7.35882353,4.48400264 C7.88875238,4.48400264 8.39682764,4.69521281 8.77058824,5.07088235 C9.54923141,5.85700693 9.54883764,7.12377142 8.76970588,7.90941176 L8.77058824,7.90941176 Z" id="Path_23" fill="#51BA6C"></path>
            </g>
        </g>
    </g>
</svg>