<?xml version="1.0" encoding="UTF-8"?>
<svg width="15px" height="30px" viewBox="0 0 15 30" version="1.1" xmlns="http://www.w3.org/2000/svg" xmlns:xlink="http://www.w3.org/1999/xlink">
    <!-- Generator: Sketch 62 (91390) - https://sketch.com -->
    <title>Artboard</title>
    <desc>Created with Sketch.</desc>
    <g id="Artboard" stroke="none" stroke-width="1" fill="none" fill-rule="evenodd">
        <g id="Group-1296" fill="#152C53" fill-rule="nonzero" opacity="0.5" stroke="#152C53" stroke-width="0.5">
            <g id="Group_1296" transform="translate(0.222353, 0.645000)">
                <path d="M11.8455882,9.76852941 C11.5379466,10.2978039 11.1511157,10.7768792 10.6985294,11.1891176 C9.60896718,12.1781293 8.18972666,12.7252495 6.71823529,12.7235294 C5.24817061,12.7246609 3.83051693,12.177546 2.74235294,11.1891176 C2.28672965,10.7775658 1.89743126,10.2980859 1.58823529,9.76764706 C1.16752041,9.41660555 0.654247234,9.19474896 0.110294118,9.12882353 C1.11156581,11.9216036 3.75231157,13.7902221 6.71911765,13.8052941 C9.68527556,13.7894824 12.3251261,11.9209985 13.3261765,9.12882353 C12.7810537,9.1939645 12.2666381,9.41622391 11.8455882,9.76852941 Z" id="Path_818" transform="translate(6.718235, 11.467059) rotate(180.000000) translate(-6.718235, -11.467059) "></path>
                <path d="M6.78176471,8.93385809 C7.66400301,8.93231667 8.51106819,8.5877317 9.14382353,7.97294118 L9.18264706,7.93588235 C9.23382353,7.88382353 9.28235294,7.83088235 9.32911765,7.77794118 L9.36882353,7.73117647 C9.405,7.68882353 9.50294118,7.56264706 9.50294118,7.56264706 C9.54705882,7.50352941 9.59117647,7.44352941 9.63617647,7.37382353 C9.68117647,7.30411765 9.70764706,7.25823529 9.75617647,7.17 C10.4826779,5.83684598 10.2496352,4.1851112 9.18264706,3.105 L6.66176471,0.57 C6.38090439,0.929125242 6.2364658,1.37619707 6.25411765,1.83176471 L6.26558824,2.13264706 L5.97352941,2.20411765 C5.44719708,2.33475381 4.95978899,2.58950093 4.55205882,2.94705882 C4.49382353,2.99823529 4.43647059,3.05029412 4.38088235,3.10676471 C3.05889026,4.44676308 3.05889026,6.60029575 4.38088235,7.94029412 C5.01561883,8.57994617 5.88063849,8.93790727 6.78176471,8.93385809 Z M5.14058824,3.87441176 C5.57503111,3.43725838 6.16589128,3.19143903 6.78220588,3.19143903 C7.39852048,3.19143903 7.98938066,3.43725838 8.42382353,3.87441176 C9.32454061,4.78762281 9.32454061,6.25502424 8.42382353,7.16823529 C7.98926437,7.60517051 7.39844776,7.85083889 6.78220588,7.85083889 C6.16596401,7.85083889 5.5751474,7.60517051 5.14058824,7.16823529 C4.23987116,6.25502424 4.23987116,4.78762281 5.14058824,3.87441176 Z" id="Path_819"></path>
            </g>
        </g>
        <g id="Group-1296" transform="translate(0.000000, 15.000000)" fill="#51BA6C" fill-rule="nonzero" stroke="#51BA6C" stroke-width="0.5">
            <g id="Group_1296" transform="translate(0.222353, 0.645000)">
                <path d="M11.8455882,9.76852941 C11.5379466,10.2978039 11.1511157,10.7768792 10.6985294,11.1891176 C9.60896718,12.1781293 8.18972666,12.7252495 6.71823529,12.7235294 C5.24817061,12.7246609 3.83051693,12.177546 2.74235294,11.1891176 C2.28672965,10.7775658 1.89743126,10.2980859 1.58823529,9.76764706 C1.16752041,9.41660555 0.654247234,9.19474896 0.110294118,9.12882353 C1.11156581,11.9216036 3.75231157,13.7902221 6.71911765,13.8052941 C9.68527556,13.7894824 12.3251261,11.9209985 13.3261765,9.12882353 C12.7810537,9.1939645 12.2666381,9.41622391 11.8455882,9.76852941 Z" id="Path_818" transform="translate(6.718235, 11.467059) rotate(180.000000) translate(-6.718235, -11.467059) "></path>
                <path d="M6.78176471,8.93385809 C7.66400301,8.93231667 8.51106819,8.5877317 9.14382353,7.97294118 L9.18264706,7.93588235 C9.23382353,7.88382353 9.28235294,7.83088235 9.32911765,7.77794118 L9.36882353,7.73117647 C9.405,7.68882353 9.50294118,7.56264706 9.50294118,7.56264706 C9.54705882,7.50352941 9.59117647,7.44352941 9.63617647,7.37382353 C9.68117647,7.30411765 9.70764706,7.25823529 9.75617647,7.17 C10.4826779,5.83684598 10.2496352,4.1851112 9.18264706,3.105 L6.66176471,0.57 C6.38090439,0.929125242 6.2364658,1.37619707 6.25411765,1.83176471 L6.26558824,2.13264706 L5.97352941,2.20411765 C5.44719708,2.33475381 4.95978899,2.58950093 4.55205882,2.94705882 C4.49382353,2.99823529 4.43647059,3.05029412 4.38088235,3.10676471 C3.05889026,4.44676308 3.05889026,6.60029575 4.38088235,7.94029412 C5.01561883,8.57994617 5.88063849,8.93790727 6.78176471,8.93385809 Z M5.14058824,3.87441176 C5.57503111,3.43725838 6.16589128,3.19143903 6.78220588,3.19143903 C7.39852048,3.19143903 7.98938066,3.43725838 8.42382353,3.87441176 C9.32454061,4.78762281 9.32454061,6.25502424 8.42382353,7.16823529 C7.98926437,7.60517051 7.39844776,7.85083889 6.78220588,7.85083889 C6.16596401,7.85083889 5.5751474,7.60517051 5.14058824,7.16823529 C4.23987116,6.25502424 4.23987116,4.78762281 5.14058824,3.87441176 Z" id="Path_819"></path>
            </g>
        </g>
    </g>
</svg>