<svg xmlns="http://www.w3.org/2000/svg" width="21.097" height="18.458" viewBox="0 0 21.097 18.458">
  <path id="comment" d="M10.484,32C4.658,32-.064,35.836-.064,40.57a7.574,7.574,0,0,0,2.18,5.2A10.455,10.455,0,0,1,.2,48.789a.989.989,0,0,0,.721,1.669A10,10,0,0,0,6.656,48.55a12.725,12.725,0,0,0,3.828.589c5.826,0,10.547-3.836,10.547-8.57S16.309,32,10.484,32Zm0,15.162a10.706,10.706,0,0,1-3.23-.5l-.935-.3-.8.569A8.86,8.86,0,0,1,3.146,48.13a10.334,10.334,0,0,0,.82-1.656L4.4,45.316l-.849-.9a5.667,5.667,0,0,1-1.64-3.848c0-3.634,3.844-6.592,8.57-6.592s8.57,2.958,8.57,6.592S15.209,47.162,10.484,47.162Z" transform="translate(0.066 -32)" fill="#51ba6c"/>
</svg>
