<?xml version="1.0" encoding="UTF-8"?>
<svg width="15px" height="30px" viewBox="0 0 15 30" version="1.1" xmlns="http://www.w3.org/2000/svg" xmlns:xlink="http://www.w3.org/1999/xlink">
    <!-- Generator: Sketch 62 (91390) - https://sketch.com -->
    <title>Artboard</title>
    <desc>Created with Sketch.</desc>
    <g id="Artboard" stroke="none" stroke-width="1" fill="none" fill-rule="evenodd">
        <g id="notifications-24px" transform="translate(1.000000, 0.000000)" fill="#152C53" fill-rule="nonzero" opacity="0.5">
            <path d="M6.154,15.0000003 C7.00227459,14.9974272 7.68925564,14.3533824 7.692,13.558125 L4.615,13.558125 C4.615,13.9406965 4.777176,14.3075852 5.06582327,14.5780162 C5.35447053,14.8484472 5.7459238,15.0002487 6.154,15.0000003 L6.154,15.0000003 Z M10.769,10.6734375 L10.769,7.066875 C10.9294324,4.96598843 9.47713376,3.05386861 7.307,2.50875 L7.307,2.019375 C7.31937368,1.62543341 7.1022642,1.25634876 6.74027888,1.05595292 C6.37829355,0.855557074 5.92870645,0.855557074 5.56672112,1.05595292 C5.2047358,1.25634876 4.98762632,1.62543341 5,2.019375 L5,2.5096875 C2.82688976,3.05018506 1.37237183,4.96483293 1.538,7.066875 L1.538,10.6725 L0,12.1153125 L0,12.83625 L12.308,12.83625 L12.308,12.1153125 L10.769,10.6734375 Z"></path>
        </g>
        <g id="notifications-24px" transform="translate(1.000000, 15.000000)" fill="#51BA6C" fill-rule="nonzero">
            <path d="M6.154,15.0000003 C7.00227459,14.9974272 7.68925564,14.3533824 7.692,13.558125 L4.615,13.558125 C4.615,13.9406965 4.777176,14.3075852 5.06582327,14.5780162 C5.35447053,14.8484472 5.7459238,15.0002487 6.154,15.0000003 L6.154,15.0000003 Z M10.769,10.6734375 L10.769,7.066875 C10.9294324,4.96598843 9.47713376,3.05386861 7.307,2.50875 L7.307,2.019375 C7.31937368,1.62543341 7.1022642,1.25634876 6.74027888,1.05595292 C6.37829355,0.855557074 5.92870645,0.855557074 5.56672112,1.05595292 C5.2047358,1.25634876 4.98762632,1.62543341 5,2.019375 L5,2.5096875 C2.82688976,3.05018506 1.37237183,4.96483293 1.538,7.066875 L1.538,10.6725 L0,12.1153125 L0,12.83625 L12.308,12.83625 L12.308,12.1153125 L10.769,10.6734375 Z"></path>
        </g>
    </g>
</svg>