<?xml version="1.0" encoding="UTF-8"?>
<svg width="45px" height="45px" viewBox="0 0 45 45" version="1.1" xmlns="http://www.w3.org/2000/svg" xmlns:xlink="http://www.w3.org/1999/xlink">
    <!-- Generator: Sketch 62 (91390) - https://sketch.com -->
    <title>Artboard</title>
    <desc>Created with Sketch.</desc>
    <g id="Artboard" stroke="none" stroke-width="1" fill="none" fill-rule="evenodd">
        <g id="own-boss-ic" transform="translate(13.000000, 0.000000)" fill="#51BA6C" fill-rule="nonzero">
            <path d="M14.873,29.148 L17.384,27.803 C18.5009746,27.2075874 18.984799,25.8624778 18.503,24.692 L11.615,7.861 C11.6665643,7.75302187 11.7071029,7.64011679 11.736,7.524 L13.036,2.194 C13.1654477,1.66608734 13.0454464,1.10796818 12.7104563,0.679914359 C12.3754661,0.251860542 11.8625503,0.00123189471 11.319,0 L4.737,0 C4.1927473,0 3.67868559,0.25011652 3.34277945,0.678343175 C3.0068733,1.10656983 2.88638677,1.66540619 3.016,2.194 L4.316,7.524 C4.34906932,7.65853542 4.39773205,7.78875015 4.461,7.912 C4.461,7.94 4.461,7.968 4.461,7.996 C4.461,8.4814583 4.8545417,8.875 5.34,8.875 L9.962,8.875 L14.293,36.914 C14.3120443,37.0366495 14.2715709,37.1610402 14.184,37.249 L8.303,43.13 C8.15075788,43.2819426 7.90424212,43.2819426 7.752,43.13 L1.871,37.249 C1.78342907,37.1610402 1.74295567,37.0366495 1.762,36.914 L5.122,15.162 C5.18418388,14.6883281 4.85666162,14.2517128 4.38451214,14.1788653 C3.91236266,14.1060179 3.46847403,14.423613 3.385,14.894 L0.025,36.646 C-0.0792967546,37.321684 0.143370796,38.0067578 0.625,38.492 L6.506,44.373 C7.34510308,45.2095923 8.70289692,45.2095923 9.542,44.373 L15.423,38.492 C15.9046292,38.0067578 16.1272968,37.321684 16.023,36.646 L14.873,29.148 Z M16.553,26.253 L14.588,27.306 L12.717,15.2 L16.875,25.361 C17.0115739,25.6969272 16.8726528,26.0817645 16.553,26.253 L16.553,26.253 Z M6.028,7.106 L4.728,1.776 C4.72670256,1.77166282 4.72758244,1.76696597 4.7303618,1.76339251 C4.73314115,1.75981905 4.73747691,1.7578101 4.742,1.758 L11.324,1.758 C11.3285588,1.75751217 11.332942,1.75990304 11.335,1.764 C11.3373739,1.76764778 11.3373739,1.77235222 11.335,1.776 L10.035,7.106 C10.0335662,7.11254402 10.0276974,7.11715522 10.021,7.1170038 L6.042,7.1170038 C6.03542653,7.11679886 6.02975067,7.11233926 6.028,7.106 L6.028,7.106 Z" id="XMLID_1093_"></path>
            <path d="M5.485,12.218 C5.80505189,11.8979054 5.85448413,11.3963282 5.60307568,11.0199142 C5.35166722,10.6435001 4.86940905,10.497041 4.45113588,10.6700767 C4.03286272,10.8431123 3.7950199,11.2874702 3.8830157,11.7314866 C3.9710115,12.1755029 4.36034828,12.4955655 4.813,12.496 C5.06487578,12.4954772 5.30636859,12.3955739 5.485,12.218 L5.485,12.218 Z" id="XMLID_1150_"></path>
        </g>
    </g>
</svg>