<svg xmlns="http://www.w3.org/2000/svg" width="12.255" height="15" viewBox="0 0 12.255 15">
  <path id="Path_898" data-name="Path 898" d="M252.471,264.116a6.091,6.091,0,0,0-2.545,1.315l-.022.019c-.1.092-.209.186-.309.286a6.128,6.128,0,0,0,0,8.666h0l.006.006a6.126,6.126,0,0,0,8.535.112c.041-.039.084-.078.124-.118h0c.092-.092.179-.186.263-.283l.071-.082q.1-.116.191-.236l.052-.068q.117-.156.223-.318l.013-.022c.067-.1.13-.209.19-.315l.028-.05a6.121,6.121,0,0,0-1.033-7.292l-4.541-4.54A3.713,3.713,0,0,0,252.471,264.116Zm3.7,8.2a3.176,3.176,0,1,1,0-4.491A3.178,3.178,0,0,1,256.174,272.314Z" transform="translate(-247.801 -261.195)" fill="#51ba6c"/>
</svg>
