<svg id="Group_323" data-name="Group 323" xmlns="http://www.w3.org/2000/svg" width="49.004" height="15.042" viewBox="0 0 49.004 15.042">
  <path id="Path_229" data-name="Path 229" d="M61.9,15.467,64.384.9h3.963L65.863,15.467Z" transform="translate(-44.626 -0.649)" fill="#152c53"/>
  <path id="Path_230" data-name="Path 230" d="M96.916.614A9.881,9.881,0,0,0,93.372,0c-3.935,0-6.7,1.981-6.7,4.8-.028,2.093,1.981,3.265,3.488,3.963,1.535.726,2.065,1.172,2.065,1.814C92.228,11.553,91,12,89.856,12a8.536,8.536,0,0,1-3.739-.753L85.558,11,85,14.26a12.54,12.54,0,0,0,4.437.781c4.186,0,6.893-1.953,6.921-4.967.028-1.646-1.033-2.93-3.321-3.963C91.642,5.442,90.8,5,90.8,4.3c0-.614.726-1.256,2.26-1.256a6.872,6.872,0,0,1,2.958.558l.363.167.53-3.153" transform="translate(-61.28)" fill="#152c53"/>
  <path id="Path_231" data-name="Path 231" d="M135.651,1h-3.07a1.989,1.989,0,0,0-2.093,1.2L124.6,15.539h4.158s.67-1.786.837-2.177h5.079c.112.5.474,2.177.474,2.177h3.684L135.651,1m-4.884,9.377c.335-.837,1.591-4.074,1.591-4.074-.028.028.335-.837.53-1.4l.279,1.256s.753,3.488.921,4.214Z" transform="translate(-89.829 -0.721)" fill="#152c53"/>
  <path id="Path_232" data-name="Path 232" d="M24.7.9l-3.907,9.935L20.37,8.825A11.262,11.262,0,0,0,14.9,2.714l3.544,12.753h4.214L28.909.9H24.7" transform="translate(-10.742 -0.649)" fill="#152c53"/>
  <path id="Path_233" data-name="Path 233" d="M6.446.9H.056L0,1.207c5,1.2,8.288,4.13,9.656,7.618l-1.4-6.7A1.679,1.679,0,0,0,6.446.9" transform="translate(0 -0.649)" fill="#bce0fd"/>
</svg>
