<?xml version="1.0" encoding="UTF-8"?>
<svg width="15px" height="30px" viewBox="0 0 15 30" version="1.1" xmlns="http://www.w3.org/2000/svg" xmlns:xlink="http://www.w3.org/1999/xlink">
    <!-- Generator: Sketch 62 (91390) - https://sketch.com -->
    <title>Artboard</title>
    <desc>Created with Sketch.</desc>
    <g id="Artboard" stroke="none" stroke-width="1" fill="none" fill-rule="evenodd">
        <g id="Path-569" opacity="0.5" transform="translate(0.000000, 12.000000)" fill="#152C53" fill-rule="nonzero">
            <path d="M12.134768,-3.29393776 L14.348768,2.39106224 C14.3975069,2.47966131 14.3995438,2.59596427 14.3539536,2.68714471 C14.3083634,2.77832515 14.2238372,2.82700069 14.138768,2.81106224 L0.248018028,2.81106224 C0.162948853,2.82700069 0.0784226799,2.77832515 0.0328324606,2.68714471 C-0.0127577588,2.59596427 -0.010720837,2.47966131 0.0380180278,2.39106224 L2.25426803,-3.29393776 C2.2971136,-3.39003994 2.37638582,-3.45197136 2.46426803,-3.45800026 L4.36026803,-3.45800026 C4.42686747,-3.45301304 4.48952348,-3.41686534 4.53576803,-3.35675026 C4.66476803,-3.16925026 4.79601803,-2.98925026 4.92651803,-2.80925026 C5.05701803,-2.62925026 5.17551803,-2.46518776 5.30151803,-2.28800026 L3.05151803,-2.28800026 C2.96363582,-2.28197136 2.8843636,-2.22003994 2.84151803,-2.12393776 L1.37001803,1.64199974 L13.016018,1.64199974 L11.549768,-2.12393776 C11.5069225,-2.22003994 11.4276502,-2.28197136 11.339768,-2.28800026 L9.07926803,-2.28800026 C9.20301803,-2.46518776 9.32826803,-2.63768776 9.45426803,-2.80925026 C9.58026803,-2.98081276 9.71751803,-3.17112526 9.84651803,-3.35675026 C9.89276257,-3.41686534 9.95541858,-3.45301304 10.022018,-3.45800026 L11.924768,-3.45800026 C12.0126502,-3.45197136 12.0919225,-3.39003994 12.134768,-3.29393776 L12.134768,-3.29393776 Z M10.448768,-7.17893776 C10.448768,-4.07206276 8.37951803,-3.48987526 7.40676803,-0.504875262 C7.37129947,-0.394941487 7.28597286,-0.322950749 7.19114303,-0.322950749 C7.0963132,-0.322950749 7.01098658,-0.394941487 6.97551803,-0.504875262 C6.09801803,-3.19643776 4.32876803,-3.93425026 3.99051803,-6.33237526 C3.82045091,-7.46556869 4.03427698,-8.63616384 4.58096445,-9.56478609 C5.12765192,-10.4934083 5.9581559,-11.0967483 6.87426803,-11.2308128 C7.78874411,-11.3421202 8.69830701,-10.9655868 9.37886239,-10.1939812 C10.0594178,-9.42237567 10.4476899,-8.32743922 10.448018,-7.17893776 L10.448768,-7.17893776 Z M8.91126803,-7.17893776 C8.91126803,-8.36669515 8.14097394,-9.32956276 7.19076803,-9.32956276 C6.24056212,-9.32956276 5.47026803,-8.36669515 5.47026803,-7.17893776 C5.47026803,-5.99118037 6.24056212,-5.02831276 7.19076803,-5.02831276 C8.14097394,-5.02831276 8.91126803,-5.99118037 8.91126803,-7.17893776 L8.91126803,-7.17893776 Z" id="Path_569"></path>
        </g>
        <g id="Path-569" transform="translate(0.000000, 15.000000)" fill="#51BA6C" fill-rule="nonzero">
            <path d="M12.13125,8.488 L14.34525,14.552 C14.3939889,14.6465057 14.3960258,14.7705622 14.3504356,14.8678213 C14.3048453,14.9650804 14.2203192,15.017001 14.13525,15 L0.2445,15 C0.159430826,15.017001 0.0749046521,14.9650804 0.0293144328,14.8678213 C-0.0162757865,14.7705622 -0.0142388648,14.6465057 0.0345,14.552 L2.25075,8.488 C2.29359557,8.38549101 2.37286779,8.31943083 2.46075,8.313 L4.35675,8.313 C4.42334945,8.3183197 4.48600546,8.35687725 4.53225,8.421 C4.66125,8.621 4.7925,8.813 4.923,9.005 C5.0535,9.197 5.172,9.372 5.298,9.561 L3.048,9.561 C2.96011779,9.56743083 2.88084557,9.63349101 2.838,9.736 L1.3665,13.753 L13.0125,13.753 L11.54625,9.736 C11.5034044,9.63349101 11.4241322,9.56743083 11.33625,9.561 L9.07575,9.561 C9.1995,9.372 9.32475,9.188 9.45075,9.005 C9.57675,8.822 9.714,8.619 9.843,8.421 C9.88924454,8.35687725 9.95190055,8.3183197 10.0185,8.313 L11.92125,8.313 C12.0091322,8.31943083 12.0884044,8.38549101 12.13125,8.488 L12.13125,8.488 Z M10.44525,4.344 C10.44525,7.658 8.376,8.279 7.40325,11.463 C7.36778145,11.5802627 7.28245483,11.6570528 7.187625,11.6570528 C7.09279517,11.6570528 7.00746855,11.5802627 6.972,11.463 C6.0945,8.592 4.32525,7.805 3.987,5.247 C3.81693288,4.03826034 4.03075896,2.78962552 4.57744643,1.79909512 C5.12413389,0.808564725 5.95463787,0.165002058 6.87075,0.022 C7.78522608,-0.096727922 8.69478898,0.304907738 9.37534436,1.12795365 C10.0558997,1.95099956 10.4441719,3.11893178 10.4445,4.344 L10.44525,4.344 Z M8.90775,4.344 C8.90775,3.07705878 8.13745591,2.05 7.18725,2.05 C6.23704409,2.05 5.46675,3.07705878 5.46675,4.344 C5.46675,5.61094122 6.23704409,6.638 7.18725,6.638 C8.13745591,6.638 8.90775,5.61094122 8.90775,4.344 L8.90775,4.344 Z" id="Path_569"></path>
        </g>
    </g>
</svg>