<?xml version="1.0" standalone="no"?>
<!DOCTYPE svg PUBLIC "-//W3C//DTD SVG 20010904//EN"
 "http://www.w3.org/TR/2001/REC-SVG-20010904/DTD/svg10.dtd">
<svg version="1.0" xmlns="http://www.w3.org/2000/svg"
 width="704.000000pt" height="704.000000pt" viewBox="0 0 704.000000 704.000000"
 preserveAspectRatio="xMidYMid meet">
<metadata>
Created by potrace 1.11, written by Peter Selinger 2001-2013
</metadata>
<g transform="translate(0.000000,704.000000) scale(0.100000,-0.100000)"
fill="#000000" stroke="none">
<path d="M3417 6630 c-37 -38 -74 -82 -84 -97 -10 -16 -20 -30 -23 -33 -28
-25 -130 -225 -130 -254 0 -8 -4 -17 -9 -21 -5 -3 -17 -38 -26 -78 -30 -130
-34 -159 -36 -264 0 -52 -4 -73 -13 -73 -45 0 -392 -133 -416 -160 -3 -3 -30
-18 -60 -34 -82 -44 -233 -152 -301 -216 -8 -8 -31 -29 -50 -46 -39 -35 -119
-122 -164 -178 -16 -21 -34 -43 -40 -50 -54 -62 -205 -322 -205 -352 0 -8 -4
-14 -10 -14 -5 0 -10 -5 -10 -11 0 -6 -15 -52 -34 -103 -74 -197 -107 -377
-111 -611 -2 -151 10 -310 29 -372 3 -10 8 -34 10 -53 13 -103 122 -393 188
-501 15 -25 28 -51 28 -56 0 -5 9 -18 20 -28 11 -10 20 -23 20 -29 0 -7 13
-27 30 -46 16 -19 29 -40 30 -47 0 -6 3 -13 8 -15 4 -1 25 -25 47 -53 103
-131 278 -288 435 -391 80 -53 280 -159 280 -149 0 3 12 0 28 -8 47 -25 75
-36 147 -57 39 -11 84 -25 102 -31 17 -5 44 -12 60 -14 15 -2 53 -9 83 -15
142 -28 462 -32 586 -6 12 2 38 7 58 10 20 3 55 11 78 16 24 6 54 13 68 16 14
2 42 11 63 19 20 8 37 13 37 10 0 -6 58 17 175 71 33 15 65 28 70 29 34 8 297
177 341 219 6 6 34 30 62 54 106 90 256 262 334 384 51 79 129 229 153 293 10
28 21 55 25 60 7 11 57 165 65 203 3 12 7 32 10 45 3 12 8 36 10 52 3 17 8 38
11 48 3 10 7 42 9 70 2 29 5 52 6 52 8 0 12 302 5 350 -3 17 -8 55 -11 85 -15
133 -62 308 -124 464 -37 91 -101 219 -113 224 -4 2 -8 8 -8 13 0 9 -87 147
-100 159 -3 3 -23 28 -45 55 -22 28 -55 67 -75 89 -44 49 -1440 1446 -1444
1446 -2 0 -33 -31 -69 -70z m288 -1673 c66 -11 155 -37 200 -56 11 -5 38 -17
60 -26 38 -17 160 -92 191 -118 140 -117 251 -276 304 -437 21 -62 24 -74 35
-130 3 -14 7 -36 11 -50 6 -26 6 -212 0 -266 -1 -17 -6 -36 -10 -43 -5 -7 -5
-15 -2 -18 3 -3 -1 -21 -9 -39 -8 -19 -12 -34 -10 -34 3 0 -7 -30 -21 -67 -70
-188 -197 -352 -356 -461 -54 -37 -223 -120 -253 -125 -11 -1 -24 -5 -30 -9
-5 -3 -28 -9 -50 -13 -22 -4 -51 -9 -65 -12 -48 -9 -243 -10 -289 -1 -25 5
-59 11 -75 14 -16 3 -33 7 -38 10 -5 3 -20 7 -33 10 -14 2 -50 16 -80 29 -29
14 -56 25 -59 25 -6 0 -133 79 -161 100 -28 21 -168 162 -180 181 -5 9 -23 36
-39 60 -101 152 -154 331 -154 523 -1 88 3 123 23 225 29 149 156 372 270 473
60 53 90 76 145 112 55 36 85 52 110 61 3 1 27 11 54 24 46 20 113 39 216 60
40 8 245 7 295 -2z"/>
<path d="M4 3017 c2 -6 10 -34 17 -62 6 -27 15 -54 19 -60 4 -5 11 -26 15 -45
4 -19 10 -39 14 -45 3 -5 6 -12 6 -15 1 -10 28 -85 34 -95 3 -5 6 -12 7 -15 2
-9 16 -44 35 -87 10 -24 19 -45 19 -48 0 -3 22 -50 49 -105 27 -54 47 -101 45
-103 -3 -2 2 -10 11 -17 8 -7 15 -17 15 -22 0 -14 111 -204 191 -324 62 -94
197 -273 271 -359 101 -119 292 -309 397 -395 23 -19 55 -46 70 -60 16 -14 45
-37 65 -50 20 -14 36 -28 36 -32 0 -5 5 -8 11 -8 6 0 18 -7 26 -16 40 -40 418
-276 434 -271 4 1 15 -5 25 -14 23 -19 176 -93 299 -144 50 -20 99 -41 110
-45 68 -29 348 -117 428 -135 99 -22 249 -51 307 -60 14 -2 45 -7 70 -10 49
-8 64 -10 190 -22 167 -16 581 -8 725 13 22 3 49 7 60 8 67 8 144 21 245 43
63 14 124 27 135 29 81 14 363 106 505 165 122 49 340 153 354 166 4 5 11 8
14 8 16 1 322 189 363 223 8 7 52 40 99 74 47 35 87 65 90 68 3 3 23 20 45 39
137 116 295 268 377 362 26 30 59 68 73 84 15 17 38 46 53 65 15 19 30 37 33
40 43 37 328 474 327 504 0 5 5 12 10 15 5 3 26 42 47 86 21 44 41 82 44 85 3
3 11 19 17 35 7 17 31 75 54 130 42 100 109 285 115 318 2 9 7 22 10 27 3 5 8
19 10 31 2 11 7 29 10 39 6 18 0 18 -77 14 -45 -2 -89 -6 -98 -8 -8 -3 -40 -8
-70 -11 -61 -7 -177 -29 -228 -44 -18 -5 -33 -10 -35 -10 -1 0 -9 -2 -17 -5
-8 -2 -33 -10 -55 -16 -124 -36 -276 -107 -385 -178 -111 -74 -146 -110 -219
-227 -116 -183 -223 -317 -386 -480 -115 -115 -165 -158 -296 -256 -52 -38
-99 -73 -105 -78 -67 -53 -436 -251 -468 -251 -9 0 -16 -5 -16 -12 0 -6 -3 -9
-6 -6 -3 4 -36 -6 -72 -21 -64 -26 -162 -59 -227 -76 -16 -5 -32 -9 -35 -10
-35 -11 -90 -25 -110 -29 -14 -3 -36 -7 -50 -11 -14 -3 -38 -7 -55 -10 -16 -2
-39 -6 -51 -9 -12 -2 -45 -7 -75 -11 -30 -3 -61 -8 -69 -10 -24 -7 -226 -17
-320 -17 -124 1 -315 15 -375 28 -16 3 -37 6 -45 6 -8 0 -31 4 -50 8 -19 5
-55 12 -80 15 -24 4 -48 9 -53 12 -4 3 -20 7 -35 9 -50 8 -321 95 -387 124
-116 51 -150 66 -210 97 -200 102 -372 217 -563 376 -65 55 -237 231 -308 317
-86 103 -214 282 -214 299 0 6 -4 11 -8 11 -5 0 -18 19 -30 43 -11 23 -40 58
-63 76 -23 19 -47 40 -53 46 -51 49 -238 150 -359 194 -74 27 -189 62 -202 62
-2 0 -19 5 -37 10 -18 5 -60 14 -93 19 -33 5 -71 12 -84 15 -29 5 -112 14
-198 20 -47 4 -61 2 -59 -8z"/>
</g>
</svg>
