<?xml version="1.0" encoding="UTF-8"?>
<svg width="68px" height="62px" viewBox="0 0 68 62" version="1.1" xmlns="http://www.w3.org/2000/svg" xmlns:xlink="http://www.w3.org/1999/xlink">
    <!-- Generator: Sketch 62 (91390) - https://sketch.com -->
    <title>Group 23</title>
    <desc>Created with Sketch.</desc>
    <defs>
        <linearGradient x1="50%" y1="39.5522624%" x2="50%" y2="100%" id="linearGradient-1">
            <stop stop-color="#FC550A" offset="0%"></stop>
            <stop stop-color="#FD8E04" offset="100%"></stop>
        </linearGradient>
        <linearGradient x1="50%" y1="39.5522624%" x2="50%" y2="100%" id="linearGradient-2">
            <stop stop-color="#FC550A" offset="0%"></stop>
            <stop stop-color="#FD8E04" offset="100%"></stop>
        </linearGradient>
        <linearGradient x1="50%" y1="39.5522624%" x2="50%" y2="100%" id="linearGradient-3">
            <stop stop-color="#FC550A" offset="0%"></stop>
            <stop stop-color="#FD8E04" offset="100%"></stop>
        </linearGradient>
    </defs>
    <g id="Final-pages" stroke="none" stroke-width="1" fill="none" fill-rule="evenodd">
        <g id="unlockgates-2" transform="translate(-767.000000, -2429.000000)" stroke-width="3.04477612">
            <g id="Group-19" transform="translate(0.000000, 1734.000000)">
                <g id="Group-18-Copy-4" transform="translate(735.000000, 660.000000)">
                    <g id="Group-22" transform="translate(16.000000, 16.000000)">
                        <g id="Group-23" transform="translate(16.000000, 19.000000)">
                            <path d="M65.59671,49.9281702 C66.7683649,51.9638895 66.7683649,54.3945705 65.5968317,56.4300784 C65.0113509,57.4469588 64.1960832,58.2610349 63.2324766,58.8190817 C62.2698965,59.376534 61.1607315,59.6776119 59.991385,59.6776119 L8.008785,59.6776119 C6.83926666,59.6776119 5.73006118,59.3766124 4.76748963,58.819165 C3.8039724,58.2611699 2.98883249,57.4471198 2.40346005,56.4302898 C1.23180514,54.3945705 1.23180514,51.9638895 2.4034547,49.9281795 L28.3947156,4.76978739 C28.9800269,3.75296222 29.7951848,2.93893446 30.7587384,2.38091834 C31.7213329,1.82345762 32.8305857,1.52238806 34.000085,1.52238806 C35.1695843,1.52238806 36.2788371,1.82345762 37.2414316,2.38091834 C38.2049852,2.93893446 39.0201431,3.75296222 39.6054153,4.76971945 L65.59671,49.9281702 Z M64.7852973,55.9509349 C65.78423,54.2153303 65.78423,52.1434697 64.7852973,50.4078651 L38.7939972,5.24906484 C38.2943515,4.38054376 37.594925,3.68886105 36.7724855,3.21257213 C35.9491875,2.73578598 35.0011621,2.47397194 34.000085,2.47397194 C32.9990347,2.47397194 32.0511489,2.73576346 31.2279168,3.21251139 C30.4055834,3.68873892 29.7061721,4.3803367 29.2061727,5.24906507 L3.21487283,50.4078648 C2.21593995,52.1434697 2.21593995,54.2153303 3.2148727,55.9509349 C3.7145152,56.8194505 4.41395187,57.5112324 5.23640131,57.9876076 C6.0597045,58.4644773 7.0077246,58.7263681 8.008785,58.7263681 L59.991385,58.7263681 C60.9924186,58.7263681 61.9402991,58.4644999 62.7635363,57.9876684 C63.5858797,57.5113546 64.2853012,56.8196576 64.7852973,55.9509349 Z" id="Shape" stroke="url(#linearGradient-1)"></path>
                            <path d="M34.4694169,21.4640681 L34.4694169,38.4007519 L33.5304131,38.4007519 L33.5304131,21.4640681 L34.4694169,21.4640681 Z" id="Path" stroke="url(#linearGradient-2)"></path>
                            <path d="M35.1334369,46.58544 C35.1334369,46.9008162 35.0053146,47.1866306 34.7989059,47.3936999 C34.5942507,47.5990102 34.3120032,47.7272919 34.000085,47.7272919 C33.6880295,47.7272919 33.4056633,47.5990255 33.2009353,47.3936686 C32.9945111,47.1866102 32.8663931,46.9008049 32.8663931,46.58544 C32.8663931,46.2700751 32.9945111,45.9842698 33.2009353,45.7772114 C33.4056633,45.5718545 33.6880295,45.4435881 34.000085,45.4435881 C34.3120032,45.4435881 34.5942507,45.5718698 34.7989059,45.7771801 C35.0053146,45.9842494 35.1334369,46.2700638 35.1334369,46.58544 Z" id="Path" stroke="url(#linearGradient-3)"></path>
                        </g>
                    </g>
                </g>
            </g>
        </g>
    </g>
</svg>