<?xml version="1.0" encoding="UTF-8"?>
<svg width="68px" height="55px" viewBox="0 0 68 55" version="1.1" xmlns="http://www.w3.org/2000/svg" xmlns:xlink="http://www.w3.org/1999/xlink">
    <!-- Generator: Sketch 62 (91390) - https://sketch.com -->
    <title>brainstorming</title>
    <desc>Created with Sketch.</desc>
    <defs>
        <linearGradient x1="50%" y1="39.5522624%" x2="50%" y2="100%" id="linearGradient-1">
            <stop stop-color="#FC550A" offset="0%"></stop>
            <stop stop-color="#FD8E04" offset="100%"></stop>
        </linearGradient>
    </defs>
    <g id="Final-pages" stroke="none" stroke-width="1" fill="none" fill-rule="evenodd">
        <g id="unlockgates-2" transform="translate(-182.000000, -2433.000000)" fill="url(#linearGradient-1)">
            <g id="Group-19" transform="translate(0.000000, 1734.000000)">
                <g id="Group-18-Copy-5" transform="translate(150.000000, 660.000000)">
                    <g id="Group-22" transform="translate(16.000000, 16.000000)">
                        <g id="brainstorming" transform="translate(16.000000, 23.000000)">
                            <path d="M55.0664,18.5164 C58.5787121,15.8821659 60.0113329,11.2959666 58.6229696,7.13087679 C57.2346064,2.96578697 53.3367902,0.1564 48.9464,0.1564 C44.5560098,0.1564 40.6581936,2.96578697 39.2698304,7.13087679 C37.8814671,11.2959666 39.3140879,15.8821659 42.8264,18.5164 C42.1601271,18.7022253 41.5060632,18.9293308 40.868,19.1964 C36.9764634,15.5686686 30.9419366,15.5686686 27.0504,19.1964 C26.4123368,18.9293308 25.7582729,18.7022253 25.092,18.5164 C28.6043121,15.8821659 30.0369329,11.2959666 28.6485696,7.13087679 C27.2602064,2.96578697 23.3623902,0.1564 18.972,0.1564 C14.5816098,0.1564 10.6837936,2.96578697 9.29543036,7.13087679 C7.90706709,11.2959666 9.33968787,15.8821659 12.852,18.5164 C5.24548147,20.6756319 -0.00249449608,27.6229525 -8.88889236e-07,35.53 L-8.88889236e-07,36.89 C-8.88889236e-07,37.6411073 0.60889274,38.25 1.36,38.25 L21.352,38.25 C17.3049205,41.6072292 14.9622244,46.591689 14.96,51.85 L14.96,53.21 C14.96,53.9611073 15.5688927,54.57 16.32,54.57 L51.68,54.57 C52.4311073,54.57 53.04,53.9611073 53.04,53.21 L53.04,51.85 C53.0344191,46.5894531 50.6865577,41.6046092 46.6344,38.25 L66.64,38.25 C67.3911073,38.25 67.9999991,37.6411073 67.9999991,36.89 L67.9999991,35.53 C67.992206,27.600024 62.7052745,20.6452908 55.0664,18.5164 Z M41.4664,10.3564 C41.4739115,6.22886044 44.8233794,2.88750994 48.9509251,2.89001236 C53.0784707,2.89251759 56.4238824,6.23792929 56.4263876,10.3654749 C56.4288901,14.4930206 53.0875396,17.8424885 48.96,17.85 C44.8320144,17.842515 41.487485,14.4979856 41.48,10.37 L41.4664,10.3564 Z M34,19.21 C38.1310899,19.21 41.48,22.5589101 41.48,26.69 C41.48,30.8210899 38.1310899,34.17 34,34.17 C29.8689101,34.17 26.52,30.8210899 26.52,26.69 C26.527485,22.5620144 29.8720144,19.217485 34,19.21 Z M11.56,10.37 C11.56,6.23891007 14.9089101,2.89 19.04,2.89 C23.1710899,2.89 26.52,6.23891007 26.52,10.37 C26.52,14.5010899 23.1710899,17.85 19.04,17.85 C14.9120144,17.842515 11.567485,14.4979856 11.56,10.37 L11.56,10.37 Z M2.72,35.53 C2.72,27.2678201 9.41782014,20.57 17.68,20.57 L20.4,20.57 C22.0668203,20.5718497 23.7216125,20.8522451 25.296,21.3996 C22.5490996,25.8749423 23.676613,31.7073153 27.8936,34.8364 C27.1944525,35.0218356 26.5084064,35.2535465 25.84,35.53 L2.72,35.53 Z M50.32,51.85 L17.68,51.85 C17.68,43.5878201 24.3778201,36.89 32.64,36.89 L35.36,36.89 C43.6221799,36.89 50.32,43.5878201 50.32,51.85 L50.32,51.85 Z M42.16,35.53 C41.4960215,35.2541141 40.8145366,35.0224092 40.12,34.8364 C44.336987,31.7073153 45.4645004,25.8749423 42.7176,21.3996 C44.2876745,20.8537369 45.9377458,20.5733627 47.6,20.57 L50.32,20.57 C54.2876387,20.57 58.0927732,22.1461383 60.8983174,24.9516826 C63.7038617,27.7572268 65.28,31.5623613 65.28,35.53 L42.16,35.53 Z" id="Shape"></path>
                        </g>
                    </g>
                </g>
            </g>
        </g>
    </g>
</svg>