<?xml version="1.0" encoding="UTF-8"?>
<svg width="11px" height="22px" viewBox="0 0 11 22" version="1.1" xmlns="http://www.w3.org/2000/svg" xmlns:xlink="http://www.w3.org/1999/xlink">
    <!-- Generator: Sketch 62 (91390) - https://sketch.com -->
    <title>Group 13</title>
    <desc>Created with Sketch.</desc>
    <g id="Final-pages" stroke="none" stroke-width="1" fill="none" fill-rule="evenodd">
        <g id="unlockgates-2" transform="translate(-765.000000, -3153.000000)">
            <g id="Group-12" transform="translate(0.000000, 2626.000000)">
                <g id="Group-34" transform="translate(150.000000, 100.000000)">
                    <g id="Group-29" transform="translate(525.000000, 38.000000)">
                        <g id="Group-26-Copy" transform="translate(80.000000, 356.000000)">
                            <g id="Group-6" transform="translate(0.000000, 28.000000)">
                                <g id="Group-11">
                                    <g id="Group-13">
                                        <rect id="Rectangle-3" fill="#FFFFFF" opacity="0" x="0" y="0" width="31.2941176" height="31.2941176" rx="10"></rect>
                                        <path d="M20.4699302,5.22002712 L17.9679183,5.21568627 C15.1569937,5.21568627 13.3404507,7.23092288 13.3404507,10.350036 L13.3404507,12.717315 L10.8247896,12.717315 C10.6074066,12.717315 10.4313725,12.907878 10.4313725,13.1429347 L10.4313725,16.5728522 C10.4313725,16.8079089 10.6076073,16.9982549 10.8247896,16.9982549 L13.3404507,16.9982549 L13.3404507,25.6530287 C13.3404507,25.8880854 13.5164848,26.0784314 13.7338677,26.0784314 L17.0160899,26.0784314 C17.2334729,26.0784314 17.4095069,25.8878683 17.4095069,25.6530287 L17.4095069,16.9982549 L20.3509015,16.9982549 C20.5682845,16.9982549 20.7443185,16.8079089 20.7443185,16.5728522 L20.7455229,13.1429347 C20.7455229,13.0300728 20.7039732,12.9219858 20.6303079,12.8421143 C20.5566426,12.7622427 20.4562811,12.717315 20.3519051,12.717315 L17.4095069,12.717315 L17.4095069,10.710543 C17.4095069,9.74600762 17.6220726,9.25636047 18.7840579,9.25636047 L20.4695288,9.25570934 C20.686711,9.25570934 20.8627451,9.06514631 20.8627451,8.83030668 L20.8627451,5.64542978 C20.8627451,5.41080719 20.6869118,5.2204612 20.4699302,5.22002712 Z" id="Shape" fill="#3B5998" fill-rule="nonzero"></path>
                                    </g>
                                </g>
                            </g>
                        </g>
                    </g>
                </g>
            </g>
        </g>
    </g>
</svg>