<?xml version="1.0" encoding="UTF-8"?>
<svg width="22px" height="22px" viewBox="0 0 22 22" version="1.1" xmlns="http://www.w3.org/2000/svg" xmlns:xlink="http://www.w3.org/1999/xlink">
    <!-- Generator: Sketch 62 (91390) - https://sketch.com -->
    <title>Group 14</title>
    <desc>Created with Sketch.</desc>
    <g id="Final-pages" stroke="none" stroke-width="1" fill="none" fill-rule="evenodd">
        <g id="unlockgates-2" transform="translate(-808.000000, -3153.000000)">
            <g id="Group-12" transform="translate(0.000000, 2626.000000)">
                <g id="Group-34" transform="translate(150.000000, 100.000000)">
                    <g id="Group-29" transform="translate(525.000000, 38.000000)">
                        <g id="Group-26-Copy" transform="translate(80.000000, 356.000000)">
                            <g id="Group-6" transform="translate(0.000000, 28.000000)">
                                <g id="Group-11">
                                    <g id="Group-14" transform="translate(48.000000, 0.000000)">
                                        <rect id="Rectangle-3-Copy" fill="#FFFFFF" opacity="0" x="0" y="0" width="31.2941176" height="31.2941176" rx="10"></rect>
                                        <path d="M15.6442551,12.1684536 C13.7288397,12.1684536 12.1657146,13.7316078 12.1657146,15.6470588 C12.1657146,17.5625098 13.7288397,19.125664 15.6442551,19.125664 C17.5596704,19.125664 19.1227955,17.5625098 19.1227955,15.6470588 C19.1227955,13.7316078 17.5596704,12.1684536 15.6442551,12.1684536 Z M26.0772668,15.6470588 C26.0772668,14.2065562 26.0903146,12.7791015 26.0094183,11.3412084 C25.928522,9.67106042 25.5475266,8.18880405 24.3262536,6.9675083 C23.102371,5.74360295 21.6227518,5.36521004 19.9526348,5.28431224 C18.512159,5.20341445 17.0847309,5.21646248 15.6468646,5.21646248 C14.2063888,5.21646248 12.7789607,5.20341445 11.3410944,5.28431224 C9.67097747,5.36521004 8.18874869,5.74621256 6.96747569,6.9675083 C5.74359312,8.19141365 5.36520726,9.67106042 5.28431097,11.3412084 C5.20341468,12.7817111 5.21646247,14.2091658 5.21646247,15.6470588 C5.21646247,17.0849519 5.20341468,18.5150161 5.28431097,19.9529092 C5.36520726,21.6230572 5.74620268,23.1053136 6.96747569,24.3266093 C8.19135825,25.5505147 9.67097747,25.9289076 11.3410944,26.0098054 C12.7815703,26.0907032 14.2089983,26.0776552 15.6468646,26.0776552 C17.0873405,26.0776552 18.5147685,26.0907032 19.9526348,26.0098054 C21.6227518,25.9289076 23.1049805,25.5479051 24.3262536,24.3266093 C25.5501361,23.102704 25.928522,21.6230572 26.0094183,19.9529092 C26.0929241,18.5150161 26.0772668,17.0875615 26.0772668,15.6470588 Z M15.6442551,20.9993613 C12.6824071,20.9993613 10.2920522,18.608962 10.2920522,15.6470588 C10.2920522,12.6851557 12.6824071,10.2947563 15.6442551,10.2947563 C18.6061031,10.2947563 20.9964579,12.6851557 20.9964579,15.6470588 C20.9964579,18.608962 18.6061031,20.9993613 15.6442551,20.9993613 Z M21.2156608,11.325548 C20.524128,11.325548 19.9656826,10.7670951 19.9656826,10.0755494 C19.9656826,9.38400373 20.524128,8.82554798 21.2156608,8.82554798 C21.9071936,8.82554798 22.4656399,9.38400373 22.4656399,10.0755494 C22.4660551,10.4071978 22.334495,10.7253824 22.0999884,10.9598935 C21.8654817,11.1944045 21.547303,11.325967 21.2156608,11.325548 L21.2156608,11.325548 Z" id="Icon-Shape" fill="#C13584" fill-rule="nonzero"></path>
                                    </g>
                                </g>
                            </g>
                        </g>
                    </g>
                </g>
            </g>
        </g>
    </g>
</svg>