<?xml version="1.0" encoding="UTF-8"?>
<svg width="22px" height="22px" viewBox="0 0 22 22" version="1.1" xmlns="http://www.w3.org/2000/svg" xmlns:xlink="http://www.w3.org/1999/xlink">
    <!-- Generator: Sketch 62 (91390) - https://sketch.com -->
    <title>Group 22</title>
    <desc>Created with Sketch.</desc>
    <g id="Final-pages" stroke="none" stroke-width="1" fill="none" fill-rule="evenodd">
        <g id="unlockgates-2" transform="translate(-904.000000, -3153.000000)">
            <g id="Group-12" transform="translate(0.000000, 2626.000000)">
                <g id="Group-34" transform="translate(150.000000, 100.000000)">
                    <g id="Group-29" transform="translate(525.000000, 38.000000)">
                        <g id="Group-26-Copy" transform="translate(80.000000, 356.000000)">
                            <g id="Group-6" transform="translate(0.000000, 28.000000)">
                                <g id="Group-11">
                                    <g id="Group-22" transform="translate(144.000000, 0.000000)">
                                        <rect id="Rectangle-3-Copy" fill="#FFFFFF" opacity="0" x="0" y="0" width="31.2941176" height="31.2941176" rx="10"></rect>
                                        <path d="M9.30400479,5.21568627 C7.05574999,5.21568627 5.21568627,7.05570825 5.21568627,9.30400479 L5.21568627,21.9907808 C5.21568627,24.2390356 7.05570825,26.0784314 9.30400479,26.0784314 L21.9907808,26.0784314 C24.2390564,26.0784314 26.0784314,24.2390564 26.0784314,21.9907808 L26.0784314,9.30400479 C26.0784314,7.05574999 24.2390564,5.21568627 21.9907808,5.21568627 L9.30400479,5.21568627 Z M10.3322781,8.65845884 C11.4102683,8.65845884 12.074265,9.36614034 12.0947611,10.2963785 C12.0947611,11.2060788 11.4102265,11.9336512 10.3114272,11.9336512 L10.2912023,11.9336512 C9.23372922,11.9336512 8.55023822,11.2061206 8.55023822,10.2963785 C8.55023822,9.36616121 9.25441324,8.65845884 10.3322573,8.65845884 L10.3322781,8.65845884 Z M19.6219283,13.0062564 C21.6951099,13.0062564 23.2492499,14.3613206 23.2492499,17.2732381 L23.2492499,22.7092947 L20.0985791,22.7092947 L20.0985791,17.6377026 C20.0985791,16.3632665 19.6425915,15.4937863 18.5023823,15.4937863 C17.631942,15.4937863 17.1131091,16.0798265 16.8853136,16.645955 C16.8020975,16.8484956 16.781643,17.131372 16.781643,17.4147076 L16.781643,22.7092947 L13.6309722,22.7092947 C13.6309722,22.7092947 13.6723194,14.1181633 13.6309722,13.2286044 L16.7822901,13.2286044 L16.7822901,14.5711663 C17.2009797,13.925182 17.949904,13.0062564 19.6219283,13.0062564 L19.6219283,13.0062564 Z M8.73608131,13.2292932 L11.8867521,13.2292932 L11.8867521,22.7093365 L8.73608131,22.7093365 L8.73608131,13.2292932 L8.73608131,13.2292932 Z" id="Icon-Shape" fill="#2867B2" fill-rule="nonzero"></path>
                                    </g>
                                </g>
                            </g>
                        </g>
                    </g>
                </g>
            </g>
        </g>
    </g>
</svg>