<?xml version="1.0" encoding="UTF-8"?>
<svg width="70px" height="70px" viewBox="0 0 70 70" version="1.1" xmlns="http://www.w3.org/2000/svg" xmlns:xlink="http://www.w3.org/1999/xlink">
    <!-- Generator: Sketch 62 (91390) - https://sketch.com -->
    <title>Group 63</title>
    <desc>Created with Sketch.</desc>
    <defs>
        <linearGradient x1="42.5435323%" y1="4.53695297%" x2="38.8877551%" y2="97.0340317%" id="linearGradient-1">
            <stop stop-color="#138808" offset="0%"></stop>
            <stop stop-color="#14BF04" offset="100%"></stop>
        </linearGradient>
        <path d="M26.0954915,17.49188 L30.5043912,17.49188 C31.8826779,17.49188 33,16.3745578 33,14.9962712 L33,3.68913483 C33,2.34874835 31.9411702,1.2477489 30.6018053,1.19542799 L2.59302289,0.101293767 C1.21578663,0.047493452 0.0557022804,1.12035026 0.00190196517,2.49758651 C0.000634109206,2.53004241 8.84200688e-16,2.56251996 0,2.5950006 L0,66.9279878 C-1.6075654e-15,68.3062745 1.11732212,69.4235966 2.4956088,69.4235966 C2.66739295,69.4235966 2.83871804,69.4058597 3.00685888,69.370668 L31.0156413,63.508463 C32.1718313,63.2664738 33,62.2470254 33,61.0657828 L33,29.3918103 C33,28.0135236 31.8826779,26.8962015 30.5043912,26.8962015 L18.9956088,26.8962015 C17.6173221,26.8962015 16.5,28.0135236 16.5,29.3918103 L16.5,33.9510748 C16.5,35.3293615 17.6173221,36.4466836 18.9956088,36.4466836 L22.3520783,36.4466836 C23.0412217,36.4466836 23.5998827,37.0053447 23.5998827,37.694488 L23.5998827,56.3716883 C23.5998827,56.9731658 23.1707993,57.4890454 22.5793858,57.5986141 L10.7582718,59.7886627 C10.0806593,59.9142012 9.42957685,59.4666568 9.30403841,58.7890443 C9.29014864,58.7140722 9.2831599,58.6379848 9.2831599,58.5617368 L9.2831599,11.7854199 C9.2831599,11.0962766 9.84182096,10.5376155 10.5309643,10.5376155 L22.3520783,10.5376155 C23.0412217,10.5376155 23.5998827,11.0962766 23.5998827,11.7854199 L23.5998827,14.9962712 C23.5998827,16.3745578 24.7172049,17.49188 26.0954915,17.49188 Z" id="path-2"></path>
        <linearGradient x1="50%" y1="39.5522624%" x2="50%" y2="100%" id="linearGradient-4">
            <stop stop-color="#FC550A" offset="0%"></stop>
            <stop stop-color="#FD8E04" offset="100%"></stop>
        </linearGradient>
        <path d="M9.63140801,4.68690381 L9.63140801,56.4136797 C9.63140801,57.0177595 10.0641221,57.5350877 10.6586938,57.6418439 L22.1189765,59.6995539 C22.7972728,59.8213429 23.4458702,59.3702046 23.5676593,58.6919083 C23.5807269,58.6191292 23.5872995,58.5453326 23.5872995,58.4713896 L23.5872995,3.46623086 C23.5872995,2.21880032 24.5083907,1.16296348 25.7442846,0.993702344 L30.1657675,0.388160689 C31.5313073,0.20114397 32.789903,1.15652569 32.9769197,2.52206548 C32.9922887,2.63428549 33,2.74742165 33,2.8606892 L33,66.9374545 C33,68.3157412 31.8826779,69.4330633 30.5043912,69.4330633 C30.3351274,69.4330633 30.1663028,69.4158431 30.0005249,69.3816685 L1.99174248,63.6077542 C0.832053417,63.3686883 -7.43171177e-16,62.3476142 0,61.1635402 L0,6.14167124 C-1.50611332e-15,5.05098082 0.708289185,4.08663901 1.74903029,3.76035148 L6.38922071,2.30558405 C7.7043873,1.89326012 9.10479505,2.62515871 9.51711898,3.9403253 C9.59287044,4.1819455 9.63140801,4.43368729 9.63140801,4.68690381 Z" id="path-5"></path>
    </defs>
    <g id="Final-pages" stroke="none" stroke-width="1" fill="none" fill-rule="evenodd">
        <g id="unlockgates-2" transform="translate(-62.000000, -20.000000)">
            <g id="Group-65">
                <g id="Group-63" transform="translate(62.000000, 20.000000)">
                    <g id="Group-45" transform="translate(37.000000, 0.000000)">
                        <mask id="mask-3" fill="white">
                            <use xlink:href="#path-2"></use>
                        </mask>
                        <use id="Mask" fill="url(#linearGradient-1)" xlink:href="#path-2"></use>
                        <g id="Group-44" mask="url(#mask-3)" fill="#FFFFFF">
                            <g transform="translate(-12.000000, -14.000000)">
                                <polygon id="Rectangle-Copy-5" transform="translate(19.267506, 18.329301) rotate(-32.000000) translate(-19.267506, -18.329301) " points="1.76412007 16.829918 36.7834058 16.6897555 36.7708913 19.8286849 1.75160556 19.9688475"></polygon>
                                <polygon id="Rectangle-Copy-10" transform="translate(17.548269, 12.647680) rotate(-32.000000) translate(-17.548269, -12.647680) " points="-1.98748549 11.1564314 37.0965388 11 37.0840243 14.1389294 -2 14.2953608"></polygon>
                                <polygon id="Rectangle-Copy-6" transform="translate(28.468267, 34.535061) rotate(-32.000000) translate(-28.468267, -34.535061) " points="-1.69834288 33.086361 58.6473906 32.8448309 58.6348761 35.9837603 -1.71085739 36.2252904"></polygon>
                                <polygon id="Rectangle-Copy-8" transform="translate(28.468267, 26.982862) rotate(-32.000000) translate(-28.468267, -26.982862) " points="-1.69834288 25.5341625 58.6473906 25.2926325 58.6348761 28.4315619 -1.71085739 28.6730919"></polygon>
                                <polygon id="Rectangle-Copy-9" transform="translate(28.468267, 19.588001) rotate(-32.000000) translate(-28.468267, -19.588001) " points="-1.69834288 18.1393016 58.6473906 17.8977715 58.6348761 21.0367009 -1.71085739 21.278231"></polygon>
                                <polygon id="Rectangle-Copy-7" transform="translate(29.592383, 42.479924) rotate(-32.000000) translate(-29.592383, -42.479924) " points="-1.90308367 41.036543 61.1003635 40.7843756 61.087849 43.923305 -1.91559818 44.1754724"></polygon>
                                <polygon id="Rectangle-Copy-11" transform="translate(29.592383, 49.954132) rotate(-32.000000) translate(-29.592383, -49.954132) " points="-1.90308367 48.5107514 61.1003635 48.258584 61.087849 51.3975134 -1.91559818 51.6496809"></polygon>
                                <polygon id="Rectangle-Copy-12" transform="translate(29.592383, 57.348993) rotate(-32.000000) translate(-29.592383, -57.348993) " points="-1.90308367 55.9056124 61.1003635 55.653445 61.087849 58.7923744 -1.91559818 59.0445418"></polygon>
                                <polygon id="Rectangle-Copy-13" transform="translate(29.592383, 64.901192) rotate(-32.000000) translate(-29.592383, -64.901192) " points="-1.90308367 63.4578108 61.1003635 63.2056434 61.087849 66.3445729 -1.91559818 66.5967403"></polygon>
                                <polygon id="Rectangle-Copy-14" transform="translate(29.592383, 72.138715) rotate(-32.000000) translate(-29.592383, -72.138715) " points="-1.90308367 70.6953343 61.1003635 70.4431669 61.087849 73.5820964 -1.91559818 73.8342638"></polygon>
                                <polygon id="Rectangle-Copy-15" transform="translate(29.592383, 79.690914) rotate(-32.000000) translate(-29.592383, -79.690914) " points="-1.90308367 78.2475328 61.1003635 77.9953654 61.087849 81.1342948 -1.91559818 81.3864622"></polygon>
                            </g>
                        </g>
                    </g>
                    <g id="Group-41">
                        <mask id="mask-6" fill="white">
                            <use xlink:href="#path-5"></use>
                        </mask>
                        <use id="Mask" fill="url(#linearGradient-4)" xlink:href="#path-5"></use>
                        <g id="Group-62" mask="url(#mask-6)">
                            <g id="star-24px" transform="translate(0.000000, 6.267228)">
                                <g id="Group">
                                    <polygon id="Path" points="0 0 3.76033657 0 3.76033657 3.76033657 0 3.76033657"></polygon>
                                    <polygon id="Path" points="0 0 3.76033657 0 3.76033657 3.76033657 0 3.76033657"></polygon>
                                </g>
                                <polygon id="Path" fill="#FFFFFF" fill-rule="nonzero" points="1.88016829 2.70587553 2.84845495 3.2902945 2.59149862 2.18882925 3.44697519 1.44772958 2.32044103 1.35215436 1.88016829 0.313361381 1.43989555 1.35215436 0.313361381 1.44772958 1.16883795 2.18882925 0.911881619 3.2902945"></polygon>
                            </g>
                            <g id="star-24px-copy-3" transform="translate(0.000000, 15.041346)">
                                <g id="Group">
                                    <polygon id="Path" points="0 0 3.76033657 0 3.76033657 3.76033657 0 3.76033657"></polygon>
                                    <polygon id="Path" points="0 0 3.76033657 0 3.76033657 3.76033657 0 3.76033657"></polygon>
                                </g>
                                <polygon id="Path" fill="#FFFFFF" fill-rule="nonzero" points="1.88016829 2.70587553 2.84845495 3.2902945 2.59149862 2.18882925 3.44697519 1.44772958 2.32044103 1.35215436 1.88016829 0.313361381 1.43989555 1.35215436 0.313361381 1.44772958 1.16883795 2.18882925 0.911881619 3.2902945"></polygon>
                            </g>
                            <g id="star-24px-copy-5" transform="translate(0.000000, 23.815465)">
                                <g id="Group">
                                    <polygon id="Path" points="0 0 3.76033657 0 3.76033657 3.76033657 0 3.76033657"></polygon>
                                    <polygon id="Path" points="0 0 3.76033657 0 3.76033657 3.76033657 0 3.76033657"></polygon>
                                </g>
                                <polygon id="Path" fill="#FFFFFF" fill-rule="nonzero" points="1.88016829 2.70587553 2.84845495 3.2902945 2.59149862 2.18882925 3.44697519 1.44772958 2.32044103 1.35215436 1.88016829 0.313361381 1.43989555 1.35215436 0.313361381 1.44772958 1.16883795 2.18882925 0.911881619 3.2902945"></polygon>
                            </g>
                            <g id="star-24px-copy-6" transform="translate(0.000000, 32.589584)">
                                <g id="Group">
                                    <polygon id="Path" points="0 0 3.76033657 0 3.76033657 3.76033657 0 3.76033657"></polygon>
                                    <polygon id="Path" points="0 0 3.76033657 0 3.76033657 3.76033657 0 3.76033657"></polygon>
                                </g>
                                <polygon id="Path" fill="#FFFFFF" fill-rule="nonzero" points="1.88016829 2.70587553 2.84845495 3.2902945 2.59149862 2.18882925 3.44697519 1.44772958 2.32044103 1.35215436 1.88016829 0.313361381 1.43989555 1.35215436 0.313361381 1.44772958 1.16883795 2.18882925 0.911881619 3.2902945"></polygon>
                            </g>
                            <g id="star-24px-copy-7" transform="translate(0.000000, 41.363702)">
                                <g id="Group">
                                    <polygon id="Path" points="0 0 3.76033657 0 3.76033657 3.76033657 0 3.76033657"></polygon>
                                    <polygon id="Path" points="0 0 3.76033657 0 3.76033657 3.76033657 0 3.76033657"></polygon>
                                </g>
                                <polygon id="Path" fill="#FFFFFF" fill-rule="nonzero" points="1.88016829 2.70587553 2.84845495 3.2902945 2.59149862 2.18882925 3.44697519 1.44772958 2.32044103 1.35215436 1.88016829 0.313361381 1.43989555 1.35215436 0.313361381 1.44772958 1.16883795 2.18882925 0.911881619 3.2902945"></polygon>
                            </g>
                            <g id="star-24px-copy-8" transform="translate(0.000000, 50.137821)">
                                <g id="Group">
                                    <polygon id="Path" points="0 0 3.76033657 0 3.76033657 3.76033657 0 3.76033657"></polygon>
                                    <polygon id="Path" points="0 0 3.76033657 0 3.76033657 3.76033657 0 3.76033657"></polygon>
                                </g>
                                <polygon id="Path" fill="#FFFFFF" fill-rule="nonzero" points="1.88016829 2.70587553 2.84845495 3.2902945 2.59149862 2.18882925 3.44697519 1.44772958 2.32044103 1.35215436 1.88016829 0.313361381 1.43989555 1.35215436 0.313361381 1.44772958 1.16883795 2.18882925 0.911881619 3.2902945"></polygon>
                            </g>
                            <g id="star-24px-copy-9" transform="translate(0.000000, 58.911940)">
                                <g id="Group">
                                    <polygon id="Path" points="0 0 3.76033657 0 3.76033657 3.76033657 0 3.76033657"></polygon>
                                    <polygon id="Path" points="0 0 3.76033657 0 3.76033657 3.76033657 0 3.76033657"></polygon>
                                </g>
                                <polygon id="Path" fill="#FFFFFF" fill-rule="nonzero" points="1.88016829 2.70587553 2.84845495 3.2902945 2.59149862 2.18882925 3.44697519 1.44772958 2.32044103 1.35215436 1.88016829 0.313361381 1.43989555 1.35215436 0.313361381 1.44772958 1.16883795 2.18882925 0.911881619 3.2902945"></polygon>
                            </g>
                            <g id="star-24px-copy-31" transform="translate(8.774119, 58.911940)">
                                <g id="Group">
                                    <polygon id="Path" points="0 0 3.76033657 0 3.76033657 3.76033657 0 3.76033657"></polygon>
                                    <polygon id="Path" points="0 0 3.76033657 0 3.76033657 3.76033657 0 3.76033657"></polygon>
                                </g>
                                <polygon id="Path" fill="#FFFFFF" fill-rule="nonzero" points="1.88016829 2.70587553 2.84845495 3.2902945 2.59149862 2.18882925 3.44697519 1.44772958 2.32044103 1.35215436 1.88016829 0.313361381 1.43989555 1.35215436 0.313361381 1.44772958 1.16883795 2.18882925 0.911881619 3.2902945"></polygon>
                            </g>
                            <g id="star-24px-copy-32" transform="translate(13.161178, 62.045553)">
                                <g id="Group">
                                    <polygon id="Path" points="0 0 3.76033657 0 3.76033657 3.76033657 0 3.76033657"></polygon>
                                    <polygon id="Path" points="0 0 3.76033657 0 3.76033657 3.76033657 0 3.76033657"></polygon>
                                </g>
                                <polygon id="Path" fill="#FFFFFF" fill-rule="nonzero" points="1.88016829 2.70587553 2.84845495 3.2902945 2.59149862 2.18882925 3.44697519 1.44772958 2.32044103 1.35215436 1.88016829 0.313361381 1.43989555 1.35215436 0.313361381 1.44772958 1.16883795 2.18882925 0.911881619 3.2902945"></polygon>
                            </g>
                            <g id="star-24px-copy-34" transform="translate(17.548237, 65.492529)">
                                <g id="Group">
                                    <polygon id="Path" points="0 0 3.76033657 0 3.76033657 3.76033657 0 3.76033657"></polygon>
                                    <polygon id="Path" points="0 0 3.76033657 0 3.76033657 3.76033657 0 3.76033657"></polygon>
                                </g>
                                <polygon id="Path" fill="#FFFFFF" fill-rule="nonzero" points="1.88016829 2.70587553 2.84845495 3.2902945 2.59149862 2.18882925 3.44697519 1.44772958 2.32044103 1.35215436 1.88016829 0.313361381 1.43989555 1.35215436 0.313361381 1.44772958 1.16883795 2.18882925 0.911881619 3.2902945"></polygon>
                            </g>
                            <g id="star-24px-copy-35" transform="translate(21.308574, 62.045553)">
                                <g id="Group">
                                    <polygon id="Path" points="0 0 3.76033657 0 3.76033657 3.76033657 0 3.76033657"></polygon>
                                    <polygon id="Path" points="0 0 3.76033657 0 3.76033657 3.76033657 0 3.76033657"></polygon>
                                </g>
                                <polygon id="Path" fill="#FFFFFF" fill-rule="nonzero" points="1.88016829 2.70587553 2.84845495 3.2902945 2.59149862 2.18882925 3.44697519 1.44772958 2.32044103 1.35215436 1.88016829 0.313361381 1.43989555 1.35215436 0.313361381 1.44772958 1.16883795 2.18882925 0.911881619 3.2902945"></polygon>
                            </g>
                            <g id="star-24px-copy-33" transform="translate(17.548237, 57.658494)">
                                <g id="Group">
                                    <polygon id="Path" points="0 0 3.76033657 0 3.76033657 3.76033657 0 3.76033657"></polygon>
                                    <polygon id="Path" points="0 0 3.76033657 0 3.76033657 3.76033657 0 3.76033657"></polygon>
                                </g>
                                <polygon id="Path" fill="#FFFFFF" fill-rule="nonzero" points="1.88016829 2.70587553 2.84845495 3.2902945 2.59149862 2.18882925 3.44697519 1.44772958 2.32044103 1.35215436 1.88016829 0.313361381 1.43989555 1.35215436 0.313361381 1.44772958 1.16883795 2.18882925 0.911881619 3.2902945"></polygon>
                            </g>
                            <g id="star-24px-copy-2" transform="translate(4.387059, 10.654287)">
                                <g id="Group">
                                    <polygon id="Path" points="0 0 3.76033657 0 3.76033657 3.76033657 0 3.76033657"></polygon>
                                    <polygon id="Path" points="0 0 3.76033657 0 3.76033657 3.76033657 0 3.76033657"></polygon>
                                </g>
                                <polygon id="Path" fill="#FFFFFF" fill-rule="nonzero" points="1.88016829 2.70587553 2.84845495 3.2902945 2.59149862 2.18882925 3.44697519 1.44772958 2.32044103 1.35215436 1.88016829 0.313361381 1.43989555 1.35215436 0.313361381 1.44772958 1.16883795 2.18882925 0.911881619 3.2902945"></polygon>
                            </g>
                            <g id="star-24px-copy-4" transform="translate(4.387059, 19.428406)">
                                <g id="Group">
                                    <polygon id="Path" points="0 0 3.76033657 0 3.76033657 3.76033657 0 3.76033657"></polygon>
                                    <polygon id="Path" points="0 0 3.76033657 0 3.76033657 3.76033657 0 3.76033657"></polygon>
                                </g>
                                <polygon id="Path" fill="#FFFFFF" fill-rule="nonzero" points="1.88016829 2.70587553 2.84845495 3.2902945 2.59149862 2.18882925 3.44697519 1.44772958 2.32044103 1.35215436 1.88016829 0.313361381 1.43989555 1.35215436 0.313361381 1.44772958 1.16883795 2.18882925 0.911881619 3.2902945"></polygon>
                            </g>
                            <g id="star-24px-copy-10" transform="translate(4.387059, 28.202524)">
                                <g id="Group">
                                    <polygon id="Path" points="0 0 3.76033657 0 3.76033657 3.76033657 0 3.76033657"></polygon>
                                    <polygon id="Path" points="0 0 3.76033657 0 3.76033657 3.76033657 0 3.76033657"></polygon>
                                </g>
                                <polygon id="Path" fill="#FFFFFF" fill-rule="nonzero" points="1.88016829 2.70587553 2.84845495 3.2902945 2.59149862 2.18882925 3.44697519 1.44772958 2.32044103 1.35215436 1.88016829 0.313361381 1.43989555 1.35215436 0.313361381 1.44772958 1.16883795 2.18882925 0.911881619 3.2902945"></polygon>
                            </g>
                            <g id="star-24px-copy-11" transform="translate(4.387059, 36.976643)">
                                <g id="Group">
                                    <polygon id="Path" points="0 0 3.76033657 0 3.76033657 3.76033657 0 3.76033657"></polygon>
                                    <polygon id="Path" points="0 0 3.76033657 0 3.76033657 3.76033657 0 3.76033657"></polygon>
                                </g>
                                <polygon id="Path" fill="#FFFFFF" fill-rule="nonzero" points="1.88016829 2.70587553 2.84845495 3.2902945 2.59149862 2.18882925 3.44697519 1.44772958 2.32044103 1.35215436 1.88016829 0.313361381 1.43989555 1.35215436 0.313361381 1.44772958 1.16883795 2.18882925 0.911881619 3.2902945"></polygon>
                            </g>
                            <g id="star-24px-copy-12" transform="translate(4.387059, 45.750762)">
                                <g id="Group">
                                    <polygon id="Path" points="0 0 3.76033657 0 3.76033657 3.76033657 0 3.76033657"></polygon>
                                    <polygon id="Path" points="0 0 3.76033657 0 3.76033657 3.76033657 0 3.76033657"></polygon>
                                </g>
                                <polygon id="Path" fill="#FFFFFF" fill-rule="nonzero" points="1.88016829 2.70587553 2.84845495 3.2902945 2.59149862 2.18882925 3.44697519 1.44772958 2.32044103 1.35215436 1.88016829 0.313361381 1.43989555 1.35215436 0.313361381 1.44772958 1.16883795 2.18882925 0.911881619 3.2902945"></polygon>
                            </g>
                            <g id="star-24px-copy-13" transform="translate(4.387059, 54.524880)">
                                <g id="Group">
                                    <polygon id="Path" points="0 0 3.76033657 0 3.76033657 3.76033657 0 3.76033657"></polygon>
                                    <polygon id="Path" points="0 0 3.76033657 0 3.76033657 3.76033657 0 3.76033657"></polygon>
                                </g>
                                <polygon id="Path" fill="#FFFFFF" fill-rule="nonzero" points="1.88016829 2.70587553 2.84845495 3.2902945 2.59149862 2.18882925 3.44697519 1.44772958 2.32044103 1.35215436 1.88016829 0.313361381 1.43989555 1.35215436 0.313361381 1.44772958 1.16883795 2.18882925 0.911881619 3.2902945"></polygon>
                            </g>
                            <g id="star-24px-copy-14" transform="translate(4.387059, 62.672276)">
                                <g id="Group">
                                    <polygon id="Path" points="0 0 3.76033657 0 3.76033657 3.76033657 0 3.76033657"></polygon>
                                    <polygon id="Path" points="0 0 3.76033657 0 3.76033657 3.76033657 0 3.76033657"></polygon>
                                </g>
                                <polygon id="Path" fill="#FFFFFF" fill-rule="nonzero" points="1.88016829 2.70587553 2.84845495 3.2902945 2.59149862 2.18882925 3.44697519 1.44772958 2.32044103 1.35215436 1.88016829 0.313361381 1.43989555 1.35215436 0.313361381 1.44772958 1.16883795 2.18882925 0.911881619 3.2902945"></polygon>
                            </g>
                            <g id="star-24px-copy" transform="translate(4.387059, 1.880168)">
                                <g id="Group">
                                    <polygon id="Path" points="0 0 3.76033657 0 3.76033657 3.76033657 0 3.76033657"></polygon>
                                    <polygon id="Path" points="0 0 3.76033657 0 3.76033657 3.76033657 0 3.76033657"></polygon>
                                </g>
                                <polygon id="Path" fill="#FFFFFF" fill-rule="nonzero" points="1.88016829 2.70587553 2.84845495 3.2902945 2.59149862 2.18882925 3.44697519 1.44772958 2.32044103 1.35215436 1.88016829 0.313361381 1.43989555 1.35215436 0.313361381 1.44772958 1.16883795 2.18882925 0.911881619 3.2902945"></polygon>
                            </g>
                            <g id="star-24px-copy-29" transform="translate(23.658784, 4.387059)">
                                <g id="Group">
                                    <polygon id="Path" points="0 0 3.76033657 0 3.76033657 3.76033657 0 3.76033657"></polygon>
                                    <polygon id="Path" points="0 0 3.76033657 0 3.76033657 3.76033657 0 3.76033657"></polygon>
                                </g>
                                <polygon id="Path" fill="#FFFFFF" fill-rule="nonzero" points="1.88016829 2.70587553 2.84845495 3.2902945 2.59149862 2.18882925 3.44697519 1.44772958 2.32044103 1.35215436 1.88016829 0.313361381 1.43989555 1.35215436 0.313361381 1.44772958 1.16883795 2.18882925 0.911881619 3.2902945"></polygon>
                            </g>
                            <g id="star-24px-copy-28" transform="translate(23.658784, 13.161178)">
                                <g id="Group">
                                    <polygon id="Path" points="0 0 3.76033657 0 3.76033657 3.76033657 0 3.76033657"></polygon>
                                    <polygon id="Path" points="0 0 3.76033657 0 3.76033657 3.76033657 0 3.76033657"></polygon>
                                </g>
                                <polygon id="Path" fill="#FFFFFF" fill-rule="nonzero" points="1.88016829 2.70587553 2.84845495 3.2902945 2.59149862 2.18882925 3.44697519 1.44772958 2.32044103 1.35215436 1.88016829 0.313361381 1.43989555 1.35215436 0.313361381 1.44772958 1.16883795 2.18882925 0.911881619 3.2902945"></polygon>
                            </g>
                            <g id="star-24px-copy-27" transform="translate(23.658784, 21.935297)">
                                <g id="Group">
                                    <polygon id="Path" points="0 0 3.76033657 0 3.76033657 3.76033657 0 3.76033657"></polygon>
                                    <polygon id="Path" points="0 0 3.76033657 0 3.76033657 3.76033657 0 3.76033657"></polygon>
                                </g>
                                <polygon id="Path" fill="#FFFFFF" fill-rule="nonzero" points="1.88016829 2.70587553 2.84845495 3.2902945 2.59149862 2.18882925 3.44697519 1.44772958 2.32044103 1.35215436 1.88016829 0.313361381 1.43989555 1.35215436 0.313361381 1.44772958 1.16883795 2.18882925 0.911881619 3.2902945"></polygon>
                            </g>
                            <g id="star-24px-copy-26" transform="translate(23.658784, 30.709415)">
                                <g id="Group">
                                    <polygon id="Path" points="0 0 3.76033657 0 3.76033657 3.76033657 0 3.76033657"></polygon>
                                    <polygon id="Path" points="0 0 3.76033657 0 3.76033657 3.76033657 0 3.76033657"></polygon>
                                </g>
                                <polygon id="Path" fill="#FFFFFF" fill-rule="nonzero" points="1.88016829 2.70587553 2.84845495 3.2902945 2.59149862 2.18882925 3.44697519 1.44772958 2.32044103 1.35215436 1.88016829 0.313361381 1.43989555 1.35215436 0.313361381 1.44772958 1.16883795 2.18882925 0.911881619 3.2902945"></polygon>
                            </g>
                            <g id="star-24px-copy-25" transform="translate(23.658784, 39.483534)">
                                <g id="Group">
                                    <polygon id="Path" points="0 0 3.76033657 0 3.76033657 3.76033657 0 3.76033657"></polygon>
                                    <polygon id="Path" points="0 0 3.76033657 0 3.76033657 3.76033657 0 3.76033657"></polygon>
                                </g>
                                <polygon id="Path" fill="#FFFFFF" fill-rule="nonzero" points="1.88016829 2.70587553 2.84845495 3.2902945 2.59149862 2.18882925 3.44697519 1.44772958 2.32044103 1.35215436 1.88016829 0.313361381 1.43989555 1.35215436 0.313361381 1.44772958 1.16883795 2.18882925 0.911881619 3.2902945"></polygon>
                            </g>
                            <g id="star-24px-copy-24" transform="translate(23.658784, 48.257653)">
                                <g id="Group">
                                    <polygon id="Path" points="0 0 3.76033657 0 3.76033657 3.76033657 0 3.76033657"></polygon>
                                    <polygon id="Path" points="0 0 3.76033657 0 3.76033657 3.76033657 0 3.76033657"></polygon>
                                </g>
                                <polygon id="Path" fill="#FFFFFF" fill-rule="nonzero" points="1.88016829 2.70587553 2.84845495 3.2902945 2.59149862 2.18882925 3.44697519 1.44772958 2.32044103 1.35215436 1.88016829 0.313361381 1.43989555 1.35215436 0.313361381 1.44772958 1.16883795 2.18882925 0.911881619 3.2902945"></polygon>
                            </g>
                            <g id="star-24px-copy-23" transform="translate(23.658784, 57.031771)">
                                <g id="Group">
                                    <polygon id="Path" points="0 0 3.76033657 0 3.76033657 3.76033657 0 3.76033657"></polygon>
                                    <polygon id="Path" points="0 0 3.76033657 0 3.76033657 3.76033657 0 3.76033657"></polygon>
                                </g>
                                <polygon id="Path" fill="#FFFFFF" fill-rule="nonzero" points="1.88016829 2.70587553 2.84845495 3.2902945 2.59149862 2.18882925 3.44697519 1.44772958 2.32044103 1.35215436 1.88016829 0.313361381 1.43989555 1.35215436 0.313361381 1.44772958 1.16883795 2.18882925 0.911881619 3.2902945"></polygon>
                            </g>
                            <g id="star-24px-copy-30" transform="translate(25.068910, 66.745974)">
                                <g id="Group">
                                    <polygon id="Path" points="0 0 3.76033657 0 3.76033657 3.76033657 0 3.76033657"></polygon>
                                    <polygon id="Path" points="0 0 3.76033657 0 3.76033657 3.76033657 0 3.76033657"></polygon>
                                </g>
                                <polygon id="Path" fill="#FFFFFF" fill-rule="nonzero" points="1.88016829 2.70587553 2.84845495 3.2902945 2.59149862 2.18882925 3.44697519 1.44772958 2.32044103 1.35215436 1.88016829 0.313361381 1.43989555 1.35215436 0.313361381 1.44772958 1.16883795 2.18882925 0.911881619 3.2902945"></polygon>
                            </g>
                            <g id="star-24px-copy-22" transform="translate(28.045844, 8.774119)">
                                <g id="Group">
                                    <polygon id="Path" points="0 0 3.76033657 0 3.76033657 3.76033657 0 3.76033657"></polygon>
                                    <polygon id="Path" points="0 0 3.76033657 0 3.76033657 3.76033657 0 3.76033657"></polygon>
                                </g>
                                <polygon id="Path" fill="#FFFFFF" fill-rule="nonzero" points="1.88016829 2.70587553 2.84845495 3.2902945 2.59149862 2.18882925 3.44697519 1.44772958 2.32044103 1.35215436 1.88016829 0.313361381 1.43989555 1.35215436 0.313361381 1.44772958 1.16883795 2.18882925 0.911881619 3.2902945"></polygon>
                            </g>
                            <g id="star-24px-copy-21" transform="translate(28.045844, 17.548237)">
                                <g id="Group">
                                    <polygon id="Path" points="0 0 3.76033657 0 3.76033657 3.76033657 0 3.76033657"></polygon>
                                    <polygon id="Path" points="0 0 3.76033657 0 3.76033657 3.76033657 0 3.76033657"></polygon>
                                </g>
                                <polygon id="Path" fill="#FFFFFF" fill-rule="nonzero" points="1.88016829 2.70587553 2.84845495 3.2902945 2.59149862 2.18882925 3.44697519 1.44772958 2.32044103 1.35215436 1.88016829 0.313361381 1.43989555 1.35215436 0.313361381 1.44772958 1.16883795 2.18882925 0.911881619 3.2902945"></polygon>
                            </g>
                            <g id="star-24px-copy-20" transform="translate(28.045844, 26.322356)">
                                <g id="Group">
                                    <polygon id="Path" points="0 0 3.76033657 0 3.76033657 3.76033657 0 3.76033657"></polygon>
                                    <polygon id="Path" points="0 0 3.76033657 0 3.76033657 3.76033657 0 3.76033657"></polygon>
                                </g>
                                <polygon id="Path" fill="#FFFFFF" fill-rule="nonzero" points="1.88016829 2.70587553 2.84845495 3.2902945 2.59149862 2.18882925 3.44697519 1.44772958 2.32044103 1.35215436 1.88016829 0.313361381 1.43989555 1.35215436 0.313361381 1.44772958 1.16883795 2.18882925 0.911881619 3.2902945"></polygon>
                            </g>
                            <g id="star-24px-copy-19" transform="translate(28.045844, 35.096475)">
                                <g id="Group">
                                    <polygon id="Path" points="0 0 3.76033657 0 3.76033657 3.76033657 0 3.76033657"></polygon>
                                    <polygon id="Path" points="0 0 3.76033657 0 3.76033657 3.76033657 0 3.76033657"></polygon>
                                </g>
                                <polygon id="Path" fill="#FFFFFF" fill-rule="nonzero" points="1.88016829 2.70587553 2.84845495 3.2902945 2.59149862 2.18882925 3.44697519 1.44772958 2.32044103 1.35215436 1.88016829 0.313361381 1.43989555 1.35215436 0.313361381 1.44772958 1.16883795 2.18882925 0.911881619 3.2902945"></polygon>
                            </g>
                            <g id="star-24px-copy-18" transform="translate(28.045844, 43.870593)">
                                <g id="Group">
                                    <polygon id="Path" points="0 0 3.76033657 0 3.76033657 3.76033657 0 3.76033657"></polygon>
                                    <polygon id="Path" points="0 0 3.76033657 0 3.76033657 3.76033657 0 3.76033657"></polygon>
                                </g>
                                <polygon id="Path" fill="#FFFFFF" fill-rule="nonzero" points="1.88016829 2.70587553 2.84845495 3.2902945 2.59149862 2.18882925 3.44697519 1.44772958 2.32044103 1.35215436 1.88016829 0.313361381 1.43989555 1.35215436 0.313361381 1.44772958 1.16883795 2.18882925 0.911881619 3.2902945"></polygon>
                            </g>
                            <g id="star-24px-copy-17" transform="translate(28.045844, 52.644712)">
                                <g id="Group">
                                    <polygon id="Path" points="0 0 3.76033657 0 3.76033657 3.76033657 0 3.76033657"></polygon>
                                    <polygon id="Path" points="0 0 3.76033657 0 3.76033657 3.76033657 0 3.76033657"></polygon>
                                </g>
                                <polygon id="Path" fill="#FFFFFF" fill-rule="nonzero" points="1.88016829 2.70587553 2.84845495 3.2902945 2.59149862 2.18882925 3.44697519 1.44772958 2.32044103 1.35215436 1.88016829 0.313361381 1.43989555 1.35215436 0.313361381 1.44772958 1.16883795 2.18882925 0.911881619 3.2902945"></polygon>
                            </g>
                            <g id="star-24px-copy-16" transform="translate(28.045844, 61.418831)">
                                <g id="Group">
                                    <polygon id="Path" points="0 0 3.76033657 0 3.76033657 3.76033657 0 3.76033657"></polygon>
                                    <polygon id="Path" points="0 0 3.76033657 0 3.76033657 3.76033657 0 3.76033657"></polygon>
                                </g>
                                <polygon id="Path" fill="#FFFFFF" fill-rule="nonzero" points="1.88016829 2.70587553 2.84845495 3.2902945 2.59149862 2.18882925 3.44697519 1.44772958 2.32044103 1.35215436 1.88016829 0.313361381 1.43989555 1.35215436 0.313361381 1.44772958 1.16883795 2.18882925 0.911881619 3.2902945"></polygon>
                            </g>
                            <g id="star-24px-copy-15" transform="translate(28.045844, 0.000000)">
                                <g id="Group">
                                    <polygon id="Path" points="0 0 3.76033657 0 3.76033657 3.76033657 0 3.76033657"></polygon>
                                    <polygon id="Path" points="0 0 3.76033657 0 3.76033657 3.76033657 0 3.76033657"></polygon>
                                </g>
                                <polygon id="Path" fill="#FFFFFF" fill-rule="nonzero" points="1.88016829 2.70587553 2.84845495 3.2902945 2.59149862 2.18882925 3.44697519 1.44772958 2.32044103 1.35215436 1.88016829 0.313361381 1.43989555 1.35215436 0.313361381 1.44772958 1.16883795 2.18882925 0.911881619 3.2902945"></polygon>
                            </g>
                        </g>
                    </g>
                    <circle id="Oval" fill="#FFFFFF" cx="35" cy="35" r="5"></circle>
                </g>
            </g>
        </g>
    </g>
</svg>