<?xml version="1.0" encoding="UTF-8"?>
<svg width="68px" height="68px" viewBox="0 0 68 68" version="1.1" xmlns="http://www.w3.org/2000/svg" xmlns:xlink="http://www.w3.org/1999/xlink">
    <!-- Generator: Sketch 62 (91390) - https://sketch.com -->
    <title>Group 21</title>
    <desc>Created with Sketch.</desc>
    <defs>
        <linearGradient x1="50%" y1="39.5522624%" x2="50%" y2="100%" id="linearGradient-1">
            <stop stop-color="#FC550A" offset="0%"></stop>
            <stop stop-color="#FD8E04" offset="100%"></stop>
        </linearGradient>
        <linearGradient x1="50%" y1="39.5522624%" x2="50%" y2="100%" id="linearGradient-2">
            <stop stop-color="#FC550A" offset="0%"></stop>
            <stop stop-color="#FD8E04" offset="100%"></stop>
        </linearGradient>
        <linearGradient x1="50%" y1="39.5522624%" x2="50%" y2="100%" id="linearGradient-3">
            <stop stop-color="#FC550A" offset="0%"></stop>
            <stop stop-color="#FD8E04" offset="100%"></stop>
        </linearGradient>
        <linearGradient x1="50%" y1="39.5522624%" x2="50%" y2="100%" id="linearGradient-4">
            <stop stop-color="#FC550A" offset="0%"></stop>
            <stop stop-color="#FD8E04" offset="100%"></stop>
        </linearGradient>
    </defs>
    <g id="Final-pages" stroke="none" stroke-width="1" fill="none" fill-rule="evenodd">
        <g id="unlockgates-2" transform="translate(-767.000000, -2262.000000)" stroke-width="3.04477612">
            <g id="Group-19" transform="translate(0.000000, 1734.000000)">
                <g id="Group-18-Copy-3" transform="translate(735.000000, 496.000000)">
                    <g id="Group-22" transform="translate(16.000000, 16.000000)">
                        <g id="Group-21" transform="translate(16.000000, 16.000000)">
                            <path d="M1.52238806,62.5331788 L1.52238806,4.96252769 C1.52238806,3.94828122 1.96745922,2.9935578 2.73971987,2.3372345 C3.51246822,1.68049671 4.53184163,1.39956379 5.52892703,1.57237106 L36.667001,6.29026106 C37.5086127,6.43276337 38.2329507,6.85649605 38.7463507,7.45836519 C39.2600211,8.06055144 39.5609453,8.83939553 39.5609453,9.68286102 L39.5609453,65.3665121 L4.95833333,65.9691241 C4.01101238,65.9691241 3.15241168,65.5831628 2.53039161,64.9611427 C1.9083483,64.3390994 1.52238806,63.4804708 1.52238806,62.5331788 Z M38.3724217,64.7639002 L37.7494198,7.66185597 L4.22434511,2.84052282 C3.89672831,2.96041781 3.65190352,3.13902576 3.49721607,3.27496322 C3.20716593,3.52985577 2.72761194,4.07975674 2.72761194,4.96252769 L2.72761194,62.5331788 C2.72761194,63.1488579 2.97724856,63.7066592 3.38105075,64.1104614 C3.78485294,64.5142636 4.34265423,64.7639002 4.95833333,64.7639002 L38.3724217,64.7639002 Z" id="Shape" stroke="url(#linearGradient-1)"></path>
                            <path d="M38.9583333,65.9679907 L38.3557214,27.1153788 C38.3557214,26.9342005 38.4370949,26.7624044 38.5810576,26.6455353 C38.7212314,26.5310369 38.9056204,26.4896111 39.0798977,26.5258737 L63.7682746,31.6974159 C64.5682592,31.8767955 65.2474489,32.3071584 65.7253291,32.8993143 C66.2030751,33.4913039 66.4776119,34.2427778 66.4776119,35.0543788 L66.4776119,62.5320455 C66.4776119,63.4794501 66.0917413,64.338089 65.4697257,64.9601045 C64.8477102,65.5821201 63.9890713,65.9679907 63.0416667,65.9679907 L38.9583333,65.9679907 Z M39.5609453,27.8564094 L39.5609453,64.7627669 L63.0416667,64.7627669 C63.6573458,64.7627669 64.2151471,64.5131302 64.6189493,64.1093281 C65.0268871,63.7013902 65.2774854,63.1362826 65.2723094,62.5131103 L64.696026,33.1214741 L39.5609453,27.8564094 Z" id="Shape" stroke="url(#linearGradient-2)"></path>
                            <path d="M14.875,65.2600352 L14.2723881,52.6157566 C14.2723881,51.6684646 14.6583483,50.8098359 15.2803916,50.1877926 C15.9024117,49.5657726 16.7610124,49.1798113 17.7083333,49.1798113 L24.7916667,49.1798113 C25.7390348,49.1798113 26.5976296,49.5657431 27.2196327,50.1877461 C27.8416822,50.8097957 28.2276119,51.6684463 28.2276119,52.6157566 L28.2276119,64.6574232 L14.875,65.2600352 Z M27.0223881,64.0548113 L27.0223881,52.6157566 C27.0223881,52.0000775 26.7727514,51.4422762 26.3689493,51.038474 C25.9651471,50.6346718 25.4073458,50.3850352 24.7916667,50.3850352 L17.7083333,50.3850352 C17.0926542,50.3850352 16.5348529,50.6346718 16.1310507,51.038474 C15.7272486,51.4422762 15.4776119,52.0000775 15.4776119,52.6157566 L15.4776119,64.0548113 L27.0223881,64.0548113 Z" id="Shape" stroke="url(#linearGradient-3)"></path>
                            <path d="M16.7175507,14.791754 L12.0416667,14.9684819 C11.8753458,14.9684819 11.7248137,14.9007851 11.6157826,14.791754 C11.5067514,14.6827228 11.4390547,14.5321908 11.4390547,14.3658699 C11.4390547,14.199549 11.5067514,14.049017 11.6157826,13.9399858 C11.7248137,13.8309547 11.8753458,13.763258 12.0416667,13.763258 L16.2916667,13.763258 C16.4579876,13.763258 16.6085196,13.8309547 16.7175507,13.9399858 C16.8265819,14.049017 16.8942786,14.199549 16.8942786,14.3658699 C16.8942786,14.5321908 16.8265819,14.6827228 16.7175507,14.791754 Z" id="Path" stroke="url(#linearGradient-4)"></path>
                            <path d="M30.8842174,14.791754 L26.2083333,14.9684819 C26.0420124,14.9684819 25.8914804,14.9007851 25.7824493,14.791754 C25.6734181,14.6827228 25.6057214,14.5321908 25.6057214,14.3658699 C25.6057214,14.199549 25.6734181,14.049017 25.7824493,13.9399858 C25.8914804,13.8309547 26.0420124,13.763258 26.2083333,13.763258 L30.4583333,13.763258 C30.6246542,13.763258 30.7751863,13.8309547 30.8842174,13.9399858 C30.9932486,14.049017 31.0609453,14.199549 31.0609453,14.3658699 C31.0609453,14.5321908 30.9932486,14.6827228 30.8842174,14.791754 Z" id="Path" stroke="url(#linearGradient-4)"></path>
                            <path d="M16.7175507,23.291754 L12.0416667,23.4684819 C11.8753458,23.4684819 11.7248137,23.4007851 11.6157826,23.291754 C11.5067514,23.1827228 11.4390547,23.0321908 11.4390547,22.8658699 C11.4390547,22.699549 11.5067514,22.549017 11.6157826,22.4399858 C11.7248137,22.3309547 11.8753458,22.263258 12.0416667,22.263258 L16.2916667,22.263258 C16.4579876,22.263258 16.6085196,22.3309547 16.7175507,22.4399858 C16.8265819,22.549017 16.8942786,22.699549 16.8942786,22.8658699 C16.8942786,23.0321908 16.8265819,23.1827228 16.7175507,23.291754 Z" id="Path" stroke="url(#linearGradient-4)"></path>
                            <path d="M30.8842174,23.291754 L26.2083333,23.4684819 C26.0420124,23.4684819 25.8914804,23.4007851 25.7824493,23.291754 C25.6734181,23.1827228 25.6057214,23.0321908 25.6057214,22.8658699 C25.6057214,22.699549 25.6734181,22.549017 25.7824493,22.4399858 C25.8914804,22.3309547 26.0420124,22.263258 26.2083333,22.263258 L30.4583333,22.263258 C30.6246542,22.263258 30.7751863,22.3309547 30.8842174,22.4399858 C30.9932486,22.549017 31.0609453,22.699549 31.0609453,22.8658699 C31.0609453,23.0321908 30.9932486,23.1827228 30.8842174,23.291754 Z" id="Path" stroke="url(#linearGradient-4)"></path>
                            <path d="M16.7175507,31.7916407 L12.0416667,31.9683685 C11.8753458,31.9683685 11.7248137,31.9006718 11.6157826,31.7916407 C11.5067514,31.6826095 11.4390547,31.5320775 11.4390547,31.3657566 C11.4390547,31.1994357 11.5067514,31.0489036 11.6157826,30.9398725 C11.7248137,30.8308414 11.8753458,30.7631446 12.0416667,30.7631446 L16.2916667,30.7631446 C16.4579876,30.7631446 16.6085196,30.8308414 16.7175507,30.9398725 C16.8265819,31.0489036 16.8942786,31.1994357 16.8942786,31.3657566 C16.8942786,31.5320775 16.8265819,31.6826095 16.7175507,31.7916407 Z" id="Path" stroke="url(#linearGradient-4)"></path>
                            <path d="M30.8842174,31.7916407 L26.2083333,31.9683685 C26.0420124,31.9683685 25.8914804,31.9006718 25.7824493,31.7916407 C25.6734181,31.6826095 25.6057214,31.5320775 25.6057214,31.3657566 C25.6057214,31.1994357 25.6734181,31.0489036 25.7824493,30.9398725 C25.8914804,30.8308414 26.0420124,30.7631446 26.2083333,30.7631446 L30.4583333,30.7631446 C30.6246542,30.7631446 30.7751863,30.8308414 30.8842174,30.9398725 C30.9932486,31.0489036 31.0609453,31.1994357 31.0609453,31.3657566 C31.0609453,31.5320775 30.9932486,31.6826095 30.8842174,31.7916407 Z" id="Path" stroke="url(#linearGradient-4)"></path>
                            <path d="M16.7175507,40.2916407 L12.0416667,40.4683685 C11.8753458,40.4683685 11.7248137,40.4006718 11.6157826,40.2916407 C11.5067514,40.1826095 11.4390547,40.0320775 11.4390547,39.8657566 C11.4390547,39.6994357 11.5067514,39.5489036 11.6157826,39.4398725 C11.7248137,39.3308414 11.8753458,39.2631446 12.0416667,39.2631446 L16.2916667,39.2631446 C16.4579876,39.2631446 16.6085196,39.3308414 16.7175507,39.4398725 C16.8265819,39.5489036 16.8942786,39.6994357 16.8942786,39.8657566 C16.8942786,40.0320775 16.8265819,40.1826095 16.7175507,40.2916407 Z" id="Path" stroke="url(#linearGradient-4)"></path>
                            <path d="M30.8842174,40.2916407 L26.2083333,40.4683685 C26.0420124,40.4683685 25.8914804,40.4006718 25.7824493,40.2916407 C25.6734181,40.1826095 25.6057214,40.0320775 25.6057214,39.8657566 C25.6057214,39.6994357 25.6734181,39.5489036 25.7824493,39.4398725 C25.8914804,39.3308414 26.0420124,39.2631446 26.2083333,39.2631446 L30.4583333,39.2631446 C30.6246542,39.2631446 30.7751863,39.3308414 30.8842174,39.4398725 C30.9932486,39.5489036 31.0609453,39.6994357 31.0609453,39.8657566 C31.0609453,40.0320775 30.9932486,40.1826095 30.8842174,40.2916407 Z" id="Path" stroke="url(#linearGradient-4)"></path>
                            <path d="M54.9675507,40.2916407 L50.2916667,40.4683685 C50.1253458,40.4683685 49.9748137,40.4006718 49.8657826,40.2916407 C49.7567514,40.1826095 49.6890547,40.0320775 49.6890547,39.8657566 C49.6890547,39.6994357 49.7567514,39.5489036 49.8657826,39.4398725 C49.9748137,39.3308414 50.1253458,39.2631446 50.2916667,39.2631446 L54.5416667,39.2631446 C54.7079876,39.2631446 54.8585196,39.3308414 54.9675507,39.4398725 C55.0765819,39.5489036 55.1442786,39.6994357 55.1442786,39.8657566 C55.1442786,40.0320775 55.0765819,40.1826095 54.9675507,40.2916407 Z" id="Path" stroke="url(#linearGradient-4)"></path>
                            <path d="M54.9675507,48.7916407 L50.2916667,48.9683685 C50.1253458,48.9683685 49.9748137,48.9006718 49.8657826,48.7916407 C49.7567514,48.6826095 49.6890547,48.5320775 49.6890547,48.3657566 C49.6890547,48.1994357 49.7567514,48.0489036 49.8657826,47.9398725 C49.9748137,47.8308414 50.1253458,47.7631446 50.2916667,47.7631446 L54.5416667,47.7631446 C54.7079876,47.7631446 54.8585196,47.8308414 54.9675507,47.9398725 C55.0765819,48.0489036 55.1442786,48.1994357 55.1442786,48.3657566 C55.1442786,48.5320775 55.0765819,48.6826095 54.9675507,48.7916407 Z" id="Path" stroke="url(#linearGradient-4)"></path>
                            <path d="M54.9675507,57.2916407 L50.2916667,57.4683685 C50.1253458,57.4683685 49.9748137,57.4006718 49.8657826,57.2916407 C49.7567514,57.1826095 49.6890547,57.0320775 49.6890547,56.8657566 C49.6890547,56.6994357 49.7567514,56.5489036 49.8657826,56.4398725 C49.9748137,56.3308414 50.1253458,56.2631446 50.2916667,56.2631446 L54.5416667,56.2631446 C54.7079876,56.2631446 54.8585196,56.3308414 54.9675507,56.4398725 C55.0765819,56.5489036 55.1442786,56.6994357 55.1442786,56.8657566 C55.1442786,57.0320775 55.0765819,57.1826095 54.9675507,57.2916407 Z" id="Path" stroke="url(#linearGradient-4)"></path>
                        </g>
                    </g>
                </g>
            </g>
        </g>
    </g>
</svg>