<?xml version="1.0" encoding="UTF-8"?>
<svg width="68px" height="68px" viewBox="0 0 68 68" version="1.1" xmlns="http://www.w3.org/2000/svg" xmlns:xlink="http://www.w3.org/1999/xlink">
    <!-- Generator: Sketch 62 (91390) - https://sketch.com -->
    <title>notice</title>
    <desc>Created with Sketch.</desc>
    <defs>
        <linearGradient x1="50%" y1="39.5522624%" x2="50%" y2="100%" id="linearGradient-1">
            <stop stop-color="#FC550A" offset="0%"></stop>
            <stop stop-color="#FD8E04" offset="100%"></stop>
        </linearGradient>
        <linearGradient x1="50%" y1="39.5522624%" x2="50%" y2="100%" id="linearGradient-2">
            <stop stop-color="#FC550A" offset="0%"></stop>
            <stop stop-color="#FD8E04" offset="100%"></stop>
        </linearGradient>
        <linearGradient x1="50%" y1="39.5522624%" x2="50%" y2="100%" id="linearGradient-3">
            <stop stop-color="#FC550A" offset="0%"></stop>
            <stop stop-color="#FD8E04" offset="100%"></stop>
        </linearGradient>
        <linearGradient x1="50%" y1="39.5522624%" x2="50%" y2="100%" id="linearGradient-4">
            <stop stop-color="#FC550A" offset="0%"></stop>
            <stop stop-color="#FD8E04" offset="100%"></stop>
        </linearGradient>
    </defs>
    <g id="Final-pages" stroke="none" stroke-width="1" fill="none" fill-rule="evenodd">
        <g id="unlockgates-2" transform="translate(-182.000000, -2098.000000)">
            <g id="Group-19" transform="translate(0.000000, 1734.000000)">
                <g id="Group-18" transform="translate(150.000000, 332.000000)">
                    <g id="Group-22" transform="translate(16.000000, 16.000000)">
                        <g id="notice" transform="translate(16.000000, 16.000000)">
                            <path d="M19.7699005,8.781672 C18.2080784,8.781672 16.945629,9.77191837 16.945629,10.9969883 L16.945629,17.6429371 C16.945629,18.868007 18.2080784,19.8582534 19.7699005,19.8582534 C21.3317226,19.8582534 22.594172,18.868007 22.594172,17.6429371 L22.594172,10.9969883 C22.594172,9.77191837 21.3317226,8.781672 19.7699005,8.781672 Z" id="Path" fill="url(#linearGradient-1)"></path>
                            <path d="M48.0126155,8.781672 C46.4507934,8.781672 45.188344,9.77191837 45.188344,10.9969883 L45.188344,17.6429371 C45.188344,18.868007 46.4507934,19.8582534 48.0126155,19.8582534 C49.5744376,19.8582534 50.836887,18.868007 50.836887,17.6429371 L50.836887,10.9969883 C50.836887,9.77191837 49.5744376,8.781672 48.0126155,8.781672 Z" id="Path" fill="url(#linearGradient-1)"></path>
                            <path d="M57.1914979,18.4680171 L57.7873134,65.6643124 C57.7873134,65.8525709 57.698827,66.0311179 57.5461225,66.141317 L33.8913187,58.7517794 L10.7695914,66.2312466 C10.590652,66.2898512 10.3962003,66.2582461 10.2363935,66.141317 C10.083689,66.0311179 9.99520256,65.8525709 9.99520256,65.6643124 L9.99520256,19.0638326 L57.1914979,18.4680171 Z" id="Path" stroke="url(#linearGradient-2)" stroke-width="3.04477612"></path>
                            <path d="M65.6643124,1.52238806 L66.2601279,6.35461087 C66.2601279,7.29757774 65.8759756,8.15223594 65.2568208,8.77139076 C64.6376659,9.39054559 63.7830077,9.77469794 62.8400409,9.77469794 L4.94247512,9.77469794 C3.99950826,9.77469794 3.14485006,9.39054559 2.52569523,8.77139076 C1.90654041,8.15223594 1.52238806,7.29757774 1.52238806,6.35461087 L1.52238806,2.11820362 L65.6643124,1.52238806 Z" id="Path" stroke="url(#linearGradient-3)" stroke-width="3.04477612"></path>
                            <g id="Group" transform="translate(19.769900, 26.742321)" fill="url(#linearGradient-4)">
                                <path d="M26.1245114,3.1330346 L2.11820362,3.1330346 C0.948955224,3.1330346 0,2.45100475 0,1.61064654 C0,0.770288335 0.948955224,0.0882584844 2.11820362,0.0882584844 L26.1245114,0.0882584844 C27.2937598,0.0882584844 28.242715,0.770288335 28.242715,1.61064654 C28.242715,2.45100475 27.2937598,3.1330346 26.1245114,3.1330346 Z" id="Path"></path>
                                <path d="M26.1245114,10.1937134 L2.11820362,10.1937134 C0.948955224,10.1937134 0,9.5116835 0,8.67132529 C0,7.83096708 0.948955224,7.14893723 2.11820362,7.14893723 L26.1245114,7.14893723 C27.2937598,7.14893723 28.242715,7.83096708 28.242715,8.67132529 C28.242715,9.5116835 27.2937598,10.1937134 26.1245114,10.1937134 Z" id="Path"></path>
                                <path d="M26.1245114,17.2543921 L2.11820362,17.2543921 C0.948955224,17.2543921 0,16.5723623 0,15.732004 C0,14.8916458 0.948955224,14.209616 2.11820362,14.209616 L26.1245114,14.209616 C27.2937598,14.209616 28.242715,14.8916458 28.242715,15.732004 C28.242715,16.5723623 27.2937598,17.2543921 26.1245114,17.2543921 Z" id="Path"></path>
                                <path d="M26.1245114,24.3150709 L2.11820362,24.3150709 C0.948955224,24.3150709 0,23.633041 0,22.7926828 C0,21.9523246 0.948955224,21.2702947 2.11820362,21.2702947 L26.1245114,21.2702947 C27.2937598,21.2702947 28.242715,21.9523246 28.242715,22.7926828 C28.242715,23.633041 27.2937598,24.3150709 26.1245114,24.3150709 Z" id="Path"></path>
                            </g>
                        </g>
                    </g>
                </g>
            </g>
        </g>
    </g>
</svg>