<?xml version="1.0" encoding="UTF-8"?>
<svg width="21px" height="19px" viewBox="0 0 21 19" version="1.1" xmlns="http://www.w3.org/2000/svg" xmlns:xlink="http://www.w3.org/1999/xlink">
    <!-- Generator: Sketch 62 (91390) - https://sketch.com -->
    <title>twitter-logo-silhouette</title>
    <desc>Created with Sketch.</desc>
    <g id="Final-pages" stroke="none" stroke-width="1" fill="none" fill-rule="evenodd">
        <g id="unlockgates-2" transform="translate(-857.000000, -3155.000000)" fill="#1DA1F2" fill-rule="nonzero">
            <g id="Group-12" transform="translate(0.000000, 2626.000000)">
                <g id="Group-34" transform="translate(150.000000, 100.000000)">
                    <g id="Group-29" transform="translate(525.000000, 38.000000)">
                        <g id="Group-26-Copy" transform="translate(80.000000, 356.000000)">
                            <g id="Group-6" transform="translate(0.000000, 28.000000)">
                                <g id="Group-11">
                                    <g id="twitter-logo-silhouette" transform="translate(96.000000, 0.000000)">
                                        <path d="M26.4876847,9.87225638 C25.7316306,10.2199168 24.9203955,10.4556962 24.0680431,10.5609591 C24.9383528,10.0201192 25.6045531,9.16227114 25.9203001,8.14321957 C25.1039295,8.64407213 24.2028071,9.00775539 23.2426436,9.20490579 C22.4737676,8.35371071 21.3801157,7.82352941 20.1670727,7.82352941 C17.8398695,7.82352941 15.9529398,9.7816926 15.9529398,12.1954265 C15.9529398,12.5377576 15.9901635,12.8721121 16.0620599,13.1918371 C12.5603464,13.0093162 9.45527184,11.2682971 7.37708815,8.62275481 C7.01381299,9.26749929 6.80715261,10.0187607 6.80715261,10.820703 C6.80715261,12.3379599 7.55166028,13.6767017 8.68126044,14.4599391 C7.99065834,14.4359745 7.34113992,14.2388241 6.77251342,13.9111225 L6.77251342,13.9657395 C6.77251342,16.0837477 8.22558053,17.8514135 10.1522849,18.2537257 C9.79928063,18.3523009 9.42704358,18.4069178 9.04195109,18.4069178 C8.76983876,18.4069178 8.50668831,18.3789475 8.24867332,18.3256542 C8.78521158,20.0640261 10.3409879,21.3281572 12.184283,21.3628152 C10.7427623,22.5350589 8.92514452,23.2317383 6.95094554,23.2317383 C6.61079673,23.2317383 6.27574982,23.2104209 5.94587193,23.171792 C7.81098431,24.4146406 10.0252409,25.1392902 12.4050743,25.1392902 C20.1568689,25.1392902 24.3941282,18.4761991 24.3941282,12.6976375 L24.3799973,12.1315093 C25.2079142,11.518706 25.9241601,10.7487745 26.4876847,9.87225638 Z" id="Shape"></path>
                                    </g>
                                </g>
                            </g>
                        </g>
                    </g>
                </g>
            </g>
        </g>
    </g>
</svg>