<?xml version="1.0" encoding="UTF-8"?>
<svg width="53px" height="68px" viewBox="0 0 53 68" version="1.1" xmlns="http://www.w3.org/2000/svg" xmlns:xlink="http://www.w3.org/1999/xlink">
    <!-- Generator: Sketch 62 (91390) - https://sketch.com -->
    <title>Shape</title>
    <desc>Created with Sketch.</desc>
    <defs>
        <linearGradient x1="50%" y1="39.5522624%" x2="50%" y2="100%" id="linearGradient-1">
            <stop stop-color="#FC550A" offset="0%"></stop>
            <stop stop-color="#FD8E04" offset="100%"></stop>
        </linearGradient>
    </defs>
    <g id="Final-pages" stroke="none" stroke-width="1" fill="none" fill-rule="evenodd">
        <g id="unlockgates-2" transform="translate(-775.000000, -2098.000000)" stroke="url(#linearGradient-1)" stroke-width="3.04477612">
            <g id="Group-19" transform="translate(0.000000, 1734.000000)">
                <g id="Group-18-Copy" transform="translate(735.000000, 332.000000)">
                    <g id="Group-22" transform="translate(16.000000, 16.000000)">
                        <path d="M51.825,39.8267844 L46.525,39.6429764 L51.825,39.8267844 Z M51.825,39.8267844 L57.125,40.0105925 L51.825,39.8267844 Z M50.5,45.1810667 L54.475,45.3649881 L50.5,45.1810667 Z M50.5,45.1810667 L46.525,44.9971453 L50.5,45.1810667 Z M49.175,55.8897444 L51.825,56.0734769 L49.175,55.8897444 Z M49.175,55.8897444 L46.525,55.7060119 L49.175,55.8897444 Z M51.825,61.2439889 L46.525,61.0602564 L51.825,61.2439889 Z M51.825,61.2439889 L57.125,61.4277214 L51.825,61.2439889 Z M49.175,77.3071 L51.825,77.4908325 L49.175,77.3071 Z M49.175,77.3071 L46.525,77.1233675 L49.175,77.3071 Z M50.5,71.9528556 L46.525,71.7691231 L50.5,71.9528556 Z M50.5,71.9528556 L54.475,72.1365881 L50.5,71.9528556 Z M34.7136797,55.8414047 L34.6751866,55.7834676 C34.7069465,55.7990971 34.7390346,55.8141482 34.7714373,55.8286076 C34.7521475,55.8327713 34.7328948,55.8370371 34.7136797,55.8414047 Z M37.1749735,55.7833888 L37.1364188,55.8414238 C37.1171725,55.8370489 37.0978885,55.8327759 37.0785673,55.8286056 C37.1110229,55.8141225 37.1431628,55.7990458 37.1749735,55.7833888 Z M34.7143041,71.9043453 L34.6761821,71.8470007 C34.7076333,71.8624659 34.7394061,71.8773639 34.7714871,71.8916818 C34.7523896,71.895803 34.7333284,71.9000243 34.7143041,71.9043453 Z M37.1739782,71.8469219 L37.1357945,71.9043644 C37.116739,71.9000361 37.0976465,71.8958077 37.0785175,71.8916798 C37.1106514,71.8773381 37.1424761,71.8624145 37.1739782,71.8469219 Z M34.7141025,39.7782685 L34.6759945,39.7209382 C34.7074321,39.7363986 34.7391911,39.7512923 34.7712581,39.7656065 C34.7521698,39.7697273 34.7331177,39.7739481 34.7141025,39.7782685 Z M37.1741658,39.7208594 L37.135996,39.7782877 C37.1169496,39.7739599 37.0978663,39.769732 37.0787465,39.7656045 C37.1108664,39.7512666 37.1426773,39.7363473 37.1741658,39.7208594 Z" id="Shape"></path>
                    </g>
                </g>
            </g>
        </g>
    </g>
</svg>