<svg xmlns="http://www.w3.org/2000/svg" width="33.16" height="37.898" viewBox="0 0 33.16 37.898">
  <path id="calendar" d="M29.608,4.737H26.055V.888A.891.891,0,0,0,25.166,0H22.206a.891.891,0,0,0-.888.888V4.737H11.843V.888A.891.891,0,0,0,10.955,0H7.994a.891.891,0,0,0-.888.888V4.737H3.553A3.554,3.554,0,0,0,0,8.29V34.345A3.554,3.554,0,0,0,3.553,37.9H29.608a3.554,3.554,0,0,0,3.553-3.553V8.29A3.554,3.554,0,0,0,29.608,4.737Zm-.444,29.608H4a.445.445,0,0,1-.444-.444V11.843H29.608V33.9A.445.445,0,0,1,29.163,34.345Z" fill="#51ba6c"/>
</svg>
