<?xml version="1.0" encoding="UTF-8"?>
<svg width="690px" height="764px" viewBox="0 0 690 764" version="1.1" xmlns="http://www.w3.org/2000/svg" xmlns:xlink="http://www.w3.org/1999/xlink">
    <!-- Generator: Sketch 62 (91390) - https://sketch.com -->
    <title>Artboard</title>
    <desc>Created with Sketch.</desc>
    <defs>
        <linearGradient x1="0%" y1="50%" x2="100%" y2="50%" id="linearGradient-1">
            <stop stop-color="#007C97" offset="0%"></stop>
            <stop stop-color="#09819A" offset="20.5%"></stop>
            <stop stop-color="#13869E" offset="56.2%"></stop>
            <stop stop-color="#1788A0" offset="100%"></stop>
        </linearGradient>
        <linearGradient x1="35.9978671%" y1="28.8%" x2="49.6999543%" y2="74.8%" id="linearGradient-2">
            <stop stop-color="#007C97" offset="0%"></stop>
            <stop stop-color="#09819A" offset="20.5%"></stop>
            <stop stop-color="#13869E" offset="56.2%"></stop>
            <stop stop-color="#1788A0" offset="100%"></stop>
        </linearGradient>
    </defs>
    <g id="Artboard" stroke="none" stroke-width="1" fill="none" fill-rule="evenodd">
        <g id="Group-1869" fill-rule="nonzero">
            <path d="M310.634121,252 C311.186303,251.755925 329.616984,284.230647 442.813201,257.236895 L474.7249,276.217235 L588,487.889642 L395.770928,644 L194,465.417964 C194,465.417964 248.802769,279.516993 310.634121,252 Z" id="Path_1727" fill="#152C53"></path>
            <g id="Group_1709">
                <g id="Group_1705" transform="translate(136.466223, 0.000000)" fill="#0A172C">
                    <path d="M521.597062,404.707316 C519.267438,395.144156 521.597062,349.720892 521.597062,349.720892 C516.931823,338.962461 495.934255,309.079707 478.441606,299.516546 C460.948958,289.953386 428.289291,277.998686 404.959103,274.412876 C389.194949,271.990382 351.071201,265.201207 327.999638,261.052211 C344.368915,284.680017 443.441331,428.359088 442.987988,444.023419 C442.494703,461.098708 422.136208,500.116243 409.401664,514.429529 C403.099797,521.51128 252.655832,652.921107 252.655832,652.921107 C252.655832,652.921107 89.6301013,501.671991 76.0457887,477.140493 C62.4614761,452.608994 93.8479884,369.439355 151.957771,262.574009 C110.911259,270.118091 25.1106078,289.20447 4.89191027,319.83614 C-1.64261939,329.736812 -0.60512301,383.18746 2.1039508,410.770542 C4.95182344,439.771572 14.6437771,449.385659 14.6437771,449.385659 L28.2171056,457.303201 C60.8757742,545.759189 101.311172,577.616087 110.85534,601.294819 C123.865485,633.577101 118.772865,690.393877 118.772865,690.393877 L391.882055,690.393877 C391.882055,690.393877 388.969276,614.873169 401.321375,592.375727 C419.936397,558.471792 443.453314,509.895091 445.784935,503.916743 C448.116556,497.938395 462.114269,454.907668 462.114269,454.907668 C462.114269,454.907668 523.931679,414.266483 521.597062,404.707316 Z" id="Path_1731"></path>
                    <path d="M157.654515,141.66199 C156.715876,152.710001 160.020087,160.852218 165.856628,169.222105 C171.693169,177.591993 174.0178,188.350423 174.0178,188.350423 L174.0178,258.875361 C174.0178,258.875361 242.775152,297.562374 309.121997,257.677095 L309.121997,257.74999 C308.868365,257.704056 309.121997,257.677095 309.121997,257.677095 L306.951143,173.808468 C312.732103,164.330858 316.68729,153.85457 318.612243,142.921168 C320.709204,132.709945 312.820637,128.320298 312.820637,124.735486 C312.820637,121.150673 322.152113,43.70575 329.148973,36.5351272 C336.145832,29.3645043 355.973097,12.6277254 355.973097,12.6277254 L327.978669,19.7993468 L344.308003,5.4571026 C344.308003,5.4571026 332.644906,6.6553685 322.148119,7.8446474 C311.651331,9.0339263 218.341563,-2.91078757 210.176397,0.673026012 C202.01123,4.2568396 181.018654,28.1682355 181.018654,28.1682355 L155.587511,55.661448 L164.804153,127.381656 C164.804153,127.381656 158.241664,134.761975 157.654515,141.66199 Z" id="Path_1732"></path>
                </g>
                <path d="M238.170825,466.863366 C238.170825,466.863366 310.48602,505.117006 329.146975,500.333928 C347.807931,495.55085 395.629624,466.863366 427.122981,477.622795 C458.616339,488.382224 502.939103,493.161308 512.267583,475.233253 C521.596064,457.305198 536.762084,447.74004 528.598915,420.247827 C520.435745,392.755613 520.433748,370.634626 520.433748,370.634626 C520.433748,370.634626 586.917395,471.647442 581.085847,481.209604 C575.254298,490.771766 398.35068,643.774344 398.35068,643.774344 L292.280405,572.7701 C308.145872,566.649155 322.65455,557.471458 334.982518,545.758191 C354.809783,526.633867 421.289436,505.117006 444.623618,526.633867 C467.9578,548.150728 498.27686,556.520616 508.776643,526.633867 C519.276425,496.747118 420.130116,482.405873 374.640043,496.747118 C329.149971,511.088364 280.162967,500.334926 260.334703,537.388303 C260.334703,537.388303 226.512721,514.676172 221.845485,495.548853 C217.178249,476.421533 212.516006,457.29721 212.516006,457.29721 C212.516006,457.29721 219.507873,446.542773 238.170825,466.863366 Z" id="Path_1733" fill="#F2F2F2" opacity="0.1"></path>
                <g id="Group_1706" transform="translate(21.225239, 256.722477)" fill="#6F60AA">
                    <path d="M239.10547,43.9863439 C239.10547,43.9863439 211.112041,63.1136633 181.955297,54.7447746 C152.798553,46.3758858 130.629682,8.12524133 127.134747,2.14889017 C123.639812,-3.82746098 38.4912156,3.34715607 15.162026,15.2978613 L0,36.5111618 L29.1577424,45.1816142 C29.1577424,45.1816142 104.054197,5.73869509 117.344935,15.2968627 C130.635673,24.8550303 143.295326,50.0216098 159.124385,69.1189725 C174.953444,88.2163353 220.447511,79.8484451 220.447511,79.8484451 L239.10547,43.9863439 Z" id="Path_1734"></path>
                </g>
                <path d="M290.657757,244.527126 C290.657757,244.527126 255.66547,281.5825 246.335991,287.564842 C237.006512,293.547185 223.0078,304.299624 223.0078,304.299624 L251.000232,304.299624 C251.000232,304.299624 209.010087,365.2624 203.179537,378.411371 C197.348987,391.560342 176.351418,469.259897 181.011664,483.604139 C185.67191,497.94838 354.808784,616.285126 372.305427,634.213181 C389.802069,652.141236 391.929986,661.70839 399.027699,650.951957 C406.125412,640.195523 597.416179,491.967036 597.416179,491.967036 C597.416179,491.967036 602.078423,456.104935 585.753082,434.589072 C569.427742,413.07321 565.924819,385.578999 564.757511,378.406379 C563.590203,371.233759 511.104269,321.030412 502.939103,312.662522 C494.773936,304.294632 508.772648,287.55985 508.772648,287.55985 L445.586223,232.567434 L445.586223,258.262249 C445.586223,258.262249 522.767366,377.213105 533.259161,404.706318 C543.750955,432.19953 570.591056,465.667097 568.255441,475.23525 C565.919826,484.803403 409.423632,634.213181 399.027699,635.411447 C388.631766,636.609712 249.835919,509.897088 228.839349,483.599146 C207.842779,457.301204 225.344414,401.11851 228.839349,393.947887 C232.334284,386.777264 283.465181,288.700199 292.991375,274.40988 C302.517569,260.119561 310.483025,258.23329 310.483025,258.23329 L310.483025,232.567434 L290.657757,244.527126 Z" id="Path_1735" fill="#FFFFFF"></path>
                <g id="Group_1707" transform="translate(0.000000, 308.839055)">
                    <path d="M190.348133,77.5148223 C191.095051,78.2867052 196.985514,84.4687587 198.866787,81.9603887 L202.249884,71.8689928 C202.249884,71.8689928 178.684038,71.6622919 168.188249,69.27275 C165.750781,68.7175535 162.93686,70.2383526 160.061027,72.9813829 C171.903864,71.2548815 180.193849,70.5788598 190.348133,77.5148223 Z" id="Path_1736" fill="#007C97"></path>
                    <path d="M227.086889,119.774665 C227.086889,123.359477 228.835355,130.533095 235.83521,132.3265 C232.096297,144.000168 231.912084,156.521836 235.305977,168.300439 C235.343687,164.748795 234.994126,161.203623 234.263488,157.72774 C231.893922,145.662201 241.79657,137.406149 235.318958,129.038259 C228.841346,120.670368 222.709233,95.9791012 225.776787,87.4065072 C228.4589,79.9003699 201.080579,81.7147442 194.222518,82.282922 C194.001254,83.4116515 193.875988,84.5570936 193.848061,85.7069668 C214.839638,80.3267529 228.836353,98.2578035 227.086889,119.774665 Z" id="Path_1737" fill="#007C97"></path>
                    <path d="M235.83521,132.3265 C228.836353,130.529101 227.086889,123.359477 227.086889,119.774665 C228.835355,98.2578035 214.839638,80.3257543 193.845065,85.7069668 L198.062952,79.9153483 C198.187771,78.6272124 194.594978,77.5188165 193.845065,76.7449364 C183.69178,69.808974 171.903864,71.2588757 160.061027,72.9843786 C152.791563,79.9193425 145.122677,94.738896 142.100058,104.227165 C141.106498,110.431186 141.166411,107.163915 142.100058,104.227165 C144.091172,91.8291069 149.530289,68.4788988 165.854631,62.1031257 C165.854631,62.1031257 179.978162,-12.5069003 149.65411,1.83634249 C141.412163,10.5840867 133.953975,20.0384064 127.365412,30.0904538 C120.710058,40.1858439 91.2098119,39.3840043 65.5470043,55.524646 C39.8841968,71.6652876 31.722026,84.8102645 21.2252388,101.541052 C10.7284515,118.27184 -11.4354269,154.136936 7.22752533,182.823422 C25.8904776,211.509908 48.0513603,244.982467 83.0436469,217.489254 C118.035933,189.996042 133.193965,189.392915 141.359132,192.086017 C149.524298,194.77912 172.853488,199.559202 172.853488,199.559202 L234.264486,174.713159 C234.264486,174.713159 235.204124,172.752996 235.306975,168.295447 C231.913771,156.5185 232.097635,143.998725 235.83521,132.3265 L235.83521,132.3265 Z" id="Path_1738" fill="#0A172C"></path>
                    <path d="M31.722026,108.72166 C31.722026,108.72166 56.7727207,74.6709379 78.3754124,77.6376445 C93.5843705,79.7226272 103.578886,123.647061 138.570174,111.108207 C138.570174,111.108207 121.362113,124.857309 95.8740521,97.3620997 C70.3859913,69.8668902 59.6685239,81.2074783 31.722026,108.72166 Z" id="Path_1739" fill="#007C97"></path>
                </g>
                <g id="Group_1708" transform="translate(544.150376, 308.839055)">
                    <path d="M47.2095803,77.5148223 C46.4586686,78.2867052 40.5682055,84.4687587 38.6859334,81.9603887 L35.303835,71.8689928 C35.303835,71.8689928 58.8696816,71.6622919 69.3674674,69.27275 C71.8029378,68.7175535 74.6188567,70.2383526 77.4936903,72.9813829 C65.6528509,71.2548815 57.3598698,70.5788598 47.2095803,77.5148223 Z" id="Path_1740" fill="#007C97"></path>
                    <path d="M10.4698263,119.774665 C10.4698263,123.359477 8.71636758,130.533095 1.71850941,132.3265 C5.45682169,144.000267 5.6410324,156.521755 2.2477424,168.300439 C2.21177042,164.748872 2.56131292,161.203887 3.29023155,157.72774 C5.6617945,145.662201 -4.24285094,137.406149 2.23476122,129.038259 C8.71237337,120.670368 14.8434877,95.9791012 11.7799276,87.4065072 C9.09581766,79.9003699 36.4741389,81.7147442 43.3341968,82.282922 C43.556236,83.4115109 43.6811791,84.5570478 43.7076556,85.7069668 C22.7150796,80.3267529 8.71636758,98.2578035 10.4698263,119.774665 Z" id="Path_1741" fill="#007C97"></path>
                    <path d="M1.71751085,132.3265 C8.71536903,130.529101 10.4688278,123.359477 10.4688278,119.774665 C8.71536903,98.2578035 22.714081,80.3257543 43.7076556,85.7069668 L39.4897685,79.9153483 C39.3649493,78.6272124 42.9577424,77.5188165 43.7076556,76.7449364 C53.8619392,69.808974 65.6518524,71.2588757 77.4926918,72.9843786 C84.7621563,79.9193425 92.431042,94.738896 95.4526628,104.227165 C96.4512156,110.431186 96.3863097,107.163915 95.4526628,104.227165 C93.4665412,91.8291069 88.0254269,68.4788988 71.6980897,62.1031257 C71.6980897,62.1031257 57.5775543,-12.5069003 87.9026049,1.83634249 C96.1430775,10.5848435 103.600539,20.0390896 110.189305,30.0904538 C116.843661,40.1858439 146.347902,39.3840043 172.005716,55.524646 C197.663531,71.6652876 205.832692,84.8152572 216.331476,101.551038 C226.83026,118.286818 248.984153,154.146922 230.328191,182.833408 C211.672229,211.519893 189.502359,244.992452 154.512069,217.49924 C119.52178,190.006027 104.364747,189.4029 96.1965847,192.096003 C88.0284226,194.789105 64.7012301,199.569188 64.7012301,199.569188 L3.29023155,174.723145 C3.29023155,174.723145 2.3515919,172.762981 2.2477424,168.305432 C5.64172169,156.525091 5.45716114,144.001711 1.71751085,132.3265 L1.71751085,132.3265 Z" id="Path_1742" fill="#0A172C"></path>
                    <path d="M205.832692,108.717666 C205.832692,108.717666 177.8822,75.8562225 159.177308,77.6376445 C143.89945,79.092539 133.974834,123.647061 98.982547,111.108207 C98.982547,111.108207 116.193603,124.857309 141.681664,97.3620997 C167.169725,69.8668902 176.916599,82.5545289 205.832692,108.717666 Z" id="Path_1743" fill="#007C97"></path>
                </g>
                <path d="M737.324414,232.567434 C725.665311,236.147253 682.503864,300.709819 680.173242,314.169341 C677.842619,327.628863 676.671317,330.594571 658.073271,340.156733 C639.475224,349.718895 563.534284,318.639871 539.037786,313.85879 C524.299146,310.979957 511.677438,301.615509 503.960622,294.608649 C500.852127,300.189572 498.158032,307.824523 502.883184,312.664519 C505.424501,315.266753 512.256599,321.92312 520.495658,330.070329 C526.755586,334.572814 534.040029,339.593548 542.539711,345.201432 C607.840072,388.2731 651.012504,366.453676 672.007077,353.305704 C693.00165,340.157731 741.986657,298.320277 741.986657,298.320277 L771.144399,215.839642 C771.144399,215.839642 748.987511,228.987614 737.324414,232.567434 Z" id="Path_1744" fill="#6F60AA"></path>
            </g>
            <g id="Group_1704" transform="translate(300.000000, 350.000000)">
                <path d="M79.7583462,22.7294061 C72.4339249,24.5197204 65.6420314,28.0292416 59.9458077,32.9669818 C59.8881264,33.0156848 59.8324341,33.0663758 59.7757473,33.112097 C58.9592582,33.8247515 58.1527143,34.5592727 57.3740165,35.3365333 C48.4263614,44.2790677 43.3996188,56.4077636 43.3996188,69.0544364 C43.3996188,81.7011092 48.4263614,93.829805 57.3740165,102.772339 L57.3740165,102.772339 L57.4237418,102.820048 C75.6948561,121.02458 105.137202,121.411202 123.880577,103.692727 C124.203791,103.387588 124.531978,103.089406 124.848231,102.773333 L124.857181,102.765382 C125.571236,102.050739 126.249489,101.31423 126.907852,100.567782 C127.094819,100.356073 127.275819,100.141382 127.458808,99.9266909 C127.97131,99.3243636 128.468562,98.7127596 128.950566,98.0918788 C129.085819,97.9159515 129.225049,97.7430061 129.358313,97.5660848 C129.963967,96.7550303 130.545753,95.9320485 131.092731,95.0921697 C131.128533,95.037503 131.161352,94.9798545 131.197154,94.9241939 C131.717612,94.1177778 132.210555,93.2997657 132.675984,92.4701576 C132.750571,92.3409455 132.822176,92.2107394 132.894775,92.0805333 C143.172551,73.4893116 139.891994,50.3434745 124.852209,35.3365333 L89.4955495,0 C78.2775275,11.2106424 79.7205549,22.4570667 79.7583462,22.7294061 Z M108.599005,86.5273939 C98.9418886,96.1786955 83.2848932,96.1785235 73.6279886,86.5270098 C63.971084,76.8754961 63.971084,61.227413 73.6279886,51.5758993 C83.2848932,41.9243856 98.9418886,41.9242136 108.599005,51.5755152 C118.24545,61.2319777 118.24456,76.8720282 108.597016,86.5273939 L108.599005,86.5273939 Z" id="Path_1728" fill="#51BA6C"></path>
                <g id="Group_1703" transform="translate(0.000000, 94.100218)" fill="#51BA6C">
                    <path d="M151.578549,10.446303 C138.973004,32.3719875 115.601449,45.8901272 90.2996071,45.8901272 C64.9977657,45.8901272 41.6262103,32.3719875 29.0206648,10.446303 C18.5495165,-0.0178909091 -0.00298351648,0.00298157383 -0.00298351648,0.00298157383 C11.1835252,40.6384612 48.1287184,68.817128 90.2981154,68.8770182 L90.2981154,68.8770182 C132.467858,68.8181477 169.413598,40.6390635 180.599214,0.00298157383 C180.599214,0.00298157383 162.049698,-0.0159030303 151.578549,10.446303 Z" id="Path_1729"></path>
                </g>
                <path d="M93.3174341,162.869891 C93.5988791,162.852 93.8793297,162.828145 94.1597802,162.805285 C94.9480916,162.739022 95.7314304,162.656857 96.5097967,162.558788 C96.7295824,162.530958 96.9503626,162.507103 97.1691538,162.475297 C98.1716154,162.330182 99.1651264,162.159224 100.146703,161.951491 C100.212341,161.937576 100.274995,161.920679 100.340632,161.907758 C101.278119,161.704994 102.206324,161.475063 103.125247,161.217964 C103.269451,161.178206 103.412659,161.138448 103.555868,161.096703 C121.64557,155.885497 134.969769,140.518614 137.558011,121.881818 C110.70201,146.054426 69.9181598,146.057 43.0591044,121.887782 C46.2876784,144.935046 65.692295,162.285619 88.9684615,162.937479 C89.4130055,162.949406 89.8565549,162.971341 90.3040824,162.971341 L90.315022,162.971341 C91.3234505,162.973261 92.3229286,162.931515 93.3174341,162.869891 Z" id="Path_1730" fill="#30975D"></path>
            </g>
            <path d="M342,36 C342,36 385.807151,54.3925281 389.073598,55.8988213 C392.340044,57.4051145 432,41.5945186 432,41.5945186 C432,41.5945186 391.57848,53.7445528 342,36 Z" id="Path_1745" fill="url(#linearGradient-1)"></path>
            <path d="M369.618637,242.870749 C354.190326,232.340104 340.879471,227.585165 335.483151,211.888882 C330.086831,196.192599 312.308784,177.497814 307.992126,170.779095 C292.240814,146.256768 298.773621,135.526755 308.116741,129.780954 C308.604234,132.395672 307.298271,132.435546 313.619731,157.11338 L309.84141,131.848406 C309.84141,131.848406 303.70438,53.2972121 329.55647,36 C329.55647,36 304.699305,47.1427061 301.256945,64.3541898 C299.515329,73.0655969 306.205649,127.232028 306.205649,127.232028 C300.306627,131.262657 296.568287,137.763607 296.052034,144.8891 C295.062094,157.085469 308.507533,173.338987 309.979982,178.733899 C311.452431,184.128811 315.820927,212.5777 315.820927,212.5777 C315.820927,212.5777 365.367776,248.874732 380.57178,250.346071 C395.775784,251.817411 397,250.346071 397,250.346071 C397,250.346071 380.57178,250.345074 369.618637,242.870749 Z" id="Path_1746" fill="url(#linearGradient-2)"></path>
            <polygon id="Path_1747" fill="#0A172C" points="533 763 252 763 255.621 690 529.136 690"></polygon>
        </g>
    </g>
</svg>