<?xml version="1.0" encoding="UTF-8"?>
<svg width="15px" height="30px" viewBox="0 0 15 30" version="1.1" xmlns="http://www.w3.org/2000/svg" xmlns:xlink="http://www.w3.org/1999/xlink">
    <!-- Generator: Sketch 62 (91390) - https://sketch.com -->
    <title>Artboard</title>
    <desc>Created with Sketch.</desc>
    <g id="Artboard" stroke="none" stroke-width="1" fill="none" fill-rule="evenodd">
        <g id="Path-321" fill="#152C53" fill-opacity="0.5" fill-rule="nonzero">
            <path d="M10.0004768,12.9169811 C7.9807001,12.9190392 6.12861941,11.7936451 5.1997902,9.99990282 L10.0004768,9.99990282 L10.0004768,8.3332053 L4.65048636,8.3332053 C4.56160779,7.78119494 4.56160779,7.21851815 4.65048636,6.66650778 L10.0004768,6.66650778 L10.0004768,5.00553283 L5.1997902,5.00553283 C5.96069714,3.53840576 7.35080842,2.49995518 8.97338486,2.18655593 C10.5959613,1.87315668 12.2727436,2.3192394 13.5251764,3.39749162 L15,1.91534688 C13.1379622,0.244259372 10.5645064,-0.386479532 8.14089297,0.234220069 C5.71727957,0.854919669 3.76368183,2.64505981 2.93391188,5.00553283 L0,5.00553283 L0,6.66507714 L2.55054358,6.66507714 C2.48388821,7.21864324 2.48388821,7.77820856 2.55054358,8.33177466 L0,8.33177466 L0,9.99990282 L2.93391188,9.99990282 C3.76530972,12.3592035 5.7196056,14.1476015 8.14301628,14.7668125 C10.566427,15.3860235 13.1389565,14.7542846 15,13.0829356 L13.5165936,11.607944 C12.5415166,12.4553752 11.2922736,12.9204636 10.0004768,12.9169811 L10.0004768,12.9169811 Z" id="Path_321"></path>
        </g>
        <g id="Path-321" transform="translate(0.000000, 15.000000)" fill="#51BA6C" fill-rule="nonzero">
            <path d="M10.0004768,12.9169811 C7.9807001,12.9190392 6.12861941,11.7936451 5.1997902,9.99990282 L10.0004768,9.99990282 L10.0004768,8.3332053 L4.65048636,8.3332053 C4.56160779,7.78119494 4.56160779,7.21851815 4.65048636,6.66650778 L10.0004768,6.66650778 L10.0004768,5.00553283 L5.1997902,5.00553283 C5.96069714,3.53840576 7.35080842,2.49995518 8.97338486,2.18655593 C10.5959613,1.87315668 12.2727436,2.3192394 13.5251764,3.39749162 L15,1.91534688 C13.1379622,0.244259372 10.5645064,-0.386479532 8.14089297,0.234220069 C5.71727957,0.854919669 3.76368183,2.64505981 2.93391188,5.00553283 L0,5.00553283 L0,6.66507714 L2.55054358,6.66507714 C2.48388821,7.21864324 2.48388821,7.77820856 2.55054358,8.33177466 L0,8.33177466 L0,9.99990282 L2.93391188,9.99990282 C3.76530972,12.3592035 5.7196056,14.1476015 8.14301628,14.7668125 C10.566427,15.3860235 13.1389565,14.7542846 15,13.0829356 L13.5165936,11.607944 C12.5415166,12.4553752 11.2922736,12.9204636 10.0004768,12.9169811 L10.0004768,12.9169811 Z" id="Path_321"></path>
        </g>
    </g>
</svg>