<?xml version="1.0" encoding="UTF-8"?>
<svg width="50px" height="30px" viewBox="0 0 50 30" version="1.1" xmlns="http://www.w3.org/2000/svg" xmlns:xlink="http://www.w3.org/1999/xlink">
    <!-- Generator: Sketch 62 (91390) - https://sketch.com -->
    <title>Artboard</title>
    <desc>Created with Sketch.</desc>
    <defs>
        <linearGradient x1="0%" y1="50%" x2="100%" y2="50%" id="linearGradient-1">
            <stop stop-color="#14294B" offset="0%"></stop>
            <stop stop-color="#142B52" offset="100%"></stop>
        </linearGradient>
    </defs>
    <g id="Artboard" stroke="none" stroke-width="1" fill="none" fill-rule="evenodd">
        <g id="cleaning_gig" transform="translate(11.000000, 0.000000)" fill-rule="nonzero">
            <g id="Group_1084" transform="translate(0.000000, 10.863000)">
                <polygon id="Path_747" fill="url(#linearGradient-1)" points="18.1 18.099 3.615 18.099 1.547 2.068 20.168 2.068"></polygon>
                <rect id="Rectangle_943" fill="#6F60AA" x="0" y="0" width="21.727" height="2.068"></rect>
            </g>
            <polygon id="Path_748" fill="#130E3D" points="1.547 12.932 1.817 15 19.904 15 20.168 12.932"></polygon>
            <polygon id="Path_749" fill="#D4D4D4" points="9.826 10.863 2.584 10.863 2.584 6.205 4.652 3.621 7.757 3.621 9.825 6.205"></polygon>
            <rect id="Rectangle_944" fill="#51BA6C" x="4.652" y="0" width="3.105" height="3.621"></rect>
            <rect id="Rectangle_945" fill="#EBEBEB" x="2.584" y="6.205" width="7.242" height="4.658"></rect>
            <rect id="Rectangle_946" fill="#30975D" transform="translate(18.600989, 4.091458) rotate(-26.539438) translate(-18.600989, -4.091458) " x="18.0822728" y="1.72597221" width="1.03743234" height="4.73097158"></rect>
            <g id="Group_1085" transform="translate(11.895000, 0.000000)" fill="#51BA6C">
                <rect id="Rectangle_947" x="7.242" y="0" width="2.068" height="2.068"></rect>
                <path d="M4.652,4.137 L-1.21094303e-07,4.137 C-0.000265332363,3.03971806 0.43551071,1.98730175 1.21140623,1.21140623 C1.98730175,0.43551071 3.03971806,-0.000265332363 4.137,-1.210943e-07 L7.242,-1.210943e-07 L7.242,2.068 L4.652,4.137 Z" id="Path_750"></path>
            </g>
            <rect id="Rectangle_948" fill="#D4D4D4" x="13.447" y="4.137" width="3.105" height="2.068"></rect>
            <polygon id="Path_751" fill="#EBEBEB" points="13.448 6.205 16.548 6.205 19.138 8.795 19.138 10.863 11.895 10.863 11.895 7.758"></polygon>
            <path d="M25.342,21.7269937 L24.533,21.7269937 C24.0445654,21.7260141 23.5628096,21.8404567 23.127,22.061 C22.2424989,22.506068 21.1995011,22.506068 20.315,22.061 C19.8781519,21.8433076 19.39708,21.7290273 18.909,21.7269937 L18.1,21.7269937 C16.6728962,21.7269937 15.516,22.8838962 15.516,24.311 L15.516,27.416 C15.516,28.8431038 16.6728962,30.0000063 18.1,30.0000063 L18.909,30.0000063 C19.3974346,30.0009859 19.8791904,29.8865433 20.315,29.666 C21.1997736,29.2205965 22.2432264,29.2205965 23.128,29.666 C23.5648481,29.8836924 24.04592,29.9979727 24.534,30.0000063 L25.343,30.0000063 C26.7701038,30.0000063 27.9270017,28.8431038 27.9270017,27.416 L27.9270017,24.311 C27.9277979,23.625263 27.6556747,22.9673971 27.1706912,22.4826013 C26.6857078,21.9978054 26.0277367,21.7259368 25.342,21.7269937 L25.342,21.7269937 Z" id="Path_752" fill="#EBEBEB"></path>
            <path d="M25.342,26.8950063 L24.533,26.8950063 C24.0445654,26.8959859 23.5628096,26.7815433 23.127,26.561 L23.127,26.561 C22.2424989,26.115932 21.1995011,26.115932 20.315,26.561 L20.315,26.561 C19.8781519,26.7786924 19.39708,26.8929727 18.909,26.8950063 L18.1,26.8950063 C16.6728962,26.8950063 15.516,25.7381038 15.516,24.311 L15.516,24.311 C15.516,22.8838962 16.6728962,21.7269937 18.1,21.7269937 L18.909,21.7269937 C19.3974346,21.7260141 19.8791904,21.8404567 20.315,22.061 L20.315,22.061 C21.1997736,22.5064035 22.2432264,22.5064035 23.128,22.061 L23.128,22.061 C23.5648481,21.8433076 24.04592,21.7290273 24.534,21.7269937 L25.343,21.7269937 C26.7701038,21.7269937 27.9270017,22.8838962 27.9270017,24.311 L27.9270017,24.311 C27.9277979,24.996737 27.6556747,25.6546029 27.1706912,26.1393987 C26.6857078,26.6241946 26.0277367,26.8960632 25.342,26.8950063 L25.342,26.8950063 Z" id="Path_753" fill="#D4D4D4"></path>
            <g id="Group_1086" transform="translate(17.584000, 23.273000)" fill="#EBEBEB">
                <rect id="Rectangle_949" x="7.242" y="0" width="1.037" height="1.037"></rect>
                <rect id="Rectangle_950" x="2.068" y="0" width="1.037" height="1.037"></rect>
                <rect id="Rectangle_951" x="0" y="0.521" width="1.037" height="1.037"></rect>
                <rect id="Rectangle_952" x="5.174" y="0.521" width="1.037" height="1.037"></rect>
            </g>
            <path d="M13.447,15 L13.447,10.863 L5.168,10.863 L5.168,22.758 C5.16910185,23.6152414 5.8637586,24.3098981 6.721,24.311 L11.895,24.311 C12.7522414,24.3098981 13.4468981,23.6152414 13.448,22.758 L13.448,17.584 L15.548,18.633 C16.1021083,18.9084646 16.7746709,18.6851702 17.054,18.133 L17.054,18.133 L17.066,18.11 C17.3559743,17.5430145 17.1323056,16.8482997 16.566,16.557 C16.5626863,16.557 16.56,16.5543137 16.56,16.551 L13.447,15 Z" id="Path_754" fill="#51BA6C"></path>
            <path d="M16.552,16.552 L13.447,14.999 L13.447,10.863 L13.054,10.863 C11.7194698,15.6062677 8.97781585,19.8332892 5.191,22.986 C5.30083724,23.7459704 5.95213331,24.31 6.72,24.31 L11.891,24.31 C12.7482414,24.3088981 13.4428981,23.6142414 13.444,22.757 L13.444,17.583 L15.544,18.632 C16.0981083,18.9074646 16.7706709,18.6841702 17.05,18.132 L17.05,18.132 L17.062,18.109 C17.3519743,17.5420145 17.1283056,16.8472997 16.562,16.556 C16.5618259,16.5537189 16.5603698,16.5517353 16.5582457,16.5508857 C16.5561216,16.550036 16.5536992,16.5504682 16.552,16.552 L16.552,16.552 Z" id="Path_755" fill="#30975D"></path>
            <g id="Group_1087" transform="translate(6.721000, 19.137000)" fill="#21693A">
                <rect id="Rectangle_953" x="0" y="0" width="1.037" height="5.174"></rect>
                <rect id="Rectangle_954" x="2.068" y="0" width="1.037" height="5.174"></rect>
                <rect id="Rectangle_955" x="4.137" y="0" width="1.037" height="5.174"></rect>
            </g>
        </g>
    </g>
</svg>