<svg xmlns="http://www.w3.org/2000/svg" width="537.248" height="468.301" viewBox="0 0 537.248 468.301">
  <g id="Group_1980" data-name="Group 1980" transform="translate(-558.101 -398.557)">
    <path id="Path_1887" data-name="Path 1887" d="M877.679,822.19c-36.772,11.436-90.689,72.887-149.6,29.162s-86.055-61.832-129.042-92.381,8.813-56.622-18.284-84.58-38.1-55.826,14.511-72.689,4.445-113.776,36.837-159.151,74.96,21.685,144.913-30.177,25.265,56.846,81.217,86.554,116.977-33.8,144.474,32.008-35,130.633-17.86,186.683S944.832,801.3,877.679,822.19Z" fill="#ebf6f1"/>
    <g id="Group_1976" data-name="Group 1976" opacity="0.33">
      <path id="Path_1888" data-name="Path 1888" d="M949.731,722.8A141.579,141.579,0,0,1,858.981,789c-50.05,11.011-105.543-8.222-138.046-47.843S680.421,643.351,701,596.42s68.813-80.448,119.977-83.375a141.276,141.276,0,0,1,97.382,32.117C968.595,586.986,982.6,666.308,949.731,722.8Z" fill="#51ba6c" opacity="0.1"/>
      <path id="Path_1889" data-name="Path 1889" d="M934.018,713.679a123.213,123.213,0,0,1-78.978,57.607c-43.557,9.583-91.853-7.155-120.139-41.637s-35.259-85.118-17.346-125.962,59.887-70.012,104.414-72.56a122.951,122.951,0,0,1,84.75,27.952C950.436,595.477,962.625,664.51,934.018,713.679Z" fill="#51ba6c" opacity="0.1"/>
      <path id="Path_1890" data-name="Path 1890" d="M916.089,703.265a102.259,102.259,0,0,1-65.545,47.81c-36.15,7.952-76.232-5.939-99.707-34.556s-29.263-70.642-14.4-104.539,49.7-58.1,86.656-60.219a102.037,102.037,0,0,1,70.336,23.2C929.715,605.166,939.831,662.458,916.089,703.265Z" fill="#51ba6c" opacity="0.1"/>
      <path id="Path_1891" data-name="Path 1891" d="M899.37,693.553a82.715,82.715,0,0,1-53.02,38.673c-29.241,6.433-61.663-4.8-80.652-27.952s-23.67-57.141-11.645-84.561,40.2-47,70.1-48.711a82.534,82.534,0,0,1,56.9,18.765C910.391,614.2,918.574,660.545,899.37,693.553Z" fill="#51ba6c"/>
    </g>
    <g id="Group_1979" data-name="Group 1979">
      <g id="Group_1977" data-name="Group 1977">
        <path id="Path_1892" data-name="Path 1892" d="M779.094,512.475c-1.548-3.607-5.434-5.512-9.015-7.118-6.453-2.893-13.7-5.272-19.782-8.863-3.314-1.955-6.551-6.538-10.751-3.95-5.609,3.456-3.4,15.836-3.038,21.18.521,7.727,2.524,15.75,8.308,21.277,7.315,6.99,20.224-1.462,26.21-6.095C776.238,524.872,781.692,518.532,779.094,512.475Z" fill="#061f33"/>
        <path id="Path_1893" data-name="Path 1893" d="M757.508,522.453q.686-.581,1.408-1.125c-3.287,2.486-15.943-19.048-15.983-22.4-5.868,8.355,1.5,26.285,7.208,33.1A30.5,30.5,0,0,1,757.508,522.453Z" fill="#0b2d4e"/>
      </g>
      <g id="Group_1978" data-name="Group 1978">
        <path id="Path_1894" data-name="Path 1894" d="M822.068,512.475c1.547-3.607,5.434-5.512,9.015-7.118,6.453-2.893,13.7-5.272,19.781-8.863,3.314-1.955,6.552-6.538,10.752-3.95,5.608,3.456,3.4,15.836,3.038,21.18-.521,7.727-2.524,15.75-8.308,21.277-7.315,6.99-20.225-1.462-26.211-6.095C824.924,524.872,819.47,518.532,822.068,512.475Z" fill="#061f33"/>
        <path id="Path_1895" data-name="Path 1895" d="M843.654,522.453q-.687-.581-1.408-1.125c3.286,2.486,15.943-19.048,15.982-22.4,5.868,8.355-1.5,26.285-7.208,33.1A30.476,30.476,0,0,0,843.654,522.453Z" fill="#0b2d4e"/>
      </g>
      <path id="Path_1896" data-name="Path 1896" d="M710.6,743.95c.593,12.414,4.436,26.506,15.708,31.741,11.842,5.5,26.658,3.751,39.345,4.691,9.776.723,53.94,6.093,54.593-8.436,2.805,1.064,5.937.427,7.474-2.395,1.481-2.718.931-6.15-.459-8.916s-3.521-5.076-5.336-7.584c-5.929-8.193-3.852-22.18-4-31.819q-.291-18.805.846-37.6c1.378-22.769-.076-44.39-.312-67.21-.134-12.914-3.273-27.674-12.82-37-9.963-9.727-19.8-3.236-21.222,10.425-1.437,13.792-4.673,24.109-13.613,35.708-10.544,13.679-24.037,24.854-34.7,38.441A121.423,121.423,0,0,0,710.6,743.95Z" fill="#0b2d4e"/>
      <path id="Path_1897" data-name="Path 1897" d="M809.016,659.765c-1.521,9.542-3.788,19.947-3.583,29.634.164,7.739-1.936,17.49-.733,24.967-3.7-22.966-3.187-46.143-5.931-69.183,2.844-2.764,8.045-.679,9.779,2.888S809.64,655.848,809.016,659.765Z" fill="#061f33"/>
      <path id="Path_1898" data-name="Path 1898" d="M780.059,709.575c-5.225,5.046-8.608,13.963-13.357,19.891,5.431,5.3,7.011,12.644,6.1,19.938-.606,4.837-7.072,14.916-3.213,18.72,1.413,1.393,4.769,1.084,6.544,2.354,3,2.145,2.62,6.783,5,8.73,2.711,2.22,11.112,1.814,14.6,2.3-2.892-12.4-4.87-24.208-6.917-36.665-1.047-6.369-2.681-12.624-4.312-18.862C783.044,720.414,780.719,715.316,780.059,709.575Z" fill="#061f33"/>
      <path id="Path_1899" data-name="Path 1899" d="M770.8,625.559c-10.544,13.679-24.037,24.854-34.7,38.441a121.423,121.423,0,0,0-25.5,79.95c.593,12.414,4.436,26.506,15.708,31.741,11.842,5.5,26.658,3.751,39.345,4.691,6.334.469,27.1,2.886,41.123.579-2.872-.244-5.211-.467-6.724-.579-12.687-.94-27.5.808-39.345-4.691-14.84-6.892-29.726-12.371-33.794-30.535a37.289,37.289,0,0,1,15.72-38.445c13.846-32.8,26.592-64.169,46.613-93.788,3.244-4.8,17.254-35.629-.177-32.938-6.626,1.022-5.019,14.548-6.16,19.777A64.217,64.217,0,0,1,770.8,625.559Z" fill="#061f33"/>
      <path id="Path_1900" data-name="Path 1900" d="M837.307,582.095c-16.468,10.26-43.987,10.408-62.378,5.011-17.873-5.245-32.185-20.085-32.438-39.359-.247-18.932,14.032-36.274,31.877-42.6s38.181-2.795,54.741,6.384c14.033,7.778,26.577,21.063,27.278,37.093C856.974,562.072,848.734,574.976,837.307,582.095Z" fill="#0b2d4e"/>
      <path id="Path_1901" data-name="Path 1901" d="M796.8,780.054c1.038-3.651-2.789-11.918-3.7-15.849q-2.267-9.776-4.277-19.608-4.017-19.666-6.995-39.521c-.211-1.393-2.327-.8-2.117.583q3.32,21.936,7.852,43.659,2.171,10.336,4.63,20.611C792.936,773.031,792.936,778.875,796.8,780.054Z" fill="#061f33"/>
      <path id="Path_1902" data-name="Path 1902" d="M782.7,773.952c-3.187-5.033-9.77-7.484-15.713-7.933,6.114-5.2,8.48-13.581,7.46-21.609-1.528-12.024-10.289-21.546-18.159-30.086-.959-1.041-2.509.515-1.552,1.553,6.841,7.424,14.22,15.335,16.866,25.362,2.41,9.13-.01,19.865-8.533,24.883a1.106,1.106,0,0,0,.554,2.045,22.051,22.051,0,0,1,9.112,1.24,21.266,21.266,0,0,1,4,2.047,15.9,15.9,0,0,1,2.874,2.328q2.052,1.584.391,4.641c-1.373-.331-1.959,1.786-.584,2.117C783.816,781.6,784.6,776.956,782.7,773.952Z" fill="#061f33"/>
      <path id="Path_1903" data-name="Path 1903" d="M804.077,587.106c-17.873-5.245-32.186-20.085-32.438-39.359-.247-18.932,14.032-36.274,31.876-42.6,1.653-.586,3.333-1.06,5.023-1.48-11.365-2.559-23.234-2.4-34.17,1.48-17.845,6.328-32.124,23.67-31.877,42.6.253,19.274,14.565,34.114,32.438,39.359a98.175,98.175,0,0,0,40.567,2.455A84.409,84.409,0,0,1,804.077,587.106Z" fill="#061f33"/>
      <path id="Path_1904" data-name="Path 1904" d="M815.965,665.911s.972-87.958,0-91.141-13.864-2.871-16.534-2.749-19.243-.074-19.786,7.8,4.465,208.511,0,211.859-29.4,15.256-113.116,15.256H560.855" fill="none" stroke="#51ba6c" stroke-miterlimit="10" stroke-width="3"/>
      <ellipse id="Ellipse_172" data-name="Ellipse 172" cx="11.254" cy="2.515" rx="11.254" ry="2.515" transform="translate(787.335 569.741)" fill="#0b2d4e"/>
      <path id="Path_1905" data-name="Path 1905" d="M725.881,749.628c-3.567-3.85-13.552-7.348-15.277-8.577a30.945,30.945,0,0,1-10.816-13.972c-4.277-11.14-2.6-23.8,1.579-34.977s10.7-21.3,16.361-31.8c12.246-22.721,20.188-56.11,2.009-78.074-13.775-16.644-40.354-23.542-55.875-5.323-9.509,11.163-5.838,29.622,7.111,36.988,6.615,3.763,20.11,4.309,20.649-6.043.372-7.133-13.837-13.231-4.173-20.954,15.614-12.478,22.809,23.507,23.324,30.957,2.274,32.864-21.481,54.724-25.463,86.157-2.061,16.272,2.793,34.153,16.736,43.942,3.964,2.783,18.263,10.335,23.111,7.124C727.816,753.314,727.553,751.432,725.881,749.628Z" fill="#061f33"/>
      <path id="Path_1906" data-name="Path 1906" d="M802.394,567.1c.653.108,1.437.38,1.53,1.035.085.6-.484,1.072-.989,1.41-1.565,1.044-3.512,3.362-5.562,2.478a7.029,7.029,0,0,1-2.811-2.886,2.42,2.42,0,0,1-.56-2.091C794.625,565.471,801.087,566.883,802.394,567.1Z" fill="#061f33"/>
      <path id="Path_1907" data-name="Path 1907" d="M817.781,772.1c-.91-4.482-4.9-5.807-7.538-9.089-2.855-3.555-2.614-8.584-2.912-12.888l-.813-11.724q-1.589-22.917-3.176-45.832c-.1-1.4-2.293-1.413-2.2,0q1.664,23.982,3.324,47.963c.445,6.413-.173,14.1,2,20.208,1.779,5,8.151,6.8,9.194,11.945C815.945,774.064,818.061,773.478,817.781,772.1Z" fill="#061f33"/>
      <path id="Path_1908" data-name="Path 1908" d="M812.869,590.1a51.691,51.691,0,0,1-28.679-.222c-1.537-.448-2.283,2.087-.743,2.536a54.309,54.309,0,0,0,30,.266C814.988,592.258,814.422,589.676,812.869,590.1Z" fill="#73b8d4"/>
      <path id="Path_1909" data-name="Path 1909" d="M820.233,763.466c-1.253-.648-2.365,1.246-1.108,1.9a7.222,7.222,0,0,1,3.976,5.922c.1,1.4,2.295,1.412,2.2,0A9.455,9.455,0,0,0,820.233,763.466Z" fill="#061f33"/>
      <path id="Path_1910" data-name="Path 1910" d="M828.235,765.456a12.992,12.992,0,0,0-5.79-6.787,1.1,1.1,0,0,0-1.108,1.9,10.643,10.643,0,0,1,4.781,5.475C826.617,767.347,828.74,766.779,828.235,765.456Z" fill="#061f33"/>
      <path id="Path_1911" data-name="Path 1911" d="M806.357,770.719c-1.133-.845-2.229,1.06-1.108,1.9a7.118,7.118,0,0,1,2.776,6.359c-.109,1.409,2.086,1.4,2.195,0A9.334,9.334,0,0,0,806.357,770.719Z" fill="#061f33"/>
      <path id="Path_1912" data-name="Path 1912" d="M810.595,769.434c-1.031-.964-2.587.586-1.552,1.553a8.207,8.207,0,0,1,2.632,6.888c-.118,1.408,2.078,1.4,2.2,0A10.329,10.329,0,0,0,810.595,769.434Z" fill="#061f33"/>
      <path id="Path_1913" data-name="Path 1913" d="M714.123,581.232c-10.265-9.989-31.09-19.172-42.572-5.949-.922,1.062.624,2.622,1.553,1.552,11.08-12.761,31.271-2.638,40.609,7.1,12.571,13.109,15.549,32.518,8.426,49.081-.553,1.284,1.338,2.4,1.9,1.108C731.787,616.095,728.333,595.058,714.123,581.232Z" fill="#0b2d4e"/>
      <line id="Line_137" data-name="Line 137" y1="5.854" x2="52.296" transform="translate(806.776 560.247)" fill="none" stroke="#252755" stroke-miterlimit="10" stroke-width="1"/>
      <line id="Line_138" data-name="Line 138" x2="49.64" y2="2.954" transform="translate(806.776 569.264)" fill="none" stroke="#252755" stroke-miterlimit="10" stroke-width="1"/>
      <line id="Line_139" data-name="Line 139" x1="52.296" y1="5.854" transform="translate(739.244 559.869)" fill="none" stroke="#252755" stroke-miterlimit="10" stroke-width="1"/>
      <line id="Line_140" data-name="Line 140" x1="49.64" y2="2.954" transform="translate(741.9 568.887)" fill="none" stroke="#252755" stroke-miterlimit="10" stroke-width="1"/>
      <rect id="Rectangle_1326" data-name="Rectangle 1326" width="5.986" height="14.97" rx="1.288" transform="translate(812.935 659.911)" fill="#66a6af"/>
    </g>
    <path id="Path_1914" data-name="Path 1914" d="M831.6,786.1H813.907c-4.693,0,42.843-33.569,42.515-11.988s13.067,30.14,19.021,30.14h219.906" fill="none" stroke="#51ba6c" stroke-miterlimit="10" stroke-width="3"/>
    <rect id="Rectangle_1327" data-name="Rectangle 1327" width="5.986" height="14.97" rx="1.288" transform="translate(828.6 789.179) rotate(-90)" fill="#66a6af"/>
    <path id="Path_1915" data-name="Path 1915" d="M788.9,548.162s-7.569,6.945-15.474,6.945-13.154-6.945-13.154-6.945,6.409-6.437,14.314-6.437S788.9,548.162,788.9,548.162Z" fill="#ebf6f1"/>
    <path id="Path_1916" data-name="Path 1916" d="M774.393,554.836a14.124,14.124,0,0,1-2.227-6.792,8.966,8.966,0,0,1,2.227-5.773,8.847,8.847,0,0,1,0,12.565Z" fill="#061f33"/>
    <path id="Path_1917" data-name="Path 1917" d="M836.682,548.162s-7.569,6.945-15.475,6.945-13.153-6.945-13.153-6.945,6.092-6.437,14-6.437S836.682,548.162,836.682,548.162Z" fill="#ebf6f1"/>
    <path id="Path_1918" data-name="Path 1918" d="M822.173,554.836a14.12,14.12,0,0,1-2.228-6.792,8.964,8.964,0,0,1,2.228-5.773,8.85,8.85,0,0,1,0,12.565Z" fill="#061f33"/>
  </g>
</svg>
