<?xml version="1.0" encoding="UTF-8"?>
<svg width="15px" height="30px" viewBox="0 0 15 30" version="1.1" xmlns="http://www.w3.org/2000/svg" xmlns:xlink="http://www.w3.org/1999/xlink">
    <!-- Generator: Sketch 62 (91390) - https://sketch.com -->
    <title>Artboard</title>
    <desc>Created with Sketch.</desc>
    <g id="Artboard" stroke="none" stroke-width="1" fill="none" fill-rule="evenodd">
        <g id="portfolio" fill="#152C53" fill-rule="nonzero" opacity="0.5">
            <g transform="translate(0.000000, 0.270000)">
                <g id="Group_1314" transform="translate(0.000833, 2.563333)">
                    <g id="Group_1313">
                        <path d="M14.0625,-9.60851957e-06 L0.9375,-9.60851957e-06 C0.423002537,-0.00230997504 0.00366983332,0.412177106 -1.28658658e-16,0.926666667 L-1.28658658e-16,9.57333333 C0.00366983332,10.0878229 0.423002537,10.50231 0.9375,10.5000096 L14.0625,10.5000096 C14.5769975,10.50231 14.9963302,10.0878229 15,9.57333333 L15,0.926666667 C14.9963302,0.412177106 14.5769975,-0.00230997504 14.0625,-9.60851957e-06 Z M14.375,9.57333333 C14.3745592,9.65577183 14.3413872,9.7346586 14.2827818,9.79263885 C14.2241764,9.8506191 14.1449385,9.88294321 14.0625,9.8825045 L0.9375,9.8825045 C0.855061517,9.88294321 0.775823562,9.8506191 0.717218185,9.79263885 C0.658612809,9.7346586 0.625440844,9.65577183 0.625,9.57333333 L0.625,0.926666667 C0.625440844,0.844228171 0.658612809,0.765341401 0.717218185,0.707361148 C0.775823562,0.649380896 0.855061517,0.617056786 0.9375,0.617495502 L14.0625,0.617495502 C14.1449385,0.617056786 14.2241764,0.649380896 14.2827818,0.707361148 C14.3413872,0.765341401 14.3745592,0.844228171 14.375,0.926666667 L14.375,9.57333333 Z" id="Path_894"></path>
                    </g>
                </g>
                <g id="Group_1316" transform="translate(4.833333, 0.563333)">
                    <g id="Group_1315">
                        <path d="M4.33416667,0 L1.00083333,0 C0.448548584,0 0.000833333333,0.44771525 0.000833333333,1 L0.000833333333,2.33333333 C0.000833333333,2.51742825 0.15007175,2.66666667 0.334166667,2.66666667 L5.00083333,2.66666667 C5.18492825,2.66666667 5.33416667,2.51742825 5.33416667,2.33333333 L5.33416667,1 C5.33416667,0.44771525 4.88645142,0 4.33416667,0 L4.33416667,0 Z M4.6675,2 L0.6675,2 L0.6675,1 C0.6675,0.815905083 0.816738417,0.666666667 1.00083333,0.666666667 L4.33416667,0.666666667 C4.51826158,0.666666667 4.6675,0.815905083 4.6675,1 L4.6675,2 L4.6675,2 Z" id="Path_895"></path>
                    </g>
                </g>
                <g id="Group_1318" transform="translate(0.000000, 6.108333)">
                    <g id="Group_1317">
                        <path d="M14.9908333,0.249166667 C14.9730078,0.166447657 14.9224838,0.0944549325 14.8507544,0.0495652278 C14.779025,0.00467552305 14.6921892,-0.00929438923 14.61,0.0108333333 L9.63083333,1.39666667 C8.23762268,1.78468246 6.76487732,1.78468246 5.37166667,1.39666667 L0.391666667,0.01 C0.309462434,-0.0103708474 0.222510383,0.00349530459 0.150719339,0.048423617 C0.0789282941,0.0933519293 0.0284468254,0.1654945 0.0108333333,0.248333333 C-0.0367526552,0.42195671 0.0621204523,0.601994309 0.234166667,0.655 L5.2125,2.04083333 C6.70912441,2.45687548 8.29087559,2.45687548 9.7875,2.04083333 L14.7658333,0.655 C14.9381382,0.602700434 15.0377603,0.42301162 14.9908333,0.249166667 L14.9908333,0.249166667 Z" id="Path_896"></path>
                    </g>
                </g>
                <g id="Group_1320" transform="translate(6.167500, 4.865000)">
                    <g id="Group_1319">
                        <path d="M1.33333333,0 C0.596953667,0 0,0.596953667 0,1.33333333 C0,2.069713 0.596953667,2.66666667 1.33333333,2.66666667 C2.069713,2.66666667 2.66666667,2.069713 2.66666667,1.33333333 C2.66666667,0.596953667 2.069713,0 1.33333333,0 Z M1.33333333,2 C0.9651435,2 0.666666667,1.70152317 0.666666667,1.33333333 C0.666666667,0.9651435 0.9651435,0.666666667 1.33333333,0.666666667 C1.70152317,0.666666667 2,0.9651435 2,1.33333333 C2,1.70152317 1.70152317,2 1.33333333,2 Z" id="Path_897"></path>
                    </g>
                </g>
            </g>
        </g>
        <g id="portfolio" transform="translate(0.000000, 15.000000)" fill="#51BA6C" fill-rule="nonzero">
            <g transform="translate(0.000000, 0.270000)">
                <g id="Group_1314" transform="translate(0.000833, 2.563333)">
                    <g id="Group_1313">
                        <path d="M14.0625,-9.60851957e-06 L0.9375,-9.60851957e-06 C0.423002537,-0.00230997504 0.00366983332,0.412177106 -1.28658658e-16,0.926666667 L-1.28658658e-16,9.57333333 C0.00366983332,10.0878229 0.423002537,10.50231 0.9375,10.5000096 L14.0625,10.5000096 C14.5769975,10.50231 14.9963302,10.0878229 15,9.57333333 L15,0.926666667 C14.9963302,0.412177106 14.5769975,-0.00230997504 14.0625,-9.60851957e-06 Z M14.375,9.57333333 C14.3745592,9.65577183 14.3413872,9.7346586 14.2827818,9.79263885 C14.2241764,9.8506191 14.1449385,9.88294321 14.0625,9.8825045 L0.9375,9.8825045 C0.855061517,9.88294321 0.775823562,9.8506191 0.717218185,9.79263885 C0.658612809,9.7346586 0.625440844,9.65577183 0.625,9.57333333 L0.625,0.926666667 C0.625440844,0.844228171 0.658612809,0.765341401 0.717218185,0.707361148 C0.775823562,0.649380896 0.855061517,0.617056786 0.9375,0.617495502 L14.0625,0.617495502 C14.1449385,0.617056786 14.2241764,0.649380896 14.2827818,0.707361148 C14.3413872,0.765341401 14.3745592,0.844228171 14.375,0.926666667 L14.375,9.57333333 Z" id="Path_894"></path>
                    </g>
                </g>
                <g id="Group_1316" transform="translate(4.833333, 0.563333)">
                    <g id="Group_1315">
                        <path d="M4.33416667,0 L1.00083333,0 C0.448548584,0 0.000833333333,0.44771525 0.000833333333,1 L0.000833333333,2.33333333 C0.000833333333,2.51742825 0.15007175,2.66666667 0.334166667,2.66666667 L5.00083333,2.66666667 C5.18492825,2.66666667 5.33416667,2.51742825 5.33416667,2.33333333 L5.33416667,1 C5.33416667,0.44771525 4.88645142,0 4.33416667,0 L4.33416667,0 Z M4.6675,2 L0.6675,2 L0.6675,1 C0.6675,0.815905083 0.816738417,0.666666667 1.00083333,0.666666667 L4.33416667,0.666666667 C4.51826158,0.666666667 4.6675,0.815905083 4.6675,1 L4.6675,2 L4.6675,2 Z" id="Path_895"></path>
                    </g>
                </g>
                <g id="Group_1318" transform="translate(0.000000, 6.108333)">
                    <g id="Group_1317">
                        <path d="M14.9908333,0.249166667 C14.9730078,0.166447657 14.9224838,0.0944549325 14.8507544,0.0495652278 C14.779025,0.00467552305 14.6921892,-0.00929438923 14.61,0.0108333333 L9.63083333,1.39666667 C8.23762268,1.78468246 6.76487732,1.78468246 5.37166667,1.39666667 L0.391666667,0.01 C0.309462434,-0.0103708474 0.222510383,0.00349530459 0.150719339,0.048423617 C0.0789282941,0.0933519293 0.0284468254,0.1654945 0.0108333333,0.248333333 C-0.0367526552,0.42195671 0.0621204523,0.601994309 0.234166667,0.655 L5.2125,2.04083333 C6.70912441,2.45687548 8.29087559,2.45687548 9.7875,2.04083333 L14.7658333,0.655 C14.9381382,0.602700434 15.0377603,0.42301162 14.9908333,0.249166667 L14.9908333,0.249166667 Z" id="Path_896"></path>
                    </g>
                </g>
                <g id="Group_1320" transform="translate(6.167500, 4.865000)">
                    <g id="Group_1319">
                        <path d="M1.33333333,0 C0.596953667,0 0,0.596953667 0,1.33333333 C0,2.069713 0.596953667,2.66666667 1.33333333,2.66666667 C2.069713,2.66666667 2.66666667,2.069713 2.66666667,1.33333333 C2.66666667,0.596953667 2.069713,0 1.33333333,0 Z M1.33333333,2 C0.9651435,2 0.666666667,1.70152317 0.666666667,1.33333333 C0.666666667,0.9651435 0.9651435,0.666666667 1.33333333,0.666666667 C1.70152317,0.666666667 2,0.9651435 2,1.33333333 C2,1.70152317 1.70152317,2 1.33333333,2 Z" id="Path_897"></path>
                    </g>
                </g>
            </g>
        </g>
    </g>
</svg>