<svg xmlns="http://www.w3.org/2000/svg" width="20.003" height="17.796" viewBox="0 0 20.003 17.796">
  <path id="heart" d="M10,17.8a1.173,1.173,0,0,1-.773-.291c-.808-.707-1.587-1.371-2.274-1.956l0,0a42.3,42.3,0,0,1-4.966-4.661A7.445,7.445,0,0,1,0,6.011a6.252,6.252,0,0,1,1.587-4.27A5.379,5.379,0,0,1,5.588,0,5.031,5.031,0,0,1,8.731,1.085,6.43,6.43,0,0,1,10,2.412a6.431,6.431,0,0,1,1.271-1.327A5.031,5.031,0,0,1,14.415,0a5.379,5.379,0,0,1,4,1.742A6.252,6.252,0,0,1,20,6.011a7.444,7.444,0,0,1-1.984,4.873,42.293,42.293,0,0,1-4.966,4.661c-.689.587-1.469,1.252-2.279,1.96A1.174,1.174,0,0,1,10,17.8ZM5.588,1.172Z" fill="#51ba6c"/>
</svg>
