<svg xmlns="http://www.w3.org/2000/svg" xmlns:xlink="http://www.w3.org/1999/xlink" width="463.457" height="360.641" viewBox="0 0 463.457 360.641">
  <defs>
    <clipPath id="clip-path">
      <path id="Path_1417" data-name="Path 1417" d="M641.159,328.712c-2.371-.014-4.673-.319-6.3-2.646-3.189-4.566-8.055-8.665-13.514-4.022-3.148,2.678-.781,8.188-3.49,10.837-2.4,2.344-5.443,1.956-6.668,5.846-1.8,5.722,3.878,10.736,5.7,15.684,1.531,4.152-1.912,5.735-3.458,8.971-1.192,2.495-.579,5.167.72,7.551,2.291,4.2,7.371,7.591,6.194,13.036-.983,4.544-1.9,8.595,2.114,12.039,2.748,2.361,7.849,4.512,7.46,8.883-.137,1.546-1.208,2.864-1.5,4.389-.464,2.413,1.1,4.762,2.914,6.417a62.011,62.011,0,0,1,10.85,12.062c1.322,2.026,6.614,6.6,4.5,9.37,3.844-5.035,7.908-9.916,11.4-15.208,2.873-4.353,7.2-10.719,4.256-16.08-.917-1.668-2.622-2.91-3.09-4.755-.843-3.331,2.43-6.42,3.646-9.254a11.9,11.9,0,0,0-2.857-12.958c-1.592-1.58-3.319-3.318-3.553-5.549-.256-2.436,1.272-4.708,1.965-6.955a34.659,34.659,0,0,0,1.27-6.426,13.359,13.359,0,0,0-.129-4.561c-.68-2.827-3.225-4.4-5.109-6.4-4.485-4.774-2.127-10.388-4.086-15.936C648.638,328.062,644.816,328.733,641.159,328.712Z" transform="translate(-610.841 -320)" fill="#1d7e8e"/>
    </clipPath>
    <clipPath id="clip-path-2">
      <path id="Path_1426" data-name="Path 1426" d="M680,375.392c1.722.318,3.434.415,4.934-1.047,2.945-2.871,7.043-5.171,10.359-1.047,1.912,2.378-.567,6.047,1.032,8.344,1.413,2.031,3.677,2.172,4.027,5.163.516,4.4-4.3,7.251-6.307,10.588-1.685,2.8.593,4.424,1.267,6.985a6.03,6.03,0,0,1-1.567,5.378c-2.244,2.733-6.4,4.486-6.3,8.6.084,3.432.186,6.5-3.2,8.44-2.321,1.332-6.318,2.187-6.641,5.411-.114,1.141.479,2.245.481,3.391,0,1.814-1.455,3.3-3,4.251a45.77,45.77,0,0,0-9.541,7.248c-1.239,1.286-5.71,3.872-4.56,6.173-2.092-4.184-4.363-8.287-6.165-12.609-1.481-3.555-3.742-8.773-.861-12.253.9-1.082,2.305-1.747,2.9-3.022,1.073-2.3-.873-4.993-1.364-7.217a8.787,8.787,0,0,1,3.866-9c1.373-.926,2.868-1.948,3.346-3.533.522-1.732-.272-3.592-.463-5.318a25.579,25.579,0,0,1-.032-4.837,9.863,9.863,0,0,1,.725-3.29c.884-1.956,2.947-2.743,4.592-3.938,3.914-2.842,2.981-7.24,5.17-10.994C674.667,373.885,677.346,374.9,680,375.392Z" transform="translate(-652.573 -371.057)" fill="#00a09d"/>
    </clipPath>
    <linearGradient id="linear-gradient" x1="0.45" y1="0.264" x2="0.612" y2="0.866" gradientUnits="objectBoundingBox">
      <stop offset="0" stop-color="#a5a2a8"/>
      <stop offset="0.123" stop-color="#a5a2a8" stop-opacity="0.925"/>
      <stop offset="0.348" stop-color="#a5a2a8" stop-opacity="0.733"/>
      <stop offset="0.65" stop-color="#a5a2a8" stop-opacity="0.416"/>
      <stop offset="1" stop-color="#a5a2a8" stop-opacity="0"/>
    </linearGradient>
    <linearGradient id="linear-gradient-2" x1="0.19" y1="-0.254" x2="0.599" y2="0.667" gradientUnits="objectBoundingBox">
      <stop offset="0" stop-color="#a5a2a8"/>
      <stop offset="0.137" stop-color="#a5a2a8" stop-opacity="0.973"/>
      <stop offset="0.293" stop-color="#a5a2a8" stop-opacity="0.89"/>
      <stop offset="0.458" stop-color="#a5a2a8" stop-opacity="0.753"/>
      <stop offset="0.63" stop-color="#a5a2a8" stop-opacity="0.565"/>
      <stop offset="0.807" stop-color="#a5a2a8" stop-opacity="0.322"/>
      <stop offset="0.986" stop-color="#a5a2a8" stop-opacity="0.024"/>
      <stop offset="1" stop-color="#a5a2a8" stop-opacity="0"/>
    </linearGradient>
  </defs>
  <g id="Group_1862" data-name="Group 1862" transform="translate(-730.414 -146.659)">
    <path id="Path_1404" data-name="Path 1404" d="M97.6,61.049A127.313,127.313,0,0,0,44.414,88.534c-.149.13-.3.259-.453.389-2.2,1.916-4.36,3.887-6.451,5.978a128.075,128.075,0,0,0,0,181.122h0l.135.125A128.048,128.048,0,0,0,216.039,278.5c.866-.821,1.747-1.622,2.6-2.474l.02-.02c1.922-1.921,3.738-3.9,5.5-5.9.5-.568.991-1.145,1.478-1.722q2.068-2.426,4-4.928c.358-.473.737-.936,1.09-1.414q2.442-3.262,4.659-6.64c.094-.149.184-.3.279-.453q2.1-3.248,3.972-6.59c.2-.348.393-.7.587-1.05A127.949,127.949,0,0,0,218.637,94.9L123.736,0C93.627,30.109,97.5,60.313,97.6,61.049ZM175.014,232.4a66.38,66.38,0,1,1,0-93.876A66.435,66.435,0,0,1,175.014,232.4Z" transform="translate(824.195 146.659)" fill="#51ba6c" opacity="0.3"/>
    <g id="Group_1631" data-name="Group 1631" transform="translate(496.701 66.126)">
      <g id="Group_1439" data-name="Group 1439" transform="translate(286.648 396.984)">
        <g id="Group_1438" data-name="Group 1438" transform="translate(0)">
          <g id="Group_1437" data-name="Group 1437">
            <g id="Group_1433" data-name="Group 1433" transform="translate(0 0)">
              <path id="Rectangle_1043" data-name="Rectangle 1043" d="M0,0H28.355a0,0,0,0,1,0,0V26.437A14.177,14.177,0,0,1,14.177,40.615h0A14.177,14.177,0,0,1,0,26.437V0A0,0,0,0,1,0,0Z" fill="#00a09d"/>
            </g>
            <g id="Group_1434" data-name="Group 1434" transform="translate(18.023 9.186)">
              <path id="Path_1406" data-name="Path 1406" d="M360.054,481.212A12.494,12.494,0,1,0,372.364,493.7,12.4,12.4,0,0,0,360.054,481.212Zm0,20.53a8.038,8.038,0,1,1,7.921-8.038A7.98,7.98,0,0,1,360.054,501.742Z" transform="translate(-347.742 -481.212)" fill="#00a09d"/>
            </g>
            <g id="Group_1435" data-name="Group 1435" transform="translate(2.707 2.367)" opacity="0.2">
              <path id="Path_1407" data-name="Path 1407" d="M329.309,495.155h0a1.537,1.537,0,0,1-1.533-1.533V473.856a1.537,1.537,0,0,1,1.533-1.533h0a1.537,1.537,0,0,1,1.533,1.533v19.766A1.537,1.537,0,0,1,329.309,495.155Z" transform="translate(-327.776 -472.323)" fill="#fff"/>
            </g>
            <g id="Group_1436" data-name="Group 1436" transform="translate(14.625)">
              <path id="Path_1408" data-name="Path 1408" d="M350.493,469.237v33.434a7.181,7.181,0,0,1-7.181,7.181h6.549a7.18,7.18,0,0,0,7.18-7.181V469.237Z" transform="translate(-343.312 -469.237)" fill="#1d7e8e"/>
            </g>
          </g>
        </g>
      </g>
      <g id="Group_1463" data-name="Group 1463" transform="translate(506.5 282.501)">
        <g id="Group_1449" data-name="Group 1449">
          <path id="Path_1409" data-name="Path 1409" d="M641.159,328.712c-2.371-.014-4.673-.319-6.3-2.646-3.189-4.566-8.055-8.665-13.514-4.022-3.148,2.678-.781,8.188-3.49,10.837-2.4,2.344-5.443,1.956-6.668,5.846-1.8,5.722,3.878,10.736,5.7,15.684,1.531,4.152-1.912,5.735-3.458,8.971-1.192,2.495-.579,5.167.72,7.551,2.291,4.2,7.371,7.591,6.194,13.036-.983,4.544-1.9,8.595,2.114,12.039,2.748,2.361,7.849,4.512,7.46,8.883-.137,1.546-1.208,2.864-1.5,4.389-.464,2.413,1.1,4.762,2.914,6.417a62.011,62.011,0,0,1,10.85,12.062c1.322,2.026,6.614,6.6,4.5,9.37,3.844-5.035,7.908-9.916,11.4-15.208,2.873-4.353,7.2-10.719,4.256-16.08-.917-1.668-2.622-2.91-3.09-4.755-.843-3.331,2.43-6.42,3.646-9.254a11.9,11.9,0,0,0-2.857-12.958c-1.592-1.58-3.319-3.318-3.553-5.549-.256-2.436,1.272-4.708,1.965-6.955a34.659,34.659,0,0,0,1.27-6.426,13.359,13.359,0,0,0-.129-4.561c-.68-2.827-3.225-4.4-5.109-6.4-4.485-4.774-2.127-10.388-4.086-15.936C648.638,328.062,644.816,328.733,641.159,328.712Z" transform="translate(-610.841 -320)" fill="#1d7e8e"/>
          <g id="Group_1448" data-name="Group 1448" clip-path="url(#clip-path)">
            <g id="Group_1447" data-name="Group 1447" transform="translate(-4.279 -3.925)">
              <g id="Group_1440" data-name="Group 1440" transform="translate(14.819)">
                <path id="Path_1410" data-name="Path 1410" d="M650.813,441.652l-.9-.079c1.54-17.643.4-36.821-3.384-57-3.948-21.042-8.538-37.834-14.448-52.843a163.367,163.367,0,0,0-7.5-16.42l.8-.424a164.117,164.117,0,0,1,7.538,16.512c5.931,15.064,10.537,31.908,14.5,53.008C651.217,404.665,652.36,423.926,650.813,441.652Z" transform="translate(-624.581 -314.884)" fill="#00a09d"/>
              </g>
              <g id="Group_1441" data-name="Group 1441" transform="translate(0 25.379)">
                <path id="Path_1411" data-name="Path 1411" d="M636.659,365.88a14.765,14.765,0,0,0-3.317-2.6c-.469-.295-1-.628-1.6-1.037a114.6,114.6,0,0,0-26.479-13.425l.3-.856A115.564,115.564,0,0,1,632.254,361.5c.584.4,1.085.713,1.57,1.018a15.493,15.493,0,0,1,3.493,2.739Z" transform="translate(-605.263 -347.967)" fill="#00a09d"/>
              </g>
              <g id="Group_1442" data-name="Group 1442" transform="translate(6.269 51.464)">
                <path id="Path_1412" data-name="Path 1412" d="M643.1,394.317a78.585,78.585,0,0,0-29.664-11.45l.147-.9a79.516,79.516,0,0,1,30.01,11.584Z" transform="translate(-613.435 -381.971)" fill="#00a09d"/>
              </g>
              <g id="Group_1443" data-name="Group 1443" transform="translate(10.182 72.817)">
                <path id="Path_1413" data-name="Path 1413" d="M647.8,425.384a66.69,66.69,0,0,0-29.267-14.69l.195-.887A67.6,67.6,0,0,1,648.4,424.7Z" transform="translate(-618.536 -409.807)" fill="#00a09d"/>
              </g>
              <g id="Group_1444" data-name="Group 1444" transform="translate(30.805 12.885)">
                <path id="Path_1414" data-name="Path 1414" d="M646.326,361.176l-.906-.059a83.563,83.563,0,0,1,7.417-29.437l.825.377A82.665,82.665,0,0,0,646.326,361.176Z" transform="translate(-645.42 -331.68)" fill="#00a09d"/>
              </g>
              <g id="Group_1445" data-name="Group 1445" transform="translate(35.654 38.239)">
                <path id="Path_1415" data-name="Path 1415" d="M652.563,389.281l-.822-.384a74.659,74.659,0,0,1,18.083-24.165l.6.681A73.742,73.742,0,0,0,652.563,389.281Z" transform="translate(-651.741 -364.732)" fill="#00a09d"/>
              </g>
              <g id="Group_1446" data-name="Group 1446" transform="translate(39.86 67.036)">
                <path id="Path_1416" data-name="Path 1416" d="M658.113,424.079l-.889-.186a28.061,28.061,0,0,1,3.1-8.176,50,50,0,0,1,6.1-8.078c1.593-1.81,3.232-3.616,4.871-5.369l.664.62c-1.633,1.746-3.266,3.546-4.853,5.349a49.217,49.217,0,0,0-5.994,7.927A27.134,27.134,0,0,0,658.113,424.079Z" transform="translate(-657.224 -402.271)" fill="#00a09d"/>
              </g>
            </g>
          </g>
        </g>
        <g id="Group_1459" data-name="Group 1459" transform="translate(32.014 39.167)">
          <path id="Path_1418" data-name="Path 1418" d="M680,375.392c1.722.318,3.434.415,4.934-1.047,2.945-2.871,7.043-5.171,10.359-1.047,1.912,2.378-.567,6.047,1.032,8.344,1.413,2.031,3.677,2.172,4.027,5.163.516,4.4-4.3,7.251-6.307,10.588-1.685,2.8.593,4.424,1.267,6.985a6.03,6.03,0,0,1-1.567,5.378c-2.244,2.733-6.4,4.486-6.3,8.6.084,3.432.186,6.5-3.2,8.44-2.321,1.332-6.318,2.187-6.641,5.411-.114,1.141.479,2.245.481,3.391,0,1.814-1.455,3.3-3,4.251a45.77,45.77,0,0,0-9.541,7.248c-1.239,1.286-5.71,3.872-4.56,6.173-2.092-4.184-4.363-8.287-6.165-12.609-1.481-3.555-3.742-8.773-.861-12.253.9-1.082,2.305-1.747,2.9-3.022,1.073-2.3-.873-4.993-1.364-7.217a8.787,8.787,0,0,1,3.866-9c1.373-.926,2.868-1.948,3.346-3.533.522-1.732-.272-3.592-.463-5.318a25.579,25.579,0,0,1-.032-4.837,9.863,9.863,0,0,1,.725-3.29c.884-1.956,2.947-2.743,4.592-3.938,3.914-2.842,2.981-7.24,5.17-10.994C674.667,373.885,677.346,374.9,680,375.392Z" transform="translate(-652.573 -371.057)" fill="#00a09d"/>
          <g id="Group_1458" data-name="Group 1458" clip-path="url(#clip-path-2)">
            <g id="Group_1457" data-name="Group 1457" transform="translate(5.206 -2.279)">
              <g id="Group_1450" data-name="Group 1450" transform="translate(1.626)">
                <path id="Path_1419" data-name="Path 1419" d="M662.382,456.674l-.9-.091a156.685,156.685,0,0,1,10.4-41.088c5.794-14.765,11.47-26.351,17.862-36.464a121.43,121.43,0,0,1,7.761-10.945l.709.567a120.351,120.351,0,0,0-7.7,10.863c-6.361,10.062-12.012,21.6-17.785,36.311A155.793,155.793,0,0,0,662.382,456.674Z" transform="translate(-661.479 -368.086)" fill="#1d7e8e"/>
              </g>
              <g id="Group_1451" data-name="Group 1451" transform="translate(19.842 20.486)">
                <path id="Path_1420" data-name="Path 1420" d="M685.754,403.7l-.529-.737a11.5,11.5,0,0,1,2.939-1.517c.393-.153.8-.312,1.276-.519a85.441,85.441,0,0,1,21.262-6.13l.136.9a84.532,84.532,0,0,0-21.036,6.065c-.493.214-.926.384-1.308.532A10.64,10.64,0,0,0,685.754,403.7Z" transform="translate(-685.225 -394.791)" fill="#1d7e8e"/>
              </g>
              <g id="Group_1452" data-name="Group 1452" transform="translate(13.873 38.542)">
                <path id="Path_1421" data-name="Path 1421" d="M677.786,423.445l-.341-.841a58.836,58.836,0,0,1,23.42-4.258l-.023.908A57.905,57.905,0,0,0,677.786,423.445Z" transform="translate(-677.445 -418.328)" fill="#1d7e8e"/>
              </g>
              <g id="Group_1453" data-name="Group 1453" transform="translate(7.822 53.501)">
                <path id="Path_1422" data-name="Path 1422" d="M670.011,445.325l-.455-.785a50.034,50.034,0,0,1,23.637-6.711l.025.907A49.123,49.123,0,0,0,670.011,445.325Z" transform="translate(-669.556 -437.829)" fill="#1d7e8e"/>
              </g>
              <g id="Group_1454" data-name="Group 1454" transform="translate(18.792 6.264)">
                <path id="Path_1423" data-name="Path 1423" d="M686.046,398.673l-.9-.112a60.92,60.92,0,0,0-1.289-22.094l.882-.216A61.83,61.83,0,0,1,686.046,398.673Z" transform="translate(-683.857 -376.251)" fill="#1d7e8e"/>
              </g>
              <g id="Group_1455" data-name="Group 1455" transform="translate(4.171 22.464)">
                <path id="Path_1424" data-name="Path 1424" d="M674.429,417.668a54.339,54.339,0,0,0-9.632-19.743l.717-.556a55.242,55.242,0,0,1,9.794,20.075Z" transform="translate(-664.797 -397.369)" fill="#1d7e8e"/>
              </g>
              <g id="Group_1456" data-name="Group 1456" transform="translate(0 43.334)">
                <path id="Path_1425" data-name="Path 1425" d="M666.453,442.285a19.925,19.925,0,0,0-1.075-6.118,36.217,36.217,0,0,0-3.24-6.558c-.9-1.526-1.835-3.056-2.778-4.549l.767-.485c.948,1.5,1.887,3.039,2.792,4.573a37,37,0,0,1,3.317,6.725,20.825,20.825,0,0,1,1.124,6.4Z" transform="translate(-659.36 -424.575)" fill="#1d7e8e"/>
              </g>
            </g>
          </g>
        </g>
        <g id="Group_1460" data-name="Group 1460" transform="translate(22.553 120.555)">
          <path id="Path_1427" data-name="Path 1427" d="M640.241,477.152h35.191l-6.174,35.217H646.415Z" transform="translate(-640.241 -477.152)" fill="#9d786a"/>
        </g>
        <g id="Group_1461" data-name="Group 1461" transform="translate(18.245 110.67)">
          <rect id="Rectangle_1044" data-name="Rectangle 1044" width="43.807" height="9.885" transform="translate(43.807 9.885) rotate(180)" fill="#94624f"/>
        </g>
        <g id="Group_1462" data-name="Group 1462" transform="translate(22.553 120.555)" opacity="0.1">
          <path id="Path_1428" data-name="Path 1428" d="M674.613,481.823H641.06l-.819-4.67h35.191Z" transform="translate(-640.241 -477.152)" fill="#231f20"/>
        </g>
      </g>
      <g id="Group_1479" data-name="Group 1479" transform="translate(363.269 232.963)">
        <g id="Group_1470" data-name="Group 1470" transform="translate(61.45 28.522)">
          <g id="Group_1469" data-name="Group 1469">
            <g id="Group_1468" data-name="Group 1468">
              <g id="Group_1467" data-name="Group 1467">
                <path id="Path_1437" data-name="Path 1437" d="M522.118,292.6s-27.644,26.307-14.2,46.79,19.742,2.541,19.742,2.541,9.1,2.746-4.4-22.509C516.9,307.523,522.118,292.6,522.118,292.6Z" transform="translate(-504.233 -292.604)" fill="#bbd070"/>
              </g>
            </g>
          </g>
        </g>
        <g id="Group_1474" data-name="Group 1474" transform="translate(20.635 0)">
          <g id="Group_1473" data-name="Group 1473">
            <g id="Group_1472" data-name="Group 1472">
              <g id="Group_1471" data-name="Group 1471">
                <path id="Path_1438" data-name="Path 1438" d="M458.613,255.424s-21.117,24.818,7.117,59.185,23.857,52.534,23.857,52.534S528.889,307.392,458.613,255.424Z" transform="translate(-451.028 -255.424)" fill="#8cc9c4"/>
              </g>
            </g>
          </g>
        </g>
        <g id="Group_1478" data-name="Group 1478" transform="translate(0 30.151)">
          <g id="Group_1477" data-name="Group 1477">
            <g id="Group_1476" data-name="Group 1476">
              <g id="Group_1475" data-name="Group 1475">
                <path id="Path_1439" data-name="Path 1439" d="M489.689,365.921c13.138,2.657,2.508-35.547-17.2-47.194s-37.33-12.783-48.366-24C424.128,294.728,424.988,352.837,489.689,365.921Z" transform="translate(-424.128 -294.728)" fill="#8fb6be"/>
              </g>
            </g>
          </g>
        </g>
      </g>
      <g id="Group_1489" data-name="Group 1489" transform="translate(394.375 213.781)">
        <g id="Group_1480" data-name="Group 1480" transform="translate(7.843)">
          <path id="Path_1440" data-name="Path 1440" d="M558.512,285.62s13.3-39-12.078-51.086-46.922,5.387-50.991,14.843-2.992,26.651.479,38.642,2.966,30.243-4.574,36.348-16.892,16.243-16.429,36.882c.288,12.8,50.384-32.751,50.384-32.751Z" transform="translate(-474.901 -230.418)" fill="#252e3b"/>
        </g>
        <g id="Group_1481" data-name="Group 1481" transform="translate(0 100.536)">
          <path id="Path_1441" data-name="Path 1441" d="M520.476,362.529s-20.856,4.623-29.136,9.462-26.662,27.092-26.662,36.661,80.4,18.508,80.4,18.508l15.239,55.635s40.637-9.916,45.474-18.141-15.434-67.168-18.9-79.1c-3.54-12.169-18.1-20.654-35.037-23.027A116.275,116.275,0,0,0,520.476,362.529Z" transform="translate(-464.678 -361.475)" fill="#8490a5"/>
        </g>
        <g id="Group_1482" data-name="Group 1482" transform="translate(48.871 99.918)">
          <path id="Path_1442" data-name="Path 1442" d="M565.239,362.149s-.469,25.35-20.574,26.1-15.919-24.315-15.919-24.315S543.451,357.98,565.239,362.149Z" transform="translate(-528.385 -360.668)" fill="#eea886"/>
        </g>
        <g id="Group_1483" data-name="Group 1483" transform="translate(74.272 24.903)">
          <path id="Path_1443" data-name="Path 1443" d="M581.456,262.881s7.111,40.772-13.141,70.225C547.34,363.608,581.456,262.881,581.456,262.881Z" transform="translate(-561.497 -262.881)" fill="#252e3b"/>
        </g>
        <g id="Group_1484" data-name="Group 1484" transform="translate(51.624 75.155)">
          <path id="Path_1444" data-name="Path 1444" d="M561.76,336.709s-1.4,12.126.937,19.667-30.74,7.75-30.722,1.549c.021-7.044,3.384-12.928.216-25S561.76,336.709,561.76,336.709Z" transform="translate(-531.974 -328.388)" fill="#eea886"/>
        </g>
        <g id="Group_1485" data-name="Group 1485" transform="translate(55.754 85.022)">
          <path id="Path_1445" data-name="Path 1445" d="M537.358,341.251s10.443,10.879,23.8,1.135c0,0-1.1,6.954-10.707,7.852S537.358,341.251,537.358,341.251Z" transform="translate(-537.358 -341.251)" fill="#a77860"/>
        </g>
        <g id="Group_1486" data-name="Group 1486" transform="translate(39.489 10.237)">
          <path id="Path_1446" data-name="Path 1446" d="M545.5,244.292s26.391,7.81,22.621,44.436-21.005,34.74-22.621,35.01-22.084,1.616-28.547-42.819S545.5,244.292,545.5,244.292Z" transform="translate(-516.155 -243.763)" fill="#eea886"/>
        </g>
        <g id="Group_1487" data-name="Group 1487" transform="translate(37.573 7.983)">
          <path id="Path_1447" data-name="Path 1447" d="M538.1,259.939s14.341,22.813,29.434,28.1c0,0,8.242-38.279-25.8-46.3s-28.708,38.663-26.167,51.112A101.157,101.157,0,0,1,538.1,259.939Z" transform="translate(-513.658 -240.824)" fill="#252e3b"/>
        </g>
        <g id="Group_1488" data-name="Group 1488" transform="translate(42.784 6.343)">
          <path id="Path_1448" data-name="Path 1448" d="M520.45,256.005s7.549-14.62,20.3-15.273,20.327,10.405,20.327,10.405-4.976-12.451-20.312-12.451S520.45,256.005,520.45,256.005Z" transform="translate(-520.45 -238.687)" fill="#51ba6c"/>
        </g>
      </g>
      <g id="Group_1536" data-name="Group 1536" transform="translate(259.772 319.323)">
        <g id="Group_1490" data-name="Group 1490" transform="translate(48.27 113.5)">
          <path id="Path_1449" data-name="Path 1449" d="M357.862,516.257a7.468,7.468,0,0,1-3.078,2.063c-1.551.357-2.636.814-2.647,1.792s4.463,1.624,6.238.638c2.648-1.473,2.918-1.029,3.211-1.765s-.353-2.7-.334-2.938C361.276,515.756,357.862,516.257,357.862,516.257Z" transform="translate(-352.136 -515.956)" fill="#202338"/>
        </g>
        <g id="Group_1491" data-name="Group 1491" transform="translate(64.439 114.126)">
          <path id="Path_1450" data-name="Path 1450" d="M378.356,516.892a5.479,5.479,0,0,1-2.627,2.044c-1.482.378-2.443,1.1-2.515,2.048s3.495,2.2,6,.526c1.647-1.1,2.261-1.036,2.593-1.733s-.174-2.653-.14-2.879C381.708,516.619,378.356,516.892,378.356,516.892Z" transform="translate(-373.213 -516.772)" fill="#202338"/>
        </g>
        <path id="Path_1451" data-name="Path 1451" d="M362.762,514.658s-2.135.814-2.99.239l-.264,1.134a3.162,3.162,0,0,0,1.871.249,2.961,2.961,0,0,0,1.589-.536Z" transform="translate(-305.582 -402.154)" fill="#202338"/>
        <path id="Path_1452" data-name="Path 1452" d="M383,515.2s-2.453.911-3.1.193l-.11,1.27s.242.394,1.2.346a9.92,9.92,0,0,0,2.208-.476Z" transform="translate(-310.305 -402.279)" fill="#202338"/>
        <g id="Group_1492" data-name="Group 1492" transform="translate(53.926 61.476)">
          <path id="Path_1453" data-name="Path 1453" d="M362.9,451.815s-1.554,11.252-2.209,15.441c-.766,4.9-.9,7.6-1.116,10.133-.269,3.189.363,21.326.175,22.259s3.012-.481,3.012-.481,2.795-19.875,3.6-23.271c.745-3.162,3.511-16.776,4.191-15.912s1.524,15.887,2.028,18.381,2.634,21.723,2.634,21.723,2.133.482,3.056-.3c0,0,1.161-16.32.84-21-.122-1.781,2.088-21.365-.746-29.249C376.863,445.375,362.9,451.815,362.9,451.815Z" transform="translate(-359.508 -448.138)" fill="#eea886"/>
        </g>
        <g id="Group_1493" data-name="Group 1493" transform="translate(53.034 61.476)">
          <path id="Path_1454" data-name="Path 1454" d="M362.63,451.815s-1.554,11.252-2.209,15.441c-.766,4.9-.9,7.6-1.116,10.133-.269,3.189-.955,21.241-.96,22.192-.005,1.055,4.98.381,4.98.381s1.961-20.671,2.762-24.067c.745-3.162,3.511-16.776,4.192-15.912s1.523,15.887,2.027,18.381,1.595,22.424,1.595,22.424,4.022-.012,4.945-.794c0,0,.311-16.528-.01-21.2-.122-1.781,2.088-21.365-.746-29.249C376.592,445.375,362.63,451.815,362.63,451.815Z" transform="translate(-358.345 -448.138)" fill="#fcf5f5"/>
        </g>
        <g id="Group_1494" data-name="Group 1494" transform="translate(38.293 41.192)">
          <path id="Path_1455" data-name="Path 1455" d="M345.34,423s-1.8-1.032-2.026-1.184a4.368,4.368,0,0,0-1.892-.063,5.081,5.081,0,0,0-2.12.73.776.776,0,0,0-.163.631,1.493,1.493,0,0,0,.3.7.911.911,0,0,0,.172.863.794.794,0,0,0,.316.825.663.663,0,0,0,.229.7s.713.059,1.062.077a21.927,21.927,0,0,0,3.4-.55S346.661,425.544,345.34,423Z" transform="translate(-339.13 -421.697)" fill="#eea886"/>
        </g>
        <path id="Path_1456" data-name="Path 1456" d="M344.96,424.05s6.361,2.332,7.506,2.693c.879.277,2,1.092,4.047-.14a20.048,20.048,0,0,0,3.386-2.949h0c.271-.278.536-.559.792-.834h0a36.362,36.362,0,0,0,2.521-2.94c.244-.418,5.055-3.885,1.712-6.221-.751-.524-3.64-1.784-5.284,0-1.444,1.566-2.089,4.515-2.461,5.168s-2.2,4.11-2.2,4.11c-.1.249-2.523-.479-2.851-.578-.96-.289-5.749-1.777-5.749-1.777Z" transform="translate(-302.194 -378.418)" fill="#385369"/>
        <g id="Group_1499" data-name="Group 1499" transform="translate(59.623 19.274)">
          <g id="Group_1498" data-name="Group 1498">
            <g id="Group_1497" data-name="Group 1497">
              <g id="Group_1496" data-name="Group 1496">
                <g id="Group_1495" data-name="Group 1495">
                  <path id="Path_1457" data-name="Path 1457" d="M374.82,402.235l0,0a13.2,13.2,0,0,1-1.8,2.274c-2.25,2.247-6.781,1.744-5.994-5.1a10.638,10.638,0,0,1,.807-3.143c1.3-2.917,3.542-3.15,3.542-3.15,1.619.111,4.382.861,5.059,3.07C376.913,397.765,376.124,400.169,374.82,402.235Z" transform="translate(-366.935 -393.125)" fill="#eea987"/>
                </g>
              </g>
            </g>
          </g>
        </g>
        <g id="Group_1504" data-name="Group 1504" transform="translate(60.521 19.274)">
          <g id="Group_1503" data-name="Group 1503">
            <g id="Group_1502" data-name="Group 1502">
              <g id="Group_1501" data-name="Group 1501">
                <g id="Group_1500" data-name="Group 1500">
                  <path id="Path_1458" data-name="Path 1458" d="M375.092,402.235l0,0s-.239.033-.864-1.758c-.125-.359-.284-.133-.338-.291l-1.265-.685s1.59-2.037-.055-2.862c-1.678-.842-4.462-.367-4.462-.367,1.3-2.917,3.542-3.15,3.542-3.15,1.619.111,4.382.861,5.058,3.07C377.185,397.765,376.4,400.169,375.092,402.235Z" transform="translate(-368.105 -393.125)" fill="#665249"/>
                </g>
              </g>
            </g>
          </g>
        </g>
        <g id="Group_1509" data-name="Group 1509" transform="translate(65.921 24.784)">
          <g id="Group_1508" data-name="Group 1508">
            <g id="Group_1507" data-name="Group 1507">
              <g id="Group_1506" data-name="Group 1506">
                <g id="Group_1505" data-name="Group 1505">
                  <path id="Path_1459" data-name="Path 1459" d="M375.262,400.789c.1-.46,1.01-.856,1.4.133s-.906,2.038-1.247,1.82S375.1,401.551,375.262,400.789Z" transform="translate(-375.144 -400.307)" fill="#eea987"/>
                </g>
              </g>
            </g>
          </g>
        </g>
        <g id="Group_1510" data-name="Group 1510" transform="translate(59.964 17.909)" opacity="0.99">
          <path id="Path_1460" data-name="Path 1460" d="M376.405,399.146a13.223,13.223,0,0,0-9.025-3.058s1.074-6.2,6.619-4.422C379.208,393.334,376.677,398.466,376.405,399.146Z" transform="translate(-367.38 -391.346)" fill="#51ba6c"/>
        </g>
        <g id="Group_1511" data-name="Group 1511" transform="translate(58.404 21.984)">
          <path id="Path_1461" data-name="Path 1461" d="M373.352,398.7a23.327,23.327,0,0,1-6.988-.675c-2.645-.907.7-1.337.7-1.337S369.417,396.257,373.352,398.7Z" transform="translate(-365.345 -396.657)" fill="#51ba6c" opacity="0.99"/>
        </g>
        <path id="Path_1462" data-name="Path 1462" d="M369.235,411.474s-3.834.787-4.332,1.228c-.54.469-1.618,5.213-1.675,6.491a46.459,46.459,0,0,0,.812,8.541,62.468,62.468,0,0,1,.647,13.095,42.009,42.009,0,0,0,15.215.878s-.769-8.85-.436-11.577c.426-3.493,1.807-11.11,1.807-11.11s-.1-5.281-.842-5.906-6.464-1.641-6.464-1.641Z" transform="translate(-306.447 -378.124)" fill="#385369"/>
        <path id="Path_1463" data-name="Path 1463" d="M369.941,410.8s1.177.884,5.112-.851a8.47,8.47,0,0,1,.2-4.473c.772-2.52-4.893,2.437-4.893,2.437.064.044.076.3.039.648,0,.022-.005.045-.009.069a6.8,6.8,0,0,1-.157.858c-.009.038-.018.076-.028.114C369.983,410.445,369.941,410.063,369.941,410.8Z" transform="translate(-308.012 -376.561)" fill="#eea886"/>
        <path id="Path_1464" data-name="Path 1464" d="M370.321,410.083h0c2.819.362,4.357-2.676,4.4-2.765-1.929,2.814-4.244,1.907-4.244,1.907h0A6.826,6.826,0,0,1,370.321,410.083Z" transform="translate(-308.1 -377.156)" fill="#a77860"/>
        <path id="Path_1465" data-name="Path 1465" d="M369.868,411.624s-.9,1.341.355,1.57a5.946,5.946,0,0,0,5.22-1.751A21.562,21.562,0,0,0,369.868,411.624Z" transform="translate(-307.922 -378.092)" fill="#eea886"/>
        <path id="Path_1466" data-name="Path 1466" d="M363.77,429.469l2.573-5.868h6.685s3.062,5.8,6.616,7.733c0,0,.37,13.516.611,17.622a54.527,54.527,0,0,1-8.48.69,28.667,28.667,0,0,0-8.737,1.367s1.272-9.033,1.3-10.071S364.044,431.541,363.77,429.469Z" transform="translate(-306.404 -380.948)" fill="#fcf5f5"/>
        <path id="Path_1467" data-name="Path 1467" d="M376.262,421.879s-.31-6.855,3.348-9.7a3.313,3.313,0,0,0-1.132-.239s-2.979,1.193-3.817,8.942S376.262,421.879,376.262,421.879Z" transform="translate(-309.07 -378.234)" fill="#fcf5f5"/>
        <path id="Path_1468" data-name="Path 1468" d="M367.356,420.9s-.7-5.552.747-8.9c0,0-.653.157-1.025.263,0,0-1.5,1.973-.773,10.347S367.356,420.9,367.356,420.9Z" transform="translate(-307.119 -378.247)" fill="#fcf5f5"/>
        <path id="Path_1469" data-name="Path 1469" d="M385.656,413.613a3.252,3.252,0,0,1,1.349,2.8c-.129,1.826-1.211,7.118-1.211,7.118Z" transform="translate(-311.672 -378.622)" fill="#fa7126"/>
        <path id="Path_1470" data-name="Path 1470" d="M363.289,426.531s-.276-3.7-.263-4.326a27.479,27.479,0,0,0-.642,5.184Z" transform="translate(-306.252 -380.623)" fill="#2a3e4f"/>
        <path id="Path_1471" data-name="Path 1471" d="M373.844,440.191a30.782,30.782,0,0,1-7.576-.207l-.365-8.059,1.382-1.3h4.648l2.561,1.552Z" transform="translate(-307.072 -382.584)" fill="#ded8d8"/>
        <g id="Group_1514" data-name="Group 1514" transform="translate(11.875 11.51)">
          <g id="Group_1513" data-name="Group 1513" transform="translate(0 0)">
            <g id="Group_1512" data-name="Group 1512">
              <rect id="Rectangle_1046" data-name="Rectangle 1046" width="1.483" height="97.18" transform="matrix(0.727, -0.687, 0.687, 0.727, 0, 1.019)" fill="#877373"/>
            </g>
          </g>
        </g>
        <g id="Group_1520" data-name="Group 1520" transform="translate(11.576)">
          <g id="Group_1519" data-name="Group 1519">
            <g id="Group_1518" data-name="Group 1518">
              <g id="Group_1517" data-name="Group 1517">
                <g id="Group_1516" data-name="Group 1516">
                  <g id="Group_1515" data-name="Group 1515">
                    <path id="Path_1472" data-name="Path 1472" d="M305.926,380.576l-.307.3-1.316-1.361,5.889-7.728-3.076-3.18-1.189,1.15-.3-.307,1.5-1.448,3.629,3.751-5.889,7.728Z" transform="translate(-304.302 -368)" fill="#fa7126"/>
                  </g>
                </g>
              </g>
            </g>
          </g>
        </g>
        <g id="Group_1525" data-name="Group 1525" transform="translate(0.283 0.525)">
          <g id="Group_1524" data-name="Group 1524" transform="translate(0 0)">
            <g id="Group_1523" data-name="Group 1523" transform="translate(0)">
              <g id="Group_1522" data-name="Group 1522" transform="translate(0)">
                <g id="Group_1521" data-name="Group 1521">
                  <rect id="Rectangle_1047" data-name="Rectangle 1047" width="14.394" height="4.904" transform="translate(0 10.007) rotate(-44.044)" fill="#e3dddd"/>
                </g>
              </g>
            </g>
          </g>
        </g>
        <g id="Group_1528" data-name="Group 1528" transform="translate(11.765 11.407)">
          <g id="Group_1527" data-name="Group 1527" transform="translate(0 0)">
            <g id="Group_1526" data-name="Group 1526" transform="translate(0)">
              <rect id="Rectangle_1048" data-name="Rectangle 1048" width="1.785" height="9.013" transform="translate(0 1.226) rotate(-43.376)" fill="#fa7126"/>
            </g>
          </g>
        </g>
        <path id="Path_1473" data-name="Path 1473" d="M303.558,371.409c.931.984,2.185,1.309,2.8.725s.365-1.855-.565-2.84-2.185-1.308-2.8-.725S302.628,370.425,303.558,371.409Z" transform="translate(-292.342 -368.065)" fill="#e3dddd"/>
        <path id="Path_1474" data-name="Path 1474" d="M290.116,384.41c.931.984,2.186,1.309,2.8.726s.364-1.856-.566-2.841-2.185-1.309-2.8-.726S289.185,383.425,290.116,384.41Z" transform="translate(-289.212 -371.092)" fill="#b5b0b0"/>
        <g id="Group_1533" data-name="Group 1533" transform="translate(51.167 52.691)">
          <g id="Group_1532" data-name="Group 1532">
            <g id="Group_1531" data-name="Group 1531">
              <g id="Group_1530" data-name="Group 1530">
                <g id="Group_1529" data-name="Group 1529">
                  <path id="Path_1475" data-name="Path 1475" d="M357.849,442.309a2.181,2.181,0,0,0,.69-.09s.371-.208.643-.341a2.1,2.1,0,0,1,.215-.093,3.985,3.985,0,0,0,1.181-.48,26.7,26.7,0,0,0,2.145-2.2l-.763-1.194-.555-1.221a26.853,26.853,0,0,0-3.937.421,1.2,1.2,0,0,0-.13.077,5.094,5.094,0,0,0-.743.74c-.067.056-.7.658-.681.918a.852.852,0,0,0,.405.724,2.037,2.037,0,0,0,.423,1.039,1.266,1.266,0,0,0,.6.947S357.466,442.209,357.849,442.309Z" transform="translate(-355.912 -436.687)" fill="#eea886"/>
                </g>
              </g>
            </g>
          </g>
        </g>
        <path id="Path_1476" data-name="Path 1476" d="M379.7,413.3c-.952-.15-4,.949-3.971,3.347a29.749,29.749,0,0,1-.456,4.294c-.051.791-.817,6.019-1.352,6.437a34.986,34.986,0,0,1-4.548,1.794c-1.137.515-6.572,1.906-6.572,1.906l.4,4.131s11.94-2.881,13.238-3.581a5.034,5.034,0,0,0,2.85-3.536c.69-2.463,2.208-7.2,2.246-7.709S383.941,413.966,379.7,413.3Z" transform="translate(-306.348 -378.546)" fill="#385369"/>
        <g id="Group_1534" data-name="Group 1534" transform="translate(38.236 41.916)">
          <path id="Path_1477" data-name="Path 1477" d="M339.516,422.675s2.254-.158,2.324.2a.575.575,0,0,1-.122.535l.957.355s.5.594-.292.966c0,0,.526.505-.282.774,0,0,.2.488-.155.678a7.5,7.5,0,0,1-1.807.232s-.417-.1-.335-.67a.782.782,0,0,1-.281-.821.83.83,0,0,1-.2-.861,1.115,1.115,0,0,1-.04-1.359S339.421,422.682,339.516,422.675Z" transform="translate(-339.055 -422.641)" fill="#db9c7c"/>
        </g>
        <g id="Group_1535" data-name="Group 1535" transform="translate(40.401 41.311)">
          <path id="Path_1478" data-name="Path 1478" d="M343.882,421.852a7.679,7.679,0,0,0-1.859,1.559c-.12.17-.206.358-.092.535s.512.236,1.105-.082a5.668,5.668,0,0,1,1.5-.459S345.054,422.9,343.882,421.852Z" transform="translate(-341.878 -421.852)" fill="#eea886"/>
        </g>
      </g>
      <g id="Group_1542" data-name="Group 1542" transform="translate(381.823 351.818)">
        <g id="Group_1537" data-name="Group 1537" transform="translate(0.905)">
          <path id="Path_1479" data-name="Path 1479" d="M557.634,487.992h-100.9l-7.229-75.118a2.277,2.277,0,0,1,2.245-2.514H562.618a2.278,2.278,0,0,1,2.245,2.514Z" transform="translate(-449.495 -410.36)" fill="#b8d1ce"/>
        </g>
        <g id="Group_1538" data-name="Group 1538" transform="translate(0 2.124)">
          <path id="Path_1480" data-name="Path 1480" d="M558.151,490.761H455.668l-7.342-75.118a2.291,2.291,0,0,1,2.28-2.514H563.214a2.291,2.291,0,0,1,2.281,2.514Z" transform="translate(-448.315 -413.129)" fill="#fff"/>
        </g>
        <g id="Group_1539" data-name="Group 1539" transform="translate(7.353 79.756)">
          <rect id="Rectangle_1049" data-name="Rectangle 1049" width="102.422" height="4.558" fill="#b8d1ce"/>
        </g>
        <g id="Group_1541" data-name="Group 1541" transform="translate(41.703 29.641)">
          <path id="Path_1481" data-name="Path 1481" d="M519.981,452.524A9.529,9.529,0,0,0,516.3,454.1l-.031.022c-.153.11-.3.224-.447.344a6.581,6.581,0,0,0-.038,10.474h0l.009.008a10.147,10.147,0,0,0,12.342.179c.061-.047.121-.093.18-.142v0c.134-.11.259-.225.382-.34.035-.033.069-.066.1-.1.1-.093.188-.188.278-.284l.076-.081c.113-.126.221-.253.323-.383l.02-.026c.1-.125.189-.252.276-.38l.041-.061a6.486,6.486,0,0,0-1.462-8.819L521.8,449C519.713,450.733,519.974,452.481,519.981,452.524Zm5.321,9.928a5.256,5.256,0,0,1-6.5-.023,3.414,3.414,0,0,1,.019-5.429,5.257,5.257,0,0,1,6.5.023A3.414,3.414,0,0,1,525.3,462.452Z" transform="translate(-505.128 -448.999)" fill="#51ba6c"/>
          <g id="Group_1540" data-name="Group 1540" transform="translate(0 14.558)">
            <path id="Path_1482" data-name="Path 1482" d="M530.824,469.7a11.651,11.651,0,0,1-2.614,2.683,15.083,15.083,0,0,1-17.551-.061,11.637,11.637,0,0,1-2.6-2.7c-1.939-1.632-5.385-1.642-5.385-1.642,2,6.166,8.734,10.729,16.734,10.757h0c8,.028,14.768-4.488,16.81-10.639C536.221,468.1,532.774,468.081,530.824,469.7Z" transform="translate(-502.677 -467.977)" fill="#51ba6c"/>
          </g>
          <path id="Path_1483" data-name="Path 1483" d="M522.394,480.039l.156-.009c.146-.009.292-.022.436-.037l.123-.012c.186-.022.37-.048.553-.08l.036-.007q.261-.046.517-.105l.08-.018A9.79,9.79,0,0,0,526.43,479a7.481,7.481,0,0,0,4.2-5.3,15.083,15.083,0,0,1-17.551-.061c.574,3.54,4.139,6.291,8.5,6.407.083,0,.165.005.248.006h0C522.023,480.054,522.209,480.048,522.394,480.039Z" transform="translate(-505.1 -454.737)" fill="#30975d"/>
        </g>
      </g>
      <g id="Group_1576" data-name="Group 1576" transform="translate(503.055 345.875)">
        <g id="Group_1543" data-name="Group 1543" transform="translate(52.416 33.118)">
          <path id="Path_1484" data-name="Path 1484" d="M675.424,446.586s1.5-.674,1.733-.77a3.961,3.961,0,0,1,1.7.273,4.607,4.607,0,0,1,1.761,1.019.7.7,0,0,1,.034.589,1.362,1.362,0,0,1-.389.568.827.827,0,0,1-.3.739.721.721,0,0,1-.425.679s.025.447-.325.58a5.46,5.46,0,0,0-.96-.117,14.357,14.357,0,0,1-2.926-1.08S673.806,448.618,675.424,446.586Z" transform="translate(-674.677 -445.785)" fill="#eea886"/>
        </g>
        <g id="Group_1544" data-name="Group 1544" transform="translate(54.469 34.83)">
          <path id="Path_1485" data-name="Path 1485" d="M678.2,448.016a4.037,4.037,0,0,1-.8.7c-.244.091.687,1.7.687,1.7S678.918,448.718,678.2,448.016Z" transform="translate(-677.354 -448.016)" fill="#cf8c6c"/>
        </g>
        <g id="Group_1547" data-name="Group 1547" transform="translate(37.222 39.871)">
          <g id="Group_1545" data-name="Group 1545" transform="translate(14.492 0)">
            <rect id="Rectangle_1050" data-name="Rectangle 1050" width="1.479" height="6.844" transform="translate(6.844 0) rotate(90)" fill="#a1a5b3"/>
          </g>
          <rect id="Rectangle_1051" data-name="Rectangle 1051" width="6.844" height="1.479" transform="translate(12.077 7.033)" fill="#a1a5b3"/>
          <rect id="Rectangle_1052" data-name="Rectangle 1052" width="6.844" height="1.479" transform="translate(9.662 14.066)" fill="#a1a5b3"/>
          <rect id="Rectangle_1053" data-name="Rectangle 1053" width="6.844" height="1.479" transform="translate(7.246 21.099)" fill="#a1a5b3"/>
          <rect id="Rectangle_1054" data-name="Rectangle 1054" width="6.844" height="1.479" transform="translate(4.831 28.132)" fill="#a1a5b3"/>
          <rect id="Rectangle_1055" data-name="Rectangle 1055" width="6.844" height="1.479" transform="translate(2.415 35.165)" fill="#a1a5b3"/>
          <g id="Group_1546" data-name="Group 1546" transform="translate(0 42.198)">
            <rect id="Rectangle_1056" data-name="Rectangle 1056" width="1.479" height="6.844" transform="translate(6.844 0) rotate(90)" fill="#a1a5b3"/>
          </g>
        </g>
        <g id="Group_1549" data-name="Group 1549" transform="translate(42.939 71.767)">
          <g id="Group_1548" data-name="Group 1548" transform="translate(0 0)">
            <rect id="Rectangle_1057" data-name="Rectangle 1057" width="1.062" height="37.276" transform="translate(37.276 0) rotate(90)" fill="#9497a3"/>
          </g>
        </g>
        <g id="Group_1551" data-name="Group 1551" transform="translate(36.155 0)">
          <g id="Group_1550" data-name="Group 1550" transform="translate(0 0)">
            <rect id="Rectangle_1058" data-name="Rectangle 1058" width="1.838" height="96.675" transform="matrix(0.947, 0.32, -0.32, 0.947, 30.926, 0)" fill="#bcc0cf"/>
          </g>
        </g>
        <g id="Group_1553" data-name="Group 1553" transform="translate(60.892 17.983)">
          <g id="Group_1552" data-name="Group 1552" transform="translate(0 0)">
            <rect id="Rectangle_1059" data-name="Rectangle 1059" width="1.479" height="77.815" transform="translate(26.291 73.728) rotate(161.347)" fill="#bcc0cf"/>
          </g>
        </g>
        <g id="Group_1555" data-name="Group 1555" transform="translate(56.776 31.302)">
          <g id="Group_1554" data-name="Group 1554" transform="translate(0 0)">
            <rect id="Rectangle_1060" data-name="Rectangle 1060" width="1.479" height="9.601" transform="translate(9.601 0) rotate(90)" fill="#bcc0cf"/>
          </g>
        </g>
        <g id="Group_1556" data-name="Group 1556" transform="translate(51.948 34.084)">
          <path id="Path_1486" data-name="Path 1486" d="M674.619,447.822a5.027,5.027,0,0,0,1.044-.745c.36-.381.864,2.6.864,2.6s-1.246-.087-2.186-.166C673.591,449.452,674.619,447.822,674.619,447.822Z" transform="translate(-674.067 -447.043)" fill="#eea886"/>
        </g>
        <g id="Group_1557" data-name="Group 1557" transform="translate(32.698 20.96)">
          <path id="Path_1487" data-name="Path 1487" d="M657.561,443.575c1.533.464,11.2,2.3,11.2,2.3l.969-3.256s-4.927-.838-6.544-1.373c-1.238-.41-3.356-.96-3.548-1.081s-4.6-5.028-4.87-5.6a15.987,15.987,0,0,0-2.2-3.76,2.783,2.783,0,0,0-2.373-.838c-3.032,1.974.555,6.819.555,6.819a38.574,38.574,0,0,1,2.471,3.2S655.522,442.958,657.561,443.575Z" transform="translate(-648.974 -429.935)" fill="#dbdff0"/>
        </g>
        <g id="Group_1558" data-name="Group 1558" transform="translate(54.929 34.053)">
          <path id="Path_1488" data-name="Path 1488" d="M681.175,447.324s-1.979-.533-2.1-.225a.524.524,0,0,0,.016.5l-.914.15a.533.533,0,0,0,.091.911s-.555.359.117.738c0,0-.261.4.02.631a6.827,6.827,0,0,0,1.569.521s.375-.028.4-.547a.7.7,0,0,0,.441-.67.767.767,0,0,0,.28-.729s.657-.569.285-1.208A2.118,2.118,0,0,0,681.175,447.324Z" transform="translate(-677.953 -447.003)" fill="#db9c7c"/>
        </g>
        <g id="Group_1559" data-name="Group 1559" transform="translate(2.005 17.911)">
          <path id="Path_1489" data-name="Path 1489" d="M613.25,431.059s.225-1.683.284-1.92a3.856,3.856,0,0,0-.506-1.59A4.474,4.474,0,0,0,611.8,426a.69.69,0,0,0-.572.051,1.321,1.321,0,0,0-.491.456.8.8,0,0,0-.667.4.7.7,0,0,0-.591.506s-.434.04-.511.4a5.249,5.249,0,0,1,.249.905,29.388,29.388,0,0,0,2,3.4S611.528,432.907,613.25,431.059Z" transform="translate(-608.963 -425.962)" fill="#eea886"/>
        </g>
        <g id="Group_1560" data-name="Group 1560" transform="translate(2.607 20.747)">
          <path id="Path_1490" data-name="Path 1490" d="M612.04,429.839a3.916,3.916,0,0,0-.555.874c-.052.247-1.737-.417-1.737-.417S611.262,429.248,612.04,429.839Z" transform="translate(-609.748 -429.659)" fill="#cf8c6c"/>
        </g>
        <g id="Group_1561" data-name="Group 1561" transform="translate(4.044 20.468)">
          <path id="Path_1491" data-name="Path 1491" d="M611.621,433.056s3.4,8.967,5.2,8.93a12.918,12.918,0,0,0,4.853-2.339c.42-.349.839-.72,1.242-1.09v0c1.606-1.478,2.933-2.943,2.933-2.943s4.264-3.8,1.808-6.317a6.529,6.529,0,0,0-2.788.934,11.351,11.351,0,0,0-2.457,2.318c-.374.491-4.383,4.719-4.591,4.792s-1.316-1.366-1.935-2.473c-.911-1.631-1.682-3.442-1.682-3.442Z" transform="translate(-611.621 -429.294)" fill="#dbdff0"/>
        </g>
        <g id="Group_1562" data-name="Group 1562" transform="translate(19.782 86.723)">
          <path id="Path_1492" data-name="Path 1492" d="M636.727,517.144a7.017,7.017,0,0,0,1.9,2.831c1.2.877,1.965,1.656,1.625,2.448s-3.935-.888-5.615-1.721c-2.187-1.084-2.51-1.286-2.5-1.99s1.7-2.831,1.764-3.026C633.983,515.444,636.727,517.144,636.727,517.144Z" transform="translate(-632.137 -515.662)" fill="#163342"/>
        </g>
        <g id="Group_1563" data-name="Group 1563" transform="translate(15.974 89.013)">
          <path id="Path_1493" data-name="Path 1493" d="M630.063,518.648a7.935,7.935,0,0,1-.9,1.6c-.409.453-1.965,1.255-1.989,2.615-.024,1.474,2.6,1.094,3.621,1.051s1.11-.83,1.55-1.66.872-.684.961-1.356a8.59,8.59,0,0,0-.307-2.185Z" transform="translate(-627.173 -518.648)" fill="#163342"/>
        </g>
        <g id="Group_1564" data-name="Group 1564" transform="translate(18.679 88.314)">
          <path id="Path_1494" data-name="Path 1494" d="M630.7,517.908l.074.793a4.921,4.921,0,0,0,3.032.034v-1Z" transform="translate(-630.699 -517.737)" fill="#163342"/>
        </g>
        <g id="Group_1565" data-name="Group 1565" transform="translate(17.635 42.592)">
          <path id="Path_1495" data-name="Path 1495" d="M644.707,468.222c.044-.4-.337-4.2-.608-6.8,0-.022-.005-.044-.007-.066l0-.016c-.077-.73-.143-1.359-.188-1.781-.021-.195-.037-.346-.047-.443-.009-.078-.014-.12-.014-.12s-8.542-1.782-13-.236q-.28.1-.535.212l-.033.217c-.047.328-.148,1.01-.282,1.94-.022.156-.045.319-.07.489-.683,4.775-.4,11.073-.523,15.137-.144,4.63,0,8.949.032,10.259.011.518.463,16.938.463,16.938s2.838.786,4.179.012c0,0,.006-.1.016-.271,1.082.3,2.07.475,2.159.189,0,0,9.231-15.163,9.251-16.981S644.64,468.828,644.707,468.222Zm-9.126,25.843h0c-.344.639-.69,1.277-1.028,1.9h0c.259-4.4.528-9.128.536-9.879.026-2.377,1.659-16.079,2.191-16.134s2.337,13.563,2.429,15.4C639.753,486.231,637.687,490.164,635.582,494.066Z" transform="translate(-629.338 -458.134)" fill="#385369"/>
        </g>
        <g id="Group_1566" data-name="Group 1566" transform="translate(24.555 18.651)">
          <path id="Path_1496" data-name="Path 1496" d="M643.028,426.956s.771.173-2.5,3.235c0,0-2.251-2.548-2.172-2.972S643.028,426.956,643.028,426.956Z" transform="translate(-638.358 -426.926)" fill="#eea987"/>
        </g>
        <g id="Group_1567" data-name="Group 1567" transform="translate(17.164 18.624)">
          <path id="Path_1497" data-name="Path 1497" d="M647.425,430.231l-2.309,8.283c-.079.268-.173.6-.274.983l0,.015,0,.01a32.531,32.531,0,0,0-1,6.228c-.1,1.7-.008,7.127-.008,7.127a22.493,22.493,0,0,1-8.43.846s-5.686,1.426-5.227-2.021c1.214-9.125.027-12.887-.132-13.8,0,0-.763-4.432-1.309-8.145,1.582-.589,8.341-2.861,8.341-2.861l3.667.04S645.888,428.463,647.425,430.231Z" transform="translate(-628.724 -426.891)" fill="#dbdff0"/>
        </g>
        <path id="Path_1498" data-name="Path 1498" d="M645.036,442.914s-2.179-1.018-2.932-4.458l-7.689-.084s-2.3,4.573-3.542,4.818c0,0,.242,5.02.087,6.959s-.62,5.608-.62,5.608.439,3.348,13.993,1.07c0,0-.146-8.059-.125-8.4S644.98,443.116,645.036,442.914Z" transform="translate(-611.936 -410.94)" fill="#385369"/>
        <path id="Path_1499" data-name="Path 1499" d="M645.332,436.143s.9-4.669,2.881-7.39a1.185,1.185,0,0,0-.7-.311,21.357,21.357,0,0,0-3,7.692C643.653,440.766,645.332,436.143,645.332,436.143Z" transform="translate(-615.179 -408.628)" fill="#385369"/>
        <path id="Path_1500" data-name="Path 1500" d="M635.012,436.167a18.3,18.3,0,0,0-2.44-6.98,2.236,2.236,0,0,1,.838-.286,20.833,20.833,0,0,1,2.425,7.275C636.589,440.825,635.012,436.167,635.012,436.167Z" transform="translate(-612.456 -408.735)" fill="#385369"/>
        <g id="Group_1568" data-name="Group 1568" transform="translate(23.494 6.714)">
          <path id="Path_1501" data-name="Path 1501" d="M641.119,411.4s3.417.577,2.838,5.928-3.6,4.878-3.8,4.87-3.035.065-3.184-6.478C636.975,415.724,636.931,410.887,641.119,411.4Z" transform="translate(-636.975 -411.365)" fill="#eea987"/>
        </g>
        <g id="Group_1569" data-name="Group 1569" transform="translate(24.557 15.38)">
          <path id="Path_1502" data-name="Path 1502" d="M642.939,423.281a12.324,12.324,0,0,0,.09,2.682c.208.479-2.834,1.99-4.668.263a16.863,16.863,0,0,0,.345-3.252C638.591,422.124,642.939,423.281,642.939,423.281Z" transform="translate(-638.361 -422.662)" fill="#eea987"/>
        </g>
        <g id="Group_1570" data-name="Group 1570" transform="translate(30.322 10.994)">
          <path id="Path_1503" data-name="Path 1503" d="M646.1,417.117s.379-.4.513.011-.606,2.21-.56,2.292c0,0-.07.157-.159.069A19.493,19.493,0,0,1,646.1,417.117Z" transform="translate(-645.876 -416.944)" fill="#eea987"/>
        </g>
        <g id="Group_1571" data-name="Group 1571" transform="translate(22.995 10.837)">
          <path id="Path_1504" data-name="Path 1504" d="M636.862,416.925s-.363-.411-.512-.011a6.871,6.871,0,0,0,.465,2.314s.117.184.21.1A19.69,19.69,0,0,0,636.862,416.925Z" transform="translate(-636.324 -416.74)" fill="#eea987"/>
        </g>
        <g id="Group_1572" data-name="Group 1572" transform="translate(23.254 5.935)">
          <path id="Path_1505" data-name="Path 1505" d="M644.171,415.127c-.117.733-.228,1.277-.228,1.277l-.5.65a13.134,13.134,0,0,0-.047-1.662c-.029-.085-.063-.237-.1-.4-.057-.271-.116-.576-.156-.678a7.315,7.315,0,0,0-5.481.176s.021.221.02.467c0,.287-.032.608-.164.656-.244.09-.142,1.681-.142,1.681l-.4-.46s-.115-.831-.228-1.787v-.007c-.026-.223-.052-.452-.077-.68a4.469,4.469,0,0,1,1.29-3.731c.844-.361,2.215-.454,4.463.234a2.931,2.931,0,0,1,.637-.041C644.465,412.362,644.171,415.127,644.171,415.127Z" transform="translate(-636.662 -410.35)" fill="#385369"/>
        </g>
        <path id="Path_1506" data-name="Path 1506" d="M639.117,424.559a2.176,2.176,0,0,0,1.813.729,2.467,2.467,0,0,0,1.817-.69,2.213,2.213,0,0,1-1.823,1.242A2.238,2.238,0,0,1,639.117,424.559Z" transform="translate(-613.98 -407.724)" fill="#c78d71"/>
        <path id="Path_1507" data-name="Path 1507" d="M647.613,429.808c-1.93.559-2.014,7.859-2.014,7.859a27.76,27.76,0,0,0-.765,3.438c-.123.87-.251,4.562-.343,7.8l-.01.35-.008.279c-.071,2.544-.117,4.663-.117,4.663s-1.865,1.2-6.956,1.106c0,0-5.316-.367-7.576-1.246,0,0,.249-2.17.48-4.337.033-.315.067-.63.1-.938.121-1.165.225-2.235.266-2.847.129-1.889-.562-8.6-.562-8.6.8-6.784-.6-7.87-.6-7.87.928-.609,6.5-2.079,6.5-2.079,1.122,4.875,2.56,5.842,2.56,5.842,2.08-2.067,3.1-5.98,3.1-5.98A15.673,15.673,0,0,1,647.613,429.808Z" transform="translate(-611.742 -408.352)" fill="#152c53"/>
        <g id="Group_1573" data-name="Group 1573" transform="translate(0 6.763)">
          <path id="Path_1508" data-name="Path 1508" d="M609.452,415.54a3.992,3.992,0,0,0,.248,1.857c.38.949.427-.171.427-.171Z" transform="translate(-607.067 -412.386)" fill="#51ba6c"/>
          <rect id="Rectangle_1061" data-name="Rectangle 1061" width="1.816" height="1.518" transform="translate(3.176 3.731) rotate(-111.805)" fill="#385369"/>
          <rect id="Rectangle_1062" data-name="Rectangle 1062" width="1.816" height="0.417" transform="matrix(-0.371, -0.928, 0.928, -0.371, 3.013, 1.84)" fill="#d9c9bd"/>
          <rect id="Rectangle_1063" data-name="Rectangle 1063" width="7.913" height="3.476" transform="translate(5.86 3.719) rotate(68.196)" fill="#51ba6c"/>
          <rect id="Rectangle_1064" data-name="Rectangle 1064" width="1.816" height="2.556" transform="translate(3.06 4.84) rotate(-111.805)" fill="#51ba6c"/>
          <rect id="Rectangle_1065" data-name="Rectangle 1065" width="9.141" height="2.084" transform="translate(8.683 10.709) rotate(139.55)" fill="#51ba6c"/>
          <rect id="Rectangle_1066" data-name="Rectangle 1066" width="3.707" height="0.768" transform="matrix(-0.761, 0.649, -0.649, -0.761, 5.03, 12.094)" fill="#385369"/>
          <rect id="Rectangle_1067" data-name="Rectangle 1067" width="1.161" height="2.809" transform="translate(2.706 15.999) rotate(139.552)" fill="#385369"/>
          <path id="Path_1509" data-name="Path 1509" d="M614.621,425.134s2.629.62,2.529-1.6c-.021-.446-3.161-7.258-3.161-7.258Z" transform="translate(-608.128 -412.558)" fill="#51ba6c"/>
          <rect id="Rectangle_1068" data-name="Rectangle 1068" width="2.323" height="0.621" transform="translate(4.212 5.113) rotate(68.196)" fill="#006837"/>
        </g>
        <g id="Group_1574" data-name="Group 1574" transform="translate(2.005 17.891)">
          <path id="Path_1510" data-name="Path 1510" d="M611.889,426.179s.8,1.826.518,1.991a.505.505,0,0,1-.48.056l-.013.9a.517.517,0,0,1-.888.042s-.265.586-.727-.007c0,0-.347.309-.609.072a6.636,6.636,0,0,1-.726-1.433s-.014-.361.482-.46a.669.669,0,0,1,.582-.5.8.8,0,0,1,.684-.407A.928.928,0,0,1,611.8,426S611.856,426.1,611.889,426.179Z" transform="translate(-608.963 -425.935)" fill="#db9c7c"/>
        </g>
        <g id="Group_1575" data-name="Group 1575" transform="translate(4.193 19.909)">
          <path id="Path_1511" data-name="Path 1511" d="M614.179,429.686a6.771,6.771,0,0,0-1.843-1.086c-.177-.05-.359-.065-.472.081s-.044.5.394.894a5,5,0,0,1,.824,1.115S613.653,430.968,614.179,429.686Z" transform="translate(-611.815 -428.565)" fill="#eea886"/>
        </g>
        <path id="Path_1512" data-name="Path 1512" d="M637.063,504.975,635.7,512.5l.012-.212.018-.3.01-.176.018-.295.019-.328.209-3.51.047-.786v-.02C636.373,506.252,636.719,505.614,637.063,504.975Z" transform="translate(-613.185 -426.451)" fill="#2b3f4f"/>
      </g>
      <g id="Group_1586" data-name="Group 1586" transform="translate(599.626 350.775)">
        <g id="Group_1581" data-name="Group 1581" transform="translate(53.177 62.936)">
          <g id="Group_1580" data-name="Group 1580">
            <path id="Path_1513" data-name="Path 1513" d="M852.227,506.747l1.9,1.458a1.908,1.908,0,0,0,2.48-1.376l.475-2.227Z" transform="translate(-813.357 -494.199)" fill="#b77e3b"/>
            <g id="Group_1579" data-name="Group 1579">
              <g id="Group_1578" data-name="Group 1578">
                <path id="Path_1514" data-name="Path 1514" d="M807.4,500.342a8.872,8.872,0,0,1-2.173-.124.146.146,0,0,0-.129.25c1.226,1.145,4.491,3.874,6.553,2.592Z" transform="translate(-802.371 -493.177)" fill="#b77e3b"/>
                <g id="Group_1577" data-name="Group 1577">
                  <path id="Path_1515" data-name="Path 1515" d="M846.906,496.53s2.219-3.363,4.753-4.445a.371.371,0,0,1,.5.445c-.341,1.184-1.057,3.613-1.508,4.766Z" transform="translate(-812.118 -491.277)" fill="#b77e3b"/>
                  <path id="Path_1516" data-name="Path 1516" d="M815.541,513.084a11.9,11.9,0,0,0-5.211,6.1s2.85.276,3.105,1.936l-6.062-.256s1.4-6,3.7-7.146c0,0-1.787-6.636.829-8.933s-.255-.064-.255-.064Z" transform="translate(-802.912 -494.001)" fill="#b77e3b"/>
                  <path id="Path_1517" data-name="Path 1517" d="M836.64,513.273a11.9,11.9,0,0,0-5.211,6.1s2.851.277,3.105,1.936l-6.062-.255s1.4-6,3.7-7.147c0,0-1.787-6.636.829-8.934s-.255-.064-.255-.064Z" transform="translate(-807.825 -494.045)" fill="#b77e3b"/>
                  <path id="Path_1518" data-name="Path 1518" d="M812.565,498.262s-7.162-1.131-10.264-5.935a.4.4,0,0,0-.733.3c.638,2.957,3.08,6.912,9.938,8.627Z" transform="translate(-801.558 -491.297)" fill="#b77e3b"/>
                  <path id="Path_1519" data-name="Path 1519" d="M848.034,496.487s.884-5.513-.6-5.445c0,0-3.871,5.062-2.722,6.849S848.034,496.487,848.034,496.487Z" transform="translate(-811.559 -491.041)" fill="#e7b734"/>
                  <path id="Path_1520" data-name="Path 1520" d="M848.139,491.643a17.765,17.765,0,0,0-1.4,5.107s1.2-1.108,1.686-1.108C848.428,495.642,848.813,492.318,848.139,491.643Z" transform="translate(-812.08 -491.181)" fill="#7e5426"/>
                  <path id="Path_1521" data-name="Path 1521" d="M847.379,501.546l-2.9-.8s0-.057,0-.159a4.324,4.324,0,0,0-6.958-3.23l-1.59,1.22s-3.283,2.228-11.087-.06a16.494,16.494,0,0,0-3.366-.644c-3.7-.285-10.446.22-9.795,7.851,0,0,3.7,9.027,7.822,13.971l3.36.072a3.073,3.073,0,0,0-.723-1.469,4.974,4.974,0,0,0-2.553-1.542q.194-4.3.39-8.607a36.555,36.555,0,0,0,9.316,2.042l.111,1.392c.412.947,3.12,6.8,3.655,7.751h3.913a6.277,6.277,0,0,0-.777-1.156,4.266,4.266,0,0,0-2.349-1.422,28.782,28.782,0,0,1-.77-4.577,50.693,50.693,0,0,0,2.979-5.035,4.962,4.962,0,0,0,.64-1.292L839.5,504.7l.316.045c1.549.4,2.57,1.359,4.049,1.6,1.291.212,2.41-.953,3.042-2.1l.947-1.719A.727.727,0,0,0,847.379,501.546Z" transform="translate(-803.905 -492.302)" fill="#e7b734"/>
                  <path id="Path_1522" data-name="Path 1522" d="M857.325,502.822l1.393.431a.244.244,0,0,1,.127.371l-.8,1.148a1.572,1.572,0,0,1-.627-.6A1.67,1.67,0,0,1,857.325,502.822Z" transform="translate(-814.521 -493.785)" fill="#7e5426"/>
                  <path id="Path_1523" data-name="Path 1523" d="M843.342,498.488s.092,2.625,3.467,6.732l-2.118.927s-3.66-4.865-2.938-6.744Z" transform="translate(-810.896 -492.775)" fill="#1a1b3f"/>
                </g>
              </g>
              <path id="Path_1524" data-name="Path 1524" d="M822.4,510.884l-.354-2.677a11.3,11.3,0,0,0,6.53,2.482,4.973,4.973,0,0,1-1.781.432s4.318.81,5.883.27l-.963,1.535A31.822,31.822,0,0,1,822.4,510.884Z" transform="translate(-806.329 -495.039)" fill="#b77e3b"/>
            </g>
          </g>
        </g>
        <g id="Group_1585" data-name="Group 1585" transform="translate(0)">
          <g id="Group_1584" data-name="Group 1584">
            <path id="Path_1525" data-name="Path 1525" d="M734.637,509.326l2.089.345a13.178,13.178,0,0,1,1.649,2.291l3.271,7.453a.956.956,0,0,1-.218,1.077h0c-.4.376-1.089,1.018-1.443.6l-7.677-9.268c-.236-.277.159-.742.415-1l1.307-1.306A.7.7,0,0,1,734.637,509.326Z" transform="translate(-732.237 -432.362)" fill="#252755"/>
            <g id="Group_1582" data-name="Group 1582" transform="translate(25.716 83.39)">
              <path id="Path_1526" data-name="Path 1526" d="M778.468,520.944l-7.723-2.6c-2.552,1.382-2.765-.638-2.765-.638l-1.549,1.35a3.205,3.205,0,0,0-.559.839l-.112,2.483c.152.778,2.339.436,2.54.454l8.217.284c.156.014,2.024.4,2.278-.915C778.8,521.737,778.754,521.068,778.468,520.944Z" transform="translate(-765.76 -517.705)" fill="#252755"/>
            </g>
            <path id="Path_1527" data-name="Path 1527" d="M766.854,508.09l.805,8a1.58,1.58,0,0,0,1.6,1.421h0a1.58,1.58,0,0,0,1.551-1.6l-.063-6.236Z" transform="translate(-740.299 -432.076)" fill="#ffc496"/>
            <path id="Path_1528" data-name="Path 1528" d="M769.542,459.36l2.566,20.4a12.717,12.717,0,0,1-.16,2.627l-2.259,18.472-4.456.077s-1.924-16.1-.364-19.927l-4.254-17.865Z" transform="translate(-738.846 -420.728)" fill="#252755"/>
            <path id="Path_1529" data-name="Path 1529" d="M771.675,476.169l-2.133-16.809-8.927,3.784,4.022,17.2A55.337,55.337,0,0,1,771.675,476.169Z" transform="translate(-738.846 -420.728)" opacity="0.72" fill="url(#linear-gradient)" style="mix-blend-mode: multiply;isolation: isolate"/>
            <path id="Path_1530" data-name="Path 1530" d="M742.868,507.567l-3.25,3.667a1.163,1.163,0,0,1-1.763-.027l-.548-.657a1.162,1.162,0,0,1,0-1.485l3.437-4.155Z" transform="translate(-733.355 -431.335)" fill="#ffc496"/>
            <path id="Path_1531" data-name="Path 1531" d="M752.9,479.387s-4.679.993-7.373,7.94l-5.246,7.231,3.261,3.544,13.126-13.975a9.99,9.99,0,0,0,2.616-5.494l1.839-13.565,3.686-7.089-12.9-.709s-2.695,5.039-1.267,9.577a28.235,28.235,0,0,1,1,4.231Z" transform="translate(-734.111 -420.241)" fill="#2f3168"/>
            <path id="Path_1532" data-name="Path 1532" d="M772.018,435.923l2.552,10.873,10.155,10.766s4.359.478,4.04,3.456-4.679-.266-5.529-2.021l-11.4-8.731a2.635,2.635,0,0,1-.956-1.456l-2.847-11.4Z" transform="translate(-740.573 -415.27)" fill="#f1af84"/>
            <path id="Path_1533" data-name="Path 1533" d="M774.069,445.12l-2.192-9.338-3.987,1.488,2.676,10.714C771.723,447.016,772.873,446.039,774.069,445.12Z" transform="translate(-740.54 -415.237)" opacity="0.72" fill="url(#linear-gradient-2)" style="mix-blend-mode: multiply;isolation: isolate"/>
            <g id="Group_1583" data-name="Group 1583" transform="translate(16.595 12.747)">
              <path id="Path_1534" data-name="Path 1534" d="M767.579,438.633c.015-.384.025-.756.033-1.118l-.145-1.959.144.01c-.122-5.542-1.292-8.241-2.523-9.536a17.08,17.08,0,0,0-6.044-.3c-4.962.426-4.537,9.5-4.537,9.5a32.01,32.01,0,0,1,1.1,7.661,29.18,29.18,0,0,1-1.734,10.072c2.6,1.115,9.3,3.6,13.877.448a8.014,8.014,0,0,0,.783-.616,23.456,23.456,0,0,1-.863-2.671,26.016,26.016,0,0,1-.731-7.653,26.451,26.451,0,0,1,.676-4.951C767.584,438.429,767.579,438.633,767.579,438.633Z" transform="translate(-753.87 -425.616)" fill="#51ba6c"/>
              <path id="Path_1535" data-name="Path 1535" d="M754.05,453.085c1.282,1.174,4.3,1.713,6.247,1.929.51-2.911-3.508-12.2-1.673-19.591.483-1.944-.236-7.641-.393-9.635-4.164.611-3.8,9.476-3.8,9.476a36.485,36.485,0,0,1,.954,7.661A33.073,33.073,0,0,1,753.87,453Z" transform="translate(-753.87 -425.656)" fill="#51ba6c" opacity="0.72" style="mix-blend-mode: multiply;isolation: isolate"/>
              <path id="Path_1536" data-name="Path 1536" d="M771.774,441.126c-.028.914-.033,1.119-.033,1.118C771.756,441.86,771.766,441.489,771.774,441.126Z" transform="translate(-758.032 -429.228)" fill="#51ba6c"/>
              <path id="Path_1537" data-name="Path 1537" d="M771.74,440.531q.021-1.029,0-1.949l-.144-.01Z" transform="translate(-757.998 -428.633)" fill="#51ba6c"/>
              <path id="Path_1538" data-name="Path 1538" d="M773.223,435.848c-.224-8.729-4.085-9.456-4.085-9.456a3.517,3.517,0,0,0-.644-.238c1.231,1.295,2.4,3.994,2.523,9.536Z" transform="translate(-757.276 -425.742)" fill="#51ba6c"/>
            </g>
            <path id="Path_1539" data-name="Path 1539" d="M753.777,441.744" transform="translate(-737.253 -416.625)" fill="none" stroke="#707070" stroke-miterlimit="10" stroke-width="2.627"/>
            <path id="Path_1540" data-name="Path 1540" d="M762.6,424.206a2.572,2.572,0,0,0,2.652,2.352c.935.02.93-1.2,1.063-2.18a19.122,19.122,0,0,0,.16-2.738l-3.057-2.073Z" transform="translate(-739.308 -411.46)" fill="#f1af84"/>
            <path id="Path_1541" data-name="Path 1541" d="M770.835,419.841c-.362.306-.84-.117-1.3.416-.487.568-.8,1.658-1.349,2.169-.579.542-1.98-.223-2.775-.724-1.585-1-2.93-2.5-2.448-4.311a7.2,7.2,0,0,1,3.512-4.2,5.684,5.684,0,0,1,2.483-.825,3.045,3.045,0,0,1,2.4.883,1.965,1.965,0,0,1,.112,2.654C770.05,418.153,771.164,418.942,770.835,419.841Z" transform="translate(-739.37 -409.783)" fill="#ffc496"/>
            <path id="Path_1542" data-name="Path 1542" d="M762.728,409.054a6.338,6.338,0,0,1,5.506,1.965c.749.852,1.308,2.556.5,2.769a4.811,4.811,0,0,0-2.591-1.3,5,5,0,0,0-2.806.848,4.072,4.072,0,0,0-1.794,2.785,15.9,15.9,0,0,1-1.564,3.674,15.559,15.559,0,0,1-2.655,4.529,5.531,5.531,0,0,1-4.181,1.668,4.41,4.41,0,0,1-3.689-2.434,3.68,3.68,0,0,1,.853-4.236c1.437-1.22,3.642-1.026,5.221-2.056,1.812-1.181,1.941-3.171,2.579-5.022C758.726,410.453,760.959,409.286,762.728,409.054Z" transform="translate(-736.171 -409)" fill="#1a1b3f"/>
            <path id="Path_1543" data-name="Path 1543" d="M792.749,467.165c4.219,4.317,9.545,9.928,16.808,15.078a55.7,55.7,0,0,0,21.7,9.553" transform="translate(-746.329 -422.545)" fill="none" stroke="#1e2046" stroke-linecap="round" stroke-linejoin="round" stroke-width="2.074"/>
            <path id="Path_1544" data-name="Path 1544" d="M761.238,425.442s.136,4.711,3.637,4.812c2.128.062,2.489-1.2,2.383-2.35a2.185,2.185,0,0,0-1.916-1.965Z" transform="translate(-738.991 -412.829)" fill="#f1af84"/>
            <path id="Path_1545" data-name="Path 1545" d="M768.321,428.2c-.222-1.9,1.712,3.362,2.42,5.144.413,1.038,1.144,2.39,1.04,3.5-.117,1.263-1.022,2.383-1.678,3.47a3.571,3.571,0,0,0-.727,2.91l-5.148-5.54S768.583,430.44,768.321,428.2Z" transform="translate(-739.687 -413.376)" fill="#51ba6c"/>
            <path id="Path_1546" data-name="Path 1546" d="M771.718,439.905l-1.681-.987a.633.633,0,0,1-.16-.983l4.308-5.185a.935.935,0,0,1,1.153-.211l1.68.987a.633.633,0,0,1,.161.983l-4.308,5.185A.936.936,0,0,1,771.718,439.905Z" transform="translate(-740.964 -414.455)" fill="#e7b734"/>
            <path id="Path_1547" data-name="Path 1547" d="M757.775,437.108c-.16-.053-1.007,5.6-1.007,5.6l8.684-2.527s.638-3.137,2.393-3.349l-.054,1.595s1.861-2.339,3.243-1.7-.8,4.785-5.051,5.1l-10.552,6.548a1.843,1.843,0,0,1-2.815-1.612l.123-9.653Z" transform="translate(-736.983 -415.43)" fill="#ffc496"/>
            <path id="Path_1548" data-name="Path 1548" d="M757.6,425.849s.993,2.056.638,9.712l-6.6-.092S751.478,425.648,757.6,425.849Z" transform="translate(-736.757 -412.923)" fill="#51ba6c"/>
            <path id="Path_1549" data-name="Path 1549" d="M766.639,412.42a7.99,7.99,0,0,0-2.936-.318,7.291,7.291,0,0,0-2.753.594,5.347,5.347,0,0,0-2.428,2.325,13.069,13.069,0,0,0-.863,3.04,12,12,0,0,0-5.882,3.826,3.4,3.4,0,0,0-.987,2.413c.105.879.247,1.623,1.024,1.907a7.013,7.013,0,0,0,6.557-1.253,5.612,5.612,0,0,0,1.432-2.013c.3-.721.284-1.609.864-2.189a6.212,6.212,0,0,1,1.069-.719c.028-.018.056-.038.084-.058,2.7-1.568,3.349-4.533,4.384-5.311a3.837,3.837,0,0,1,1.3-.642c1.1-.291,1.509.645,1.659.345C769.458,413.776,767.016,412.546,766.639,412.42Z" transform="translate(-736.554 -409.719)" fill="#1a1b3f"/>
          </g>
        </g>
      </g>
      <g id="Group_1595" data-name="Group 1595" transform="translate(262.938 423.537)">
        <g id="Group_1587" data-name="Group 1587" transform="translate(12.898 16.274)">
          <path id="Path_1550" data-name="Path 1550" d="M318.474,525.588c0,.288-1.863.522-4.161.522s-4.16-.233-4.16-.522,1.863-.522,4.16-.522S318.474,525.3,318.474,525.588Z" transform="translate(-310.153 -525.066)" fill="#51ba6c"/>
        </g>
        <g id="Group_1588" data-name="Group 1588" transform="translate(0 13.512)">
          <path id="Path_1551" data-name="Path 1551" d="M310.4,522.534c0,.591-3.818,1.07-8.529,1.07s-8.53-.479-8.53-1.07,3.819-1.069,8.53-1.069S310.4,521.944,310.4,522.534Z" transform="translate(-293.339 -521.465)" fill="#51ba6c"/>
        </g>
        <g id="Group_1590" data-name="Group 1590" transform="translate(7.438)">
          <g id="Group_1589" data-name="Group 1589">
            <path id="Path_1552" data-name="Path 1552" d="M315.159,518l-12.035.075-.089-14.147.273,0,.506,0,10.478-.067.508,0,.271,0Z" transform="translate(-303.035 -503.851)" fill="#51ba6c"/>
          </g>
        </g>
        <g id="Group_1592" data-name="Group 1592" transform="translate(7.463 3.966)">
          <g id="Group_1591" data-name="Group 1591" transform="translate(0 0)">
            <rect id="Rectangle_1069" data-name="Rectangle 1069" width="12.035" height="10.182" transform="matrix(1, -0.006, 0.006, 1, 0, 0.075)" fill="#fff"/>
          </g>
        </g>
        <g id="Group_1594" data-name="Group 1594" transform="translate(7.711 0.002)">
          <g id="Group_1593" data-name="Group 1593">
            <path id="Path_1553" data-name="Path 1553" d="M314.374,503.856a5.271,5.271,0,0,1-10.477.067l-.506,0a5.781,5.781,0,0,0,11.491-.071Z" transform="translate(-303.391 -503.854)" fill="#1d3b54"/>
          </g>
        </g>
      </g>
      <g id="Group_1614" data-name="Group 1614" transform="translate(233.713 386.721)">
        <g id="Group_1596" data-name="Group 1596" transform="translate(3.853 40.996)">
          <path id="Path_1554" data-name="Path 1554" d="M265.373,512.268s-.21,2.789-.13,3.243,2.432,1.412,2.838,2.06a1.2,1.2,0,0,1-.357,1.557c-.243.016-4.266.227-4.558-.1s-3.042-6.682-2.9-7.655.973-2.044,3.682-2.076S265.373,512.268,265.373,512.268Z" transform="translate(-260.266 -509.3)" fill="#132b38"/>
        </g>
        <g id="Group_1597" data-name="Group 1597" transform="translate(3.053 25.824)">
          <path id="Path_1555" data-name="Path 1555" d="M272.176,493.2s2.331,1.365,3.251,2.1,7.49,4.949,8.191,6.005.466,4.979-.09,5.44-2.992.8-3.694.949-13.858,1.217-13.858,1.217l-1.859-4.509a10.876,10.876,0,0,1,4.006-1.051,5.792,5.792,0,0,0,2.891-.637,76.143,76.143,0,0,1-8.306-2.057c-2.986-1.046-3.74-2.618-3.417-4.671s1.031-5.278,2.319-6.311S272.176,493.2,272.176,493.2Z" transform="translate(-259.222 -489.521)" fill="#1e3d57"/>
        </g>
        <g id="Group_1598" data-name="Group 1598" transform="translate(0 40.704)">
          <path id="Path_1556" data-name="Path 1556" d="M260.746,512.179s-.211,2.789-.13,3.243,2.433,1.412,2.838,2.06a1.2,1.2,0,0,1-.357,1.557c-.243.016-4.265.227-4.558-.1s-3.438-6.747-3.292-7.719,1.282-2.271,3.99-2.3S260.746,512.179,260.746,512.179Z" transform="translate(-255.243 -508.919)" fill="#1c4154"/>
        </g>
        <g id="Group_1599" data-name="Group 1599" transform="translate(3.995 40.169)">
          <path id="Path_1557" data-name="Path 1557" d="M263.742,511.514s-1.654.5-1.784.5c0,0-1.509-3.082-1.509-3.26l1.882-.535Z" transform="translate(-260.45 -508.222)" fill="#2f5778"/>
        </g>
        <g id="Group_1600" data-name="Group 1600" transform="translate(2.469 25.957)">
          <path id="Path_1558" data-name="Path 1558" d="M271.678,492.349s2.465,1.1,3.46,1.73,7.985,4.1,8.8,5.077,1,4.9.5,5.417-2.887,1.119-3.568,1.346-18.263,3.147-18.263,3.147l-2.367-4.963a63.544,63.544,0,0,1,6.26-1.492c1.979-.259,5.061-.681,5.061-.681a58.885,58.885,0,0,1-8.5-.908c-3.082-.713-4.692-2.876-4.6-4.952a13.454,13.454,0,0,1,2.324-6.076C261.738,488.64,271.678,492.349,271.678,492.349Z" transform="translate(-258.461 -489.695)" fill="#285173"/>
        </g>
        <g id="Group_1602" data-name="Group 1602" transform="translate(21.378 0.517)">
          <g id="Group_1601" data-name="Group 1601">
            <path id="Path_1559" data-name="Path 1559" d="M292.083,462.733s-.723,2.13-1.309,1.952c-.484-.147-1.261,1.871-1.408,2.178s-.941-.207-1.224-.21-2.516,1.285-3.086.783a11.291,11.291,0,0,1-1.942-5.132c.074-1.333,2.744-4.851,4.508-5.647S293.334,459,292.083,462.733Z" transform="translate(-283.11 -456.533)" fill="#eea886"/>
          </g>
        </g>
        <g id="Group_1604" data-name="Group 1604" transform="translate(21.514)">
          <g id="Group_1603" data-name="Group 1603">
            <path id="Path_1560" data-name="Path 1560" d="M291.98,463.018a4.029,4.029,0,0,0,1.768-3.691c-.186-2.531-4.366-2.827-4.739-3.029-1.593-.865-2.759-.613-4.262,2.222-2,3.768-1.362,3.071-1.362,3.071s1.353-1.285,1.984-.859c.685.463,1.723,1.313,1.723,1.313s.884-1.774,1.819-1.154S291.529,461.929,291.98,463.018Z" transform="translate(-283.288 -455.858)" fill="#163342"/>
          </g>
        </g>
        <g id="Group_1605" data-name="Group 1605" transform="translate(19.258 5.785)">
          <path id="Path_1561" data-name="Path 1561" d="M282.58,463.4s-.971,1.784-2.032,2.141,2.423,3.61,2.423,3.61.984-1.178,2.108-.875S282.58,463.4,282.58,463.4Z" transform="translate(-280.347 -463.4)" fill="#eea886"/>
        </g>
        <g id="Group_1607" data-name="Group 1607" transform="translate(23.147 3.653)">
          <g id="Group_1606" data-name="Group 1606">
            <path id="Path_1562" data-name="Path 1562" d="M287.319,461.825c.121-.243.615-.935-.493-1.185s-1.487,1.987-1.4,2.125S286.3,463.876,287.319,461.825Z" transform="translate(-285.417 -460.621)" fill="#eea886"/>
          </g>
        </g>
        <g id="Group_1610" data-name="Group 1610" transform="translate(32.657 33.791)">
          <g id="Group_1609" data-name="Group 1609">
            <g id="Group_1608" data-name="Group 1608">
              <path id="Path_1563" data-name="Path 1563" d="M299.8,499.907a3.917,3.917,0,0,0,1.166.332c.37-.018,2.65-.245,2.946.146s2.482,2.6,2.186,2.933a.386.386,0,0,1-.667,0,15.281,15.281,0,0,0-2.037-1.609s1.5,1.684,1.241,2.185-.723.408-1,.5-.741.446-1.241.222-2.409-2.3-2.871-2.6-1.686-.761-1.7-.872A17.553,17.553,0,0,1,299.8,499.907Z" transform="translate(-297.814 -499.907)" fill="#eea886"/>
            </g>
          </g>
        </g>
        <g id="Group_1611" data-name="Group 1611" transform="translate(2.276 7.926)">
          <path id="Path_1564" data-name="Path 1564" d="M277.815,469.8s.724,3.839.226,5.613-3.33,4.152-4.022,4.649-2.6,4.26-2.508,5.124.108,1.687.108,1.687-11.5,3.856-13.41.839c0,0,5.117-10.884,5.409-12.084s2.778-4.56,4.112-5.927c2.051-2.1,7.662-3.513,7.662-3.513Z" transform="translate(-258.209 -466.191)" fill="#152c53"/>
        </g>
        <g id="Group_1612" data-name="Group 1612" transform="translate(17.046 17.848)">
          <path id="Path_1565" data-name="Path 1565" d="M278.933,482.765c-.123.114-.485.436-.583.524,0,0-.418-1.943-.886-4.164C277.494,479.2,278.79,482.529,278.933,482.765Z" transform="translate(-277.464 -479.125)" fill="#a63232"/>
        </g>
        <g id="Group_1613" data-name="Group 1613" transform="translate(16.268 11.813)">
          <path id="Path_1566" data-name="Path 1566" d="M282.051,474.3c-.275-.522-.865-3.5-3.287-2.984s-2.681,3.222-1.968,4.93,1.6,3.954,1.73,4.325a69.937,69.937,0,0,0,3.525,6.336c.389.324,4.736,4.044,5.493,4.455s6.25,3.753,6.25,3.753l1.405-1.784s-8.088-7.351-8.758-7.871a5.972,5.972,0,0,1-1.859-2.6C284.409,482.043,282.462,475.08,282.051,474.3Z" transform="translate(-276.449 -471.257)" fill="#e6e8ec"/>
        </g>
      </g>
      <g id="Group_1626" data-name="Group 1626" transform="translate(338.503 349.469)">
        <g id="Group_1621" data-name="Group 1621" transform="translate(20.162)">
          <g id="Group_1620" data-name="Group 1620">
            <g id="Group_1616" data-name="Group 1616" transform="translate(5.49 38.804)">
              <g id="Group_1615" data-name="Group 1615">
                <path id="Path_1567" data-name="Path 1567" d="M443.129,485.772c0,1.915-.758,20.127-.758,20.127-.192.638-2.785.605-3.424.286s-.527-18.234-.644-20.165-1.67-16.136-2.229-16.073-3.724,13.445-4.171,14.914-3.022,21.314-3.022,21.314a4.719,4.719,0,0,1-3.6,0s.834-20.006.835-22.382c0-.881.26-1.549.509-6.236.19-3.573,1.185-10.895,1.85-15.932.024-.179.047-.351.069-.516.13-.981.228-1.7.275-2.046l.031-.229c.179-.082.367-.159.562-.229,4.675-1.68,13.691.1,13.691.1l.015.127c.012.1.031.26.055.466.051.444.129,1.105.218,1.873l0,.017.009.07c.314,2.732.47,4.233.717,7.149C444.177,469.043,443.129,483.857,443.129,485.772Z" transform="translate(-425.283 -457.882)" fill="#152c53"/>
              </g>
            </g>
            <path id="Path_1568" data-name="Path 1568" d="M439.343,427.158a2.519,2.519,0,0,1-2.881-2.4,9,9,0,0,0,.207-4.279c-.45-2.463,4.712.9,4.712.9a7.021,7.021,0,0,0-.086,1.395,5.147,5.147,0,0,0,.069.7h0a3.253,3.253,0,0,0,.24.815A2.3,2.3,0,0,1,439.343,427.158Z" transform="translate(-422.396 -410.158)" fill="#d89a7a"/>
            <g id="Group_1617" data-name="Group 1617" transform="translate(12.626 1.693)">
              <path id="Path_1569" data-name="Path 1569" d="M438.065,409.89s4.464-2.219,4.835,3.991-.65,6.952-3.8,6.418-3.824-4.406-4.424-6.238S436.574,410.323,438.065,409.89Z" transform="translate(-434.585 -409.505)" fill="#eea886"/>
            </g>
            <path id="Path_1570" data-name="Path 1570" d="M429.448,453.957c.1-.434,5.158,1.5,15.324.64l1.873-25.89a1.4,1.4,0,0,0-.944-1.425l-5.829-1.991-4.885-.332-4.353,1.8a1.92,1.92,0,0,0-1.187,1.774Z" transform="translate(-420.763 -411.411)" fill="#a4caf7"/>
            <path id="Path_1571" data-name="Path 1571" d="M440.614,409.427s3.6,1.025,2.011,2.578-3.692.3-3.692.3.367,1.794-1.486,1.2c-1.471-.474-.908,1.651-.613,2.546a.514.514,0,0,1-.219.6h0a.515.515,0,0,1-.7-.153l-.441-.66s1.355,2.279.958,3.052-1.735-.658-2.692-3.052-1.075-3.888,1.076-5.621S440.614,409.427,440.614,409.427Z" transform="translate(-421.61 -407.734)" fill="#0a1737"/>
            <g id="Group_1618" data-name="Group 1618" transform="translate(0 85.006)">
              <path id="Path_1572" data-name="Path 1572" d="M423.616,520.835l-5.49,2.273v1.016h9.263l-.175-3.289Z" transform="translate(-418.126 -518.745)" fill="#0a1737"/>
              <path id="Path_1573" data-name="Path 1573" d="M425.283,520.2l.086-2.09,3.769.123-.257,1.967Z" transform="translate(-419.793 -518.11)" fill="#eea886"/>
            </g>
            <g id="Group_1619" data-name="Group 1619" transform="translate(18.884 85.425)">
              <path id="Path_1574" data-name="Path 1574" d="M446.623,521.38l5.49,2.273v1.016h-9.263l.175-3.288Z" transform="translate(-442.768 -519.29)" fill="#0a1737"/>
              <path id="Path_1575" data-name="Path 1575" d="M446.6,520.746l-.086-2.09-3.769.123.257,1.967Z" transform="translate(-442.743 -518.656)" fill="#eea886"/>
            </g>
            <path id="Path_1576" data-name="Path 1576" d="M439.64,411.868s3.153,2.444,5.9.691-.717-2.788-.717-2.788.8-2.271-.8-1.912a9.022,9.022,0,0,0-2.455.874s-1.69-2.25-2.4-1.114-2.752.637-3.031,2.112S439.64,411.868,439.64,411.868Z" transform="translate(-422.318 -407.298)" fill="#0a1737"/>
          </g>
        </g>
        <g id="Group_1623" data-name="Group 1623" transform="translate(0 38.801)">
          <path id="Path_1577" data-name="Path 1577" d="M491.09,521.29l-1.494-2.184a.4.4,0,0,0-.354-.175l-13.642.762a.4.4,0,0,0-.315.621l1.426,2.192a.4.4,0,0,0,.36.182l13.709-.769A.4.4,0,0,0,491.09,521.29Z" transform="translate(-411.26 -472.096)" fill="#0a1737"/>
          <path id="Path_1578" data-name="Path 1578" d="M467.257,506.174,460.7,486.511l-4.873-14.6-1.863-5.585c-.46-1.378-.367-3-1.649-3.936a6.037,6.037,0,0,0-2.515-.924c-2.622-.474-5.259-.2-7.885-.5a68.821,68.821,0,0,1-8.52-1.81c-2.543-.627-7.587-2.8-8.914.535-1.354,3.405-1.833,7.268-2.47,10.852-1.651,9.289-2.536,19.13-5.729,28.057-.479,1.339-1.421,4.465-3.261,4.529l-6.214.213" transform="translate(-395.327 -457.878)" fill="none" stroke="#0a1737" stroke-miterlimit="10" stroke-width="2"/>
          <g id="Group_1622" data-name="Group 1622" transform="translate(0 40.443)">
            <path id="Rectangle_1070" data-name="Rectangle 1070" d="M9.232,0h0a8.457,8.457,0,0,1,8.457,8.457V9.873a1.269,1.269,0,0,1-1.269,1.269H1.269A1.269,1.269,0,0,1,0,9.873V9.232A9.232,9.232,0,0,1,9.232,0Z" fill="#66a6af"/>
            <circle id="Ellipse_152" data-name="Ellipse 152" cx="3.289" cy="3.289" r="3.289" transform="translate(1.313 5.571)" fill="#0a1737"/>
            <circle id="Ellipse_153" data-name="Ellipse 153" cx="0.976" cy="0.976" r="0.976" transform="translate(3.625 7.883)" fill="#e8e8e8"/>
          </g>
        </g>
        <g id="Group_1624" data-name="Group 1624" transform="translate(19.577 14.78)">
          <path id="Path_1579" data-name="Path 1579" d="M430.548,456.218l.9-1.309a2.763,2.763,0,0,0,1.737.5c.865-.129,2.448,1.618,2.448,1.618s-2.28-.436-2.572.006,2.865,1.04,2.865,1.04-2.69,2.054-3.918.837S431.551,457.3,430.548,456.218Z" transform="translate(-420.434 -433.166)" fill="#eea886"/>
          <path id="Path_1580" data-name="Path 1580" d="M432.242,432.366s2.879-4.258-1.441-5.676-12.822,9.664-13.413,12.054S427.5,450.561,427.5,450.561l2.284-2.253s-5.1-7.327-8.095-9.674C421.693,438.634,430.035,434.618,432.242,432.366Z" transform="translate(-417.364 -426.565)" fill="#a4caf7"/>
          <line id="Line_124" data-name="Line 124" x2="2.992" y2="4.045" transform="translate(9.432 17.698)" fill="none" stroke="#031833" stroke-miterlimit="10" stroke-width="0.25"/>
          <path id="Path_1581" data-name="Path 1581" d="M429.445,438.118l4.5-2.773-4.506,3.709Z" transform="translate(-420.175 -428.61)" fill="#152c53"/>
        </g>
        <g id="Group_1625" data-name="Group 1625" transform="translate(41.177 15.422)">
          <path id="Path_1582" data-name="Path 1582" d="M465.27,460.3l-1.416.838a2.86,2.86,0,0,1,.384,1.83c-.2.882,2.223,2.392,2.223,2.392s-1.016-2.133-.538-2.4,1.464,2.611,1.464,2.611,1.715-2.2.549-3.56S466.312,461.416,465.27,460.3Z" transform="translate(-449.79 -435.063)" fill="#eea886"/>
          <path id="Path_1583" data-name="Path 1583" d="M445.788,428.7a1.967,1.967,0,0,1,2.011-1.289c1.579.111,4.094.9,4.617,4.738.773,5.677,1.578,10.251,1.578,10.251a109.255,109.255,0,0,1,7.554,10.131l-2.215,1.515s-7.209-5.937-8.674-9.609C449.335,441.116,444.317,432.987,445.788,428.7Z" transform="translate(-445.521 -427.401)" fill="#a4caf7"/>
          <path id="Path_1584" data-name="Path 1584" d="M450,444.238a49.712,49.712,0,0,1-2.224-6.711" transform="translate(-446.046 -429.76)" fill="none" stroke="#031833" stroke-miterlimit="10" stroke-width="0.25"/>
        </g>
      </g>
      <g id="Group_1630" data-name="Group 1630" transform="translate(445.538 358.621)">
        <path id="Path_1585" data-name="Path 1585" d="M553.867,423.189a13.346,13.346,0,0,0-1.764,6.547c-.092,4.011.78,6.274,2.341,7.753s5.754,2.235,7.038-.353.218-7.311,1.146-10.375S553.867,423.189,553.867,423.189Z" transform="translate(-536.198 -420.151)" fill="#ffb878"/>
        <path id="Path_1586" data-name="Path 1586" d="M562.44,435.274c2.631.13,7.555,8.332,7.555,8.332l1.8-5.15,1.248.416a66.2,66.2,0,0,0-.8,6.8,2.607,2.607,0,0,1-1.768,2.288,17,17,0,0,1-5.1-5.164A22.881,22.881,0,0,1,562.44,435.274Z" transform="translate(-538.607 -422.965)" fill="#eea886"/>
        <path id="Path_1587" data-name="Path 1587" d="M561.565,434.979a6.55,6.55,0,0,1,3.02.862c1.01.777,2.258,2.518,3.246,3.026,0,0-3.226,2.12-3.875,2.12S561.565,434.979,561.565,434.979Z" transform="translate(-538.403 -422.896)" fill="#0c476b"/>
        <path id="Path_1588" data-name="Path 1588" d="M576.144,439.39a7.14,7.14,0,0,1-.615,1.739c-.248.228-1.8-.45-2.046-.693a2.759,2.759,0,0,1-.381-1.046l.381-.376a.742.742,0,0,1,.034.376c-.034.214.625-.237.625-.237Z" transform="translate(-541.09 -423.836)" fill="#c38b6f"/>
        <path id="Path_1589" data-name="Path 1589" d="M567.91,493.952a59.4,59.4,0,0,1,4.385,12.639,1.69,1.69,0,0,1-.084.418c-.15.516.339,1.414.223,1.88-.012.05,1.214.354.766.354h2.74a9.338,9.338,0,0,1-1.323-2.281c-1.63-5.374-4.37-18.195-4.675-20.024s-.549-11-2.371-18.468-6.247,4.544-6.247,4.544,3.15,8.639,3.546,12.1S565.911,490.1,567.91,493.952Z" transform="translate(-538.347 -430.125)" fill="#eea886"/>
        <path id="Path_1590" data-name="Path 1590" d="M553.3,494.612c.81,2.541,2.611,13.316,2.611,13.316v2.789h2.631a32.833,32.833,0,0,1-.807-5.127c0-8.029-1.108-17.6-.944-21.243.161-3.558,1.355-10.571,1.355-10.571l-6.8-1.424c-.488,7.618.956,9.508,1.517,12.641C553.285,487.362,552.078,490.8,553.3,494.612Z" transform="translate(-536 -431.6)" fill="#eea886"/>
        <path id="Path_1591" data-name="Path 1591" d="M573.006,501.645c-1.59-6.119-3.559-15.383-3.814-16.917-.165-.991-.313-4.139-.7-8-.1-4.406-.609-14.478-3.084-20.2l-5.825.137c.235,4.541-4.167,9.44,1.194,14.692.7,1.962,3.011,8.611,3.347,11.54.4,3.456,1.04,4.989,3.038,8.843a52.766,52.766,0,0,1,3.688,9.9Z" transform="translate(-537.597 -427.915)" fill="#6097b2"/>
        <path id="Path_1592" data-name="Path 1592" d="M551.629,476.451h0c.373,1.934.9,3.228,1.194,4.856.424,2.37-.782,5.8.435,9.62.576,1.807,1.652,7.772,2.227,11.071h2.21c0-.031,0-.064,0-.094,0-8.029-1.108-17.6-.943-21.243.07-1.534.331-3.711.607-5.691,0-.009,1.052-6.769,1.881-7.26.5-.3,4.533-11.181,4.533-11.181l-8.719.406a12.739,12.739,0,0,0-3.745,11.732s-.005.077-.012.213A29.647,29.647,0,0,0,551.629,476.451Z" transform="translate(-535.962 -427.915)" fill="#8bbddb"/>
        <path id="Path_1593" data-name="Path 1593" d="M563.442,445.586l2.171,14.517c-4.036,1.764-15.625.932-15.624.878.069-4.716,3.013-13.8,2.323-14.891-.083-.129-.162-.246-.229-.341-1.157-1.626-2.992-4.24-3.553-6.587a3.767,3.767,0,0,1,.483-3.333,2.443,2.443,0,0,1,.849-.69,4.388,4.388,0,0,1,2.2-.341,12.543,12.543,0,0,0,2.413.041,12.677,12.677,0,0,1,4.685.308q.7.494,1.277.987a12.694,12.694,0,0,1,1.785,1.856,9.582,9.582,0,0,1,.937,1.457A6.888,6.888,0,0,1,563.442,445.586Z" transform="translate(-535.328 -422.837)" fill="#105e99"/>
        <g id="Group_1627" data-name="Group 1627" transform="translate(17.264)">
          <path id="Path_1594" data-name="Path 1594" d="M556.477,429.32c-.047,1.138.639,3.431,2.328,3.566,0,0-.426,1.191.141,1.513,0,0,.11,2.044-4.541-.626,0,0,.907-.287,1.217-1.8a11.9,11.9,0,0,0,.25-2.695A.35.35,0,0,0,556.477,429.32Z" transform="translate(-553.999 -421.569)" fill="#eea886"/>
          <path id="Path_1595" data-name="Path 1595" d="M563.392,425.576s-.928,6.111-5.91,5.175a4.593,4.593,0,0,1-3.534-4.843C554.311,423.669,561.519,422.585,563.392,425.576Z" transform="translate(-553.883 -420.28)" fill="#ffb878"/>
          <path id="Path_1596" data-name="Path 1596" d="M556.022,430.951a4.966,4.966,0,0,0,3.16,1.935l-2.934-3.606C556.537,429.713,556.022,430.951,556.022,430.951Z" transform="translate(-554.376 -421.569)" fill="#c38b6f"/>
          <path id="Path_1597" data-name="Path 1597" d="M558.364,420.814s5.434.4,4.987,4.159-2.848,6.77-5.416,5.7C555.693,429.731,553.872,421.149,558.364,420.814Z" transform="translate(-554.277 -419.598)" fill="#eea886"/>
          <path id="Path_1598" data-name="Path 1598" d="M559.139,423.754a5.889,5.889,0,0,0-2.374,2.76s-.388-1.316-1.164-.639.378,2.622.378,2.622-.332.348-1.087.066-1.555-3.439-.528-4.666A2.975,2.975,0,0,1,559.139,423.754Z" transform="translate(-553.876 -420.017)" fill="#ffb878"/>
          <path id="Path_1599" data-name="Path 1599" d="M561.988,422.694s-3.156,3.436-7.294,3.708c0,0-.628-.3-.684-2.479a4.774,4.774,0,0,1,3.989-4.6c2.4-.555,4.489,1.526,4.489,1.526s3.579,1.565-.028,6.388A5.059,5.059,0,0,0,561.988,422.694Z" transform="translate(-553.907 -419.228)" fill="#ffb878"/>
        </g>
        <path id="Path_1600" data-name="Path 1600" d="M574.606,522.768s-.22-2.967.36-3.742,2.176.719,2.176.719l1.422-.648a2.016,2.016,0,0,0,1.079,1.688c1.151.759,2.088.543,2.16,1.982Z" transform="translate(-541.431 -442.417)" fill="#6097b2"/>
        <path id="Path_1601" data-name="Path 1601" d="M557.09,519.671s.036-.986,1.4-.871,1.27,1.107,1.27,1.107a.311.311,0,0,1,.386,0c.18.16.028,1.527.374,1.815s.239,1.043.239,1.043h-3.995s-.216-.971.179-1.331S556.334,519.779,557.09,519.671Z" transform="translate(-537.272 -442.414)" fill="#6097b2"/>
        <g id="Group_1629" data-name="Group 1629" transform="translate(0 15.687)">
          <g id="Group_1628" data-name="Group 1628" transform="translate(14.66 0)">
            <rect id="Rectangle_1071" data-name="Rectangle 1071" width="52.239" height="1.248" transform="translate(0 48.892) rotate(-69.377)" fill="#662c33"/>
          </g>
          <path id="Path_1602" data-name="Path 1602" d="M549.44,501.944a3.684,3.684,0,0,0-.4.166,2.6,2.6,0,0,0-.279.153,1.911,1.911,0,0,0-.24.159,2.718,2.718,0,0,0-.338.275l-.125.112.1-.136a2.932,2.932,0,0,1,.278-.347,2.13,2.13,0,0,1,.21-.216,2.721,2.721,0,0,1,.255-.222,4.046,4.046,0,0,1,.394-.272,3.01,3.01,0,0,0-.7-.875l-.09.091c-.2.212-.374.419-.52.6s-.257.343-.325.461l-.115.183.084-.2c.049-.13.14-.3.249-.516s.258-.445.423-.694l.07-.1a3.76,3.76,0,0,0-1.563-.616,4.152,4.152,0,0,1-.22.905,2.588,2.588,0,0,1-.173.364l-.074.131.042-.145a2.484,2.484,0,0,0,.08-.381,3.935,3.935,0,0,0-.006-.925,6.266,6.266,0,0,0-.734-.023c0,.022,0,.044,0,.067a7.744,7.744,0,0,1-.023.8c-.025.252-.051.486-.091.684s-.074.36-.1.473l-.044.177.008-.183c.005-.116.015-.281.008-.479s-.018-.426-.042-.669a7.23,7.23,0,0,0-.127-.751c-.008-.034-.018-.067-.025-.1l-.028,0-.844,4.473s-4.6,9.144-13.033,13.55c.3-.058.615-.127.944-.209.285-.072.577-.159.874-.247.291-.105.6-.189.884-.315s.587-.23.864-.371a8.283,8.283,0,0,0,.809-.42l.38-.216.347-.232a6.383,6.383,0,0,0,.623-.448l.506-.41.36-.351.315-.307-.288.331-.332.382-.476.453a6.563,6.563,0,0,1-.594.5l-.334.265-.369.251a8.673,8.673,0,0,1-.792.5c-.272.167-.564.308-.854.453s-.591.265-.883.4c-.216.084-.429.162-.641.239h4.6c.1-.061.2-.12.3-.185a12.157,12.157,0,0,0,1.085-.783l.461-.41.382-.4c.11-.13.2-.257.292-.367a2.28,2.28,0,0,0,.2-.3l.165-.272-.133.289a2.342,2.342,0,0,1-.169.326c-.075.12-.156.258-.253.4l-.343.451-.424.471c-.258.26-.544.524-.843.776h3.3c.13-.184.26-.377.386-.574.158-.248.308-.5.434-.745a5.7,5.7,0,0,0,.311-.684,2.77,2.77,0,0,0,.148-.512l.033-.2,0,.206a2.9,2.9,0,0,1-.057.543,5.8,5.8,0,0,1-.193.751c-.084.272-.192.555-.307.835-.054.129-.109.258-.165.384h1.565c.077-.073.155-.146.231-.222a6.684,6.684,0,0,0,.56-.625c.087-.1.156-.211.228-.312a3.24,3.24,0,0,0,.179-.3,1.964,1.964,0,0,0,.124-.265.948.948,0,0,0,.074-.215l.048-.195-.014.2a.96.96,0,0,1-.035.231,2.048,2.048,0,0,1-.078.294,3.105,3.105,0,0,1-.129.338c-.054.117-.107.243-.176.364a7.155,7.155,0,0,1-.432.7h2.05c.083-.219.165-.455.235-.7a6.807,6.807,0,0,0,.258-1.376,3.955,3.955,0,0,0,.007-.466l-.006-.18.042.174a4.171,4.171,0,0,1,.087.468,6.97,6.97,0,0,1,.021,1.455c-.017.211-.044.419-.075.621h1.293c.027-.161.053-.325.076-.491a9.8,9.8,0,0,0,.121-1.54,2.815,2.815,0,0,0-.058-.5l-.068-.183.1.17a2.873,2.873,0,0,1,.153.5,9.993,9.993,0,0,1,.166,1.576c.007.158.012.316.015.471h.209s.293-9.117-1.164-13.07l1.977-2.913A1.707,1.707,0,0,0,549.44,501.944Z" transform="translate(-531.372 -453.696)" fill="#f2a668"/>
        </g>
        <path id="Path_1603" data-name="Path 1603" d="M548.848,436.15c2.19-.924,2.585,12.208,2.585,12.208s5.546,6.588,8.6,9.362l-.489,1.334s-9.22-6.988-10.4-8.773c0,0-.9-5.6-1.249-8.373S547.373,436.772,548.848,436.15Z" transform="translate(-535.164 -423.158)" fill="#eea886"/>
        <path id="Path_1604" data-name="Path 1604" d="M563.106,463.768s1.369.181,1.812.186.763,1.107.8,1.542-.278.3-.278.3l-.139.659h-.208l-.173.728h-.312l-.347.659-.47.3s-.017-.249.332-.473-.139-.763-.139-.763a6.571,6.571,0,0,1-1.2-1.6A1.524,1.524,0,0,1,563.106,463.768Z" transform="translate(-538.662 -429.601)" fill="#eea886"/>
        <path id="Path_1605" data-name="Path 1605" d="M573.9,439.486a3.019,3.019,0,0,1,0-1.144,1.384,1.384,0,0,1,1.006-.417.357.357,0,0,1,.208.243.763.763,0,0,1,.417,0c.173.069.173.416.173.416l.416.118s.447.384,0,.68-.287.737-.416.832-.451-.59-.312-.729c0,0-.461.243-.282.52s-.2.347-.2.347-.45-.693-.173-1.04c0,0-.277,0-.277.347a.432.432,0,0,1-.351.413l.039-.937S574.1,439.417,573.9,439.486Z" transform="translate(-541.26 -423.58)" fill="#eea886"/>
        <path id="Path_1606" data-name="Path 1606" d="M549.963,434.979c-1.972.079-2.284,1.223-3.689,5.852a15.923,15.923,0,0,0,5.41,1.924s-.52-3.433-.728-4.993A7.61,7.61,0,0,0,549.963,434.979Z" transform="translate(-534.842 -422.896)" fill="#0c476b"/>
      </g>
    </g>
  </g>
</svg>
