<?xml version="1.0" encoding="UTF-8"?>
<svg width="50px" height="30px" viewBox="0 0 50 30" version="1.1" xmlns="http://www.w3.org/2000/svg" xmlns:xlink="http://www.w3.org/1999/xlink">
    <!-- Generator: Sketch 62 (91390) - https://sketch.com -->
    <title>Artboard</title>
    <desc>Created with Sketch.</desc>
    <defs>
        <linearGradient x1="0%" y1="50%" x2="100%" y2="50%" id="linearGradient-1">
            <stop stop-color="#14294B" offset="0%"></stop>
            <stop stop-color="#142B52" offset="100%"></stop>
        </linearGradient>
    </defs>
    <g id="Artboard" stroke="none" stroke-width="1" fill="none" fill-rule="evenodd">
        <g id="wrench_gig" transform="translate(10.000000, 0.000000)" fill-rule="nonzero">
            <path d="M4.67516129,0.889354839 L7.82129032,4.03548387 C8.21810754,4.43573627 8.21810754,5.08103792 7.82129032,5.48129032 L5.48516129,7.82322581 C5.08490889,8.22004303 4.43960724,8.22004303 4.03935484,7.82322581 L0.893225806,4.67612903 C0.792728679,4.57752792 0.647679781,4.53923814 0.511610554,4.57539084 C0.375541326,4.61154354 0.268626023,4.71677855 0.230322581,4.85225806 C-0.421547067,7.23606477 0.317125488,9.78412939 2.14288634,11.4496821 C3.9686472,13.1152348 6.57365301,13.617445 8.88774194,12.75 L22.5058065,27.6445161 C23.1756413,28.3771976 24.1158125,28.8043026 25.108282,28.8267798 C26.1007514,28.849257 27.0592947,28.4651536 27.7616129,27.7635484 L27.7616129,27.7635484 C28.4674031,27.0586889 28.8525151,26.0947556 28.8267127,25.0976092 C28.8009102,24.1004628 28.3664609,23.1577367 27.6251613,22.4903226 L12.7025806,9.03096774 C13.6345405,6.71132159 13.1716892,4.06392782 11.5079698,2.19809153 C9.84425037,0.332255246 7.26699868,-0.429780699 4.85612903,0.231290323 C4.71944558,0.266221545 4.61198174,0.371751483 4.57457442,0.507778126 C4.53716709,0.643804768 4.57555911,0.789445069 4.67516129,0.889354839 Z M26.2074194,25.1719355 C26.2074194,25.7732132 25.7199874,26.2606452 25.1187097,26.2606452 C24.5174319,26.2606452 24.03,25.7732132 24.03,25.1719355 C24.03,24.5706577 24.5174319,24.0832258 25.1187097,24.0832258 C25.4074534,24.0832258 25.684371,24.1979288 25.8885437,24.4021015 C26.0927163,24.6062742 26.2074194,24.8831917 26.2074194,25.1719355 L26.2074194,25.1719355 Z" id="Path_736" fill="url(#linearGradient-1)"></path>
            <g id="Group_1082" transform="translate(1.125484, 1.535806)" fill="#000000">
                <path d="M10.3364516,6.12290323 L11.6458065,7.30741935 C12.5236928,4.90190673 11.9264387,2.20558017 10.1148387,0.395806452 C9.97624662,0.256160348 9.8305707,0.123727691 9.6783871,-0.000967741935 C10.8999089,1.80481308 11.1464204,4.09882064 10.3364516,6.12290323 L10.3364516,6.12290323 Z" id="Path_737"></path>
                <path d="M20.1329032,24.7480645 L21.386129,26.1145161 C22.0559639,26.8471976 22.9961351,27.2743026 23.9886045,27.2967798 C24.981074,27.319257 25.9396173,26.9351536 26.6419355,26.2335484 L26.6419355,26.2335484 C27.3474133,25.5287217 27.7323262,24.565003 27.7065253,23.5681009 C27.6807244,22.5711988 27.2464761,21.6286808 26.5054839,20.9612903 L25.9954839,20.5016129 C26.7953659,21.9242241 26.5522456,23.7051298 25.4003226,24.8612903 L25.4003226,24.8612903 C24.695848,25.56248 23.7362532,25.9466277 22.7425253,25.925267 C21.7487974,25.9039063 20.8065962,25.4788786 20.1329032,24.7480645" id="Path_738"></path>
                <path d="M7.76709677,11.22 L6.52548387,9.84774194 C4.30779474,10.6763851 1.81591983,10.2499245 -6.87622002e-15,8.73096774 C0.236072792,9.08150403 0.505733496,9.40820834 0.80516129,9.70645161 C2.62839839,11.5322013 5.35040818,12.1239754 7.76709677,11.22" id="Path_739"></path>
                <path d="M16.1148387,11.5887097 L14.9535484,12.75 L14.1793548,11.9758065 C13.9488404,11.743908 13.6353638,11.6135119 13.3083871,11.6135119 C12.9814103,11.6135119 12.6679338,11.743908 12.4374194,11.9758065 L11.3729032,13.0403226 C11.6404147,13.730179 11.6383417,14.495474 11.3670968,15.183871 L13.9296774,17.9845161 C14.487357,17.7271018 15.1108773,17.6480211 15.7151613,17.7580645 C16.0701306,17.826031 16.4356767,17.7132485 16.6906452,17.4570968 L17.2974194,16.8503226 C17.5293178,16.6198081 17.6597139,16.3063316 17.6597139,15.9793548 C17.6597139,15.6523781 17.5293178,15.3389016 17.2974194,15.1083871 L17.2974194,15.1083871 C17.0907569,14.9027845 16.9745656,14.6232906 16.9745656,14.3317742 C16.9745656,14.0402578 17.0907569,13.7607639 17.2974194,13.5551613 L17.7619355,13.0906452 L16.1148387,11.5887097 Z" id="Path_740"></path>
            </g>
            <path d="M28.6741935,3.61451613 L26.6845161,1.62483871 C26.594112,1.5344621 26.4661587,1.49239166 26.3397614,1.51148491 C26.213364,1.53057817 26.1035464,1.60856565 26.043871,1.7216129 L24.9725806,3.75387097 L15.1751613,13.5435484 L16.7516129,15.12 L26.5490323,5.32258065 L28.5812903,4.25129032 C28.6933284,4.19150572 28.7702879,4.08203569 28.7886213,3.95637499 C28.8069548,3.8307143 28.7644802,3.70381924 28.6741935,3.61451613 L28.6741935,3.61451613 Z" id="Path_741" fill="#E9EBF2"></path>
            <path d="M28.6741935,3.61064516 L28.17,3.10645161 C28.2071443,3.28122281 28.1237767,3.45941623 27.9658065,3.54290323 L25.9335484,4.61419355 L16.1429032,14.4174194 L15.2245161,13.4990323 L15.1790323,13.5445161 L16.7554839,15.1209677 L26.5529032,5.32354839 L28.5851613,4.25225806 C28.6984402,4.19210431 28.7759683,4.08124023 28.7935972,3.95419764 C28.811226,3.82715505 28.7668136,3.69937012 28.6741935,3.61064516 L28.6741935,3.61064516 Z" id="Path_742" fill="#C7CAD3"></path>
            <path d="M13.4225806,19.2590323 C14.2476749,18.4341554 15.4819498,18.1741682 16.5696774,18.596129 L17.6341935,17.5316129 C17.866092,17.3010984 17.9964881,16.9876219 17.9964881,16.6606452 C17.9964881,16.3336684 17.866092,16.0201919 17.6341935,15.7896774 L14.4967742,12.6667742 C14.2662597,12.4348758 13.9527832,12.3044797 13.6258065,12.3044797 C13.2988297,12.3044797 12.9853532,12.4348758 12.7548387,12.6667742 L11.6903226,13.7312903 C12.1118533,14.8189617 11.8516362,16.0529268 11.0267976,16.8777654 C10.2019591,17.7026039 8.967994,17.962821 7.88032258,17.5412903 L2.2616129,23.16 C0.917759476,24.5054627 0.917759476,26.6851824 2.2616129,28.0306452 L2.2616129,28.0306452 C3.60707564,29.3744986 5.78679533,29.3744986 7.13225806,28.0306452 L12.7509677,22.4119355 C12.3281336,21.3209066 12.5918193,20.0830276 13.4225806,19.2590323 L13.4225806,19.2590323 Z" id="Path_743" fill="#51BA6C"></path>
            <path d="M17.6303226,15.7954839 L16.8929032,15.0580645 C17.0022057,15.4789975 16.8790453,15.9262836 16.5696774,16.2319355 L15.5051613,17.2964516 C14.4174899,16.8749209 13.1835248,17.135138 12.3586862,17.9599766 C11.5338477,18.7848151 11.2736306,20.0187802 11.6951613,21.1064516 L6.07645161,26.7193548 C4.86558642,27.9278562 2.95160072,28.0654523 1.58032258,27.0425806 C1.74933536,27.4076026 1.98162876,27.7398247 2.26645161,28.023871 C3.61191435,29.3677244 5.79163404,29.3677244 7.13709677,28.023871 L12.7558065,22.4051613 C12.3342757,21.3174899 12.5944928,20.0835248 13.4193314,19.2586862 C14.2441699,18.4338477 15.478135,18.1736306 16.5658065,18.5951613 L17.6303226,17.5306452 C18.1067366,17.0503629 18.1067366,16.2757661 17.6303226,15.7954839 Z" id="Path_744" fill="#30975D"></path>
        </g>
    </g>
</svg>