<svg xmlns="http://www.w3.org/2000/svg" xmlns:xlink="http://www.w3.org/1999/xlink" width="550.604" height="516.211" viewBox="0 0 550.604 516.211">
  <defs>
    <clipPath id="clip-path">
      <path id="Path_921" data-name="Path 921" d="M1361.118,355.711c-2.916-.017-5.746-.392-7.743-3.252-3.921-5.614-9.9-10.654-16.615-4.945-3.871,3.292-.96,10.066-4.291,13.324-2.946,2.881-6.691,2.405-8.2,7.188-2.217,7.035,4.769,13.2,7.011,19.284,1.882,5.106-2.351,7.051-4.252,11.03-1.466,3.067-.712,6.352.885,9.284,2.817,5.17,9.061,9.334,7.615,16.028-1.207,5.588-2.33,10.567,2.6,14.8,3.379,2.9,9.651,5.548,9.172,10.921-.17,1.9-1.485,3.522-1.846,5.4-.571,2.966,1.35,5.854,3.582,7.889,5.078,4.633,9.537,9,13.341,14.831,1.625,2.49,8.131,8.114,5.531,11.52,4.726-6.19,9.721-12.192,14.016-18.7,3.533-5.351,8.857-13.179,5.232-19.77-1.127-2.05-3.224-3.578-3.8-5.846-1.037-4.1,2.987-7.893,4.483-11.378,2.349-5.471.626-11.825-3.512-15.932-1.958-1.943-4.082-4.079-4.37-6.823-.314-3,1.564-5.788,2.416-8.551a42.7,42.7,0,0,0,1.562-7.9,16.451,16.451,0,0,0-.159-5.607c-.836-3.475-3.965-5.407-6.281-7.872-5.515-5.871-2.616-12.772-5.025-19.594C1370.313,354.913,1365.614,355.737,1361.118,355.711Z" transform="translate(-1323.841 -345)" fill="#1d7e8e"/>
    </clipPath>
    <clipPath id="clip-path-2">
      <path id="Path_930" data-name="Path 930" d="M1413.054,418.218c2.117.391,4.222.511,6.067-1.287,3.621-3.53,8.659-6.358,12.736-1.288,2.352,2.924-.7,7.435,1.268,10.259,1.738,2.5,4.521,2.671,4.952,6.349.634,5.409-5.286,8.914-7.755,13.017-2.072,3.443.729,5.44,1.557,8.589.639,2.428-.362,4.706-1.927,6.612-2.759,3.36-7.865,5.515-7.742,10.572.1,4.22.228,7.987-3.935,10.377-2.853,1.638-7.768,2.689-8.165,6.652-.141,1.4.59,2.76.592,4.17,0,2.231-1.79,4.059-3.691,5.227a56.31,56.31,0,0,0-11.73,8.911c-1.524,1.582-7.022,4.76-5.607,7.591-2.572-5.144-5.365-10.189-7.579-15.5-1.822-4.371-4.6-10.786-1.059-15.066,1.1-1.331,2.834-2.149,3.564-3.715,1.319-2.827-1.074-6.139-1.677-8.873a10.8,10.8,0,0,1,4.753-11.071c1.689-1.139,3.526-2.394,4.114-4.345.642-2.129-.333-4.415-.57-6.537a31.48,31.48,0,0,1-.039-5.947,12.149,12.149,0,0,1,.892-4.045c1.087-2.4,3.624-3.373,5.646-4.841,4.812-3.494,3.665-8.9,6.356-13.517C1406.5,416.366,1409.789,417.614,1413.054,418.218Z" transform="translate(-1379.331 -412.888)" fill="#00a09d"/>
    </clipPath>
  </defs>
  <g id="Group_1427" data-name="Group 1427" transform="translate(-1060.794 -188.011)">
    <path id="Path_912" data-name="Path 912" d="M1282.092,234.993c32.629.777,153.218-1.419,188.685,49.654s19.862,81.574,46.107,117.751,73.772,46.817,87.958,76.609-15.605,94.343-62.422,93.633-63.841-17.734-102.145,9.931-85.121,72.353-155.346,95.052-65.969-51.073-102.855-90.086-119.879-32.63-124.135-92.924,85.83-72.353,87.249-122.007S1222.508,233.574,1282.092,234.993Z" transform="translate(3 22.349)" fill="#ebf6f1"/>
    <g id="Group_1363" data-name="Group 1363" transform="translate(1246.513 299.37)">
      <g id="Group_1349" data-name="Group 1349">
        <path id="Path_913" data-name="Path 913" d="M1361.118,355.711c-2.916-.017-5.746-.392-7.743-3.252-3.921-5.614-9.9-10.654-16.615-4.945-3.871,3.292-.96,10.066-4.291,13.324-2.946,2.881-6.691,2.405-8.2,7.188-2.217,7.035,4.769,13.2,7.011,19.284,1.882,5.106-2.351,7.051-4.252,11.03-1.466,3.067-.712,6.352.885,9.284,2.817,5.17,9.061,9.334,7.615,16.028-1.207,5.588-2.33,10.567,2.6,14.8,3.379,2.9,9.651,5.548,9.172,10.921-.17,1.9-1.485,3.522-1.846,5.4-.571,2.966,1.35,5.854,3.582,7.889,5.078,4.633,9.537,9,13.341,14.831,1.625,2.49,8.131,8.114,5.531,11.52,4.726-6.19,9.721-12.192,14.016-18.7,3.533-5.351,8.857-13.179,5.232-19.77-1.127-2.05-3.224-3.578-3.8-5.846-1.037-4.1,2.987-7.893,4.483-11.378,2.349-5.471.626-11.825-3.512-15.932-1.958-1.943-4.082-4.079-4.37-6.823-.314-3,1.564-5.788,2.416-8.551a42.7,42.7,0,0,0,1.562-7.9,16.451,16.451,0,0,0-.159-5.607c-.836-3.475-3.965-5.407-6.281-7.872-5.515-5.871-2.616-12.772-5.025-19.594C1370.313,354.913,1365.614,355.737,1361.118,355.711Z" transform="translate(-1323.841 -345)" fill="#1d7e8e"/>
        <g id="Group_1348" data-name="Group 1348" clip-path="url(#clip-path)">
          <g id="Group_1347" data-name="Group 1347" transform="translate(-5.261 -4.826)">
            <g id="Group_1340" data-name="Group 1340" transform="translate(18.219)">
              <path id="Path_914" data-name="Path 914" d="M1374.362,494.059l-1.112-.1c1.893-21.692.493-45.271-4.161-70.083-4.853-25.871-10.5-46.517-17.764-64.971a200.836,200.836,0,0,0-9.216-20.189l.987-.521a201.861,201.861,0,0,1,9.268,20.3c7.293,18.522,12.956,39.231,17.822,65.174C1374.86,448.584,1376.264,472.266,1374.362,494.059Z" transform="translate(-1342.11 -338.197)" fill="#00a09d"/>
            </g>
            <g id="Group_1341" data-name="Group 1341" transform="translate(0 31.204)">
              <path id="Path_915" data-name="Path 915" d="M1355.025,404.211a18.135,18.135,0,0,0-4.077-3.191c-.577-.362-1.231-.772-1.968-1.275a140.908,140.908,0,0,0-32.555-16.506l.371-1.052a142.019,142.019,0,0,1,32.814,16.637c.718.49,1.334.877,1.931,1.251a19.022,19.022,0,0,1,4.294,3.368Z" transform="translate(-1316.425 -382.187)" fill="#00a09d"/>
            </g>
            <g id="Group_1342" data-name="Group 1342" transform="translate(7.707 63.275)">
              <path id="Path_916" data-name="Path 916" d="M1363.763,442.58A96.632,96.632,0,0,0,1327.29,428.5l.182-1.1a97.767,97.767,0,0,1,36.9,14.243Z" transform="translate(-1327.29 -427.4)" fill="#00a09d"/>
            </g>
            <g id="Group_1343" data-name="Group 1343" transform="translate(12.518 89.53)">
              <path id="Path_917" data-name="Path 917" d="M1370.056,483.565a81.978,81.978,0,0,0-35.984-18.062l.24-1.09a83.1,83.1,0,0,1,36.476,18.309Z" transform="translate(-1334.072 -464.413)" fill="#00a09d"/>
            </g>
            <g id="Group_1344" data-name="Group 1344" transform="translate(37.875 15.842)">
              <path id="Path_918" data-name="Path 918" d="M1370.934,396.8l-1.114-.072a102.755,102.755,0,0,1,9.119-36.193l1.015.464A101.636,101.636,0,0,0,1370.934,396.8Z" transform="translate(-1369.82 -360.53)" fill="#00a09d"/>
            </g>
            <g id="Group_1345" data-name="Group 1345" transform="translate(43.837 47.017)">
              <path id="Path_919" data-name="Path 919" d="M1379.235,434.662l-1.011-.472a91.783,91.783,0,0,1,22.234-29.711l.739.836A90.65,90.65,0,0,0,1379.235,434.662Z" transform="translate(-1378.224 -404.479)" fill="#00a09d"/>
            </g>
            <g id="Group_1346" data-name="Group 1346" transform="translate(49.008 82.422)">
              <path id="Path_920" data-name="Path 920" d="M1386.607,481.206l-1.092-.228a34.485,34.485,0,0,1,3.812-10.053,61.411,61.411,0,0,1,7.5-9.931c1.958-2.226,3.974-4.447,5.989-6.6l.816.763c-2.008,2.146-4.016,4.36-5.967,6.576a60.483,60.483,0,0,0-7.369,9.747A33.344,33.344,0,0,0,1386.607,481.206Z" transform="translate(-1385.515 -454.392)" fill="#00a09d"/>
            </g>
          </g>
        </g>
      </g>
      <g id="Group_1359" data-name="Group 1359" transform="translate(39.361 48.155)">
        <path id="Path_922" data-name="Path 922" d="M1413.054,418.218c2.117.391,4.222.511,6.067-1.287,3.621-3.53,8.659-6.358,12.736-1.288,2.352,2.924-.7,7.435,1.268,10.259,1.738,2.5,4.521,2.671,4.952,6.349.634,5.409-5.286,8.914-7.755,13.017-2.072,3.443.729,5.44,1.557,8.589.639,2.428-.362,4.706-1.927,6.612-2.759,3.36-7.865,5.515-7.742,10.572.1,4.22.228,7.987-3.935,10.377-2.853,1.638-7.768,2.689-8.165,6.652-.141,1.4.59,2.76.592,4.17,0,2.231-1.79,4.059-3.691,5.227a56.31,56.31,0,0,0-11.73,8.911c-1.524,1.582-7.022,4.76-5.607,7.591-2.572-5.144-5.365-10.189-7.579-15.5-1.822-4.371-4.6-10.786-1.059-15.066,1.1-1.331,2.834-2.149,3.564-3.715,1.319-2.827-1.074-6.139-1.677-8.873a10.8,10.8,0,0,1,4.753-11.071c1.689-1.139,3.526-2.394,4.114-4.345.642-2.129-.333-4.415-.57-6.537a31.48,31.48,0,0,1-.039-5.947,12.149,12.149,0,0,1,.892-4.045c1.087-2.4,3.624-3.373,5.646-4.841,4.812-3.494,3.665-8.9,6.356-13.517C1406.5,416.366,1409.789,417.614,1413.054,418.218Z" transform="translate(-1379.331 -412.888)" fill="#00a09d"/>
        <g id="Group_1358" data-name="Group 1358" clip-path="url(#clip-path-2)">
          <g id="Group_1357" data-name="Group 1357" transform="translate(6.401 -2.802)">
            <g id="Group_1350" data-name="Group 1350" transform="translate(1.999)">
              <path id="Path_923" data-name="Path 923" d="M1392.282,517.857l-1.11-.113c1.639-16.085,5.939-33.082,12.781-50.517,7.125-18.154,14.1-32.4,21.962-44.833a149.268,149.268,0,0,1,9.541-13.457l.872.7a148.08,148.08,0,0,0-9.47,13.356c-7.82,12.372-14.768,26.559-21.866,44.645C1398.187,484.976,1393.911,501.874,1392.282,517.857Z" transform="translate(-1391.172 -408.937)" fill="#1d7e8e"/>
            </g>
            <g id="Group_1351" data-name="Group 1351" transform="translate(24.396 25.189)">
              <path id="Path_924" data-name="Path 924" d="M1423.4,455.394l-.651-.907a14.164,14.164,0,0,1,3.613-1.866c.483-.188.982-.383,1.568-.638a105.052,105.052,0,0,1,26.141-7.536l.168,1.1a103.915,103.915,0,0,0-25.863,7.457c-.606.264-1.139.472-1.609.655A13.077,13.077,0,0,0,1423.4,455.394Z" transform="translate(-1422.746 -444.447)" fill="#1d7e8e"/>
            </g>
            <g id="Group_1352" data-name="Group 1352" transform="translate(17.058 47.388)">
              <path id="Path_925" data-name="Path 925" d="M1412.82,482.034,1412.4,481a72.343,72.343,0,0,1,28.8-5.235l-.028,1.116A71.206,71.206,0,0,0,1412.82,482.034Z" transform="translate(-1412.401 -475.742)" fill="#1d7e8e"/>
            </g>
            <g id="Group_1353" data-name="Group 1353" transform="translate(9.617 65.781)">
              <path id="Path_926" data-name="Path 926" d="M1402.471,510.889l-.56-.965a61.516,61.516,0,0,1,29.062-8.252l.031,1.116A60.392,60.392,0,0,0,1402.471,510.889Z" transform="translate(-1401.911 -501.672)" fill="#1d7e8e"/>
            </g>
            <g id="Group_1354" data-name="Group 1354" transform="translate(23.106 7.702)">
              <path id="Path_927" data-name="Path 927" d="M1423.619,447.363l-1.107-.138a74.924,74.924,0,0,0-1.584-27.165l1.083-.265A76.01,76.01,0,0,1,1423.619,447.363Z" transform="translate(-1420.928 -419.795)" fill="#1d7e8e"/>
            </g>
            <g id="Group_1355" data-name="Group 1355" transform="translate(5.129 27.62)">
              <path id="Path_928" data-name="Path 928" d="M1407.427,472.832a66.8,66.8,0,0,0-11.843-24.274l.882-.684a67.935,67.935,0,0,1,12.041,24.682Z" transform="translate(-1395.584 -447.874)" fill="#1d7e8e"/>
            </g>
            <g id="Group_1356" data-name="Group 1356" transform="translate(0 53.28)">
              <path id="Path_929" data-name="Path 929" d="M1397.075,505.824a24.518,24.518,0,0,0-1.322-7.523,44.534,44.534,0,0,0-3.984-8.063c-1.107-1.876-2.256-3.757-3.415-5.593l.943-.6c1.166,1.845,2.32,3.736,3.433,5.622a45.537,45.537,0,0,1,4.079,8.269,25.62,25.62,0,0,1,1.382,7.865Z" transform="translate(-1388.354 -484.049)" fill="#1d7e8e"/>
            </g>
          </g>
        </g>
      </g>
      <g id="Group_1360" data-name="Group 1360" transform="translate(27.729 148.223)">
        <path id="Path_931" data-name="Path 931" d="M1362.932,553.958H1406.2l-7.591,43.3h-28.085Z" transform="translate(-1362.932 -553.958)" fill="#9d786a"/>
      </g>
      <g id="Group_1361" data-name="Group 1361" transform="translate(22.432 136.069)">
        <rect id="Rectangle_1041" data-name="Rectangle 1041" width="53.861" height="12.154" transform="translate(53.861 12.154) rotate(180)" fill="#94624f"/>
      </g>
      <g id="Group_1362" data-name="Group 1362" transform="translate(27.729 148.223)" opacity="0.1">
        <path id="Path_932" data-name="Path 932" d="M1405.193,559.7h-41.254l-1.007-5.742H1406.2Z" transform="translate(-1362.932 -553.958)" fill="#231f20"/>
      </g>
    </g>
    <g id="Group_1364" data-name="Group 1364" transform="translate(1176.992 236.598)">
      <path id="Path_933" data-name="Path 933" d="M1226.346,416c-.062-.943-.121-1.9-.172-2.833l.656-.036c.051.934.109,1.885.171,2.826Zm339.749,2.563-.365-.546a27.3,27.3,0,0,0,2.738-2.2l.439.489A27.354,27.354,0,0,1,1566.1,418.562Zm-340.087-8.944c-.047-1.182-.084-2.377-.112-3.55l.656-.016c.028,1.169.065,2.36.112,3.54Zm345.437,4.158-.488-.44a30.435,30.435,0,0,0,2.2-2.735l.535.38A31.132,31.132,0,0,1,1571.445,413.776Zm-345.6-11.259c-.009-1.184-.009-2.379,0-3.552l.657.006c-.011,1.169-.011,2.361,0,3.541Zm349.735,5.407-.582-.3a21.59,21.59,0,0,0,1.366-3.211l.624.206A22.25,22.25,0,0,1,1575.575,407.924Zm-349.013-12.493-.657-.018c.031-1.184.074-2.378.125-3.55l.656.028C1226.636,393.06,1226.594,394.251,1226.563,395.431Zm351.232,5.675-.651-.087a17.538,17.538,0,0,0,.15-2.018c.008-.482,0-.971-.037-1.453l.655-.044c.034.5.047,1.008.038,1.508A18.353,18.353,0,0,1,1577.794,401.106Zm-1.109-6.988a20.751,20.751,0,0,0-1.184-3.279l.6-.273a21.417,21.417,0,0,1,1.222,3.384Zm-349.811-5.76-.656-.041c.074-1.182.16-2.374.255-3.542l.655.053C1227.034,385.992,1226.948,387.179,1226.875,388.358Zm346.947-.586a31.417,31.417,0,0,0-2.058-2.839l.51-.414a31.9,31.9,0,0,1,2.1,2.9ZM1227.448,381.3l-.653-.066c.119-1.178.25-2.366.391-3.53l.652.079C1227.7,378.945,1227.567,380.128,1227.448,381.3Zm341.975,1.007-.281-.286a25.9,25.9,0,0,0-2.3-2.057l.408-.515a26.6,26.6,0,0,1,2.361,2.11q.144.146.284.29ZM1228.3,374.277l-.65-.092c.166-1.172.346-2.354.536-3.511l.648.106C1228.644,371.933,1228.465,373.109,1228.3,374.277Zm335.672,3.706a31.7,31.7,0,0,0-3.095-1.633l.275-.6a32.52,32.52,0,0,1,3.159,1.667Zm-6.347-2.956c-1.056-.379-2.153-.729-3.356-1.073l.181-.632c1.217.348,2.327.7,3.4,1.086Zm-6.774-1.96c-1.041-.246-2.171-.5-3.455-.764l.133-.643c1.291.269,2.427.52,3.474.768ZM1229.44,367.3l-.646-.12c.216-1.164.448-2.337.687-3.485l.643.134C1229.886,364.968,1229.655,366.135,1229.44,367.3Zm314.478,4.311-1.055-.206q-1.208-.237-2.427-.478l.129-.644q1.217.243,2.425.477l1.056.206Zm-6.963-1.4c-1.25-.27-2.384-.53-3.466-.8l.156-.638c1.077.264,2.2.523,3.449.791Zm-6.907-1.707c-1.175-.338-2.317-.7-3.4-1.068l.214-.621c1.069.367,2.2.723,3.365,1.057Zm-6.731-2.322c-1.114-.459-2.205-.953-3.246-1.468l.292-.589c1.027.509,2.105,1,3.2,1.449Zm-292.431-5.8-.64-.149c.269-1.153.553-2.314.846-3.449l.636.164C1231.437,358.066,1231.154,359.221,1230.887,360.37Zm286.052,2.637c-1.023-.607-2.029-1.258-2.991-1.936l.379-.537c.947.668,1.939,1.31,2.947,1.907Zm-5.816-4.1c-.9-.753-1.793-1.556-2.643-2.387l.459-.47c.838.819,1.714,1.61,2.6,2.352Zm-278.471-5.382-.632-.18c.322-1.138.662-2.284,1.01-3.406l.628.194C1233.311,351.248,1232.973,352.387,1232.652,353.521Zm273.379.412c-.77-.876-1.528-1.8-2.253-2.754l.522-.4c.716.94,1.464,1.854,2.224,2.718Zm-271.283-7.167-.622-.21c.379-1.121.776-2.248,1.18-3.351l.617.226C1235.52,344.529,1235.125,345.651,1234.748,346.766Zm266.969,1.513c-.642-.967-1.273-1.983-1.877-3.02l.568-.331c.6,1.026,1.222,2.032,1.857,2.988Zm-264.532-8.151-.611-.242c.436-1.1.892-2.2,1.355-3.285l.6.258C1238.072,337.935,1237.618,339.035,1237.184,340.128Zm260.951,2.011c-.529-1.031-1.049-2.107-1.546-3.2l.6-.272c.492,1.084,1.008,2.151,1.532,3.172Zm-258.167-8.51-.6-.275c.5-1.074,1.011-2.153,1.532-3.206l.589.291C1240.973,331.487,1240.461,332.56,1239.968,333.629Zm255.223,2.043c-.433-1.073-.86-2.19-1.266-3.32l.619-.222c.4,1.121.826,2.23,1.256,3.3ZM1243.1,327.292l-.58-.308c.553-1.043,1.128-2.091,1.709-3.116l.571.324C1244.226,325.212,1243.653,326.255,1243.1,327.292Zm249.677,1.7c-.355-1.1-.7-2.246-1.034-3.4l.631-.182c.33,1.146.676,2.283,1.028,3.378Zm-246.189-7.847-.562-.34c.612-1.011,1.246-2.024,1.886-3.013l.551.356C1247.831,319.129,1247.2,320.138,1246.591,321.143Zm244.222,1.021c-.289-1.123-.573-2.284-.842-3.452l.64-.148c.268,1.163.55,2.32.839,3.437Zm-240.386-6.959-.541-.372c.668-.972,1.36-1.946,2.057-2.9l.53.388C1251.78,313.269,1251.092,314.238,1250.427,315.205Zm238.743.065c-.294-1.121-.637-2.251-1.021-3.358l.621-.215c.389,1.123.738,2.268,1.036,3.407ZM1254.6,309.5l-.518-.4c.725-.931,1.473-1.864,2.224-2.773l.506.419C1256.068,307.647,1255.323,308.575,1254.6,309.5Zm232.269-.866c-.46-1.063-.97-2.131-1.515-3.176l.583-.3c.552,1.058,1.068,2.142,1.534,3.218Zm-227.765-4.583-.494-.433c.777-.887,1.58-1.773,2.383-2.637l.481.447C1260.678,302.288,1259.88,303.17,1259.106,304.052Zm4.817-5.175-.468-.461c.828-.839,1.68-1.678,2.533-2.493l.454.475C1265.594,297.208,1264.746,298.043,1263.923,298.877Zm219.7,3.518c-.6-.987-1.253-1.979-1.931-2.947l.538-.377c.686.979,1.344,1.982,1.954,2.981Zm-214.592-8.4-.44-.487c.874-.789,1.773-1.578,2.673-2.343l.426.5C1270.8,292.422,1269.9,293.206,1269.032,293.99Zm210.552,2.634c-.719-.906-1.483-1.815-2.268-2.7l.491-.436c.795.894,1.566,1.812,2.292,2.727Zm-205.169-7.218-.412-.512c.917-.738,1.86-1.474,2.8-2.188l.4.523C1276.266,287.939,1275.328,288.672,1274.416,289.406Zm200.49,1.941c-.812-.824-1.666-1.65-2.537-2.454l.446-.483c.879.812,1.74,1.645,2.559,2.477Zm-194.867-6.211-.382-.533c.953-.684,1.932-1.365,2.909-2.025l.367.544C1281.961,283.778,1280.988,284.457,1280.039,285.136Zm189.682,1.42c-.887-.748-1.811-1.5-2.747-2.221l.4-.519c.943.731,1.875,1.485,2.769,2.239Zm-183.838-5.373-.353-.553c.991-.632,2.006-1.26,3.016-1.868l.339.563C1287.879,279.93,1286.869,280.555,1285.883,281.184Zm178.256,1.043c-.944-.675-1.924-1.348-2.913-2l.362-.548c1,.658,1.983,1.336,2.933,2.015Zm-172.2-4.682-.324-.572c1.021-.578,2.068-1.153,3.112-1.711l.309.58C1293.993,276.4,1292.951,276.969,1291.936,277.544Zm166.306.783c-.99-.607-2.015-1.212-3.045-1.8l.325-.571c1.037.59,2.068,1.2,3.064,1.808Zm-160.069-4.11-.294-.587c1.052-.528,2.127-1.051,3.2-1.553l.28.594C1300.29,273.172,1299.221,273.692,1298.173,274.217Zm153.923.611c-1.027-.543-2.088-1.085-3.152-1.608l.29-.589c1.07.526,2.136,1.07,3.168,1.617ZM1304.573,271.2l-.265-.6c1.075-.475,2.175-.945,3.268-1.4l.252.607C1306.738,270.261,1305.644,270.729,1304.573,271.2Zm141.176.5c-1.059-.484-2.148-.966-3.237-1.431l.258-.6c1.094.467,2.188.951,3.252,1.439ZM1311.113,268.5l-.237-.613c1.1-.424,2.217-.842,3.33-1.243l.223.618C1313.321,267.657,1312.2,268.074,1311.113,268.5Zm128.126.428c-1.086-.431-2.2-.856-3.305-1.265l.227-.616c1.113.411,2.23.838,3.321,1.271ZM1317.773,266.1l-.208-.623c1.116-.375,2.255-.742,3.384-1.093l.2.628C1320.019,265.356,1318.886,265.722,1317.773,266.1Zm114.826.379c-1.107-.379-2.238-.751-3.362-1.108l.2-.626c1.129.357,2.265.732,3.376,1.112Zm-108.063-2.481-.181-.631c1.131-.325,2.285-.643,3.427-.944l.168.635C1326.812,263.353,1325.663,263.669,1324.536,263.993Zm101.315.341c-1.124-.329-2.271-.651-3.408-.958l.171-.634c1.143.308,2.294.632,3.423.962Zm-94.468-2.15-.155-.638c1.141-.276,2.307-.545,3.463-.8l.141.641C1333.68,261.641,1332.518,261.909,1331.382,262.184Zm87.632.306c-1.139-.282-2.3-.555-3.446-.814l.145-.641c1.153.26,2.316.535,3.459.817Zm-80.718-1.828-.128-.644c1.155-.23,2.329-.451,3.491-.658l.116.647C1340.618,260.213,1339.447,260.433,1338.3,260.662Zm73.81.27c-1.148-.235-2.318-.463-3.477-.675l.119-.646c1.163.214,2.337.442,3.489.678Zm-66.841-1.51-.1-.648c1.159-.183,2.341-.357,3.513-.518l.089.65C1347.6,259.066,1346.42,259.239,1345.265,259.422Zm59.876.228c-1.157-.189-2.335-.371-3.5-.54l.094-.65c1.169.169,2.351.351,3.512.541Zm-52.867-1.192-.077-.653c1.169-.138,2.356-.267,3.528-.382l.065.653C1354.622,258.191,1353.439,258.319,1352.274,258.457Zm45.858.18c-1.166-.146-2.35-.282-3.518-.406l.069-.653c1.172.124,2.359.262,3.53.408Zm-38.822-.875-.052-.655c1.173-.094,2.363-.177,3.537-.248l.04.655C1361.667,257.585,1360.481,257.669,1359.311,257.762Zm31.778.128c-1.167-.1-2.355-.2-3.53-.275l.045-.655c1.179.081,2.371.174,3.542.276Zm-24.724-.558-.028-.656c1.174-.049,2.366-.088,3.542-.116l.016.657C1368.723,257.245,1367.534,257.284,1366.365,257.333Zm17.658.072c-1.171-.059-2.36-.108-3.533-.145l.021-.657c1.177.038,2.369.087,3.545.145Zm-10.6-.238,0-.657c1.172-.006,2.363,0,3.541.014l-.009.657C1375.781,257.165,1374.593,257.16,1373.425,257.167Z" transform="translate(-1225.834 -256.507)" fill="#e0e0e0"/>
    </g>
    <g id="Group_1366" data-name="Group 1366" transform="translate(1273.807 564.211)">
      <path id="Path_934" data-name="Path 934" d="M1402.181,765.627a9.412,9.412,0,1,0,9.411,9.412A9.419,9.419,0,0,0,1402.181,765.627Z" transform="translate(-1325.752 -737.971)" fill="none"/>
      <path id="Path_935" data-name="Path 935" d="M1285.952,765.627a9.412,9.412,0,1,0,9.412,9.412A9.419,9.419,0,0,0,1285.952,765.627Z" transform="translate(-1267.792 -737.971)" fill="none"/>
      <path id="Path_936" data-name="Path 936" d="M1346.794,749.949v35.507h8.745V746.441C1349.119,746.441,1346.794,749.949,1346.794,749.949Z" transform="translate(-1302.826 -728.404)" fill="#152c53"/>
      <path id="Path_937" data-name="Path 937" d="M1461.182,749.949v35.507h8.745V746.441C1463.536,746.443,1461.182,749.949,1461.182,749.949Z" transform="translate(-1359.868 -728.404)" fill="#152c53"/>
      <path id="Path_938" data-name="Path 938" d="M1572.133,749.927l0,15.523a9.414,9.414,0,0,1-18.828,0V746.4c-6.411,0-8.744,3.507-8.744,3.507V765.45a18.154,18.154,0,0,0,27.571,15.525v4.48a9.414,9.414,0,0,1-18.828-.019h-8.743a18.157,18.157,0,0,0,36.314.019V746.421C1574.457,746.421,1572.133,749.927,1572.133,749.927Z" transform="translate(-1401.448 -728.382)" fill="#152c53"/>
      <path id="Path_939" data-name="Path 939" d="M1402.891,749.952a18.157,18.157,0,1,0,0,31.046v4.461a9.411,9.411,0,0,1-18.823,0h-8.747a18.16,18.16,0,0,0,36.219,1.9,18.757,18.757,0,0,0,.1-1.9V746.444C1405.18,746.444,1402.891,749.952,1402.891,749.952Zm-9.412,24.933a9.412,9.412,0,1,1,9.412-9.411A9.419,9.419,0,0,1,1393.48,774.885Z" transform="translate(-1317.051 -728.406)" fill="#152c53"/>
      <path id="Path_940" data-name="Path 940" d="M1286.662,749.952a18.157,18.157,0,1,0,0,31.046v4.461a9.411,9.411,0,0,1-18.823,0h-8.748a18.16,18.16,0,0,0,36.219,1.9,18.847,18.847,0,0,0,.1-1.9V746.444C1289.03,746.444,1286.662,749.952,1286.662,749.952Zm-9.411,24.933a9.412,9.412,0,1,1,9.411-9.411A9.419,9.419,0,0,1,1277.25,774.885Z" transform="translate(-1259.091 -728.406)" fill="#152c53"/>
      <g id="Group_1365" data-name="Group 1365" transform="translate(115.274)">
        <path id="Path_941" data-name="Path 941" d="M1496.1,728.5h-7.073v8.745h7.073v30.313h8.745V737.245h7.642V728.5h-7.642a9.43,9.43,0,0,1,7.642-9.206v-8.831A18.189,18.189,0,0,0,1496.1,728.5Z" transform="translate(-1489.027 -710.463)" fill="#152c53"/>
      </g>
    </g>
    <g id="Group_1399" data-name="Group 1399" transform="translate(1198.066 295.114)">
      <g id="Group_1396" data-name="Group 1396" transform="translate(43.401)">
        <g id="Group_1367" data-name="Group 1367" transform="translate(47.569 188.282)">
          <path id="Path_942" data-name="Path 942" d="M1468.467,643.5a60.489,60.489,0,0,1-6.661,2.715,140.224,140.224,0,0,1-31.1,7.065c-11.064,1.214-22.793.979-32.59-4.3-16.254-8.762-14.254-24.188-14.252-39.91a4.4,4.4,0,0,1,4.4-4.4h72.853c3.911,0,8.27-.546,12.151,0,2.2.309,4.049.475,5.033,2.961.689,1.744.265,5.622.574,7.608,1.154,7.4,2.818,16.8-2.722,22.778A25.827,25.827,0,0,1,1468.467,643.5Z" transform="translate(-1383.789 -604.431)" fill="#0b2d4e"/>
        </g>
        <g id="Group_1368" data-name="Group 1368" transform="translate(26.235 83.997)">
          <path id="Path_943" data-name="Path 943" d="M1364.089,491.046c-1.133,2.858-2.223,5.734-3.295,8.614-3.67,9.857-12.394,26.58-2.554,35.665,1.115,1.03,3.8.973,5.181.7,3.958-.784,5.951-4.471,7.891-7.61,5.819-9.419,10.039-19.738,15.65-29.289,4.05-6.892,6.1-15.113,8.043-22.793,1.286-5.082,2.94-12.357-1.345-16.567a8.344,8.344,0,0,0-6.708-2.3,12.965,12.965,0,0,0-4.171,1.379,15.212,15.212,0,0,0-3.192,2.007c-2.379,2.032-3.529,4.968-4.946,7.669-1.668,3.178-3.372,6.327-4.931,9.563C1367.668,482.331,1365.827,486.668,1364.089,491.046Z" transform="translate(-1353.713 -457.415)" fill="#f8a17a"/>
        </g>
        <g id="Group_1369" data-name="Group 1369" transform="translate(32.496 78.693)">
          <path id="Path_944" data-name="Path 944" d="M1371.082,473.316c5.439-9.974,12.512-18.947,23.414-22.605,3.123-1.048,6.98-1.307,9.321,1.011a7.384,7.384,0,0,1,1.875,5.707c-.18,2.987-1.532,5.822-2.222,8.715a96.238,96.238,0,0,1-8.3,22.241c-.792,1.514-6.6,17.947-6.129,18.354-3.829-3.327-9.285-7.471-13.866-9.648-1.217-.579-12.316-6.292-12.637-5.569C1365.114,485.72,1367.8,479.335,1371.082,473.316Z" transform="translate(-1362.54 -449.938)" fill="#152c53"/>
        </g>
        <g id="Group_1370" data-name="Group 1370" transform="translate(121.476 83.997)">
          <path id="Path_945" data-name="Path 945" d="M1520.314,491.046c1.134,2.858,2.223,5.734,3.295,8.614,3.67,9.857,12.394,26.58,2.554,35.665-1.116,1.03-3.8.973-5.181.7-3.959-.784-5.952-4.471-7.891-7.61-5.82-9.419-10.039-19.738-15.65-29.289-4.05-6.892-6.1-15.113-8.043-22.793-1.287-5.082-2.941-12.357,1.345-16.567a8.345,8.345,0,0,1,6.708-2.3,12.978,12.978,0,0,1,4.171,1.379,15.228,15.228,0,0,1,3.191,2.007c2.379,2.032,3.529,4.968,4.946,7.669,1.668,3.178,3.372,6.327,4.931,9.563C1516.735,482.331,1518.577,486.668,1520.314,491.046Z" transform="translate(-1487.98 -457.415)" fill="#f8a17a"/>
        </g>
        <g id="Group_1371" data-name="Group 1371" transform="translate(114.706 78.693)">
          <path id="Path_946" data-name="Path 946" d="M1513.063,473.316c-5.438-9.974-12.512-18.947-23.414-22.605-3.123-1.048-6.98-1.307-9.321,1.011a7.384,7.384,0,0,0-1.875,5.707c.18,2.987,1.531,5.822,2.222,8.715a96.227,96.227,0,0,0,8.3,22.241c.792,1.514,6.6,17.947,6.129,18.354,3.829-3.327,9.285-7.471,13.866-9.648,1.217-.579,12.316-6.292,12.637-5.569C1519.032,485.72,1516.346,479.335,1513.063,473.316Z" transform="translate(-1478.437 -449.938)" fill="#152c53"/>
        </g>
        <g id="Group_1372" data-name="Group 1372" transform="translate(55.853 76.396)">
          <path id="Path_947" data-name="Path 947" d="M1473.478,548.971c-.072-.3-.142-.594-.211-.892-2.571-11.132-2.948-22.624-2.626-34,.316-11.157,2.8-22.135,3.123-33.3.372-12.872-1.871-31.161-17.981-32.648-6.663-.615-13.363-1.334-20.074-1.413V446.7c-.239,0-.478.006-.717.008s-.478-.008-.717-.008v.016c-6.71.079-13.411.8-20.074,1.413-16.11,1.487-18.352,19.775-17.981,32.648.322,11.165,2.807,22.143,3.123,33.3.322,11.379-.055,22.871-2.627,34-.069.3-.139.6-.211.892-.505,2.093-1.322,4.215-.939,6.333.827,4.577,11.848,6.8,15.563,7.783a115.709,115.709,0,0,0,21.211,3.183c.65.048,1.287.094,1.919.139v.1l.732-.05.732.05v-.1c.631-.045,1.269-.091,1.919-.139a115.707,115.707,0,0,0,21.212-3.183c3.715-.986,14.737-3.206,15.563-7.783C1474.8,553.186,1473.984,551.063,1473.478,548.971Z" transform="translate(-1395.468 -446.7)" fill="#8490a5"/>
        </g>
        <g id="Group_1373" data-name="Group 1373" transform="translate(80.798 53.233)">
          <path id="Path_948" data-name="Path 948" d="M1434.847,449.385c9.948,6.567,29.313,1.475,23.825-11.549a37.942,37.942,0,0,1-1.92-4.758,28.8,28.8,0,0,1-.588-8.339c.089-3.249.115-6.507.293-9.751a43.957,43.957,0,0,0-10.449-.88c-3.2.117-6.388-.178-9.583-.012a1.229,1.229,0,0,0-.718.187.847.847,0,0,0-.237.609c-.429,4.387-.007,8.83-.344,13.225a21.094,21.094,0,0,1-1.647,7.553c-1.728,3.509-4.3,6.768-1.821,10.577A10.919,10.919,0,0,0,1434.847,449.385Z" transform="translate(-1430.634 -414.045)" fill="#f8a17a"/>
        </g>
        <g id="Group_1374" data-name="Group 1374" transform="translate(84.843 53.196)">
          <path id="Path_949" data-name="Path 949" d="M1458.264,432.471a31.5,31.5,0,0,1-.353-7.784c.089-3.249.115-6.507.293-9.751a43.955,43.955,0,0,0-10.449-.88c-3.2.117-6.388-.179-9.583-.013a1.234,1.234,0,0,0-.718.188.844.844,0,0,0-.238.609c-.428,4.387-.008,8.83-.343,13.225a28.729,28.729,0,0,1-.537,3.759c.5.389,1.012.761,1.537,1.1a18.141,18.141,0,0,0,13.983,2.252A21.743,21.743,0,0,0,1458.264,432.471Z" transform="translate(-1436.336 -413.993)" fill="#e5785c"/>
        </g>
        <g id="Group_1385" data-name="Group 1385" transform="translate(64.917)">
          <g id="Group_1375" data-name="Group 1375" transform="translate(2.407 1.954)">
            <path id="Path_950" data-name="Path 950" d="M1457.33,397.331c-3.015,3.64-7.24,6.038-11.424,8.236a13.741,13.741,0,0,1-3.2,1.341c-3.466.809-6.964-1.069-9.854-3.145a57.077,57.077,0,0,1-10.735-10.051c-3.144-3.818-4.9-7.991-6.953-12.482a26.867,26.867,0,0,1-2.081-14.012c.448-5.078-2.391-9.614-1.109-14.747a14.677,14.677,0,0,1,5.512-8.2,10.6,10.6,0,0,1,5.039-2.1c4.091-.445,7.569,2.336,11.613,2.527,4.079.192,8-1.293,11.925-2.186,3.426-.78,7.177-1.208,10.575-.045,3.782,1.294,5.6,4.188,7.7,7.537,1.787,2.864,4.478,5.011,6.629,7.552a14,14,0,0,1,2.877,12.173,37.761,37.761,0,0,1-4.14,10.922c-1.661,2.895-3.469,5.942-5.424,8.686a48.9,48.9,0,0,1-4.861,5.448C1458.66,395.581,1458.034,396.483,1457.33,397.331Z" transform="translate(-1411.639 -341.755)" fill="#0b2d4e"/>
          </g>
          <g id="Group_1376" data-name="Group 1376" transform="translate(10.313 15.59)">
            <path id="Path_951" data-name="Path 951" d="M1464.275,385.5a38.151,38.151,0,0,0-1.785-11.382c-4.765-14.112-22.461-17.434-33-7.165-11.747,11.451-6.939,38.5,5.648,47.9a14.015,14.015,0,0,0,11.959,2.232C1459.343,413.673,1464.483,398.516,1464.275,385.5Z" transform="translate(-1422.784 -360.977)" fill="#f8a17a"/>
          </g>
          <g id="Group_1377" data-name="Group 1377" transform="translate(9.435 15.567)">
            <path id="Path_952" data-name="Path 952" d="M1466.807,374.066c-5.36-14.105-25.331-17.4-37.233-7.122a26.357,26.357,0,0,0-7.042,9.65c-1.384,3.709-1.021,7.81-.639,11.75a15.206,15.206,0,0,1,3.957-8.6,28.546,28.546,0,0,1,3.473-3.28c.449-.364,3.823-3.43,3.5-3.852,1.2,1.564,2.392,3.119,4.242,3.9a39.67,39.67,0,0,0,7.165,2.081c4.322.939,7.706,2.155,10.842,5.389a29.357,29.357,0,0,1,6.393,10.614c.44,1.235,1.192,3.136,2.807,2.581a30.073,30.073,0,0,0,3.74-2.782,43.177,43.177,0,0,0,.8-8.949A34.17,34.17,0,0,0,1466.807,374.066Z" transform="translate(-1421.546 -360.945)" fill="#e5785c"/>
          </g>
          <g id="Group_1378" data-name="Group 1378" transform="translate(7.625 10.943)">
            <path id="Path_953" data-name="Path 953" d="M1456.508,380.782a27.063,27.063,0,0,1,2.385,5.7c1.027,3.095,1.839,6.425,3.158,9.4,4.492-2.71,7.452-9.1,9.5-13.726,1.814-4.1,2.324-7.362.787-11.663a19.282,19.282,0,0,0-5.159-7.37c-6.526-6.117-16.316-9.232-25.757-8.611-3.316.218-6.021,1.387-9.135,2.289-2.859.828-5.046,1.371-7.147,3.725a21.829,21.829,0,0,0-4.008,7.344,32.5,32.5,0,0,0-2.063,13.336c.216,2.929.236,5.827,3.137,7.422q-.077-2.615-.153-5.231a9.454,9.454,0,0,1,.727-4.638,17.138,17.138,0,0,1,2.952-5.609c1.919-2.3,4.45-4.387,4.987-7.335,4.542,4.414,9.9,7.178,15.87,9.234,3.784,1.3,7.631,2.052,9.878,5.67Z" transform="translate(-1418.994 -354.427)" fill="#0b2d4e"/>
          </g>
          <g id="Group_1379" data-name="Group 1379" transform="translate(47.987 39.787)">
            <path id="Path_954" data-name="Path 954" d="M1479.8,395.792c5.4-3.025,7.151,4.482,6.254,8.235a11.959,11.959,0,0,1-1.914,4.346c-1.276,1.726-4.944,4.605-7.093,2.752-.975-.841-1.089-2.285-1.131-3.572C1475.8,404.1,1476.133,397.842,1479.8,395.792Z" transform="translate(-1475.895 -395.09)" fill="#f8a17a"/>
          </g>
          <g id="Group_1380" data-name="Group 1380" transform="translate(6.356 39.787)">
            <path id="Path_955" data-name="Path 955" d="M1423.683,395.792c-5.4-3.025-7.151,4.482-6.254,8.235a11.941,11.941,0,0,0,1.913,4.346c1.275,1.726,4.945,4.605,7.093,2.752.975-.841,1.089-2.285,1.131-3.572C1427.681,404.1,1427.346,397.842,1423.683,395.792Z" transform="translate(-1417.206 -395.09)" fill="#f8a17a"/>
          </g>
          <g id="Group_1381" data-name="Group 1381">
            <path id="Path_956" data-name="Path 956" d="M1468.142,379.52l-.648-.44.326-.479c3-4.4,8.588-12.591,5.749-18.017-.965-1.846-2.668-2.989-4.47-4.2a15.886,15.886,0,0,1-4.235-3.637,16.432,16.432,0,0,1-1.931-4.072,25.716,25.716,0,0,0-1.058-2.594c-2.41-4.843-7.745-7.191-13.588-5.984a32.622,32.622,0,0,0-5.883,2.079c-3.763,1.593-7.654,3.241-11.536,2.178a16.384,16.384,0,0,1-3.778-1.777,16.533,16.533,0,0,0-3.638-1.73,10.581,10.581,0,0,0-8.211,1.137,12.749,12.749,0,0,0-6.108,9.437,15.56,15.56,0,0,0,1.953,9.665c.2.345.417.689.632,1.034.987,1.585,2.009,3.225,2.049,5.133l-.783.016c-.036-1.693-1-3.24-1.93-4.736-.219-.35-.436-.7-.643-1.051a16.343,16.343,0,0,1-2.056-10.147,13.544,13.544,0,0,1,6.49-10.027,11.37,11.37,0,0,1,8.823-1.215,17.142,17.142,0,0,1,3.815,1.805,15.584,15.584,0,0,0,3.593,1.7c3.62.99,7.383-.6,11.024-2.144a33.692,33.692,0,0,1,6.03-2.124c6.2-1.283,11.874,1.231,14.447,6.4a26.346,26.346,0,0,1,1.092,2.674,15.623,15.623,0,0,0,1.83,3.881,15.288,15.288,0,0,0,4.037,3.447c1.8,1.212,3.67,2.465,4.728,4.487,3.056,5.841-2.485,13.966-5.8,18.82Z" transform="translate(-1408.245 -339)" fill="#0b2d4e"/>
          </g>
          <g id="Group_1384" data-name="Group 1384" transform="translate(18.82 8.752)">
            <g id="Group_1383" data-name="Group 1383">
              <g id="Group_1382" data-name="Group 1382">
                <path id="Path_957" data-name="Path 957" d="M1434.777,353.621c4.5.29,8.875-.682,13.266-1.578a44.868,44.868,0,0,1,6.715-.683q1.69-.049,3.38.018a21.246,21.246,0,0,1,3.395.336,9.516,9.516,0,0,1,5.8,3.6,6.473,6.473,0,0,1,.977,3.346,23.109,23.109,0,0,0,.278,3.295,6.894,6.894,0,0,0,1.424,2.879,18.531,18.531,0,0,1,1.926,2.786,8.539,8.539,0,0,1,.772,3.3,23.421,23.421,0,0,1-.123,3.362,28.9,28.9,0,0,0-.075-3.346,8.267,8.267,0,0,0-.9-3.152,18.729,18.729,0,0,0-1.974-2.664,7.436,7.436,0,0,1-1.61-3.039,19.2,19.2,0,0,1-.362-3.377,5.817,5.817,0,0,0-.9-3.01,6.178,6.178,0,0,0-1.079-1.163,9.153,9.153,0,0,0-1.3-.951,9.59,9.59,0,0,0-3.01-1.135,20.531,20.531,0,0,0-3.274-.355q-1.663-.083-3.331-.051a53.02,53.02,0,0,0-6.64.569c-2.19.345-4.406.805-6.639,1.031A29.725,29.725,0,0,1,1434.777,353.621Z" transform="translate(-1434.777 -351.339)" fill="#e6e8ec"/>
              </g>
            </g>
          </g>
        </g>
        <g id="Group_1390" data-name="Group 1390" transform="translate(0 183.935)">
          <g id="Group_1386" data-name="Group 1386" transform="translate(33.076 35.199)">
            <path id="Path_958" data-name="Path 958" d="M1393.335,647.924c-3.379,1.387-6.769,2.734-10.168,3.988-3.476,1.283-23.557,5.45-19.193,13.062.857,1.5,2.789,1.908,4.5,2.145,9.812,1.359,19.684.1,29.462-1.524" transform="translate(-1363.357 -647.924)" fill="#f8a17a"/>
          </g>
          <g id="Group_1387" data-name="Group 1387" transform="translate(4.478 40.931)">
            <path id="Path_959" data-name="Path 959" d="M1367.844,670.3c-4.13,1.393-8.592,2.2-12.473,3.273-1.749.485-3.5.97-5.278,1.337a81.957,81.957,0,0,1-8.569,1.148l-6.255.616a5.362,5.362,0,0,1-6.277-3.015,78.862,78.862,0,0,1-4.678-6.664c-.862-1.553-1.756-3.071-.968-4.855a8.227,8.227,0,0,1,1.69-2.3,15.191,15.191,0,0,1,2.791-2.381c3.408-2.154,7.159-1.444,10.9-.858a85.206,85.206,0,0,0,11.957,1.413,79.671,79.671,0,0,0,12.884-1.311" transform="translate(-1323.042 -656.006)" fill="#d5eff7"/>
          </g>
          <g id="Group_1388" data-name="Group 1388" transform="translate(0 40.191)">
            <path id="Path_960" data-name="Path 960" d="M1351.59,676.01q.988-.112,1.981-.218c1.556-.167,3.493-.435,4.649-1.6a1.739,1.739,0,0,0,.429-.627,1.5,1.5,0,0,0-.67-1.631,3.883,3.883,0,0,0-1.8-.523c.728.077,1.7-2.67,1.806-3.174a13.569,13.569,0,0,0,.173-4.362,6.269,6.269,0,0,0-1.5-3.545c-.47-.5-2.093-2.017-2.892-1.748a1.44,1.44,0,0,0,.765-1.815,2.328,2.328,0,0,0-1.613-1.359,6.593,6.593,0,0,0-2.178-.12c-3.833.228-7.714.67-11.538.1a35.37,35.37,0,0,0-9.971-.128,22.981,22.981,0,0,0-7.342,2.263,10.451,10.451,0,0,0-1.785,1.133c-7.44,5.847-1.24,15.253,5.626,18.119,5.077,2.12,10.143,1.255,15.391.543C1344.623,676.836,1348.087,676.4,1351.59,676.01Z" transform="translate(-1316.729 -654.962)" fill="#2f7e48"/>
          </g>
          <g id="Group_1389" data-name="Group 1389" transform="translate(54.866)">
            <path id="Path_961" data-name="Path 961" d="M1399.017,653.658c4.563-.759,18.217-3.472,22.724-4.165,22.611-3.474,44.929-8.206,65.557-18.521,4.754-2.386,9.717-6.172,12.228-10.944,6.59-12.548-6.1-24.559-18.688-21.133-21.024,5.722-38,15.352-58.188,23.552-3.369,1.369-9.411,4.25-12.823,5.69-2.93,1.237-12.8,4.675-15.75,5.888" transform="translate(-1394.076 -598.303)" fill="#0b2d4e"/>
          </g>
        </g>
        <g id="Group_1395" data-name="Group 1395" transform="translate(26.86 184.307)">
          <g id="Group_1391" data-name="Group 1391" transform="translate(89.832 37.864)">
            <path id="Path_962" data-name="Path 962" d="M1486.487,652.206c3.211,1.5,6.436,2.954,9.672,4.323,3.31,1.4,22.581,6.342,18.009,13.521-.9,1.409-2.788,1.723-4.453,1.875-9.569.875-19.078-.787-28.479-2.8" transform="translate(-1481.236 -652.206)" fill="#f8a17a"/>
          </g>
          <g id="Group_1392" data-name="Group 1392" transform="translate(107.526 44.912)">
            <path id="Path_963" data-name="Path 963" d="M1506.18,675.122c3.94,1.535,8.227,2.517,11.939,3.734,1.673.548,3.348,1.1,5.054,1.533a79.557,79.557,0,0,0,8.252,1.5l6.033.877a5.2,5.2,0,0,0,6.218-2.639,76.517,76.517,0,0,0,4.833-6.246c.905-1.466,1.839-2.9,1.156-4.66a7.988,7.988,0,0,0-1.535-2.3,14.719,14.719,0,0,0-2.6-2.432c-3.2-2.24-6.872-1.722-10.528-1.322a82.873,82.873,0,0,1-11.649.831,77.312,77.312,0,0,1-12.426-1.851" transform="translate(-1506.18 -662.142)" fill="#d5eff7"/>
          </g>
          <g id="Group_1393" data-name="Group 1393" transform="translate(114.454 44.243)">
            <path id="Path_964" data-name="Path 964" d="M1522.72,681.323q-.952-.152-1.91-.3c-1.5-.232-3.365-.579-4.433-1.76a1.671,1.671,0,0,1-.387-.627,1.447,1.447,0,0,1,.721-1.551,3.769,3.769,0,0,1,1.77-.426c-.709.042-1.531-2.664-1.607-3.157a13.148,13.148,0,0,1,.028-4.235,6.081,6.081,0,0,1,1.609-3.367c.478-.463,2.12-1.861,2.881-1.563a1.4,1.4,0,0,1-.66-1.794,2.259,2.259,0,0,1,1.624-1.243,6.381,6.381,0,0,1,2.117-.018c3.7.394,7.445,1,11.176.614a34.292,34.292,0,0,1,9.667.325,22.288,22.288,0,0,1,7.013,2.524,10.107,10.107,0,0,1,1.679,1.179c6.946,6,.514,14.835-6.268,17.3-5.015,1.824-9.885.76-14.937-.168C1529.433,682.438,1526.1,681.862,1522.72,681.323Z" transform="translate(-1515.947 -661.2)" fill="#2f7e48"/>
          </g>
          <g id="Group_1394" data-name="Group 1394">
            <path id="Path_965" data-name="Path 965" d="M1451.915,656.369c-4.388-.941-17.5-4.186-21.831-5.06-21.753-4.386-43.166-9.976-62.689-20.9-4.5-2.527-9.136-6.418-11.355-11.155-5.819-12.456,7.017-23.522,19.06-19.635,20.114,6.492,36.131,16.588,55.321,25.444,3.2,1.478,8.928,4.542,12.17,6.091,2.783,1.331,12.189,5.107,15,6.415" transform="translate(-1354.594 -598.828)" fill="#0b2d4e"/>
          </g>
        </g>
      </g>
      <g id="Group_1397" data-name="Group 1397" transform="translate(185.848 124.595)">
        <path id="Path_966" data-name="Path 966" d="M1614.426,515.678l0,0a2.546,2.546,0,0,1,.17,2.778l-3.384,5.949.717,8.548-2.74,6.044-6.02-4.614,2.609-13.194,4.638-5.617A2.546,2.546,0,0,1,1614.426,515.678Z" transform="translate(-1542.431 -514.649)" fill="#f8a17a"/>
        <path id="Path_967" data-name="Path 967" d="M1612.217,528.121s4.143.77,5.684-.151,2.184-6.488-1.35-6.88-2.12-5.222.706-4.855,9.016,5.912,7.36,12.508c0,0,7.75-.876,9.9,1.153s.927,3.848-.573,3.617-8.257.148-8.257.148l.06.8s6.76-.468,8.152.292,2.069,4.156-1.909,3.747-13.688.693-13.688.693l-8.07,3.172-4.711-8.006Z" transform="translate(-1543.113 -515.104)" fill="#f8a17a"/>
        <path id="Path_968" data-name="Path 968" d="M1517.543,545.738s10.964,26.054,15.22,28.182,39.723-15.606,52.491-24.118c-2.837-7.8-7.093-7.8-7.093-7.8s-31.211,7.8-36.886,11.349a77.119,77.119,0,0,1-2.505-9.85Z" transform="translate(-1517.543 -522.599)" fill="#f8a17a"/>
      </g>
      <g id="Group_1398" data-name="Group 1398" transform="translate(0 123.177)">
        <path id="Path_969" data-name="Path 969" d="M1284.324,513.678l0,0a2.546,2.546,0,0,0-.169,2.778l3.384,5.949-.717,8.548,2.74,6.044,6.02-4.614-2.61-13.194-4.637-5.617A2.547,2.547,0,0,0,1284.324,513.678Z" transform="translate(-1263.762 -512.649)" fill="#f8a17a"/>
        <path id="Path_970" data-name="Path 970" d="M1279,526.121s-4.143.77-5.684-.151-2.185-6.488,1.351-6.88,2.119-5.222-.707-4.855-9.016,5.912-7.359,12.508c0,0-7.75-.876-9.9,1.153s-.927,3.848.573,3.617,8.257.148,8.257.148l-.06.8s-6.759-.468-8.152.292-2.07,4.155,1.908,3.747,13.689.693,13.689.693l8.069,3.172,4.711-8.006Z" transform="translate(-1255.543 -513.104)" fill="#f8a17a"/>
        <path id="Path_971" data-name="Path 971" d="M1358.281,543.738s-10.964,26.054-15.22,28.182-39.723-15.606-52.491-24.118c2.837-7.8,7.093-7.8,7.093-7.8s31.211,7.8,36.886,11.349a77.119,77.119,0,0,0,2.505-9.85Z" transform="translate(-1265.724 -520.599)" fill="#f8a17a"/>
      </g>
    </g>
    <g id="Group_1400" data-name="Group 1400" transform="translate(1384.498 197.669)">
      <path id="Path_972" data-name="Path 972" d="M1543.65,201.626,1528.478,230.9l-10.112,32.888L1563.138,288l8.9-40.777,11.81-18.6Z" transform="translate(-1518.367 -201.626)" fill="#f8ebec"/>
      <path id="Path_973" data-name="Path 973" d="M1587.99,228.621l-40.2-27L1532.622,230.9l43.558,16.32Z" transform="translate(-1522.51 -201.626)" fill="#e8dbdc"/>
      <path id="Path_974" data-name="Path 974" d="M1587.747,248.446l-.573,4.449,8.525-2.973-.33-.947-6.322,1.673-.991-2.842Z" transform="translate(-1538.366 -215.049)" fill="#51ba6c"/>
      <path id="Path_975" data-name="Path 975" d="M1557.368,216.948l29.765,18.724-1.362,2.113-29.4-19.4Z" transform="translate(-1529.413 -206.08)" fill="#4a3a4f" opacity="0.5"/>
      <path id="Path_976" data-name="Path 976" d="M1552.307,225.635l22.673,14.89-1.323,2.134-22.306-15.568Z" transform="translate(-1527.954 -208.605)" fill="#4a3a4f" opacity="0.5"/>
      <path id="Path_977" data-name="Path 977" d="M1547.343,233.774l29.765,18.724-1.362,2.113-29.4-19.4Z" transform="translate(-1526.5 -210.97)" fill="#4a3a4f" opacity="0.5"/>
      <path id="Path_978" data-name="Path 978" d="M1544.272,243.4l29.715,17.6-.867,2.819L1543.956,245.2Z" transform="translate(-1525.804 -213.767)" fill="#4a3a4f" opacity="0.5"/>
      <path id="Path_979" data-name="Path 979" d="M1540.036,253.237l20.407,13.226-.861,2.165-20.231-12.693Z" transform="translate(-1524.466 -216.627)" fill="#4a3a4f" opacity="0.5"/>
      <path id="Path_980" data-name="Path 980" d="M1536.453,265.767l29.27,18.018-.761,2.218-28.944-17.4Z" transform="translate(-1523.497 -220.269)" fill="#4a3a4f" opacity="0.5"/>
      <path id="Path_981" data-name="Path 981" d="M1530.709,279.692l24.873,15.641-.828,2.183-24.647-15.08Z" transform="translate(-1521.779 -224.317)" fill="#4a3a4f" opacity="0.5"/>
      <path id="Path_982" data-name="Path 982" d="M1570,303.044l.008,4.486,8.068-4.051-.45-.9-6.052,2.478-1.35-2.69Z" transform="translate(-1533.374 -230.909)" fill="#51ba6c"/>
      <path id="Path_983" data-name="Path 983" d="M1576.679,276.672l-.348,4.473,8.364-3.4-.378-.929-6.229,1.991-1.133-2.788Z" transform="translate(-1535.214 -223.249)" fill="#51ba6c"/>
    </g>
    <g id="Group_1402" data-name="Group 1402" transform="translate(1327.24 353.989)">
      <g id="Group_1401" data-name="Group 1401">
        <path id="Path_984" data-name="Path 984" d="M1454.2,423.141a7.718,7.718,0,0,1-13.385,0,5.07,5.07,0,0,0-3.169-1.141,10.242,10.242,0,0,0,9.862,7.526h0a10.243,10.243,0,0,0,9.862-7.526A5.076,5.076,0,0,0,1454.2,423.141Z" transform="translate(-1437.647 -422)" fill="#f08668"/>
      </g>
      <path id="Path_985" data-name="Path 985" d="M1449.765,430.759l.092-.007c.087-.007.172-.016.257-.027l.072-.009c.109-.016.218-.035.325-.057l.021,0c.1-.023.2-.048.3-.076l.047-.013a5.206,5.206,0,0,0,3.713-4.285,7.711,7.711,0,0,1-10.32,0,5.211,5.211,0,0,0,5.014,4.486c.048,0,.1,0,.145,0h0C1449.547,430.77,1449.656,430.765,1449.765,430.759Z" transform="translate(-1439.574 -423.244)" fill="#f08668"/>
    </g>
    <path id="Path_986" data-name="Path 986" d="M1471.353,699.723c0,2.639-16.2,4.778-36.177,4.778S1399,702.362,1399,699.723s16.2-4.778,36.177-4.778S1471.353,697.084,1471.353,699.723Z" transform="translate(-99.174 -147.344)" fill="#152c53"/>
    <g id="Group_1406" data-name="Group 1406" transform="translate(1226.635 188.011)">
      <g id="Group_1405" data-name="Group 1405">
        <path id="Path_987" data-name="Path 987" d="M1320.7,280.6a2.672,2.672,0,0,1-3.354-1.754l-19.386-58.27a2.673,2.673,0,0,1,1.624-3.415l84.192-28.015a2.678,2.678,0,0,1,3.354,1.759l19.386,58.265a2.677,2.677,0,0,1-1.624,3.418Z" transform="translate(-1296.399 -188.302)" fill="#e6e6e6"/>
        <path id="Path_988" data-name="Path 988" d="M1318.7,279.6a2.672,2.672,0,0,1-3.354-1.754l-19.386-58.27a2.673,2.673,0,0,1,1.624-3.415l84.192-28.015a2.678,2.678,0,0,1,3.354,1.759l19.386,58.265a2.677,2.677,0,0,1-1.625,3.418Z" transform="translate(-1295.818 -188.011)" fill="#fff"/>
        <path id="Path_989" data-name="Path 989" d="M1326.742,274.868a2.242,2.242,0,0,1-2.82-1.41L1308.144,226a2.213,2.213,0,0,1,1.4-2.81l71.288-23.72a2.231,2.231,0,0,1,2.817,1.413l15.789,47.451a2.219,2.219,0,0,1-1.4,2.81Z" transform="translate(-1299.366 -191.309)" fill="#152c53"/>
        <g id="Group_1404" data-name="Group 1404" transform="translate(43.816 35.126)">
          <path id="Path_990" data-name="Path 990" d="M1377.464,246.12a6.13,6.13,0,0,0-2.052-2.024l-.025-.015c-.12-.072-.243-.142-.37-.206a6.165,6.165,0,0,0-8.29,2.7h0l0,.008a6.164,6.164,0,0,0,2.553,8.2c.05.028.1.056.152.082h0c.116.06.234.113.352.164l.1.042c.095.039.19.076.285.109l.081.029q.186.064.374.114l.025.006c.12.032.241.06.361.084l.057.011a6.156,6.156,0,0,0,6.653-3.26l2.928-5.759A3.734,3.734,0,0,0,1377.464,246.12Zm-6.688,6.1a3.2,3.2,0,1,1,4.3-1.4A3.2,3.2,0,0,1,1370.776,252.218Z" transform="translate(-1360.05 -239.179)" fill="#51ba6c"/>
          <g id="Group_1403" data-name="Group 1403">
            <path id="Path_991" data-name="Path 991" d="M1367.819,256.572a9.132,9.132,0,0,1-4.905-15.058,6,6,0,0,0,.122-3.984,12.12,12.12,0,0,0-4.852,13.853h0a12.118,12.118,0,0,0,12.081,8.336A6,6,0,0,0,1367.819,256.572Z" transform="translate(-1357.588 -237.53)" fill="#51ba6c"/>
          </g>
          <path id="Path_992" data-name="Path 992" d="M1358.437,254.373c.013.034.028.067.041.1.04.094.081.188.125.279.012.026.024.053.037.078.057.117.119.233.183.345l.013.022q.094.161.2.314l.033.048a6.157,6.157,0,0,0,6.182,2.607,9.125,9.125,0,0,1-3.784-11.611,6.165,6.165,0,0,0-3.209,7.285c.016.055.031.111.049.165h0C1358.344,254.132,1358.39,254.253,1358.437,254.373Z" transform="translate(-1357.708 -240.153)" fill="#30975d"/>
        </g>
        <path id="Path_993" data-name="Path 993" d="M1367.816,210.226l-26,8.653,63.987,36.108,2.054-.683a2.22,2.22,0,0,0,1.4-2.811l-7.325-22.015Z" transform="translate(-1309.187 -194.468)" fill="#fff" opacity="0.3"/>
        <path id="Path_994" data-name="Path 994" d="M1351.958,287.825l-33.039-18.645,4.3,12.938,17.021,9.605Z" transform="translate(-1302.532 -211.604)" fill="#fff" opacity="0.3"/>
      </g>
    </g>
    <g id="Group_1409" data-name="Group 1409" transform="translate(1476.011 281.381)">
      <path id="Path_995" data-name="Path 995" d="M1701.545,391.7a4.186,4.186,0,0,1-3.676,4.638l-36.034,4.167a4.182,4.182,0,0,1-4.637-3.677l-7.791-67.356a4.188,4.188,0,0,1,3.676-4.639l36.035-4.167a4.189,4.189,0,0,1,4.641,3.677Z" transform="translate(-1647.96 -319.931)" fill="#e6e6e6"/>
      <path id="Path_996" data-name="Path 996" d="M1699.545,390.7a4.186,4.186,0,0,1-3.676,4.638l-36.034,4.167a4.182,4.182,0,0,1-4.637-3.677l-7.791-67.356a4.188,4.188,0,0,1,3.676-4.639l36.035-4.167a4.189,4.189,0,0,1,4.641,3.677Z" transform="translate(-1647.379 -319.64)" fill="#fff"/>
      <path id="Path_997" data-name="Path 997" d="M1691.652,417.333a4.186,4.186,0,1,0-3.679,4.639A4.184,4.184,0,0,0,1691.652,417.333Z" transform="translate(-1657.822 -346.959)" fill="#ccc"/>
      <path id="Path_998" data-name="Path 998" d="M1696.3,382.467a1.765,1.765,0,0,1-1.551,1.958l-33.628,3.889a1.769,1.769,0,0,1-1.959-1.553l-5.749-49.714a1.767,1.767,0,0,1,1.554-1.956L1688.6,331.2a1.767,1.767,0,0,1,1.958,1.551Z" transform="translate(-1649.13 -322.998)" fill="#152c53"/>
      <g id="Group_1408" data-name="Group 1408" transform="translate(19.136 31.541)">
        <path id="Path_999" data-name="Path 999" d="M1681.472,366.056a3.893,3.893,0,0,0-1.512,1.033l-.012.014q-.089.1-.174.2a3.917,3.917,0,0,0,.676,5.5h0l0,0a3.915,3.915,0,0,0,5.423-.6c.023-.028.047-.055.069-.084h0c.051-.065.1-.133.145-.2l.038-.057c.036-.055.07-.109.1-.165l.028-.047q.062-.109.117-.219l.006-.015q.052-.106.1-.215l.014-.034a3.914,3.914,0,0,0-1.224-4.545l-3.234-2.526A2.372,2.372,0,0,0,1681.472,366.056Zm2.989,4.912a2.03,2.03,0,1,1-.35-2.849A2.032,2.032,0,0,1,1684.462,370.968Z" transform="translate(-1675.69 -364.106)" fill="#51ba6c"/>
        <g id="Group_1407" data-name="Group 1407" transform="translate(0 6.758)">
          <path id="Path_1000" data-name="Path 1000" d="M1686.811,374.775a5.8,5.8,0,0,1-4.637,3.506,5.809,5.809,0,0,1-5.349-2.277,3.811,3.811,0,0,0-2.469-.561,7.7,7.7,0,0,0,8.048,4.71h0a7.7,7.7,0,0,0,6.666-6.52A3.814,3.814,0,0,0,1686.811,374.775Z" transform="translate(-1674.356 -373.633)" fill="#51ba6c"/>
        </g>
        <path id="Path_1001" data-name="Path 1001" d="M1684.2,381.218l.068-.013c.064-.014.127-.028.189-.044l.052-.013c.08-.021.16-.045.238-.072l.015-.006c.074-.026.148-.054.22-.084l.034-.014a3.913,3.913,0,0,0,2.377-3.537,5.8,5.8,0,0,1-7.7.948,3.917,3.917,0,0,0,4.152,2.886l.109-.011h0C1684.039,381.247,1684.12,381.233,1684.2,381.218Z" transform="translate(-1675.908 -367.98)" fill="#30975d"/>
      </g>
      <path id="Path_1002" data-name="Path 1002" d="M1658.953,379.053l33.152-38.771-.87-7.529a1.767,1.767,0,0,0-1.958-1.551l-18.151,2.1-15.383,17.991Z" transform="translate(-1649.81 -322.998)" fill="#fff" opacity="0.45"/>
    </g>
    <g id="Group_1410" data-name="Group 1410" transform="translate(1111.827 362.519)">
      <path id="Path_1003" data-name="Path 1003" d="M1195.8,434.025,1164.373,444l-30.405,16.1,14.54,48.776,35.125-22.541,21.5-4.8Z" transform="translate(-1133.968 -434.025)" fill="#f8ebec"/>
      <path id="Path_1004" data-name="Path 1004" d="M1217.6,481.537l-9.335-47.512L1176.832,444l19.26,42.34Z" transform="translate(-1146.427 -434.025)" fill="#e8dbdc"/>
      <path id="Path_1005" data-name="Path 1005" d="M1210.413,491.243l-3.552,2.741,8.13,3.926.436-.9-5.654-3.287,1.309-2.71Z" transform="translate(-1155.155 -450.588)" fill="#51ba6c"/>
      <path id="Path_1006" data-name="Path 1006" d="M1212.263,447.522l7.807,34.287-2.457.531-7.068-34.507Z" transform="translate(-1156.226 -437.948)" fill="#4a3a4f" opacity="0.5"/>
      <path id="Path_1007" data-name="Path 1007" d="M1202.535,450.074l5.5,26.561-2.444.574-4.764-26.781Z" transform="translate(-1153.402 -438.69)" fill="#4a3a4f" opacity="0.5"/>
      <path id="Path_1008" data-name="Path 1008" d="M1193.276,452.331l7.807,34.287-2.457.531-7.068-34.507Z" transform="translate(-1150.707 -439.346)" fill="#4a3a4f" opacity="0.5"/>
      <path id="Path_1009" data-name="Path 1009" d="M1184.2,456.767l8.565,33.457-2.606,1.38-7.457-33.788Z" transform="translate(-1148.132 -440.635)" fill="#4a3a4f" opacity="0.5"/>
      <path id="Path_1010" data-name="Path 1010" d="M1173.981,460.836l5.078,23.783-2.139.922-5.331-23.281Z" transform="translate(-1144.903 -441.818)" fill="#4a3a4f" opacity="0.5"/>
      <path id="Path_1011" data-name="Path 1011" d="M1162.549,467.09l7.956,33.438-2.107,1.03-8.16-32.773Z" transform="translate(-1141.604 -443.636)" fill="#4a3a4f" opacity="0.5"/>
      <path id="Path_1012" data-name="Path 1012" d="M1148.667,472.924l6.528,28.647-2.128.958-6.765-28.091Z" transform="translate(-1137.553 -445.331)" fill="#4a3a4f" opacity="0.5"/>
      <path id="Path_1013" data-name="Path 1013" d="M1159.239,517.11l-3.167,3.178,8.57,2.841.316-.952-6.032-2.528.947-2.857Z" transform="translate(-1140.393 -458.082)" fill="#51ba6c"/>
      <path id="Path_1014" data-name="Path 1014" d="M1182.617,503.3l-3.409,2.917,8.318,3.51.39-.924-5.812-3,1.17-2.773Z" transform="translate(-1147.117 -454.083)" fill="#51ba6c"/>
    </g>
    <g id="Group_1419" data-name="Group 1419" transform="translate(1136.576 272.435)">
      <g id="Group_1417" data-name="Group 1417">
        <g id="Group_1411" data-name="Group 1411" transform="translate(0 18.902)">
          <path id="Path_1015" data-name="Path 1015" d="M1193.4,333.753c-7.057-.382-14.1.7-21.085,1.785-2.206.342-4.547,1.548-2.905,4.193.9,1.451,2.786,1.888,4.482,2.095,7.283.886,14.777.013,22.1.076" transform="translate(-1168.857 -333.675)" fill="#0b2d4e"/>
        </g>
        <g id="Group_1412" data-name="Group 1412" transform="translate(10.624 9.629)">
          <path id="Path_1016" data-name="Path 1016" d="M1250.268,350.714c-1.857,6.367-8.71,13.576-15.983,12.218-2.931-.548-5.944-2.29-8.619-3.589q-4.886-2.373-9.765-4.757l-19.182-9.344c-4.214-2.053-8.659-4.311-11.073-8.328-2.869-4.775-2.51-10.893,2.385-13.966,4.206-2.639,9.8-2.815,14.51-1.693,7.9,1.881,14.355,7.482,22.085,9.6a23.1,23.1,0,0,0,3.858.725c7.54.743,15.459.587,20.2,7.526A13.911,13.911,0,0,1,1250.268,350.714Z" transform="translate(-1183.835 -320.602)" fill="#061f33"/>
        </g>
        <g id="Group_1413" data-name="Group 1413" transform="translate(5.846)">
          <path id="Path_1017" data-name="Path 1017" d="M1201.247,308.635c-.529-1.644-1.08-2.182-2.5-.88a17.192,17.192,0,0,0-4.048,5.311,19.535,19.535,0,0,0-9.047-.014,17.174,17.174,0,0,0-4.448-5.021c-1.512-1.192-2.022-.615-2.427,1.065a53.79,53.79,0,0,0-.976,6.313c-.157,1.325-.354,2.644-.5,3.968a9.044,9.044,0,0,0,.011,3.867c.759,3.224,3.84,6.361,6.547,8.126a10.374,10.374,0,0,0,9.952,1.21,19.037,19.037,0,0,0,7.758-6.358,10.959,10.959,0,0,0,1.985-5.252c.206-2.118-.461-4.052-.868-6.1A55.686,55.686,0,0,0,1201.247,308.635Z" transform="translate(-1177.099 -307.028)" fill="#0b2d4e"/>
        </g>
        <g id="Group_1414" data-name="Group 1414" transform="translate(13.443 32.741)">
          <path id="Path_1018" data-name="Path 1018" d="M1248.844,353.185c3.354,8.806-.522,15.256-6.783,19.6-6.942,4.823-15.3,6.339-23.629,5.946-9.832-.465-20.042-3.181-27.818-9.439-1.563-1.258-3.076-3.045-2.765-5.027.919-5.866,8.879-1.946,11.849-.825,6.1,2.306,12.349,5.218,18.966,6.039,7.261.9,13.855-1.434,19.719-5.651" transform="translate(-1187.808 -353.185)" fill="#0b2d4e"/>
        </g>
        <g id="Group_1415" data-name="Group 1415" transform="translate(33.301 23.765)">
          <path id="Path_1019" data-name="Path 1019" d="M1256.925,361.089a13.921,13.921,0,0,0,.988-8.939c-1.737-7.564-10.136-11.791-17.4-11.613-8.327.2-13.7,8.719-14.122,16.332-.02.348-2.444-.916-2.659-1-1.83-.722-5.334-2.813-7.078-.98a3.68,3.68,0,0,0,.1,4.826,6.815,6.815,0,0,0,1.81,1.108q6.887,3.282,13.756,6.6c3.59,1.724,6.62,2.357,10.237.323,1.883-1.059,3.582-2.434,5.513-3.4" transform="translate(-1215.804 -340.531)" fill="#0b2d4e"/>
        </g>
        <g id="Group_1416" data-name="Group 1416" transform="translate(16.658 19.207)">
          <path id="Path_1020" data-name="Path 1020" d="M1195.688,335.678a1.7,1.7,0,1,1-1.561-1.567A1.573,1.573,0,0,1,1195.688,335.678Z" transform="translate(-1192.341 -334.105)" fill="#061f33"/>
        </g>
      </g>
      <g id="Group_1418" data-name="Group 1418" transform="translate(16.848 11.582)">
        <path id="Path_1021" data-name="Path 1021" d="M1208.1,323.356a13.288,13.288,0,0,0,.207,1.495,4.047,4.047,0,0,1,.052.78,4.856,4.856,0,0,1-.11.78c-.11.505-.265.993-.417,1.474s-.323.97-.521,1.441a14.639,14.639,0,0,1-1.49,2.705,15.215,15.215,0,0,1-4.469,4.238,14.063,14.063,0,0,1-2.785,1.338,12.9,12.9,0,0,1-3,.684,6.03,6.03,0,0,1-1.549-.053,3.31,3.31,0,0,1-1.41-.584,4.57,4.57,0,0,0,2.894.181,12.52,12.52,0,0,0,1.423-.387c.233-.081.468-.153.7-.245s.458-.177.682-.276a15.8,15.8,0,0,0,2.573-1.4,16.431,16.431,0,0,0,2.287-1.823,16.975,16.975,0,0,0,3.491-4.678c.226-.441.41-.882.61-1.351s.392-.917.548-1.381a4.461,4.461,0,0,0,.191-.694,4.666,4.666,0,0,0,.051-.726A9.161,9.161,0,0,1,1208.1,323.356Z" transform="translate(-1192.609 -323.356)" fill="#73b8d4"/>
      </g>
    </g>
    <text id="work._life._balanced." data-name="work. life. balanced." transform="translate(1353.346 665.842)" fill="#51ba6c" font-size="19" font-family="CeraBasic-Bold, Cera Basic" font-weight="700"><tspan x="0" y="0">work. life. balanced.</tspan></text>
    <path id="Path_1022" data-name="Path 1022" d="M1283.3,304.669l3.542-2.6-.133-4.391,3.567,2.565,4.135-1.484-1.338,4.185,2.689,3.474-4.393.021-2.473,3.631-1.378-4.172Z" transform="translate(-65.546 -31.876)" fill="#51ba6c"/>
    <path id="Path_1023" data-name="Path 1023" d="M1619.266,345.768l3.113,2.834,4.1-.958-1.733,3.836,2.178,3.6-4.184-.463-2.753,3.184-.853-4.122-3.879-1.634,3.657-2.085Z" transform="translate(-162.03 -45.853)" fill="#51ba6c"/>
    <g id="Group_1426" data-name="Group 1426" transform="translate(1497.209 392.654)">
      <g id="Group_1425" data-name="Group 1425" transform="translate(0 0)">
        <g id="Group_1424" data-name="Group 1424">
          <g id="Group_1420" data-name="Group 1420">
            <path id="Rectangle_1042" data-name="Rectangle 1042" d="M0,0H26.219a0,0,0,0,1,0,0V24.446A13.109,13.109,0,0,1,13.109,37.556h0A13.109,13.109,0,0,1,0,24.446V0A0,0,0,0,1,0,0Z" transform="translate(17.038 0) rotate(26.98)" fill="#00a09d"/>
          </g>
          <g id="Group_1421" data-name="Group 1421" transform="translate(21.52 19.07)">
            <path id="Path_1024" data-name="Path 1024" d="M1724.262,504.618a11.552,11.552,0,1,0,4.9,15.458A11.468,11.468,0,0,0,1724.262,504.618Zm-8.612,16.916a7.433,7.433,0,1,1,9.9-3.3A7.379,7.379,0,0,1,1715.65,521.534Z" transform="translate(-1707.6 -503.392)" fill="#00a09d"/>
          </g>
          <g id="Group_1422" data-name="Group 1422" transform="translate(9.188 3.576)" opacity="0.2">
            <path id="Path_1025" data-name="Path 1025" d="M1690.988,500.517h0a1.421,1.421,0,0,1-.62-1.907l8.292-16.288a1.423,1.423,0,0,1,1.907-.62h0a1.423,1.423,0,0,1,.62,1.907l-8.292,16.288A1.422,1.422,0,0,1,1690.988,500.517Z" transform="translate(-1690.214 -481.549)" fill="#fff"/>
          </g>
          <g id="Group_1423" data-name="Group 1423" transform="translate(12.052 9.148)">
            <path id="Path_1026" data-name="Path 1026" d="M1717.209,489.4l-14.026,27.552a6.641,6.641,0,0,1-8.93,2.9l5.4,2.747a6.64,6.64,0,0,0,8.93-2.9l14.026-27.551Z" transform="translate(-1694.253 -489.404)" fill="#1d7e8e"/>
          </g>
        </g>
      </g>
    </g>
  </g>
</svg>
