<?xml version="1.0" encoding="UTF-8"?>
<svg width="15px" height="30px" viewBox="0 0 15 30" version="1.1" xmlns="http://www.w3.org/2000/svg" xmlns:xlink="http://www.w3.org/1999/xlink">
    <!-- Generator: Sketch 62 (91390) - https://sketch.com -->
    <title>Artboard</title>
    <desc>Created with Sketch.</desc>
    <g id="Artboard" stroke="none" stroke-width="1" fill="none" fill-rule="evenodd">
        <g id="logout" fill="#152C53" fill-rule="nonzero" opacity="0.5">
            <g>
                <g id="Group_517">
                    <g id="Group_516">
                        <path d="M7.03125,13.75 L1.7578125,13.75 C1.43420815,13.75 1.171875,13.470178 1.171875,13.125 L1.171875,1.875 C1.171875,1.52982203 1.43420815,1.25 1.7578125,1.25 L7.03125,1.25 C7.35485435,1.25 7.6171875,0.970177969 7.6171875,0.625 C7.6171875,0.279822031 7.35485435,2.22044605e-16 7.03125,2.22044605e-16 L1.7578125,2.22044605e-16 C0.787427844,0.00110231933 0.00103342437,0.839923034 0,1.875 L0,13.125 C0.00103342437,14.160077 0.787427844,14.9988977 1.7578125,15 L7.03125,15 C7.35485435,15 7.6171875,14.720178 7.6171875,14.375 C7.6171875,14.029822 7.35485435,13.75 7.03125,13.75 Z" id="Path_325"></path>
                    </g>
                </g>
                <g id="Group_519" transform="translate(4.687500, 2.125000)">
                    <g id="Group_518">
                        <path d="M9.2475,4.93 L5.685,1.18 C5.53738563,1.01573352 5.31773978,0.950018862 5.11156899,1.00843827 C4.90539819,1.06685768 4.74528246,1.24017947 4.69355366,1.46093072 C4.64182487,1.68168197 4.70665743,1.91497863 4.8628125,2.07 L7.4090625,4.75 L0.586875,4.75 C0.263270654,4.75 0.0009375,5.02982203 0.0009375,5.375 C0.0009375,5.72017797 0.263270654,6 0.586875,6 L7.40625,6 L4.86,8.68 C4.70384493,8.83502137 4.63901237,9.06831803 4.69074116,9.28906928 C4.74246996,9.50982053 4.90258569,9.68314232 5.10875649,9.74156173 C5.31492728,9.79998114 5.53457313,9.73426648 5.6821875,9.57 L9.2446875,5.82 C9.35633674,5.70255011 9.41919172,5.54226478 9.41919172,5.375 C9.41919172,5.20773522 9.35633674,5.04744989 9.2446875,4.93 L9.2475,4.93 Z" id="Path_326"></path>
                    </g>
                </g>
            </g>
        </g>
        <g id="logout" transform="translate(0.000000, 15.000000)" fill="#51BA6C" fill-rule="nonzero">
            <g>
                <g id="Group_517">
                    <g id="Group_516">
                        <path d="M7.03125,13.75 L1.7578125,13.75 C1.43420815,13.75 1.171875,13.470178 1.171875,13.125 L1.171875,1.875 C1.171875,1.52982203 1.43420815,1.25 1.7578125,1.25 L7.03125,1.25 C7.35485435,1.25 7.6171875,0.970177969 7.6171875,0.625 C7.6171875,0.279822031 7.35485435,2.22044605e-16 7.03125,2.22044605e-16 L1.7578125,2.22044605e-16 C0.787427844,0.00110231933 0.00103342437,0.839923034 0,1.875 L0,13.125 C0.00103342437,14.160077 0.787427844,14.9988977 1.7578125,15 L7.03125,15 C7.35485435,15 7.6171875,14.720178 7.6171875,14.375 C7.6171875,14.029822 7.35485435,13.75 7.03125,13.75 Z" id="Path_325"></path>
                    </g>
                </g>
                <g id="Group_519" transform="translate(4.687500, 2.125000)">
                    <g id="Group_518">
                        <path d="M9.2475,4.93 L5.685,1.18 C5.53738563,1.01573352 5.31773978,0.950018862 5.11156899,1.00843827 C4.90539819,1.06685768 4.74528246,1.24017947 4.69355366,1.46093072 C4.64182487,1.68168197 4.70665743,1.91497863 4.8628125,2.07 L7.4090625,4.75 L0.586875,4.75 C0.263270654,4.75 0.0009375,5.02982203 0.0009375,5.375 C0.0009375,5.72017797 0.263270654,6 0.586875,6 L7.40625,6 L4.86,8.68 C4.70384493,8.83502137 4.63901237,9.06831803 4.69074116,9.28906928 C4.74246996,9.50982053 4.90258569,9.68314232 5.10875649,9.74156173 C5.31492728,9.79998114 5.53457313,9.73426648 5.6821875,9.57 L9.2446875,5.82 C9.35633674,5.70255011 9.41919172,5.54226478 9.41919172,5.375 C9.41919172,5.20773522 9.35633674,5.04744989 9.2446875,4.93 L9.2475,4.93 Z" id="Path_326"></path>
                    </g>
                </g>
            </g>
        </g>
    </g>
</svg>