<?xml version="1.0" encoding="UTF-8"?>
<svg width="15px" height="30px" viewBox="0 0 15 30" version="1.1" xmlns="http://www.w3.org/2000/svg" xmlns:xlink="http://www.w3.org/1999/xlink">
    <!-- Generator: Sketch 62 (91390) - https://sketch.com -->
    <title>Artboard</title>
    <desc>Created with Sketch.</desc>
    <g id="Artboard" stroke="none" stroke-width="1" fill="none" fill-rule="evenodd">
        <g id="gift" transform="translate(0.000000, 0.000000)" fill="#152C53" fill-rule="nonzero" opacity="0.5">
            <g>
                <g id="Group_797" transform="translate(0.883235, 7.050882)">
                    <g id="Group_796">
                        <path d="M0,0 L0,5.30117647 C0,5.78848654 0.395042868,6.18352941 0.882352941,6.18352941 L5.29941176,6.18352941 L5.29941176,-0.000882352941 L0,0 Z" id="Path_577"></path>
                    </g>
                </g>
                <g id="Group_799">
                    <g id="Group_798">
                        <path d="M13.2520588,3.51705882 L10.4567647,3.51705882 C10.632985,3.40074558 10.7980967,3.26841992 10.95,3.12176471 C11.6630397,2.40198853 11.6630397,1.24212911 10.95,0.522352941 C10.2268124,-0.174740053 9.08171697,-0.174740053 8.35852941,0.522352941 C7.97470588,0.907058824 6.95911765,2.47147059 7.09941176,3.51617647 L7.03588235,3.51617647 C7.17529412,2.47058824 6.15970588,0.906176471 5.77676471,0.522352941 C5.05320872,-0.173826348 3.90885011,-0.173826348 3.18529412,0.522352941 C2.47559234,1.24349932 2.47559234,2.40061833 3.18529412,3.12176471 C3.33771165,3.2681956 3.50309485,3.40050216 3.67941176,3.51705882 L0.882352941,3.51705882 C0.395042868,3.51705882 0,3.91210169 0,4.39941176 L0,5.72294118 C0,5.96659621 0.197521434,6.16411765 0.441176471,6.16411765 L6.18441176,6.16411765 L6.18441176,4.39941176 L7.94911765,4.39941176 L7.94911765,6.16411765 L13.6941176,6.16411765 C13.9377727,6.16411765 14.13531,5.96659621 14.13531,5.72294118 L14.13531,4.40470588 C14.1367048,4.1696224 14.0442447,3.94369558 13.8784272,3.77704984 C13.7126098,3.61040411 13.4871464,3.5168195 13.2520588,3.51705882 Z M6.13235294,3.48794118 C6.081913,3.51326188 6.02520146,3.52337799 5.96911765,3.51705882 C5.16939107,3.38543116 4.42242614,3.03273168 3.81264706,2.49882353 C3.44239641,2.12360711 3.44239641,1.52051054 3.81264706,1.14529412 C3.98948722,0.966555665 4.23047613,0.865980325 4.48191176,0.865980325 C4.7333474,0.865980325 4.97433631,0.966555665 5.15117647,1.14529412 C5.74588235,1.74441176 6.33794118,3.27529412 6.13235294,3.48794118 Z M8.16176471,3.51705882 C8.03647059,3.51705882 7.99941176,3.48882353 7.99941176,3.48794118 C7.79382353,3.27529412 8.38588235,1.74441176 8.98058824,1.14617647 C9.22221536,0.906283119 9.57346961,0.81351906 9.9020369,0.902827618 C10.2306042,0.992136177 10.4865673,1.24994926 10.5735075,1.57915116 C10.6604477,1.90835307 10.5651566,2.2589302 10.3235294,2.49882353 C9.71353084,3.03291909 8.96622878,3.38563343 8.16617647,3.51705882 L8.16176471,3.51705882 Z" id="Path_578"></path>
                    </g>
                </g>
                <g id="Group_801" transform="translate(7.951765, 7.050882)">
                    <g id="Group_800">
                        <path d="M0,0 L0,6.18352941 L4.41705882,6.18352941 C4.9043689,6.18352941 5.29941176,5.78848654 5.29941176,5.30117647 L5.29941176,0 L0,0 Z" id="Path_579"></path>
                    </g>
                </g>
            </g>
        </g>
        <g id="gift" transform="translate(0.000000, 16.000000)" fill="#51BA6C" fill-rule="nonzero">
            <g>
                <g id="Group_797" transform="translate(0.883235, 7.050882)">
                    <g id="Group_796">
                        <path d="M0,6.50521303e-19 L0,5.30117647 C0,5.78848654 0.395042868,6.18352941 0.882352941,6.18352941 L5.29941176,6.18352941 L5.29941176,-0.000882352941 L0,6.50521303e-19 Z" id="Path_577"></path>
                    </g>
                </g>
                <g id="Group_799">
                    <g id="Group_798">
                        <path d="M13.2520588,3.51705882 L10.4567647,3.51705882 C10.632985,3.40074558 10.7980967,3.26841992 10.95,3.12176471 C11.6630397,2.40198853 11.6630397,1.24212911 10.95,0.522352941 C10.2268124,-0.174740053 9.08171697,-0.174740053 8.35852941,0.522352941 C7.97470588,0.907058824 6.95911765,2.47147059 7.09941176,3.51617647 L7.03588235,3.51617647 C7.17529412,2.47058824 6.15970588,0.906176471 5.77676471,0.522352941 C5.05320872,-0.173826348 3.90885011,-0.173826348 3.18529412,0.522352941 C2.47559234,1.24349932 2.47559234,2.40061833 3.18529412,3.12176471 C3.33771165,3.2681956 3.50309485,3.40050216 3.67941176,3.51705882 L0.882352941,3.51705882 C0.395042868,3.51705882 0,3.91210169 0,4.39941176 L0,5.72294118 C0,5.96659621 0.197521434,6.16411765 0.441176471,6.16411765 L6.18441176,6.16411765 L6.18441176,4.39941176 L7.94911765,4.39941176 L7.94911765,6.16411765 L13.6941176,6.16411765 C13.9377727,6.16411765 14.13531,5.96659621 14.13531,5.72294118 L14.13531,4.40470588 C14.1367048,4.1696224 14.0442447,3.94369558 13.8784272,3.77704984 C13.7126098,3.61040411 13.4871464,3.5168195 13.2520588,3.51705882 Z M6.13235294,3.48794118 C6.081913,3.51326188 6.02520146,3.52337799 5.96911765,3.51705882 C5.16939107,3.38543116 4.42242614,3.03273168 3.81264706,2.49882353 C3.44239641,2.12360711 3.44239641,1.52051054 3.81264706,1.14529412 C3.98948722,0.966555665 4.23047613,0.865980325 4.48191176,0.865980325 C4.7333474,0.865980325 4.97433631,0.966555665 5.15117647,1.14529412 C5.74588235,1.74441176 6.33794118,3.27529412 6.13235294,3.48794118 Z M8.16176471,3.51705882 C8.03647059,3.51705882 7.99941176,3.48882353 7.99941176,3.48794118 C7.79382353,3.27529412 8.38588235,1.74441176 8.98058824,1.14617647 C9.22221536,0.906283119 9.57346961,0.81351906 9.9020369,0.902827618 C10.2306042,0.992136177 10.4865673,1.24994926 10.5735075,1.57915116 C10.6604477,1.90835307 10.5651566,2.2589302 10.3235294,2.49882353 C9.71353084,3.03291909 8.96622878,3.38563343 8.16617647,3.51705882 L8.16176471,3.51705882 Z" id="Path_578"></path>
                    </g>
                </g>
                <g id="Group_801" transform="translate(7.951765, 7.050882)">
                    <g id="Group_800">
                        <path d="M0,0 L0,6.18352941 L4.41705882,6.18352941 C4.9043689,6.18352941 5.29941176,5.78848654 5.29941176,5.30117647 L5.29941176,0 L0,0 Z" id="Path_579"></path>
                    </g>
                </g>
            </g>
        </g>
    </g>
</svg>