<svg xmlns="http://www.w3.org/2000/svg" width="224.503" height="190.743" viewBox="0 0 224.503 190.743">
  <g id="Group_1869" data-name="Group 1869" transform="translate(-151.894 -79.782)">
    <g id="Map_-_North" data-name="Map - North" transform="translate(152.5 80.5)">
      <path id="Path_714" data-name="Path 714" d="M201.265,261.747l8.689,7.976,5.317-5.317v-6.744l5.058,2.594h5.317l1.686-4.28,6.485.973,6.031,5.058,4.8-8.43,6.485-.713,10.829.973,2.918-1.945h7l9.662-1.232,13.034,12.775L297.5,262.2l18.806.454,10.375,7,1.232-9.468,3.631-4.993,15.693,2.4v-2.659l1.881-4.8V238.078l6.744-3.372,9.662,1.686,5.058,6.031,5.317-8.236V230.3l-4.345-1.232-4.928-7,2.27-7.717s-2.4-2.659-2.27-2.918l-6.614-2.659v-3.631l6.485,1.232,4.6-1.945,2.14-5.058v-3.891l-6.1-1.232-2.529-3.113-.843-4.6-1.686.519-.843,2.594-1.686-.519v-8.236l-2.529-5.188-3.372.519-.454,4.669,1.232,1.038-3.761,1.038-1.686-5.188-3.372-2.075,1.232-3.113-2.529-1.556-1.686-3.113h-5.447l-5.9-4.669-3.372.519-1.232-1.556-2.075.519-2.529,6.16-1.686.519-3.372,4.15h-3.372l-1.232,1.038-2.529,3.631-.843,3.631h-1.232l1.686-6.679,3.761-5.707-.843-5.707,2.918-5.188V154.1l5.836.519-.454-2.594h-7.976l-3.372,2.594-3.761,1.038-4.28,3.631-.843,4.669-2.918.519-.843,1.556h-5.447l-2.529,1.038v4.15l-.843.519-3.372-1.038-.843,2.075-2.529-1.556-.454,1.556h-5.058l.454-1.556-2.918-1.038-1.232,2.594-6.679,1.556-1.232,1.556-2.529.519-.843,2.075h-2.529l-3.761,2.075L251,180.04l.389-4.15,2.918-1.556.843-2.594,3.372-1.038,1.686-5.188,2.529-3.113.843-3.631-2.529-1.038v-2.075l2.529-.519,2.529,2.075h3.761l1.232-1.556-.389-3.113-1.686-1.038,3.372-5.188-3.372-3.631,2.918-2.594v-2.075h-3.761l-.843-1.038-1.232,2.075h-1.686l-2.918-2.075-4.215.519-2.918-3.631-3.761,2.075-.389,1.556h-2.918l-2.075-3.113.454-2.075L244,130.756l-2.918,2.075-6.744,2.075-1.232,1.556-7.133,2.075-20.556,2.594-2.075-1.556-2.529-5.707-.389-4.15,1.232-2.075,12.191-6.679,2.529-3.631,5.836-4.15-.843-2.075.843-1.556H223.9l2.075-2.594h7.976l6.29-4.15-.454-4.15-2.918-3.113-2.918-.519V89.838l-2.075-1.556-.843-3.113-2.075-1.038L226.879,80.5h0l-1.621,1.1.389,3.631L220.2,83.159l-2.075,2.075.389,5.188,4.215,2.075-.454,1.038-6.679-.519-1.686,4.669h-3.761l-.843-3.113-1.232-.519h-4.6l-1.232,8.754-2.918-2.594h-5.058l-.843,1.556,1.232,2.594-5.836-2.594-2.918.519-1.232,1.556h-2.529l-5.058-2.594-7.522,1.038-1.686-2.075,1.232-1.038.389-2.594-2.529.519-1.232,6.744,9.208,3.113-.843,3.631-1.686.519-.389-1.038h-2.335l-4.215,7.717h-4.6l-2.918,2.594-2.075,4.15-.843,4.669-2.529,2.594,2.075,4.15,5.058,2.594h4.6L168,135.944l10.894.519.843,5.188,1.686,2.594-.843,2.594h-2.464l-.843,1.556.843,2.594,5.447,2.594-.389,1.556h-2.529l2.075,3.631-.843,4.15,1.686,1.556h2.918v1.556l-5.058,3.113v4.15l-2.918,2.075v5.707h-6.29L168,183.671l-.843,5.188,2.529,5.707,7.976,1.038,3.761,1.556.843,1.038-.843,1.038,2.918,3.113,6.744-1.038.843,2.075-2.918,1.556v3.113l.843,2.075h2.918l-.843,1.556-8.819-.519-.454,1.556,1.232,4.669,6.29-.519-.843,5.642.843,3.631-1.232-.519-.389,1.556h-1.686L183.108,222l-2.918-.519h-4.215l-1.686,2.075-1.232,9.273,1.232,6.679,3.372.519.454,2.594,3.761,2.075.389,2.075-.843,1.038,1.232,3.113,2.529.519.389,2.075,4.28,8.819Z" transform="translate(-152.5 -80.5)" fill="#51ba6c" stroke="#fafafa" stroke-width="1"/>
    </g>
    <text id="NORTH" transform="translate(242.5 211.5)" fill="#152c53" font-size="13" font-family="Helvetica"><tspan x="0" y="0">NORTH</tspan></text>
  </g>
</svg>
