<svg xmlns="http://www.w3.org/2000/svg" width="284.05" height="210.872" viewBox="0 0 284.05 210.872">
  <g id="Group_1870" data-name="Group 1870" transform="translate(-166.266 -191.916)">
    <g id="Map_-_Central" data-name="Map - Central" transform="translate(166.766 192.49)">
      <path id="Path_720" data-name="Path 720" d="M457.037,311.3l-5.836-2.075-1.686-4.669L445.754,303l.454-5.188-2.918-1.038-4.215-3.631-6.679-2.594-1.232.519v4.6l-1.686,1.038H427.4l-2.529-2.075v-2.075l-1.686-.519v-1.556l3.761-.519.454-7.717h-1.686V278.62l2.529-2.075-1.686-1.556-2.075,1.556-1.686-1.038-2.075.519-.454-1.556,3.372-3.113-2.529-3.631-2.918-.519-2.075-1.556h-3.372l-.843-2.075-4.215-1.556.454-3.631-.843-1.038-6.29-1.556-3.761-2.594-6.679,3.113-.389,1.556-8.56-1.751-.584,4.085-2.2,5.058-4.6,1.945-6.485-1.232v3.631s6.744,2.4,6.614,2.659l2.27,2.918-2.27,7.717,4.928,7,4.345,1.232v3.891l-5.188,8.041L373.45,297.1l-9.662-1.686-6.744,3.372v12.061l-1.881,4.8v2.659l-15.693-2.4-3.631,4.993-1.232,9.468-10.375-7-18.806-.454a10.791,10.791,0,0,1-2.918,1.232c-.778,0-13.034-12.775-13.034-12.775l-9.662,1.232h-7l-2.918,1.945-10.829-.973-6.485.713-4.8,8.43-6.031-5.058-6.485-.973-1.686,4.28h-5.317l-5.058-2.594v6.679l-5.317,5.317L209,322.456l-11.348.259-4.28-8.819-10.051.519L174.5,312.34v3.631l3.372,5.123-.454,3.113-2.529,2.594v3.631l3.761,5.642,4.6,3.113,4.215,12.9L185.783,362.4,190,368.044l3.761,3.113,1.232,4.085,8.365,5.642,10.051.519-2.918,3.113v1.038h1.232l-.843,1.038,2.918,2.075,4.215.519,1.686,1.556.843,3.113,2.529,2.075,2.918,6.679,9.208,6.16,4.6,5.642,6.29,1.556,2.075,4.085,6.29,5.188,5.058-.519,2.075,2.075,4.993.519,3.372,5.123,3.761.519,2.075,7.2,2.529,1.556,5.058-.519-.389,1.038,2.075,1.038,2.075,3.113,1.686-2.075,7.133,3.113,8.819,1.556V452.6l2.529,5.642,5.058,2.594h5.9l4.6,1.556,6.679.584.065-.065,7.393-10.7,7.457,2.464,2.4-4.41-1.427-5.9,3.5-1.232.259-4.6,7,.843,2.4-5.577,7.393-1.427-.713-5.642,3.5-2.853,7.976-5.642,3.826-5.771,5.253-2.334,5.058-5.447v-6.355l1.816-4.345-.195.065,4.15-8.43L399.194,384l1.1-4.734,2.594-4.085,6.355-8.171,3.178-6.874,5.253-4.41,7.068-.454,4.8-3.177,4.474-6.16-4.474-.973v-8.106l1.427-1.556v-2.983l3.307-1.816.454-.648V325.7l-1.232-1.556h-2.075l-2.918-4.085h4.215l3.372,1.556.843,1.556,3.761.519,3.372-2.075.454-4.669-5.447-2.075-8.819,1.038.843-3.113,6.679-3.567h4.215l2.918,1.556.454,1.556,6.29,3.113h2.918l2.918-2.075Z" transform="translate(-174.5 -253.2)" fill="#51ba6c" stroke="#fafafa" stroke-width="1"/>
    </g>
    <text id="CENTRAL" transform="translate(297.5 302.5)" fill="#152c53" font-size="13" font-family="Helvetica"><tspan x="0" y="0">CENTRAL</tspan></text>
  </g>
</svg>
