<?xml version="1.0" encoding="UTF-8"?>
<svg width="50px" height="30px" viewBox="0 0 50 30" version="1.1" xmlns="http://www.w3.org/2000/svg" xmlns:xlink="http://www.w3.org/1999/xlink">
    <!-- Generator: Sketch 62 (91390) - https://sketch.com -->
    <title>Artboard</title>
    <desc>Created with Sketch.</desc>
    <defs>
        <linearGradient x1="0%" y1="50%" x2="100%" y2="50%" id="linearGradient-1">
            <stop stop-color="#14294B" offset="0%"></stop>
            <stop stop-color="#142B52" offset="100%"></stop>
        </linearGradient>
    </defs>
    <g id="Artboard" stroke="none" stroke-width="1" fill="none" fill-rule="evenodd">
        <g id="moving-truck_gig" transform="translate(-1.000000, 0.000000)" fill-rule="nonzero">
            <path d="M49.7881187,27 L2.36882501,27 C2.27083801,27.0005049 2.17670269,26.9651486 2.1074143,26.9018112 C2.03812591,26.8384737 1.99944762,26.7524234 2,26.6628522 L2,23 L52,23 L52,24.9752354 C52.0016542,25.5122043 51.7692526,26.0276598 51.3541754,26.4076237 C50.9390981,26.7875875 50.3755409,27.0007566 49.7881187,27 L49.7881187,27 Z" id="Path_780" fill="#2D5871"></path>
            <path d="M51.9968686,25 L33,25 L33,6 L45.9971983,6 C46.7442716,6.00211045 47.4442407,6.3820784 47.8760094,7.01988506 L51.5897929,12.5888506 C51.8563782,12.9886047 51.9995339,13.4641857 52,13.9516092 L51.9968686,25 Z" id="Path_781" fill="url(#linearGradient-1)"></path>
            <path d="M51.5918132,12.5945448 L47.8774176,7.02077843 C47.4486863,6.37869752 46.7466122,5.99732123 45.9982967,6 L41.2785714,6 C42.0257679,6.00212643 42.7258524,6.38242194 43.1576923,7.02077843 L46.8720879,12.5945448 C47.1387171,12.9946435 47.2818964,13.4706345 47.2823626,13.9584782 L47.2823626,21.8852482 C47.2806455,22.3589229 46.914277,22.7424663 46.4618132,22.744264 L33,22.744264 L33,25 L52,25 L52,13.9486421 C51.9972545,13.4645499 51.8549869,12.9925991 51.5918132,12.5945448 Z" id="Path_782" fill="#001436"></path>
            <path d="M40,15.6667968 L40,9.33320322 C39.9992076,9.24459099 40.0340186,9.15937333 40.0966189,9.09671242 C40.1592192,9.03405151 40.2443545,8.99920687 40.332881,9 L46.6892519,9 C46.7994632,8.99952268 46.902502,9.05465489 46.9633193,9.146657 L49.9411864,13.4112833 C49.9795654,13.4658935 50.0001063,13.5310608 50,13.5978295 L50,15.6667968 C50.0007924,15.755409 49.9659814,15.8406267 49.9033811,15.9032876 C49.8407808,15.9659485 49.7556455,16.0007931 49.667119,16 L40.332881,16 C40.2443545,16.0007931 40.1592192,15.9659485 40.0966189,15.9032876 C40.0340186,15.8406267 39.9992076,15.755409 40,15.6667968 Z" id="Path_783" fill="#6F60AA"></path>
            <circle id="Ellipse_102" fill="#1D4859" cx="45" cy="26" r="4"></circle>
            <path d="M44.5,28 C43.6715729,28 43,27.3284271 43,26.5 C43,25.6715729 43.6715729,25 44.5,25 C45.3284271,25 46,25.6715729 46,26.5 C45.9984816,27.3277974 45.3277974,27.9984816 44.5,28 L44.5,28 Z" id="Path_784" fill="#E1EFFB"></path>
            <path d="M34.9899115,24.9991797 L0.673911164,24.9991797 C0.32128056,25.017312 0.0206086773,24.7326607 0,24.3611762 L0,0.639142155 C0.00832571707,0.460048126 0.0842101802,0.291887723 0.210772608,0.172068854 C0.337335035,0.0522499841 0.504078812,-0.00929002168 0.673911164,0.00113863968 L34.3260888,0.00113863968 C34.6787194,-0.0169936452 34.9793913,0.267657699 35,0.639142155 L34.9899115,24.9991797 L34.9899115,24.9991797 Z" id="Path_785" fill="#51BA6C"></path>
            <path d="M34.3258945,0.000696019782 L30.4285961,0.000696019782 L30.4285961,21.1731107 C30.3742542,22.2423974 29.5101681,23.064473 28.495084,23.0126184 L0,23.0126184 L0,24.3608819 C0.00832811759,24.5399692 0.0842344601,24.7081232 0.210833379,24.8279376 C0.337432298,24.947752 0.504224151,25.0092897 0.67410547,24.9988614 L35,24.9988614 L35,0.649308563 C34.9836506,0.274151893 34.6819598,-0.0161296937 34.3258945,0.000696019782 Z" id="Path_786" fill="#30975D"></path>
            <g id="Group_1090" transform="translate(4.000000, 2.000000)" fill="#FFFFFF">
                <path d="M14.0991875,7.94126667 C13.8810722,7.94178148 13.6699956,7.85895907 13.5041875,7.7078 L7.5414375,2.26666667 L1.5786875,7.70666667 C1.33215092,7.94597235 0.983099142,8.02329941 0.667615536,7.90850067 C0.352131929,7.79370194 0.120158652,7.50495044 0.0621341697,7.15482053 C0.00410968692,6.80469063 0.129219476,6.44860911 0.3886875,6.2254 L6.9464375,0.232333333 C7.28923709,-0.0795077132 7.79363791,-0.0795077132 8.1364375,0.232333333 L14.6941875,6.2254 C14.8796511,6.39449613 14.9939213,6.6357603 15.0114888,6.89533341 C15.0290563,7.15490651 14.9484584,7.41117612 14.7876875,7.60693333 C14.6130736,7.81755712 14.362771,7.93910321 14.0991875,7.94126667 L14.0991875,7.94126667 Z" id="Path_787"></path>
                <path d="M12.6796875,8.77653333 L7.9175625,4.42113333 C7.70213952,4.22034768 7.38073548,4.22034768 7.1653125,4.42113333 L2.4031875,8.77653333 C2.27806347,8.89570558 2.20591235,9.06567871 2.20449604,9.2446 L2.20449604,15.4779333 C2.20393262,15.6407312 2.26431084,15.7970359 2.37223233,15.9121522 C2.48015382,16.0272684 2.62668952,16.0916719 2.7793125,16.0910667 L5.9328125,16.0910667 L5.9328125,10.6748667 C5.93397534,10.4168761 6.12975885,10.2080404 6.371625,10.2068 L8.700625,10.2068 C8.94249115,10.2080404 9.13827466,10.4168761 9.1394375,10.6748667 L9.1394375,16.0990042 L12.2929375,16.0990042 C12.4455605,16.0996052 12.5920962,16.0352018 12.7000177,15.9200855 C12.8079392,15.8049693 12.8683174,15.6486645 12.86775,15.4858667 L12.86775,9.25253333 C12.880446,9.07084458 12.8104683,8.89372585 12.6796875,8.77653333 Z" id="Path_788"></path>
            </g>
            <ellipse id="Ellipse_103" fill="#1D4859" transform="translate(10.373552, 25.909058) rotate(-88.093000) translate(-10.373552, -25.909058) " cx="10.3735521" cy="25.9090579" rx="4.52913662" ry="4.56200777"></ellipse>
            <path d="M9.50829848,28 C8.90087181,28.0033289 8.35139004,27.6400039 8.11661168,27.0797744 C7.88183332,26.5195449 8.00811401,25.873025 8.43644608,25.4423165 C8.86477814,25.0116081 9.51058987,24.881752 10.0721103,25.1134267 C10.6336307,25.3451014 11,25.892564 11,26.5 C10.9985083,27.3245711 10.3328498,27.9939227 9.50829848,28 L9.50829848,28 Z" id="Path_789" fill="#E1EFFB"></path>
            <path d="M26.2491135,13.9449896 L30.9108881,10.1946203 C30.9671531,10.1466405 31,10.073323 31,9.99571412 C31,9.91810523 30.9671531,9.84478778 30.9108881,9.7968079 L26.2491135,6.04643869 C26.17862,5.99225038 26.0862206,5.98492402 26.0092053,6.02741634 C25.93219,6.06990866 25.8832685,6.15520728 25.8821843,6.24888777 L25.8821843,8.23896223 L22.2296984,8.23896223 C22.1685535,8.23813864 22.1096909,8.26410924 22.0664516,8.31098784 C22.0232123,8.35786644 21.9992579,8.42168336 22,8.4879746 L22,11.5317965 C21.9992579,11.5980878 22.0232123,11.6619047 22.0664516,11.7087833 C22.1096909,11.7556619 22.1685535,11.7816325 22.2296984,11.7808089 L25.8821843,11.7808089 L25.8821843,13.7708834 C25.88732,13.8622591 25.9392093,13.9428263 26.0165635,13.9795306 C26.0939178,14.0162348 26.1837149,14.0028971 26.2491135,13.9449896 Z" id="Path_790" fill="#FFFFFF"></path>
        </g>
    </g>
</svg>