<svg xmlns="http://www.w3.org/2000/svg" width="289.058" height="224.999" viewBox="0 0 289.058 224.999">
  <g id="Group_1192" data-name="Group 1192" transform="translate(0 0)">
    <g id="Group_1136" data-name="Group 1136" transform="translate(24.461 73.941)" opacity="0.7">
      <path id="Path_811" data-name="Path 811" d="M949.93,556.756v37.595L847.357,696.923H746.7a10.892,10.892,0,0,1-10.891-10.891V556.756A10.888,10.888,0,0,1,746.7,545.865H939.039c.18,0,.353.007.534.014A10.888,10.888,0,0,1,949.93,556.756Z" transform="translate(-735.807 -545.865)" fill="#152c53"/>
    </g>
    <g id="Group_1137" data-name="Group 1137" transform="translate(33.007 57.864)">
      <path id="Path_812" data-name="Path 812" d="M985.179,448.018v72.943l-70.517,70.517H787.819V448.018Z" transform="translate(-787.819 -448.018)" fill="#fff"/>
    </g>
    <g id="Group_1138" data-name="Group 1138" transform="translate(32.844 57.863)">
      <rect id="Rectangle_962" data-name="Rectangle 962" width="197.357" height="17.328" transform="translate(197.357 17.328) rotate(180)" fill="#51ba6c"/>
    </g>
    <path id="Rectangle_963" data-name="Rectangle 963" d="M3.274,0h21.6a3.274,3.274,0,0,1,3.274,3.274v0a3.274,3.274,0,0,1-3.274,3.274H3.274A3.274,3.274,0,0,1,0,3.274v0A3.274,3.274,0,0,1,3.274,0Z" transform="translate(41.087 63.253)" fill="#f5f7ff"/>
    <g id="Group_1141" data-name="Group 1141" transform="translate(238.718 211.407)">
      <g id="Group_1140" data-name="Group 1140">
        <g id="Group_1139" data-name="Group 1139">
          <path id="Path_813" data-name="Path 813" d="M2039.9,1382.552a.018.018,0,0,1,.01,0C2039.867,1382.57,2039.861,1382.571,2039.9,1382.552Z" transform="translate(-2039.874 -1382.551)" fill="#323657"/>
        </g>
      </g>
    </g>
    <g id="Group_1151" data-name="Group 1151" transform="translate(258.969 155.07)">
      <g id="Group_1144" data-name="Group 1144">
        <g id="Group_1143" data-name="Group 1143">
          <g id="Group_1142" data-name="Group 1142">
            <path id="Path_814" data-name="Path 814" d="M2163.127,1051.124l19.7-11.019-6.771-.447Z" transform="translate(-2163.127 -1039.658)" fill="#d6d6d6"/>
          </g>
        </g>
      </g>
      <g id="Group_1147" data-name="Group 1147" transform="translate(0 1.578)">
        <g id="Group_1146" data-name="Group 1146">
          <g id="Group_1145" data-name="Group 1145">
            <path id="Path_815" data-name="Path 815" d="M2163.127,1059.153l6.063-9.752,5.087-.135Z" transform="translate(-2163.127 -1049.266)" fill="#e8e8e8"/>
          </g>
        </g>
      </g>
      <g id="Group_1150" data-name="Group 1150" transform="translate(0 2.98)">
        <g id="Group_1149" data-name="Group 1149">
          <g id="Group_1148" data-name="Group 1148">
            <path id="Path_816" data-name="Path 816" d="M2178.3,1057.8l.394,2.483-15.565,6Z" transform="translate(-2163.127 -1057.799)" fill="#c2c2c2"/>
          </g>
        </g>
      </g>
    </g>
    <g id="Group_1152" data-name="Group 1152" transform="translate(0 17.976)">
      <path id="Path_817" data-name="Path 817" d="M587.567,338.18c-.064-.774-.125-1.556-.179-2.324l.538-.038c.054.766.114,1.546.179,2.318Zm278.947-2.452-.307-.443a22.431,22.431,0,0,0,2.218-1.839l.367.395A22.5,22.5,0,0,1,866.513,335.727ZM587.2,332.946c-.054-.971-.1-1.951-.14-2.913l.539-.022c.038.96.085,1.936.139,2.9Zm283.638-1.219-.406-.355a24.981,24.981,0,0,0,1.77-2.275l.444.305A25.561,25.561,0,0,1,870.841,331.727ZM586.97,327.118c-.023-.972-.038-1.953-.045-2.916l.539,0c.007.96.022,1.938.045,2.907Zm287.183-.251-.482-.242a17.7,17.7,0,0,0,1.079-2.654l.515.161A18.254,18.254,0,0,1,874.153,326.867Zm-286.685-5.576-.539-.005c.01-.972.028-1.954.055-2.916l.539.015C587.5,319.344,587.478,320.322,587.468,321.292Zm288.415-.051-.536-.062a14.483,14.483,0,0,0,.1-1.659c0-.4-.017-.8-.05-1.193l.537-.045c.034.41.052.827.052,1.238A14.97,14.97,0,0,1,875.883,321.24Zm-1-5.722a16.971,16.971,0,0,0-1.016-2.676l.487-.232a17.562,17.562,0,0,1,1.048,2.761ZM587.63,315.48l-.539-.025c.045-.971.1-1.951.162-2.912l.538.035C587.729,313.536,587.674,314.512,587.63,315.48Zm284.813-5.133a25.666,25.666,0,0,0-1.728-2.3l.413-.346a26.191,26.191,0,0,1,1.764,2.352Zm-284.437-.666-.537-.045c.082-.969.174-1.946.274-2.9l.536.056C588.18,307.743,588.088,308.716,588.007,309.681Zm280.753-3.759-.234-.231a21.238,21.238,0,0,0-1.917-1.658l.328-.428a21.747,21.747,0,0,1,1.966,1.7l.238.234ZM588.61,303.9l-.535-.067c.121-.964.253-1.937.392-2.89l.533.078C588.862,301.973,588.731,302.942,588.61,303.9Zm275.615-1.459a26.248,26.248,0,0,0-2.562-1.3l.218-.493a26.844,26.844,0,0,1,2.616,1.326Zm-5.25-2.342c-.871-.3-1.777-.569-2.769-.835l.14-.521c1,.269,1.92.546,2.8.846Zm-5.587-1.518c-.857-.188-1.789-.378-2.847-.581l.1-.53c1.063.2,2,.394,2.861.584Zm-263.934-.429-.532-.09c.162-.959.336-1.924.517-2.87l.53.1C589.788,296.239,589.615,297.2,589.454,298.155Zm258.224-.678-.869-.155q-.995-.178-2-.36l.1-.531q1,.183,2,.359l.87.156Zm-5.735-1.058c-1.029-.2-1.964-.4-2.857-.606l.12-.526c.887.2,1.817.4,2.842.6Zm-5.693-1.309c-.969-.262-1.912-.541-2.8-.831l.167-.513c.883.287,1.817.564,2.777.823Zm-5.557-1.816c-.92-.362-1.823-.753-2.685-1.162l.231-.487c.85.4,1.742.789,2.651,1.147Zm-240.145-.843-.527-.114c.205-.951.423-1.907.648-2.844l.524.126C590.969,290.552,590.752,291.5,590.548,292.451Zm234.866-1.671c-.848-.484-1.683-1.005-2.481-1.549l.3-.446c.786.536,1.609,1.049,2.445,1.527Zm-4.83-3.291c-.751-.606-1.492-1.253-2.2-1.924l.371-.392c.7.661,1.429,1.3,2.169,1.9ZM591.905,286.8l-.521-.139c.25-.939.513-1.884.784-2.81l.518.151C592.416,284.929,592.154,285.87,591.905,286.8Zm224.432-3.328c-.644-.709-1.279-1.459-1.886-2.231l.424-.334c.6.762,1.227,1.5,1.862,2.2Zm-222.8-2.245-.514-.164c.3-.925.607-1.856.924-2.767l.509.177C594.139,279.384,593.83,280.31,593.535,281.231Zm219.185-2.338c-.54-.785-1.072-1.611-1.581-2.454l.461-.279c.5.834,1.03,1.651,1.565,2.428Zm-217.274-3.144-.5-.191c.343-.908.7-1.821,1.068-2.715l.5.2C596.146,273.937,595.788,274.846,595.446,275.749ZM809.7,273.9c-.448-.839-.889-1.716-1.312-2.607l.487-.231c.419.883.856,1.752,1.3,2.584Zm-212.053-3.524-.493-.218c.392-.888.8-1.781,1.214-2.653l.487.231C598.441,268.6,598.035,269.492,597.645,270.376Zm209.549-1.745c-.37-.876-.735-1.786-1.084-2.708l.5-.191c.346.915.708,1.82,1.076,2.689Zm-207.06-3.5-.48-.245c.44-.864.9-1.732,1.361-2.581l.473.258C601.027,263.409,600.571,264.273,600.134,265.132Zm204.991-1.955c-.306-.9-.607-1.834-.894-2.775l.516-.158c.286.936.585,1.865.889,2.76Zm-202.211-3.14-.466-.272c.489-.838,1-1.679,1.507-2.5l.458.285C603.905,258.368,603.4,259.2,602.914,260.037Zm200.5-2.437c-.253-.918-.5-1.867-.738-2.823l.523-.13c.236.951.483,1.9.735,2.81Zm-197.435-2.49-.449-.3c.536-.807,1.091-1.616,1.65-2.407l.44.311C607.068,253.5,606.516,254.309,605.984,255.111Zm195.994-3.148c-.256-.917-.553-1.84-.883-2.743l.507-.185c.335.916.636,1.852.9,2.783Zm-192.642-1.59-.431-.324c.583-.775,1.184-1.55,1.789-2.306l.421.337C610.513,248.831,609.915,249.6,609.335,250.373ZM800,246.547c-.392-.866-.825-1.736-1.286-2.587l.474-.257c.467.862.906,1.744,1.3,2.622Zm-187.042-.708-.411-.349c.627-.738,1.273-1.478,1.921-2.2l.4.361C614.226,244.37,613.583,245.1,612.96,245.839Zm3.884-4.313-.39-.372c.669-.7,1.357-1.4,2.046-2.081l.379.384C618.193,240.133,617.509,240.83,616.844,241.526Zm180.408-.058c-.508-.8-1.055-1.608-1.625-2.393l.436-.317c.577.794,1.13,1.609,1.644,2.421Zm-176.279-4.021-.368-.394c.707-.66,1.435-1.319,2.163-1.96l.356.4C622.4,236.134,621.677,236.79,620.973,237.446Zm172.885-.661c-.6-.734-1.241-1.47-1.9-2.186l.4-.365c.664.723,1.309,1.466,1.918,2.209ZM625.331,233.61l-.345-.415c.743-.618,1.507-1.235,2.27-1.834l.333.424C626.83,232.381,626.07,232.995,625.331,233.61Zm164.615-1.094c-.677-.666-1.389-1.333-2.115-1.981l.359-.4c.732.654,1.45,1.327,2.134,2ZM629.89,230.029l-.321-.433c.774-.574,1.568-1.146,2.361-1.7l.309.442C631.45,228.889,630.659,229.459,629.89,230.029Zm155.736-1.378c-.738-.6-1.507-1.2-2.285-1.786l.323-.431c.784.588,1.559,1.193,2.3,1.8Zm-150.992-1.945-.3-.45c.805-.532,1.63-1.062,2.451-1.574l.285.458C636.256,225.65,635.436,226.177,634.634,226.707Zm146.351-1.535c-.784-.541-1.6-1.081-2.419-1.6l.29-.455c.827.527,1.646,1.07,2.435,1.615Zm-141.431-1.535-.273-.465c.83-.488,1.682-.975,2.532-1.446l.261.472C641.228,222.667,640.38,223.151,639.554,223.637Zm136.538-1.587c-.821-.485-1.67-.968-2.524-1.435l.259-.473c.859.47,1.713.956,2.539,1.444Zm-131.461-1.228-.25-.478c.857-.447,1.732-.891,2.6-1.318l.238.484C646.355,219.936,645.483,220.377,644.631,220.822ZM771,219.26c-.851-.432-1.728-.862-2.608-1.278l.23-.488c.885.418,1.767.85,2.623,1.285Zm-121.156-1-.226-.49c.876-.4,1.773-.805,2.664-1.191l.214.495C651.609,217.46,650.717,217.859,649.844,218.261Zm115.9-1.483c-.876-.384-1.776-.765-2.676-1.131l.2-.5c.9.368,1.809.751,2.689,1.137Zm-110.57-.826-.2-.5c.895-.363,1.809-.721,2.718-1.066l.191.5C656.978,215.234,656.068,215.591,655.177,215.952Zm105.19-1.367c-.9-.339-1.816-.674-2.731-.994l.178-.509c.919.322,1.842.658,2.743,1Zm-99.754-.694-.18-.509c.912-.322,1.841-.639,2.763-.942l.168.512C662.446,213.255,661.521,213.571,660.613,213.892Zm94.269-1.229c-.914-.3-1.847-.587-2.775-.865l.154-.517c.932.279,1.869.571,2.787.868Zm-88.746-.588-.157-.516c.925-.282,1.867-.558,2.8-.821l.146.519C668,211.519,667.057,211.795,666.136,212.075ZM749.313,211c-.927-.255-1.873-.5-2.811-.741l.132-.523c.942.237,1.891.488,2.822.744Zm-77.581-.5-.135-.522c.933-.242,1.886-.478,2.832-.7l.125.525C673.61,210.022,672.661,210.258,671.732,210.5Zm71.944-.924c-.938-.216-1.894-.425-2.84-.622l.11-.528c.95.2,1.909.408,2.851.625Zm-66.288-.418-.114-.527c.945-.2,1.906-.4,2.857-.587l.1.529C679.287,208.757,678.329,208.954,677.388,209.157Zm60.6-.769c-.946-.177-1.909-.348-2.863-.508l.089-.532c.957.16,1.924.332,2.873.509Zm-54.893-.343-.093-.531c.949-.166,1.917-.325,2.877-.473l.082.533C685,207.722,684.037,207.88,683.092,208.045Zm49.158-.616c-.952-.14-1.922-.274-2.88-.4l.068-.535c.962.123,1.935.256,2.891.4Zm-43.417-.27-.072-.534c.958-.129,1.931-.25,2.891-.361l.062.536C690.757,206.909,689.787,207.03,688.833,207.159Zm37.649-.467c-.959-.1-1.933-.2-2.893-.286l.048-.537c.964.086,1.94.183,2.9.288Zm-31.882-.2-.051-.537c.962-.093,1.938-.177,2.9-.251l.042.538C696.532,206.317,695.559,206.4,694.6,206.494Zm26.09-.321c-.96-.068-1.936-.128-2.9-.178l.028-.539c.969.051,1.949.111,2.912.179Zm-20.3-.126-.032-.539c.963-.056,1.94-.1,2.906-.143l.021.539C702.32,205.943,701.345,205.991,700.386,206.047Zm14.5-.178c-.963-.033-1.939-.057-2.9-.071l.008-.539c.967.015,1.946.039,2.912.071Zm-8.7-.053-.012-.539c.962-.021,1.94-.033,2.907-.036l0,.539C708.113,205.783,707.138,205.8,706.179,205.816Z" transform="translate(-586.925 -205.241)" fill="#e0e0e0"/>
    </g>
    <g id="Group_1172" data-name="Group 1172" transform="translate(46.695 95.625)">
      <g id="Group_1153" data-name="Group 1153" transform="translate(22.811 2.971)">
        <rect id="Rectangle_964" data-name="Rectangle 964" width="99.472" height="3.465" fill="#e8e8e8"/>
        <rect id="Rectangle_965" data-name="Rectangle 965" width="99.472" height="3.465" transform="translate(0 11.29)" fill="#e8e8e8"/>
        <rect id="Rectangle_966" data-name="Rectangle 966" width="99.472" height="3.465" transform="translate(0 22.181)" fill="#e8e8e8"/>
        <rect id="Rectangle_967" data-name="Rectangle 967" width="99.472" height="3.465" transform="translate(0 33.471)" fill="#e8e8e8"/>
        <rect id="Rectangle_968" data-name="Rectangle 968" width="99.472" height="3.465" transform="translate(0 46.154)" fill="#e8e8e8"/>
        <rect id="Rectangle_969" data-name="Rectangle 969" width="99.472" height="3.465" transform="translate(0 57.445)" fill="#e8e8e8"/>
        <rect id="Rectangle_970" data-name="Rectangle 970" width="99.472" height="3.465" transform="translate(0 68.336)" fill="#e8e8e8"/>
        <rect id="Rectangle_971" data-name="Rectangle 971" width="99.472" height="3.465" transform="translate(0 79.626)" fill="#e8e8e8"/>
      </g>
      <rect id="Rectangle_972" data-name="Rectangle 972" width="14.115" height="14.115" rx="7.058" fill="#51ba6c"/>
      <g id="Group_1159" data-name="Group 1159" transform="translate(0 44.247)">
        <rect id="Rectangle_973" data-name="Rectangle 973" width="14.115" height="14.115" rx="7.058" fill="#51ba6c"/>
        <g id="Group_1158" data-name="Group 1158" transform="translate(2.394 3.646)">
          <g id="Group_1157" data-name="Group 1157">
            <g id="Group_1156" data-name="Group 1156">
              <g id="Group_1155" data-name="Group 1155">
                <g id="Group_1154" data-name="Group 1154">
                  <path id="Path_818" data-name="Path 818" d="M889.884,976.166l-3.917-3.4a.77.77,0,0,1,1.011-1.163l2.77,2.407,3.937-4.406a.77.77,0,0,1,1.149,1.027Z" transform="translate(-885.702 -969.343)" fill="#fff"/>
                </g>
              </g>
            </g>
          </g>
        </g>
      </g>
      <g id="Group_1170" data-name="Group 1170" transform="translate(0 22.036)">
        <path id="Rectangle_974" data-name="Rectangle 974" d="M7.057,0h0a7.058,7.058,0,0,1,7.058,7.058v0a7.058,7.058,0,0,1-7.058,7.058h0A7.058,7.058,0,0,1,0,7.058v0A7.057,7.057,0,0,1,7.057,0Z" fill="#51ba6c"/>
        <g id="Group_1164" data-name="Group 1164" transform="translate(2.394 3.646)">
          <g id="Group_1163" data-name="Group 1163">
            <g id="Group_1162" data-name="Group 1162">
              <g id="Group_1161" data-name="Group 1161">
                <g id="Group_1160" data-name="Group 1160">
                  <path id="Path_819" data-name="Path 819" d="M889.884,840.985l-3.917-3.4a.77.77,0,0,1,1.011-1.163l2.77,2.407,3.937-4.406a.77.77,0,0,1,1.149,1.027Z" transform="translate(-885.702 -834.162)" fill="#fff"/>
                </g>
              </g>
            </g>
          </g>
        </g>
        <rect id="Rectangle_975" data-name="Rectangle 975" width="14.115" height="14.115" rx="7.058" transform="translate(0 44.42)" fill="#51ba6c"/>
        <g id="Group_1169" data-name="Group 1169" transform="translate(2.394 48.067)">
          <g id="Group_1168" data-name="Group 1168">
            <g id="Group_1167" data-name="Group 1167">
              <g id="Group_1166" data-name="Group 1166">
                <g id="Group_1165" data-name="Group 1165">
                  <path id="Path_820" data-name="Path 820" d="M889.884,1111.348l-3.917-3.4a.771.771,0,0,1,1.011-1.163l2.77,2.407,3.937-4.406a.77.77,0,0,1,1.149,1.027Z" transform="translate(-885.702 -1104.525)" fill="#fff"/>
                </g>
              </g>
            </g>
          </g>
        </g>
      </g>
      <g id="Group_1171" data-name="Group 1171" transform="translate(4.514 2.474)">
        <path id="Path_821" data-name="Path 821" d="M899.5,698.566a3.718,3.718,0,0,1,.036-.525,1.866,1.866,0,0,1,.137-.484,1.517,1.517,0,0,1,.293-.436,1.937,1.937,0,0,1,.5-.37l.412-.221a4.2,4.2,0,0,0,.5-.316,2.09,2.09,0,0,0,.424-.412.831.831,0,0,0,.179-.52.732.732,0,0,0-.286-.615,1.046,1.046,0,0,0-.657-.221.962.962,0,0,0-.424.09,1.6,1.6,0,0,0-.334.215,1.415,1.415,0,0,0-.257.281l-.191.274-1.23-.86a2.381,2.381,0,0,1,.985-1.135,2.9,2.9,0,0,1,1.523-.406,3.252,3.252,0,0,1,.908.131,2.318,2.318,0,0,1,.812.418,2.175,2.175,0,0,1,.585.74,2.437,2.437,0,0,1,.227,1.1,2.153,2.153,0,0,1-.281,1.14,2.519,2.519,0,0,1-.83.806,5.122,5.122,0,0,1-.507.3,4.816,4.816,0,0,0-.472.275,1.354,1.354,0,0,0-.346.323.706.706,0,0,0-.132.43Zm.036,2.926V699.7H901.1v1.791Z" transform="translate(-898.609 -692.906)" fill="#fff"/>
      </g>
    </g>
    <g id="Group_1176" data-name="Group 1176" transform="translate(68.236)">
      <path id="Path_822" data-name="Path 822" d="M1111.993,660.212a16.15,16.15,0,0,0-2.473,2.9c-1.17,1.755-4.275,1.848-4.408,4.243s4.222,2.469,6.509,1.69,2.632-3.12,4.015-3.7,2.1-1.059,1.994-2.2a13.91,13.91,0,0,0-.872-3,9.436,9.436,0,0,1-1.364.33A11.309,11.309,0,0,1,1111.993,660.212Z" transform="translate(-1088.208 -567.425)" fill="#252840"/>
      <path id="Path_823" data-name="Path 823" d="M1160.142,230.022s-.876,5.212-1.582,8.654h0a20.656,20.656,0,0,1-.706,2.849,40.046,40.046,0,0,1-3.86,4.277c-3.532,3.636-8.2,8.216-8.2,8.216l-1.824-3.463s4.146-4.86,6.956-8.1c1.3-1.5,2.315-2.655,2.5-2.821.588-.526,1.27-5.7,2.228-9.972a17.189,17.189,0,0,1,2.88-6.625Z" transform="translate(-1120.684 -202.134)" fill="#6f60aa"/>
      <path id="Path_824" data-name="Path 824" d="M1153.994,344.572c-3.532,3.636-8.2,8.216-8.2,8.216l-1.824-3.463s4.146-4.86,6.956-8.1A5.894,5.894,0,0,1,1153.994,344.572Z" transform="translate(-1120.684 -300.904)" fill="#eea886"/>
      <g id="Group_1173" data-name="Group 1173" transform="translate(50.572 91.241)">
        <path id="Path_825" data-name="Path 825" d="M1315.434,651.281s1.2,1.327,1.909,2.131,3.427,2.242,3.442,4.63c.016,2.59-2,2.363-3.8,2.268a4.967,4.967,0,0,1-4.015-2.8c-.757-1.466-2.771-1.852-2.912-3.034a8.226,8.226,0,0,1,.933-3.311Z" transform="translate(-1310.042 -651.162)" fill="#252840"/>
      </g>
      <path id="Path_826" data-name="Path 826" d="M1316.034,637.745l-.232,2.2s3.752,1.635,4.446.12l-.161-1.963Z" transform="translate(-1264.284 -548.709)" fill="#5f8cc9"/>
      <path id="Path_827" data-name="Path 827" d="M1147.213,650.861l-.2,1.6a7.866,7.866,0,0,0,4.765-.071l.051-1.419Z" transform="translate(-1123.223 -559.67)" fill="#5f8cc9"/>
      <path id="Path_828" data-name="Path 828" d="M1222,238.215c.131.464-24.015,0-24.015,0s6.679-4.862,7.112-6.16-1.7-9.091-1.979-11.627c-.223-2.029-.78-11.106.557-12.492,1.4-1.449,6.432-2.968,6.432-2.968l7.339.272a11.526,11.526,0,0,1,2.077.655c.866.4,5.817,2.166,6.621,4.639s-4.941,10.427-4.941,10.427-.011.357-.028.943h0c-.022.781-.055,1.968-.085,3.256-.038,1.668-.072,3.5-.072,4.845A47.9,47.9,0,0,0,1222,238.215Z" transform="translate(-1165.824 -187.036)" fill="#6f60aa"/>
      <path id="Path_829" data-name="Path 829" d="M1135.545,400.972s3.284,4.824,3.331,8.117-1.216,12.424-1.309,14.233-1.793,16.884-1.793,16.884-1.314,1.221-5.257-.309c0,0-.87-14.3-.963-15.826s-.093-8.58-.974-9.6-6.215-4.221-6.911-4.824-12.816,2.29-14.086,2.62c-3.289.853-1.79,6.575-1.062,9.14,1.217,4.292,2.281,19.79,2.281,19.79a11.169,11.169,0,0,1-6.266.154s-7.7-27.984-7.951-30.767-.369-7.372,18.616-10.86Z" transform="translate(-1079.37 -349.793)" fill="#323657"/>
      <path id="Path_830" data-name="Path 830" d="M1257.917,107.41s-6.37-1.437-4.915,6.58,2.987,8.647,6.831,6.988,3.5-6.8,3.693-9.314S1259.949,107.5,1257.917,107.41Z" transform="translate(-1211.621 -105.424)" fill="#eea886"/>
      <path id="Path_831" data-name="Path 831" d="M1273.758,166.115s2.821,2.991,7.28.273c0,0-1-6.482-.472-9.639s-5.818,4.892-5.818,4.892c.084.044.139.345.151.774a8.626,8.626,0,0,1-.067,1.285C1274.7,164.748,1274.376,165.857,1273.758,166.115Z" transform="translate(-1229.148 -146.126)" fill="#eea886"/>
      <path id="Path_832" data-name="Path 832" d="M1304.514,138.358a.813.813,0,0,1,1.595.094c.113,1.06-.635,2.922-1.166,2.739S1304.4,139.333,1304.514,138.358Z" transform="translate(-1254.801 -130.854)" fill="#eea886"/>
      <path id="Path_833" data-name="Path 833" d="M1261.33,106.183s-.164-2.526-1.087-2.6-1.064.938-1.064.938l-.932.176s.294-2.214-.627-2.6-5.969,1.219-6.708.569-.392-5.141.946-5.755,5.031-1.992,7.737-.16c0,0,2.109-.241,2.422,1.462A23.354,23.354,0,0,1,1261.33,106.183Z" transform="translate(-1209.736 -95.829)" fill="#3a3f47"/>
      <path id="Path_834" data-name="Path 834" d="M1280.3,181.263c4.6-1.419,4.947-4.188,4.952-4.232-1.515,2.6-4.885,2.947-4.885,2.947A8.643,8.643,0,0,1,1280.3,181.263Z" transform="translate(-1234.616 -163.69)" fill="#a77860"/>
      <path id="Path_835" data-name="Path 835" d="M1271.121,203.732s-3.369,6.706-8.811,6.273-.927-7.173-.68-7.236C1261.9,202.7,1267.211,201.378,1271.121,203.732Z" transform="translate(-1217.348 -184.838)" fill="#eea886"/>
      <path id="Path_836" data-name="Path 836" d="M1181.175,394.722s16.675,2.056,26.777.34l-19.3-2.412S1188.535,393.142,1181.175,394.722Z" transform="translate(-1151.776 -343.883)" fill="#6f60aa"/>
      <path id="Path_837" data-name="Path 837" d="M1250.763,388.027l-1.242.629a5.689,5.689,0,0,0,.963,2.571l1.394-.356S1251.588,388.707,1250.763,388.027Z" transform="translate(-1208.893 -340.019)" fill="#eea886"/>
      <path id="Path_838" data-name="Path 838" d="M1276.376,256.089a63.066,63.066,0,0,1-7.23,3.032h0c-5.059,1.949-10.766,3.793-10.766,3.793l-1.3-2.785s5.976-3.247,10.015-5.525c1.908-1.076,3.382-1.935,3.591-2.133.649-.619.818-1.61.34-3.34s-1.577-9.679-1.7-10.606.309-3.4,2.628-3.525a6.96,6.96,0,0,1,3.5.531s.582.242,1.015,5.87S1276.964,255.409,1276.376,256.089Z" transform="translate(-1215.211 -212.121)" fill="#6f60aa"/>
      <path id="Path_839" data-name="Path 839" d="M1331.932,273.5h0c-.022.781-.055,1.968-.085,3.256a16.264,16.264,0,0,1-.933-10.05C1330.668,268.209,1331.914,273.424,1331.932,273.5Z" transform="translate(-1276.582 -238.629)" fill="#493f70"/>
      <path id="Path_840" data-name="Path 840" d="M1227.324,289.336h0a20.651,20.651,0,0,1-.706,2.849,29.45,29.45,0,0,1-.078-8.532A48.154,48.154,0,0,0,1227.324,289.336Z" transform="translate(-1189.448 -252.794)" fill="#493f70"/>
      <path id="Path_841" data-name="Path 841" d="M1269.147,358.918h0c-5.059,1.949-10.95,3.852-10.95,3.852l-1.115-2.845s5.976-3.247,10.015-5.525C1267.1,354.4,1268.565,355.117,1269.147,358.918Z" transform="translate(-1215.211 -311.918)" fill="#eea886"/>
      <path id="Path_842" data-name="Path 842" d="M1134.341,404.573l-23.7-.349,11.966,6.076Z" transform="translate(-1092.831 -353.555)" fill="#5e5853"/>
      <path id="Path_843" data-name="Path 843" d="M1178.755,412.073l11.734-4.545v-1.182l-12.662,4.568Z" transform="translate(-1148.978 -355.328)" fill="#91887f"/>
      <g id="Group_1174" data-name="Group 1174" transform="translate(32.636 48.152)">
        <path id="Path_844" data-name="Path 844" d="M1209.139,389.431s-1.48-.23-2.5-.469a5.125,5.125,0,0,0-3.262.578c-.5.508-2.1,4.049-2.4,4.265s.154.716.684.465c0,0,.486,1.549,1.687.969s2.015-1.846,2.644-2.069,4.289-1.348,4.289-1.348S1210.082,389.054,1209.139,389.431Z" transform="translate(-1200.879 -388.903)" fill="#eea886"/>
      </g>
      <g id="Group_1175" data-name="Group 1175" transform="translate(32.743 48.557)">
        <path id="Path_845" data-name="Path 845" d="M1204.278,391.371a10.37,10.37,0,0,0-1.2.664c-.248.2-1.255.958-1.5,1.135s.368.681,2.167-.1S1204.278,391.371,1204.278,391.371Z" transform="translate(-1201.529 -391.371)" fill="#eea886"/>
      </g>
      <path id="Path_846" data-name="Path 846" d="M1032.017,343.3l-7.05-19.248-22.727.371,6.719,17.737Z" transform="translate(-1002.24 -286.556)" fill="#c7c7c7"/>
      <path id="Path_847" data-name="Path 847" d="M1076.691,366.76c.693,1.386.484,2.9-.468,3.372s-2.286-.262-2.979-1.648-.484-2.9.468-3.372S1076,365.374,1076.691,366.76Z" transform="translate(-1061.236 -320.748)" fill="#7d7d7d"/>
    </g>
    <g id="Group_1183" data-name="Group 1183" transform="translate(175.409 129.315)">
      <g id="Group_1177" data-name="Group 1177">
        <path id="Rectangle_976" data-name="Rectangle 976" d="M1.56,0H8.794a1.56,1.56,0,0,1,1.56,1.56v0a1.56,1.56,0,0,1-1.56,1.56H1.56A1.56,1.56,0,0,1,0,1.56v0A1.56,1.56,0,0,1,1.56,0Z" fill="#e0e0e0"/>
      </g>
      <g id="Group_1178" data-name="Group 1178" transform="translate(0 7.482)">
        <path id="Rectangle_977" data-name="Rectangle 977" d="M1.56,0H8.794a1.56,1.56,0,0,1,1.56,1.56v0a1.56,1.56,0,0,1-1.56,1.56H1.56A1.56,1.56,0,0,1,0,1.56v0A1.56,1.56,0,0,1,1.56,0Z" fill="#e0e0e0"/>
      </g>
      <g id="Group_1179" data-name="Group 1179" transform="translate(0 14.964)">
        <path id="Rectangle_978" data-name="Rectangle 978" d="M1.56,0H8.794a1.56,1.56,0,0,1,1.56,1.56v0a1.56,1.56,0,0,1-1.56,1.56H1.56A1.56,1.56,0,0,1,0,1.56v0A1.56,1.56,0,0,1,1.56,0Z" fill="#e0e0e0"/>
      </g>
      <g id="Group_1180" data-name="Group 1180" transform="translate(0 22.446)">
        <path id="Rectangle_979" data-name="Rectangle 979" d="M1.56,0H8.794a1.56,1.56,0,0,1,1.56,1.56v0a1.56,1.56,0,0,1-1.56,1.56H1.56A1.56,1.56,0,0,1,0,1.56v0A1.56,1.56,0,0,1,1.56,0Z" fill="#e0e0e0"/>
      </g>
      <g id="Group_1181" data-name="Group 1181" transform="translate(0 29.928)">
        <path id="Rectangle_980" data-name="Rectangle 980" d="M1.56,0H8.794a1.56,1.56,0,0,1,1.56,1.56v0a1.56,1.56,0,0,1-1.56,1.56H1.56A1.56,1.56,0,0,1,0,1.56v0A1.56,1.56,0,0,1,1.56,0Z" fill="#e0e0e0"/>
      </g>
      <g id="Group_1182" data-name="Group 1182" transform="translate(0 37.41)">
        <path id="Rectangle_981" data-name="Rectangle 981" d="M1.56,0H8.794a1.56,1.56,0,0,1,1.56,1.56v0a1.56,1.56,0,0,1-1.56,1.56H1.56A1.56,1.56,0,0,1,0,1.56v0A1.56,1.56,0,0,1,1.56,0Z" fill="#e0e0e0"/>
      </g>
    </g>
    <g id="Group_1190" data-name="Group 1190" transform="translate(190.037 129.315)">
      <g id="Group_1184" data-name="Group 1184">
        <rect id="Rectangle_982" data-name="Rectangle 982" width="2.946" height="3.12" rx="1.473" fill="#e0e0e0"/>
      </g>
      <g id="Group_1185" data-name="Group 1185" transform="translate(0 7.482)">
        <rect id="Rectangle_983" data-name="Rectangle 983" width="2.946" height="3.12" rx="1.473" fill="#e0e0e0"/>
      </g>
      <g id="Group_1186" data-name="Group 1186" transform="translate(0 14.964)">
        <rect id="Rectangle_984" data-name="Rectangle 984" width="2.946" height="3.12" rx="1.473" fill="#e0e0e0"/>
      </g>
      <g id="Group_1187" data-name="Group 1187" transform="translate(0 22.446)">
        <path id="Rectangle_985" data-name="Rectangle 985" d="M1.473,0h0A1.473,1.473,0,0,1,2.946,1.473v.174A1.473,1.473,0,0,1,1.473,3.12h0A1.473,1.473,0,0,1,0,1.648V1.473A1.473,1.473,0,0,1,1.473,0Z" fill="#e0e0e0"/>
      </g>
      <g id="Group_1188" data-name="Group 1188" transform="translate(0 29.928)">
        <rect id="Rectangle_986" data-name="Rectangle 986" width="2.946" height="3.12" rx="1.473" fill="#e0e0e0"/>
      </g>
      <g id="Group_1189" data-name="Group 1189" transform="translate(0 37.41)">
        <rect id="Rectangle_987" data-name="Rectangle 987" width="2.946" height="3.12" rx="1.473" fill="#e0e0e0"/>
      </g>
    </g>
    <g id="Group_1191" data-name="Group 1191" transform="translate(74.12 134.156)">
      <circle id="Ellipse_107" data-name="Ellipse 107" cx="27.735" cy="27.735" r="27.735" transform="translate(0 39.223) rotate(-45)" fill="#b8b8b8" opacity="0.1"/>
      <rect id="Rectangle_988" data-name="Rectangle 988" width="59.828" height="9.15" transform="translate(74.716 42.353) rotate(9.72)" fill="#51ba6c"/>
      <rect id="Rectangle_989" data-name="Rectangle 989" width="2.875" height="6.945" transform="translate(71.692 42.957) rotate(9.661)" fill="#2d3038"/>
      <path id="Path_848" data-name="Path 848" d="M1135.19,983.219c0,.142-.015.285-.024.427h5.478c.01-.143.015-.285.02-.427Zm-61.1-1.513c0,.167,0,.329,0,.5.01.693.039,1.38.1,2.063a32.49,32.49,0,0,0,.929,5.689,33.138,33.138,0,0,0,8.75,15.318c.162.167.324.324.486.481.653.629,1.336,1.233,2.044,1.8a33.136,33.136,0,0,0,20.992,7.453c.133,0,.266,0,.4,0a33.117,33.117,0,0,0,16.551-4.628,33.413,33.413,0,0,0,14.62-18.045c.26-.781.5-1.572.7-2.378a33.5,33.5,0,0,0,.811-4.407v0c.034-.319.069-.639.093-.963s.054-.619.069-.933c.01-.143.015-.285.02-.427.015-.315.025-.624.03-.939,0-.192,0-.383,0-.575a33.3,33.3,0,0,0-28.239-32.916c-.309-.049-.619-.093-.933-.133-.344-.039-.688-.079-1.032-.108-.309-.029-.624-.054-.933-.074-.717-.049-1.439-.069-2.162-.069-.614,0-1.223.015-1.828.049-1.037.054-2.058.162-3.07.31a33.387,33.387,0,0,0-25.7,19.784c-.049.108-.093.221-.137.329s-.089.211-.128.315c-.255.614-.486,1.238-.7,1.867a32.628,32.628,0,0,0-1.268,5.055c-.083.457-.147.919-.211,1.385-.005.079-.015.157-.025.241,0,0,0,.01,0,.02a.919.919,0,0,0-.01.118,1.162,1.162,0,0,0-.02.138v.034a.287.287,0,0,0-.01.069.738.738,0,0,0-.01.1c-.01.084-.02.167-.025.251-.049.511-.088,1.027-.113,1.543-.005.069-.01.142-.01.211,0,.113-.01.226-.015.339C1074.1,980.944,1074.095,981.323,1074.095,981.706Zm7.463,10.361-.128-.324c-.093-.241-.182-.482-.27-.727l-.2-.589c-.049-.147-.1-.295-.143-.442,0-.01,0-.02-.01-.03a.527.527,0,0,1-.025-.083c-.078-.246-.147-.5-.216-.747l-.079-.29c-.074-.265-.138-.535-.2-.806-.005-.025-.015-.054-.02-.084-.054-.251-.108-.5-.157-.752-.024-.1-.044-.206-.064-.309-.059-.314-.113-.634-.162-.953-.088-.56-.152-1.125-.206-1.695-.02-.191-.034-.388-.049-.585,0,0,0,0,0,0,0-.064-.005-.123-.01-.187-.015-.265-.03-.531-.039-.8v-.079c0-.059,0-.123,0-.187,0-.231-.01-.462-.01-.693s0-.432.01-.644a24.243,24.243,0,0,1,.177-2.555,2.421,2.421,0,0,1,.029-.265.018.018,0,0,1,.005-.015c-.005,0,0,0,0,0a.009.009,0,0,1,0-.015.185.185,0,0,1,0-.054v-.01c0-.01,0-.015,0-.02a27.636,27.636,0,0,1,4.132-11.383,27.942,27.942,0,0,1,10.1-9.447,27.05,27.05,0,0,1,3.38-1.572c.368-.142.747-.28,1.125-.4a27.229,27.229,0,0,1,6.637-1.351c.737-.064,1.479-.093,2.23-.093.226,0,.447,0,.673.01.26,0,.516.015.776.024.187.01.373.025.56.039a1.476,1.476,0,0,1,.152.01c.309.02.624.049.933.083l.236.029c.123.015.251.03.374.049.142.015.28.034.423.059.314.044.624.1.933.152l.084.015q.361.066.722.147c.015,0,.03,0,.044.01.1.02.2.044.3.069.226.049.447.1.668.162a2.863,2.863,0,0,1,.29.074c.255.069.511.138.766.216s.486.147.727.226c.113.034.226.074.334.113.481.162.958.339,1.425.531.128.049.256.1.383.157.2.083.388.167.585.255.157.069.314.138.467.216.231.1.457.216.683.329q.383.192.752.4c.285.152.56.31.835.472.57.334,1.12.688,1.661,1.061.231.157.457.319.683.491.285.2.56.413.83.629.241.192.482.388.717.59s.482.413.717.629a27.76,27.76,0,0,1,9.1,20.585c0,.192,0,.383-.005.575,0,.315-.015.624-.034.939,0,.142-.015.285-.024.427-.025.314-.049.624-.083.933q-.133,1.326-.393,2.614a26.981,26.981,0,0,1-.7,2.761c-.221.717-.472,1.425-.752,2.113a27.825,27.825,0,0,1-25.438,17.47c-.133,0-.265,0-.4,0a27.831,27.831,0,0,1-24.588-14.778c-.123-.236-.246-.472-.364-.707l-.216-.452c-.088-.177-.167-.354-.25-.535l-.079-.177c-.069-.157-.137-.314-.2-.477Z" transform="translate(-1068.173 -942.485)" fill="#3f444f"/>
      <path id="Path_849" data-name="Path 849" d="M1153.947,988.926s-36.121-4.477-43.318,33.645h0a27.837,27.837,0,0,1,43.319-33.645Z" transform="translate(-1095.991 -970.292)" fill="#869ac2" opacity="0.3"/>
    </g>
  </g>
</svg>
