<svg xmlns="http://www.w3.org/2000/svg" width="18.806" height="18" viewBox="0 0 18.806 18">
  <g id="star" transform="translate(-20.5 0.013)" fill="none" stroke-linecap="round">
    <path d="M28.894.613,26.6,5.268l-5.136.749a1.125,1.125,0,0,0-.622,1.919l3.716,3.621-.879,5.115a1.124,1.124,0,0,0,1.631,1.185L29.9,15.441,34.5,17.855a1.125,1.125,0,0,0,1.631-1.185l-.879-5.115,3.716-3.621a1.125,1.125,0,0,0-.622-1.919l-5.136-.749L30.912.613A1.126,1.126,0,0,0,28.894.613Z" stroke="none"/>
    <path d="M 29.90266990661621 3.089447975158691 L 28.3920841217041 6.152244567871094 L 27.92711448669434 7.095014572143555 L 26.88691329956055 7.246665000915527 L 23.50518417358398 7.739686012268066 L 25.95186233520508 10.12387466430664 L 26.7053337097168 10.85809516906738 L 26.52718353271484 11.89494514465332 L 25.94913482666016 15.25919532775879 L 28.97211456298828 13.67021465301514 L 29.90266418457031 13.18108463287354 L 30.83321380615234 13.67021465301514 L 33.856201171875 15.25919532775879 L 33.27815246582031 11.89493465423584 L 33.10000610351562 10.8580846786499 L 33.85347366333008 10.12386512756348 L 36.30015563964844 7.739686012268066 L 32.91842651367188 7.246665000915527 L 31.87822341918945 7.095014572143555 L 31.41325378417969 6.152244567871094 L 29.90266990661621 3.089447975158691 M 29.90019607543945 -0.01267623901367188 C 30.30259132385254 -0.01263236999511719 30.70526695251465 0.1974143981933594 30.91153335571289 0.6134738922119141 L 33.20695495605469 5.267584800720215 L 38.34264373779297 6.016314506530762 C 39.26363372802734 6.149894714355469 39.63272094726562 7.285305023193359 38.96483612060547 7.935614585876465 L 35.24927520751953 11.55625534057617 L 36.1280632019043 16.67086410522461 C 36.25319290161133 17.4020938873291 35.67024993896484 17.9859447479248 35.01748657226562 17.9859447479248 C 34.84496307373047 17.9859447479248 34.66749572753906 17.94513320922852 34.49701309204102 17.85548400878906 L 29.90266418457031 15.44054508209229 L 25.30832290649414 17.85548400878906 C 25.13734436035156 17.94613075256348 24.9594841003418 17.98732376098633 24.7864875793457 17.98732376098633 C 24.13433456420898 17.98732376098633 23.55224990844727 17.40152931213379 23.67727279663086 16.67086410522461 L 24.55606460571289 11.55626487731934 L 20.84051513671875 7.935614585876465 C 20.17262268066406 7.285305023193359 20.54171371459961 6.149894714355469 21.46270370483398 6.016314506530762 L 26.59838485717773 5.267584800720215 L 28.89381408691406 0.6134738922119141 C 29.1005802154541 0.1946926116943359 29.50024795532227 -0.01272010803222656 29.90019607543945 -0.01267623901367188 Z" stroke="none" fill="#51ba6c"/>
  </g>
</svg>
