<svg xmlns="http://www.w3.org/2000/svg" width="18.98" height="19.264" viewBox="0 0 18.98 19.264">
  <g id="hour" transform="translate(0.175 0.15)">
    <g id="Layer_2_19_" transform="translate(0 0)">
      <g id="Group_783" data-name="Group 783">
        <path id="Path_551" data-name="Path 551" d="M21.858,6.327a.749.749,0,0,0-1.4.53A7.814,7.814,0,0,1,10.069,16.8a7.881,7.881,0,0,1-1.552-.884A7.814,7.814,0,0,1,15.979,2.341l-.531.9c-.146.246-.034.411.249.365L18.218,3.2a.419.419,0,0,0,.34-.573L17.7.216c-.1-.27-.293-.289-.439-.043l-.512.864A9.311,9.311,0,0,0,4.5,13.079,9.25,9.25,0,0,0,7.63,17.127a9.38,9.38,0,0,0,1.849,1.054A9.312,9.312,0,0,0,21.858,6.327Z" transform="translate(-3.832 0)" fill="#ffaf41" stroke="#ffaf41" stroke-width="0.3"/>
        <path id="Path_552" data-name="Path 552" d="M218.6,90.917a.587.587,0,0,1,.587.587V97.35l-5.347,2.764a.587.587,0,1,1-.539-1.043l4.712-2.436V91.5A.587.587,0,0,1,218.6,90.917Z" transform="translate(-208.461 -87.154)" fill="#ffaf41" stroke="#ffaf41" stroke-width="0.3"/>
      </g>
    </g>
  </g>
</svg>
