<?xml version="1.0" encoding="UTF-8"?>
<svg width="50px" height="30px" viewBox="0 0 50 30" version="1.1" xmlns="http://www.w3.org/2000/svg" xmlns:xlink="http://www.w3.org/1999/xlink">
    <!-- Generator: Sketch 62 (91390) - https://sketch.com -->
    <title>Artboard</title>
    <desc>Created with Sketch.</desc>
    <defs>
        <linearGradient x1="0%" y1="50%" x2="100%" y2="50%" id="linearGradient-1">
            <stop stop-color="#14294B" offset="0%"></stop>
            <stop stop-color="#142B52" offset="100%"></stop>
        </linearGradient>
    </defs>
    <g id="Artboard" stroke="none" stroke-width="1" fill="none" fill-rule="evenodd">
        <g id="paint_gig" transform="translate(10.000000, 0.000000)" fill-rule="nonzero">
            <path d="M13.8,16.2780244 C13.5060877,16.2769033 13.2680967,16.0389123 13.267,15.745 L13.267,14.485 C13.2681034,13.1971389 14.3121385,12.1535513 15.6,12.153 L26.859,12.153 C27.5544221,12.1518988 28.1178988,11.5884221 28.119,10.893 L28.119,6.633 C28.1178988,5.93757787 27.5544221,5.37410122 26.859,5.373 L0.533,5.373 C0.238632228,5.373 -1.77635684e-15,5.13436777 -1.77635684e-15,4.84 C-1.77635684e-15,4.54563223 0.238632228,4.307 0.533,4.307 L26.859,4.307 C28.146471,4.30810276 29.1898972,5.35152902 29.191,6.639 L29.191,10.899 C29.1898972,12.186471 28.146471,13.2298972 26.859,13.231 L15.6,13.231 C14.9045779,13.2321012 14.3411012,13.7955779 14.34,14.491 L14.34,15.751 C14.3356119,16.0453012 14.0943207,16.2807835 13.8,16.2780244 Z" id="Path_773" fill="#536B7C"></path>
            <path d="M24.317,0 L3.287,0 C2.93824004,0.000794742519 2.60408018,0.140101759 2.35803226,0.387274903 C2.11198433,0.634448047 1.97420344,0.96924004 1.97499657,1.318 L1.97499657,8.338 C1.97610137,9.06545461 2.56554539,9.65489863 3.293,9.656 L24.317,9.656 C25.0444546,9.65489863 25.6338986,9.06545461 25.635,8.338 L25.635,1.318 C25.6317149,0.591453788 25.0435462,0.00328511229 24.317,0 L24.317,0 Z" id="Path_774" fill="#CFDCE5"></path>
            <path d="M24.317,7.418 L3.287,7.418 C2.55954539,7.41689863 1.97010137,6.82745461 1.969,6.1 L1.969,8.338 C1.97010137,9.06545461 2.55954539,9.65489863 3.287,9.656 L24.311,9.656 C25.0384546,9.65489863 25.6278986,9.06545461 25.6290034,8.338 L25.6290034,6.1 C25.6297966,6.44875996 25.4920157,6.78355195 25.2459677,7.0307251 C24.9999198,7.27789824 24.66576,7.41720526 24.317,7.418 L24.317,7.418 Z" id="Path_775" fill="#BAC6CC"></path>
            <path d="M25.6290004,1.318 L25.6290004,3.188 C21.686,3.188 21.686,6.083 17.742,6.083 C13.798,6.083 13.799,3.188 9.856,3.188 C5.913,3.188 5.912,6.082 1.969,6.082 L1.969,1.318 C1.97228511,0.591453788 2.56045379,0.00328511229 3.287,-3.80489476e-07 L24.311,-3.80489476e-07 C24.6606367,-0.000265580581 24.9960295,0.138509448 25.24326,0.385739989 C25.4904906,0.63297053 25.6292656,0.968363317 25.6290004,1.318 Z" id="Path_776" fill="url(#linearGradient-1)"></path>
            <path d="M16.096,29.068 C16.1019202,29.3127894 16.0089407,29.5496355 15.8380708,29.7250218 C15.6672009,29.900408 15.4328605,29.9995334 15.188,30 L12.412,30 C12.1671395,29.9995334 11.9327991,29.900408 11.7619292,29.7250218 C11.5910593,29.5496355 11.4980798,29.3127894 11.504,29.068 L11.785,15.738 L15.816,15.738 L16.096,29.068 Z" id="Path_777" fill="#51BA6C"></path>
            <path d="M12.791,29.068 L13.072,15.738 L11.789,15.738 L11.508,29.068 C11.5020798,29.3127894 11.5950593,29.5496355 11.7659292,29.7250218 C11.9367991,29.900408 12.1711395,29.9995334 12.416,30 L13.699,30 C13.4541395,29.9995334 13.2197991,29.900408 13.0489292,29.7250218 C12.8780593,29.5496355 12.7850798,29.3127894 12.791,29.068 L12.791,29.068 Z" id="Path_778" fill="#30975D"></path>
            <path d="M15.814,16.277 L11.783,16.277 C11.4886323,16.277 11.2500001,16.0383677 11.2500001,15.744 C11.2500001,15.4496323 11.4886323,15.211 11.783,15.211 L15.814,15.211 C16.1083677,15.211 16.3469999,15.4496323 16.3469999,15.744 C16.3469999,16.0383677 16.1083677,16.277 15.814,16.277 L15.814,16.277 Z" id="Path_779" fill="#00DF75"></path>
        </g>
    </g>
</svg>