<?xml version="1.0" encoding="UTF-8"?>
<svg width="50px" height="30px" viewBox="0 0 50 30" version="1.1" xmlns="http://www.w3.org/2000/svg" xmlns:xlink="http://www.w3.org/1999/xlink">
    <!-- Generator: Sketch 62 (91390) - https://sketch.com -->
    <title>Artboard</title>
    <desc>Created with Sketch.</desc>
    <g id="Artboard" stroke="none" stroke-width="1" fill="none" fill-rule="evenodd">
        <g id="pet_gig" transform="translate(15.000000, 0.000000)" fill-rule="nonzero">
            <path d="M18.475,10.137 C17.3394992,7.74364326 15.3829613,5.83713652 12.961,4.764 C12.8604332,4.72422204 12.7531449,4.70419037 12.645,4.7049764 L7.939,4.7049764 C7.8308551,4.70419037 7.72356684,4.72422204 7.623,4.764 C5.19870231,5.83367991 3.24110585,7.74121814 2.109,10.137 C0.684825764,12.964963 -0.0385038919,16.0939039 -1.42108547e-14,19.26 C-0.064263804,22.9034071 0.913413123,26.489379 2.818,29.596 C2.97981041,29.8463324 3.25792657,29.9970729 3.556,29.9960057 L17.033,29.9960057 C17.3304241,29.994516 17.6074017,29.8443926 17.771,29.596 C19.6748662,26.4890675 20.6524847,22.9033098 20.589,19.26 C20.6200849,16.0941322 19.8953524,12.9665378 18.475,10.137 Z" id="Path_791" fill="#51BA6C"></path>
            <path d="M12.639,-5.70950586e-07 L7.934,-5.70950586e-07 C7.70079333,-0.000265762841 7.4770618,0.092257554 7.31215968,0.257159676 C7.14725755,0.422061798 7.05473424,0.645793334 7.05499943,0.879 L7.05499943,5.584 C7.05473424,5.81720667 7.14725755,6.0409382 7.31215968,6.20584032 C7.4770618,6.37074245 7.70079333,6.46326576 7.934,6.46300057 L12.639,6.46300057 C12.8722067,6.46326576 13.0959382,6.37074245 13.2608403,6.20584032 C13.4257424,6.0409382 13.5182658,5.81720667 13.5180006,5.584 L13.5180006,0.879 C13.5182658,0.645793334 13.4257424,0.422061798 13.2608403,0.257159676 C13.0959382,0.092257554 12.8722067,-0.000265762841 12.639,-5.70950586e-07 Z" id="Path_792" fill="#005285"></path>
            <path d="M18.475,10.137 C17.3394992,7.74364326 15.3829613,5.83713652 12.961,4.764 C12.8604332,4.72422204 12.7531449,4.70419037 12.645,4.7049764 L10.289,4.7049764 L10.289,30 L17.027,30 C17.3244241,29.998516 17.6014017,29.8483926 17.765,29.6 C19.6688662,26.4930675 20.6464847,22.9073098 20.583,19.264 C20.6193331,16.0969744 19.8964986,12.9673203 18.475,10.137 L18.475,10.137 Z" id="Path_793" fill="#30975D"></path>
            <path d="M13.5170006,5.584 L13.5170006,0.879 C13.5172658,0.645793334 13.4247424,0.422061798 13.2598403,0.257159676 C13.0949382,0.092257554 12.8712067,-0.000265762841 12.638,-5.70950586e-07 L10.283,-5.70950586e-07 L10.283,6.46300057 L12.638,6.46300057 C12.8712067,6.46326576 13.0949382,6.37074245 13.2598403,6.20584032 C13.4247424,6.0409382 13.5172658,5.81720667 13.5170006,5.584 Z" id="Path_794" fill="#152C53"></path>
            <g id="Group_1091" transform="translate(5.461000, 12.709000)" fill="#D7E9FD">
                <path d="M4.828,3.926 C2.16271162,3.92875596 0.00275596166,6.08871162 -3.31738315e-06,8.754 C-0.00106165981,9.39510941 0.252737178,10.0103533 0.705507579,10.4642491 C1.15827798,10.9181448 1.77288993,11.1734702 2.414,11.174 C2.91082829,11.1647798 3.40313927,11.0777228 3.873,10.916 C4.18035603,10.8076032 4.50231969,10.7462447 4.828,10.734 C5.15380134,10.7451697 5.47592678,10.8065591 5.783,10.916 C6.25344473,11.0754553 6.74540072,11.1624496 7.242,11.174 C8.57475832,11.1728972 9.65489718,10.0927583 9.656,8.76 C9.65380107,6.09350832 7.49448689,3.93151065 4.828,3.926 Z" id="Path_795"></path>
                <path d="M0.902,3.117 C0.416541705,3.117 0.023,2.7234583 0.023,2.238 C0.023,1.7525417 0.416541705,1.359 0.902,1.359 C1.13503623,1.35918012 1.35844141,1.4519958 1.523,1.617 C1.68800065,1.78153941 1.78073592,2.00497976 1.78073592,2.238 C1.78073592,2.47102024 1.68800065,2.69446059 1.523,2.859 C1.35844141,3.0240042 1.13503623,3.11681988 0.902,3.117 Z" id="Path_796"></path>
                <path d="M3.469,1.758001 C3.1133424,1.75853619 2.79249339,1.54445913 2.65644887,1.21584917 C2.52040434,0.887239211 2.59604142,0.509016913 2.848,0.258 C3.01253941,0.0929993507 3.23597976,0.000264079372 3.469,0.000264079372 C3.70202024,0.000264079372 3.92546059,0.0929993507 4.09,0.258 C4.34093159,0.509372792 4.41592167,0.887060317 4.28005885,1.21523137 C4.14419604,1.54340242 3.8241827,1.75755852 3.469,1.758001 L3.469,1.758001 Z" id="Path_797"></path>
            </g>
            <path d="M11.649,14.467 C11.1635417,14.467 10.77,14.0734583 10.77,13.588 C10.77,13.1025417 11.1635417,12.709 11.649,12.709 C11.8820362,12.7091801 12.1054414,12.8019958 12.27,12.967 C12.5209316,13.2183728 12.5959217,13.5960603 12.4600589,13.9242314 C12.324196,14.2524024 12.0041827,14.4665585 11.649,14.467 L11.649,14.467 Z" id="Path_798" fill="#9EBBD2"></path>
            <path d="M14.209,15.8260007 C13.8109288,15.8264948 13.4622152,15.5594098 13.3589807,15.1749576 C13.2557462,14.7905053 13.4237637,14.3846658 13.7685378,14.1856891 C14.1133119,13.9867124 14.5487683,14.0442738 14.83,14.326 C14.9950042,14.4905586 15.0878199,14.7139638 15.088,14.947 C15.0867342,15.1798179 14.9940834,15.4028261 14.83,15.568 C14.6654414,15.7330042 14.4420362,15.8258199 14.209,15.8260007 Z" id="Path_799" fill="#9EBBD2"></path>
            <path d="M10.289,16.635 L10.289,23.444 C10.6148013,23.4551697 10.9369268,23.5165591 11.244,23.626 C11.7144447,23.7854553 12.2064007,23.8724496 12.703,23.884 C14.0357583,23.8828972 15.1158972,22.8027583 15.117,21.47 C15.115352,18.8031179 12.9558769,16.6405119 10.289,16.635 L10.289,16.635 Z" id="Path_800" fill="#9EBBD2"></path>
        </g>
    </g>
</svg>