<svg xmlns="http://www.w3.org/2000/svg" width="277.29" height="261.271" viewBox="0 0 277.29 261.271">
  <g id="Group_1945" data-name="Group 1945" transform="translate(-18.339 -143.729)">
    <g id="friends" transform="translate(18.339 143.729)">
      <path id="Path_1834" data-name="Path 1834" d="M121.067,265.871v40.854a8.159,8.159,0,0,1-8.156,8.156H8.156A8.159,8.159,0,0,1,0,306.725V265.877a46.509,46.509,0,0,1,46.5-46.509H74.564A46.5,46.5,0,0,1,121.067,265.871Z" transform="translate(0 -108.106)" fill="#21ba45"/>
      <path id="Path_1835" data-name="Path 1835" d="M171.866,265.871v40.854a8.159,8.159,0,0,1-8.156,8.156H111.33V219.368h14.033A46.5,46.5,0,0,1,171.866,265.871Z" transform="translate(-50.799 -108.106)" fill="#30975d"/>
      <path id="Path_1836" data-name="Path 1836" d="M69.161,312.764v41.012H52.85V312.764a8.156,8.156,0,0,1,16.311,0Z" transform="translate(-24.115 -147)" fill="#30975d"/>
      <path id="Path_1837" data-name="Path 1837" d="M159.971,312.764v41.012H143.66V312.764a8.156,8.156,0,0,1,16.311,0Z" transform="translate(-65.551 -147)" fill="#21ba45"/>
      <path id="Path_1838" data-name="Path 1838" d="M116.309,149.755A30.942,30.942,0,0,1,85.372,180.7h-.005a30.94,30.94,0,0,1,0-61.879h.005A30.937,30.937,0,0,1,116.309,149.755Z" transform="translate(-24.836 -62.226)" fill="#ffdfcf"/>
      <path id="Path_1839" data-name="Path 1839" d="M142.272,149.755A30.942,30.942,0,0,1,111.335,180.7h-.005V118.818h.005A30.937,30.937,0,0,1,142.272,149.755Z" transform="translate(-50.799 -62.226)" fill="#ffcebf"/>
      <path id="Path_1840" data-name="Path 1840" d="M408.4,265.877v40.849a8.158,8.158,0,0,1-8.155,8.156H295.486a8.159,8.159,0,0,1-8.156-8.156V265.877a46.51,46.51,0,0,1,46.509-46.509h28.055A46.509,46.509,0,0,1,408.4,265.877Z" transform="translate(-131.107 -108.106)" fill="#dd6d6d"/>
      <path id="Path_1841" data-name="Path 1841" d="M459.2,265.877v40.849a8.159,8.159,0,0,1-8.156,8.156H398.66V219.368h14.033A46.51,46.51,0,0,1,459.2,265.877Z" transform="translate(-181.906 -108.106)" fill="#ba5151"/>
      <path id="Path_1842" data-name="Path 1842" d="M447.671,312.764v41.012H431.36V312.764a8.156,8.156,0,0,1,16.311,0Z" transform="translate(-196.827 -147)" fill="#dd6d6d"/>
      <path id="Path_1843" data-name="Path 1843" d="M352.281,312.764v41.012H335.97V312.764a8.155,8.155,0,1,1,16.311,0Z" transform="translate(-153.301 -147)" fill="#ba5151"/>
      <path id="Path_1844" data-name="Path 1844" d="M403.639,149.755A30.94,30.94,0,1,1,372.7,118.818,30.943,30.943,0,0,1,403.639,149.755Z" transform="translate(-155.943 -62.226)" fill="#ffdfcf"/>
      <path id="Path_1845" data-name="Path 1845" d="M429.6,149.755A30.943,30.943,0,0,1,398.66,180.7V118.818A30.938,30.938,0,0,1,429.6,149.755Z" transform="translate(-181.906 -62.226)" fill="#ffcebf"/>
      <g id="Group_1923" data-name="Group 1923" transform="translate(80.128)">
        <path id="Path_1846" data-name="Path 1846" d="M162.956,30.969a8.155,8.155,0,0,0-14.849,6.75l11.53,25.367a8.155,8.155,0,1,0,14.848-6.75Z" transform="translate(-147.374 -19.958)" fill="#78849e"/>
        <path id="Path_1847" data-name="Path 1847" d="M334.474,26.919a8.155,8.155,0,0,0-10.8,4.049l-11.53,25.367a8.156,8.156,0,0,0,14.849,6.75l11.53-25.367A8.155,8.155,0,0,0,334.474,26.919Z" transform="translate(-222.223 -19.958)" fill="#78849e"/>
        <path id="Path_1848" data-name="Path 1848" d="M248.156,14.732A8.156,8.156,0,0,0,240,22.888v25.27a8.156,8.156,0,1,0,16.311,0V22.888A8.156,8.156,0,0,0,248.156,14.732Z" transform="translate(-189.639 -14.732)" fill="#78849e"/>
      </g>
      <path id="Path_1849" data-name="Path 1849" d="M264.733,366.111V406.96a8.159,8.159,0,0,1-8.156,8.156H151.816a8.159,8.159,0,0,1-8.156-8.156V366.111a45.768,45.768,0,0,1,.326-5.491,46.506,46.506,0,0,1,46.182-41.012h28.055a46.507,46.507,0,0,1,46.182,41.012A45.755,45.755,0,0,1,264.733,366.111Z" transform="translate(-65.551 -153.845)" fill="#152c53"/>
      <path id="Path_1850" data-name="Path 1850" d="M315.536,366.111V406.96a8.159,8.159,0,0,1-8.156,8.156H255V319.608h14.028A46.507,46.507,0,0,1,315.21,360.62,45.7,45.7,0,0,1,315.536,366.111Z" transform="translate(-116.355 -153.845)" fill="#78849e"/>
      <path id="Path_1851" data-name="Path 1851" d="M208.591,425.513v34.2H192.28v-34.2a8.156,8.156,0,0,1,16.311,0Z" transform="translate(-87.736 -198.448)" fill="#78849e"/>
      <path id="Path_1852" data-name="Path 1852" d="M304.031,425.513v34.2H287.72v-34.2a8.156,8.156,0,0,1,16.311,0Z" transform="translate(-131.285 -198.448)" fill="#152c53"/>
      <path id="Path_1853" data-name="Path 1853" d="M259.975,249.99a30.942,30.942,0,1,1-30.942-30.942A30.938,30.938,0,0,1,259.975,249.99Z" transform="translate(-90.387 -107.96)" fill="#ffdfcf"/>
      <path id="Path_1854" data-name="Path 1854" d="M285.943,249.99A30.938,30.938,0,0,1,255,280.927V219.048A30.943,30.943,0,0,1,285.943,249.99Z" transform="translate(-116.355 -107.96)" fill="#ffcebf"/>
    </g>
  </g>
</svg>
