<svg xmlns="http://www.w3.org/2000/svg" width="30.141" height="30.121" viewBox="0 0 30.141 30.121">
  <g id="Group_1268" data-name="Group 1268" transform="translate(-423.748 -354.269)">
    <path id="Path_818" data-name="Path 818" d="M26.1,1.422a13.334,13.334,0,0,1-2.565,3.16,13.138,13.138,0,0,1-8.841,3.411A13.134,13.134,0,0,1,5.853,4.582,13.253,13.253,0,0,1,3.287,1.421,6.315,6.315,0,0,0,0,0,15.7,15.7,0,0,0,14.694,10.4,15.7,15.7,0,0,0,29.387,0,6.294,6.294,0,0,0,26.1,1.422Z" transform="translate(453.512 384.076) rotate(180)" fill="#51ba6c" stroke="#51ba6c" stroke-width="0.5"/>
    <path id="Path_819" data-name="Path 819" d="M430.777,373.245a7.555,7.555,0,0,0,5.253-2.137l.086-.083c.113-.115.221-.233.326-.352l.089-.1c.08-.094.3-.375.3-.375.1-.131.193-.266.3-.419.082-.128.159-.257.268-.452a7.659,7.659,0,0,0-1.275-9.039l-5.606-5.637a4.286,4.286,0,0,0-.907,2.8l.026.669-.649.159a7.554,7.554,0,0,0-3.161,1.651c-.13.114-.257.23-.38.355a7.644,7.644,0,0,0,.008,10.747A7.473,7.473,0,0,0,430.777,373.245Zm-3.649-11.251a5.147,5.147,0,0,1,7.3,0,5.215,5.215,0,0,1,0,7.323,5.148,5.148,0,0,1-7.3,0A5.216,5.216,0,0,1,427.128,361.994Z" transform="translate(8.181)" fill="#51ba6c" stroke="#51ba6c" stroke-width="0.5"/>
  </g>
</svg>
