<svg xmlns="http://www.w3.org/2000/svg" width="22.452" height="22.447" viewBox="0 0 22.452 22.447">
  <g id="Group_1266" data-name="Group 1266" transform="translate(-415.899 -354.42)">
    <path id="Path_818" data-name="Path 818" d="M435.664,371.662a9.983,9.983,0,0,1-1.92,2.365,9.88,9.88,0,0,1-15.158-2.366,4.727,4.727,0,0,0-2.461-1.064,11.664,11.664,0,0,0,22,0A4.712,4.712,0,0,0,435.664,371.662Z" transform="translate(854.25 747.275) rotate(180)" fill="#fff" stroke="#fff" stroke-width="0.3"/>
    <path id="Path_819" data-name="Path 819" d="M428.881,368.57a5.656,5.656,0,0,0,3.932-1.6l.064-.062c.084-.086.166-.174.244-.263l.067-.078c.06-.071.223-.281.223-.281.074-.1.144-.2.221-.314.061-.1.119-.193.2-.339a5.734,5.734,0,0,0-.954-6.767l-4.2-4.22a3.208,3.208,0,0,0-.679,2.1l.019.5-.486.119a5.656,5.656,0,0,0-2.366,1.236c-.1.085-.193.172-.285.266a5.723,5.723,0,0,0,.006,8.046A5.6,5.6,0,0,0,428.881,368.57Zm-2.732-8.423a3.853,3.853,0,0,1,5.465,0,3.9,3.9,0,0,1,0,5.482,3.854,3.854,0,0,1-5.465,0A3.9,3.9,0,0,1,426.15,360.147Z" transform="translate(-1.652)" fill="#fff" stroke="#fff" stroke-width="0.3"/>
  </g>
</svg>
