<svg xmlns="http://www.w3.org/2000/svg" width="21.726" height="17.1" viewBox="0 0 21.726 17.1">
  <g id="camera" opacity="0.5">
    <g id="Group_1339" data-name="Group 1339" transform="translate(0 0)">
      <g id="Group_1338" data-name="Group 1338">
        <path id="Path_910" data-name="Path 910" d="M21,47.464a2.336,2.336,0,0,0-1.714-.723H15.861V46.7a1.854,1.854,0,0,0-.558-1.342,1.89,1.89,0,0,0-1.342-.558h-6.2a1.9,1.9,0,0,0-1.921,1.9v.041H2.437a2.336,2.336,0,0,0-1.714.723A2.455,2.455,0,0,0,0,49.178V59.463a2.336,2.336,0,0,0,.723,1.714,2.455,2.455,0,0,0,1.714.723H19.289A2.336,2.336,0,0,0,21,61.177a2.455,2.455,0,0,0,.723-1.714V49.178A2.336,2.336,0,0,0,21,47.464Zm-.351,12h-.021a1.34,1.34,0,0,1-1.342,1.342H2.437a1.34,1.34,0,0,1-1.342-1.342V49.178a1.34,1.34,0,0,1,1.342-1.342H6.423a.555.555,0,0,0,.558-.558v-.6a.777.777,0,0,1,.805-.805h6.175a.777.777,0,0,1,.805.805v.6a.555.555,0,0,0,.558.558H19.31a1.34,1.34,0,0,1,1.342,1.342Z" transform="translate(0 -44.8)" fill="#152c53"/>
        <path id="Path_911" data-name="Path 911" d="M117.08,130.8a5.077,5.077,0,1,0,3.593,1.487A5.089,5.089,0,0,0,117.08,130.8Zm2.809,7.91a3.989,3.989,0,0,1-5.617,0,3.948,3.948,0,0,1-1.157-2.809,4.036,4.036,0,0,1,1.157-2.809,3.948,3.948,0,0,1,2.809-1.157,4.036,4.036,0,0,1,2.809,1.157,3.948,3.948,0,0,1,1.157,2.809A3.864,3.864,0,0,1,119.889,138.71Z" transform="translate(-106.217 -126.36)" fill="#152c53"/>
        <ellipse id="Ellipse_150" data-name="Ellipse 150" cx="1.012" cy="1.012" rx="1.012" ry="1.012" transform="translate(17.203 4.42)" fill="#152c53"/>
      </g>
    </g>
  </g>
</svg>
