<?xml version="1.0" encoding="UTF-8"?>
<svg width="191px" height="52px" viewBox="0 0 191 52" version="1.1" xmlns="http://www.w3.org/2000/svg" xmlns:xlink="http://www.w3.org/1999/xlink">
    <!-- Generator: Sketch 62 (91390) - https://sketch.com -->
    <title>Group 2</title>
    <desc>Created with Sketch.</desc>
    <g id="v1-design" stroke="none" stroke-width="1" fill="none" fill-rule="evenodd">
        <g id="About-us" transform="translate(-150.000000, -24.000000)">
            <g id="Group-4">
                <g id="Group-2" transform="translate(150.000000, 24.000000)">
                    <g id="Group-8" transform="translate(62.000000, 11.000000)" fill-rule="nonzero">
                        <polygon id="Path" fill="#FF7664" points="18.6411265 23.6491903 18.6411265 19.2462381 5.94645254 19.2462381 18.4740913 4.30288512 18.4740913 0 0.434291477 0 0.434291477 4.36959652 12.3271966 4.36959652 0 19.1795267 0 23.6491903"></polygon>
                        <path d="M28.2566343,6.12096691 C30.7087223,6.12096691 32.5143508,6.70972681 33.6735197,7.88724662 C34.8326885,9.06476643 35.412273,10.5731132 35.412273,12.412287 L35.412273,12.412287 L35.412273,20.5539954 L35.4163674,20.9700753 C35.432745,21.7885031 35.4982553,22.5245388 35.6128984,23.1781824 L35.6128984,23.1781824 L31.5335156,23.1781824 L31.4943309,22.9852584 C31.4089955,22.5167036 31.3663277,21.9193577 31.3663277,21.1932204 C30.3186174,22.8305337 28.7024685,23.6491903 26.517881,23.6491903 C24.8237111,23.6491903 23.4583439,23.1557535 22.4217794,22.1688797 C21.3852149,21.182006 20.8669326,20.0157006 20.8669326,18.6699637 C20.8669326,17.2569399 21.3239127,16.124278 22.2378728,15.271978 C23.1518328,14.4196779 24.3332934,13.8813832 25.7822546,13.6570937 L25.7822546,13.6570937 L29.8281998,13.0515121 L29.9876598,13.025345 C30.7061464,12.8857871 31.0653897,12.5020028 31.0653897,11.8739923 C31.0653897,11.2459817 30.8257538,10.7301159 30.346482,10.3263948 C29.8672103,9.92267371 29.1817402,9.72081318 28.2900719,9.72081318 C27.3538201,9.72081318 26.6126207,9.97874609 26.0664738,10.4946119 C25.520327,11.0104777 25.213816,11.6497028 25.1469408,12.412287 L25.1469408,12.412287 L21.2013083,11.5712014 L21.2369663,11.3040254 C21.4472572,9.97800138 22.1375601,8.79982447 23.3078748,7.76949464 C24.5562105,6.67047615 26.205797,6.12096691 28.2566343,6.12096691 Z M31.0653897,15.7429859 L27.3538201,16.3149241 L27.1549501,16.348904 C25.9277358,16.587548 25.3141287,17.2715188 25.3141287,18.4008163 C25.3141287,18.9391111 25.5036082,19.3932973 25.8825672,19.763375 C26.2615263,20.1334526 26.7853815,20.3184914 27.4541328,20.3184914 C28.5018431,20.3184914 29.3656468,20.0213079 30.045544,19.4269407 C30.7254411,18.8325736 31.0653897,17.8513071 31.0653897,16.4831412 L31.0653897,16.4831412 L31.0653897,15.7429859 Z" id="Combined-Shape" fill="#FF7664"></path>
                        <path d="M47.7681267,6.39919268 C50.1113694,6.39919268 51.9636469,7.1933874 53.3249593,8.78177684 C54.6862717,10.3701663 55.3669279,12.4195219 55.3669279,14.9298437 C55.3669279,17.4401654 54.6472177,19.5061825 53.2077972,21.1278948 C51.7683767,22.7496071 49.8993617,23.5604632 47.6007522,23.5604632 C45.4137258,23.5604632 43.8292474,22.8940061 42.8473171,21.5610919 L42.8473171,21.5610919 L42.8473171,29.4919315 L38.3951561,29.4919315 L38.3951561,6.76574409 L42.7134175,6.76574409 L42.7134175,8.76511541 L42.8412916,8.56834395 C43.2470074,7.98752658 43.851564,7.49218233 44.6549615,7.08231121 C45.5476253,6.62689886 46.5853471,6.39919268 47.7681267,6.39919268 Z M46.8977794,10.3646125 C45.7149998,10.3646125 44.7330696,10.7811482 43.9519887,11.6142195 C43.1709078,12.4472909 42.7803673,13.5636066 42.7803673,14.9631665 C42.7803673,16.3627264 43.1709078,17.4845959 43.9519887,18.3287749 C44.7330696,19.1729539 45.7149998,19.5950434 46.8977794,19.5950434 C48.0805591,19.5950434 49.051331,19.1840615 49.8100953,18.3620978 C50.5911762,17.5179188 50.9817167,16.3849417 50.9817167,14.9631665 C50.9817167,13.5413913 50.5967554,12.4195219 49.8268328,11.5975581 C49.0569102,10.7755944 48.0805591,10.3646125 46.8977794,10.3646125 Z" id="Combined-Shape" fill="#FF7664"></path>
                        <polygon id="Path" fill="#FF7664" points="69.2782164 15.0241915 69.2782164 11.1290307 59.8185402 11.1290307 59.8185402 15.0241915"></polygon>
                        <polygon id="Path" fill="#FFFFFF" points="91.8145036 23.6491903 91.8145036 19.2462381 79.1198297 19.2462381 91.6474684 4.30288512 91.6474684 0 73.6076686 0 73.6076686 4.36959652 85.5005737 4.36959652 73.1733771 19.1795267 73.1733771 23.6491903"></polygon>
                        <path d="M101.430011,6.12096691 C103.882099,6.12096691 105.687728,6.70972681 106.846897,7.88724662 C108.006066,9.06476643 108.58565,10.5731132 108.58565,12.412287 L108.58565,12.412287 L108.58565,20.5539954 L108.589745,20.9700753 C108.606122,21.7885031 108.671632,22.5245388 108.786276,23.1781824 L108.786276,23.1781824 L104.706893,23.1781824 L104.667708,22.9852584 C104.582373,22.5167036 104.539705,21.9193577 104.539705,21.1932204 C103.491995,22.8305337 101.875846,23.6491903 99.6912581,23.6491903 C97.9970882,23.6491903 96.631721,23.1557535 95.5951565,22.1688797 C94.558592,21.182006 94.0403098,20.0157006 94.0403098,18.6699637 C94.0403098,17.2569399 94.4972898,16.124278 95.4112499,15.271978 C96.32521,14.4196779 97.5066706,13.8813832 98.9556317,13.6570937 L98.9556317,13.6570937 L103.001577,13.0515121 L103.161037,13.025345 C103.879524,12.8857871 104.238767,12.5020028 104.238767,11.8739923 C104.238767,11.2459817 103.999131,10.7301159 103.519859,10.3263948 C103.040587,9.92267371 102.355117,9.72081318 101.463449,9.72081318 C100.527197,9.72081318 99.7859979,9.97874609 99.239851,10.4946119 C98.6937041,11.0104777 98.3871931,11.6497028 98.320318,12.412287 L98.320318,12.412287 L94.3746854,11.5712014 L94.4103434,11.3040254 C94.6206344,9.97800138 95.3109372,8.79982447 96.4812519,7.76949464 C97.7295877,6.67047615 99.3791742,6.12096691 101.430011,6.12096691 Z M104.238767,15.7429859 L100.527197,16.3149241 L100.328327,16.348904 C99.1011129,16.587548 98.4875058,17.2715188 98.4875058,18.4008163 C98.4875058,18.9391111 98.6769853,19.3932973 99.0559444,19.763375 C99.4349034,20.1334526 99.9587586,20.3184914 100.62751,20.3184914 C101.67522,20.3184914 102.539024,20.0213079 103.218921,19.4269407 C103.898818,18.8325736 104.238767,17.8513071 104.238767,16.4831412 L104.238767,16.4831412 L104.238767,15.7429859 Z" id="Combined-Shape" fill="#FFFFFF"></path>
                        <path d="M120.941504,6.39919268 C123.284747,6.39919268 125.137024,7.1933874 126.498336,8.78177684 C127.859649,10.3701663 128.540305,12.4195219 128.540305,14.9298437 C128.540305,17.4401654 127.820595,19.5061825 126.381174,21.1278948 C124.941754,22.7496071 123.072739,23.5604632 120.774129,23.5604632 C118.587103,23.5604632 117.002625,22.8940061 116.020694,21.5610919 L116.020694,21.5610919 L116.020694,29.4919315 L111.568533,29.4919315 L111.568533,6.76574409 L115.886795,6.76574409 L115.886795,8.76511541 L116.014669,8.56834395 C116.420385,7.98752658 117.024941,7.49218233 117.828339,7.08231121 C118.721002,6.62689886 119.758724,6.39919268 120.941504,6.39919268 Z M120.071157,10.3646125 C118.888377,10.3646125 117.906447,10.7811482 117.125366,11.6142195 C116.344285,12.4472909 115.953744,13.5636066 115.953744,14.9631665 C115.953744,16.3627264 116.344285,17.4845959 117.125366,18.3287749 C117.906447,19.1729539 118.888377,19.5950434 120.071157,19.5950434 C121.253936,19.5950434 122.224708,19.1840615 122.983472,18.3620978 C123.764553,17.5179188 124.155094,16.3849417 124.155094,14.9631665 C124.155094,13.5413913 123.770132,12.4195219 123.00021,11.5975581 C122.230287,10.7755944 121.253936,10.3646125 120.071157,10.3646125 Z" id="Combined-Shape" fill="#FFFFFF"></path>
                        <polygon id="Path" fill="#FF7664" points="55.366196 3.61693499 55.366196 0.834677306 22.5362873 0.834677306 22.5362873 3.61693499"></polygon>
                        <polygon id="Path" fill="#FFFFFF" points="128.540305 3.61693499 128.540305 0.834677306 95.7096644 0.834677306 95.7096644 3.61693499"></polygon>
                    </g>
                    <g id="Group">
                        <circle id="Oval" fill="#FF7664" cx="25.9521458" cy="25.9521458" r="25.9521458"></circle>
                        <path d="M21.2807595,21.2807595 L12.1069994,39.6282798 C12.0493103,39.743658 12.0960765,39.8839568 12.2114548,39.9416459 C12.2438871,39.9578621 12.2796496,39.9663045 12.3159101,39.9663045 L39.7327352,39.9663045 C39.8617319,39.9663045 39.9663045,39.8617319 39.9663045,39.7327352 L39.9663045,35.5284875 C39.9663045,35.3994908 39.8617319,35.2949182 39.7327352,35.2949182 L21.6586826,35.2949182 C21.5296858,35.2949182 21.4251133,35.1903457 21.4251133,35.0613489 C21.4251133,35.0250884 21.4335557,34.9893259 21.4497719,34.9568936 L30.4545197,16.947398 C30.5122088,16.8320198 30.4654425,16.691721 30.3500643,16.6340319 C30.3176319,16.6178157 30.2818694,16.6093733 30.2456089,16.6093733 L12.1715564,16.6093733 C12.0425596,16.6093733 11.9379871,16.5048008 11.9379871,16.375804 L11.9379871,12.1715564 C11.9379871,12.0425596 12.0425596,11.9379871 12.1715564,11.9379871 L39.5883814,11.9379871 C39.7173782,11.9379871 39.8219507,12.0425596 39.8219507,12.1715564 C39.8219507,12.2078168 39.8135083,12.2435794 39.7972921,12.2760117 L30.623532,30.623532 L30.623532,30.623532" id="Path-2" stroke="#FFFFFF" stroke-width="1.5571287" stroke-linecap="round"></path>
                    </g>
                </g>
            </g>
        </g>
    </g>
</svg>