<?xml version="1.0" encoding="UTF-8"?>
<svg width="120px" height="40px" viewBox="0 0 120 40" version="1.1" xmlns="http://www.w3.org/2000/svg" xmlns:xlink="http://www.w3.org/1999/xlink">
    <!-- Generator: Sketch 63.1 (92452) - https://sketch.com -->
    <title>Artboard</title>
    <desc>Created with Sketch.</desc>
    <g id="Artboard" stroke="none" stroke-width="1" fill="none" fill-rule="evenodd">
        <g id="app-store-btn" transform="translate(1.000000, 3.000000)" fill-rule="nonzero">
            <g id="Group_2147">
                <g id="Group_2145">
                    <path d="M108.299417,0 L9.37608333,0 C9.0152,0 8.65923333,0 8.29933333,0 C7.99843333,0 7.6995,0.007 7.39565,0.011375 C6.73662924,0.0185468963 6.07917659,0.0703212926 5.42898333,0.16625 C4.77873026,0.264431109 4.14885709,0.449389628 3.56065,0.714875 C2.97178306,0.983656259 2.43392263,1.3329402 1.96666667,1.75 C1.49664081,2.1633675 1.10451276,2.64140704 0.80535,3.16575 C0.50676288,3.68891613 0.299522526,4.24951885 0.190766667,4.82825 C0.0814502544,5.40666966 0.0226023417,5.99174975 0.01475,6.57825 C0.0059,6.85125 0,7.12075 0,7.3885 L0,27.614125 C0,27.885375 0.0059,28.14875 0.01475,28.420875 C0.0226023417,29.0073752 0.0814502544,29.5924553 0.190766667,30.170875 C0.299343224,30.7496455 0.506592355,31.3102719 0.80535,31.833375 C1.1036839,32.3584307 1.49589843,32.8368711 1.96666667,33.25 C2.43087009,33.6675955 2.96738073,34.0161946 3.55573333,34.2825 C4.14392065,34.548766 4.77372797,34.7348851 5.42406667,34.834625 C6.07437251,34.9297625 6.7317579,34.9815316 7.39073333,34.9895 C7.69458333,34.995625 7.99351667,34.999125 8.29441667,34.999125 C8.65431667,34.999125 9.01028333,34.999125 9.37116667,34.999125 L108.2945,34.999125 C108.647517,34.999125 109.007417,34.999125 109.360433,34.999125 C109.655433,34.999125 109.96715,34.999125 110.267067,34.9895 C110.926075,34.9821129 111.58351,34.9303399 112.233733,34.834625 C112.886413,34.7342854 113.518716,34.5482122 114.109933,34.2825 C114.70034,34.0166207 115.238867,33.6680056 115.7049,33.25 C116.173133,32.836375 116.565357,32.3598042 116.8672,31.83775 C117.163744,31.3142851 117.368991,30.7536945 117.475883,30.17525 C117.585581,29.5967649 117.646716,29.0118144 117.658783,28.42525 C117.658783,28.153125 117.658783,27.890625 117.658783,27.6185 C117.66665,27.300875 117.66665,26.984125 117.66665,26.66125 L117.66665,8.344 C117.66665,8.02375 117.66665,7.706125 117.658783,7.3885 C117.658783,7.119875 117.658783,6.85125 117.658783,6.582625 C117.646716,5.99606063 117.585581,5.41111005 117.475883,4.832625 C117.368724,4.25423846 117.16349,3.69368318 116.8672,3.170125 C116.259947,2.1173365 115.297,1.26047737 114.113867,0.720125 C113.52261,0.455238478 112.890249,0.270328048 112.237667,0.1715 C111.587557,0.0749897727 110.930054,0.023211422 110.271,0.016625 C109.976,0.016625 109.664283,0.007 109.364367,0.00525 C109.01135,0.00525 108.65145,0.00525 108.298433,0.00525 L108.299417,0 Z" id="Path_1888" fill="#A6A6A6"></path>
                    <path d="M8.30425,34.234375 C8.00925,34.234375 7.71425,34.234375 7.41925,34.22475 C6.80351733,34.2176308 6.18922182,34.1699588 5.5814,34.082125 C5.01299703,33.9947611 4.46247069,33.8322559 3.94808333,33.6 C3.43847429,33.3710746 2.97363186,33.0706013 2.57141667,32.710125 C2.16649217,32.3547983 1.82937615,31.9431069 1.57333333,31.49125 C1.31315378,31.0350694 1.13308007,30.5461016 1.03938333,30.041375 C0.938055619,29.4989869 0.883158919,28.9505353 0.875166667,28.40075 C0.869266667,28.216125 0.860416667,27.601875 0.860416667,27.601875 L0.860416667,7.3885 C0.860416667,7.3885 0.869266667,6.783875 0.875166667,6.605375 C0.8828202,6.05648172 0.937388756,5.50890181 1.0384,4.967375 C1.13251494,4.46150777 1.31290594,3.97139853 1.57333333,3.514 C1.82951779,3.06039393 2.16657643,2.64670419 2.57141667,2.289 C2.97512761,1.9307015 3.43928962,1.63074873 3.9471,1.4 C4.45906328,1.16978039 5.0069973,1.0093223 5.57255,0.924 C6.18244698,0.83377609 6.79908449,0.784346034 7.41728333,0.776125 L8.30228333,0.765625 L109.360433,0.765625 L110.258217,0.777 C110.870391,0.783610738 111.481133,0.831287564 112.08525,0.919625 C112.656676,1.00600336 113.210464,1.16760849 113.7284,1.399125 C114.748922,1.86714378 115.579298,2.60756766 116.10315,3.516625 C116.35927,3.97122758 116.536637,4.45768868 116.629233,4.9595 C116.731331,5.5054383 116.788516,6.05727904 116.800333,6.610625 C116.800333,6.85825 116.800333,7.12425 116.800333,7.389375 C116.8082,7.7175 116.8082,8.029875 116.8082,8.344875 L116.8082,26.656875 C116.8082,26.9745 116.8082,27.285125 116.800333,27.5975 C116.800333,27.881875 116.800333,28.142625 116.800333,28.41125 C116.788859,28.9549273 116.732658,29.4971271 116.632183,30.0335 C116.540428,30.5419285 116.361334,31.034774 116.101183,31.49475 C115.84191,31.9432378 115.504743,32.3525192 115.102117,32.7075 C114.70019,33.0694506 114.235343,33.3714044 113.72545,33.60175 C113.208979,33.8345511 112.656041,33.9967883 112.08525,34.083 C111.477494,34.1713002 110.863159,34.2189752 110.2474,34.225625 C109.959283,34.23175 109.6574,34.23525 109.3624,34.23525 L108.296467,34.23525 L8.30425,34.234375 Z" id="Path_1889" fill="#000000"></path>
                </g>
                <g id="_Group_" transform="translate(8.850000, 7.000000)" fill="#FFFFFF">
                    <g id="_Group_2">
                        <g id="_Group_3">
                            <path d="M15.5061833,10.7625 C15.5278244,9.27803917 16.4025496,7.90691525 17.8239,7.1295 C16.9233025,5.9848748 15.4689133,5.28510109 13.8994167,5.24125 C12.2484,5.08725 10.6475333,6.11625 9.8058,6.11625 C8.94833333,6.11625 7.6523,5.252625 6.25793333,5.278 C4.42229428,5.33071899 2.7524637,6.23692131 1.85948333,7.665 C-0.0422833333,10.5945 1.37666667,14.900375 3.1978,17.269 C4.10935,18.428375 5.1743,19.72425 6.56866667,19.677875 C7.93255,19.627125 8.44191667,18.904375 10.0880167,18.904375 C11.7193667,18.904375 12.1972667,19.677875 13.6191667,19.649 C15.0823667,19.628 16.0047333,18.484375 16.8848167,17.313625 C17.5386932,16.4887083 18.0421281,15.577114 18.3765333,14.6125 C16.6380631,13.9581315 15.5078315,12.4421521 15.5061833,10.7625 L15.5061833,10.7625 Z" id="_Path_"></path>
                            <path d="M12.8197167,3.684625 C13.618025,2.8321933 14.0113534,1.73637729 13.9161333,0.63 C12.6967496,0.743904207 11.5703927,1.26253352 10.7616,2.0825 C9.96292643,2.89112847 9.55823743,3.94909317 9.63666667,5.023375 C10.8721679,5.03471333 12.0452929,4.54131199 12.8197167,3.684625 L12.8197167,3.684625 Z" id="_Path_2"></path>
                        </g>
                    </g>
                    <g id="Group_2146" transform="translate(24.583333, 7.875000)">
                        <path d="M8.16166667,8.8725 L3.50951667,8.8725 L2.39146667,11.8125 L0.4248,11.8125 L4.83308333,0.94675 L6.88136667,0.94675 L11.2857167,11.8125 L9.2807,11.8125 L8.16166667,8.8725 Z M3.98938333,7.517125 L7.67885,7.517125 L5.85968333,2.751 L5.8115,2.751 L3.98938333,7.517125 Z" id="Path_1890"></path>
                        <path d="M20.8073333,7.84875 C20.8073333,10.310125 19.3264333,11.892125 17.0923,11.892125 C15.9371174,11.9460799 14.8489219,11.4077147 14.2907833,10.506125 L14.2485,10.506125 L14.2485,14.429625 L12.4204833,14.429625 L12.4204833,3.88675 L14.1904833,3.88675 L14.1904833,5.2045 L14.2239167,5.2045 C14.8070875,4.3089162 15.8962629,3.77104229 17.0588667,3.8045 C19.3175833,3.8045 20.8073333,5.3935 20.8073333,7.84875 Z M18.9291667,7.84875 C18.9291667,6.244875 17.99795,5.1905 16.57605,5.1905 C15.1797167,5.1905 14.2406333,6.26675 14.2406333,7.84875 C14.2406333,9.44475 15.1797167,10.514 16.57605,10.514 C17.995,10.514 18.9291667,9.466625 18.9291667,7.84875 Z" id="Path_1891"></path>
                        <path d="M30.60625,7.84875 C30.60625,10.310125 29.12535,11.892125 26.8912167,11.892125 C25.7367268,11.9453941 24.6494903,11.4071255 24.0916667,10.506125 L24.0493833,10.506125 L24.0493833,14.429625 L22.2233333,14.429625 L22.2233333,3.88675 L23.9933333,3.88675 L23.9933333,5.2045 L24.0267667,5.2045 C24.6099375,4.3089162 25.6991129,3.77104229 26.8617167,3.8045 C29.1165,3.8045 30.60625,5.3935 30.60625,7.84875 Z M28.7280833,7.84875 C28.7280833,6.244875 27.7968667,5.1905 26.3749667,5.1905 C24.9786333,5.1905 24.03955,6.26675 24.03955,7.84875 C24.03955,9.44475 24.9786333,10.514 26.3749667,10.514 C27.7958833,10.514 28.7280833,9.464 28.7280833,7.84875 Z" id="Path_1892"></path>
                        <path d="M37.0815,8.7815 C37.2172,9.858625 38.3932667,10.5665 40.0010167,10.5665 C41.5409167,10.5665 42.6491333,9.858625 42.6491333,8.887375 C42.6491333,8.043875 41.9804667,7.539 40.3982833,7.1925 L38.8161,6.853 C36.5741,6.370875 35.53275,5.438125 35.53275,3.9235 C35.53275,2.048375 37.3686333,0.76125 39.9764333,0.76125 C42.5567,0.76125 44.3257167,2.04925 44.3847167,3.9235 L42.5399833,3.9235 C42.42985,2.839375 41.4219333,2.184875 39.9498833,2.184875 C38.4778333,2.184875 37.4709,2.84725 37.4709,3.810625 C37.4709,4.578875 38.114,5.03125 39.6883167,5.376875 L41.0335167,5.670875 C43.53905,6.195875 44.5794167,7.093625 44.5794167,8.682625 C44.5794167,10.71525 42.7592667,11.988375 39.8653167,11.988375 C37.1572167,11.988375 35.3292,10.745 35.2112,8.77975 L37.0815,8.7815 Z" id="Path_1893"></path>
                        <path d="M48.5235667,2.0125 L48.5235667,3.887625 L50.2168667,3.887625 L50.2168667,5.175625 L48.5235667,5.175625 L48.5235667,9.54275 C48.5235667,10.220875 48.8628167,10.537625 49.6052333,10.537625 C49.8067666,10.5345588 50.007976,10.5219995 50.2080167,10.5 L50.2080167,11.780125 C49.8734956,11.8357822 49.5334765,11.8609955 49.1932167,11.855375 C47.3907667,11.855375 46.6876833,11.253375 46.6876833,9.716875 L46.6876833,5.17475 L45.3936167,5.17475 L45.3936167,3.88675 L46.6876833,3.88675 L46.6876833,2.0125 L48.5235667,2.0125 Z" id="Path_1894"></path>
                        <path d="M51.19725,7.84875 C51.19725,5.355875 52.8472833,3.789625 55.4196833,3.789625 C57.9920833,3.789625 59.6431,5.355875 59.6431,7.84875 C59.6431,10.341625 58.0097833,11.907875 55.4196833,11.907875 C52.8295833,11.907875 51.19725,10.34775 51.19725,7.84875 Z M57.7855833,7.84875 C57.7855833,6.139 56.9005833,5.130125 55.4255833,5.130125 C53.9505833,5.130125 53.0655833,6.146875 53.0655833,7.84875 C53.0655833,9.5655 53.9456667,10.5665 55.4255833,10.5665 C56.9055,10.5665 57.7855833,9.564625 57.7855833,7.84875 Z" id="Path_1895"></path>
                        <path d="M61.1495667,3.88675 L62.8920333,3.88675 L62.8920333,5.235125 L62.9333333,5.235125 C63.1761739,4.36685544 64.0702414,3.76926589 65.0750333,3.803625 C65.2857075,3.80285356 65.4958146,3.82310508 65.7014167,3.864 L65.7014167,5.38475 C65.4355295,5.31258078 65.1581951,5.27947966 64.8803333,5.28675 C64.3430429,5.26733842 63.8230521,5.45783833 63.4568682,5.80823993 C63.0906844,6.15864154 62.9148836,6.63394527 62.9756167,7.109375 L62.9756167,11.8125 L61.1495667,11.8125 L61.1495667,3.88675 Z" id="Path_1896"></path>
                        <path d="M74.1276,9.482375 C73.8817667,10.920875 72.30745,11.907 70.2926,11.907 C67.7025,11.907 66.09475,10.362625 66.09475,7.882 C66.09475,5.401375 67.71135,3.78525 70.2149167,3.78525 C72.67325,3.78525 74.2269167,5.291125 74.2269167,7.693 L74.2269167,8.250375 L67.9385,8.250375 L67.9385,8.348375 C67.8799155,8.93815858 68.1088988,9.52191547 68.5672045,9.95115856 C69.0255102,10.3804017 69.6689662,10.6137598 70.3339,10.591875 C71.2206897,10.6660433 72.0569023,10.2130431 72.39005,9.478 L74.1276,9.482375 Z M67.9503,7.119875 L72.4008667,7.119875 C72.434737,6.58953616 72.2182055,6.07070134 71.8035293,5.68858498 C71.3888532,5.30646861 70.8137027,5.09578317 70.2168833,5.107375 C69.6153908,5.10410237 69.037384,5.31491282 68.6115029,5.69288878 C68.1856218,6.07086473 67.9472059,6.5846419 67.9493028,7.119875 L67.9503,7.119875 Z" id="Path_1897"></path>
                    </g>
                </g>
            </g>
            <g id="_Group_4" transform="translate(34.416667, 7.000000)" fill="#FFFFFF">
                <g id="Group_2148">
                    <path d="M2.7789,0.639625 C3.55553194,0.589906154 4.31623251,0.853009144 4.85126168,1.35639133 C5.38629084,1.85977351 5.63914231,2.55027095 5.5401,3.2375 C5.5401,4.90525 4.52726667,5.8625 2.7789,5.8625 L0.659816667,5.8625 L0.659816667,0.639625 L2.7789,0.639625 Z M1.57333333,5.12225 L2.67958333,5.12225 C3.23403381,5.15176299 3.77391541,4.95740348 4.14932736,4.59313633 C4.52473931,4.22886918 4.69571542,3.73347412 4.61478333,3.2445 C4.68993721,2.75751801 4.51654572,2.26613473 4.14204599,1.90478467 C3.76754625,1.54343461 3.23114148,1.34994446 2.67958333,1.37725 L1.57333333,1.37725 L1.57333333,5.12225 Z" id="Path_1898"></path>
                    <path d="M6.56965,3.8885 C6.49453939,3.18271448 6.87529489,2.49999896 7.55239532,2.12638367 C8.22949575,1.75276838 9.08602091,1.75276838 9.76312135,2.12638367 C10.4402218,2.49999896 10.8209773,3.18271448 10.7458667,3.8885 C10.825082,4.59644019 10.445314,5.28292215 9.76650672,5.6588258 C9.0876994,6.03472945 8.22781727,6.03472945 7.54900995,5.6588258 C6.87020262,5.28292215 6.49043471,4.59644019 6.56965,3.8885 L6.56965,3.8885 Z M9.8471,3.8885 C9.8471,3.0345 9.4164,2.534875 8.65923333,2.534875 C7.90206667,2.534875 7.47235,3.0345 7.47235,3.8885 C7.47235,4.7425 7.9001,5.24475 8.65923333,5.24475 C9.41836667,5.24475 9.8471,4.746 9.8471,3.8885 Z" id="Path_1899"></path>
                    <polygon id="Path_1900" points="16.2967833 5.8625 15.39015 5.8625 14.4746667 2.961 14.4058333 2.961 13.4952667 5.8625 12.5974833 5.8625 11.3771667 1.925 12.2621667 1.925 13.0557167 4.9315 13.1206167 4.9315 14.0311833 1.925 14.8699667 1.925 15.7805333 4.9315 15.8493667 4.9315 16.6360333 1.925 17.5102167 1.925"></polygon>
                    <path d="M18.5397667,1.920625 L19.3805167,1.920625 L19.3805167,2.54625 L19.4454167,2.54625 C19.6732378,2.08610371 20.2038381,1.80506541 20.7670167,1.84625 C21.203498,1.81707656 21.6312102,1.96607034 21.929425,2.25117559 C22.2276398,2.53628084 22.3640064,2.9265689 22.3000333,3.311875 L22.3000333,5.8625 L21.42585,5.8625 L21.42585,3.50525 C21.42585,2.87175 21.1170833,2.557625 20.47005,2.557625 C20.1740933,2.5454315 19.8869039,2.64882301 19.6837364,2.84070704 C19.4805688,3.03259106 19.3816742,3.2938412 19.4129667,3.556 L19.4129667,5.8625 L18.5387833,5.8625 L18.5397667,1.920625 Z" id="Path_1901"></path>
                    <polygon id="Path_1902" points="23.6924333 0.382375 24.5666167 0.382375 24.5666167 5.8625 23.6924333 5.8625"></polygon>
                    <path d="M25.7810333,3.8885 C25.7080383,3.18367339 26.0893948,2.50275531 26.765768,2.13024088 C27.4421413,1.75772646 28.2971254,1.75772646 28.9734986,2.13024088 C29.6498718,2.50275531 30.0312284,3.18367339 29.9582333,3.8885 C30.0354273,4.59553773 29.6550786,5.28030973 28.9769599,5.65516449 C28.2988412,6.03001926 27.4404255,6.03001926 26.7623068,5.65516449 C26.084188,5.28030973 25.7038393,4.59553773 25.7810333,3.8885 L25.7810333,3.8885 Z M29.0584833,3.8885 C29.0584833,3.0345 28.6277833,2.534875 27.8706167,2.534875 C27.11345,2.534875 26.6837333,3.0345 26.6837333,3.8885 C26.6837333,4.7425 27.1114833,5.24475 27.8706167,5.24475 C28.62975,5.24475 29.0584833,4.746 29.0584833,3.8885 Z" id="Path_1903"></path>
                    <path d="M30.8766667,4.746 C30.8766667,4.036375 31.4666667,3.62775 32.52375,3.57 L33.7234167,3.50875 L33.7234167,3.168375 C33.7234167,2.751875 33.41465,2.517375 32.8167833,2.517375 C32.3251167,2.517375 31.9907833,2.676625 31.8944167,2.954875 L31.04875,2.954875 C31.1382333,2.2785 31.8531167,1.843625 32.8580833,1.843625 C33.9682667,1.843625 34.59465,2.335375 34.59465,3.1675 L34.59465,5.8625 L33.7539,5.8625 L33.7539,5.308625 L33.6850667,5.308625 C33.3992768,5.7131147 32.8909805,5.94945936 32.3546167,5.92725 C31.9788001,5.96186083 31.6040665,5.85340054 31.3230459,5.6286793 C31.0420253,5.40395807 30.880943,5.08394727 30.8796167,4.74775 L30.8766667,4.746 Z M33.7283333,4.41 L33.7283333,4.081 L32.6466667,4.14225 C32.037,4.179 31.7616667,4.36275 31.7616667,4.710125 C31.7616667,5.0575 32.1078,5.271 32.58275,5.271 C32.8639798,5.29622786 33.1446782,5.21884071 33.3606149,5.05654648 C33.5765517,4.89425225 33.7092456,4.66094114 33.7283333,4.41 L33.7283333,4.41 Z" id="Path_1904"></path>
                    <path d="M35.7422,3.8885 C35.7422,2.643375 36.4610167,1.855 37.58005,1.855 C38.1450009,1.83179042 38.6741516,2.10114236 38.9380333,2.54625 L39.0029333,2.54625 L39.0029333,0.382375 L39.8771167,0.382375 L39.8771167,5.8625 L39.0383333,5.8625 L39.0383333,5.240375 L38.9695,5.240375 C38.6857717,5.68182962 38.1501972,5.94674078 37.5790667,5.928125 C36.4541333,5.9255 35.7422,5.137125 35.7422,3.8885 Z M36.6449,3.8885 C36.6449,4.724125 37.0874,5.22725 37.8249,5.22725 C38.5624,5.22725 39.0167,4.717125 39.0167,3.892 C39.0167,3.066875 38.5565,2.55325 37.8249,2.55325 C37.0933,2.55325 36.6449,3.059875 36.6449,3.8885 Z" id="Path_1905"></path>
                    <path d="M43.4928333,3.8885 C43.4177227,3.18271448 43.7984782,2.49999896 44.4755787,2.12638367 C45.1526791,1.75276838 46.0092042,1.75276838 46.6863047,2.12638367 C47.3634051,2.49999896 47.7441606,3.18271448 47.66905,3.8885 C47.7482653,4.59644019 47.3684974,5.28292215 46.6896901,5.6588258 C46.0108827,6.03472945 45.1510006,6.03472945 44.4721933,5.6588258 C43.793386,5.28292215 43.413618,4.59644019 43.4928333,3.8885 L43.4928333,3.8885 Z M46.7702833,3.8885 C46.7702833,3.0345 46.3395833,2.534875 45.5824167,2.534875 C44.82525,2.534875 44.3955333,3.0345 44.3955333,3.8885 C44.3955333,4.7425 44.8232833,5.24475 45.5824167,5.24475 C46.34155,5.24475 46.7702833,4.746 46.7702833,3.8885 Z" id="Path_1906"></path>
                    <path d="M48.8411833,1.920625 L49.6819333,1.920625 L49.6819333,2.54625 L49.7468333,2.54625 C49.9746545,2.08610371 50.5052548,1.80506541 51.0684333,1.84625 C51.5049146,1.81707656 51.9326268,1.96607034 52.2308416,2.25117559 C52.5290565,2.53628084 52.6654231,2.9265689 52.60145,3.311875 L52.60145,5.8625 L51.7272667,5.8625 L51.7272667,3.50525 C51.7272667,2.87175 51.4185,2.557625 50.7714667,2.557625 C50.47551,2.5454315 50.1883206,2.64882301 49.9851531,2.84070704 C49.7819855,3.03259106 49.6830909,3.2938412 49.7143833,3.556 L49.7143833,5.8625 L48.8402,5.8625 L48.8411833,1.920625 Z" id="Path_1907"></path>
                    <path d="M57.53975,0.93975 L57.53975,1.939 L58.4994833,1.939 L58.4994833,2.594375 L57.53975,2.594375 L57.53975,4.62 C57.53975,5.033 57.7305167,5.21325 58.1661333,5.21325 C58.2775532,5.21279598 58.3888523,5.20666093 58.4994833,5.194875 L58.4994833,5.842375 C58.3426711,5.86721923 58.1838045,5.88038982 58.0245333,5.88175 C57.053,5.88175 56.6655667,5.57725 56.6655667,4.81775 L56.6655667,2.5935 L55.9624833,2.5935 L55.9624833,1.938125 L56.6655667,1.938125 L56.6655667,0.93975 L57.53975,0.93975 Z" id="Path_1908"></path>
                    <path d="M59.6883333,0.382375 L60.55465,0.382375 L60.55465,2.55325 L60.6234833,2.55325 C60.8614574,2.08832806 61.4013403,1.8059637 61.9736,1.847125 C62.4076755,1.825916 62.8297511,1.9781407 63.1247378,2.26229137 C63.4197246,2.54644204 63.5568597,2.93288599 63.49875,3.31625 L63.49875,5.8625 L62.6235833,5.8625 L62.6235833,3.50875 C62.6235833,2.879625 62.2941667,2.561125 61.6766333,2.561125 C61.3725116,2.5388848 61.0728699,2.63725835 60.8578581,2.82993214 C60.6428463,3.02260593 60.5344023,3.28992121 60.5615333,3.560375 L60.5615333,5.8625 L59.6883333,5.8625 L59.6883333,0.382375 Z" id="Path_1909"></path>
                    <path d="M68.5983167,4.79675 C68.3522354,5.53894147 67.5443573,6.01794555 66.6798333,5.93425 C66.0894262,5.94818421 65.521986,5.73045784 65.1281006,5.33885134 C64.7342153,4.94724484 64.5537146,4.42135756 64.6345,3.90075 C64.5558117,3.37864365 64.7355858,2.85184354 65.1272477,2.45682885 C65.5189096,2.06181417 66.0839199,1.83745444 66.6759,1.841875 C67.9080167,1.841875 68.6514167,2.590875 68.6514167,3.828125 L68.6514167,4.099375 L65.5244167,4.099375 L65.5244167,4.143125 C65.4966713,4.43563047 65.6089679,4.72496864 65.8336568,4.93989879 C66.0583457,5.15482893 66.3745509,5.27538183 66.7044167,5.271875 C67.1318833,5.31750388 67.5479592,5.12875558 67.7575667,4.794125 L68.5983167,4.79675 Z M65.5244167,3.527125 L67.7605167,3.527125 C67.7830769,3.2596825 67.6775798,2.99621006 67.4700547,2.80171485 C67.2625297,2.60721963 66.9723031,2.49981458 66.6709833,2.506 C66.3655933,2.50267399 66.0716326,2.60921673 65.8557657,2.80146645 C65.6398988,2.99371617 65.5204171,3.25538261 65.5244167,3.527125 L65.5244167,3.527125 Z" id="Path_1910"></path>
                </g>
            </g>
        </g>
    </g>
</svg>