<?xml version="1.0" encoding="UTF-8"?>
<svg width="97px" height="76px" viewBox="0 0 97 76" version="1.1" xmlns="http://www.w3.org/2000/svg" xmlns:xlink="http://www.w3.org/1999/xlink">
    <title>logo</title>
    <g id="Page-1" stroke="none" stroke-width="1" fill="none" fill-rule="evenodd">
        <g id="logo" fill-rule="nonzero">
            <path d="M46.169,4.619 C44.6843544,4.98113386 43.3073417,5.69175055 42.152,6.692 L42.118,6.721 C41.952,6.866 41.789,7.014 41.631,7.172 C39.8174649,8.98190372 38.7983256,11.4388405 38.7983256,14.001 C38.7983256,16.5631595 39.8174649,19.0200963 41.631,20.83 L41.631,20.83 L41.641,20.839 C45.347433,24.5263673 51.3119782,24.6047259 55.114,21.016 C55.179,20.954 55.246,20.894 55.314,20.829 L55.314,20.829 C55.459,20.684 55.596,20.535 55.73,20.384 C55.768,20.341 55.805,20.298 55.842,20.254 C55.946,20.132 56.046,20.008 56.142,19.882 C56.169,19.846 56.198,19.811 56.224,19.775 C56.3466667,19.611 56.464,19.4443333 56.576,19.275 L56.597,19.241 C56.7023333,19.0776667 56.8023333,18.911 56.897,18.741 L56.941,18.662 C59.0241562,14.8970062 58.3589654,10.2072068 55.311,7.17 L48.144,0.014 C46.8280981,1.17493444 46.1030772,2.86542627 46.169,4.619 L46.169,4.619 Z M52.016,17.54 C50.5839699,18.9739697 48.428978,19.4037615 46.5564106,18.628861 C44.6838433,17.8539604 43.4627059,16.0270684 43.4627059,14.0005 C43.4627059,11.9739316 44.6838433,10.1470396 46.5564106,9.37213905 C48.428978,8.59723851 50.5839699,9.02703027 52.016,10.461 C53.9603249,12.4199148 53.9598784,15.5806346 52.015,17.539 L52.016,17.54 Z" id="Path_12" fill="#51BA6C"></path>
            <g id="Group_5" transform="translate(30.000000, 19.073000)" fill="#51BA6C">
                <path d="M30.73,2.116 C28.1711318,6.55905799 23.4342381,9.29728358 18.307,9.29728358 C13.1797619,9.29728358 8.44286823,6.55905799 5.884,2.116 C3.761,-0.004 2.84217094e-14,0.000999943415 2.84217094e-14,0.000999943415 C2.27385115,8.23678716 9.76308201,13.9436081 18.307,13.951 L18.307,13.951 C26.8505466,13.9431588 34.339248,8.23642969 36.613,0.000999943415 C36.613,0.000999943415 32.852,-0.003 30.73,2.116 Z" id="Path_13"></path>
            </g>
            <path d="M48.913,33.002 L49.084,32.989 C49.244,32.9763333 49.403,32.9596667 49.561,32.939 L49.694,32.922 C49.894,32.893 50.094,32.858 50.294,32.816 L50.333,32.807 C50.523,32.7663333 50.711,32.7196667 50.897,32.667 L50.984,32.642 C54.64859,31.5884233 57.3495831,28.4763839 57.877,24.7 C52.4294207,29.5950232 44.1675793,29.5950232 38.72,24.7 C39.3775904,29.3714572 43.3112544,32.8858459 48.027,33.015 C48.117,33.015 48.207,33.0220759 48.298,33.0220759 L48.298,33.0220759 C48.513,33.023 48.713,33.014 48.913,33.002 Z" id="Path_14" fill="#30975D"></path>
            <g id="Group_7" transform="translate(0.103000, 34.000000)" fill="#FFFFFF">
                <path d="M23.42,12.458 L23.42,31.343 L28.078,31.343 L28.078,10.593 C24.66,10.593 23.42,12.458 23.42,12.458 Z" id="Path_17"></path>
                <path d="M53.965,12.458 L53.965,31.343 L58.623,31.343 L58.623,10.593 C55.218,10.598 53.965,12.458 53.965,12.458 Z" id="Path_18"></path>
                <path d="M90.916,12.458 L90.916,20.718 C90.916,23.4874319 88.6709319,25.7325 85.9015,25.7325 C83.1320681,25.7325 80.887,23.4874319 80.887,20.718 L80.887,10.581 C77.472,10.581 76.23,12.446 76.23,12.446 L76.23,20.718 C76.2350047,24.2079633 78.1197606,27.4245734 81.1618733,29.1349591 C84.2039859,30.8453448 87.9316057,30.7842151 90.916,28.975 L90.916,31.358 C90.914035,33.1495083 89.956461,34.8038819 88.4039869,35.6979344 C86.8515127,36.5919868 84.9399961,36.5898902 83.3894869,35.6924344 C81.8389776,34.7949785 80.885035,33.1385083 80.887,31.347 L76.231,31.347 C76.2279624,36.6881458 80.5553542,41.0204624 85.8965,41.0235016 C91.2376458,41.0265376 95.5699624,36.6991458 95.573,31.358 L95.573,10.594 C92.153,10.594 90.916,12.458 90.916,12.458 Z" id="Path_19"></path>
                <path d="M45.722,12.459 C41.670075,10.00036 36.4327913,10.8455713 33.3599951,14.4540239 C30.2871989,18.0624765 30.2871989,23.3675235 33.3599951,26.9759761 C36.4327913,30.5844287 41.670075,31.42964 45.722,28.971 L45.722,31.344 C45.722,34.1126035 43.4776035,36.357 40.709,36.357 C37.9403965,36.357 35.696,34.1126035 35.696,31.344 L31.037,31.344 C31.0415897,36.4859931 35.0683415,40.7257214 40.2032765,40.9950846 C45.3382115,41.2644478 49.7864491,37.4692917 50.329,32.356 C50.3637965,32.0197821 50.3814859,31.6820133 50.382,31.344 L50.382,10.597 C46.941,10.597 45.722,12.459 45.722,12.459 Z M40.712,25.72 C37.9481771,25.7161353 35.7104266,23.4731643 35.713,20.7093399 C35.7155778,17.9455154 37.9575047,15.706719 40.7213301,15.7080049 C43.4851554,15.7092919 45.725,17.9501744 45.725,20.714 C45.7211378,23.4798694 43.4778721,25.72 40.712,25.72 Z" id="Path_20"></path>
                <path d="M14.686,12.459 C10.634075,10.00036 5.3967913,10.8455713 2.32399508,14.4540239 C-0.748801134,18.0624765 -0.748801134,23.3675235 2.32399508,26.9759761 C5.3967913,30.5844287 10.634075,31.42964 14.686,28.971 L14.686,31.344 C14.686,34.1126035 12.4416035,36.357 9.673,36.357 C6.90439655,36.357 4.66,34.1126035 4.66,31.344 L0.001,31.344 C0.0153593191,36.479394 4.03982722,40.708649 9.16819016,40.9776674 C14.2965531,41.2466859 18.7414235,37.4617067 19.293,32.356 C19.3278102,32.0197832 19.3454997,31.6820137 19.346,31.344 L19.346,10.597 C15.947,10.597 14.686,12.459 14.686,12.459 Z M9.673,25.72 C6.90917706,25.7161353 4.6714266,23.4731643 4.67399995,20.7093399 C4.67657775,17.9455154 6.91850473,15.706719 9.68233007,15.7080049 C12.4461554,15.7092919 14.686,17.9501744 14.686,20.714 C14.6821378,23.4798694 12.4388721,25.72 9.673,25.72 Z" id="Path_21"></path>
                <g id="Group_6" transform="translate(61.401000, 0.000000)">
                    <path d="M3.767,10.593 L0.002,10.593 L0.002,15.244 L3.769,15.244 L3.769,31.363 L8.427,31.363 L8.427,15.245 L12.497,15.245 L12.497,10.593 L8.427,10.593 C8.43980936,8.19744036 10.1444637,6.1451538 12.497,5.693 L12.497,0.993 C7.55526949,1.47984125 3.78360666,5.62737425 3.767,10.593 L3.767,10.593 Z" id="Path_22"></path>
                </g>
            </g>
            <path d="M46.169,4.619 C44.6843544,4.98113386 43.3073417,5.69175055 42.152,6.692 L42.118,6.721 C41.952,6.866 41.789,7.014 41.631,7.172 C39.8174649,8.98190372 38.7983256,11.4388405 38.7983256,14.001 C38.7983256,16.5631595 39.8174649,19.0200963 41.631,20.83 L41.631,20.83 L41.641,20.839 C45.347433,24.5263673 51.3119782,24.6047259 55.114,21.016 C55.179,20.954 55.246,20.894 55.314,20.829 L55.314,20.829 C55.459,20.684 55.596,20.535 55.73,20.384 C55.768,20.341 55.805,20.298 55.842,20.254 C55.946,20.132 56.046,20.008 56.142,19.882 C56.169,19.846 56.198,19.811 56.224,19.775 C56.3466667,19.611 56.464,19.4443333 56.576,19.275 L56.597,19.241 C56.7023333,19.0776667 56.8023333,18.911 56.897,18.741 L56.941,18.662 C59.0241562,14.8970062 58.3589654,10.2072068 55.311,7.17 L48.144,0.014 C46.8280981,1.17493444 46.1030772,2.86542627 46.169,4.619 L46.169,4.619 Z M52.016,17.54 C50.5839699,18.9739697 48.428978,19.4037615 46.5564106,18.628861 C44.6838433,17.8539604 43.4627059,16.0270684 43.4627059,14.0005 C43.4627059,11.9739316 44.6838433,10.1470396 46.5564106,9.37213905 C48.428978,8.59723851 50.5839699,9.02703027 52.016,10.461 C53.9603249,12.4199148 53.9598784,15.5806346 52.015,17.539 L52.016,17.54 Z" id="Path_23" fill="#51BA6C"></path>
        </g>
    </g>
</svg>