<?xml version="1.0" encoding="UTF-8"?>
<svg width="22px" height="14px" viewBox="0 0 22 14" version="1.1" xmlns="http://www.w3.org/2000/svg" xmlns:xlink="http://www.w3.org/1999/xlink">
    <!-- Generator: Sketch 54.1 (76490) - https://sketchapp.com -->
    <title>noun_681630_cc</title>
    <desc>Created with Sketch.</desc>
    <g id="v1-design" stroke="none" stroke-width="1" fill="none" fill-rule="evenodd">
        <g id="Contact-US" transform="translate(-877.000000, -883.000000)" fill="#FFFFFF" fill-rule="nonzero">
            <g id="Group-20" transform="translate(150.000000, 632.000000)">
                <g id="Group-19" transform="translate(722.000000, 40.000000)">
                    <g id="Group-17" transform="translate(0.000000, 100.000000)">
                        <g id="Group-14" transform="translate(0.000000, 102.000000)">
                            <g id="Group-7">
                                <g id="noun_681630_cc" transform="translate(5.333333, 9.333333)">
                                    <g id="Group">
                                        <path d="M2.66664,0.0877890909 C2.05688,0.0877890909 1.49824,0.277049697 1.04997333,0.587789091 L10.2333067,8.42870303 C10.4396533,8.60482424 10.8936267,8.60482424 11.0999733,8.42870303 L20.2833067,0.587789091 C19.83504,0.277049697 19.2764,0.0877890909 18.66664,0.0877890909 L2.66664,0.0877890909 Z M0.349973333,1.31506182 C0.130373333,1.66769212 -2.66933331e-05,2.07632242 -2.66933331e-05,2.51203152 L-2.66933331e-05,10.7544485 C-2.66933331e-05,11.2481939 0.16496,11.7055515 0.441626667,12.0878061 L0.466693333,12.0727758 L7.17501333,7.14850909 L0.350026667,1.31518303 L0.349973333,1.31506182 Z M20.9833067,1.31506182 L14.15832,7.14838788 L20.86664,12.0726545 L20.8917067,12.0876848 C21.1683733,11.7054303 21.33336,11.2480727 21.33336,10.7543273 L21.33336,2.5119103 C21.33336,2.07620121 21.20296,1.66757091 20.98336,1.31494061 L20.9833067,1.31506182 Z M7.95832,7.81505455 L1.19997333,12.7771879 C1.62045333,13.0287273 2.12354667,13.1787152 2.66664,13.1787152 L18.66664,13.1787152 C19.2097333,13.1787152 19.7128267,13.0287273 20.1333067,12.7771879 L13.37496,7.81505455 L11.8333067,9.13323636 C11.1806667,9.69037576 10.1526133,9.69037576 9.49997333,9.13323636 L7.95832,7.81505455 Z" id="Shape-Copy-8"></path>
                                    </g>
                                </g>
                            </g>
                        </g>
                    </g>
                </g>
            </g>
        </g>
    </g>
</svg>