<?xml version="1.0" encoding="UTF-8"?>
<svg width="16px" height="22px" viewBox="0 0 16 22" version="1.1" xmlns="http://www.w3.org/2000/svg" xmlns:xlink="http://www.w3.org/1999/xlink">
    <!-- Generator: Sketch 54.1 (76490) - https://sketchapp.com -->
    <title>cil-location-pin</title>
    <desc>Created with Sketch.</desc>
    <g id="v1-design" stroke="none" stroke-width="1" fill="none" fill-rule="evenodd">
        <g id="Contact-US" transform="translate(-880.000000, -981.000000)" fill-rule="nonzero">
            <g id="Group-20" transform="translate(150.000000, 632.000000)">
                <g id="Group-19" transform="translate(722.000000, 40.000000)">
                    <g id="Group-17" transform="translate(0.000000, 100.000000)">
                        <g id="Group-16" transform="translate(0.000000, 204.000000)">
                            <g id="cil-location-pin">
                                <rect id="ViewBox" x="0" y="0" width="32" height="32"></rect>
                                <g id="Icon" transform="translate(8.000000, 5.333333)">
                                    <path d="M15.6781168,7.11681365 C15.2525064,3.15565829 11.9273648,0.0976040722 7.88742826,0.0976040722 C5.00724521,0.0971902393 2.35917178,1.67744126 0.992026417,4.21246949 C-0.375118943,6.74749772 -0.240768252,9.82831516 1.34186641,12.2347071 L1.32361224,12.204924 L6.76912003,20.5643741 C7.01510166,20.9406724 7.43390982,21.1679523 7.88347188,21.1691135 C8.33303394,21.1702746 8.75301057,20.9451612 9.00093276,20.5701385 L9.003815,20.5653348 L14.4493228,12.2058847 C15.2814843,10.9334712 15.7226985,9.44516635 15.7184681,7.92480096 C15.7184681,7.64042017 15.7030962,7.35988236 15.6742738,7.08318754 L15.6771561,7.1177744 L15.6781168,7.11681365 Z" id="Icon-Path" fill="#FFFFFF"></path>
                                    <path d="M7.88838901,5.0521707 C6.29657307,5.0521707 5.00615129,6.34259248 5.00615129,7.93440841 C5.00615129,9.52622435 6.29657307,10.8166461 7.88838901,10.8166461 C9.48020494,10.8166461 10.7706267,9.52622435 10.7706267,7.93440841 C10.7685097,6.3434702 9.47932722,5.05428772 7.88838901,5.0521707 L7.88838901,5.0521707 Z" id="Icon-Path" fill="#221F20"></path>
                                </g>
                            </g>
                        </g>
                    </g>
                </g>
            </g>
        </g>
    </g>
</svg>