<?xml version="1.0" encoding="UTF-8"?>
<svg width="22px" height="22px" viewBox="0 0 22 22" version="1.1" xmlns="http://www.w3.org/2000/svg" xmlns:xlink="http://www.w3.org/1999/xlink">
    <!-- Generator: Sketch 54.1 (76490) - https://sketchapp.com -->
    <title>Shape Copy 7</title>
    <desc>Created with Sketch.</desc>
    <g id="v1-design" stroke="none" stroke-width="1" fill="none" fill-rule="evenodd">
        <g id="Contact-US" transform="translate(-877.000000, -777.000000)" fill="#FFFFFF" fill-rule="nonzero">
            <g id="Group-20" transform="translate(150.000000, 632.000000)">
                <g id="Group-19" transform="translate(722.000000, 40.000000)">
                    <g id="Group-17" transform="translate(0.000000, 100.000000)">
                        <g id="Group-15">
                            <g id="Group-62">
                                <g id="noun_880089_cc" transform="translate(5.333333, 5.333333)">
                                    <path d="M21.2376813,17.0086233 L21.1257914,16.6853062 C20.8768838,15.9346132 20.060941,15.1590314 19.300232,14.9483064 L16.4942138,14.1855245 C15.7354012,13.977881 14.6504012,14.2571094 14.0971152,14.8162773 L13.0744606,15.8277099 C9.39394703,14.8345291 6.50519667,11.9388972 5.51075159,8.25654291 L6.5213164,7.24202881 C7.07341714,6.68594235 7.35148248,5.60292484 7.14998586,4.83919483 L6.38240226,2.04051073 C6.17782393,1.27891404 5.39483177,0.457821321 4.65450949,0.200637256 L4.33401134,0.0989488101 C3.59037028,-0.156813039 2.5124819,0.102030278 1.96630753,0.659064889 L0.437777883,2.17751754 C0.174884058,2.44750155 0.00135991044,3.21407598 0.00135991044,3.21834263 C-0.058140856,8.03609943 1.83711264,12.6784496 5.24785777,16.084657 C8.64840954,19.4849385 13.2690826,21.3750636 18.0658874,21.3326341 C18.0962304,21.3326341 18.8870454,21.1584127 19.1632143,20.8903249 L20.6765724,19.3730575 C21.2376813,18.8179191 21.4846924,17.7519682 21.2376813,17.0086233 Z" id="Shape-Copy-7"></path>
                                </g>
                            </g>
                        </g>
                    </g>
                </g>
            </g>
        </g>
    </g>
</svg>