<svg xmlns="http://www.w3.org/2000/svg" width="13.323" height="13.518" viewBox="0 0 13.323 13.518">
  <g id="hour" transform="translate(0.267 0.25)">
    <g id="Layer_2_19_" transform="translate(0 0)">
      <g id="Group_783" data-name="Group 783">
        <path id="Path_551" data-name="Path 551" d="M16.2,4.343a.514.514,0,0,0-.961.364,5.364,5.364,0,0,1-7.13,6.828,5.41,5.41,0,0,1-1.065-.607A5.364,5.364,0,0,1,12.17,1.607l-.364.615c-.1.169-.023.282.171.25l1.73-.279A.288.288,0,0,0,13.94,1.8L13.353.148c-.066-.185-.2-.2-.3-.029L12.7.712A6.391,6.391,0,0,0,4.292,8.978a6.349,6.349,0,0,0,2.147,2.779,6.438,6.438,0,0,0,1.269.723,6.392,6.392,0,0,0,8.5-8.136Z" transform="translate(-3.832 0)" fill="#ffaf41" stroke="#ffaf41" stroke-width="0.5"/>
        <path id="Path_552" data-name="Path 552" d="M213.338,90.917a.354.354,0,0,0-.354.355V94.8l3.23,1.67a.354.354,0,1,0,.325-.63l-2.847-1.472v-3.1A.354.354,0,0,0,213.338,90.917Z" transform="translate(-206.784 -88.038)" fill="#ffaf41" stroke="#ffaf41" stroke-width="0.5"/>
      </g>
    </g>
  </g>
</svg>
