<?xml version="1.0" encoding="UTF-8"?>
<svg width="14px" height="28px" viewBox="0 0 14 28" version="1.1" xmlns="http://www.w3.org/2000/svg" xmlns:xlink="http://www.w3.org/1999/xlink">
    <!-- Generator: Sketch 62 (91390) - https://sketch.com -->
    <title>Artboard</title>
    <desc>Created with Sketch.</desc>
    <g id="Artboard" stroke="none" stroke-width="1" fill="none" fill-rule="evenodd">
        <g id="clock-orange-ic" fill="#FFAF41" fill-rule="nonzero" stroke="#FFAF41" stroke-width="0.5">
            <path d="M12.635,4.593 C12.5293779,4.33532654 12.2377643,4.20863322 11.9773389,4.30727511 C11.7169134,4.40591701 11.5824099,4.69401163 11.674,4.957 C12.4350062,6.96896894 11.9204718,9.24096093 10.3668816,10.7287469 C8.81329139,12.2165328 6.52117073,12.6323166 4.544,11.785 C4.16714942,11.6236692 3.8098564,11.420029 3.479,11.178 C1.30678635,9.58499474 0.652946608,6.62803783 1.95099837,4.2676905 C3.24905013,1.90734316 6.09633158,0.875796325 8.605,1.857 L8.241,2.472 C8.141,2.641 8.218,2.754 8.412,2.722 L10.142,2.443 C10.23087,2.43232024 10.3097225,2.38092688 10.3553707,2.30393224 C10.4010189,2.22693761 10.408273,2.13309536 10.375,2.05 L9.788,0.398 C9.722,0.213 9.588,0.198 9.488,0.369 L9.135,0.962 C6.75960144,-0.0352824011 4.01767288,0.491180394 2.18053807,2.29728842 C0.343403265,4.10339645 -0.229681697,6.83596099 0.727,9.228 C1.1671502,10.3377704 1.91128544,11.3009524 2.874,12.007 C3.26820573,12.2953555 3.69394456,12.537916 4.143,12.73 C6.49933267,13.741696 9.2321858,13.2472646 11.0846783,11.4741024 C12.9371707,9.70094022 13.5506628,6.99232874 12.643,4.594 L12.635,4.593 Z" id="Path_551"></path>
            <path d="M6.821,3.129 C6.72693984,3.129 6.63674668,3.16643319 6.57032998,3.2330375 C6.50391328,3.29964182 6.46673429,3.38994022 6.46699859,3.484 L6.46699859,7.012 L9.697,8.682 C9.80953866,8.74005568 9.94450101,8.73366267 10.051048,8.66522916 C10.1575951,8.59679565 10.2195397,8.47671832 10.213548,8.35022913 C10.2075564,8.22373995 10.1345387,8.11005565 10.022,8.052 L7.175,6.58 L7.175,3.48 C7.17335302,3.28566378 7.0153432,3.129 6.821,3.129 Z" id="Path_552"></path>
        </g>
        <g id="clock-ic" transform="translate(0.000000, 14.000000)" fill="#56C482" fill-rule="nonzero" stroke="#56C482" stroke-width="0.5">
            <path d="M12.635,4.593 C12.5293779,4.33532654 12.2377643,4.20863322 11.9773389,4.30727511 C11.7169134,4.40591701 11.5824099,4.69401163 11.674,4.957 C12.4350062,6.96896894 11.9204718,9.24096093 10.3668816,10.7287469 C8.81329139,12.2165328 6.52117073,12.6323166 4.544,11.785 C4.16714942,11.6236692 3.8098564,11.420029 3.479,11.178 C1.30678635,9.58499474 0.652946608,6.62803783 1.95099837,4.2676905 C3.24905013,1.90734316 6.09633158,0.875796325 8.605,1.857 L8.241,2.472 C8.141,2.641 8.218,2.754 8.412,2.722 L10.142,2.443 C10.23087,2.43232024 10.3097225,2.38092688 10.3553707,2.30393224 C10.4010189,2.22693761 10.408273,2.13309536 10.375,2.05 L9.788,0.398 C9.722,0.213 9.588,0.198 9.488,0.369 L9.135,0.962 C6.75960144,-0.0352824011 4.01767288,0.491180394 2.18053807,2.29728842 C0.343403265,4.10339645 -0.229681697,6.83596099 0.727,9.228 C1.1671502,10.3377704 1.91128544,11.3009524 2.874,12.007 C3.26820573,12.2953555 3.69394456,12.537916 4.143,12.73 C6.49933267,13.741696 9.2321858,13.2472646 11.0846783,11.4741024 C12.9371707,9.70094022 13.5506628,6.99232874 12.643,4.594 L12.635,4.593 Z" id="Path_551"></path>
            <path d="M6.821,3.129 C6.72693984,3.129 6.63674668,3.16643319 6.57032998,3.2330375 C6.50391328,3.29964182 6.46673429,3.38994022 6.46699859,3.484 L6.46699859,7.012 L9.697,8.682 C9.80953866,8.74005568 9.94450101,8.73366267 10.051048,8.66522916 C10.1575951,8.59679565 10.2195397,8.47671832 10.213548,8.35022913 C10.2075564,8.22373995 10.1345387,8.11005565 10.022,8.052 L7.175,6.58 L7.175,3.48 C7.17335302,3.28566378 7.0153432,3.129 6.821,3.129 Z" id="Path_552"></path>
        </g>
    </g>
</svg>