<svg xmlns="http://www.w3.org/2000/svg" width="24.386" height="24.092" viewBox="0 0 24.386 24.092">
  <g id="edit" transform="translate(0.25 -0.011)">
    <path id="Path_870" data-name="Path 870" d="M21.884,51.679a.59.59,0,0,0-.591.591v5.243a1.773,1.773,0,0,1-1.772,1.772H2.953a1.773,1.773,0,0,1-1.772-1.772V42.125a1.774,1.774,0,0,1,1.772-1.772H8.2a.591.591,0,1,0,0-1.181H2.953A2.956,2.956,0,0,0,0,42.125V57.513a2.956,2.956,0,0,0,2.953,2.953h16.57a2.956,2.956,0,0,0,2.953-2.953V52.27A.59.59,0,0,0,21.884,51.679Zm0,0" transform="translate(0 -36.613)" fill="#51ba6c" stroke="#51ba6c" stroke-width="0.5"/>
    <path id="Path_871" data-name="Path 871" d="M124.042,1.039a2.657,2.657,0,0,0-3.758,0L109.748,11.574a.59.59,0,0,0-.152.26l-1.385,5a.59.59,0,0,0,.727.727l5-1.386a.59.59,0,0,0,.26-.152L124.735,5.49a2.66,2.66,0,0,0,0-3.758ZM111.035,11.958l8.622-8.623,2.781,2.781-8.623,8.623Zm-.555,1.115,2.222,2.222-3.073.851ZM123.9,4.655l-.626.626L120.492,2.5l.626-.626a1.476,1.476,0,0,1,2.088,0l.693.693A1.478,1.478,0,0,1,123.9,4.655Zm0,0" transform="translate(-101.801)" fill="#51ba6c" stroke="#51ba6c" stroke-width="0.5"/>
  </g>
</svg>
