<svg xmlns="http://www.w3.org/2000/svg" width="8.773" height="12.148" viewBox="0 0 8.773 12.148">
  <path id="euro-sign2" d="M8.322,42.226a.321.321,0,0,0-.386-.251,5.627,5.627,0,0,1-1.217.145,3.448,3.448,0,0,1-3.253-2.289H6.511a.321.321,0,0,0,.314-.251L7,38.82a.321.321,0,0,0-.314-.392h-3.6a5.782,5.782,0,0,1,0-1.132H7.017a.321.321,0,0,0,.314-.253l.174-.8a.321.321,0,0,0-.314-.39h-3.7a3.364,3.364,0,0,1,3.151-2.01,5.247,5.247,0,0,1,1.014.111.322.322,0,0,0,.375-.231l.321-1.188a.321.321,0,0,0-.25-.4A7.8,7.8,0,0,0,6.687,32a5.724,5.724,0,0,0-5.479,3.857H.321A.321.321,0,0,0,0,36.179v.8a.321.321,0,0,0,.321.321H.9a7.952,7.952,0,0,0,0,1.132H.321A.321.321,0,0,0,0,38.75v.76a.321.321,0,0,0,.321.321h.807A5.611,5.611,0,0,0,6.687,44a6.681,6.681,0,0,0,1.637-.209.322.322,0,0,0,.235-.374Z" transform="matrix(1, 0.017, -0.017, 1, 0.768, -31.995)" fill="#51ba6c"/>
</svg>
