<svg xmlns="http://www.w3.org/2000/svg" width="9.279" height="13" viewBox="0 0 9.279 13">
  <path id="euro-sign" d="M9.016,43.078a.348.348,0,0,0-.419-.272,6.1,6.1,0,0,1-1.318.157,3.736,3.736,0,0,1-3.525-2.48h3.3a.348.348,0,0,0,.34-.272l.185-.823a.348.348,0,0,0-.34-.425h-3.9a6.264,6.264,0,0,1,0-1.226H7.6a.348.348,0,0,0,.34-.274L8.13,36.6a.348.348,0,0,0-.34-.423H3.778A3.644,3.644,0,0,1,7.191,34a5.684,5.684,0,0,1,1.1.12.348.348,0,0,0,.406-.25l.348-1.287a.348.348,0,0,0-.271-.433A8.451,8.451,0,0,0,7.244,32a6.2,6.2,0,0,0-5.936,4.179H.348A.348.348,0,0,0,0,36.527v.863a.348.348,0,0,0,.348.348H.974a8.614,8.614,0,0,0-.005,1.226H.348A.348.348,0,0,0,0,39.313v.823a.348.348,0,0,0,.348.348h.874A6.079,6.079,0,0,0,7.244,45a7.237,7.237,0,0,0,1.773-.226.348.348,0,0,0,.255-.4Z" transform="translate(0 -32)" fill="#ffaf41"/>
</svg>
