<?xml version="1.0" encoding="UTF-8"?>
<svg width="14px" height="28px" viewBox="0 0 14 28" version="1.1" xmlns="http://www.w3.org/2000/svg" xmlns:xlink="http://www.w3.org/1999/xlink">
    <!-- Generator: Sketch 62 (91390) - https://sketch.com -->
    <title>Artboard</title>
    <desc>Created with Sketch.</desc>
    <g id="Artboard" stroke="none" stroke-width="1" fill="none" fill-rule="evenodd">
        <g id="euro-sign-orange" transform="translate(2.000000, 0.000000)" fill="#FFAF41" fill-rule="nonzero">
            <path d="M9.016,11.9301538 C8.9978117,11.8307006 8.94299103,11.7434231 8.86404369,11.688231 C8.78509635,11.6330389 8.68875606,11.6146397 8.597,11.6372308 C8.16468512,11.7450499 7.72273615,11.8017444 7.279,11.8063077 C5.69753294,11.8092493 4.28566937,10.7395297 3.754,9.13553846 L7.054,9.13553846 C7.21706198,9.1357404 7.35838885,9.01398187 7.394,8.84261538 L7.579,7.95630769 C7.60244007,7.84505038 7.57754584,7.72835301 7.51136805,7.63926753 C7.44519026,7.55018204 7.34493598,7.49841026 7.239,7.49861538 L3.339,7.49861538 C3.29891135,7.05957158 3.29891135,6.61735149 3.339,6.17830769 L7.6,6.17830769 C7.76366398,6.17828684 7.90519789,6.05545334 7.94,5.88323077 L8.13,4.95384615 C8.15273671,4.84290256 8.12751287,4.72684091 8.06141915,4.6382873 C7.99532543,4.54973368 7.89549824,4.49824958 7.79,4.49830769 L3.778,4.49830769 C4.37087648,3.04556634 5.71781816,2.12032375 7.191,2.15384615 C7.56069678,2.15829348 7.92910871,2.20157544 8.291,2.28307692 C8.47113054,2.32295531 8.64897961,2.20501826 8.697,2.01384615 L9.045,0.627846154 C9.0703845,0.527058811 9.05556895,0.419436 9.0041239,0.330914889 C8.95267886,0.242393777 8.86927039,0.181003249 8.774,0.161538462 C8.26961642,0.0577446496 7.75749805,0.00367483607 7.244,7.65191946e-15 C4.57140339,-0.0345797615 2.17905027,1.77921626 1.308,4.50046154 L0.348,4.50046154 C0.155804907,4.50046154 -1.43883946e-06,4.66825144 -1.43883946e-06,4.87523077 L-1.43883946e-06,5.80461538 C-1.43883946e-06,6.01159472 0.155804907,6.17938462 0.348,6.17938462 L0.974,6.17938462 C0.943216256,6.61880067 0.941545359,7.06002047 0.969,7.49969231 L0.348,7.49969231 C0.255531139,7.4996919 0.166864093,7.53932419 0.101572611,7.60984015 C0.036281129,7.6803561 -0.000265715119,7.77595702 -1.43883946e-06,7.87553846 L-1.43883946e-06,8.76184615 C-1.43883946e-06,8.96882548 0.155804907,9.13661538 0.348,9.13661538 L1.222,9.13661538 C1.94387869,12.0621068 4.43401456,14.0731477 7.244,14 C7.84206802,13.9980799 8.43760877,13.9163284 9.017,13.7566154 C9.19378512,13.70732 9.30511726,13.5192476 9.272,13.3258462 L9.016,11.9301538 Z" id="euro-sign"></path>
        </g>
        <g id="euro-sign-ic" transform="translate(2.000000, 14.000000)" fill="#51BA6C" fill-rule="nonzero">
            <path d="M9.38038653,11.0947215 C9.36180878,11.0030743 9.30575102,10.9226531 9.22497705,10.8717693 C9.14420309,10.8208854 9.04558795,10.8038698 8.95158535,10.8245966 C8.50794116,10.924459 8.05442179,10.977066 7.5990955,10.9814817 C5.97720324,10.9848951 4.52986825,9.99817826 3.98549111,8.51791631 L7.36928322,8.51614682 C7.53662085,8.51642573 7.6817891,8.40392321 7.71836528,8.24561512 L7.91327773,7.42692612 C7.93736678,7.32420654 7.91185088,7.21649552 7.84396501,7.13433433 C7.77607915,7.05217315 7.67322598,7.00452111 7.56456933,7.00488988 L3.56402694,7.00698188 C3.52310002,6.6015603 3.52332035,6.19318224 3.56468476,5.78771763 L7.9330548,5.78543328 C8.10106221,5.78549007 8.24646184,5.67191135 8.28213802,5.5127474 L8.47596246,4.65097544 C8.49926941,4.54857017 8.47338684,4.44149547 8.40559428,4.35986627 C8.33780172,4.27823707 8.23542321,4.2308723 8.1272529,4.23109337 L4.01558432,4.23324349 C4.62446915,2.89139549 6.00688206,2.03624452 7.51833822,2.0664644 C7.89705712,2.07055241 8.2744249,2.11039651 8.64509315,2.18543198 C8.82993212,2.22184377 9.01233768,2.11287698 9.06195056,1.93640661 L9.41935595,0.65663886 C9.44563897,0.563551117 9.43060664,0.464094388 9.37789166,0.382303276 C9.32517668,0.300512165 9.23957497,0.243827891 9.14177295,0.225948714 C8.62333734,0.131465523 8.09703358,0.0830697301 7.56941599,0.0813640327 C4.82834991,0.0512789441 2.373857,1.7266771 1.47857136,4.23887852 L0.492882169,4.23939397 C0.398082607,4.2394431 0.307162196,4.2760651 0.240198006,4.34117308 C0.173233817,4.40628107 0.135734268,4.49451931 0.13598002,4.58640302 L0.13551513,5.44807387 C0.135412108,5.6390238 0.295035352,5.79373579 0.492043623,5.79363276 L1.13546419,5.7932963 C1.10536161,6.19921728 1.10514178,6.60667082 1.13480637,7.01256055 L0.491385804,7.01289701 C0.295672151,7.01299107 0.136417419,7.16590992 0.13448598,7.35559771 L0.134044284,8.17418502 C0.133941312,8.36513495 0.293564556,8.51984693 0.490572827,8.51974391 L1.38736108,8.51927495 C2.12611291,11.2201028 4.67971083,13.0756866 7.56244264,13.0064268 C8.17609029,13.0042244 8.78716998,12.928291 9.38169962,12.780364 C9.56504843,12.7341406 9.67962935,12.557481 9.64306347,12.3773963 L9.38038653,11.0947215 Z" id="euro-sign2" transform="translate(4.891948, 6.544634) rotate(0.973934) translate(-4.891948, -6.544634) "></path>
        </g>
    </g>
</svg>