<svg xmlns="http://www.w3.org/2000/svg" width="12" height="12" viewBox="0 0 12 12">
  <path id="time-countdown" d="M0,6.75A5.218,5.218,0,0,1,5.25,1.5,5.133,5.133,0,0,1,8.4,2.55l.674-.676-.6-.6a.725.725,0,0,1,0-1.05.726.726,0,0,1,1.05,0l2.25,2.25a.725.725,0,0,1,0,1.05.726.726,0,0,1-1.051,0l-.6-.6L9.45,3.6A5.136,5.136,0,0,1,10.5,6.75,5.218,5.218,0,0,1,5.25,12,5.218,5.218,0,0,1,0,6.75Zm1.5,0A3.714,3.714,0,0,0,5.25,10.5,3.715,3.715,0,0,0,9,6.75,3.714,3.714,0,0,0,5.25,3,3.713,3.713,0,0,0,1.5,6.75Zm3,.75v-3H6V6H7.5V7.5Z" fill="#51ba6c"/>
</svg>
