<?xml version="1.0" encoding="UTF-8"?>
<svg width="45px" height="45px" viewBox="0 0 45 45" version="1.1" xmlns="http://www.w3.org/2000/svg" xmlns:xlink="http://www.w3.org/1999/xlink">
    <!-- Generator: Sketch 62 (91390) - https://sketch.com -->
    <title>Artboard</title>
    <desc>Created with Sketch.</desc>
    <g id="Artboard" stroke="none" stroke-width="1" fill="none" fill-rule="evenodd">
        <g id="boost-ic" transform="translate(4.000000, 0.000000)" fill="#51BA6C" fill-rule="nonzero">
            <path d="M33.26,26.236 C31.8966015,25.1641888 30.3243631,24.388969 28.644,23.96 C29.1554929,21.9163935 29.4494606,19.8244298 29.521,17.719 C29.5439006,13.6810549 28.3137077,9.73542322 26,6.426 C25.866204,6.23218341 25.6391716,6.12446878 25.4044235,6.14343119 C25.1696754,6.1623936 24.9628756,6.3051522 24.8619235,6.5179312 C24.7609714,6.73071021 24.781204,6.98118342 24.915,7.175 C27.0744127,10.2652014 28.2221466,13.9491303 28.2,17.719 C28.2,23.547 23.9,35.177 23,37.528 L14.767,37.528 C13.874,35.177 9.567,23.546 9.567,17.719 C9.567,7.669 17.225,2.412 18.883,1.392 C20.4877523,2.40877117 21.9467862,3.63904248 23.22,5.049 C23.3782687,5.22334562 23.6175272,5.3000123 23.8476493,5.25012043 C24.0777713,5.20022856 24.2637959,5.0313579 24.3356493,4.80712041 C24.4075027,4.58288292 24.3542687,4.33734561 24.196,4.163 C22.7797354,2.58176239 21.1376825,1.21838334 19.323,0.117 C19.0522741,-0.0393036956 18.7187259,-0.0393036956 18.448,0.117 C17.404,0.717 8.248,6.353 8.248,17.717 C8.31959477,19.8220957 8.61356212,21.913722 9.125,23.957 C8.61879926,24.0903935 8.12065083,24.252659 7.633,24.443 C7.29389716,24.5752722 7.1262278,24.9573972 7.2585,25.2965 C7.3907722,25.6356028 7.77289716,25.8032722 8.112,25.671 C8.54336026,25.5030583 8.98370318,25.3591707 9.431,25.24 C10.4,29.1 11.747,33.091 12.67,35.66 C11.0655052,35.8374256 9.59070397,36.625132 8.551,37.86 C7.40478608,39.4810783 6.90548397,41.4718672 7.151,43.442 C5.493,42.634 2.314,40.274 2.314,34.08 C2.17757752,31.2714922 3.47132772,28.5846462 5.752,26.94 C5.94295846,26.8020955 6.04584018,26.5727913 6.02189059,26.3384642 C5.997941,26.1041371 5.85079863,25.9003868 5.63589059,25.8039642 C5.42098254,25.7075416 5.17095846,25.7330955 4.98,25.871 C2.36593363,27.771633 0.872886165,30.8515123 1,34.081 C1,42.032 5.836,44.405 7.317,44.943 C7.62157481,45.0537994 7.96199279,44.9959745 8.21289813,44.7908189 C8.46380347,44.5856633 8.58809367,44.2635142 8.54,43.943 C8.388,42.943 8.186,40.425 9.579,38.688 C10.4811561,37.6517313 11.7599244,37.0188274 13.131,36.93 C13.448,37.785 13.659,38.33 13.699,38.43 C13.7978495,38.6827844 14.0415757,38.8491057 14.313,38.849 L15.149,38.849 L15.149,42.584 C15.149,42.9479557 15.4440443,43.243 15.808,43.243 L21.96,43.243 C22.3239557,43.243 22.619,42.9479557 22.619,42.584 L22.619,38.846 L23.455,38.846 C23.7264243,38.8461057 23.9701505,38.6797844 24.069,38.427 C24.11,38.327 24.321,37.781 24.637,36.927 C25.4751752,37.0113734 26.2870164,37.2673501 27.022,37.679 C27.3354216,37.8640154 27.7394846,37.7599216 27.9245,37.4465 C28.1095154,37.1330784 28.0054216,36.7290154 27.692,36.544 C26.8915264,36.087798 26.0115326,35.7881318 25.099,35.661 C26.022,33.092 27.37,29.103 28.335,25.242 C30.882,25.917 35.451,27.979 35.451,34.081 C35.451,40.275 32.271,42.635 30.613,43.443 C30.779433,41.8689781 30.5160956,40.2792774 29.851,38.843 C29.7475377,38.6269338 29.5349718,38.4840319 29.2958361,38.4697792 C29.0567003,38.4555266 28.8286654,38.5721685 28.7002714,38.7744159 C28.5718774,38.9766633 28.5633499,39.2326565 28.678,39.443 C29.2992627,40.8564334 29.4908878,42.4214297 29.229,43.943 C29.1809063,44.2635142 29.3051965,44.5856633 29.5561019,44.7908189 C29.8070072,44.9959745 30.1474252,45.0537994 30.452,44.943 C31.934,44.405 36.77,42.032 36.77,34.081 C36.8997333,31.0588476 35.5989489,28.1519964 33.259,26.235 L33.26,26.236 Z M21.3,41.922 L16.469,41.922 L16.469,38.846 L21.3,38.846 L21.3,41.922 Z" id="Path_1776"></path>
            <path d="M21.32,15.625 C21.0087509,15.5800159 20.7395335,15.3848332 20.6,15.103 L20.11,14.113 C19.8794999,13.6477799 19.4051917,13.3534487 18.886,13.3534487 C18.3668083,13.3534487 17.8925001,13.6477799 17.662,14.113 L17.172,15.103 C17.0324665,15.3848332 16.7632491,15.5800159 16.452,15.625 L15.352,15.784 C14.8379781,15.8580896 14.4107266,16.2178476 14.2501981,16.7117488 C14.0896696,17.20565 14.223763,17.7478572 14.596,18.11 L15.389,18.881 C15.6142292,19.0993604 15.7171407,19.4148309 15.664,19.724 L15.477,20.812 C15.3897542,21.3237863 15.6003905,21.8407586 16.0204634,22.1458418 C16.4405363,22.4509251 16.9973112,22.4912948 17.457,22.25 L18.437,21.736 C18.7160147,21.5898271 19.0489853,21.5898271 19.328,21.736 L20.308,22.25 C20.7676888,22.4912948 21.3244637,22.4509251 21.7445366,22.1458418 C22.1646095,21.8407586 22.3752458,21.3237863 22.288,20.812 L22.101,19.724 C22.0478593,19.4148309 22.1507708,19.0993604 22.376,18.881 L23.169,18.11 C23.541237,17.7478572 23.6753304,17.20565 23.5148019,16.7117488 C23.3542734,16.2178476 22.9270219,15.8580896 22.413,15.784 L21.32,15.625 Z M22.27,17.183 L21.477,17.954 C20.9461283,18.4695182 20.7036799,19.2136999 20.829,19.943 L21.016,21.031 C21.0190436,21.0564863 21.0080946,21.081631 20.9873633,21.0967649 C20.9666321,21.1118987 20.9393468,21.114665 20.916,21.104 L19.936,20.59 C19.2806699,20.2462746 18.4983301,20.2462746 17.843,20.59 L16.863,21.104 C16.8396532,21.114665 16.8123679,21.1118987 16.7916367,21.0967649 C16.7709054,21.081631 16.7599564,21.0564863 16.763,21.031 L16.95,19.943 C17.0753201,19.2136999 16.8328717,18.4695182 16.302,17.954 L15.509,17.183 C15.4892749,17.1645344 15.4821428,17.1362548 15.4907517,17.1106434 C15.4993606,17.085032 15.5221261,17.0668021 15.549,17.064 L16.649,16.905 C17.3812191,16.799071 18.0145701,16.3399476 18.343,15.677 L18.833,14.687 C18.8451556,14.6624959 18.8701466,14.6469961 18.8975,14.6469961 C18.9248534,14.6469961 18.9498444,14.6624959 18.962,14.687 L19.452,15.677 C19.7804299,16.3399476 20.4137809,16.799071 21.146,16.905 L22.246,17.064 C22.2702362,17.0714068 22.2884617,17.0915035 22.2934719,17.116346 C22.2984822,17.1411885 22.2894708,17.1667784 22.27,17.183 L22.27,17.183 Z" id="Path_1777"></path>
            <path d="M18.886,11.044 C14.8620533,11.044 11.6,14.3060533 11.6,18.33 C11.6,22.3539467 14.8620533,25.616 18.886,25.616 C22.9099467,25.616 26.172,22.3539467 26.172,18.33 C26.167591,14.307881 22.908119,11.048409 18.886,11.044 L18.886,11.044 Z M18.886,24.323 C15.5761575,24.323 12.893,21.6398425 12.893,18.33 C12.893,15.0201575 15.5761575,12.337 18.886,12.337 C22.1958425,12.337 24.879,15.0201575 24.879,18.33 C24.8751426,21.6382434 22.1942434,24.3191426 18.886,24.323 Z" id="Path_1778"></path>
        </g>
    </g>
</svg>