<svg id="Group_1366" data-name="Group 1366" xmlns="http://www.w3.org/2000/svg" width="179.431" height="75.208" viewBox="0 0 179.431 75.208">
  <path id="Path_934" data-name="Path 934" d="M1402.181,765.627a9.412,9.412,0,1,0,9.411,9.412A9.419,9.419,0,0,0,1402.181,765.627Z" transform="translate(-1325.752 -737.971)" fill="none"/>
  <path id="Path_935" data-name="Path 935" d="M1285.952,765.627a9.412,9.412,0,1,0,9.412,9.412A9.419,9.419,0,0,0,1285.952,765.627Z" transform="translate(-1267.792 -737.971)" fill="none"/>
  <path id="Path_936" data-name="Path 936" d="M1346.794,749.949v35.507h8.745V746.441C1349.119,746.441,1346.794,749.949,1346.794,749.949Z" transform="translate(-1302.826 -728.404)" fill="#152c53"/>
  <path id="Path_937" data-name="Path 937" d="M1461.182,749.949v35.507h8.745V746.441C1463.536,746.443,1461.182,749.949,1461.182,749.949Z" transform="translate(-1359.868 -728.404)" fill="#152c53"/>
  <path id="Path_938" data-name="Path 938" d="M1572.133,749.927l0,15.523a9.414,9.414,0,0,1-18.828,0V746.4c-6.411,0-8.744,3.507-8.744,3.507V765.45a18.154,18.154,0,0,0,27.571,15.525v4.48a9.414,9.414,0,0,1-18.828-.019h-8.743a18.157,18.157,0,0,0,36.314.019V746.421C1574.457,746.421,1572.133,749.927,1572.133,749.927Z" transform="translate(-1401.448 -728.382)" fill="#152c53"/>
  <path id="Path_939" data-name="Path 939" d="M1402.891,749.952a18.157,18.157,0,1,0,0,31.046v4.461a9.411,9.411,0,0,1-18.823,0h-8.747a18.16,18.16,0,0,0,36.219,1.9,18.757,18.757,0,0,0,.1-1.9V746.444C1405.18,746.444,1402.891,749.952,1402.891,749.952Zm-9.412,24.933a9.412,9.412,0,1,1,9.412-9.411A9.419,9.419,0,0,1,1393.48,774.885Z" transform="translate(-1317.051 -728.406)" fill="#152c53"/>
  <path id="Path_940" data-name="Path 940" d="M1286.662,749.952a18.157,18.157,0,1,0,0,31.046v4.461a9.411,9.411,0,0,1-18.823,0h-8.748a18.16,18.16,0,0,0,36.219,1.9,18.847,18.847,0,0,0,.1-1.9V746.444C1289.03,746.444,1286.662,749.952,1286.662,749.952Zm-9.411,24.933a9.412,9.412,0,1,1,9.411-9.411A9.419,9.419,0,0,1,1277.25,774.885Z" transform="translate(-1259.091 -728.406)" fill="#152c53"/>
  <g id="Group_1365" data-name="Group 1365" transform="translate(115.274)">
    <path id="Path_941" data-name="Path 941" d="M1496.1,728.5h-7.073v8.745h7.073v30.313h8.745V737.245h7.642V728.5h-7.642a9.43,9.43,0,0,1,7.642-9.206v-8.831A18.189,18.189,0,0,0,1496.1,728.5Z" transform="translate(-1489.027 -710.463)" fill="#152c53"/>
  </g>
</svg>
