<svg id="Gigify_Logo" data-name="Gigify Logo" xmlns="http://www.w3.org/2000/svg" width="143.676" height="40" viewBox="0 0 143.676 40">
  <path id="Path_12" data-name="Path 12" d="M255.172,265.8a9.62,9.62,0,0,0-4.017,2.073l-.034.029c-.166.145-.329.293-.487.451a9.648,9.648,0,0,0,0,13.658h0l.01.009a9.681,9.681,0,0,0,13.473.177c.065-.062.132-.122.2-.187h0c.145-.145.282-.294.416-.445.038-.043.075-.086.112-.13q.156-.183.3-.372c.027-.036.056-.071.082-.107q.184-.246.352-.5l.021-.034q.158-.245.3-.5l.044-.079a9.637,9.637,0,0,0-1.63-11.492l-7.167-7.156A5.848,5.848,0,0,0,255.172,265.8Zm5.847,12.921a5.009,5.009,0,1,1,0-7.079A5.023,5.023,0,0,1,261.018,278.72Z" transform="translate(-239.003 -256.181)" fill="#51ba6c"/>
  <g id="Group_5" data-name="Group 5" transform="translate(0 24.073)">
    <path id="Path_13" data-name="Path 13" d="M255.126,314.087a14.336,14.336,0,0,1-24.846,0c-2.123-2.12-5.884-2.115-5.884-2.115a19.009,19.009,0,0,0,18.307,13.95h0a19.009,19.009,0,0,0,18.306-13.95S257.248,311.968,255.126,314.087Z" transform="translate(-224.396 -311.971)" fill="#51ba6c"/>
  </g>
  <path id="Path_14" data-name="Path 14" d="M257.8,335.264l.171-.013q.24-.019.477-.05l.133-.017c.2-.029.4-.064.6-.106l.039-.009q.285-.061.564-.14l.087-.025a9.653,9.653,0,0,0,6.893-7.942,14.331,14.331,0,0,1-19.157,0,9.666,9.666,0,0,0,9.307,8.315c.09,0,.18.007.271.007h0C257.4,335.285,257.6,335.276,257.8,335.264Z" transform="translate(-238.887 -297.262)" fill="#30975d"/>
  <g id="Group_7" data-name="Group 7" transform="translate(48.103)">
    <path id="Path_17" data-name="Path 17" d="M414.66,275.26v18.885h4.658v-20.75C415.9,273.395,414.66,275.26,414.66,275.26Z" transform="translate(-391.24 -263.802)" fill="#fff"/>
    <path id="Path_18" data-name="Path 18" d="M495.918,275.26v18.885h4.658v-20.75C497.171,273.4,495.918,275.26,495.918,275.26Z" transform="translate(-441.953 -263.802)" fill="#fff"/>
    <path id="Path_19" data-name="Path 19" d="M569.835,275.24V283.5a5.014,5.014,0,0,1-10.029,0V273.363c-3.415,0-4.657,1.865-4.657,1.865V283.5a9.672,9.672,0,0,0,14.686,8.257v2.383a5.014,5.014,0,0,1-10.029-.011H555.15a9.671,9.671,0,0,0,19.342.011V273.376C571.072,273.376,569.835,275.24,569.835,275.24Z" transform="translate(-478.919 -263.782)" fill="#fff"/>
    <path id="Path_20" data-name="Path 20" d="M449.61,275.262a9.657,9.657,0,1,0,0,16.512v2.373a5.013,5.013,0,0,1-10.026,0h-4.659a9.673,9.673,0,0,0,19.292,1.012,9.978,9.978,0,0,0,.053-1.012V273.4C450.829,273.4,449.61,275.262,449.61,275.262ZM444.6,288.523a5.006,5.006,0,1,1,5.013-5.006A5.013,5.013,0,0,1,444.6,288.523Z" transform="translate(-403.888 -263.803)" fill="#fff"/>
    <path id="Path_21" data-name="Path 21" d="M367.045,275.262a9.657,9.657,0,1,0,0,16.512v2.373a5.013,5.013,0,0,1-10.026,0h-4.659a9.674,9.674,0,0,0,19.292,1.012,9.97,9.97,0,0,0,.053-1.012V273.4C368.306,273.4,367.045,275.262,367.045,275.262Zm-5.013,13.261a5.006,5.006,0,1,1,5.013-5.006A5.013,5.013,0,0,1,362.032,288.523Z" transform="translate(-352.359 -263.803)" fill="#fff"/>
    <g id="Group_6" data-name="Group 6" transform="translate(61.401)">
      <path id="Path_22" data-name="Path 22" d="M519.465,257.43H515.7v4.651h3.767V278.2h4.658V262.082h4.07V257.43h-4.07a5.017,5.017,0,0,1,4.07-4.9v-4.7A9.679,9.679,0,0,0,519.465,257.43Z" transform="translate(-515.698 -247.837)" fill="#fff"/>
    </g>
  </g>
  <path id="Path_23" data-name="Path 23" d="M255.172,265.8a9.62,9.62,0,0,0-4.017,2.073l-.034.029c-.166.145-.329.293-.487.451a9.648,9.648,0,0,0,0,13.658h0l.01.009a9.681,9.681,0,0,0,13.473.177c.065-.062.132-.122.2-.187h0c.145-.145.282-.294.416-.445.038-.043.075-.086.112-.13q.156-.183.3-.372c.027-.036.056-.071.082-.107q.184-.246.352-.5l.021-.034q.158-.245.3-.5l.044-.079a9.637,9.637,0,0,0-1.63-11.492l-7.167-7.156A5.848,5.848,0,0,0,255.172,265.8Zm5.847,12.921a5.009,5.009,0,1,1,0-7.079A5.023,5.023,0,0,1,261.018,278.72Z" transform="translate(-239.003 -256.181)" fill="#51ba6c"/>
</svg>
