<?xml version="1.0" encoding="UTF-8"?>
<svg width="200px" height="200px" viewBox="0 0 200 200" version="1.1" xmlns="http://www.w3.org/2000/svg" xmlns:xlink="http://www.w3.org/1999/xlink">
    <!-- Generator: Sketch 62 (91390) - https://sketch.com -->
    <title>Artboard</title>
    <desc>Created with Sketch.</desc>
    <g id="Artboard" stroke="none" stroke-width="1" fill="none" fill-rule="evenodd">
        <g id="how-work-3" fill-rule="nonzero">
            <path d="M199.051528,98.1912664 C202.303057,87.0995633 194.731004,74.8227074 192.578166,71.5868996 C181.993013,55.6733624 164.731004,49.660262 131.071616,38.1816594 C67.3868996,16.4637555 52.0803493,1.66550218 44.3877729,8.18777293 C35.5048035,15.720524 53.6366812,34.9781659 53.3886463,60.0960699 C53.0209607,97.2087336 -2.9650655,97.4279476 0.123144105,123.268996 C1.03755459,130.922271 11.0401747,139.862882 30.2707424,157.679476 C53.6069869,179.30917 65.2751092,190.124017 81.1737991,195.184279 C110.409607,204.49083 144.996507,194.076856 156.492576,172.953712 C167.060262,153.537991 151.104803,137.958952 165.08559,122.169432 C176.918777,108.80524 194.80786,112.669869 199.051528,98.1912664 Z" id="Path_1713" fill="#EBF6F1"></path>
            <g id="Group_1693" transform="translate(37.081223, 0.000000)">
                <path d="M118.474236,86.4908297 C114.068122,74.8340611 103.482096,69.4820961 98.4847162,67.8139738 C96.7048035,67.2235808 93.5266376,66.1860262 90.1772926,65.1021834 C84.1423581,63.1519651 77.549345,61.031441 77.549345,61.031441 L56.7248908,61.031441 C56.7248908,61.031441 49.5144105,63.4480349 41.850655,66.1336245 C41.8509101,66.135391 41.8503805,66.1371807 41.8492051,66.1385239 C41.8480298,66.1398671 41.8463262,66.1406297 41.8445415,66.1406114 C34.7851528,68.6157205 27.3510917,71.3152838 24.8427948,72.5764192 C19.6087336,75.1895197 10.8026201,93.8724891 9.02358079,96.0139738 C8.10393013,97.1170306 4.01921397,104.393013 0,112.520524 L22.4331878,112.520524 C24.8043668,108.448908 26.6253275,105.289956 26.6253275,105.289956 C26.6253275,105.289956 28.0445415,108.40262 29.7641921,112.520524 L101.633188,112.520524 C102.768559,107.739738 103.478603,101.717904 103.478603,101.717904 C103.478603,101.717904 107.326638,106.951965 111.530131,112.520524 L126.976419,112.520524 C126.069869,111 130.390393,109.39738 129.434934,107.751965 C125.081223,100.255022 120.510044,91.8864629 118.474236,86.4908297 Z" id="Path_1714" fill="#385369"></path>
                <g id="Group_1689" transform="translate(50.134498, 3.655022)" fill="#F6D9C0">
                    <path d="M19.4838428,0.152838428 C19.4838428,0.152838428 35.7659389,2.71790393 33.2829694,28.1930131 C30.8,53.6681223 16.4331878,51.5799127 15.4724891,51.5545852 C14.5117904,51.5292576 1.04628821,52.019214 -0.00349344978,20.9152838 C0.000873362445,20.9152838 -0.457641921,-2.08384279 19.4838428,0.152838428 Z" id="Path_1715"></path>
                </g>
                <g id="Group_1690" transform="translate(82.726638, 23.813100)" fill="#F6D9C0">
                    <path d="M0.946724891,0.83930131 C0.946724891,0.83930131 2.730131,-1.06550218 3.38340611,0.862882096 C4.03668122,2.79126638 0.951091703,11.3895197 0.841048035,11.7921397 C0.841048035,11.7921397 0.515283843,12.539738 0.0873362445,12.1283843 C-0.340611354,11.7170306 0.946724891,0.83930131 0.946724891,0.83930131 Z" id="Path_1716"></path>
                </g>
                <g id="Group_1691" transform="translate(48.030568, 23.461135)" fill="#F6D9C0">
                    <path d="M2.54323144,0.868995633 C2.54323144,0.868995633 0.79650655,-1.069869 0.106550218,0.845414847 C-0.583406114,2.76069869 2.30742358,11.4131004 2.43755459,11.8218341 C2.43755459,11.8218341 2.74847162,12.5755459 3.18427948,12.171179 C3.62008734,11.7668122 2.54323144,0.868995633 2.54323144,0.868995633 Z" id="Path_1717"></path>
                </g>
                <g id="Group_1692" transform="translate(47.380786, 0.000000)" fill="#434343">
                    <path d="M36.2847162,28.558952 L33.9537118,31.6759825 C33.9537118,31.6759825 34.019214,24.8436681 33.6454148,23.7720524 C33.2716157,22.7004367 32.69869,19.4279476 32.3860262,18.6558952 C32.0733624,17.8838428 18.4043668,14.0541485 6.32925764,19.7746725 C6.32925764,19.7746725 6.86113537,24.6873362 5.70305677,25.1248908 C4.54497817,25.5624454 5.11353712,33.1266376 5.11353712,33.1266376 L3.19213974,30.9641921 C3.19213974,30.9641921 0.258515284,11.3650655 0.983406114,9.32227074 C1.70829694,7.27947598 4.01659389,-5.00087336 28.7877729,2.28820961 C28.7877729,2.28820961 36.5100437,0.652401747 38.0593886,5.98427948 C39.6087336,11.3161572 36.2847162,28.558952 36.2847162,28.558952 Z" id="Path_1718"></path>
                </g>
                <path d="M79.568559,60.5703057 C79.5615721,60.5475983 77.479476,59.5441048 77.479476,59.5441048 C76.4655022,57.2733624 77.2174672,47.7056769 77.2174672,47.7056769 C77.2174672,47.7056769 56.479476,42.4279476 57.0716157,46.4637555 C57.6637555,50.4995633 55.2847162,59.8759825 55.2847162,59.8759825 L44.6462882,65.1580786 C44.6462882,65.1580786 55.980786,95.5930131 69.0087336,91.6672489 C82.0366812,87.7414847 86.9554585,64.0611354 86.9554585,64.0611354 L79.568559,60.5703057 Z" id="Path_1719" fill="#F6D9C0"></path>
                <path d="M57.3720524,50.9467249 C59.6597484,53.6283379 62.9883391,55.1991299 66.5126638,55.260262 C70.3266376,55.260262 73.0628821,54.190393 76.8655022,50.4855895 C76.8655022,50.4855895 75.2183406,57.5222707 66.5379913,58.1772926 C66.5371179,58.1772926 60.2436681,58.9772926 57.3720524,50.9467249 Z" id="Path_1720" fill="#F3CBA8"></path>
            </g>
            <rect id="Rectangle_1118" fill="#EBEEF2" x="23.4427948" y="110.671616" width="149.596507" height="21.4279476"></rect>
            <g id="Group_1694" transform="translate(46.451528, 114.893450)" fill="#51BA6C">
                <polygon id="Path_1721" points="6.25414847 0 7.96681223 3.87947598 12.1336245 4.66550218 8.97379913 7.49344978 9.51179039 11.6995633 5.84366812 9.56768559 2.00960699 11.3790393 2.90393013 7.23406114 -0.00349344978 4.14759825 4.21484716 3.71703057"></polygon>
                <polygon id="Path_1722" points="21.8532751 0.00524017467 23.5659389 3.88471616 27.7327511 4.67074236 24.5720524 7.49868996 25.1100437 11.7048035 21.4419214 9.57292576 17.6078603 11.3842795 18.5021834 7.23930131 15.5947598 4.15283843 19.8139738 3.72227074"></polygon>
                <polygon id="Path_1723" points="37.450655 0.0113537118 39.1633188 3.89082969 43.330131 4.6768559 40.1703057 7.50480349 40.7082969 11.710917 37.0401747 9.5790393 33.2061135 11.390393 34.1004367 7.24541485 31.1930131 4.15895197 35.4122271 3.72838428"></polygon>
                <polygon id="Path_1724" points="53.0480349 0.0165938865 54.7606987 3.89606987 58.9275109 4.68209607 55.7676856 7.51004367 56.3056769 11.7161572 52.6375546 9.58427948 48.8034934 11.3956332 49.6978166 7.25065502 46.7895197 4.16419214 51.0087336 3.73362445"></polygon>
                <polygon id="Path_1725" points="68.6454148 0.0209606987 70.3580786 3.90043668 74.5248908 4.68646288 71.3650655 7.51441048 71.9030568 11.720524 68.2349345 9.58864629 64.4008734 11.4 65.2951965 7.25502183 62.3877729 4.16855895 66.6069869 3.73799127"></polygon>
            </g>
            <polygon id="Path_1726" fill="#51BA6C" points="125.657642 131.138865 139.565939 149.50131 176.765939 105.979913 139.636681 139.621834"></polygon>
            <g id="Group_1701" opacity="0.39" transform="translate(59.510917, 145.507424)" fill="#152C53">
                <g id="Group_1695">
                    <path d="M1.50567686,0 L10.4043668,0 C11.2359292,0 11.9100439,0.67411449 11.9100439,1.50567686 L11.9100439,2.08384279 C11.9102754,2.48309279 11.7518363,2.86606986 11.4696058,3.14846418 C11.1873753,3.43085849 10.8044902,3.58951965 10.4052402,3.58951965 L1.50567686,3.58951965 C0.67411449,3.58951965 0,2.91540516 0,2.08384279 L0,1.50567686 C0,0.67411449 0.67411449,0 1.50567686,0 Z" id="Rectangle_1119"></path>
                </g>
                <g id="Group_1696" transform="translate(0.000000, 8.606987)">
                    <rect id="Rectangle_1120" x="0" y="0" width="11.910917" height="3.58951965" rx="1.724"></rect>
                </g>
                <g id="Group_1697" transform="translate(0.000000, 17.213974)">
                    <path d="M1.50655022,0 L10.4043668,0 C11.2359292,0 11.9100437,0.67411449 11.9100437,1.50567686 L11.9100437,2.08384279 C11.9100437,2.48317313 11.7514103,2.86614793 11.4690411,3.14851711 C11.1866719,3.43088629 10.8036971,3.58951965 10.4043668,3.58951965 L1.50567686,3.58951965 C0.67411449,3.58951965 0,2.91540516 0,2.08384279 L0,1.50655022 C0,0.674505508 0.674505508,0 1.50655022,0 Z" id="Rectangle_1121"></path>
                </g>
                <g id="Group_1698" transform="translate(16.827948, 0.000000)">
                    <path d="M1.50567686,0 L1.88296943,0 C2.7145318,0 3.38864654,0.67411449 3.38864654,1.50567686 L3.38864654,2.08384279 C3.38887801,2.48309279 3.23043897,2.86606986 2.94820845,3.14846418 C2.66597793,3.43085849 2.28309286,3.58951965 1.88384279,3.58951965 L1.50480349,3.58951965 C1.10555343,3.58951965 0.722668356,3.43085849 0.44043784,3.14846418 C0.158207323,2.86606986 -0.000231717972,2.48309279 -2.53809014e-07,2.08384279 L-2.53809014e-07,1.50567686 C-2.53809014e-07,0.67411449 0.67411449,0 1.50567686,0 Z" id="Rectangle_1122"></path>
                </g>
                <g id="Group_1699" transform="translate(16.827948, 8.606987)">
                    <path d="M1.50567686,0 L1.88296943,0 C2.7145318,0 3.38864629,0.67411449 3.38864629,1.50567686 L3.38864629,2.08384279 C3.38864629,2.91540516 2.7145318,3.58951965 1.88296943,3.58951965 L1.50480349,3.58951965 C1.10555343,3.58951965 0.722668356,3.43085849 0.44043784,3.14846418 C0.158207323,2.86606986 -0.000231717972,2.48309279 -2.53809014e-07,2.08384279 L-2.53809014e-07,1.50567686 C-2.53809014e-07,0.67411449 0.67411449,0 1.50567686,0 Z" id="Rectangle_1123"></path>
                </g>
                <g id="Group_1700" transform="translate(16.827948, 17.213974)">
                    <path d="M1.50655022,0 L1.88384279,0 C2.71506407,0.000482146993 3.38864629,0.67445544 3.38864629,1.50567686 L3.38864629,2.08384279 C3.38864629,2.91540516 2.7145318,3.58951965 1.88296943,3.58951965 L1.50480349,3.58951965 C0.673723473,3.58951965 0,2.91579618 0,2.08471616 L0,1.50655022 C0,0.674505508 0.674505508,0 1.50655022,0 Z" id="Rectangle_1124"></path>
                </g>
            </g>
            <rect id="Rectangle_1125" fill="#152C53" opacity="0.44" x="89.3353712" y="145.585153" width="27.9545852" height="2.77816594"></rect>
            <rect id="Rectangle_1126" fill="#152C53" opacity="0.44" x="89.3353712" y="154.338865" width="20.0358079" height="2.77816594"></rect>
        </g>
    </g>
</svg>