<?xml version="1.0" encoding="UTF-8"?>
<svg width="200px" height="200px" viewBox="0 0 200 200" version="1.1" xmlns="http://www.w3.org/2000/svg" xmlns:xlink="http://www.w3.org/1999/xlink">
    <!-- Generator: Sketch 62 (91390) - https://sketch.com -->
    <title>Artboard</title>
    <desc>Created with Sketch.</desc>
    <defs>
        <linearGradient x1="52.5%" y1="194.6%" x2="49.8%" y2="36.5%" id="linearGradient-1">
            <stop stop-color="#D1D7E0" offset="0%"></stop>
            <stop stop-color="#EBEBFF" offset="100%"></stop>
        </linearGradient>
        <linearGradient x1="-1885.9%" y1="3711%" x2="-1773.1%" y2="3711%" id="linearGradient-2">
            <stop stop-color="#14294B" offset="0%"></stop>
            <stop stop-color="#142B52" offset="100%"></stop>
        </linearGradient>
        <linearGradient x1="0%" y1="-3237%" x2="100.1%" y2="-3237%" id="linearGradient-3">
            <stop stop-color="#14294B" offset="0%"></stop>
            <stop stop-color="#142B52" offset="100%"></stop>
        </linearGradient>
        <linearGradient x1="-883.8%" y1="-1278.3%" x2="-783.8%" y2="-1278.3%" id="linearGradient-4">
            <stop stop-color="#14294B" offset="0%"></stop>
            <stop stop-color="#142B52" offset="100%"></stop>
        </linearGradient>
    </defs>
    <g id="Artboard" stroke="none" stroke-width="1" fill="none" fill-rule="evenodd">
        <g id="how-works-1" transform="translate(0.000000, 9.000000)" fill-rule="nonzero">
            <path d="M3.70316742,24.9719457 C7.01447964,13.1067873 20.7782805,6.27330317 24.5484163,4.560181 C43.0877828,-3.86606335 62.0877828,0.422624434 98.9963801,9.00904977 C168.827149,25.2542986 191.008145,20.4968326 194.290498,30.7285068 C198.079638,42.5466063 170.829864,49.7447964 156.901357,72.6 C136.321267,106.370136 186.828959,138.120362 169.475113,159.749321 C164.335747,166.154751 150.249774,168.599095 122.821719,173.880543 C89.5294118,180.291403 72.8832579,183.496833 55.6533937,179.114027 C23.9701357,171.059729 -1.439819,142.148416 0.0660633484,116.569231 C1.45067873,93.0570136 24.6579186,87.958371 20.9113122,65.8 C17.7375566,47.0434389 -0.618099548,40.4561086 3.70316742,24.9719457 Z" id="Path_1611" fill="#EBF6F1"></path>
            <g id="Group_1645" transform="translate(19.296833, 16.739367)">
                <g id="Group_1642" transform="translate(52.049774, 8.352941)" fill="#152C53">
                    <g id="Group_1636">
                        <rect id="Rectangle_1075" x="0" y="0" width="12.6914027" height="3.82443439" rx="1.91221719"></rect>
                    </g>
                    <g id="Group_1637" transform="translate(0.000000, 9.171041)">
                        <rect id="Rectangle_1076" x="0" y="0" width="12.6914027" height="3.82443439" rx="1.91221719"></rect>
                    </g>
                    <g id="Group_1638" transform="translate(0.000000, 18.342081)">
                        <path d="M1.89140271,0 L10.8,0 C11.8440931,0 12.6904977,0.846404668 12.6904977,1.89049774 L12.6904977,1.93393665 C12.6904977,2.97802972 11.8440931,3.82443439 10.8,3.82443439 L1.89049774,3.82443439 C0.846404668,3.82443439 0,2.97802972 0,1.93393665 L0,1.89140271 C0,0.84680984 0.84680984,0 1.89140271,0 Z" id="Rectangle_1077"></path>
                    </g>
                    <g id="Group_1639" transform="translate(17.931222, 0.000000)">
                        <rect id="Rectangle_1078" x="0" y="0" width="3.61085973" height="3.82443439" rx="1.80542986"></rect>
                    </g>
                    <g id="Group_1640" transform="translate(17.931222, 9.171041)">
                        <rect id="Rectangle_1079" x="0" y="0" width="3.61085973" height="3.82443439" rx="1.80542986"></rect>
                    </g>
                    <g id="Group_1641" transform="translate(17.931222, 18.342081)">
                        <path d="M1.80995475,0 L1.80995475,0 C2.8052986,0.00249460394 3.61085973,0.810082892 3.61085973,1.80542986 L3.61085973,2.0199095 C3.61085973,3.01525647 2.8052986,3.82284476 1.80995475,3.82534755 L1.80995475,3.82534755 C1.33042489,3.82678229 0.870040753,3.63730044 0.530451403,3.29872985 C0.190862053,2.96015927 2.00342508e-16,2.50034651 2.00342508e-16,2.02081448 L2.00342508e-16,1.80995475 C2.00342508e-16,0.810344344 0.810344344,0 1.80995475,0 Z" id="Rectangle_1080"></path>
                    </g>
                </g>
                <path d="M13.7411765,0 L115.685973,0 C119.330599,0 122.825952,1.44782228 125.403092,4.02496247 C127.980232,6.60210266 129.428054,10.0974548 129.428054,13.7420814 L129.428054,26.1402715 C129.428054,29.7848149 127.980673,33.2801694 125.403677,35.8573356 C122.82668,38.4345018 119.331421,39.8823529 115.686878,39.8823529 L13.7411765,39.8823529 C6.15213426,39.8823529 -1.19374257e-07,33.7302187 -1.19374257e-07,26.1411765 L-1.19374257e-07,13.7429864 C-1.19374257e-07,10.0982863 1.44703493,6.60269925 4.02405744,4.0253373 C6.60107994,1.44797536 10.0964763,0 13.7411765,0 Z" id="Rectangle_1081" fill="url(#linearGradient-1)" opacity="0.95"></path>
                <g id="Group_1644" transform="translate(5.403620, 2.830769)">
                    <circle id="Ellipse_155" fill="#51BA6C" opacity="0.17" cx="16.6859729" cy="16.6859729" r="16.6859729"></circle>
                    <g id="Group_1643" transform="translate(6.415385, 6.095928)">
                        <path d="M7.31221719,13.4045249 C7.16363576,13.2666803 7.15394186,13.0348345 7.29049774,12.8850679 L7.87873303,12.2461538 C8.4817112,11.5946618 9.49825381,11.5541782 10.1511312,12.1556561 L15.8633484,17.4153846 C16.2166451,17.7390714 16.7650938,17.7164217 17.0904977,17.3647059 L19.081448,15.2036199 C19.4051348,14.8503232 19.382485,14.3018746 19.0307692,13.9764706 L5.67692308,1.68054299 C5.52698152,1.54309656 5.51685221,1.31012256 5.65429864,1.160181 C5.79174507,1.01023943 6.02471907,1.00011013 6.17466063,1.13755656 L19.5285068,13.4334842 C20.1799988,14.0364623 20.2204824,15.0530049 19.6190045,15.7058824 L17.6280543,17.8669683 C17.0250761,18.5184603 16.0085335,18.5589439 15.3556561,17.9574661 L9.64343891,12.6977376 C9.29014222,12.3740507 8.74169356,12.3967005 8.41628959,12.7484163 L7.8280543,13.3873303 C7.68933001,13.5322404 7.4602835,13.5398753 7.31221719,13.4045249 L7.31221719,13.4045249 Z" id="Path_1612" fill="#536B7C"></path>
                        <path d="M20.2497738,10.0606335 L9.58280543,0.238914027 C9.40567542,0.0759183623 9.17090673,-0.00979332285 8.93042439,0.000736271137 C8.68994205,0.0112658651 8.46356329,0.117169035 8.30135747,0.295022624 L6.66244344,2.07511312 L6.07692308,2.70859729 L5.02352941,3.85248869 C4.68454744,4.2221687 4.70842264,4.79638768 5.07692308,5.13665158 L15.7411765,14.9556561 C16.1106126,15.2948735 16.6848196,15.2714035 17.0253394,14.9031674 L18.6642534,13.1230769 L19.4307692,12.2904977 L20.3040724,11.3420814 C20.6395058,10.9719767 20.6153134,10.401036 20.2497738,10.0606335 Z" id="Path_1613" fill="#CFDCE5"></path>
                        <path d="M16.7846154,13.8226244 L6.11764706,4.00090498 C5.74914663,3.66064107 5.72527142,3.0864221 6.06425339,2.71674208 L5.01900452,3.85248869 C4.67978712,4.22192481 4.70325718,4.79613182 5.07149321,5.13665158 L15.7357466,14.9556561 C16.1054266,15.2946381 16.6796456,15.2707629 17.0199095,14.9022624 L18.0651584,13.7674208 C17.9028577,13.9448741 17.6766019,14.0504321 17.436344,14.0607895 C17.196086,14.0711469 16.9615854,13.9854519 16.7846154,13.8226244 Z" id="Path_1614" fill="#BAC6CC"></path>
                        <path d="M20.3004525,11.3420814 L19.4271493,12.2904977 C17.4271493,10.4488688 16.078733,11.9167421 14.0751131,10.0751131 C12.0714932,8.23348416 13.4262443,6.76470588 11.4262443,4.92307692 C9.42624434,3.08144796 8.07782805,4.54932127 6.07330317,2.70769231 L6.65882353,2.07420814 L8.29773756,0.294117647 C8.63867404,-0.0729264437 9.21167108,-0.0967508449 9.58190045,0.240723982 L20.2461538,10.0597285 C20.4240287,10.2222121 20.5297746,10.4489136 20.5399666,10.6896137 C20.5501586,10.9303137 20.4639552,11.1651429 20.3004525,11.3420814 L20.3004525,11.3420814 Z" id="Path_1615" fill="url(#linearGradient-2)"></path>
                        <path d="M2.50316742,20.9656109 C2.39165177,21.0923165 2.23382935,21.1688027 2.06528075,21.177826 C1.89673215,21.1868493 1.73164577,21.1276501 1.60723982,21.0135747 L0.200904977,19.719457 C0.0768343115,19.6049102 0.00419820957,19.4451704 -0.000570974394,19.2763753 C-0.00534015836,19.1075803 0.0581605962,18.943994 0.175565611,18.8226244 L6.5438914,12.1918552 L7.56651584,13.1330317 L8.58914027,14.0742081 L2.50316742,20.9656109 Z" id="Path_1616" fill="#51BA6C"></path>
                        <path d="M0.827149321,19.4226244 L7.19547511,12.7918552 L6.54479638,12.1927602 L0.176470588,18.8235294 C0.0590655736,18.944899 -0.00443518098,19.1084852 0.000334002981,19.2772803 C0.00510318695,19.4460753 0.0777392889,19.6058151 0.201809955,19.720362 L0.852488688,20.319457 C0.728643781,20.20478 0.656168623,20.045082 0.651401626,19.8763643 C0.646634628,19.7076467 0.709977053,19.5441112 0.827149321,19.4226244 L0.827149321,19.4226244 Z" id="Path_1617" fill="#30975D"></path>
                        <path d="M8.33393665,14.3466063 L6.28868778,12.4642534 C6.13874622,12.326807 6.12861692,12.093833 6.26606335,11.9438914 C6.40350978,11.7939498 6.63648378,11.7838205 6.78642534,11.921267 L8.83167421,13.8036199 C8.92866939,13.8925322 8.97086251,14.0264368 8.94235984,14.1548932 C8.91385716,14.2833496 8.81898892,14.3868422 8.69349106,14.4263864 C8.5679932,14.4659306 8.43093183,14.4355186 8.33393665,14.3466063 L8.33393665,14.3466063 Z" id="Path_1618" fill="#00DF75"></path>
                    </g>
                </g>
                <rect id="Rectangle_1082" fill="#152C53" opacity="0.44" x="83.8280543" y="8.43529412" width="29.7864253" height="2.960181"></rect>
                <rect id="Rectangle_1083" fill="#152C53" opacity="0.44" x="83.8280543" y="17.7628959" width="21.3484163" height="2.960181"></rect>
            </g>
            <g id="Group_1655" transform="translate(68.266968, 64.385520)">
                <g id="Group_1652" transform="translate(52.049774, 8.352941)" fill="#152C53">
                    <g id="Group_1646">
                        <rect id="Rectangle_1084" x="0" y="0" width="12.6914027" height="3.82443439" rx="1.91221719"></rect>
                    </g>
                    <g id="Group_1647" transform="translate(0.000000, 9.171041)">
                        <rect id="Rectangle_1085" x="0" y="0" width="12.6914027" height="3.82443439" rx="1.91221719"></rect>
                    </g>
                    <g id="Group_1648" transform="translate(0.000000, 18.342081)">
                        <path d="M1.89140271,0 L10.8,0 C11.8440931,0 12.6904977,0.846404668 12.6904977,1.89049774 L12.6904977,1.93393665 C12.6904977,2.97802972 11.8440931,3.82443439 10.8,3.82443439 L1.89049774,3.82443439 C0.846404668,3.82443439 0,2.97802972 0,1.93393665 L0,1.89140271 C0,0.84680984 0.84680984,0 1.89140271,0 Z" id="Rectangle_1086"></path>
                    </g>
                    <g id="Group_1649" transform="translate(17.931222, 0.000000)">
                        <rect id="Rectangle_1087" x="0" y="0" width="3.61085973" height="3.82443439" rx="1.80542986"></rect>
                    </g>
                    <g id="Group_1650" transform="translate(17.931222, 9.171041)">
                        <rect id="Rectangle_1088" x="0" y="0" width="3.61085973" height="3.82443439" rx="1.80542986"></rect>
                    </g>
                    <g id="Group_1651" transform="translate(17.931222, 18.342081)">
                        <path d="M1.80995475,0 L1.80995475,0 C2.8052986,0.00249460394 3.61085973,0.810082892 3.61085973,1.80542986 L3.61085973,2.0199095 C3.61085973,3.01525647 2.8052986,3.82284476 1.80995475,3.82534755 L1.80995475,3.82534755 C1.33042489,3.82678229 0.870040753,3.63730044 0.530451403,3.29872985 C0.190862053,2.96015927 2.00342508e-16,2.50034651 2.00342508e-16,2.02081448 L2.00342508e-16,1.80995475 C2.00342508e-16,0.810344344 0.810344344,0 1.80995475,0 Z" id="Rectangle_1089"></path>
                    </g>
                </g>
                <path d="M13.7411765,0 L115.685973,0 C119.330599,0 122.825952,1.44782228 125.403092,4.02496247 C127.980232,6.60210266 129.428054,10.0974548 129.428054,13.7420814 L129.428054,26.1402715 C129.428054,29.7848149 127.980673,33.2801694 125.403677,35.8573356 C122.82668,38.4345018 119.331421,39.8823529 115.686878,39.8823529 L13.7411765,39.8823529 C6.15213426,39.8823529 -1.19374257e-07,33.7302187 -1.19374257e-07,26.1411765 L-1.19374257e-07,13.7429864 C-1.19374257e-07,10.0982863 1.44703493,6.60269925 4.02405744,4.0253373 C6.60107994,1.44797536 10.0964763,0 13.7411765,0 Z" id="Rectangle_1090" fill="url(#linearGradient-1)" opacity="0.95"></path>
                <rect id="Rectangle_1091" fill="#152C53" opacity="0.44" x="83.8280543" y="8.43529412" width="29.7864253" height="2.960181"></rect>
                <rect id="Rectangle_1092" fill="#152C53" opacity="0.44" x="83.8280543" y="17.7628959" width="21.3484163" height="2.960181"></rect>
                <g id="Group_1654" transform="translate(5.581900, 2.824434)">
                    <circle id="Ellipse_156" fill="#51BA6C" opacity="0.17" cx="16.5438914" cy="16.5438914" r="16.5438914"></circle>
                    <g id="Group_1653" transform="translate(4.951131, 4.379186)">
                        <path d="M20.9574661,5.48687783 L20.9574661,11.3647059 L20.0425339,11.078733 C19.8959276,10.921267 19.680543,10.118552 19.4642534,10.118552 L19.4343891,10.118552 L19.4343891,5.48778281 C19.4240797,4.72358301 19.0014107,4.02467339 18.3294118,3.66063348 L18.0533937,2.74479638 C18.0657512,2.71247452 18.0715948,2.67802791 18.0705882,2.64343891 L18.6488688,2.21176471 C20.0154522,2.72902364 20.9296383,4.02594229 20.9574661,5.48687783 L20.9574661,5.48687783 Z" id="Path_1619" fill="#BDC3C7"></path>
                        <path d="M12.9330317,13.8090498 C13.3692308,13.0307692 17.9484163,10.9692308 17.8542986,10.1140198 L19.4642534,10.1140198 C19.6833949,10.1130773 19.8929939,10.2036084 20.0425339,10.3638009 L20.9574661,11.359276 L21.9158371,12.4081448 C21.9680721,12.467467 22.0116421,12.5338883 22.0452489,12.6054299 L12.9330317,13.8090498 Z" id="Path_1620" fill="#126634"></path>
                        <path d="M15.1475113,14.0751131 L10.0977376,12.6063348 C10.0396407,12.528326 9.96789435,12.4614854 9.88597285,12.4090498 L7.96923077,10.3638009 C7.68341049,10.1940937 7.35587306,10.1075862 7.02352941,10.1140271 L11.1457014,10.1140271 L13.238914,10.6461538 L15.5266968,10.3556561 L16.9339367,11.9375566 L15.1475113,14.0751131 Z" id="Path_1621" fill="#126634"></path>
                        <path d="M10.6705882,12.8687783 L11.240724,20.440724 L0,20.440724 L0,12.8687783 C0.000792080048,12.6969593 0.0652828589,12.5315405 0.180995475,12.4045249 L2.05429864,10.359276 C2.20447754,10.1999926 2.41366167,10.1096408 2.63257919,10.1094979 L4.56651584,10.1094979 L4.56651584,12.2470588 L3.81085973,12.2470588 C3.60808242,12.2404446 3.43813873,12.3990587 3.43076923,12.60181 L3.43076923,14.0262443 C3.43327318,14.4092427 3.59410438,14.7741429 3.87511312,15.0343891 C4.16936727,15.3040521 4.55472653,15.4524412 4.95384615,15.4497738 L5.71764706,15.4497738 C6.11693147,15.451865 6.50237085,15.3035694 6.79728507,15.0343891 C7.07901794,14.7746598 7.23999515,14.4094284 7.24162896,14.0262443 L7.24162896,12.60181 C7.23425946,12.3990587 7.06431577,12.2404446 6.86153846,12.2470588 L6.0959276,12.2470588 L6.0959276,10.1094979 L8.02986425,10.1094979 C8.24896066,10.1087725 8.45847542,10.1992671 8.6081448,10.359276 L10.481448,12.4045249 C10.5337122,12.4638248 10.577285,12.5302504 10.6108597,12.60181 C10.6493843,12.6855878 10.6697399,12.7765712 10.6705882,12.8687783 Z" id="Path_1622" fill="#30975D"></path>
                        <path d="M16.5276018,1.92488688 L16.7782805,2.32036199 C16.7692308,2.3520362 16.959276,2.38461538 16.959276,2.41719457 L16.3719457,3.34932127 L8.38642534,3.34932127 C7.16549832,3.31166816 6.14335839,4.26709405 6.09864253,5.48778281 L6.09864253,12.7891403 L4.57104072,12.7891403 L4.57104072,5.48778281 C4.64718611,3.45484368 6.34937348,1.86419566 8.38280543,1.92579186 L16.5276018,1.92488688 Z" id="Path_1623" fill="#BDC3C7"></path>
                        <path d="M14.4950226,10.1457014 L13.238914,5.39366516 C13.2126601,5.30083765 13.1504397,5.2223293 13.0660633,5.17556561 C12.9781327,5.12592553 12.8746815,5.1113777 12.7764706,5.13484163 L9.81538462,5.81628959 C9.7196855,5.8378435 9.63602541,5.89556248 9.58190045,5.97737557 C9.52899633,6.05739388 9.51316521,6.15633839 9.53846154,6.24886878 L9.99638009,7.97556561 L10.0868778,8.32307692 L10.1773756,8.66968326 L10.358371,9.35927602 L10.4488688,9.71040724 L10.5393665,10.0570136 L10.5565611,10.1176471 L10.7248869,10.7511312 L10.8153846,11.0977376 L10.9058824,11.4443439 L11.0868778,12.1339367 L11.1773756,12.480543 L11.1773756,12.480543 L11.2117647,12.6180995 L15.1357466,12.6180995 L14.4950226,10.1457014 Z M11.7493213,7.20452489 C11.5513398,7.25517238 11.3484016,7.14176572 11.2877828,6.94660633 C11.2652426,6.85261748 11.2819261,6.7535028 11.3339938,6.67207233 C11.3860615,6.59064186 11.4690285,6.53390972 11.5638009,6.51493213 C11.7617824,6.46428463 11.9647206,6.57769129 12.0253394,6.77285068 C12.0507568,6.86537447 12.0349175,6.96436962 11.9819005,7.04434389 C11.9300445,7.12777837 11.8457613,7.18582554 11.7493213,7.20452489 L11.7493213,7.20452489 Z" id="Path_1624" fill="url(#linearGradient-3)"></path>
                        <polygon id="Path_1625" fill="#A5A5A4" points="17.8579186 5.10316742 17.5085973 7.21357466 16.761991 7.63710407 16.0027149 6.9918552 16.3520362 4.88235294 17.1113122 4.6361991"></polygon>
                        <path d="M18.0515837,7.74570136 C17.7467654,8.49664643 17.6761025,9.3222036 17.8488688,10.1140271 C18.0400444,10.94858 17.9585259,11.8224463 17.6162896,12.6072398 L15.1429864,12.6072398 L14.4914027,10.1466063 C15.019836,9.30861547 15.2982996,8.33728942 15.2941176,7.34660633 C15.2821912,7.23400288 15.3257291,7.12262675 15.4108597,7.0479638 C15.5006538,6.97230627 15.6188382,6.93929387 15.7348416,6.95746606 L15.9891403,6.99366516 L17.4995475,7.21538462 L17.7502262,7.25158371 C17.8660499,7.26706765 17.9689197,7.33343529 18.0307692,7.43257919 C18.0911664,7.52640453 18.0990304,7.64470721 18.0515837,7.74570136 L18.0515837,7.74570136 Z" id="Path_1626" fill="#E6E8EC"></path>
                        <path d="M7.23891403,12.6063348 L7.23891403,14.0307692 C7.23641007,14.4137676 7.07557887,14.7786677 6.79457014,15.038914 C6.50003844,15.3087126 6.11434712,15.4571052 5.71493213,15.4542986 L4.95113122,15.4542986 C4.55215865,15.4561623 4.16708237,15.3078821 3.87239819,15.038914 C3.59066532,14.7791847 3.42968811,14.4139533 3.4280543,14.0307692 L3.4280543,12.6063348 C3.43542379,12.4035836 3.60536749,12.2449695 3.8081448,12.2515837 L6.85520362,12.2515837 C6.95334311,12.2469273 7.04924313,12.2818679 7.12138528,12.3485654 C7.19352744,12.4152628 7.23587073,12.5081321 7.23891403,12.6063348 Z" id="Path_1627" fill="#95A5A5"></path>
                        <path d="M22.1013592,12.8687783 L22.1013592,20.440724 L10.6714932,20.440724 L10.6714932,12.8687783 C10.6715679,12.7787713 10.6540446,12.6896179 10.6199095,12.6063348 L22.0506787,12.6063348 C22.0843486,12.6897261 22.1015581,12.7788465 22.1013592,12.8687783 Z" id="Path_1628" fill="#51BA6C"></path>
                        <path d="M18.6742081,0.485067873 L18.6479638,2.21176471 L18.638914,2.64343891 C18.63969,2.67801148 18.6338538,2.71241397 18.6217195,2.74479638 L18.3239819,3.66063348 L17.8533937,5.10859729 L16.3429864,4.88687783 L16.3647059,3.35384615 L16.3773756,2.42171946 C16.3789097,2.38883576 16.3846891,2.35628842 16.3945701,2.32488688 L16.5239819,1.92941176 L17.0723982,0.259728507 C17.1340159,0.0849614802 17.3122061,-0.0203501243 17.4950226,0.00995475113 L18.3457014,0.134841629 C18.5280176,0.15170479 18.6690358,0.302046522 18.6742081,0.485067873 Z" id="Path_1629" fill="#D1D4D1"></path>
                    </g>
                </g>
            </g>
            <g id="Group_1666" transform="translate(17.642534, 112.031674)">
                <g id="Group_1662" transform="translate(52.049774, 8.352941)" fill="#152C53">
                    <g id="Group_1656">
                        <rect id="Rectangle_1093" x="0" y="0" width="12.6914027" height="3.82443439" rx="1.91221719"></rect>
                    </g>
                    <g id="Group_1657" transform="translate(0.000000, 9.171041)">
                        <rect id="Rectangle_1094" x="0" y="0" width="12.6914027" height="3.82443439" rx="1.91221719"></rect>
                    </g>
                    <g id="Group_1658" transform="translate(0.000000, 18.342081)">
                        <rect id="Rectangle_1095" x="0" y="0" width="12.6914027" height="3.82533937" rx="1.91266968"></rect>
                    </g>
                    <g id="Group_1659" transform="translate(17.931222, 0.000000)">
                        <rect id="Rectangle_1096" x="0" y="0" width="3.61085973" height="3.82443439" rx="1.80542986"></rect>
                    </g>
                    <g id="Group_1660" transform="translate(17.931222, 9.171041)">
                        <rect id="Rectangle_1097" x="0" y="0" width="3.61085973" height="3.82443439" rx="1.80542986"></rect>
                    </g>
                    <g id="Group_1661" transform="translate(17.931222, 18.342081)">
                        <path d="M1.80995475,0 L1.80995475,0 C2.8052986,0.00249460394 3.61085973,0.810082892 3.61085973,1.80542986 L3.61085973,2.0199095 C3.61085973,3.01525647 2.8052986,3.82284476 1.80995475,3.82534755 L1.80995475,3.82534755 C1.33042489,3.82678229 0.870040753,3.63730044 0.530451403,3.29872985 C0.190862053,2.96015927 2.00342508e-16,2.50034651 2.00342508e-16,2.02081448 L2.00342508e-16,1.80995475 C2.00342508e-16,0.810344344 0.810344344,0 1.80995475,0 Z" id="Rectangle_1098"></path>
                    </g>
                </g>
                <path d="M13.7411765,0 L115.685973,0 C119.330599,0 122.825952,1.44782228 125.403092,4.02496247 C127.980232,6.60210266 129.428054,10.0974548 129.428054,13.7420814 L129.428054,26.1402715 C129.428054,29.7848149 127.980673,33.2801694 125.403677,35.8573356 C122.82668,38.4345018 119.331421,39.8823529 115.686878,39.8823529 L13.7411765,39.8823529 C6.15213426,39.8823529 -1.19374257e-07,33.7302187 -1.19374257e-07,26.1411765 L-1.19374257e-07,13.7429864 C-1.19374257e-07,10.0982863 1.44703493,6.60269925 4.02405744,4.0253373 C6.60107994,1.44797536 10.0964763,0 13.7411765,0 Z" id="Rectangle_1099" fill="url(#linearGradient-1)" opacity="0.95"></path>
                <rect id="Rectangle_1100" fill="#152C53" opacity="0.44" x="83.8280543" y="8.43529412" width="29.7864253" height="2.960181"></rect>
                <rect id="Rectangle_1101" fill="#152C53" opacity="0.44" x="83.8280543" y="17.7628959" width="21.3484163" height="2.960181"></rect>
                <g id="Group_1665" transform="translate(5.250679, 2.824434)">
                    <g id="Group_1664" transform="translate(6.617195, 6.558371)">
                        <path d="M3.27239819,0.622624434 L5.47511312,2.82533937 C5.74987299,3.1066329 5.74987299,3.55581054 5.47511312,3.83710407 L3.839819,5.4760181 C3.55852547,5.75077797 3.10934783,5.75077797 2.8280543,5.4760181 L0.625339367,3.27330317 C0.555116152,3.20394656 0.453450146,3.17689884 0.358046071,3.20219115 C0.262641995,3.22748346 0.187727484,3.30134395 0.161085973,3.39638009 C-0.293938639,5.06549108 0.224049465,6.8488481 1.50244316,8.01447602 C2.78083685,9.18010394 4.60431483,9.53167472 6.22443439,8.92488688 L15.7538462,19.3484163 C16.2227586,19.8611316 16.8808029,20.1599904 17.5754313,20.1757114 C18.2700597,20.1914324 18.940951,19.9226503 19.4325792,19.4316742 L19.4325792,19.4316742 C19.9265823,18.9384341 20.196184,18.2638587 20.1782157,17.5660034 C20.1602474,16.8681481 19.8562881,16.2083408 19.3375566,15.7411765 L8.89140271,6.31945701 C9.54148023,4.69571197 9.21646669,2.84391427 8.0523013,1.53859143 C6.88813592,0.233268592 5.08543463,-0.300638339 3.39819005,0.160180995 C3.30037269,0.182447029 3.22280586,0.256839378 3.19647417,0.353641515 C3.17014247,0.450443651 3.19933792,0.55387701 3.27239819,0.622624434 L3.27239819,0.622624434 Z M18.3457014,17.6208145 C18.3457014,18.0416505 18.0045464,18.3828054 17.5837104,18.3828054 C17.1628744,18.3828054 16.8217195,18.0416505 16.8217195,17.6208145 C16.8217195,17.1999785 17.1628744,16.8588235 17.5837104,16.8588235 C18.0045464,16.8588235 18.3457014,17.1999785 18.3457014,17.6208145 L18.3457014,17.6208145 Z" id="Path_1630" fill="url(#linearGradient-4)"></path>
                        <g id="Group_1663" transform="translate(0.788235, 1.075113)" fill="#000000">
                            <path d="M7.23529412,4.28597285 L8.1520362,5.1158371 C8.76588184,3.43200399 8.34796174,1.54501002 7.08054299,0.277828054 C6.98388324,0.179875311 6.88208022,0.087134874 6.77556561,-5.1442008e-14 C7.63013153,1.2640013 7.80234128,2.86948433 7.23529412,4.28597285 Z" id="Path_1631"></path>
                            <path d="M14.0932127,17.3239819 L14.9701357,18.280543 C15.4390481,18.7932583 16.0970925,19.0921171 16.7917209,19.1078381 C17.4863493,19.1235591 18.1572406,18.854777 18.6488688,18.3638009 L18.6488688,18.3638009 C19.1431642,17.8705302 19.4129522,17.1957542 19.3949824,16.4976704 C19.3770126,15.7995866 19.0728652,15.1395845 18.5538462,14.6723982 L18.1963801,14.3511312 C18.7559815,15.3470522 18.5855686,16.5935433 17.7791855,17.4027149 L17.7791855,17.4027149 C17.2860159,17.8934028 16.6143386,18.1621773 15.9188063,18.1471535 C15.223274,18.1321297 14.5638292,17.8346025 14.0923077,17.3230769" id="Path_1632"></path>
                            <path d="M5.43710407,7.85339367 L4.56832579,6.89321267 C3.0158324,7.47402236 1.27096199,7.17537576 5.1442008e-14,6.11131222 C0.165237787,6.35660053 0.354070336,6.58513945 0.563800905,6.79366516 C1.84027497,8.07193862 3.7460198,8.48627713 5.43800905,7.85339367" id="Path_1633"></path>
                            <path d="M11.278733,8.11221719 L10.4687783,8.92217195 L9.92579186,8.37918552 C9.76431575,8.21720809 9.54500605,8.12616786 9.31628959,8.12616786 C9.08757313,8.12616786 8.86826343,8.21720809 8.70678733,8.37918552 L7.96470588,9.12126697 C8.15335813,9.60362833 8.15335813,10.1393581 7.96470588,10.6217195 L9.75837104,12.5828054 C10.1486379,12.4023415 10.5850898,12.3467184 11.0081448,12.4235294 C11.2563475,12.4711808 11.5120152,12.3925138 11.6904977,12.2135747 L12.1149321,11.7891403 C12.2769096,11.6276642 12.3679498,11.4083545 12.3679498,11.179638 C12.3679498,10.9509216 12.2769096,10.7316118 12.1149321,10.5701357 L12.1149321,10.5701357 C11.97036,10.4264264 11.8890673,10.2309961 11.8890673,10.0271493 C11.8890673,9.82330258 11.97036,9.62787228 12.1149321,9.4841629 L12.439819,9.15837104 L11.278733,8.11221719 Z" id="Path_1634"></path>
                        </g>
                        <path d="M20.0723982,2.52850679 L18.679638,1.13484163 C18.6162426,1.07012866 18.5256461,1.0397641 18.4360573,1.05320242 C18.3464684,1.06664075 18.268768,1.12224984 18.2271493,1.20271493 L17.4769231,2.62352941 L10.6190045,9.48144796 L11.7221719,10.5846154 L18.5800905,3.72669683 L20.000905,2.97647059 C20.0811681,2.93605324 20.1371166,2.85952485 20.1512795,2.77078283 C20.1654423,2.68204081 20.1360937,2.59189935 20.0723982,2.52850679 L20.0723982,2.52850679 Z" id="Path_1635" fill="#E9EBF2"></path>
                        <path d="M20.0723982,2.52850679 L19.719457,2.17466063 C19.7456771,2.29713756 19.6872577,2.42211083 19.5764706,2.48054299 L18.1556561,3.23076923 L11.2977376,10.0923077 L10.6552036,9.44977376 L10.6235294,9.48144796 L11.7266968,10.5846154 L18.5846154,3.72669683 L20.0054299,2.97647059 C20.0850186,2.9351908 20.139988,2.8582521 20.1532439,2.76958043 C20.1664999,2.68090876 20.1364348,2.59125784 20.0723982,2.52850679 L20.0723982,2.52850679 Z" id="Path_1636" fill="#C7CAD3"></path>
                        <path d="M9.39547511,13.4823529 C9.97296356,12.9050016 10.8368064,12.7229345 11.59819,13.0180995 L12.3402715,12.2760181 C12.5024721,12.1146608 12.5936667,11.8953066 12.5936667,11.6665158 C12.5936667,11.4377251 12.5024721,11.2183709 12.3402715,11.0570136 L10.1493213,8.86606335 C9.98799991,8.70414063 9.76883996,8.61312268 9.54027149,8.61312268 C9.31170303,8.61312268 9.09254307,8.70414063 8.93122172,8.86606335 L8.18914027,9.6081448 C8.48481022,10.3691928 8.30347768,11.2330265 7.72673786,11.8109418 C7.14999803,12.388857 6.28653532,12.5719479 5.52488688,12.2778281 L1.5918552,16.2108597 C0.651135657,17.1525176 0.651135657,18.6782516 1.5918552,19.6199095 L1.5918552,19.6199095 C2.5337194,20.5601304 4.05904078,20.5601304 5.00090498,19.6199095 L8.93393665,15.6868778 C8.63680261,14.9255469 8.81789706,14.0605545 9.39547511,13.4823529 L9.39547511,13.4823529 Z" id="Path_1637" fill="#51BA6C"></path>
                        <path d="M12.3411765,11.0570136 L11.8253394,10.5411765 C11.9018913,10.8358304 11.8156795,11.1489514 11.599095,11.3628959 L10.8570136,12.1049774 C10.0955997,11.809186 9.23134483,11.9910769 8.6537448,12.5686769 C8.07614477,13.146277 7.89425384,14.0105319 8.19004525,14.7719457 L4.25701357,18.7013575 C3.40942962,19.5475533 2.06939714,19.6438754 1.10950226,18.9276018 C1.44124657,19.6416025 2.10083735,20.1485422 2.87615823,20.2853954 C3.65147911,20.4222485 4.44476506,20.1717584 5.00090498,19.6144796 L8.93574661,15.680543 C8.63995519,14.9191291 8.82184612,14.0548742 9.39944616,13.4772742 C9.97704619,12.8996742 10.8413011,12.7177832 11.6027149,13.0135747 L12.3447964,12.2714932 C12.6771498,11.9342987 12.6755341,11.3922209 12.3411765,11.0570136 L12.3411765,11.0570136 Z" id="Path_1638" fill="#30975D"></path>
                    </g>
                    <circle id="Ellipse_157" fill="#51BA6C" opacity="0.17" cx="16.8751131" cy="16.8751131" r="16.8751131"></circle>
                </g>
            </g>
            <g id="Group_1679" transform="translate(134.560181, 96.893213)">
                <path d="M40.5447964,84.121267 C41.6995475,86.8199095 64.5719457,78.9484163 64.8434389,75.438009 C65.1149321,71.9276018 61.0877828,66.5004525 62.1022624,61.4497738 C63.1167421,56.399095 62.8823529,39.1873303 62.1755656,34.0995475 C61.5812538,30.2239701 60.611378,26.4153892 59.279638,22.7276018 C58.6823529,21.0144796 54.0217195,20.5040724 52.3927602,22.5665158 C52.3927602,22.5665158 50.8669683,18.1882353 48.5656109,17.7095023 C46.2642534,17.2307692 42.7221719,19.319457 42.7221719,19.319457 C42.7221719,19.319457 41.279638,16.4063348 39.0452489,16.118552 C36.8108597,15.8307692 33.7647059,16.8914027 32.639819,18.561991 C31.5149321,20.2325792 30.9475113,25.3429864 30.9475113,25.3429864 C30.9475113,25.3429864 21.8072398,4.61900452 19.400905,1.40271493 C16.9945701,-1.81357466 12.1909502,0.92760181 13.2696833,5.2479638 C14.3484163,9.56832579 18.8515837,21.8742081 21.5547511,28.4045249 C24.2579186,34.9348416 26.3809955,41.0253394 25.19819,43.1447964 C24.0153846,45.2642534 19.0723982,42.718552 16.7357466,39.6904977 C14.399095,36.6624434 10.5321267,33.5276018 6.50950226,33.0090498 C2.48687783,32.4904977 -0.418099548,34.5701357 0.0552036199,36.5384615 C0.528506787,38.5067873 5.08235294,40.5502262 7.2280543,43.6443439 C9.12186745,46.4250497 11.2477099,49.0404232 13.5828054,51.4624434 C16.2977376,54.358371 22.0081448,61.5475113 28.6914027,65.4090498 C35.3746606,69.2705882 38.239819,78.7339367 40.5447964,84.121267 Z" id="Path_1648" fill="#F6D9C0"></path>
                <path d="M16.7321267,39.6923077 C14.6886878,37.0443439 11.4742081,34.3140271 8.0081448,33.3239819 C10.8279929,35.0658302 13.1625471,37.4912763 14.7954751,40.3755656 C16.0533937,42.4642534 17.2117647,44.6371041 19.3049774,46.0108597 C21.5475113,47.4823529 24.8986425,48.5972851 25.9348416,45.438914 C26.2984739,43.7881788 26.1322169,42.0648059 25.4597285,40.5140271 C25.6289838,41.3995048 25.5345834,42.3151886 25.1882353,43.1475113 C24.0126697,45.2669683 19.0687783,42.720362 16.7321267,39.6923077 Z" id="Path_1649" fill="#F3CBA8"></path>
                <path d="M56.6108597,32.838009 C56.6108597,32.838009 55.0533937,25.5674208 55.2199095,21.2542986 C54.1396018,21.297478 53.1212405,21.7701723 52.3909502,22.5674208 C53.0753009,26.2450217 54.5119555,29.7416103 56.6108597,32.838009 L56.6108597,32.838009 Z" id="Path_1650" fill="#F3CBA8"></path>
                <path d="M46.8253394,30.4850679 C46.8253394,30.4850679 44.9013575,24.9647059 45.039819,21.0733032 C45.0713296,20.026354 45.2857215,18.992985 45.6733032,18.0199095 C44.6486026,18.3525363 43.6601654,18.7879338 42.7230769,19.319457 C43.5934559,23.2055551 44.9727801,26.9598244 46.8253394,30.4850679 L46.8253394,30.4850679 Z" id="Path_1651" fill="#F3CBA8"></path>
                <path d="M33.4705882,32.5791855 C33.4705882,32.5791855 33.2108597,27.5466063 33.3484163,23.6552036 C33.4615385,20.4669683 33.4615385,18.1800905 34.8868778,16.8425339 C33.9976588,17.2041441 33.2219083,17.7979902 32.640724,18.561991 C31.5158371,20.2343891 30.9484163,25.3429864 30.9484163,25.3429864 C31.5695055,27.8260864 32.4136606,30.2479967 33.4705882,32.5791855 Z" id="Path_1652" fill="#F3CBA8"></path>
                <path d="M20.2036199,18.4162896 C17.1972851,11.9909502 14.2425339,4.7040724 14.6461538,0.773755656 C13.3269158,1.85301922 12.7833865,3.61806296 13.2669683,5.25248869 C14.3457014,9.57285068 18.8488688,21.878733 21.5520362,28.4090498 C24.2552036,34.9393665 26.3782805,41.0298643 25.1954751,43.1493213 C24.7547511,43.9402715 23.7900452,44.080543 22.6325792,43.7900452 C23.6932127,45.4579186 24.8334842,46.3239819 25.9402715,45.440724 C29.7348416,42.3972851 23.5529412,25.5746606 20.2036199,18.4162896 Z" id="Path_1653" fill="#F3CBA8"></path>
                <path d="M13.9647059,2.65972851 C13.8461538,1.57375566 16.161086,0.079638009 17.3493213,0.733031674 C18.5375566,1.38642534 19.8895928,4.65067873 20.1918552,5.82624434 C20.4941176,7.00180995 16.7529412,8.51855204 15.8841629,7.86153846 C15.0153846,7.20452489 14.1095023,3.99638009 13.9647059,2.65972851 Z" id="Path_1654" fill="#FCE4C7"></path>
                <path d="M0.435294118,37.5457014 C-0.0533936652,36.7556561 0.951131222,34.839819 2.73031674,34.4334842 C4.50950226,34.0271493 7.97285068,37.8361991 8.30045249,38.4696833 C8.6280543,39.1031674 7.95475113,41.1520362 6.23710407,41.4307692 C4.51945701,41.7095023 0.924886878,38.3357466 0.435294118,37.5457014 Z" id="Path_1655" fill="#FCE4C7"></path>
            </g>
        </g>
    </g>
</svg>