<svg xmlns="http://www.w3.org/2000/svg" xmlns:xlink="http://www.w3.org/1999/xlink" width="359.853" height="313.847" viewBox="0 0 359.853 313.847">
  <defs>
    <clipPath id="clip-path">
      <path id="Path_921" data-name="Path 921" d="M1348.2,352c-1.906-.011-3.755-.256-5.06-2.126-2.562-3.669-6.473-6.963-10.859-3.232-2.53,2.152-.628,6.579-2.8,8.708-1.925,1.883-4.373,1.572-5.358,4.7-1.449,4.6,3.117,8.627,4.582,12.6,1.23,3.337-1.536,4.608-2.779,7.208-.958,2-.466,4.152.578,6.068,1.841,3.379,5.922,6.1,4.977,10.475-.789,3.652-1.523,6.906,1.7,9.674,2.209,1.9,6.307,3.626,5.995,7.138-.111,1.243-.971,2.3-1.206,3.527-.373,1.939.883,3.826,2.341,5.156a49.835,49.835,0,0,1,8.719,9.693c1.062,1.628,5.314,5.3,3.615,7.529,3.089-4.045,6.354-7.968,9.161-12.221,2.309-3.5,5.789-8.613,3.419-12.921-.737-1.34-2.107-2.338-2.482-3.821-.678-2.677,1.952-5.158,2.93-7.436a9.56,9.56,0,0,0-2.3-10.412c-1.28-1.27-2.668-2.666-2.856-4.459-.205-1.958,1.022-3.783,1.579-5.589a27.914,27.914,0,0,0,1.021-5.164,10.755,10.755,0,0,0-.1-3.664c-.546-2.271-2.592-3.534-4.105-5.145-3.6-3.837-1.71-8.348-3.284-12.806C1354.213,351.479,1351.142,352.018,1348.2,352Z" transform="translate(-1323.841 -345)" fill="#1d7e8e"/>
    </clipPath>
    <clipPath id="clip-path-2">
      <path id="Path_930" data-name="Path 930" d="M1401.371,416.371c1.384.255,2.759.334,3.965-.841,2.366-2.307,5.659-4.155,8.324-.841,1.537,1.911-.455,4.859.829,6.7,1.136,1.632,2.955,1.746,3.236,4.149.414,3.535-3.455,5.826-5.068,8.507-1.354,2.25.476,3.555,1.018,5.613a4.846,4.846,0,0,1-1.259,4.322c-1.8,2.2-5.14,3.6-5.06,6.91.067,2.758.149,5.22-2.572,6.782-1.865,1.07-5.077,1.757-5.336,4.348-.092.917.386,1.8.387,2.725,0,1.458-1.17,2.653-2.412,3.416a36.8,36.8,0,0,0-7.666,5.824c-1,1.034-4.589,3.111-3.664,4.961-1.681-3.362-3.506-6.659-4.953-10.132-1.191-2.857-3.006-7.049-.692-9.846.72-.87,1.852-1.4,2.33-2.428.862-1.848-.7-4.012-1.1-5.8a7.061,7.061,0,0,1,3.106-7.235,5.91,5.91,0,0,0,2.689-2.84c.42-1.392-.218-2.885-.372-4.273a20.571,20.571,0,0,1-.025-3.887,7.939,7.939,0,0,1,.583-2.644c.71-1.572,2.368-2.2,3.69-3.164,3.145-2.284,2.4-5.818,4.154-8.834C1397.084,415.161,1399.237,415.977,1401.371,416.371Z" transform="translate(-1379.331 -412.888)" fill="#00a09d"/>
    </clipPath>
  </defs>
  <g id="Group_1428" data-name="Group 1428" transform="translate(-1057.794 -188.011)">
    <path id="Path_912" data-name="Path 912" d="M1204.386,234.987c21.325.508,100.137-.927,123.317,32.452s12.981,53.314,30.134,76.957,48.214,30.6,57.486,50.069-10.2,61.659-40.8,61.195-41.724-11.59-66.758,6.49-55.632,47.287-101.528,62.122-43.115-33.379-67.222-58.877-78.348-21.326-81.13-60.731,56.1-47.287,57.023-79.739S1165.444,234.06,1204.386,234.987Z" transform="translate(0 -25.192)" fill="#ebf6f1"/>
    <g id="Group_1363" data-name="Group 1363" transform="translate(1181.133 260.791)">
      <g id="Group_1349" data-name="Group 1349">
        <path id="Path_913" data-name="Path 913" d="M1348.2,352c-1.906-.011-3.755-.256-5.06-2.126-2.562-3.669-6.473-6.963-10.859-3.232-2.53,2.152-.628,6.579-2.8,8.708-1.925,1.883-4.373,1.572-5.358,4.7-1.449,4.6,3.117,8.627,4.582,12.6,1.23,3.337-1.536,4.608-2.779,7.208-.958,2-.466,4.152.578,6.068,1.841,3.379,5.922,6.1,4.977,10.475-.789,3.652-1.523,6.906,1.7,9.674,2.209,1.9,6.307,3.626,5.995,7.138-.111,1.243-.971,2.3-1.206,3.527-.373,1.939.883,3.826,2.341,5.156a49.835,49.835,0,0,1,8.719,9.693c1.062,1.628,5.314,5.3,3.615,7.529,3.089-4.045,6.354-7.968,9.161-12.221,2.309-3.5,5.789-8.613,3.419-12.921-.737-1.34-2.107-2.338-2.482-3.821-.678-2.677,1.952-5.158,2.93-7.436a9.56,9.56,0,0,0-2.3-10.412c-1.28-1.27-2.668-2.666-2.856-4.459-.205-1.958,1.022-3.783,1.579-5.589a27.914,27.914,0,0,0,1.021-5.164,10.755,10.755,0,0,0-.1-3.664c-.546-2.271-2.592-3.534-4.105-5.145-3.6-3.837-1.71-8.348-3.284-12.806C1354.213,351.479,1351.142,352.018,1348.2,352Z" transform="translate(-1323.841 -345)" fill="#1d7e8e"/>
        <g id="Group_1348" data-name="Group 1348" clip-path="url(#clip-path)">
          <g id="Group_1347" data-name="Group 1347" transform="translate(-3.438 -3.154)">
            <g id="Group_1340" data-name="Group 1340" transform="translate(11.907)">
              <path id="Path_914" data-name="Path 914" d="M1363.189,440.062l-.727-.064a169.617,169.617,0,0,0-2.719-45.8c-3.172-16.908-6.861-30.4-11.61-42.462a131.3,131.3,0,0,0-6.023-13.195l.645-.341a131.914,131.914,0,0,1,6.057,13.269c4.766,12.1,8.468,25.64,11.648,42.595A170.35,170.35,0,0,1,1363.189,440.062Z" transform="translate(-1342.11 -338.197)" fill="#00a09d"/>
            </g>
            <g id="Group_1341" data-name="Group 1341" transform="translate(0 20.394)">
              <path id="Path_915" data-name="Path 915" d="M1341.653,396.581a11.848,11.848,0,0,0-2.665-2.086c-.377-.236-.8-.5-1.286-.833a92.084,92.084,0,0,0-21.277-10.788l.242-.688a92.816,92.816,0,0,1,21.446,10.873c.469.32.872.573,1.262.818a12.431,12.431,0,0,1,2.807,2.2Z" transform="translate(-1316.425 -382.187)" fill="#00a09d"/>
            </g>
            <g id="Group_1342" data-name="Group 1342" transform="translate(5.037 41.354)">
              <path id="Path_916" data-name="Path 916" d="M1351.127,437.321a63.155,63.155,0,0,0-23.837-9.2l.119-.72a63.9,63.9,0,0,1,24.115,9.309Z" transform="translate(-1327.29 -427.4)" fill="#00a09d"/>
            </g>
            <g id="Group_1343" data-name="Group 1343" transform="translate(8.181 58.514)">
              <path id="Path_917" data-name="Path 917" d="M1357.59,476.93a53.578,53.578,0,0,0-23.518-11.8l.157-.713a54.313,54.313,0,0,1,23.839,11.966Z" transform="translate(-1334.072 -464.413)" fill="#00a09d"/>
            </g>
            <g id="Group_1344" data-name="Group 1344" transform="translate(24.754 10.354)">
              <path id="Path_918" data-name="Path 918" d="M1370.548,384.232l-.728-.047a67.156,67.156,0,0,1,5.96-23.655l.663.3A66.429,66.429,0,0,0,1370.548,384.232Z" transform="translate(-1369.82 -360.53)" fill="#00a09d"/>
            </g>
            <g id="Group_1345" data-name="Group 1345" transform="translate(28.65 30.728)">
              <path id="Path_919" data-name="Path 919" d="M1378.885,424.206l-.661-.309a59.984,59.984,0,0,1,14.531-19.418l.483.547A59.244,59.244,0,0,0,1378.885,424.206Z" transform="translate(-1378.224 -404.479)" fill="#00a09d"/>
            </g>
            <g id="Group_1346" data-name="Group 1346" transform="translate(32.03 53.868)">
              <path id="Path_920" data-name="Path 920" d="M1386.229,471.916l-.714-.149a22.537,22.537,0,0,1,2.491-6.57,40.134,40.134,0,0,1,4.9-6.49c1.28-1.455,2.6-2.906,3.914-4.315l.533.5c-1.313,1.4-2.625,2.849-3.9,4.3a39.529,39.529,0,0,0-4.816,6.37A21.8,21.8,0,0,0,1386.229,471.916Z" transform="translate(-1385.515 -454.392)" fill="#00a09d"/>
            </g>
          </g>
        </g>
      </g>
      <g id="Group_1359" data-name="Group 1359" transform="translate(25.725 31.473)">
        <path id="Path_922" data-name="Path 922" d="M1401.371,416.371c1.384.255,2.759.334,3.965-.841,2.366-2.307,5.659-4.155,8.324-.841,1.537,1.911-.455,4.859.829,6.7,1.136,1.632,2.955,1.746,3.236,4.149.414,3.535-3.455,5.826-5.068,8.507-1.354,2.25.476,3.555,1.018,5.613a4.846,4.846,0,0,1-1.259,4.322c-1.8,2.2-5.14,3.6-5.06,6.91.067,2.758.149,5.22-2.572,6.782-1.865,1.07-5.077,1.757-5.336,4.348-.092.917.386,1.8.387,2.725,0,1.458-1.17,2.653-2.412,3.416a36.8,36.8,0,0,0-7.666,5.824c-1,1.034-4.589,3.111-3.664,4.961-1.681-3.362-3.506-6.659-4.953-10.132-1.191-2.857-3.006-7.049-.692-9.846.72-.87,1.852-1.4,2.33-2.428.862-1.848-.7-4.012-1.1-5.8a7.061,7.061,0,0,1,3.106-7.235,5.91,5.91,0,0,0,2.689-2.84c.42-1.392-.218-2.885-.372-4.273a20.571,20.571,0,0,1-.025-3.887,7.939,7.939,0,0,1,.583-2.644c.71-1.572,2.368-2.2,3.69-3.164,3.145-2.284,2.4-5.818,4.154-8.834C1397.084,415.161,1399.237,415.977,1401.371,416.371Z" transform="translate(-1379.331 -412.888)" fill="#00a09d"/>
        <g id="Group_1358" data-name="Group 1358" clip-path="url(#clip-path-2)">
          <g id="Group_1357" data-name="Group 1357" transform="translate(4.183 -1.831)">
            <g id="Group_1350" data-name="Group 1350" transform="translate(1.306)">
              <path id="Path_923" data-name="Path 923" d="M1391.9,480.123l-.725-.074a125.908,125.908,0,0,1,8.353-33.016,170.446,170.446,0,0,1,14.354-29.3,97.536,97.536,0,0,1,6.236-8.795l.57.456a96.766,96.766,0,0,0-6.189,8.729A169.8,169.8,0,0,0,1400.2,447.3,125.2,125.2,0,0,0,1391.9,480.123Z" transform="translate(-1391.172 -408.937)" fill="#1d7e8e"/>
            </g>
            <g id="Group_1351" data-name="Group 1351" transform="translate(15.944 16.462)">
              <path id="Path_924" data-name="Path 924" d="M1423.171,451.6l-.426-.592a9.257,9.257,0,0,1,2.361-1.22c.316-.123.642-.25,1.025-.417a68.657,68.657,0,0,1,17.084-4.925l.11.721a67.916,67.916,0,0,0-16.9,4.873c-.4.172-.744.308-1.051.428A8.549,8.549,0,0,0,1423.171,451.6Z" transform="translate(-1422.746 -444.447)" fill="#1d7e8e"/>
            </g>
            <g id="Group_1352" data-name="Group 1352" transform="translate(11.148 30.971)">
              <path id="Path_925" data-name="Path 925" d="M1412.675,479.854l-.274-.676a47.281,47.281,0,0,1,18.819-3.421l-.018.729A46.537,46.537,0,0,0,1412.675,479.854Z" transform="translate(-1412.401 -475.742)" fill="#1d7e8e"/>
            </g>
            <g id="Group_1353" data-name="Group 1353" transform="translate(6.285 42.992)">
              <path id="Path_926" data-name="Path 926" d="M1402.277,507.7l-.366-.631a40.2,40.2,0,0,1,18.993-5.393l.021.729A39.469,39.469,0,0,0,1402.277,507.7Z" transform="translate(-1401.911 -501.672)" fill="#1d7e8e"/>
            </g>
            <g id="Group_1354" data-name="Group 1354" transform="translate(15.101 5.034)">
              <path id="Path_927" data-name="Path 927" d="M1422.687,437.812l-.724-.09a48.972,48.972,0,0,0-1.035-17.754l.708-.173A49.68,49.68,0,0,1,1422.687,437.812Z" transform="translate(-1420.928 -419.795)" fill="#1d7e8e"/>
            </g>
            <g id="Group_1355" data-name="Group 1355" transform="translate(3.352 18.051)">
              <path id="Path_928" data-name="Path 928" d="M1403.324,464.185a43.663,43.663,0,0,0-7.74-15.864l.577-.447a44.4,44.4,0,0,1,7.87,16.131Z" transform="translate(-1395.584 -447.874)" fill="#1d7e8e"/>
            </g>
            <g id="Group_1356" data-name="Group 1356" transform="translate(0 34.822)">
              <path id="Path_929" data-name="Path 929" d="M1394.054,498.28a16.022,16.022,0,0,0-.864-4.916,29.112,29.112,0,0,0-2.6-5.27c-.724-1.226-1.475-2.456-2.232-3.656l.616-.389c.762,1.206,1.517,2.442,2.244,3.674a29.759,29.759,0,0,1,2.666,5.4,16.741,16.741,0,0,1,.9,5.14Z" transform="translate(-1388.354 -484.049)" fill="#1d7e8e"/>
            </g>
          </g>
        </g>
      </g>
      <g id="Group_1360" data-name="Group 1360" transform="translate(18.123 96.873)">
        <path id="Path_931" data-name="Path 931" d="M1362.932,553.958h28.278l-4.961,28.3h-18.356Z" transform="translate(-1362.932 -553.958)" fill="#9d786a"/>
      </g>
      <g id="Group_1361" data-name="Group 1361" transform="translate(14.661 88.93)">
        <rect id="Rectangle_1041" data-name="Rectangle 1041" width="35.202" height="7.943" transform="translate(35.202 7.943) rotate(180)" fill="#94624f"/>
      </g>
      <g id="Group_1362" data-name="Group 1362" transform="translate(18.123 96.873)" opacity="0.1">
        <path id="Path_932" data-name="Path 932" d="M1390.552,557.711H1363.59l-.658-3.753h28.278Z" transform="translate(-1362.932 -553.958)" fill="#231f20"/>
      </g>
    </g>
    <g id="Group_1364" data-name="Group 1364" transform="translate(1135.697 219.766)">
      <path id="Path_933" data-name="Path 933" d="M1226.169,360.745c-.041-.617-.079-1.24-.112-1.852l.429-.024c.033.611.071,1.232.112,1.847Zm222.046,1.675-.238-.357a17.828,17.828,0,0,0,1.79-1.435l.287.319A17.854,17.854,0,0,1,1448.215,362.42Zm-222.268-5.846c-.031-.773-.055-1.554-.073-2.32l.429-.01c.018.764.043,1.542.073,2.313Zm225.764,2.718-.319-.287a19.9,19.9,0,0,0,1.439-1.787l.349.249A20.325,20.325,0,0,1,1451.712,359.292Zm-225.873-7.359c-.006-.774-.006-1.555,0-2.322l.429,0c-.007.764-.007,1.543,0,2.314Zm228.573,3.534-.381-.2a14.1,14.1,0,0,0,.893-2.1l.408.134A14.556,14.556,0,0,1,1454.411,355.467Zm-228.1-8.165-.429-.012c.021-.774.048-1.554.082-2.32l.429.019C1226.358,345.753,1226.33,346.531,1226.31,347.3Zm229.551,3.709-.426-.057a11.479,11.479,0,0,0,.1-1.319c.005-.315,0-.635-.024-.95l.428-.029c.022.327.031.659.025.986A12.006,12.006,0,0,1,1455.861,351.011Zm-.725-4.567a13.567,13.567,0,0,0-.774-2.143l.39-.178a14.008,14.008,0,0,1,.8,2.211Zm-228.622-3.764-.429-.027c.048-.772.1-1.552.167-2.315l.428.035C1226.618,341.133,1226.562,341.909,1226.514,342.679Zm226.751-.383a20.58,20.58,0,0,0-1.345-1.856l.333-.27a20.844,20.844,0,0,1,1.374,1.9Zm-226.376-4.228-.427-.043c.078-.77.164-1.546.256-2.307l.426.052C1227.052,336.528,1226.967,337.3,1226.889,338.068Zm223.5.658-.184-.187a16.938,16.938,0,0,0-1.5-1.344l.266-.337a17.4,17.4,0,0,1,1.543,1.379l.186.19Zm-222.945-5.25-.425-.06c.108-.766.226-1.538.35-2.294l.424.069C1227.67,331.945,1227.553,332.714,1227.445,333.477Zm219.382,2.422a20.731,20.731,0,0,0-2.023-1.067l.18-.39a21.248,21.248,0,0,1,2.064,1.089Zm-4.148-1.932c-.69-.248-1.407-.477-2.193-.7l.118-.413c.8.227,1.521.459,2.22.71Zm-4.427-1.281c-.68-.161-1.419-.324-2.258-.5l.087-.42c.844.176,1.586.34,2.27.5Zm-210.06-3.773-.422-.078c.141-.761.293-1.528.449-2.278l.42.088C1228.482,327.393,1228.331,328.156,1228.191,328.914Zm205.53,2.817-.69-.135q-.789-.155-1.586-.312l.084-.421q.8.159,1.585.312l.69.135Zm-4.551-.917c-.817-.176-1.558-.346-2.266-.52l.1-.417c.7.172,1.441.342,2.254.517Zm-4.514-1.116c-.768-.221-1.514-.456-2.22-.7l.139-.406c.7.24,1.439.472,2.2.691Zm-4.4-1.518c-.728-.3-1.441-.623-2.121-.959l.191-.385c.671.332,1.376.651,2.094.947Zm-191.121-3.793-.418-.1c.176-.754.361-1.512.553-2.254l.415.107C1229.5,322.882,1229.311,323.637,1229.136,324.388Zm186.953,1.724c-.668-.4-1.326-.822-1.954-1.265l.248-.351c.619.437,1.267.856,1.926,1.247Zm-3.8-2.682c-.59-.492-1.172-1.017-1.727-1.56l.3-.307c.548.535,1.12,1.052,1.7,1.537Zm-182-3.517-.413-.117c.21-.744.433-1.493.66-2.226l.41.127C1230.721,318.426,1230.5,319.171,1230.29,319.912Zm178.67.269c-.5-.573-1-1.178-1.472-1.8l.341-.26c.468.614.957,1.212,1.453,1.777Zm-177.3-4.684-.407-.137c.248-.732.507-1.469.771-2.19l.4.148C1232.164,314.035,1231.906,314.768,1231.659,315.5Zm174.48.989c-.419-.632-.832-1.3-1.227-1.974l.371-.216c.39.671.8,1.328,1.214,1.953Zm-172.888-5.327-.4-.158c.285-.718.583-1.44.885-2.147l.395.169C1233.832,309.725,1233.535,310.444,1233.252,311.158Zm170.547,1.314c-.346-.674-.686-1.377-1.01-2.092l.391-.178c.322.708.659,1.406,1,2.073Zm-168.728-5.562-.39-.18c.324-.7.661-1.407,1-2.1l.385.19C1235.728,305.511,1235.393,306.212,1235.071,306.911Zm166.8,1.335c-.283-.7-.562-1.431-.828-2.17l.4-.145c.264.733.54,1.458.821,2.154Zm-164.754-5.477-.379-.2c.361-.681.737-1.367,1.117-2.037l.373.212C1237.854,301.41,1237.48,302.091,1237.121,302.77Zm163.179,1.109c-.232-.72-.459-1.468-.676-2.221l.412-.119c.216.749.442,1.492.672,2.208Zm-160.9-5.128-.367-.222c.4-.661.815-1.323,1.232-1.969l.36.233C1240.21,297.435,1239.8,298.094,1239.4,298.751Zm159.614.668c-.189-.734-.374-1.493-.551-2.256l.418-.1c.175.76.36,1.516.548,2.246Zm-157.107-4.548-.354-.243c.437-.635.889-1.272,1.344-1.894l.346.254C1242.791,293.6,1242.341,294.238,1241.907,294.87Zm156.033.042c-.192-.733-.416-1.471-.667-2.195l.406-.14c.254.734.482,1.483.677,2.227Zm-153.3-3.77-.339-.264c.474-.609.963-1.218,1.453-1.812l.331.274C1245.593,289.93,1245.107,290.537,1244.636,291.142Zm151.8-.566c-.3-.694-.634-1.393-.99-2.076l.381-.2c.361.692.7,1.4,1,2.1Zm-148.858-3-.323-.283c.508-.58,1.032-1.159,1.557-1.723l.314.292C1248.606,286.428,1248.085,287,1247.579,287.581Zm3.148-3.382-.306-.3c.541-.548,1.1-1.1,1.656-1.63l.3.31C1251.82,283.107,1251.266,283.653,1250.727,284.2Zm143.588,2.3c-.394-.645-.819-1.293-1.262-1.926l.351-.247c.448.64.878,1.3,1.277,1.949ZM1254.067,281l-.288-.318c.571-.516,1.159-1.031,1.747-1.531l.279.326C1255.22,279.98,1254.635,280.492,1254.067,281Zm137.609,1.721c-.47-.592-.969-1.186-1.483-1.764l.321-.285c.519.585,1.023,1.185,1.5,1.783Zm-134.09-4.718-.269-.335c.6-.482,1.216-.963,1.831-1.43l.26.342C1258.794,277.05,1258.181,277.529,1257.585,278.008Zm131.032,1.269c-.531-.539-1.089-1.078-1.658-1.6l.291-.316c.574.53,1.137,1.075,1.673,1.619Zm-127.357-4.059-.25-.349c.623-.447,1.263-.892,1.9-1.324l.24.356C1262.516,274.331,1261.88,274.774,1261.26,275.218Zm123.969.928c-.579-.489-1.183-.977-1.8-1.452l.263-.339c.616.478,1.225.97,1.809,1.463Zm-120.149-3.511-.231-.362c.648-.413,1.311-.824,1.971-1.221l.222.368C1266.384,271.815,1265.724,272.224,1265.079,272.635Zm116.5.681c-.617-.441-1.257-.881-1.9-1.308l.236-.358c.651.43,1.3.873,1.917,1.317Zm-112.545-3.06-.212-.374c.667-.378,1.351-.754,2.034-1.118l.2.379C1270.38,269.505,1269.7,269.88,1269.035,270.256Zm108.691.512c-.647-.4-1.317-.792-1.99-1.175l.212-.373c.678.385,1.352.783,2,1.182Zm-104.615-2.686-.192-.384c.687-.345,1.39-.687,2.089-1.015l.183.388C1274.5,267.4,1273.8,267.738,1273.112,268.082Zm100.6.4c-.671-.355-1.365-.709-2.06-1.051l.19-.385c.7.344,1.4.7,2.071,1.057Zm-96.416-2.37-.173-.393c.7-.31,1.421-.618,2.136-.913l.165.4C1278.71,265.5,1277.994,265.8,1277.294,266.111Zm92.267.327c-.692-.317-1.4-.631-2.115-.935l.169-.395c.715.305,1.43.621,2.126.94Zm-87.992-2.1-.155-.4c.717-.277,1.449-.55,2.177-.813l.146.4C1283.012,263.794,1282.282,264.067,1281.569,264.343Zm83.738.28c-.71-.281-1.437-.56-2.16-.827l.148-.4c.727.268,1.458.548,2.171.831Zm-79.385-1.849-.136-.407c.73-.245,1.474-.485,2.211-.714l.128.41C1287.39,262.29,1286.649,262.53,1285.922,262.773Zm75.045.248c-.723-.248-1.463-.491-2.2-.724l.13-.409c.738.234,1.48.478,2.207.727Zm-70.626-1.622-.118-.413c.739-.212,1.493-.42,2.24-.617l.11.415C1291.829,260.981,1291.078,261.188,1290.341,261.4Zm66.215.223c-.734-.215-1.484-.426-2.227-.626l.112-.414c.747.2,1.5.413,2.237.629Zm-61.741-1.405-.1-.417c.746-.18,1.508-.356,2.263-.522l.092.419C1296.318,259.863,1295.559,260.038,1294.816,260.217Zm57.273.2c-.744-.184-1.5-.363-2.252-.532l.094-.419c.753.17,1.514.35,2.26.534Zm-52.754-1.195-.083-.421c.755-.15,1.522-.295,2.281-.43l.076.423C1300.852,258.929,1300.087,259.073,1299.335,259.223Zm48.239.176c-.751-.153-1.515-.3-2.272-.441l.078-.422c.76.14,1.527.289,2.28.443Zm-43.685-.987-.067-.424c.758-.12,1.53-.234,2.3-.339l.058.425C1305.414,258.18,1304.644,258.293,1303.889,258.412Zm39.133.149c-.756-.124-1.526-.242-2.287-.353l.062-.425c.764.11,1.536.229,2.3.354Zm-34.552-.779-.05-.426c.764-.09,1.54-.174,2.306-.25l.042.427C1310,257.608,1309.232,257.692,1308.47,257.781Zm29.971.118c-.762-.1-1.536-.185-2.3-.266l.045-.427c.766.081,1.542.171,2.307.267Zm-25.372-.572-.034-.428c.767-.061,1.545-.116,2.312-.162l.026.428C1314.609,257.212,1313.834,257.266,1313.069,257.327Zm20.769.084c-.762-.067-1.539-.127-2.307-.18l.03-.428c.771.053,1.549.114,2.315.18Zm-16.159-.364-.019-.429c.767-.032,1.546-.057,2.315-.076l.01.429C1319.22,256.989,1318.444,257.015,1317.68,257.047Zm11.541.047c-.765-.039-1.542-.07-2.309-.095l.013-.429c.769.025,1.549.057,2.317.1Zm-6.927-.156,0-.429c.766,0,1.544,0,2.314.009l-.006.429C1323.833,256.937,1323.057,256.934,1322.294,256.938Z" transform="translate(-1225.834 -256.507)" fill="#e0e0e0"/>
    </g>
    <g id="Group_1399" data-name="Group 1399" transform="translate(1149.47 258.009)">
      <g id="Group_1396" data-name="Group 1396" transform="translate(28.365)">
        <g id="Group_1367" data-name="Group 1367" transform="translate(31.089 123.054)">
          <path id="Path_942" data-name="Path 942" d="M1439.131,629.967a39.518,39.518,0,0,1-4.353,1.774,91.645,91.645,0,0,1-20.323,4.617c-7.231.794-14.9.64-21.3-2.812-10.623-5.726-9.316-15.809-9.315-26.083a2.874,2.874,0,0,1,2.874-2.874h47.614c2.556,0,5.405-.357,7.941,0,1.435.2,2.646.311,3.29,1.935.451,1.14.173,3.674.375,4.972.754,4.838,1.841,10.981-1.779,14.887A16.879,16.879,0,0,1,1439.131,629.967Z" transform="translate(-1383.789 -604.431)" fill="#0b2d4e"/>
        </g>
        <g id="Group_1368" data-name="Group 1368" transform="translate(17.146 54.897)">
          <path id="Path_943" data-name="Path 943" d="M1360.495,479.4c-.741,1.868-1.453,3.747-2.153,5.63-2.4,6.442-8.1,17.371-1.669,23.309.729.673,2.482.636,3.386.457,2.587-.512,3.89-2.922,5.157-4.974,3.8-6.156,6.561-12.9,10.228-19.142,2.647-4.5,3.986-9.877,5.257-14.9.841-3.322,1.922-8.076-.879-10.827a5.453,5.453,0,0,0-4.384-1.5,8.475,8.475,0,0,0-2.726.9,9.944,9.944,0,0,0-2.086,1.311c-1.555,1.328-2.306,3.247-3.233,5.012-1.09,2.077-2.2,4.135-3.223,6.25C1362.833,473.7,1361.63,476.533,1360.495,479.4Z" transform="translate(-1353.713 -457.415)" fill="#f8a17a"/>
        </g>
        <g id="Group_1369" data-name="Group 1369" transform="translate(21.238 51.431)">
          <path id="Path_944" data-name="Path 944" d="M1368.123,465.217c3.554-6.519,8.177-12.383,15.3-14.774,2.041-.685,4.562-.854,6.092.661a4.826,4.826,0,0,1,1.225,3.73c-.118,1.952-1,3.805-1.452,5.7a62.9,62.9,0,0,1-5.424,14.536c-.517.989-4.312,11.73-4.005,12a45.468,45.468,0,0,0-9.062-6.306c-.8-.378-8.049-4.112-8.259-3.64C1364.222,473.324,1365.978,469.151,1368.123,465.217Z" transform="translate(-1362.54 -449.938)" fill="#152c53"/>
        </g>
        <g id="Group_1370" data-name="Group 1370" transform="translate(79.392 54.897)">
          <path id="Path_945" data-name="Path 945" d="M1509.112,479.4c.741,1.868,1.453,3.747,2.153,5.63,2.4,6.442,8.1,17.371,1.669,23.309-.729.673-2.483.636-3.386.457-2.587-.512-3.89-2.922-5.158-4.974-3.8-6.156-6.561-12.9-10.228-19.142-2.646-4.5-3.986-9.877-5.256-14.9-.841-3.322-1.922-8.076.879-10.827a5.454,5.454,0,0,1,4.384-1.5,8.482,8.482,0,0,1,2.726.9,9.954,9.954,0,0,1,2.086,1.311c1.555,1.328,2.306,3.247,3.233,5.012,1.09,2.077,2.2,4.135,3.223,6.25C1506.773,473.7,1507.977,476.533,1509.112,479.4Z" transform="translate(-1487.979 -457.415)" fill="#f8a17a"/>
        </g>
        <g id="Group_1371" data-name="Group 1371" transform="translate(74.968 51.431)">
          <path id="Path_946" data-name="Path 946" d="M1501.067,465.217c-3.554-6.519-8.177-12.383-15.3-14.774-2.041-.685-4.562-.854-6.092.661a4.825,4.825,0,0,0-1.225,3.73c.118,1.952,1,3.805,1.452,5.7a62.887,62.887,0,0,0,5.424,14.536c.517.989,4.312,11.73,4.005,12a45.457,45.457,0,0,1,9.062-6.306c.8-.378,8.049-4.112,8.259-3.64C1504.968,473.324,1503.212,469.151,1501.067,465.217Z" transform="translate(-1478.437 -449.938)" fill="#152c53"/>
        </g>
        <g id="Group_1372" data-name="Group 1372" transform="translate(36.503 49.93)">
          <path id="Path_947" data-name="Path 947" d="M1446.452,513.54c-.047-.194-.093-.389-.138-.583a87.617,87.617,0,0,1-1.716-22.223c.206-7.292,1.83-14.467,2.041-21.764.243-8.413-1.223-20.365-11.752-21.337-4.354-.4-8.734-.872-13.119-.923v-.01c-.156,0-.312,0-.469.005s-.312-.006-.469-.005v.01c-4.385.052-8.765.522-13.119.923-10.529.972-11.994,12.924-11.752,21.337.21,7.3,1.834,14.472,2.041,21.764a87.6,87.6,0,0,1-1.717,22.223c-.045.194-.091.389-.138.583a10.232,10.232,0,0,0-.614,4.139c.54,2.991,7.743,4.442,10.171,5.087a75.628,75.628,0,0,0,13.863,2.08l1.254.091V525l.478-.032.478.032v-.065l1.254-.091a75.629,75.629,0,0,0,13.863-2.08c2.428-.644,9.631-2.1,10.171-5.087A10.221,10.221,0,0,0,1446.452,513.54Z" transform="translate(-1395.468 -446.7)" fill="#8490a5"/>
        </g>
        <g id="Group_1373" data-name="Group 1373" transform="translate(52.806 34.791)">
          <path id="Path_948" data-name="Path 948" d="M1433.388,437.142c6.5,4.292,19.157.964,15.571-7.548a24.793,24.793,0,0,1-1.255-3.11,18.816,18.816,0,0,1-.384-5.45c.058-2.123.075-4.253.191-6.373a28.729,28.729,0,0,0-6.829-.575c-2.089.077-4.175-.116-6.263-.008a.8.8,0,0,0-.469.122.554.554,0,0,0-.155.4c-.28,2.867,0,5.771-.224,8.643a13.783,13.783,0,0,1-1.076,4.936c-1.129,2.293-2.808,4.423-1.19,6.913A7.135,7.135,0,0,0,1433.388,437.142Z" transform="translate(-1430.634 -414.045)" fill="#f8a17a"/>
        </g>
        <g id="Group_1374" data-name="Group 1374" transform="translate(55.45 34.767)">
          <path id="Path_949" data-name="Path 949" d="M1450.667,426.07a20.588,20.588,0,0,1-.231-5.087c.058-2.123.075-4.253.192-6.373a28.73,28.73,0,0,0-6.829-.575c-2.089.076-4.175-.117-6.263-.008a.807.807,0,0,0-.469.123.551.551,0,0,0-.155.4c-.28,2.867-.005,5.771-.224,8.643a18.759,18.759,0,0,1-.351,2.457c.328.254.661.5,1,.722a11.856,11.856,0,0,0,9.139,1.472A14.208,14.208,0,0,0,1450.667,426.07Z" transform="translate(-1436.336 -413.993)" fill="#e5785c"/>
        </g>
        <g id="Group_1385" data-name="Group 1385" transform="translate(42.427)">
          <g id="Group_1375" data-name="Group 1375" transform="translate(1.573 1.277)">
            <path id="Path_950" data-name="Path 950" d="M1441.5,378.077c-1.971,2.379-4.731,3.946-7.467,5.383a8.986,8.986,0,0,1-2.092.876c-2.265.529-4.551-.7-6.44-2.055a37.3,37.3,0,0,1-7.016-6.569,34.809,34.809,0,0,1-4.544-8.158,17.558,17.558,0,0,1-1.36-9.157c.293-3.319-1.563-6.284-.725-9.638a9.593,9.593,0,0,1,3.6-5.359,6.924,6.924,0,0,1,3.293-1.37c2.673-.291,4.947,1.527,7.59,1.651,2.666.126,5.232-.845,7.794-1.429a12.777,12.777,0,0,1,6.911-.029c2.472.846,3.662,2.737,5.03,4.926,1.168,1.872,2.927,3.275,4.332,4.936a9.148,9.148,0,0,1,1.88,7.956,24.671,24.671,0,0,1-2.706,7.138c-1.086,1.892-2.267,3.884-3.545,5.677a31.964,31.964,0,0,1-3.177,3.561C1442.37,376.934,1441.961,377.523,1441.5,378.077Z" transform="translate(-1411.639 -341.755)" fill="#0b2d4e"/>
          </g>
          <g id="Group_1376" data-name="Group 1376" transform="translate(6.74 10.189)">
            <path id="Path_951" data-name="Path 951" d="M1449.9,377.007a24.937,24.937,0,0,0-1.166-7.439c-3.115-9.223-14.68-11.394-21.564-4.683-7.677,7.484-4.535,25.164,3.691,31.3a9.159,9.159,0,0,0,7.816,1.459C1446.677,395.417,1450.036,385.511,1449.9,377.007Z" transform="translate(-1422.784 -360.977)" fill="#f8a17a"/>
          </g>
          <g id="Group_1377" data-name="Group 1377" transform="translate(6.166 10.174)">
            <path id="Path_952" data-name="Path 952" d="M1451.127,369.52c-3.5-9.219-16.555-11.375-24.334-4.655a17.226,17.226,0,0,0-4.6,6.307c-.9,2.424-.667,5.1-.417,7.68a9.939,9.939,0,0,1,2.586-5.623,18.654,18.654,0,0,1,2.27-2.144c.294-.238,2.5-2.242,2.287-2.517a7.278,7.278,0,0,0,2.772,2.552,25.933,25.933,0,0,0,4.682,1.36c2.825.614,5.036,1.408,7.086,3.522a19.189,19.189,0,0,1,4.178,6.937c.288.807.779,2.05,1.834,1.687a19.665,19.665,0,0,0,2.445-1.818,28.225,28.225,0,0,0,.52-5.849A22.332,22.332,0,0,0,1451.127,369.52Z" transform="translate(-1421.546 -360.945)" fill="#e5785c"/>
          </g>
          <g id="Group_1378" data-name="Group 1378" transform="translate(4.983 7.152)">
            <path id="Path_953" data-name="Path 953" d="M1443.511,371.652a17.686,17.686,0,0,1,1.559,3.723c.671,2.023,1.2,4.2,2.064,6.141,2.936-1.771,4.87-5.949,6.207-8.971a9.279,9.279,0,0,0,.514-7.623,12.6,12.6,0,0,0-3.372-4.817,22.858,22.858,0,0,0-16.834-5.628,27.18,27.18,0,0,0-5.97,1.5c-1.869.541-3.3.9-4.671,2.434a14.264,14.264,0,0,0-2.62,4.8,21.244,21.244,0,0,0-1.349,8.716c.141,1.914.154,3.808,2.05,4.851q-.05-1.709-.1-3.419a6.182,6.182,0,0,1,.475-3.031,11.2,11.2,0,0,1,1.929-3.666c1.254-1.5,2.909-2.867,3.259-4.794a26.993,26.993,0,0,0,10.372,6.035c2.473.851,4.987,1.341,6.456,3.706Z" transform="translate(-1418.994 -354.427)" fill="#0b2d4e"/>
          </g>
          <g id="Group_1379" data-name="Group 1379" transform="translate(31.362 26.003)">
            <path id="Path_954" data-name="Path 954" d="M1478.445,395.548c3.532-1.977,4.674,2.929,4.087,5.382a7.817,7.817,0,0,1-1.251,2.841c-.833,1.128-3.231,3.01-4.636,1.8a3.111,3.111,0,0,1-.739-2.334C1475.832,400.98,1476.05,396.889,1478.445,395.548Z" transform="translate(-1475.895 -395.09)" fill="#f8a17a"/>
          </g>
          <g id="Group_1380" data-name="Group 1380" transform="translate(4.154 26.003)">
            <path id="Path_955" data-name="Path 955" d="M1421.439,395.548c-3.532-1.977-4.674,2.929-4.087,5.382a7.8,7.8,0,0,0,1.25,2.841c.834,1.128,3.232,3.01,4.636,1.8a3.11,3.11,0,0,0,.739-2.334C1424.052,400.98,1423.833,396.889,1421.439,395.548Z" transform="translate(-1417.206 -395.09)" fill="#f8a17a"/>
          </g>
          <g id="Group_1381" data-name="Group 1381">
            <path id="Path_956" data-name="Path 956" d="M1447.392,365.482l-.423-.288.213-.313c1.961-2.876,5.613-8.229,3.757-11.775a8.036,8.036,0,0,0-2.922-2.745,10.378,10.378,0,0,1-2.768-2.377,10.74,10.74,0,0,1-1.262-2.661,16.847,16.847,0,0,0-.692-1.7c-1.575-3.165-5.062-4.7-8.881-3.911a21.324,21.324,0,0,0-3.845,1.359c-2.459,1.041-5,2.118-7.54,1.424a10.713,10.713,0,0,1-2.469-1.161,10.8,10.8,0,0,0-2.378-1.131,6.916,6.916,0,0,0-5.367.743,8.332,8.332,0,0,0-3.992,6.168,10.169,10.169,0,0,0,1.276,6.317c.133.225.272.45.413.676a6.78,6.78,0,0,1,1.339,3.355l-.511.011a6.411,6.411,0,0,0-1.262-3.095c-.143-.229-.285-.458-.42-.687a10.68,10.68,0,0,1-1.344-6.632,8.852,8.852,0,0,1,4.241-6.553,7.431,7.431,0,0,1,5.766-.794,11.2,11.2,0,0,1,2.494,1.18,10.19,10.19,0,0,0,2.348,1.111c2.366.647,4.825-.394,7.2-1.4a22.025,22.025,0,0,1,3.941-1.388c4.053-.838,7.76.8,9.442,4.184a17.231,17.231,0,0,1,.714,1.747,10.217,10.217,0,0,0,1.2,2.537,9.989,9.989,0,0,0,2.638,2.253,8.534,8.534,0,0,1,3.09,2.933c2,3.818-1.625,9.128-3.788,12.3Z" transform="translate(-1408.245 -339)" fill="#0b2d4e"/>
          </g>
          <g id="Group_1384" data-name="Group 1384" transform="translate(12.3 5.72)">
            <g id="Group_1383" data-name="Group 1383">
              <g id="Group_1382" data-name="Group 1382">
                <path id="Path_957" data-name="Path 957" d="M1434.777,352.83a32.8,32.8,0,0,0,8.67-1.032,29.321,29.321,0,0,1,4.389-.446q1.1-.032,2.209.012a13.89,13.89,0,0,1,2.219.22,6.218,6.218,0,0,1,3.792,2.352,4.229,4.229,0,0,1,.638,2.187,15.11,15.11,0,0,0,.182,2.153,4.5,4.5,0,0,0,.931,1.881,12.128,12.128,0,0,1,1.259,1.821,5.583,5.583,0,0,1,.5,2.159,15.314,15.314,0,0,1-.08,2.2,18.913,18.913,0,0,0-.049-2.187,5.4,5.4,0,0,0-.588-2.06,12.235,12.235,0,0,0-1.29-1.741,4.86,4.86,0,0,1-1.052-1.986,12.543,12.543,0,0,1-.237-2.207,3.8,3.8,0,0,0-.585-1.968,4.04,4.04,0,0,0-.705-.76,5.992,5.992,0,0,0-.851-.622,6.267,6.267,0,0,0-1.967-.742,13.41,13.41,0,0,0-2.14-.232q-1.087-.054-2.177-.033a34.653,34.653,0,0,0-4.34.372c-1.431.226-2.879.526-4.339.674A19.429,19.429,0,0,1,1434.777,352.83Z" transform="translate(-1434.777 -351.339)" fill="#e6e8ec"/>
              </g>
            </g>
          </g>
        </g>
        <g id="Group_1390" data-name="Group 1390" transform="translate(0 120.212)">
          <g id="Group_1386" data-name="Group 1386" transform="translate(21.617 23.004)">
            <path id="Path_958" data-name="Path 958" d="M1382.95,647.924c-2.208.906-4.424,1.787-6.645,2.606-2.272.839-15.4,3.562-12.544,8.537.56.977,1.823,1.247,2.938,1.4,6.413.888,12.865.067,19.255-1" transform="translate(-1363.357 -647.924)" fill="#f8a17a"/>
          </g>
          <g id="Group_1387" data-name="Group 1387" transform="translate(2.927 26.751)">
            <path id="Path_959" data-name="Path 959" d="M1352.323,665.349c-2.7.91-5.615,1.437-8.152,2.139-1.143.317-2.288.634-3.45.874a53.582,53.582,0,0,1-5.6.75l-4.088.4a3.5,3.5,0,0,1-4.1-1.971,51.534,51.534,0,0,1-3.058-4.355c-.563-1.015-1.148-2.007-.632-3.173a5.38,5.38,0,0,1,1.1-1.5,9.942,9.942,0,0,1,1.824-1.556c2.227-1.407,4.679-.944,7.127-.56a55.694,55.694,0,0,0,7.814.923,52.078,52.078,0,0,0,8.421-.857" transform="translate(-1323.042 -656.006)" fill="#d5eff7"/>
          </g>
          <g id="Group_1388" data-name="Group 1388" transform="translate(0 26.267)">
            <path id="Path_960" data-name="Path 960" d="M1339.513,668.718q.646-.073,1.295-.143a5.036,5.036,0,0,0,3.038-1.046,1.136,1.136,0,0,0,.281-.41.977.977,0,0,0-.438-1.066,2.538,2.538,0,0,0-1.178-.342c.476.051,1.114-1.745,1.18-2.075a8.867,8.867,0,0,0,.113-2.851,4.1,4.1,0,0,0-.978-2.317c-.307-.327-1.368-1.318-1.89-1.142a.941.941,0,0,0,.5-1.186,1.521,1.521,0,0,0-1.054-.888,4.309,4.309,0,0,0-1.424-.078,36.322,36.322,0,0,1-7.541.064,23.117,23.117,0,0,0-6.516-.084,15.021,15.021,0,0,0-4.8,1.479,6.829,6.829,0,0,0-1.167.741c-4.863,3.821-.811,9.969,3.677,11.842,3.318,1.385,6.629.821,10.059.355C1334.959,669.258,1337.224,668.975,1339.513,668.718Z" transform="translate(-1316.728 -654.962)" fill="#2f7e48"/>
          </g>
          <g id="Group_1389" data-name="Group 1389" transform="translate(35.858)">
            <path id="Path_961" data-name="Path 961" d="M1397.305,634.481c2.982-.5,11.906-2.269,14.851-2.722,14.778-2.271,29.364-5.363,42.845-12.1,3.107-1.56,6.35-4.034,7.992-7.152,4.307-8.2-3.987-16.051-12.214-13.812-13.741,3.74-24.836,10.033-38.029,15.393-2.2.895-6.151,2.777-8.381,3.719-1.915.809-8.363,3.056-10.294,3.848" transform="translate(-1394.076 -598.303)" fill="#0b2d4e"/>
          </g>
        </g>
        <g id="Group_1395" data-name="Group 1395" transform="translate(17.555 120.456)">
          <g id="Group_1391" data-name="Group 1391" transform="translate(58.711 24.746)">
            <path id="Path_962" data-name="Path 962" d="M1484.668,652.206c2.1.978,4.206,1.93,6.321,2.825,2.163.915,14.758,4.145,11.77,8.837-.586.921-1.822,1.126-2.91,1.226-6.254.572-12.469-.515-18.613-1.833" transform="translate(-1481.236 -652.206)" fill="#f8a17a"/>
          </g>
          <g id="Group_1392" data-name="Group 1392" transform="translate(70.275 29.352)">
            <path id="Path_963" data-name="Path 963" d="M1506.18,670.625c2.575,1,5.377,1.645,7.8,2.44,1.094.358,2.188.717,3.3,1a52,52,0,0,0,5.393.98l3.943.573a3.4,3.4,0,0,0,4.064-1.724,50.023,50.023,0,0,0,3.159-4.082c.592-.958,1.2-1.893.756-3.046a5.219,5.219,0,0,0-1-1.506,9.622,9.622,0,0,0-1.7-1.59c-2.095-1.464-4.491-1.125-6.881-.864a54.155,54.155,0,0,1-7.613.543,50.532,50.532,0,0,1-8.121-1.21" transform="translate(-1506.18 -662.142)" fill="#d5eff7"/>
          </g>
          <g id="Group_1393" data-name="Group 1393" transform="translate(74.802 28.916)">
            <path id="Path_964" data-name="Path 964" d="M1520.373,674.351l-1.248-.2a4.885,4.885,0,0,1-2.9-1.15,1.092,1.092,0,0,1-.253-.41.945.945,0,0,1,.471-1.013,2.464,2.464,0,0,1,1.157-.279c-.463.027-1-1.741-1.05-2.063a8.587,8.587,0,0,1,.019-2.768,3.973,3.973,0,0,1,1.052-2.2c.313-.3,1.385-1.216,1.883-1.022a.913.913,0,0,1-.431-1.172,1.477,1.477,0,0,1,1.062-.813,4.173,4.173,0,0,1,1.383-.012,35.243,35.243,0,0,0,7.3.4,22.408,22.408,0,0,1,6.318.212,14.566,14.566,0,0,1,4.583,1.649,6.613,6.613,0,0,1,1.1.771c4.54,3.922.335,9.7-4.1,11.309-3.278,1.192-6.46.5-9.762-.11C1524.761,675.08,1522.58,674.7,1520.373,674.351Z" transform="translate(-1515.947 -661.2)" fill="#2f7e48"/>
          </g>
          <g id="Group_1394" data-name="Group 1394">
            <path id="Path_965" data-name="Path 965" d="M1418.2,636.434c-2.868-.615-11.435-2.736-14.268-3.307-14.217-2.866-28.211-6.52-40.971-13.66-2.94-1.651-5.971-4.195-7.421-7.291-3.8-8.141,4.586-15.373,12.457-12.833,13.146,4.243,23.614,10.841,36.156,16.629,2.094.966,5.835,2.968,7.954,3.981,1.819.87,7.966,3.337,9.8,4.192" transform="translate(-1354.594 -598.828)" fill="#0b2d4e"/>
          </g>
        </g>
      </g>
      <g id="Group_1397" data-name="Group 1397" transform="translate(121.463 81.431)">
        <path id="Path_966" data-name="Path 966" d="M1610.527,515.321v0a1.664,1.664,0,0,1,.111,1.815l-2.212,3.888.469,5.587-1.791,3.95-3.934-3.015,1.705-8.623,3.031-3.671A1.664,1.664,0,0,1,1610.527,515.321Z" transform="translate(-1563.474 -514.649)" fill="#f8a17a"/>
        <path id="Path_967" data-name="Path 967" d="M1609.9,524s2.708.5,3.715-.1,1.427-4.24-.883-4.5-1.386-3.413.461-3.173,5.892,3.864,4.81,8.175c0,0,5.065-.573,6.467.753s.606,2.515-.374,2.364-5.4.1-5.4.1l.039.523s4.418-.306,5.328.19,1.352,2.716-1.248,2.449a64.114,64.114,0,0,0-8.946.453L1608.6,533.3l-3.079-5.233Z" transform="translate(-1564.732 -515.489)" fill="#f8a17a"/>
        <path id="Path_968" data-name="Path 968" d="M1517.543,544.443s7.166,17.028,9.948,18.419,25.961-10.2,34.306-15.762c-1.854-5.1-4.636-5.1-4.636-5.1s-20.4,5.1-24.107,7.418a50.422,50.422,0,0,1-1.637-6.438Z" transform="translate(-1517.543 -529.32)" fill="#f8a17a"/>
      </g>
      <g id="Group_1398" data-name="Group 1398" transform="translate(0 80.503)">
        <path id="Path_969" data-name="Path 969" d="M1284.15,513.321v0a1.664,1.664,0,0,0-.11,1.815l2.211,3.888-.469,5.587,1.791,3.95,3.935-3.015-1.706-8.623-3.03-3.671A1.665,1.665,0,0,0,1284.15,513.321Z" transform="translate(-1270.711 -512.649)" fill="#f8a17a"/>
        <path id="Path_970" data-name="Path 970" d="M1270.871,522s-2.707.5-3.715-.1-1.428-4.24.883-4.5,1.385-3.413-.462-3.173-5.892,3.864-4.81,8.175c0,0-5.065-.573-6.468.753s-.606,2.515.375,2.364,5.4.1,5.4.1l-.04.523s-4.417-.306-5.328.191-1.353,2.716,1.247,2.449a64.123,64.123,0,0,1,8.947.453l5.273,2.073,3.079-5.233Z" transform="translate(-1255.543 -513.489)" fill="#f8a17a"/>
        <path id="Path_971" data-name="Path 971" d="M1334.823,542.443s-7.166,17.028-9.948,18.419-25.961-10.2-34.306-15.762c1.854-5.1,4.636-5.1,4.636-5.1s20.4,5.1,24.107,7.418a50.41,50.41,0,0,0,1.637-6.438Z" transform="translate(-1274.331 -527.32)" fill="#f8a17a"/>
      </g>
    </g>
    <g id="Group_1400" data-name="Group 1400" transform="translate(1271.315 194.323)">
      <path id="Path_972" data-name="Path 972" d="M1534.891,201.626l-9.916,19.133-6.609,21.494,29.261,15.822,5.815-26.65,7.719-12.156Z" transform="translate(-1518.367 -201.626)" fill="#f8ebec"/>
      <path id="Path_973" data-name="Path 973" d="M1568.808,219.269l-26.271-17.643-9.916,19.133,28.468,10.666Z" transform="translate(-1526.013 -201.626)" fill="#e8dbdc"/>
      <path id="Path_974" data-name="Path 974" d="M1587.549,248.225l-.375,2.908,5.572-1.943-.216-.619-4.132,1.094-.647-1.857Z" transform="translate(-1555.275 -226.398)" fill="#51ba6c"/>
      <path id="Path_975" data-name="Path 975" d="M1557.023,216.948l19.453,12.238-.89,1.381-19.214-12.681Z" transform="translate(-1538.753 -209.845)" fill="#4a3a4f" opacity="0.5"/>
      <path id="Path_976" data-name="Path 976" d="M1551.976,225.635l14.818,9.731-.865,1.395-14.578-10.175Z" transform="translate(-1536.059 -214.505)" fill="#4a3a4f" opacity="0.5"/>
      <path id="Path_977" data-name="Path 977" d="M1547,233.774l19.453,12.238-.89,1.381-19.213-12.681Z" transform="translate(-1533.376 -218.871)" fill="#4a3a4f" opacity="0.5"/>
      <path id="Path_978" data-name="Path 978" d="M1544.163,243.4l19.42,11.5-.567,1.842-19.061-12.169Z" transform="translate(-1532.093 -224.032)" fill="#4a3a4f" opacity="0.5"/>
      <path id="Path_979" data-name="Path 979" d="M1539.8,253.237l13.337,8.644-.562,1.415-13.222-8.3Z" transform="translate(-1529.623 -229.31)" fill="#4a3a4f" opacity="0.5"/>
      <path id="Path_980" data-name="Path 980" d="M1536.3,265.767l19.13,11.776-.5,1.45-18.917-11.375Z" transform="translate(-1527.834 -236.031)" fill="#4a3a4f" opacity="0.5"/>
      <path id="Path_981" data-name="Path 981" d="M1530.5,279.692l16.256,10.222-.541,1.427-16.108-9.856Z" transform="translate(-1524.665 -243.501)" fill="#4a3a4f" opacity="0.5"/>
      <path id="Path_982" data-name="Path 982" d="M1570,302.811l.005,2.932,5.273-2.648-.294-.586-3.956,1.619-.883-1.758Z" transform="translate(-1546.063 -255.666)" fill="#51ba6c"/>
      <path id="Path_983" data-name="Path 983" d="M1576.559,276.446l-.227,2.923,5.466-2.222-.247-.607-4.072,1.3-.74-1.822Z" transform="translate(-1549.459 -241.531)" fill="#51ba6c"/>
    </g>
    <g id="Group_1402" data-name="Group 1402" transform="translate(1233.893 296.488)">
      <g id="Group_1401" data-name="Group 1401">
        <path id="Path_984" data-name="Path 984" d="M1448.466,422.746a5.044,5.044,0,0,1-8.748,0,3.314,3.314,0,0,0-2.071-.746,6.694,6.694,0,0,0,6.445,4.919h0a6.694,6.694,0,0,0,6.445-4.919A3.317,3.317,0,0,0,1448.466,422.746Z" transform="translate(-1437.647 -422)" fill="#f08668"/>
      </g>
      <path id="Path_985" data-name="Path 985" d="M1447.863,429.207l.06,0c.057,0,.113-.01.168-.018l.047-.006c.071-.01.142-.023.212-.038l.014,0c.067-.015.133-.031.2-.05l.031-.008a3.4,3.4,0,0,0,2.427-2.8,5.04,5.04,0,0,1-6.745,0,3.405,3.405,0,0,0,3.277,2.932l.1,0h0C1447.72,429.215,1447.792,429.211,1447.863,429.207Z" transform="translate(-1441.202 -424.296)" fill="#f08668"/>
    </g>
    <path id="Path_986" data-name="Path 986" d="M1446.287,698.068c0,1.725-10.586,3.123-23.644,3.123s-23.643-1.4-23.643-3.123,10.585-3.123,23.643-3.123S1446.287,696.343,1446.287,698.068Z" transform="translate(-183.023 -271.92)" fill="#152c53"/>
    <g id="Group_1406" data-name="Group 1406" transform="translate(1168.141 188.011)">
      <g id="Group_1405" data-name="Group 1405">
        <path id="Path_987" data-name="Path 987" d="M1312.775,248.869a1.746,1.746,0,0,1-2.192-1.146l-12.67-38.083a1.747,1.747,0,0,1,1.061-2.232L1354,189.1a1.75,1.75,0,0,1,2.192,1.15l12.67,38.08a1.749,1.749,0,0,1-1.062,2.234Z" transform="translate(-1296.891 -188.548)" fill="#e6e6e6"/>
        <path id="Path_988" data-name="Path 988" d="M1310.774,247.869a1.746,1.746,0,0,1-2.192-1.146l-12.67-38.083a1.747,1.747,0,0,1,1.061-2.232L1352,188.1a1.75,1.75,0,0,1,2.192,1.15l12.67,38.08a1.75,1.75,0,0,1-1.062,2.234Z" transform="translate(-1295.818 -188.011)" fill="#fff"/>
        <path id="Path_989" data-name="Path 989" d="M1320.258,248.708a1.465,1.465,0,0,1-1.843-.922L1308.1,216.77a1.446,1.446,0,0,1,.914-1.837l46.591-15.5a1.458,1.458,0,0,1,1.841.923l10.319,31.012a1.45,1.45,0,0,1-.916,1.837Z" transform="translate(-1302.366 -194.097)" fill="#152c53"/>
        <g id="Group_1404" data-name="Group 1404" transform="translate(28.636 22.957)">
          <path id="Path_990" data-name="Path 990" d="M1373.513,245.11a4.007,4.007,0,0,0-1.341-1.323l-.016-.01c-.078-.047-.159-.093-.241-.134a4.029,4.029,0,0,0-5.418,1.765h0l0,.005a4.028,4.028,0,0,0,1.669,5.359c.033.018.065.037.1.054h0c.076.039.153.074.23.107l.066.027c.062.025.124.05.186.071l.053.019q.122.042.244.075l.016,0c.078.021.157.039.236.055l.037.007a4.023,4.023,0,0,0,4.348-2.131l1.914-3.764A2.44,2.44,0,0,0,1373.513,245.11Zm-4.371,3.986a2.088,2.088,0,1,1,2.808-.915A2.09,2.09,0,0,1,1369.141,249.1Z" transform="translate(-1362.131 -240.573)" fill="#51ba6c"/>
          <g id="Group_1403" data-name="Group 1403">
            <path id="Path_991" data-name="Path 991" d="M1364.274,249.975a5.968,5.968,0,0,1-3.206-9.841,3.923,3.923,0,0,0,.08-2.6,7.921,7.921,0,0,0-3.171,9.054h0a7.92,7.92,0,0,0,7.9,5.448A3.924,3.924,0,0,0,1364.274,249.975Z" transform="translate(-1357.588 -237.53)" fill="#51ba6c"/>
          </g>
          <path id="Path_992" data-name="Path 992" d="M1358.286,251.665l.027.066c.026.062.053.123.082.182l.024.051c.037.076.077.152.12.225l.009.014q.061.1.128.205l.021.032a4.024,4.024,0,0,0,4.04,1.7,5.964,5.964,0,0,1-2.473-7.588,4.029,4.029,0,0,0-2.1,4.761c.011.036.02.072.032.108h0C1358.225,251.507,1358.255,251.586,1358.286,251.665Z" transform="translate(-1357.809 -242.372)" fill="#30975d"/>
        </g>
        <path id="Path_993" data-name="Path 993" d="M1358.808,210.226l-16.994,5.655,41.819,23.6,1.342-.446a1.451,1.451,0,0,0,.916-1.837l-4.788-14.388Z" transform="translate(-1320.49 -199.927)" fill="#fff" opacity="0.3"/>
        <path id="Path_994" data-name="Path 994" d="M1340.512,281.365l-21.593-12.185,2.811,8.456,11.124,6.278Z" transform="translate(-1308.209 -231.55)" fill="#fff" opacity="0.3"/>
      </g>
    </g>
    <g id="Group_1409" data-name="Group 1409" transform="translate(1331.124 249.034)">
      <path id="Path_995" data-name="Path 995" d="M1683.472,367.084a2.736,2.736,0,0,1-2.4,3.031l-23.551,2.723a2.733,2.733,0,0,1-3.031-2.4l-5.092-44.021a2.737,2.737,0,0,1,2.4-3.032l23.551-2.724a2.738,2.738,0,0,1,3.033,2.4Z" transform="translate(-1648.451 -320.177)" fill="#e6e6e6"/>
      <path id="Path_996" data-name="Path 996" d="M1681.472,366.084a2.736,2.736,0,0,1-2.4,3.031l-23.55,2.723a2.733,2.733,0,0,1-3.031-2.4l-5.092-44.021a2.737,2.737,0,0,1,2.4-3.032l23.551-2.724a2.738,2.738,0,0,1,3.033,2.4Z" transform="translate(-1647.378 -319.64)" fill="#fff"/>
      <path id="Path_997" data-name="Path 997" d="M1688.761,416.05a2.736,2.736,0,1,0-2.4,3.032A2.734,2.734,0,0,0,1688.761,416.05Z" transform="translate(-1666.651 -370.056)" fill="#ccc"/>
      <path id="Path_998" data-name="Path 998" d="M1681.44,364.7a1.154,1.154,0,0,1-1.013,1.28l-21.978,2.542a1.156,1.156,0,0,1-1.28-1.015l-3.757-32.491a1.155,1.155,0,0,1,1.016-1.279L1676.4,331.2a1.155,1.155,0,0,1,1.28,1.013Z" transform="translate(-1650.61 -325.836)" fill="#152c53"/>
      <g id="Group_1408" data-name="Group 1408" transform="translate(12.507 20.614)">
        <path id="Path_999" data-name="Path 999" d="M1680.6,365.38a2.546,2.546,0,0,0-.988.675l-.008.009c-.039.043-.077.088-.114.134a2.56,2.56,0,0,0,.442,3.593h0l0,0a2.559,2.559,0,0,0,3.544-.389c.015-.018.031-.036.045-.055h0c.033-.043.065-.087.095-.131l.025-.038c.023-.036.046-.071.067-.108l.018-.031c.027-.047.052-.1.076-.143l0-.01q.034-.07.063-.14l.009-.022a2.558,2.558,0,0,0-.8-2.97l-2.114-1.651A1.55,1.55,0,0,0,1680.6,365.38Zm1.953,3.21a1.327,1.327,0,1,1-.229-1.862A1.328,1.328,0,0,1,1682.55,368.591Z" transform="translate(-1676.817 -364.106)" fill="#51ba6c"/>
        <g id="Group_1407" data-name="Group 1407" transform="translate(0 4.417)">
          <path id="Path_1000" data-name="Path 1000" d="M1682.5,374.379a3.792,3.792,0,0,1-6.526.8,2.491,2.491,0,0,0-1.614-.367,5.032,5.032,0,0,0,5.26,3.078h0a5.032,5.032,0,0,0,4.357-4.261A2.493,2.493,0,0,0,1682.5,374.379Z" transform="translate(-1674.356 -373.633)" fill="#51ba6c"/>
        </g>
        <path id="Path_1001" data-name="Path 1001" d="M1682.639,379.907l.045-.009c.042-.009.083-.018.124-.029l.034-.009c.052-.014.1-.03.155-.047l.01,0c.049-.017.1-.035.144-.055l.022-.009a2.557,2.557,0,0,0,1.554-2.312,3.789,3.789,0,0,1-5.032.619,2.56,2.56,0,0,0,2.713,1.886l.072-.007h0C1682.533,379.926,1682.586,379.917,1682.639,379.907Z" transform="translate(-1677.219 -371.255)" fill="#30975d"/>
      </g>
      <path id="Path_1002" data-name="Path 1002" d="M1657.841,362.472l21.667-25.339-.569-4.921a1.155,1.155,0,0,0-1.279-1.013l-11.863,1.372-10.054,11.758Z" transform="translate(-1651.865 -325.836)" fill="#fff" opacity="0.45"/>
    </g>
    <g id="Group_1410" data-name="Group 1410" transform="translate(1093.108 302.063)">
      <path id="Path_1003" data-name="Path 1003" d="M1174.38,434.025l-20.541,6.517-19.872,10.526,9.5,31.878,22.956-14.732,14.054-3.138Z" transform="translate(-1133.968 -434.025)" fill="#f8ebec"/>
      <path id="Path_1004" data-name="Path 1004" d="M1203.473,465.077l-6.1-31.052-20.54,6.518,12.588,27.672Z" transform="translate(-1156.96 -434.025)" fill="#e8dbdc"/>
      <path id="Path_1005" data-name="Path 1005" d="M1209.183,491.162l-2.321,1.791,5.313,2.566.285-.59-3.695-2.148.855-1.771Z" transform="translate(-1173.068 -464.591)" fill="#51ba6c"/>
      <path id="Path_1006" data-name="Path 1006" d="M1211.668,447.522l5.1,22.409-1.606.347-4.619-22.553Z" transform="translate(-1175.044 -441.265)" fill="#4a3a4f" opacity="0.5"/>
      <path id="Path_1007" data-name="Path 1007" d="M1201.945,450.074l3.6,17.359-1.6.375-3.114-17.5Z" transform="translate(-1169.833 -442.634)" fill="#4a3a4f" opacity="0.5"/>
      <path id="Path_1008" data-name="Path 1008" d="M1192.681,452.331l5.1,22.409-1.606.347-4.619-22.553Z" transform="translate(-1164.86 -443.844)" fill="#4a3a4f" opacity="0.5"/>
      <path id="Path_1009" data-name="Path 1009" d="M1183.677,456.767l5.6,21.866-1.7.9-4.873-22.082Z" transform="translate(-1160.107 -446.224)" fill="#4a3a4f" opacity="0.5"/>
      <path id="Path_1010" data-name="Path 1010" d="M1173.152,460.836l3.319,15.543-1.4.6-3.484-15.216Z" transform="translate(-1154.148 -448.407)" fill="#4a3a4f" opacity="0.5"/>
      <path id="Path_1011" data-name="Path 1011" d="M1161.748,467.09l5.2,21.854-1.377.673-5.333-21.419Z" transform="translate(-1148.059 -451.761)" fill="#4a3a4f" opacity="0.5"/>
      <path id="Path_1012" data-name="Path 1012" d="M1147.848,472.924l4.266,18.723-1.391.626-4.421-18.359Z" transform="translate(-1140.584 -454.89)" fill="#4a3a4f" opacity="0.5"/>
      <path id="Path_1013" data-name="Path 1013" d="M1158.142,517l-2.07,2.077,5.6,1.857.206-.622-3.942-1.652.619-1.867Z" transform="translate(-1145.825 -478.421)" fill="#51ba6c"/>
      <path id="Path_1014" data-name="Path 1014" d="M1181.436,503.208l-2.228,1.906,5.436,2.294.255-.6-3.8-1.959.765-1.812Z" transform="translate(-1158.235 -471.041)" fill="#51ba6c"/>
    </g>
    <g id="Group_1419" data-name="Group 1419" transform="translate(1109.283 243.187)">
      <g id="Group_1417" data-name="Group 1417">
        <g id="Group_1411" data-name="Group 1411" transform="translate(0 12.353)">
          <path id="Path_1015" data-name="Path 1015" d="M1184.9,333.726a66.734,66.734,0,0,0-13.78,1.167c-1.442.223-2.972,1.012-1.9,2.74a3.818,3.818,0,0,0,2.929,1.369c4.76.579,9.658.009,14.445.05" transform="translate(-1168.857 -333.675)" fill="#0b2d4e"/>
        </g>
        <g id="Group_1412" data-name="Group 1412" transform="translate(6.944 6.293)">
          <path id="Path_1016" data-name="Path 1016" d="M1227.253,340.282c-1.214,4.161-5.692,8.873-10.446,7.985a24.086,24.086,0,0,1-5.633-2.346q-3.193-1.551-6.382-3.109l-12.537-6.107c-2.754-1.342-5.659-2.818-7.237-5.443-1.875-3.12-1.64-7.119,1.559-9.127,2.749-1.725,6.4-1.84,9.483-1.106,5.161,1.23,9.382,4.89,14.434,6.276a15.1,15.1,0,0,0,2.521.474c4.928.485,10.1.383,13.2,4.919A9.091,9.091,0,0,1,1227.253,340.282Z" transform="translate(-1183.835 -320.602)" fill="#061f33"/>
        </g>
        <g id="Group_1413" data-name="Group 1413" transform="translate(3.82)">
          <path id="Path_1017" data-name="Path 1017" d="M1192.881,308.078c-.346-1.075-.706-1.426-1.634-.575a11.235,11.235,0,0,0-2.646,3.471,12.767,12.767,0,0,0-5.913-.009,11.225,11.225,0,0,0-2.907-3.281c-.989-.779-1.321-.4-1.586.7a35.185,35.185,0,0,0-.638,4.126c-.1.866-.231,1.728-.327,2.593a5.908,5.908,0,0,0,.007,2.527c.5,2.107,2.51,4.158,4.279,5.311a6.78,6.78,0,0,0,6.5.791,12.444,12.444,0,0,0,5.071-4.155,7.164,7.164,0,0,0,1.3-3.432,13.488,13.488,0,0,0-.567-3.987A36.367,36.367,0,0,0,1192.881,308.078Z" transform="translate(-1177.099 -307.028)" fill="#0b2d4e"/>
        </g>
        <g id="Group_1414" data-name="Group 1414" transform="translate(8.786 21.398)">
          <path id="Path_1018" data-name="Path 1018" d="M1227.7,353.185c2.192,5.755-.341,9.971-4.433,12.813-4.537,3.152-10,4.143-15.443,3.886-6.426-.3-13.1-2.079-18.181-6.169-1.021-.822-2.01-1.99-1.807-3.286.6-3.833,5.8-1.272,7.744-.539,3.99,1.507,8.071,3.41,12.4,3.947a17.929,17.929,0,0,0,12.888-3.693" transform="translate(-1187.808 -353.185)" fill="#0b2d4e"/>
        </g>
        <g id="Group_1415" data-name="Group 1415" transform="translate(21.764 15.532)">
          <path id="Path_1019" data-name="Path 1019" d="M1242.679,353.967a9.1,9.1,0,0,0,.646-5.842c-1.135-4.943-6.624-7.706-11.369-7.59-5.442.133-8.955,5.7-9.229,10.674-.013.228-1.6-.6-1.738-.654-1.2-.472-3.486-1.839-4.626-.641a2.4,2.4,0,0,0,.063,3.154,4.454,4.454,0,0,0,1.183.724q4.5,2.145,8.99,4.313c2.346,1.127,4.326,1.541,6.691.211,1.231-.692,2.341-1.591,3.6-2.225" transform="translate(-1215.804 -340.531)" fill="#0b2d4e"/>
        </g>
        <g id="Group_1416" data-name="Group 1416" transform="translate(10.887 12.553)">
          <path id="Path_1020" data-name="Path 1020" d="M1194.528,335.133a1.108,1.108,0,1,1-1.02-1.024A1.028,1.028,0,0,1,1194.528,335.133Z" transform="translate(-1192.341 -334.105)" fill="#061f33"/>
        </g>
      </g>
      <g id="Group_1418" data-name="Group 1418" transform="translate(11.011 7.57)">
        <path id="Path_1021" data-name="Path 1021" d="M1202.736,323.356a8.68,8.68,0,0,0,.135.977,2.648,2.648,0,0,1,.034.51,3.191,3.191,0,0,1-.072.51c-.072.33-.174.649-.273.963s-.211.634-.341.942a9.56,9.56,0,0,1-.974,1.768,9.941,9.941,0,0,1-2.921,2.77,9.2,9.2,0,0,1-1.82.874,8.431,8.431,0,0,1-1.962.447,3.94,3.94,0,0,1-1.013-.034,2.162,2.162,0,0,1-.922-.382,2.987,2.987,0,0,0,1.891.118,8.192,8.192,0,0,0,.93-.253c.152-.053.305-.1.455-.16s.3-.115.446-.18a10.323,10.323,0,0,0,1.681-.917,10.738,10.738,0,0,0,1.495-1.191,11.1,11.1,0,0,0,2.281-3.057c.148-.288.268-.577.4-.883s.256-.6.358-.9a2.928,2.928,0,0,0,.125-.454,3.05,3.05,0,0,0,.033-.475A5.992,5.992,0,0,1,1202.736,323.356Z" transform="translate(-1192.609 -323.356)" fill="#73b8d4"/>
      </g>
    </g>
    <path id="Path_1022" data-name="Path 1022" d="M1283.3,302.247l2.315-1.7-.087-2.87,2.331,1.676,2.7-.97-.874,2.735,1.758,2.271-2.871.014-1.617,2.373-.9-2.726Z" transform="translate(-120.964 -58.826)" fill="#51ba6c"/>
    <path id="Path_1023" data-name="Path 1023" d="M1617.876,345.768l2.035,1.852,2.679-.626-1.133,2.507,1.423,2.354-2.735-.3-1.8,2.081-.557-2.694-2.535-1.068,2.39-1.363Z" transform="translate(-299.022 -84.621)" fill="#51ba6c"/>
    <g id="Group_1426" data-name="Group 1426" transform="translate(1344.978 321.758)">
      <g id="Group_1425" data-name="Group 1425" transform="translate(0 0)">
        <g id="Group_1424" data-name="Group 1424">
          <g id="Group_1420" data-name="Group 1420" transform="translate(0 0)">
            <path id="Rectangle_1042" data-name="Rectangle 1042" d="M0,0H17.136a0,0,0,0,1,0,0V15.977a8.568,8.568,0,0,1-8.568,8.568h0A8.568,8.568,0,0,1,0,15.977V0A0,0,0,0,1,0,0Z" transform="translate(11.136 0) rotate(26.98)" fill="#00a09d"/>
          </g>
          <g id="Group_1421" data-name="Group 1421" transform="translate(14.065 12.463)">
            <path id="Path_1024" data-name="Path 1024" d="M1718.49,504.193a7.55,7.55,0,1,0,3.206,10.1A7.495,7.495,0,0,0,1718.49,504.193Zm-5.628,11.056a4.858,4.858,0,1,1,6.469-2.157A4.822,4.822,0,0,1,1712.861,515.249Z" transform="translate(-1707.6 -503.392)" fill="#00a09d"/>
          </g>
          <g id="Group_1422" data-name="Group 1422" transform="translate(6.005 2.337)" opacity="0.2">
            <path id="Path_1025" data-name="Path 1025" d="M1690.72,493.946h0a.929.929,0,0,1-.405-1.246l5.419-10.645a.93.93,0,0,1,1.246-.405h0a.93.93,0,0,1,.405,1.246l-5.419,10.645A.929.929,0,0,1,1690.72,493.946Z" transform="translate(-1690.214 -481.549)" fill="#fff"/>
          </g>
          <g id="Group_1423" data-name="Group 1423" transform="translate(7.877 5.979)">
            <path id="Path_1026" data-name="Path 1026" d="M1709.256,489.4l-9.167,18.007a4.34,4.34,0,0,1-5.836,1.9l3.527,1.8a4.34,4.34,0,0,0,5.836-1.9l9.167-18.006Z" transform="translate(-1694.253 -489.404)" fill="#1d7e8e"/>
          </g>
        </g>
      </g>
    </g>
  </g>
</svg>
